solid OpenSCAD_Model
  facet normal -1 0 0
    outer loop
      vertex 0 0 0
      vertex 0 80 0.4
      vertex 0 80 0
    endloop
  endfacet
  facet normal -1 -0 0
    outer loop
      vertex 0 80 0.4
      vertex 0 0 0
      vertex 0 0 0.4
    endloop
  endfacet
  facet normal 0 0 1
    outer loop
      vertex 80 80 0.4
      vertex 70 70 0.4
      vertex 80 0 0.4
    endloop
  endfacet
  facet normal 0 0 1
    outer loop
      vertex 80 80 0.4
      vertex 10 70 0.4
      vertex 70 70 0.4
    endloop
  endfacet
  facet normal 0 0 1
    outer loop
      vertex 10 70 0.4
      vertex 0 80 0.4
      vertex 10 10 0.4
    endloop
  endfacet
  facet normal -0 0 1
    outer loop
      vertex 0 80 0.4
      vertex 10 70 0.4
      vertex 80 80 0.4
    endloop
  endfacet
  facet normal -0 0 1
    outer loop
      vertex 70 10 0.4
      vertex 80 0 0.4
      vertex 70 70 0.4
    endloop
  endfacet
  facet normal -0 0 1
    outer loop
      vertex 10 10 0.4
      vertex 80 0 0.4
      vertex 70 10 0.4
    endloop
  endfacet
  facet normal 0 0 1
    outer loop
      vertex 10 10 0.4
      vertex 0 0 0.4
      vertex 80 0 0.4
    endloop
  endfacet
  facet normal 0 0 1
    outer loop
      vertex 0 0 0.4
      vertex 10 10 0.4
      vertex 0 80 0.4
    endloop
  endfacet
  facet normal 1 -0 0
    outer loop
      vertex 80 0 0.4
      vertex 80 80 0
      vertex 80 80 0.4
    endloop
  endfacet
  facet normal 1 0 0
    outer loop
      vertex 80 80 0
      vertex 80 0 0.4
      vertex 80 0 0
    endloop
  endfacet
  facet normal 0 1 -0
    outer loop
      vertex 80 80 0
      vertex 0 80 0.4
      vertex 80 80 0.4
    endloop
  endfacet
  facet normal 0 1 0
    outer loop
      vertex 0 80 0.4
      vertex 80 80 0
      vertex 0 80 0
    endloop
  endfacet
  facet normal 0 0 -1
    outer loop
      vertex 80 0 0
      vertex 70 10 0
      vertex 80 80 0
    endloop
  endfacet
  facet normal 0 0 -1
    outer loop
      vertex 80 0 0
      vertex 10 10 0
      vertex 70 10 0
    endloop
  endfacet
  facet normal -0 0 -1
    outer loop
      vertex 10 10 0
      vertex 0 0 0
      vertex 10 70 0
    endloop
  endfacet
  facet normal 0 0 -1
    outer loop
      vertex 0 0 0
      vertex 10 10 0
      vertex 80 0 0
    endloop
  endfacet
  facet normal 0 0 -1
    outer loop
      vertex 70 70 0
      vertex 80 80 0
      vertex 70 10 0
    endloop
  endfacet
  facet normal 0 0 -1
    outer loop
      vertex 10 70 0
      vertex 80 80 0
      vertex 70 70 0
    endloop
  endfacet
  facet normal 0 0 -1
    outer loop
      vertex 10 70 0
      vertex 0 80 0
      vertex 80 80 0
    endloop
  endfacet
  facet normal 0 0 -1
    outer loop
      vertex 0 80 0
      vertex 10 70 0
      vertex 0 0 0
    endloop
  endfacet
  facet normal 0 -1 0
    outer loop
      vertex 0 0 0
      vertex 80 0 0.4
      vertex 0 0 0.4
    endloop
  endfacet
  facet normal 0 -1 -0
    outer loop
      vertex 80 0 0.4
      vertex 0 0 0
      vertex 80 0 0
    endloop
  endfacet
  facet normal 1 -0 0
    outer loop
      vertex 10 10 0.4
      vertex 10 70 0
      vertex 10 70 0.4
    endloop
  endfacet
  facet normal 1 0 0
    outer loop
      vertex 10 70 0
      vertex 10 10 0.4
      vertex 10 10 0
    endloop
  endfacet
  facet normal -1 0 0
    outer loop
      vertex 70 10 0
      vertex 70 70 0.4
      vertex 70 70 0
    endloop
  endfacet
  facet normal -1 -0 0
    outer loop
      vertex 70 70 0.4
      vertex 70 10 0
      vertex 70 10 0.4
    endloop
  endfacet
  facet normal 0 -1 0
    outer loop
      vertex 10 70 0
      vertex 70 70 0.4
      vertex 10 70 0.4
    endloop
  endfacet
  facet normal 0 -1 -0
    outer loop
      vertex 70 70 0.4
      vertex 10 70 0
      vertex 70 70 0
    endloop
  endfacet
  facet normal 0 1 -0
    outer loop
      vertex 70 10 0
      vertex 10 10 0.4
      vertex 70 10 0.4
    endloop
  endfacet
  facet normal 0 1 0
    outer loop
      vertex 10 10 0.4
      vertex 70 10 0
      vertex 10 10 0
    endloop
  endfacet
endsolid OpenSCAD_Model
