solid ascii
  facet normal -1.000000e+000 0.000000e+000 0.000000e+000
    outer loop
      vertex   -3.100000e+001 4.900000e+001 2.220446e-015
      vertex   -3.100000e+001 4.900000e+001 5.000000e+000
      vertex   -3.100000e+001 5.100000e+001 2.220446e-015
    endloop
  endfacet
  facet normal -1.000000e+000 0.000000e+000 0.000000e+000
    outer loop
      vertex   -3.100000e+001 5.100000e+001 2.220446e-015
      vertex   -3.100000e+001 4.900000e+001 5.000000e+000
      vertex   -3.100000e+001 5.100000e+001 5.000000e+000
    endloop
  endfacet
  facet normal -0.000000e+000 -1.000000e+000 0.000000e+000
    outer loop
      vertex   -3.000000e+001 4.900000e+001 2.220446e-015
      vertex   -3.000000e+001 4.900000e+001 5.000000e+000
      vertex   -3.100000e+001 4.900000e+001 2.220446e-015
    endloop
  endfacet
  facet normal 0.000000e+000 -1.000000e+000 0.000000e+000
    outer loop
      vertex   -3.100000e+001 4.900000e+001 2.220446e-015
      vertex   -3.000000e+001 4.900000e+001 5.000000e+000
      vertex   -3.100000e+001 4.900000e+001 5.000000e+000
    endloop
  endfacet
  facet normal -0.000000e+000 -1.000000e+000 0.000000e+000
    outer loop
      vertex   -3.100000e+001 5.100000e+001 2.220446e-015
      vertex   -3.100000e+001 5.100000e+001 5.000000e+000
      vertex   -4.000000e+001 5.100000e+001 1.110223e-015
    endloop
  endfacet
  facet normal 0.000000e+000 -1.000000e+000 0.000000e+000
    outer loop
      vertex   -4.000000e+001 5.100000e+001 1.110223e-015
      vertex   -3.100000e+001 5.100000e+001 5.000000e+000
      vertex   -4.000000e+001 5.100000e+001 5.000000e+000
    endloop
  endfacet
  facet normal 1.973730e-016 0.000000e+000 1.000000e+000
    outer loop
      vertex   -4.000000e+001 5.100000e+001 5.000000e+000
      vertex   -3.100000e+001 5.100000e+001 5.000000e+000
      vertex   -4.000000e+001 5.500000e+001 5.000000e+000
    endloop
  endfacet
  facet normal 0.000000e+000 -4.440892e-016 1.000000e+000
    outer loop
      vertex   -4.000000e+001 5.500000e+001 5.000000e+000
      vertex   -3.100000e+001 5.100000e+001 5.000000e+000
      vertex   -3.000000e+001 5.500000e+001 5.000000e+000
    endloop
  endfacet
  facet normal -5.921189e-016 -2.960595e-016 1.000000e+000
    outer loop
      vertex   -3.000000e+001 5.500000e+001 5.000000e+000
      vertex   -3.100000e+001 5.100000e+001 5.000000e+000
      vertex   -3.000000e+001 4.900000e+001 5.000000e+000
    endloop
  endfacet
  facet normal 0.000000e+000 0.000000e+000 1.000000e+000
    outer loop
      vertex   -3.000000e+001 4.900000e+001 5.000000e+000
      vertex   -3.100000e+001 5.100000e+001 5.000000e+000
      vertex   -3.100000e+001 4.900000e+001 5.000000e+000
    endloop
  endfacet
  facet normal 1.000000e+000 0.000000e+000 -0.000000e+000
    outer loop
      vertex   -3.000000e+001 5.500000e+001 1.665335e-015
      vertex   -3.000000e+001 5.500000e+001 5.000000e+000
      vertex   -3.000000e+001 4.900000e+001 2.220446e-015
    endloop
  endfacet
  facet normal 1.000000e+000 0.000000e+000 -0.000000e+000
    outer loop
      vertex   -3.000000e+001 4.900000e+001 2.220446e-015
      vertex   -3.000000e+001 5.500000e+001 5.000000e+000
      vertex   -3.000000e+001 4.900000e+001 5.000000e+000
    endloop
  endfacet
  facet normal 1.000000e+000 0.000000e+000 -0.000000e+000
    outer loop
      vertex   -4.000000e+001 5.100000e+001 1.110223e-015
      vertex   -4.000000e+001 5.100000e+001 5.000000e+000
      vertex   -4.000000e+001 2.300000e+001 0.000000e+000
    endloop
  endfacet
  facet normal 1.000000e+000 0.000000e+000 -0.000000e+000
    outer loop
      vertex   -4.000000e+001 2.300000e+001 0.000000e+000
      vertex   -4.000000e+001 5.100000e+001 5.000000e+000
      vertex   -4.000000e+001 4.500000e+001 1.000000e+001
    endloop
  endfacet
  facet normal 1.000000e+000 3.229740e-016 7.105427e-016
    outer loop
      vertex   -4.000000e+001 2.300000e+001 2.000000e+001
      vertex   -4.000000e+001 4.500000e+001 1.000000e+001
      vertex   -4.000000e+001 4.500000e+001 2.000000e+001
    endloop
  endfacet
  facet normal 1.000000e+000 -0.000000e+000 0.000000e+000
    outer loop
      vertex   -4.000000e+001 2.300000e+001 2.000000e+001
      vertex   -4.000000e+001 2.300000e+001 0.000000e+000
      vertex   -4.000000e+001 4.500000e+001 1.000000e+001
    endloop
  endfacet
  facet normal 1.000000e+000 0.000000e+000 -0.000000e+000
    outer loop
      vertex   -4.000000e+001 5.500000e+001 5.000000e+000
      vertex   -4.000000e+001 5.500000e+001 1.000000e+001
      vertex   -4.000000e+001 5.100000e+001 5.000000e+000
    endloop
  endfacet
  facet normal 1.000000e+000 0.000000e+000 -0.000000e+000
    outer loop
      vertex   -4.000000e+001 5.100000e+001 5.000000e+000
      vertex   -4.000000e+001 5.500000e+001 1.000000e+001
      vertex   -4.000000e+001 4.500000e+001 1.000000e+001
    endloop
  endfacet
  facet normal 0.000000e+000 0.000000e+000 1.000000e+000
    outer loop
      vertex   -4.000000e+001 5.500000e+001 1.000000e+001
      vertex   -4.200000e+001 5.500000e+001 1.000000e+001
      vertex   -4.000000e+001 4.500000e+001 1.000000e+001
    endloop
  endfacet
  facet normal 0.000000e+000 0.000000e+000 1.000000e+000
    outer loop
      vertex   -4.000000e+001 4.500000e+001 1.000000e+001
      vertex   -4.200000e+001 5.500000e+001 1.000000e+001
      vertex   -4.200000e+001 4.500000e+001 1.000000e+001
    endloop
  endfacet
  facet normal 0.000000e+000 1.000000e+000 0.000000e+000
    outer loop
      vertex   -4.000000e+001 5.500000e+001 1.000000e+001
      vertex   -4.000000e+001 5.500000e+001 5.000000e+000
      vertex   -4.200000e+001 5.500000e+001 1.000000e+001
    endloop
  endfacet
  facet normal 0.000000e+000 1.000000e+000 0.000000e+000
    outer loop
      vertex   -4.200000e+001 5.500000e+001 1.000000e+001
      vertex   -4.000000e+001 5.500000e+001 5.000000e+000
      vertex   -4.200000e+001 5.500000e+001 0.000000e+000
    endloop
  endfacet
  facet normal -0.000000e+000 1.000000e+000 0.000000e+000
    outer loop
      vertex   -4.200000e+001 5.500000e+001 0.000000e+000
      vertex   -4.000000e+001 5.500000e+001 5.000000e+000
      vertex   -3.000000e+001 5.500000e+001 1.665335e-015
    endloop
  endfacet
  facet normal 0.000000e+000 1.000000e+000 -0.000000e+000
    outer loop
      vertex   -3.000000e+001 5.500000e+001 1.665335e-015
      vertex   -4.000000e+001 5.500000e+001 5.000000e+000
      vertex   -3.000000e+001 5.500000e+001 5.000000e+000
    endloop
  endfacet
  facet normal 0.000000e+000 -1.000000e+000 0.000000e+000
    outer loop
      vertex   -5.100000e+001 2.300000e+001 2.000000e+001
      vertex   -5.100000e+001 2.300000e+001 0.000000e+000
      vertex   -4.000000e+001 2.300000e+001 2.000000e+001
    endloop
  endfacet
  facet normal 0.000000e+000 -1.000000e+000 -0.000000e+000
    outer loop
      vertex   -4.000000e+001 2.300000e+001 2.000000e+001
      vertex   -5.100000e+001 2.300000e+001 0.000000e+000
      vertex   -4.000000e+001 2.300000e+001 0.000000e+000
    endloop
  endfacet
  facet normal -0.000000e+000 1.000000e+000 0.000000e+000
    outer loop
      vertex   -4.900000e+001 2.500000e+001 0.000000e+000
      vertex   -4.900000e+001 2.500000e+001 2.000000e+001
      vertex   -4.200000e+001 2.500000e+001 0.000000e+000
    endloop
  endfacet
  facet normal 0.000000e+000 1.000000e+000 -0.000000e+000
    outer loop
      vertex   -4.200000e+001 2.500000e+001 0.000000e+000
      vertex   -4.900000e+001 2.500000e+001 2.000000e+001
      vertex   -4.200000e+001 2.500000e+001 2.000000e+001
    endloop
  endfacet
  facet normal -1.000000e+000 -0.000000e+000 -0.000000e+000
    outer loop
      vertex   -4.200000e+001 4.500000e+001 2.000000e+001
      vertex   -4.200000e+001 4.500000e+001 1.000000e+001
      vertex   -4.200000e+001 2.500000e+001 2.000000e+001
    endloop
  endfacet
  facet normal -1.000000e+000 0.000000e+000 -0.000000e+000
    outer loop
      vertex   -4.200000e+001 2.500000e+001 2.000000e+001
      vertex   -4.200000e+001 4.500000e+001 1.000000e+001
      vertex   -4.200000e+001 2.500000e+001 0.000000e+000
    endloop
  endfacet
  facet normal -1.000000e+000 0.000000e+000 0.000000e+000
    outer loop
      vertex   -4.200000e+001 2.500000e+001 0.000000e+000
      vertex   -4.200000e+001 4.500000e+001 1.000000e+001
      vertex   -4.200000e+001 5.500000e+001 0.000000e+000
    endloop
  endfacet
  facet normal -1.000000e+000 0.000000e+000 0.000000e+000
    outer loop
      vertex   -4.200000e+001 5.500000e+001 0.000000e+000
      vertex   -4.200000e+001 4.500000e+001 1.000000e+001
      vertex   -4.200000e+001 5.500000e+001 1.000000e+001
    endloop
  endfacet
  facet normal -0.000000e+000 1.000000e+000 0.000000e+000
    outer loop
      vertex   -4.200000e+001 4.500000e+001 1.000000e+001
      vertex   -4.200000e+001 4.500000e+001 2.000000e+001
      vertex   -4.000000e+001 4.500000e+001 1.000000e+001
    endloop
  endfacet
  facet normal 0.000000e+000 1.000000e+000 -0.000000e+000
    outer loop
      vertex   -4.000000e+001 4.500000e+001 1.000000e+001
      vertex   -4.200000e+001 4.500000e+001 2.000000e+001
      vertex   -4.000000e+001 4.500000e+001 2.000000e+001
    endloop
  endfacet
  facet normal 0.000000e+000 0.000000e+000 1.000000e+000
    outer loop
      vertex   -4.900000e+001 4.500000e+001 2.000000e+001
      vertex   -5.100000e+001 4.500000e+001 2.000000e+001
      vertex   -4.900000e+001 2.500000e+001 2.000000e+001
    endloop
  endfacet
  facet normal 0.000000e+000 0.000000e+000 1.000000e+000
    outer loop
      vertex   -4.900000e+001 2.500000e+001 2.000000e+001
      vertex   -5.100000e+001 4.500000e+001 2.000000e+001
      vertex   -5.100000e+001 2.300000e+001 2.000000e+001
    endloop
  endfacet
  facet normal 0.000000e+000 0.000000e+000 1.000000e+000
    outer loop
      vertex   -4.000000e+001 2.300000e+001 2.000000e+001
      vertex   -4.900000e+001 2.500000e+001 2.000000e+001
      vertex   -5.100000e+001 2.300000e+001 2.000000e+001
    endloop
  endfacet
  facet normal 0.000000e+000 0.000000e+000 1.000000e+000
    outer loop
      vertex   -4.000000e+001 2.300000e+001 2.000000e+001
      vertex   -4.200000e+001 2.500000e+001 2.000000e+001
      vertex   -4.900000e+001 2.500000e+001 2.000000e+001
    endloop
  endfacet
  facet normal 0.000000e+000 0.000000e+000 1.000000e+000
    outer loop
      vertex   -4.000000e+001 2.300000e+001 2.000000e+001
      vertex   -4.000000e+001 4.500000e+001 2.000000e+001
      vertex   -4.200000e+001 2.500000e+001 2.000000e+001
    endloop
  endfacet
  facet normal 0.000000e+000 -0.000000e+000 1.000000e+000
    outer loop
      vertex   -4.200000e+001 2.500000e+001 2.000000e+001
      vertex   -4.000000e+001 4.500000e+001 2.000000e+001
      vertex   -4.200000e+001 4.500000e+001 2.000000e+001
    endloop
  endfacet
  facet normal -0.000000e+000 -0.000000e+000 -1.000000e+000
    outer loop
      vertex   -4.900000e+001 4.500000e+001 0.000000e+000
      vertex   -4.900000e+001 2.500000e+001 0.000000e+000
      vertex   -5.100000e+001 4.500000e+001 0.000000e+000
    endloop
  endfacet
  facet normal 0.000000e+000 -0.000000e+000 -1.000000e+000
    outer loop
      vertex   -5.100000e+001 4.500000e+001 0.000000e+000
      vertex   -4.900000e+001 2.500000e+001 0.000000e+000
      vertex   -5.100000e+001 2.300000e+001 0.000000e+000
    endloop
  endfacet
  facet normal 0.000000e+000 0.000000e+000 -1.000000e+000
    outer loop
      vertex   -5.100000e+001 2.300000e+001 0.000000e+000
      vertex   -4.900000e+001 2.500000e+001 0.000000e+000
      vertex   -4.200000e+001 2.500000e+001 0.000000e+000
    endloop
  endfacet
  facet normal 3.965082e-017 3.965082e-017 -1.000000e+000
    outer loop
      vertex   -4.000000e+001 2.300000e+001 0.000000e+000
      vertex   -4.200000e+001 2.500000e+001 0.000000e+000
      vertex   -4.000000e+001 5.100000e+001 1.110223e-015
    endloop
  endfacet
  facet normal 0.000000e+000 0.000000e+000 -1.000000e+000
    outer loop
      vertex   -4.000000e+001 2.300000e+001 0.000000e+000
      vertex   -5.100000e+001 2.300000e+001 0.000000e+000
      vertex   -4.200000e+001 2.500000e+001 0.000000e+000
    endloop
  endfacet
  facet normal 5.551115e-016 0.000000e+000 -1.000000e+000
    outer loop
      vertex   -4.200000e+001 2.500000e+001 0.000000e+000
      vertex   -4.200000e+001 5.500000e+001 0.000000e+000
      vertex   -4.000000e+001 5.100000e+001 1.110223e-015
    endloop
  endfacet
  facet normal 1.387779e-016 -2.081668e-016 -1.000000e+000
    outer loop
      vertex   -4.000000e+001 5.100000e+001 1.110223e-015
      vertex   -4.200000e+001 5.500000e+001 0.000000e+000
      vertex   -3.000000e+001 5.500000e+001 1.665335e-015
    endloop
  endfacet
  facet normal -1.850372e-016 -9.251859e-017 -1.000000e+000
    outer loop
      vertex   -3.100000e+001 5.100000e+001 2.220446e-015
      vertex   -3.000000e+001 5.500000e+001 1.665335e-015
      vertex   -3.000000e+001 4.900000e+001 2.220446e-015
    endloop
  endfacet
  facet normal 0.000000e+000 0.000000e+000 -1.000000e+000
    outer loop
      vertex   -3.100000e+001 4.900000e+001 2.220446e-015
      vertex   -3.100000e+001 5.100000e+001 2.220446e-015
      vertex   -3.000000e+001 4.900000e+001 2.220446e-015
    endloop
  endfacet
  facet normal 1.233581e-016 -1.696174e-016 -1.000000e+000
    outer loop
      vertex   -4.000000e+001 5.100000e+001 1.110223e-015
      vertex   -3.000000e+001 5.500000e+001 1.665335e-015
      vertex   -3.100000e+001 5.100000e+001 2.220446e-015
    endloop
  endfacet
  facet normal -1.000000e+000 -0.000000e+000 -0.000000e+000
    outer loop
      vertex   -5.100000e+001 4.500000e+001 2.000000e+001
      vertex   -5.100000e+001 4.500000e+001 0.000000e+000
      vertex   -5.100000e+001 2.300000e+001 2.000000e+001
    endloop
  endfacet
  facet normal -1.000000e+000 -0.000000e+000 -0.000000e+000
    outer loop
      vertex   -5.100000e+001 2.300000e+001 2.000000e+001
      vertex   -5.100000e+001 4.500000e+001 0.000000e+000
      vertex   -5.100000e+001 2.300000e+001 0.000000e+000
    endloop
  endfacet
  facet normal 0.000000e+000 1.000000e+000 0.000000e+000
    outer loop
      vertex   -4.900000e+001 4.500000e+001 2.000000e+001
      vertex   -4.900000e+001 4.500000e+001 0.000000e+000
      vertex   -5.100000e+001 4.500000e+001 2.000000e+001
    endloop
  endfacet
  facet normal 0.000000e+000 1.000000e+000 0.000000e+000
    outer loop
      vertex   -5.100000e+001 4.500000e+001 2.000000e+001
      vertex   -4.900000e+001 4.500000e+001 0.000000e+000
      vertex   -5.100000e+001 4.500000e+001 0.000000e+000
    endloop
  endfacet
  facet normal 1.000000e+000 -0.000000e+000 0.000000e+000
    outer loop
      vertex   -4.900000e+001 2.500000e+001 2.000000e+001
      vertex   -4.900000e+001 2.500000e+001 0.000000e+000
      vertex   -4.900000e+001 4.500000e+001 2.000000e+001
    endloop
  endfacet
  facet normal 1.000000e+000 -0.000000e+000 0.000000e+000
    outer loop
      vertex   -4.900000e+001 4.500000e+001 2.000000e+001
      vertex   -4.900000e+001 2.500000e+001 0.000000e+000
      vertex   -4.900000e+001 4.500000e+001 0.000000e+000
    endloop
  endfacet
endsolid
