solid OpenSCAD_Model
  facet normal -1 0 0
    outer loop
      vertex 0 0 0
      vertex 0 1 18
      vertex 0 1 0
    endloop
  endfacet
  facet normal -1 -0 0
    outer loop
      vertex 0 1 18
      vertex 0 0 0
      vertex 0 0 18
    endloop
  endfacet
  facet normal 0 0 1
    outer loop
      vertex 20 27 18
      vertex 17.5 26 18
      vertex 20 26 18
    endloop
  endfacet
  facet normal 0 0 1
    outer loop
      vertex 17.5 26 18
      vertex 14.5 26 18
      vertex 17.5 1 18
    endloop
  endfacet
  facet normal 0 0 1
    outer loop
      vertex 20 27 18
      vertex 14.5 26 18
      vertex 17.5 26 18
    endloop
  endfacet
  facet normal 0 0 1
    outer loop
      vertex 20 27 18
      vertex 11.5 26 18
      vertex 14.5 26 18
    endloop
  endfacet
  facet normal 0 0 1
    outer loop
      vertex 11.5 26 18
      vertex 8.5 26 18
      vertex 11.5 1 18
    endloop
  endfacet
  facet normal 0 0 1
    outer loop
      vertex 20 27 18
      vertex 8.5 26 18
      vertex 11.5 26 18
    endloop
  endfacet
  facet normal -0 0 1
    outer loop
      vertex 0 27 18
      vertex 8.5 26 18
      vertex 20 27 18
    endloop
  endfacet
  facet normal 0 0 1
    outer loop
      vertex 5.5 26 18
      vertex 2.5 26 18
      vertex 5.5 1 18
    endloop
  endfacet
  facet normal 0 0 1
    outer loop
      vertex 8.5 26 18
      vertex 0 27 18
      vertex 5.5 26 18
    endloop
  endfacet
  facet normal 0 0 1
    outer loop
      vertex 5.5 26 18
      vertex 0 27 18
      vertex 2.5 26 18
    endloop
  endfacet
  facet normal 0 0 1
    outer loop
      vertex 2.5 26 18
      vertex 0 27 18
      vertex 0 26 18
    endloop
  endfacet
  facet normal -0 0 1
    outer loop
      vertex 17.5 1 18
      vertex 20 0 18
      vertex 20 1 18
    endloop
  endfacet
  facet normal 0 0 1
    outer loop
      vertex 14.5 1 18
      vertex 17.5 1 18
      vertex 14.5 26 18
    endloop
  endfacet
  facet normal -0 0 1
    outer loop
      vertex 14.5 1 18
      vertex 20 0 18
      vertex 17.5 1 18
    endloop
  endfacet
  facet normal -0 0 1
    outer loop
      vertex 11.5 1 18
      vertex 20 0 18
      vertex 14.5 1 18
    endloop
  endfacet
  facet normal 0 0 1
    outer loop
      vertex 8.5 1 18
      vertex 11.5 1 18
      vertex 8.5 26 18
    endloop
  endfacet
  facet normal -0 0 1
    outer loop
      vertex 8.5 1 18
      vertex 20 0 18
      vertex 11.5 1 18
    endloop
  endfacet
  facet normal 0 0 1
    outer loop
      vertex 0 0 18
      vertex 8.5 1 18
      vertex 5.5 1 18
    endloop
  endfacet
  facet normal 0 0 1
    outer loop
      vertex 2.5 1 18
      vertex 5.5 1 18
      vertex 2.5 26 18
    endloop
  endfacet
  facet normal 0 0 1
    outer loop
      vertex 0 0 18
      vertex 5.5 1 18
      vertex 2.5 1 18
    endloop
  endfacet
  facet normal 0 0 1
    outer loop
      vertex 0 0 18
      vertex 2.5 1 18
      vertex 0 1 18
    endloop
  endfacet
  facet normal 0 0 1
    outer loop
      vertex 8.5 1 18
      vertex 0 0 18
      vertex 20 0 18
    endloop
  endfacet
  facet normal 1 -0 0
    outer loop
      vertex 20 0 18
      vertex 20 1 0
      vertex 20 1 18
    endloop
  endfacet
  facet normal 1 0 0
    outer loop
      vertex 20 1 0
      vertex 20 0 18
      vertex 20 0 0
    endloop
  endfacet
  facet normal 0 1 -0
    outer loop
      vertex 20 1 0
      vertex 17.5 1 18
      vertex 20 1 18
    endloop
  endfacet
  facet normal 0 1 0
    outer loop
      vertex 17.5 1 18
      vertex 20 1 0
      vertex 17.5 1 0
    endloop
  endfacet
  facet normal 0 1 -0
    outer loop
      vertex 14.5 1 0
      vertex 11.5 1 18
      vertex 14.5 1 18
    endloop
  endfacet
  facet normal 0 1 0
    outer loop
      vertex 11.5 1 18
      vertex 14.5 1 0
      vertex 11.5 1 0
    endloop
  endfacet
  facet normal 0 1 -0
    outer loop
      vertex 8.5 1 0
      vertex 5.5 1 18
      vertex 8.5 1 18
    endloop
  endfacet
  facet normal 0 1 0
    outer loop
      vertex 5.5 1 18
      vertex 8.5 1 0
      vertex 5.5 1 0
    endloop
  endfacet
  facet normal 0 1 -0
    outer loop
      vertex 2.5 1 0
      vertex 0 1 18
      vertex 2.5 1 18
    endloop
  endfacet
  facet normal 0 1 0
    outer loop
      vertex 0 1 18
      vertex 2.5 1 0
      vertex 0 1 0
    endloop
  endfacet
  facet normal 0 0 -1
    outer loop
      vertex 20 0 0
      vertex 17.5 1 0
      vertex 20 1 0
    endloop
  endfacet
  facet normal 0 0 -1
    outer loop
      vertex 17.5 1 0
      vertex 14.5 1 0
      vertex 17.5 26 0
    endloop
  endfacet
  facet normal 0 0 -1
    outer loop
      vertex 20 0 0
      vertex 14.5 1 0
      vertex 17.5 1 0
    endloop
  endfacet
  facet normal 0 0 -1
    outer loop
      vertex 20 0 0
      vertex 11.5 1 0
      vertex 14.5 1 0
    endloop
  endfacet
  facet normal 0 0 -1
    outer loop
      vertex 11.5 1 0
      vertex 8.5 1 0
      vertex 11.5 26 0
    endloop
  endfacet
  facet normal 0 0 -1
    outer loop
      vertex 20 0 0
      vertex 8.5 1 0
      vertex 11.5 1 0
    endloop
  endfacet
  facet normal 0 0 -1
    outer loop
      vertex 0 0 0
      vertex 8.5 1 0
      vertex 20 0 0
    endloop
  endfacet
  facet normal 0 0 -1
    outer loop
      vertex 5.5 1 0
      vertex 2.5 1 0
      vertex 5.5 26 0
    endloop
  endfacet
  facet normal -0 0 -1
    outer loop
      vertex 8.5 1 0
      vertex 0 0 0
      vertex 5.5 1 0
    endloop
  endfacet
  facet normal -0 0 -1
    outer loop
      vertex 5.5 1 0
      vertex 0 0 0
      vertex 2.5 1 0
    endloop
  endfacet
  facet normal -0 0 -1
    outer loop
      vertex 2.5 1 0
      vertex 0 0 0
      vertex 0 1 0
    endloop
  endfacet
  facet normal 0 0 -1
    outer loop
      vertex 17.5 26 0
      vertex 20 27 0
      vertex 20 26 0
    endloop
  endfacet
  facet normal 0 0 -1
    outer loop
      vertex 14.5 26 0
      vertex 17.5 26 0
      vertex 14.5 1 0
    endloop
  endfacet
  facet normal 0 0 -1
    outer loop
      vertex 14.5 26 0
      vertex 20 27 0
      vertex 17.5 26 0
    endloop
  endfacet
  facet normal 0 0 -1
    outer loop
      vertex 11.5 26 0
      vertex 20 27 0
      vertex 14.5 26 0
    endloop
  endfacet
  facet normal 0 0 -1
    outer loop
      vertex 8.5 26 0
      vertex 11.5 26 0
      vertex 8.5 1 0
    endloop
  endfacet
  facet normal 0 0 -1
    outer loop
      vertex 8.5 26 0
      vertex 20 27 0
      vertex 11.5 26 0
    endloop
  endfacet
  facet normal 0 0 -1
    outer loop
      vertex 0 27 0
      vertex 8.5 26 0
      vertex 5.5 26 0
    endloop
  endfacet
  facet normal 0 0 -1
    outer loop
      vertex 2.5 26 0
      vertex 5.5 26 0
      vertex 2.5 1 0
    endloop
  endfacet
  facet normal 0 0 -1
    outer loop
      vertex 0 27 0
      vertex 5.5 26 0
      vertex 2.5 26 0
    endloop
  endfacet
  facet normal 0 0 -1
    outer loop
      vertex 0 27 0
      vertex 2.5 26 0
      vertex 0 26 0
    endloop
  endfacet
  facet normal 0 0 -1
    outer loop
      vertex 8.5 26 0
      vertex 0 27 0
      vertex 20 27 0
    endloop
  endfacet
  facet normal 0 -1 0
    outer loop
      vertex 0 0 0
      vertex 20 0 18
      vertex 0 0 18
    endloop
  endfacet
  facet normal 0 -1 -0
    outer loop
      vertex 20 0 18
      vertex 0 0 0
      vertex 20 0 0
    endloop
  endfacet
  facet normal -1 0 0
    outer loop
      vertex 0 26 0
      vertex 0 27 18
      vertex 0 27 0
    endloop
  endfacet
  facet normal -1 -0 0
    outer loop
      vertex 0 27 18
      vertex 0 26 0
      vertex 0 26 18
    endloop
  endfacet
  facet normal 1 -0 0
    outer loop
      vertex 20 26 18
      vertex 20 27 0
      vertex 20 27 18
    endloop
  endfacet
  facet normal 1 0 0
    outer loop
      vertex 20 27 0
      vertex 20 26 18
      vertex 20 26 0
    endloop
  endfacet
  facet normal 0 1 -0
    outer loop
      vertex 20 27 0
      vertex 0 27 18
      vertex 20 27 18
    endloop
  endfacet
  facet normal 0 1 0
    outer loop
      vertex 0 27 18
      vertex 20 27 0
      vertex 0 27 0
    endloop
  endfacet
  facet normal 0 -1 0
    outer loop
      vertex 17.5 26 0
      vertex 20 26 18
      vertex 17.5 26 18
    endloop
  endfacet
  facet normal 0 -1 -0
    outer loop
      vertex 20 26 18
      vertex 17.5 26 0
      vertex 20 26 0
    endloop
  endfacet
  facet normal 0 -1 0
    outer loop
      vertex 11.5 26 0
      vertex 14.5 26 18
      vertex 11.5 26 18
    endloop
  endfacet
  facet normal 0 -1 -0
    outer loop
      vertex 14.5 26 18
      vertex 11.5 26 0
      vertex 14.5 26 0
    endloop
  endfacet
  facet normal 0 -1 0
    outer loop
      vertex 5.5 26 0
      vertex 8.5 26 18
      vertex 5.5 26 18
    endloop
  endfacet
  facet normal 0 -1 -0
    outer loop
      vertex 8.5 26 18
      vertex 5.5 26 0
      vertex 8.5 26 0
    endloop
  endfacet
  facet normal 0 -1 0
    outer loop
      vertex 0 26 0
      vertex 2.5 26 18
      vertex 0 26 18
    endloop
  endfacet
  facet normal 0 -1 -0
    outer loop
      vertex 2.5 26 18
      vertex 0 26 0
      vertex 2.5 26 0
    endloop
  endfacet
  facet normal -1 0 0
    outer loop
      vertex 2.5 1 0
      vertex 2.5 26 18
      vertex 2.5 26 0
    endloop
  endfacet
  facet normal -1 -0 0
    outer loop
      vertex 2.5 26 18
      vertex 2.5 1 0
      vertex 2.5 1 18
    endloop
  endfacet
  facet normal 1 -0 0
    outer loop
      vertex 5.5 1 18
      vertex 5.5 26 0
      vertex 5.5 26 18
    endloop
  endfacet
  facet normal 1 0 0
    outer loop
      vertex 5.5 26 0
      vertex 5.5 1 18
      vertex 5.5 1 0
    endloop
  endfacet
  facet normal -1 0 0
    outer loop
      vertex 8.5 1 0
      vertex 8.5 26 18
      vertex 8.5 26 0
    endloop
  endfacet
  facet normal -1 -0 0
    outer loop
      vertex 8.5 26 18
      vertex 8.5 1 0
      vertex 8.5 1 18
    endloop
  endfacet
  facet normal 1 -0 0
    outer loop
      vertex 11.5 1 18
      vertex 11.5 26 0
      vertex 11.5 26 18
    endloop
  endfacet
  facet normal 1 0 0
    outer loop
      vertex 11.5 26 0
      vertex 11.5 1 18
      vertex 11.5 1 0
    endloop
  endfacet
  facet normal -1 0 0
    outer loop
      vertex 14.5 1 0
      vertex 14.5 26 18
      vertex 14.5 26 0
    endloop
  endfacet
  facet normal -1 -0 0
    outer loop
      vertex 14.5 26 18
      vertex 14.5 1 0
      vertex 14.5 1 18
    endloop
  endfacet
  facet normal 1 -0 0
    outer loop
      vertex 17.5 1 18
      vertex 17.5 26 0
      vertex 17.5 26 18
    endloop
  endfacet
  facet normal 1 0 0
    outer loop
      vertex 17.5 26 0
      vertex 17.5 1 18
      vertex 17.5 1 0
    endloop
  endfacet
endsolid OpenSCAD_Model
