solid OpenSCAD_Model
  facet normal -1 0 0
    outer loop
      vertex 0 0 0
      vertex 0 1 18.8
      vertex 0 1 0
    endloop
  endfacet
  facet normal -1 -0 0
    outer loop
      vertex 0 1 18.8
      vertex 0 0 0
      vertex 0 0 18.8
    endloop
  endfacet
  facet normal 0 0 1
    outer loop
      vertex 18.2 26.6 18.8
      vertex 15.6 25.6 18.8
      vertex 18.2 25.6 18.8
    endloop
  endfacet
  facet normal 0 0 1
    outer loop
      vertex 15.6 25.6 18.8
      vertex 13 25.6 18.8
      vertex 15.6 1 18.8
    endloop
  endfacet
  facet normal 0 0 1
    outer loop
      vertex 18.2 26.6 18.8
      vertex 13 25.6 18.8
      vertex 15.6 25.6 18.8
    endloop
  endfacet
  facet normal 0 0 1
    outer loop
      vertex 18.2 26.6 18.8
      vertex 10.4 25.6 18.8
      vertex 13 25.6 18.8
    endloop
  endfacet
  facet normal 0 0 1
    outer loop
      vertex 10.4 25.6 18.8
      vertex 7.8 25.6 18.8
      vertex 10.4 1 18.8
    endloop
  endfacet
  facet normal 0 0 1
    outer loop
      vertex 18.2 26.6 18.8
      vertex 7.8 25.6 18.8
      vertex 10.4 25.6 18.8
    endloop
  endfacet
  facet normal -0 0 1
    outer loop
      vertex 0 26.6 18.8
      vertex 7.8 25.6 18.8
      vertex 18.2 26.6 18.8
    endloop
  endfacet
  facet normal 0 0 1
    outer loop
      vertex 5.2 25.6 18.8
      vertex 2.6 25.6 18.8
      vertex 5.2 1 18.8
    endloop
  endfacet
  facet normal 0 0 1
    outer loop
      vertex 7.8 25.6 18.8
      vertex 0 26.6 18.8
      vertex 5.2 25.6 18.8
    endloop
  endfacet
  facet normal 0 0 1
    outer loop
      vertex 5.2 25.6 18.8
      vertex 0 26.6 18.8
      vertex 2.6 25.6 18.8
    endloop
  endfacet
  facet normal 0 0 1
    outer loop
      vertex 2.6 25.6 18.8
      vertex 0 26.6 18.8
      vertex 0 25.6 18.8
    endloop
  endfacet
  facet normal -0 0 1
    outer loop
      vertex 15.6 1 18.8
      vertex 18.2 0 18.8
      vertex 18.2 1 18.8
    endloop
  endfacet
  facet normal 0 0 1
    outer loop
      vertex 13 1 18.8
      vertex 15.6 1 18.8
      vertex 13 25.6 18.8
    endloop
  endfacet
  facet normal -0 0 1
    outer loop
      vertex 13 1 18.8
      vertex 18.2 0 18.8
      vertex 15.6 1 18.8
    endloop
  endfacet
  facet normal -0 0 1
    outer loop
      vertex 10.4 1 18.8
      vertex 18.2 0 18.8
      vertex 13 1 18.8
    endloop
  endfacet
  facet normal 0 0 1
    outer loop
      vertex 7.8 1 18.8
      vertex 10.4 1 18.8
      vertex 7.8 25.6 18.8
    endloop
  endfacet
  facet normal -0 0 1
    outer loop
      vertex 7.8 1 18.8
      vertex 18.2 0 18.8
      vertex 10.4 1 18.8
    endloop
  endfacet
  facet normal 0 0 1
    outer loop
      vertex 0 0 18.8
      vertex 7.8 1 18.8
      vertex 5.2 1 18.8
    endloop
  endfacet
  facet normal 0 0 1
    outer loop
      vertex 2.6 1 18.8
      vertex 5.2 1 18.8
      vertex 2.6 25.6 18.8
    endloop
  endfacet
  facet normal 0 0 1
    outer loop
      vertex 0 0 18.8
      vertex 5.2 1 18.8
      vertex 2.6 1 18.8
    endloop
  endfacet
  facet normal 0 0 1
    outer loop
      vertex 0 0 18.8
      vertex 2.6 1 18.8
      vertex 0 1 18.8
    endloop
  endfacet
  facet normal 0 0 1
    outer loop
      vertex 7.8 1 18.8
      vertex 0 0 18.8
      vertex 18.2 0 18.8
    endloop
  endfacet
  facet normal 1 -0 0
    outer loop
      vertex 18.2 0 18.8
      vertex 18.2 1 0
      vertex 18.2 1 18.8
    endloop
  endfacet
  facet normal 1 0 0
    outer loop
      vertex 18.2 1 0
      vertex 18.2 0 18.8
      vertex 18.2 0 0
    endloop
  endfacet
  facet normal 0 1 -0
    outer loop
      vertex 18.2 1 0
      vertex 15.6 1 18.8
      vertex 18.2 1 18.8
    endloop
  endfacet
  facet normal 0 1 0
    outer loop
      vertex 15.6 1 18.8
      vertex 18.2 1 0
      vertex 15.6 1 0
    endloop
  endfacet
  facet normal 0 1 -0
    outer loop
      vertex 13 1 0
      vertex 10.4 1 18.8
      vertex 13 1 18.8
    endloop
  endfacet
  facet normal 0 1 0
    outer loop
      vertex 10.4 1 18.8
      vertex 13 1 0
      vertex 10.4 1 0
    endloop
  endfacet
  facet normal 0 1 -0
    outer loop
      vertex 7.8 1 0
      vertex 5.2 1 18.8
      vertex 7.8 1 18.8
    endloop
  endfacet
  facet normal 0 1 0
    outer loop
      vertex 5.2 1 18.8
      vertex 7.8 1 0
      vertex 5.2 1 0
    endloop
  endfacet
  facet normal 0 1 -0
    outer loop
      vertex 2.6 1 0
      vertex 0 1 18.8
      vertex 2.6 1 18.8
    endloop
  endfacet
  facet normal 0 1 0
    outer loop
      vertex 0 1 18.8
      vertex 2.6 1 0
      vertex 0 1 0
    endloop
  endfacet
  facet normal 0 0 -1
    outer loop
      vertex 18.2 0 0
      vertex 15.6 1 0
      vertex 18.2 1 0
    endloop
  endfacet
  facet normal 0 0 -1
    outer loop
      vertex 15.6 1 0
      vertex 13 1 0
      vertex 15.6 25.6 0
    endloop
  endfacet
  facet normal 0 0 -1
    outer loop
      vertex 18.2 0 0
      vertex 13 1 0
      vertex 15.6 1 0
    endloop
  endfacet
  facet normal 0 0 -1
    outer loop
      vertex 18.2 0 0
      vertex 10.4 1 0
      vertex 13 1 0
    endloop
  endfacet
  facet normal 0 0 -1
    outer loop
      vertex 10.4 1 0
      vertex 7.8 1 0
      vertex 10.4 25.6 0
    endloop
  endfacet
  facet normal 0 0 -1
    outer loop
      vertex 18.2 0 0
      vertex 7.8 1 0
      vertex 10.4 1 0
    endloop
  endfacet
  facet normal 0 0 -1
    outer loop
      vertex 0 0 0
      vertex 7.8 1 0
      vertex 18.2 0 0
    endloop
  endfacet
  facet normal 0 0 -1
    outer loop
      vertex 5.2 1 0
      vertex 2.6 1 0
      vertex 5.2 25.6 0
    endloop
  endfacet
  facet normal -0 0 -1
    outer loop
      vertex 7.8 1 0
      vertex 0 0 0
      vertex 5.2 1 0
    endloop
  endfacet
  facet normal -0 0 -1
    outer loop
      vertex 5.2 1 0
      vertex 0 0 0
      vertex 2.6 1 0
    endloop
  endfacet
  facet normal -0 0 -1
    outer loop
      vertex 2.6 1 0
      vertex 0 0 0
      vertex 0 1 0
    endloop
  endfacet
  facet normal 0 0 -1
    outer loop
      vertex 15.6 25.6 0
      vertex 18.2 26.6 0
      vertex 18.2 25.6 0
    endloop
  endfacet
  facet normal 0 0 -1
    outer loop
      vertex 13 25.6 0
      vertex 15.6 25.6 0
      vertex 13 1 0
    endloop
  endfacet
  facet normal 0 0 -1
    outer loop
      vertex 13 25.6 0
      vertex 18.2 26.6 0
      vertex 15.6 25.6 0
    endloop
  endfacet
  facet normal 0 0 -1
    outer loop
      vertex 10.4 25.6 0
      vertex 18.2 26.6 0
      vertex 13 25.6 0
    endloop
  endfacet
  facet normal 0 0 -1
    outer loop
      vertex 7.8 25.6 0
      vertex 10.4 25.6 0
      vertex 7.8 1 0
    endloop
  endfacet
  facet normal 0 0 -1
    outer loop
      vertex 7.8 25.6 0
      vertex 18.2 26.6 0
      vertex 10.4 25.6 0
    endloop
  endfacet
  facet normal 0 0 -1
    outer loop
      vertex 0 26.6 0
      vertex 7.8 25.6 0
      vertex 5.2 25.6 0
    endloop
  endfacet
  facet normal 0 0 -1
    outer loop
      vertex 2.6 25.6 0
      vertex 5.2 25.6 0
      vertex 2.6 1 0
    endloop
  endfacet
  facet normal 0 0 -1
    outer loop
      vertex 0 26.6 0
      vertex 5.2 25.6 0
      vertex 2.6 25.6 0
    endloop
  endfacet
  facet normal 0 0 -1
    outer loop
      vertex 0 26.6 0
      vertex 2.6 25.6 0
      vertex 0 25.6 0
    endloop
  endfacet
  facet normal 0 0 -1
    outer loop
      vertex 7.8 25.6 0
      vertex 0 26.6 0
      vertex 18.2 26.6 0
    endloop
  endfacet
  facet normal 0 -1 0
    outer loop
      vertex 0 0 0
      vertex 18.2 0 18.8
      vertex 0 0 18.8
    endloop
  endfacet
  facet normal 0 -1 -0
    outer loop
      vertex 18.2 0 18.8
      vertex 0 0 0
      vertex 18.2 0 0
    endloop
  endfacet
  facet normal -1 0 0
    outer loop
      vertex 0 25.6 0
      vertex 0 26.6 18.8
      vertex 0 26.6 0
    endloop
  endfacet
  facet normal -1 -0 0
    outer loop
      vertex 0 26.6 18.8
      vertex 0 25.6 0
      vertex 0 25.6 18.8
    endloop
  endfacet
  facet normal 1 -0 0
    outer loop
      vertex 18.2 25.6 18.8
      vertex 18.2 26.6 0
      vertex 18.2 26.6 18.8
    endloop
  endfacet
  facet normal 1 0 0
    outer loop
      vertex 18.2 26.6 0
      vertex 18.2 25.6 18.8
      vertex 18.2 25.6 0
    endloop
  endfacet
  facet normal 0 -1 0
    outer loop
      vertex 15.6 25.6 0
      vertex 18.2 25.6 18.8
      vertex 15.6 25.6 18.8
    endloop
  endfacet
  facet normal 0 -1 -0
    outer loop
      vertex 18.2 25.6 18.8
      vertex 15.6 25.6 0
      vertex 18.2 25.6 0
    endloop
  endfacet
  facet normal 0 -1 0
    outer loop
      vertex 10.4 25.6 0
      vertex 13 25.6 18.8
      vertex 10.4 25.6 18.8
    endloop
  endfacet
  facet normal 0 -1 -0
    outer loop
      vertex 13 25.6 18.8
      vertex 10.4 25.6 0
      vertex 13 25.6 0
    endloop
  endfacet
  facet normal 0 -1 0
    outer loop
      vertex 5.2 25.6 0
      vertex 7.8 25.6 18.8
      vertex 5.2 25.6 18.8
    endloop
  endfacet
  facet normal 0 -1 -0
    outer loop
      vertex 7.8 25.6 18.8
      vertex 5.2 25.6 0
      vertex 7.8 25.6 0
    endloop
  endfacet
  facet normal 0 -1 0
    outer loop
      vertex 0 25.6 0
      vertex 2.6 25.6 18.8
      vertex 0 25.6 18.8
    endloop
  endfacet
  facet normal 0 -1 -0
    outer loop
      vertex 2.6 25.6 18.8
      vertex 0 25.6 0
      vertex 2.6 25.6 0
    endloop
  endfacet
  facet normal 0 1 -0
    outer loop
      vertex 18.2 26.6 0
      vertex 0 26.6 18.8
      vertex 18.2 26.6 18.8
    endloop
  endfacet
  facet normal 0 1 0
    outer loop
      vertex 0 26.6 18.8
      vertex 18.2 26.6 0
      vertex 0 26.6 0
    endloop
  endfacet
  facet normal -1 0 0
    outer loop
      vertex 2.6 1 0
      vertex 2.6 25.6 18.8
      vertex 2.6 25.6 0
    endloop
  endfacet
  facet normal -1 -0 0
    outer loop
      vertex 2.6 25.6 18.8
      vertex 2.6 1 0
      vertex 2.6 1 18.8
    endloop
  endfacet
  facet normal 1 -0 0
    outer loop
      vertex 5.2 1 18.8
      vertex 5.2 25.6 0
      vertex 5.2 25.6 18.8
    endloop
  endfacet
  facet normal 1 0 0
    outer loop
      vertex 5.2 25.6 0
      vertex 5.2 1 18.8
      vertex 5.2 1 0
    endloop
  endfacet
  facet normal -1 0 0
    outer loop
      vertex 7.8 1 0
      vertex 7.8 25.6 18.8
      vertex 7.8 25.6 0
    endloop
  endfacet
  facet normal -1 -0 0
    outer loop
      vertex 7.8 25.6 18.8
      vertex 7.8 1 0
      vertex 7.8 1 18.8
    endloop
  endfacet
  facet normal 1 -0 0
    outer loop
      vertex 10.4 1 18.8
      vertex 10.4 25.6 0
      vertex 10.4 25.6 18.8
    endloop
  endfacet
  facet normal 1 0 0
    outer loop
      vertex 10.4 25.6 0
      vertex 10.4 1 18.8
      vertex 10.4 1 0
    endloop
  endfacet
  facet normal -1 0 0
    outer loop
      vertex 13 1 0
      vertex 13 25.6 18.8
      vertex 13 25.6 0
    endloop
  endfacet
  facet normal -1 -0 0
    outer loop
      vertex 13 25.6 18.8
      vertex 13 1 0
      vertex 13 1 18.8
    endloop
  endfacet
  facet normal 1 -0 0
    outer loop
      vertex 15.6 1 18.8
      vertex 15.6 25.6 0
      vertex 15.6 25.6 18.8
    endloop
  endfacet
  facet normal 1 0 0
    outer loop
      vertex 15.6 25.6 0
      vertex 15.6 1 18.8
      vertex 15.6 1 0
    endloop
  endfacet
endsolid OpenSCAD_Model
