solid ascii
  facet normal 1.000000e+000 -0.000000e+000 0.000000e+000
    outer loop
      vertex   -2.200000e+001 7.500000e+001 2.000000e+000
      vertex   -2.200000e+001 7.500000e+001 0.000000e+000
      vertex   -2.200000e+001 8.500000e+001 2.000000e+000
    endloop
  endfacet
  facet normal 1.000000e+000 -0.000000e+000 0.000000e+000
    outer loop
      vertex   -2.200000e+001 8.500000e+001 2.000000e+000
      vertex   -2.200000e+001 7.500000e+001 0.000000e+000
      vertex   -2.200000e+001 8.500000e+001 0.000000e+000
    endloop
  endfacet
  facet normal -0.000000e+000 -1.000000e+000 0.000000e+000
    outer loop
      vertex   -2.200000e+001 7.500000e+001 0.000000e+000
      vertex   -2.200000e+001 7.500000e+001 2.000000e+000
      vertex   -2.500000e+001 7.500000e+001 0.000000e+000
    endloop
  endfacet
  facet normal 0.000000e+000 -1.000000e+000 0.000000e+000
    outer loop
      vertex   -2.500000e+001 7.500000e+001 0.000000e+000
      vertex   -2.200000e+001 7.500000e+001 2.000000e+000
      vertex   -2.500000e+001 7.500000e+001 2.000000e+000
    endloop
  endfacet
  facet normal -1.000000e+000 -0.000000e+000 -0.000000e+000
    outer loop
      vertex   -2.500000e+001 8.000000e+001 2.000000e+000
      vertex   -2.500000e+001 8.000000e+001 0.000000e+000
      vertex   -2.500000e+001 7.500000e+001 2.000000e+000
    endloop
  endfacet
  facet normal -1.000000e+000 -0.000000e+000 -0.000000e+000
    outer loop
      vertex   -2.500000e+001 7.500000e+001 2.000000e+000
      vertex   -2.500000e+001 8.000000e+001 0.000000e+000
      vertex   -2.500000e+001 7.500000e+001 0.000000e+000
    endloop
  endfacet
  facet normal 0.000000e+000 -1.000000e+000 0.000000e+000
    outer loop
      vertex   -2.750000e+001 8.000000e+001 2.000000e+000
      vertex   -2.750000e+001 8.000000e+001 0.000000e+000
      vertex   -2.500000e+001 8.000000e+001 2.000000e+000
    endloop
  endfacet
  facet normal 0.000000e+000 -1.000000e+000 -0.000000e+000
    outer loop
      vertex   -2.500000e+001 8.000000e+001 2.000000e+000
      vertex   -2.750000e+001 8.000000e+001 0.000000e+000
      vertex   -2.500000e+001 8.000000e+001 0.000000e+000
    endloop
  endfacet
  facet normal -0.000000e+000 1.000000e+000 0.000000e+000
    outer loop
      vertex   -2.750000e+001 8.500000e+001 0.000000e+000
      vertex   -2.750000e+001 8.500000e+001 2.000000e+000
      vertex   -2.200000e+001 8.500000e+001 0.000000e+000
    endloop
  endfacet
  facet normal 0.000000e+000 1.000000e+000 -0.000000e+000
    outer loop
      vertex   -2.200000e+001 8.500000e+001 0.000000e+000
      vertex   -2.750000e+001 8.500000e+001 2.000000e+000
      vertex   -2.200000e+001 8.500000e+001 2.000000e+000
    endloop
  endfacet
  facet normal 1.000000e+000 0.000000e+000 -0.000000e+000
    outer loop
      vertex   -2.750000e+001 8.000000e+001 0.000000e+000
      vertex   -2.750000e+001 8.000000e+001 2.000000e+000
      vertex   -2.750000e+001 5.500000e+001 0.000000e+000
    endloop
  endfacet
  facet normal 1.000000e+000 0.000000e+000 -0.000000e+000
    outer loop
      vertex   -2.750000e+001 5.500000e+001 0.000000e+000
      vertex   -2.750000e+001 8.000000e+001 2.000000e+000
      vertex   -2.750000e+001 5.500000e+001 2.000000e+000
    endloop
  endfacet
  facet normal 1.000000e+000 -0.000000e+000 0.000000e+000
    outer loop
      vertex   -2.750000e+001 8.500000e+001 2.000000e+000
      vertex   -2.750000e+001 8.500000e+001 0.000000e+000
      vertex   -2.750000e+001 1.050000e+002 2.000000e+000
    endloop
  endfacet
  facet normal 1.000000e+000 -0.000000e+000 0.000000e+000
    outer loop
      vertex   -2.750000e+001 1.050000e+002 2.000000e+000
      vertex   -2.750000e+001 8.500000e+001 0.000000e+000
      vertex   -2.750000e+001 1.050000e+002 0.000000e+000
    endloop
  endfacet
  facet normal 1.000000e+000 -0.000000e+000 0.000000e+000
    outer loop
      vertex   -2.200000e+001 4.500000e+001 2.000000e+000
      vertex   -2.200000e+001 4.500000e+001 0.000000e+000
      vertex   -2.200000e+001 5.500000e+001 2.000000e+000
    endloop
  endfacet
  facet normal 1.000000e+000 -0.000000e+000 0.000000e+000
    outer loop
      vertex   -2.200000e+001 5.500000e+001 2.000000e+000
      vertex   -2.200000e+001 4.500000e+001 0.000000e+000
      vertex   -2.200000e+001 5.500000e+001 0.000000e+000
    endloop
  endfacet
  facet normal -0.000000e+000 -1.000000e+000 0.000000e+000
    outer loop
      vertex   -2.200000e+001 4.500000e+001 0.000000e+000
      vertex   -2.200000e+001 4.500000e+001 2.000000e+000
      vertex   -2.500000e+001 4.500000e+001 0.000000e+000
    endloop
  endfacet
  facet normal 0.000000e+000 -1.000000e+000 0.000000e+000
    outer loop
      vertex   -2.500000e+001 4.500000e+001 0.000000e+000
      vertex   -2.200000e+001 4.500000e+001 2.000000e+000
      vertex   -2.500000e+001 4.500000e+001 2.000000e+000
    endloop
  endfacet
  facet normal -1.000000e+000 -0.000000e+000 -0.000000e+000
    outer loop
      vertex   -2.500000e+001 5.000000e+001 2.000000e+000
      vertex   -2.500000e+001 5.000000e+001 0.000000e+000
      vertex   -2.500000e+001 4.500000e+001 2.000000e+000
    endloop
  endfacet
  facet normal -1.000000e+000 -0.000000e+000 -0.000000e+000
    outer loop
      vertex   -2.500000e+001 4.500000e+001 2.000000e+000
      vertex   -2.500000e+001 5.000000e+001 0.000000e+000
      vertex   -2.500000e+001 4.500000e+001 0.000000e+000
    endloop
  endfacet
  facet normal 0.000000e+000 -1.000000e+000 0.000000e+000
    outer loop
      vertex   -2.750000e+001 5.000000e+001 2.000000e+000
      vertex   -2.750000e+001 5.000000e+001 0.000000e+000
      vertex   -2.500000e+001 5.000000e+001 2.000000e+000
    endloop
  endfacet
  facet normal 0.000000e+000 -1.000000e+000 -0.000000e+000
    outer loop
      vertex   -2.500000e+001 5.000000e+001 2.000000e+000
      vertex   -2.750000e+001 5.000000e+001 0.000000e+000
      vertex   -2.500000e+001 5.000000e+001 0.000000e+000
    endloop
  endfacet
  facet normal -0.000000e+000 1.000000e+000 0.000000e+000
    outer loop
      vertex   -2.750000e+001 5.500000e+001 0.000000e+000
      vertex   -2.750000e+001 5.500000e+001 2.000000e+000
      vertex   -2.200000e+001 5.500000e+001 0.000000e+000
    endloop
  endfacet
  facet normal 0.000000e+000 1.000000e+000 -0.000000e+000
    outer loop
      vertex   -2.200000e+001 5.500000e+001 0.000000e+000
      vertex   -2.750000e+001 5.500000e+001 2.000000e+000
      vertex   -2.200000e+001 5.500000e+001 2.000000e+000
    endloop
  endfacet
  facet normal 1.000000e+000 0.000000e+000 -0.000000e+000
    outer loop
      vertex   -2.750000e+001 5.000000e+001 0.000000e+000
      vertex   -2.750000e+001 5.000000e+001 2.000000e+000
      vertex   -2.750000e+001 2.500000e+001 0.000000e+000
    endloop
  endfacet
  facet normal 1.000000e+000 0.000000e+000 -0.000000e+000
    outer loop
      vertex   -2.750000e+001 2.500000e+001 0.000000e+000
      vertex   -2.750000e+001 5.000000e+001 2.000000e+000
      vertex   -2.750000e+001 2.500000e+001 2.000000e+000
    endloop
  endfacet
  facet normal 0.000000e+000 0.000000e+000 1.000000e+000
    outer loop
      vertex   -2.750000e+001 1.050000e+002 2.000000e+000
      vertex   -4.250000e+001 1.050000e+002 2.000000e+000
      vertex   -2.750000e+001 8.500000e+001 2.000000e+000
    endloop
  endfacet
  facet normal 0.000000e+000 0.000000e+000 1.000000e+000
    outer loop
      vertex   -2.750000e+001 8.500000e+001 2.000000e+000
      vertex   -4.250000e+001 1.050000e+002 2.000000e+000
      vertex   -4.250000e+001 6.500000e+001 2.000000e+000
    endloop
  endfacet
  facet normal 0.000000e+000 0.000000e+000 1.000000e+000
    outer loop
      vertex   -2.750000e+001 8.000000e+001 2.000000e+000
      vertex   -4.250000e+001 6.500000e+001 2.000000e+000
      vertex   -2.750000e+001 5.500000e+001 2.000000e+000
    endloop
  endfacet
  facet normal 0.000000e+000 -0.000000e+000 1.000000e+000
    outer loop
      vertex   -2.750000e+001 8.000000e+001 2.000000e+000
      vertex   -2.750000e+001 8.500000e+001 2.000000e+000
      vertex   -4.250000e+001 6.500000e+001 2.000000e+000
    endloop
  endfacet
  facet normal 0.000000e+000 -0.000000e+000 1.000000e+000
    outer loop
      vertex   -2.750000e+001 8.000000e+001 2.000000e+000
      vertex   -2.500000e+001 8.000000e+001 2.000000e+000
      vertex   -2.750000e+001 8.500000e+001 2.000000e+000
    endloop
  endfacet
  facet normal -0.000000e+000 0.000000e+000 1.000000e+000
    outer loop
      vertex   -2.750000e+001 8.500000e+001 2.000000e+000
      vertex   -2.500000e+001 8.000000e+001 2.000000e+000
      vertex   -2.200000e+001 8.500000e+001 2.000000e+000
    endloop
  endfacet
  facet normal 0.000000e+000 0.000000e+000 1.000000e+000
    outer loop
      vertex   -2.200000e+001 8.500000e+001 2.000000e+000
      vertex   -2.500000e+001 8.000000e+001 2.000000e+000
      vertex   -2.200000e+001 7.500000e+001 2.000000e+000
    endloop
  endfacet
  facet normal 0.000000e+000 0.000000e+000 1.000000e+000
    outer loop
      vertex   -2.200000e+001 7.500000e+001 2.000000e+000
      vertex   -2.500000e+001 8.000000e+001 2.000000e+000
      vertex   -2.500000e+001 7.500000e+001 2.000000e+000
    endloop
  endfacet
  facet normal 0.000000e+000 0.000000e+000 1.000000e+000
    outer loop
      vertex   -2.750000e+001 5.500000e+001 2.000000e+000
      vertex   -4.250000e+001 6.500000e+001 2.000000e+000
      vertex   -2.750000e+001 5.000000e+001 2.000000e+000
    endloop
  endfacet
  facet normal 0.000000e+000 0.000000e+000 1.000000e+000
    outer loop
      vertex   -2.500000e+001 5.000000e+001 2.000000e+000
      vertex   -2.750000e+001 5.500000e+001 2.000000e+000
      vertex   -2.750000e+001 5.000000e+001 2.000000e+000
    endloop
  endfacet
  facet normal 0.000000e+000 -0.000000e+000 1.000000e+000
    outer loop
      vertex   -2.500000e+001 5.000000e+001 2.000000e+000
      vertex   -2.200000e+001 5.500000e+001 2.000000e+000
      vertex   -2.750000e+001 5.500000e+001 2.000000e+000
    endloop
  endfacet
  facet normal -0.000000e+000 0.000000e+000 1.000000e+000
    outer loop
      vertex   -2.500000e+001 5.000000e+001 2.000000e+000
      vertex   -2.200000e+001 4.500000e+001 2.000000e+000
      vertex   -2.200000e+001 5.500000e+001 2.000000e+000
    endloop
  endfacet
  facet normal -0.000000e+000 0.000000e+000 1.000000e+000
    outer loop
      vertex   -2.500000e+001 5.000000e+001 2.000000e+000
      vertex   -2.500000e+001 4.500000e+001 2.000000e+000
      vertex   -2.200000e+001 4.500000e+001 2.000000e+000
    endloop
  endfacet
  facet normal -1.480297e-017 0.000000e+000 1.000000e+000
    outer loop
      vertex   -2.750000e+001 2.500000e+001 2.000000e+000
      vertex   -2.750000e+001 5.000000e+001 2.000000e+000
      vertex   -4.250000e+001 2.500000e+001 2.000000e+000
    endloop
  endfacet
  facet normal -5.551115e-018 -5.551115e-018 1.000000e+000
    outer loop
      vertex   -4.250000e+001 2.500000e+001 2.000000e+000
      vertex   -2.750000e+001 5.000000e+001 2.000000e+000
      vertex   -4.250000e+001 6.500000e+001 2.000000e+000
    endloop
  endfacet
  facet normal -0.000000e+000 1.000000e+000 0.000000e+000
    outer loop
      vertex   -4.250000e+001 1.050000e+002 0.000000e+000
      vertex   -4.250000e+001 1.050000e+002 2.000000e+000
      vertex   -2.750000e+001 1.050000e+002 0.000000e+000
    endloop
  endfacet
  facet normal 0.000000e+000 1.000000e+000 -0.000000e+000
    outer loop
      vertex   -2.750000e+001 1.050000e+002 0.000000e+000
      vertex   -4.250000e+001 1.050000e+002 2.000000e+000
      vertex   -2.750000e+001 1.050000e+002 2.000000e+000
    endloop
  endfacet
  facet normal 0.000000e+000 -1.000000e+000 0.000000e+000
    outer loop
      vertex   -4.250000e+001 2.500000e+001 2.000000e+000
      vertex   -4.250000e+001 2.500000e+001 0.000000e+000
      vertex   -2.750000e+001 2.500000e+001 2.000000e+000
    endloop
  endfacet
  facet normal 0.000000e+000 -1.000000e+000 -0.000000e+000
    outer loop
      vertex   -2.750000e+001 2.500000e+001 2.000000e+000
      vertex   -4.250000e+001 2.500000e+001 0.000000e+000
      vertex   -2.750000e+001 2.500000e+001 0.000000e+000
    endloop
  endfacet
  facet normal 0.000000e+000 0.000000e+000 -1.000000e+000
    outer loop
      vertex   -2.750000e+001 2.500000e+001 0.000000e+000
      vertex   -4.250000e+001 2.500000e+001 0.000000e+000
      vertex   -2.750000e+001 5.000000e+001 0.000000e+000
    endloop
  endfacet
  facet normal -0.000000e+000 0.000000e+000 -1.000000e+000
    outer loop
      vertex   -2.750000e+001 5.000000e+001 0.000000e+000
      vertex   -4.250000e+001 2.500000e+001 0.000000e+000
      vertex   -4.250000e+001 6.500000e+001 0.000000e+000
    endloop
  endfacet
  facet normal 0.000000e+000 0.000000e+000 -1.000000e+000
    outer loop
      vertex   -2.750000e+001 5.500000e+001 0.000000e+000
      vertex   -4.250000e+001 6.500000e+001 0.000000e+000
      vertex   -2.750000e+001 8.000000e+001 0.000000e+000
    endloop
  endfacet
  facet normal -0.000000e+000 -0.000000e+000 -1.000000e+000
    outer loop
      vertex   -2.750000e+001 5.500000e+001 0.000000e+000
      vertex   -2.750000e+001 5.000000e+001 0.000000e+000
      vertex   -4.250000e+001 6.500000e+001 0.000000e+000
    endloop
  endfacet
  facet normal -0.000000e+000 -0.000000e+000 -1.000000e+000
    outer loop
      vertex   -2.750000e+001 5.500000e+001 0.000000e+000
      vertex   -2.500000e+001 5.000000e+001 0.000000e+000
      vertex   -2.750000e+001 5.000000e+001 0.000000e+000
    endloop
  endfacet
  facet normal 0.000000e+000 -0.000000e+000 -1.000000e+000
    outer loop
      vertex   -2.750000e+001 5.500000e+001 0.000000e+000
      vertex   -2.200000e+001 5.500000e+001 0.000000e+000
      vertex   -2.500000e+001 5.000000e+001 0.000000e+000
    endloop
  endfacet
  facet normal 0.000000e+000 0.000000e+000 -1.000000e+000
    outer loop
      vertex   -2.500000e+001 5.000000e+001 0.000000e+000
      vertex   -2.200000e+001 5.500000e+001 0.000000e+000
      vertex   -2.200000e+001 4.500000e+001 0.000000e+000
    endloop
  endfacet
  facet normal 0.000000e+000 0.000000e+000 -1.000000e+000
    outer loop
      vertex   -2.500000e+001 4.500000e+001 0.000000e+000
      vertex   -2.500000e+001 5.000000e+001 0.000000e+000
      vertex   -2.200000e+001 4.500000e+001 0.000000e+000
    endloop
  endfacet
  facet normal -0.000000e+000 0.000000e+000 -1.000000e+000
    outer loop
      vertex   -2.750000e+001 8.000000e+001 0.000000e+000
      vertex   -4.250000e+001 6.500000e+001 0.000000e+000
      vertex   -2.750000e+001 8.500000e+001 0.000000e+000
    endloop
  endfacet
  facet normal 0.000000e+000 0.000000e+000 -1.000000e+000
    outer loop
      vertex   -2.500000e+001 8.000000e+001 0.000000e+000
      vertex   -2.750000e+001 8.500000e+001 0.000000e+000
      vertex   -2.200000e+001 8.500000e+001 0.000000e+000
    endloop
  endfacet
  facet normal 0.000000e+000 0.000000e+000 -1.000000e+000
    outer loop
      vertex   -2.200000e+001 7.500000e+001 0.000000e+000
      vertex   -2.500000e+001 8.000000e+001 0.000000e+000
      vertex   -2.200000e+001 8.500000e+001 0.000000e+000
    endloop
  endfacet
  facet normal 0.000000e+000 0.000000e+000 -1.000000e+000
    outer loop
      vertex   -2.200000e+001 7.500000e+001 0.000000e+000
      vertex   -2.500000e+001 7.500000e+001 0.000000e+000
      vertex   -2.500000e+001 8.000000e+001 0.000000e+000
    endloop
  endfacet
  facet normal -0.000000e+000 -0.000000e+000 -1.000000e+000
    outer loop
      vertex   -2.750000e+001 1.050000e+002 0.000000e+000
      vertex   -2.750000e+001 8.500000e+001 0.000000e+000
      vertex   -4.250000e+001 1.050000e+002 0.000000e+000
    endloop
  endfacet
  facet normal 0.000000e+000 -0.000000e+000 -1.000000e+000
    outer loop
      vertex   -4.250000e+001 1.050000e+002 0.000000e+000
      vertex   -2.750000e+001 8.500000e+001 0.000000e+000
      vertex   -4.250000e+001 6.500000e+001 0.000000e+000
    endloop
  endfacet
  facet normal 0.000000e+000 0.000000e+000 -1.000000e+000
    outer loop
      vertex   -2.750000e+001 8.000000e+001 0.000000e+000
      vertex   -2.750000e+001 8.500000e+001 0.000000e+000
      vertex   -2.500000e+001 8.000000e+001 0.000000e+000
    endloop
  endfacet
  facet normal -1.000000e+000 0.000000e+000 0.000000e+000
    outer loop
      vertex   -4.250000e+001 2.500000e+001 0.000000e+000
      vertex   -4.250000e+001 2.500000e+001 2.000000e+000
      vertex   -4.250000e+001 6.500000e+001 0.000000e+000
    endloop
  endfacet
  facet normal -1.000000e+000 0.000000e+000 0.000000e+000
    outer loop
      vertex   -4.250000e+001 6.500000e+001 0.000000e+000
      vertex   -4.250000e+001 2.500000e+001 2.000000e+000
      vertex   -4.250000e+001 6.500000e+001 2.000000e+000
    endloop
  endfacet
  facet normal -1.000000e+000 0.000000e+000 0.000000e+000
    outer loop
      vertex   -4.250000e+001 1.050000e+002 0.000000e+000
      vertex   -4.250000e+001 6.500000e+001 2.000000e+000
      vertex   -4.250000e+001 1.050000e+002 2.000000e+000
    endloop
  endfacet
  facet normal -1.000000e+000 0.000000e+000 0.000000e+000
    outer loop
      vertex   -4.250000e+001 1.050000e+002 0.000000e+000
      vertex   -4.250000e+001 6.500000e+001 0.000000e+000
      vertex   -4.250000e+001 6.500000e+001 2.000000e+000
    endloop
  endfacet
endsolid
