solid ascii
  facet normal 0.000000e+000 0.000000e+000 1.000000e+000
    outer loop
      vertex   -2.215000e+002 1.650000e+002 6.000000e+000
      vertex   -2.265000e+002 1.650000e+002 6.000000e+000
      vertex   -2.215000e+002 1.500000e+002 6.000000e+000
    endloop
  endfacet
  facet normal 0.000000e+000 0.000000e+000 1.000000e+000
    outer loop
      vertex   -2.215000e+002 1.500000e+002 6.000000e+000
      vertex   -2.265000e+002 1.650000e+002 6.000000e+000
      vertex   -2.265000e+002 1.500000e+002 6.000000e+000
    endloop
  endfacet
  facet normal 1.000000e+000 0.000000e+000 -0.000000e+000
    outer loop
      vertex   -2.215000e+002 1.650000e+002 2.000000e+000
      vertex   -2.215000e+002 1.650000e+002 6.000000e+000
      vertex   -2.215000e+002 1.500000e+002 2.000000e+000
    endloop
  endfacet
  facet normal 1.000000e+000 0.000000e+000 -0.000000e+000
    outer loop
      vertex   -2.215000e+002 1.500000e+002 2.000000e+000
      vertex   -2.215000e+002 1.650000e+002 6.000000e+000
      vertex   -2.215000e+002 1.500000e+002 6.000000e+000
    endloop
  endfacet
  facet normal 0.000000e+000 -0.000000e+000 1.000000e+000
    outer loop
      vertex   -2.215000e+002 1.500000e+002 2.000000e+000
      vertex   -1.732500e+002 1.500000e+002 2.000000e+000
      vertex   -2.215000e+002 1.650000e+002 2.000000e+000
    endloop
  endfacet
  facet normal -0.000000e+000 0.000000e+000 1.000000e+000
    outer loop
      vertex   -2.215000e+002 1.650000e+002 2.000000e+000
      vertex   -1.732500e+002 1.500000e+002 2.000000e+000
      vertex   -1.732500e+002 1.650000e+002 2.000000e+000
    endloop
  endfacet
  facet normal -0.000000e+000 0.000000e+000 1.000000e+000
    outer loop
      vertex   -1.732500e+002 1.650000e+002 2.000000e+000
      vertex   -1.732500e+002 1.500000e+002 2.000000e+000
      vertex   -1.250000e+002 1.500000e+002 2.000000e+000
    endloop
  endfacet
  facet normal -0.000000e+000 0.000000e+000 1.000000e+000
    outer loop
      vertex   -1.250000e+002 1.650000e+002 2.000000e+000
      vertex   -1.250000e+002 1.500000e+002 2.000000e+000
      vertex   -7.675000e+001 1.500000e+002 2.000000e+000
    endloop
  endfacet
  facet normal -0.000000e+000 0.000000e+000 1.000000e+000
    outer loop
      vertex   -7.675000e+001 1.650000e+002 2.000000e+000
      vertex   -7.675000e+001 1.500000e+002 2.000000e+000
      vertex   -2.850000e+001 1.500000e+002 2.000000e+000
    endloop
  endfacet
  facet normal 0.000000e+000 0.000000e+000 1.000000e+000
    outer loop
      vertex   -2.850000e+001 1.650000e+002 2.000000e+000
      vertex   -7.675000e+001 1.650000e+002 2.000000e+000
      vertex   -2.850000e+001 1.500000e+002 2.000000e+000
    endloop
  endfacet
  facet normal -0.000000e+000 0.000000e+000 1.000000e+000
    outer loop
      vertex   -1.732500e+002 1.650000e+002 2.000000e+000
      vertex   -1.250000e+002 1.500000e+002 2.000000e+000
      vertex   -1.250000e+002 1.650000e+002 2.000000e+000
    endloop
  endfacet
  facet normal -0.000000e+000 -0.000000e+000 1.000000e+000
    outer loop
      vertex   -1.250000e+002 1.650000e+002 2.000000e+000
      vertex   -7.675000e+001 1.500000e+002 2.000000e+000
      vertex   -7.675000e+001 1.650000e+002 2.000000e+000
    endloop
  endfacet
  facet normal 0.000000e+000 0.000000e+000 1.000000e+000
    outer loop
      vertex   -2.350000e+001 1.650000e+002 6.000000e+000
      vertex   -2.850000e+001 1.650000e+002 6.000000e+000
      vertex   -2.350000e+001 1.500000e+002 6.000000e+000
    endloop
  endfacet
  facet normal 0.000000e+000 0.000000e+000 1.000000e+000
    outer loop
      vertex   -2.350000e+001 1.500000e+002 6.000000e+000
      vertex   -2.850000e+001 1.650000e+002 6.000000e+000
      vertex   -2.850000e+001 1.500000e+002 6.000000e+000
    endloop
  endfacet
  facet normal -1.000000e+000 0.000000e+000 0.000000e+000
    outer loop
      vertex   -2.850000e+001 1.500000e+002 2.000000e+000
      vertex   -2.850000e+001 1.500000e+002 6.000000e+000
      vertex   -2.850000e+001 1.650000e+002 2.000000e+000
    endloop
  endfacet
  facet normal -1.000000e+000 0.000000e+000 0.000000e+000
    outer loop
      vertex   -2.850000e+001 1.650000e+002 2.000000e+000
      vertex   -2.850000e+001 1.500000e+002 6.000000e+000
      vertex   -2.850000e+001 1.650000e+002 6.000000e+000
    endloop
  endfacet
  facet normal 0.000000e+000 0.000000e+000 -1.000000e+000
    outer loop
      vertex   -2.350000e+001 1.500000e+002 0.000000e+000
      vertex   -7.425000e+001 1.500000e+002 0.000000e+000
      vertex   -2.350000e+001 1.650000e+002 0.000000e+000
    endloop
  endfacet
  facet normal -0.000000e+000 0.000000e+000 -1.000000e+000
    outer loop
      vertex   -2.350000e+001 1.650000e+002 0.000000e+000
      vertex   -7.425000e+001 1.500000e+002 0.000000e+000
      vertex   -7.425000e+001 1.650000e+002 0.000000e+000
    endloop
  endfacet
  facet normal -0.000000e+000 -0.000000e+000 -1.000000e+000
    outer loop
      vertex   -7.425000e+001 1.650000e+002 0.000000e+000
      vertex   -7.425000e+001 1.500000e+002 0.000000e+000
      vertex   -1.250000e+002 1.500000e+002 0.000000e+000
    endloop
  endfacet
  facet normal -0.000000e+000 -0.000000e+000 -1.000000e+000
    outer loop
      vertex   -1.250000e+002 1.650000e+002 0.000000e+000
      vertex   -1.250000e+002 1.500000e+002 0.000000e+000
      vertex   -1.757500e+002 1.500000e+002 0.000000e+000
    endloop
  endfacet
  facet normal -0.000000e+000 -0.000000e+000 -1.000000e+000
    outer loop
      vertex   -1.757500e+002 1.650000e+002 0.000000e+000
      vertex   -1.757500e+002 1.500000e+002 0.000000e+000
      vertex   -2.265000e+002 1.500000e+002 0.000000e+000
    endloop
  endfacet
  facet normal 0.000000e+000 -0.000000e+000 -1.000000e+000
    outer loop
      vertex   -2.265000e+002 1.650000e+002 0.000000e+000
      vertex   -1.757500e+002 1.650000e+002 0.000000e+000
      vertex   -2.265000e+002 1.500000e+002 0.000000e+000
    endloop
  endfacet
  facet normal -0.000000e+000 0.000000e+000 -1.000000e+000
    outer loop
      vertex   -7.425000e+001 1.650000e+002 0.000000e+000
      vertex   -1.250000e+002 1.500000e+002 0.000000e+000
      vertex   -1.250000e+002 1.650000e+002 0.000000e+000
    endloop
  endfacet
  facet normal -0.000000e+000 0.000000e+000 -1.000000e+000
    outer loop
      vertex   -1.250000e+002 1.650000e+002 0.000000e+000
      vertex   -1.757500e+002 1.500000e+002 0.000000e+000
      vertex   -1.757500e+002 1.650000e+002 0.000000e+000
    endloop
  endfacet
  facet normal -0.000000e+000 -1.000000e+000 -0.000000e+000
    outer loop
      vertex   -2.215000e+002 1.500000e+002 6.000000e+000
      vertex   -2.265000e+002 1.500000e+002 6.000000e+000
      vertex   -2.215000e+002 1.500000e+002 2.000000e+000
    endloop
  endfacet
  facet normal -0.000000e+000 -1.000000e+000 -0.000000e+000
    outer loop
      vertex   -2.215000e+002 1.500000e+002 2.000000e+000
      vertex   -2.265000e+002 1.500000e+002 6.000000e+000
      vertex   -2.265000e+002 1.500000e+002 0.000000e+000
    endloop
  endfacet
  facet normal -0.000000e+000 -1.000000e+000 0.000000e+000
    outer loop
      vertex   -1.757500e+002 1.500000e+002 0.000000e+000
      vertex   -2.215000e+002 1.500000e+002 2.000000e+000
      vertex   -2.265000e+002 1.500000e+002 0.000000e+000
    endloop
  endfacet
  facet normal 0.000000e+000 -1.000000e+000 0.000000e+000
    outer loop
      vertex   -1.757500e+002 1.500000e+002 0.000000e+000
      vertex   -1.732500e+002 1.500000e+002 2.000000e+000
      vertex   -2.215000e+002 1.500000e+002 2.000000e+000
    endloop
  endfacet
  facet normal 0.000000e+000 -1.000000e+000 0.000000e+000
    outer loop
      vertex   -1.757500e+002 1.500000e+002 0.000000e+000
      vertex   -1.250000e+002 1.500000e+002 0.000000e+000
      vertex   -1.732500e+002 1.500000e+002 2.000000e+000
    endloop
  endfacet
  facet normal 0.000000e+000 -1.000000e+000 0.000000e+000
    outer loop
      vertex   -1.732500e+002 1.500000e+002 2.000000e+000
      vertex   -1.250000e+002 1.500000e+002 0.000000e+000
      vertex   -1.250000e+002 1.500000e+002 2.000000e+000
    endloop
  endfacet
  facet normal 0.000000e+000 -1.000000e+000 0.000000e+000
    outer loop
      vertex   -1.250000e+002 1.500000e+002 2.000000e+000
      vertex   -1.250000e+002 1.500000e+002 0.000000e+000
      vertex   -7.675000e+001 1.500000e+002 2.000000e+000
    endloop
  endfacet
  facet normal 0.000000e+000 -1.000000e+000 -0.000000e+000
    outer loop
      vertex   -7.675000e+001 1.500000e+002 2.000000e+000
      vertex   -1.250000e+002 1.500000e+002 0.000000e+000
      vertex   -7.425000e+001 1.500000e+002 0.000000e+000
    endloop
  endfacet
  facet normal 0.000000e+000 -1.000000e+000 -0.000000e+000
    outer loop
      vertex   -2.850000e+001 1.500000e+002 2.000000e+000
      vertex   -7.425000e+001 1.500000e+002 0.000000e+000
      vertex   -2.350000e+001 1.500000e+002 0.000000e+000
    endloop
  endfacet
  facet normal 0.000000e+000 -1.000000e+000 -0.000000e+000
    outer loop
      vertex   -2.350000e+001 1.500000e+002 6.000000e+000
      vertex   -2.850000e+001 1.500000e+002 2.000000e+000
      vertex   -2.350000e+001 1.500000e+002 0.000000e+000
    endloop
  endfacet
  facet normal -0.000000e+000 -1.000000e+000 -0.000000e+000
    outer loop
      vertex   -2.350000e+001 1.500000e+002 6.000000e+000
      vertex   -2.850000e+001 1.500000e+002 6.000000e+000
      vertex   -2.850000e+001 1.500000e+002 2.000000e+000
    endloop
  endfacet
  facet normal 0.000000e+000 -1.000000e+000 0.000000e+000
    outer loop
      vertex   -7.675000e+001 1.500000e+002 2.000000e+000
      vertex   -7.425000e+001 1.500000e+002 0.000000e+000
      vertex   -2.850000e+001 1.500000e+002 2.000000e+000
    endloop
  endfacet
  facet normal -1.000000e+000 -0.000000e+000 -0.000000e+000
    outer loop
      vertex   -2.265000e+002 1.650000e+002 6.000000e+000
      vertex   -2.265000e+002 1.650000e+002 0.000000e+000
      vertex   -2.265000e+002 1.500000e+002 6.000000e+000
    endloop
  endfacet
  facet normal -1.000000e+000 -0.000000e+000 -0.000000e+000
    outer loop
      vertex   -2.265000e+002 1.500000e+002 6.000000e+000
      vertex   -2.265000e+002 1.650000e+002 0.000000e+000
      vertex   -2.265000e+002 1.500000e+002 0.000000e+000
    endloop
  endfacet
  facet normal -0.000000e+000 1.000000e+000 0.000000e+000
    outer loop
      vertex   -2.850000e+001 1.650000e+002 6.000000e+000
      vertex   -2.350000e+001 1.650000e+002 6.000000e+000
      vertex   -2.850000e+001 1.650000e+002 2.000000e+000
    endloop
  endfacet
  facet normal -0.000000e+000 1.000000e+000 0.000000e+000
    outer loop
      vertex   -2.850000e+001 1.650000e+002 2.000000e+000
      vertex   -2.350000e+001 1.650000e+002 6.000000e+000
      vertex   -2.350000e+001 1.650000e+002 0.000000e+000
    endloop
  endfacet
  facet normal -0.000000e+000 1.000000e+000 0.000000e+000
    outer loop
      vertex   -7.425000e+001 1.650000e+002 0.000000e+000
      vertex   -2.850000e+001 1.650000e+002 2.000000e+000
      vertex   -2.350000e+001 1.650000e+002 0.000000e+000
    endloop
  endfacet
  facet normal 0.000000e+000 1.000000e+000 -0.000000e+000
    outer loop
      vertex   -7.425000e+001 1.650000e+002 0.000000e+000
      vertex   -7.675000e+001 1.650000e+002 2.000000e+000
      vertex   -2.850000e+001 1.650000e+002 2.000000e+000
    endloop
  endfacet
  facet normal 0.000000e+000 1.000000e+000 -0.000000e+000
    outer loop
      vertex   -7.425000e+001 1.650000e+002 0.000000e+000
      vertex   -1.250000e+002 1.650000e+002 0.000000e+000
      vertex   -7.675000e+001 1.650000e+002 2.000000e+000
    endloop
  endfacet
  facet normal 0.000000e+000 1.000000e+000 -0.000000e+000
    outer loop
      vertex   -7.675000e+001 1.650000e+002 2.000000e+000
      vertex   -1.250000e+002 1.650000e+002 0.000000e+000
      vertex   -1.250000e+002 1.650000e+002 2.000000e+000
    endloop
  endfacet
  facet normal 0.000000e+000 1.000000e+000 0.000000e+000
    outer loop
      vertex   -1.250000e+002 1.650000e+002 2.000000e+000
      vertex   -1.250000e+002 1.650000e+002 0.000000e+000
      vertex   -1.732500e+002 1.650000e+002 2.000000e+000
    endloop
  endfacet
  facet normal 0.000000e+000 1.000000e+000 0.000000e+000
    outer loop
      vertex   -1.732500e+002 1.650000e+002 2.000000e+000
      vertex   -1.250000e+002 1.650000e+002 0.000000e+000
      vertex   -1.757500e+002 1.650000e+002 0.000000e+000
    endloop
  endfacet
  facet normal 0.000000e+000 1.000000e+000 0.000000e+000
    outer loop
      vertex   -2.215000e+002 1.650000e+002 2.000000e+000
      vertex   -1.757500e+002 1.650000e+002 0.000000e+000
      vertex   -2.265000e+002 1.650000e+002 0.000000e+000
    endloop
  endfacet
  facet normal 0.000000e+000 1.000000e+000 0.000000e+000
    outer loop
      vertex   -2.265000e+002 1.650000e+002 6.000000e+000
      vertex   -2.215000e+002 1.650000e+002 2.000000e+000
      vertex   -2.265000e+002 1.650000e+002 0.000000e+000
    endloop
  endfacet
  facet normal -0.000000e+000 1.000000e+000 0.000000e+000
    outer loop
      vertex   -2.265000e+002 1.650000e+002 6.000000e+000
      vertex   -2.215000e+002 1.650000e+002 6.000000e+000
      vertex   -2.215000e+002 1.650000e+002 2.000000e+000
    endloop
  endfacet
  facet normal 0.000000e+000 1.000000e+000 0.000000e+000
    outer loop
      vertex   -1.732500e+002 1.650000e+002 2.000000e+000
      vertex   -1.757500e+002 1.650000e+002 0.000000e+000
      vertex   -2.215000e+002 1.650000e+002 2.000000e+000
    endloop
  endfacet
  facet normal 1.000000e+000 -0.000000e+000 0.000000e+000
    outer loop
      vertex   -2.350000e+001 1.500000e+002 6.000000e+000
      vertex   -2.350000e+001 1.500000e+002 0.000000e+000
      vertex   -2.350000e+001 1.650000e+002 6.000000e+000
    endloop
  endfacet
  facet normal 1.000000e+000 -0.000000e+000 0.000000e+000
    outer loop
      vertex   -2.350000e+001 1.650000e+002 6.000000e+000
      vertex   -2.350000e+001 1.500000e+002 0.000000e+000
      vertex   -2.350000e+001 1.650000e+002 0.000000e+000
    endloop
  endfacet
endsolid
