solid ascii
  facet normal 0.000000e+000 -1.000000e+000 0.000000e+000
    outer loop
      vertex   4.250000e+001 6.300000e+001 4.500000e+000
      vertex   4.650000e+001 6.300000e+001 4.500000e+000
      vertex   4.250000e+001 6.300000e+001 1.050000e+001
    endloop
  endfacet
  facet normal 0.000000e+000 -1.000000e+000 0.000000e+000
    outer loop
      vertex   4.250000e+001 6.300000e+001 1.050000e+001
      vertex   4.650000e+001 6.300000e+001 4.500000e+000
      vertex   4.650000e+001 6.300000e+001 1.050000e+001
    endloop
  endfacet
  facet normal 1.000000e+000 0.000000e+000 -0.000000e+000
    outer loop
      vertex   4.650000e+001 6.800000e+001 4.500000e+000
      vertex   4.650000e+001 6.800000e+001 1.050000e+001
      vertex   4.650000e+001 6.300000e+001 4.500000e+000
    endloop
  endfacet
  facet normal 1.000000e+000 0.000000e+000 -0.000000e+000
    outer loop
      vertex   4.650000e+001 6.300000e+001 4.500000e+000
      vertex   4.650000e+001 6.800000e+001 1.050000e+001
      vertex   4.650000e+001 6.300000e+001 1.050000e+001
    endloop
  endfacet
  facet normal -1.000000e+000 0.000000e+000 0.000000e+000
    outer loop
      vertex   4.250000e+001 6.300000e+001 4.500000e+000
      vertex   4.250000e+001 6.300000e+001 1.050000e+001
      vertex   4.250000e+001 6.800000e+001 4.500000e+000
    endloop
  endfacet
  facet normal -1.000000e+000 0.000000e+000 0.000000e+000
    outer loop
      vertex   4.250000e+001 6.800000e+001 4.500000e+000
      vertex   4.250000e+001 6.300000e+001 1.050000e+001
      vertex   4.250000e+001 6.800000e+001 1.050000e+001
    endloop
  endfacet
  facet normal 0.000000e+000 1.000000e+000 -0.000000e+000
    outer loop
      vertex   4.650000e+001 6.800000e+001 4.500000e+000
      vertex   4.250000e+001 6.800000e+001 4.500000e+000
      vertex   4.650000e+001 6.800000e+001 1.050000e+001
    endloop
  endfacet
  facet normal 0.000000e+000 1.000000e+000 -0.000000e+000
    outer loop
      vertex   4.650000e+001 6.800000e+001 1.050000e+001
      vertex   4.250000e+001 6.800000e+001 4.500000e+000
      vertex   4.250000e+001 6.800000e+001 1.050000e+001
    endloop
  endfacet
  facet normal 0.000000e+000 -0.000000e+000 1.000000e+000
    outer loop
      vertex   4.250000e+001 6.300000e+001 1.050000e+001
      vertex   4.650000e+001 6.300000e+001 1.050000e+001
      vertex   4.250000e+001 6.800000e+001 1.050000e+001
    endloop
  endfacet
  facet normal -0.000000e+000 0.000000e+000 1.000000e+000
    outer loop
      vertex   4.250000e+001 6.800000e+001 1.050000e+001
      vertex   4.650000e+001 6.300000e+001 1.050000e+001
      vertex   4.650000e+001 6.800000e+001 1.050000e+001
    endloop
  endfacet
  facet normal -1.000000e+000 -0.000000e+000 -0.000000e+000
    outer loop
      vertex   4.250000e+001 9.800000e+001 1.050000e+001
      vertex   4.250000e+001 9.800000e+001 4.500000e+000
      vertex   4.250000e+001 9.300000e+001 1.050000e+001
    endloop
  endfacet
  facet normal -1.000000e+000 -0.000000e+000 -0.000000e+000
    outer loop
      vertex   4.250000e+001 9.300000e+001 1.050000e+001
      vertex   4.250000e+001 9.800000e+001 4.500000e+000
      vertex   4.250000e+001 9.300000e+001 4.500000e+000
    endloop
  endfacet
  facet normal 1.000000e+000 -0.000000e+000 0.000000e+000
    outer loop
      vertex   4.650000e+001 9.300000e+001 1.050000e+001
      vertex   4.650000e+001 9.300000e+001 4.500000e+000
      vertex   4.650000e+001 9.800000e+001 1.050000e+001
    endloop
  endfacet
  facet normal 1.000000e+000 -0.000000e+000 0.000000e+000
    outer loop
      vertex   4.650000e+001 9.800000e+001 1.050000e+001
      vertex   4.650000e+001 9.300000e+001 4.500000e+000
      vertex   4.650000e+001 9.800000e+001 4.500000e+000
    endloop
  endfacet
  facet normal 0.000000e+000 -1.000000e+000 0.000000e+000
    outer loop
      vertex   4.250000e+001 9.300000e+001 4.500000e+000
      vertex   4.650000e+001 9.300000e+001 4.500000e+000
      vertex   4.250000e+001 9.300000e+001 1.050000e+001
    endloop
  endfacet
  facet normal 0.000000e+000 -1.000000e+000 0.000000e+000
    outer loop
      vertex   4.250000e+001 9.300000e+001 1.050000e+001
      vertex   4.650000e+001 9.300000e+001 4.500000e+000
      vertex   4.650000e+001 9.300000e+001 1.050000e+001
    endloop
  endfacet
  facet normal -0.000000e+000 1.000000e+000 0.000000e+000
    outer loop
      vertex   4.250000e+001 9.800000e+001 1.050000e+001
      vertex   4.650000e+001 9.800000e+001 1.050000e+001
      vertex   4.250000e+001 9.800000e+001 4.500000e+000
    endloop
  endfacet
  facet normal -0.000000e+000 1.000000e+000 0.000000e+000
    outer loop
      vertex   4.250000e+001 9.800000e+001 4.500000e+000
      vertex   4.650000e+001 9.800000e+001 1.050000e+001
      vertex   4.650000e+001 9.800000e+001 4.500000e+000
    endloop
  endfacet
  facet normal 0.000000e+000 -0.000000e+000 1.000000e+000
    outer loop
      vertex   4.250000e+001 9.300000e+001 1.050000e+001
      vertex   4.650000e+001 9.300000e+001 1.050000e+001
      vertex   4.250000e+001 9.800000e+001 1.050000e+001
    endloop
  endfacet
  facet normal -0.000000e+000 0.000000e+000 1.000000e+000
    outer loop
      vertex   4.250000e+001 9.800000e+001 1.050000e+001
      vertex   4.650000e+001 9.300000e+001 1.050000e+001
      vertex   4.650000e+001 9.800000e+001 1.050000e+001
    endloop
  endfacet
  facet normal 1.000000e+000 -0.000000e+000 0.000000e+000
    outer loop
      vertex   3.980000e+001 4.460000e+001 4.500000e+000
      vertex   3.980000e+001 4.460000e+001 2.500000e+000
      vertex   3.980000e+001 5.540000e+001 4.500000e+000
    endloop
  endfacet
  facet normal 1.000000e+000 -0.000000e+000 0.000000e+000
    outer loop
      vertex   3.980000e+001 5.540000e+001 4.500000e+000
      vertex   3.980000e+001 4.460000e+001 2.500000e+000
      vertex   3.980000e+001 5.540000e+001 2.500000e+000
    endloop
  endfacet
  facet normal -0.000000e+000 -1.000000e+000 -0.000000e+000
    outer loop
      vertex   4.320000e+001 5.540000e+001 4.500000e+000
      vertex   3.980000e+001 5.540000e+001 4.500000e+000
      vertex   4.320000e+001 5.540000e+001 2.500000e+000
    endloop
  endfacet
  facet normal -0.000000e+000 -1.000000e+000 -0.000000e+000
    outer loop
      vertex   4.320000e+001 5.540000e+001 2.500000e+000
      vertex   3.980000e+001 5.540000e+001 4.500000e+000
      vertex   3.980000e+001 5.540000e+001 2.500000e+000
    endloop
  endfacet
  facet normal -1.000000e+000 -0.000000e+000 -0.000000e+000
    outer loop
      vertex   4.320000e+001 5.540000e+001 4.500000e+000
      vertex   4.320000e+001 5.540000e+001 2.500000e+000
      vertex   4.320000e+001 4.460000e+001 4.500000e+000
    endloop
  endfacet
  facet normal -1.000000e+000 -0.000000e+000 -0.000000e+000
    outer loop
      vertex   4.320000e+001 4.460000e+001 4.500000e+000
      vertex   4.320000e+001 5.540000e+001 2.500000e+000
      vertex   4.320000e+001 4.460000e+001 2.500000e+000
    endloop
  endfacet
  facet normal -0.000000e+000 1.000000e+000 0.000000e+000
    outer loop
      vertex   3.980000e+001 4.460000e+001 4.500000e+000
      vertex   4.320000e+001 4.460000e+001 4.500000e+000
      vertex   3.980000e+001 4.460000e+001 2.500000e+000
    endloop
  endfacet
  facet normal -0.000000e+000 1.000000e+000 0.000000e+000
    outer loop
      vertex   3.980000e+001 4.460000e+001 2.500000e+000
      vertex   4.320000e+001 4.460000e+001 4.500000e+000
      vertex   4.320000e+001 4.460000e+001 2.500000e+000
    endloop
  endfacet
  facet normal 1.000000e+000 -0.000000e+000 0.000000e+000
    outer loop
      vertex   3.980000e+001 7.460000e+001 4.500000e+000
      vertex   3.980000e+001 7.460000e+001 2.500000e+000
      vertex   3.980000e+001 8.540000e+001 4.500000e+000
    endloop
  endfacet
  facet normal 1.000000e+000 -0.000000e+000 0.000000e+000
    outer loop
      vertex   3.980000e+001 8.540000e+001 4.500000e+000
      vertex   3.980000e+001 7.460000e+001 2.500000e+000
      vertex   3.980000e+001 8.540000e+001 2.500000e+000
    endloop
  endfacet
  facet normal -0.000000e+000 -1.000000e+000 -0.000000e+000
    outer loop
      vertex   4.320000e+001 8.540000e+001 4.500000e+000
      vertex   3.980000e+001 8.540000e+001 4.500000e+000
      vertex   4.320000e+001 8.540000e+001 2.500000e+000
    endloop
  endfacet
  facet normal -0.000000e+000 -1.000000e+000 -0.000000e+000
    outer loop
      vertex   4.320000e+001 8.540000e+001 2.500000e+000
      vertex   3.980000e+001 8.540000e+001 4.500000e+000
      vertex   3.980000e+001 8.540000e+001 2.500000e+000
    endloop
  endfacet
  facet normal -1.000000e+000 -0.000000e+000 -0.000000e+000
    outer loop
      vertex   4.320000e+001 8.540000e+001 4.500000e+000
      vertex   4.320000e+001 8.540000e+001 2.500000e+000
      vertex   4.320000e+001 7.460000e+001 4.500000e+000
    endloop
  endfacet
  facet normal -1.000000e+000 -0.000000e+000 -0.000000e+000
    outer loop
      vertex   4.320000e+001 7.460000e+001 4.500000e+000
      vertex   4.320000e+001 8.540000e+001 2.500000e+000
      vertex   4.320000e+001 7.460000e+001 2.500000e+000
    endloop
  endfacet
  facet normal -0.000000e+000 1.000000e+000 0.000000e+000
    outer loop
      vertex   3.980000e+001 7.460000e+001 4.500000e+000
      vertex   4.320000e+001 7.460000e+001 4.500000e+000
      vertex   3.980000e+001 7.460000e+001 2.500000e+000
    endloop
  endfacet
  facet normal -0.000000e+000 1.000000e+000 0.000000e+000
    outer loop
      vertex   3.980000e+001 7.460000e+001 2.500000e+000
      vertex   4.320000e+001 7.460000e+001 4.500000e+000
      vertex   4.320000e+001 7.460000e+001 2.500000e+000
    endloop
  endfacet
  facet normal 0.000000e+000 1.000000e+000 -0.000000e+000
    outer loop
      vertex   5.050000e+001 1.050000e+002 2.500000e+000
      vertex   3.750000e+001 1.050000e+002 2.500000e+000
      vertex   5.050000e+001 1.050000e+002 4.500000e+000
    endloop
  endfacet
  facet normal 0.000000e+000 1.000000e+000 -0.000000e+000
    outer loop
      vertex   5.050000e+001 1.050000e+002 4.500000e+000
      vertex   3.750000e+001 1.050000e+002 2.500000e+000
      vertex   3.750000e+001 1.050000e+002 4.500000e+000
    endloop
  endfacet
  facet normal 1.000000e+000 -0.000000e+000 0.000000e+000
    outer loop
      vertex   5.050000e+001 2.500000e+001 4.500000e+000
      vertex   5.050000e+001 2.500000e+001 2.500000e+000
      vertex   5.050000e+001 6.500000e+001 4.500000e+000
    endloop
  endfacet
  facet normal 1.000000e+000 -0.000000e+000 0.000000e+000
    outer loop
      vertex   5.050000e+001 6.500000e+001 4.500000e+000
      vertex   5.050000e+001 2.500000e+001 2.500000e+000
      vertex   5.050000e+001 6.500000e+001 2.500000e+000
    endloop
  endfacet
  facet normal 1.000000e+000 -0.000000e+000 0.000000e+000
    outer loop
      vertex   5.050000e+001 1.050000e+002 4.500000e+000
      vertex   5.050000e+001 6.500000e+001 2.500000e+000
      vertex   5.050000e+001 1.050000e+002 2.500000e+000
    endloop
  endfacet
  facet normal 1.000000e+000 0.000000e+000 0.000000e+000
    outer loop
      vertex   5.050000e+001 1.050000e+002 4.500000e+000
      vertex   5.050000e+001 6.500000e+001 4.500000e+000
      vertex   5.050000e+001 6.500000e+001 2.500000e+000
    endloop
  endfacet
  facet normal -1.000000e+000 -0.000000e+000 -0.000000e+000
    outer loop
      vertex   3.750000e+001 1.050000e+002 4.500000e+000
      vertex   3.750000e+001 1.050000e+002 2.500000e+000
      vertex   3.750000e+001 6.500000e+001 4.500000e+000
    endloop
  endfacet
  facet normal -1.000000e+000 -0.000000e+000 -0.000000e+000
    outer loop
      vertex   3.750000e+001 6.500000e+001 4.500000e+000
      vertex   3.750000e+001 1.050000e+002 2.500000e+000
      vertex   3.750000e+001 6.500000e+001 2.500000e+000
    endloop
  endfacet
  facet normal -1.000000e+000 -0.000000e+000 -0.000000e+000
    outer loop
      vertex   3.750000e+001 2.500000e+001 4.500000e+000
      vertex   3.750000e+001 6.500000e+001 2.500000e+000
      vertex   3.750000e+001 2.500000e+001 2.500000e+000
    endloop
  endfacet
  facet normal -1.000000e+000 0.000000e+000 0.000000e+000
    outer loop
      vertex   3.750000e+001 2.500000e+001 4.500000e+000
      vertex   3.750000e+001 6.500000e+001 4.500000e+000
      vertex   3.750000e+001 6.500000e+001 2.500000e+000
    endloop
  endfacet
  facet normal -0.000000e+000 -1.000000e+000 -0.000000e+000
    outer loop
      vertex   5.050000e+001 2.500000e+001 4.500000e+000
      vertex   3.750000e+001 2.500000e+001 4.500000e+000
      vertex   5.050000e+001 2.500000e+001 2.500000e+000
    endloop
  endfacet
  facet normal -0.000000e+000 -1.000000e+000 -0.000000e+000
    outer loop
      vertex   5.050000e+001 2.500000e+001 2.500000e+000
      vertex   3.750000e+001 2.500000e+001 4.500000e+000
      vertex   3.750000e+001 2.500000e+001 2.500000e+000
    endloop
  endfacet
  facet normal 2.220446e-016 0.000000e+000 1.000000e+000
    outer loop
      vertex   4.650000e+001 6.300000e+001 4.500000e+000
      vertex   5.050000e+001 6.500000e+001 4.500000e+000
      vertex   4.650000e+001 6.800000e+001 4.500000e+000
    endloop
  endfacet
  facet normal 2.220446e-016 -0.000000e+000 1.000000e+000
    outer loop
      vertex   4.650000e+001 6.300000e+001 4.500000e+000
      vertex   5.050000e+001 2.500000e+001 4.500000e+000
      vertex   5.050000e+001 6.500000e+001 4.500000e+000
    endloop
  endfacet
  facet normal -8.747888e-017 -3.258142e-017 1.000000e+000
    outer loop
      vertex   4.650000e+001 6.300000e+001 4.500000e+000
      vertex   4.320000e+001 4.460000e+001 4.500000e+000
      vertex   5.050000e+001 2.500000e+001 4.500000e+000
    endloop
  endfacet
  facet normal -2.691450e-016 0.000000e+000 1.000000e+000
    outer loop
      vertex   4.650000e+001 6.300000e+001 4.500000e+000
      vertex   4.320000e+001 5.540000e+001 4.500000e+000
      vertex   4.320000e+001 4.460000e+001 4.500000e+000
    endloop
  endfacet
  facet normal -2.220446e-016 -2.045148e-017 1.000000e+000
    outer loop
      vertex   4.650000e+001 6.300000e+001 4.500000e+000
      vertex   4.250000e+001 6.300000e+001 4.500000e+000
      vertex   4.320000e+001 5.540000e+001 4.500000e+000
    endloop
  endfacet
  facet normal 0.000000e+000 0.000000e+000 1.000000e+000
    outer loop
      vertex   4.320000e+001 5.540000e+001 4.500000e+000
      vertex   4.250000e+001 6.300000e+001 4.500000e+000
      vertex   3.980000e+001 5.540000e+001 4.500000e+000
    endloop
  endfacet
  facet normal 0.000000e+000 -0.000000e+000 1.000000e+000
    outer loop
      vertex   3.980000e+001 5.540000e+001 4.500000e+000
      vertex   4.250000e+001 6.300000e+001 4.500000e+000
      vertex   3.750000e+001 6.500000e+001 4.500000e+000
    endloop
  endfacet
  facet normal 0.000000e+000 0.000000e+000 1.000000e+000
    outer loop
      vertex   3.980000e+001 4.460000e+001 4.500000e+000
      vertex   3.750000e+001 6.500000e+001 4.500000e+000
      vertex   3.750000e+001 2.500000e+001 4.500000e+000
    endloop
  endfacet
  facet normal -0.000000e+000 0.000000e+000 1.000000e+000
    outer loop
      vertex   4.320000e+001 4.460000e+001 4.500000e+000
      vertex   3.750000e+001 2.500000e+001 4.500000e+000
      vertex   5.050000e+001 2.500000e+001 4.500000e+000
    endloop
  endfacet
  facet normal 0.000000e+000 0.000000e+000 1.000000e+000
    outer loop
      vertex   4.320000e+001 4.460000e+001 4.500000e+000
      vertex   3.980000e+001 4.460000e+001 4.500000e+000
      vertex   3.750000e+001 2.500000e+001 4.500000e+000
    endloop
  endfacet
  facet normal 0.000000e+000 -0.000000e+000 1.000000e+000
    outer loop
      vertex   4.250000e+001 6.300000e+001 4.500000e+000
      vertex   4.250000e+001 6.800000e+001 4.500000e+000
      vertex   3.750000e+001 6.500000e+001 4.500000e+000
    endloop
  endfacet
  facet normal 0.000000e+000 -0.000000e+000 1.000000e+000
    outer loop
      vertex   3.750000e+001 6.500000e+001 4.500000e+000
      vertex   4.250000e+001 6.800000e+001 4.500000e+000
      vertex   3.980000e+001 7.460000e+001 4.500000e+000
    endloop
  endfacet
  facet normal -0.000000e+000 0.000000e+000 1.000000e+000
    outer loop
      vertex   3.980000e+001 8.540000e+001 4.500000e+000
      vertex   3.750000e+001 6.500000e+001 4.500000e+000
      vertex   3.980000e+001 7.460000e+001 4.500000e+000
    endloop
  endfacet
  facet normal 0.000000e+000 0.000000e+000 1.000000e+000
    outer loop
      vertex   3.980000e+001 8.540000e+001 4.500000e+000
      vertex   3.750000e+001 1.050000e+002 4.500000e+000
      vertex   3.750000e+001 6.500000e+001 4.500000e+000
    endloop
  endfacet
  facet normal -2.655116e-007 -3.115697e-008 1.000000e+000
    outer loop
      vertex   3.980000e+001 8.540000e+001 4.500000e+000
      vertex   4.250000e+001 9.300000e+001 4.500000e+000
      vertex   3.750000e+001 1.050000e+002 4.500000e+000
    endloop
  endfacet
  facet normal 0.000000e+000 -1.254835e-007 1.000000e+000
    outer loop
      vertex   3.980000e+001 8.540000e+001 4.500000e+000
      vertex   4.320000e+001 8.540000e+001 4.500000e+000
      vertex   4.250000e+001 9.300000e+001 4.500000e+000
    endloop
  endfacet
  facet normal 0.000000e+000 -1.254835e-007 1.000000e+000
    outer loop
      vertex   4.250000e+001 9.300000e+001 4.500000e+000
      vertex   4.320000e+001 8.540000e+001 4.500000e+000
      vertex   4.650000e+001 9.300000e+001 4.500000e+000
    endloop
  endfacet
  facet normal -2.011386e-007 -3.814697e-008 1.000000e+000
    outer loop
      vertex   4.650000e+001 9.300000e+001 4.500000e+000
      vertex   4.320000e+001 8.540000e+001 4.500000e+000
      vertex   4.650000e+001 6.800000e+001 4.500000e+000
    endloop
  endfacet
  facet normal -2.861023e-008 -3.814697e-008 1.000000e+000
    outer loop
      vertex   5.050000e+001 6.500000e+001 4.500000e+000
      vertex   4.650000e+001 9.300000e+001 4.500000e+000
      vertex   4.650000e+001 6.800000e+001 4.500000e+000
    endloop
  endfacet
  facet normal 2.384186e-007 -0.000000e+000 1.000000e+000
    outer loop
      vertex   5.050000e+001 6.500000e+001 4.500000e+000
      vertex   5.050000e+001 1.050000e+002 4.500000e+000
      vertex   4.650000e+001 9.300000e+001 4.500000e+000
    endloop
  endfacet
  facet normal 2.384186e-007 0.000000e+000 1.000000e+000
    outer loop
      vertex   4.650000e+001 9.300000e+001 4.500000e+000
      vertex   5.050000e+001 1.050000e+002 4.500000e+000
      vertex   4.650000e+001 9.800000e+001 4.500000e+000
    endloop
  endfacet
  facet normal 0.000000e+000 1.362392e-007 1.000000e+000
    outer loop
      vertex   4.650000e+001 9.800000e+001 4.500000e+000
      vertex   5.050000e+001 1.050000e+002 4.500000e+000
      vertex   4.250000e+001 9.800000e+001 4.500000e+000
    endloop
  endfacet
  facet normal 0.000000e+000 1.362392e-007 1.000000e+000
    outer loop
      vertex   4.250000e+001 9.800000e+001 4.500000e+000
      vertex   5.050000e+001 1.050000e+002 4.500000e+000
      vertex   3.750000e+001 1.050000e+002 4.500000e+000
    endloop
  endfacet
  facet normal -1.907349e-007 0.000000e+000 1.000000e+000
    outer loop
      vertex   4.250000e+001 9.300000e+001 4.500000e+000
      vertex   4.250000e+001 9.800000e+001 4.500000e+000
      vertex   3.750000e+001 1.050000e+002 4.500000e+000
    endloop
  endfacet
  facet normal -0.000000e+000 0.000000e+000 1.000000e+000
    outer loop
      vertex   3.980000e+001 7.460000e+001 4.500000e+000
      vertex   4.250000e+001 6.800000e+001 4.500000e+000
      vertex   4.320000e+001 7.460000e+001 4.500000e+000
    endloop
  endfacet
  facet normal -2.220446e-016 2.355019e-017 1.000000e+000
    outer loop
      vertex   4.320000e+001 7.460000e+001 4.500000e+000
      vertex   4.250000e+001 6.800000e+001 4.500000e+000
      vertex   4.650000e+001 6.800000e+001 4.500000e+000
    endloop
  endfacet
  facet normal -2.691450e-016 0.000000e+000 1.000000e+000
    outer loop
      vertex   4.320000e+001 8.540000e+001 4.500000e+000
      vertex   4.320000e+001 7.460000e+001 4.500000e+000
      vertex   4.650000e+001 6.800000e+001 4.500000e+000
    endloop
  endfacet
  facet normal 0.000000e+000 -0.000000e+000 1.000000e+000
    outer loop
      vertex   3.980000e+001 4.460000e+001 4.500000e+000
      vertex   3.980000e+001 5.540000e+001 4.500000e+000
      vertex   3.750000e+001 6.500000e+001 4.500000e+000
    endloop
  endfacet
  facet normal 0.000000e+000 -0.000000e+000 -1.000000e+000
    outer loop
      vertex   4.320000e+001 5.540000e+001 2.500000e+000
      vertex   5.050000e+001 6.500000e+001 2.500000e+000
      vertex   4.320000e+001 4.460000e+001 2.500000e+000
    endloop
  endfacet
  facet normal 0.000000e+000 0.000000e+000 -1.000000e+000
    outer loop
      vertex   4.320000e+001 5.540000e+001 2.500000e+000
      vertex   3.750000e+001 6.500000e+001 2.500000e+000
      vertex   5.050000e+001 6.500000e+001 2.500000e+000
    endloop
  endfacet
  facet normal 0.000000e+000 0.000000e+000 -1.000000e+000
    outer loop
      vertex   4.320000e+001 5.540000e+001 2.500000e+000
      vertex   3.980000e+001 5.540000e+001 2.500000e+000
      vertex   3.750000e+001 6.500000e+001 2.500000e+000
    endloop
  endfacet
  facet normal 0.000000e+000 0.000000e+000 -1.000000e+000
    outer loop
      vertex   3.750000e+001 6.500000e+001 2.500000e+000
      vertex   3.980000e+001 5.540000e+001 2.500000e+000
      vertex   3.980000e+001 4.460000e+001 2.500000e+000
    endloop
  endfacet
  facet normal 0.000000e+000 0.000000e+000 -1.000000e+000
    outer loop
      vertex   3.750000e+001 2.500000e+001 2.500000e+000
      vertex   3.980000e+001 4.460000e+001 2.500000e+000
      vertex   4.320000e+001 4.460000e+001 2.500000e+000
    endloop
  endfacet
  facet normal 0.000000e+000 0.000000e+000 -1.000000e+000
    outer loop
      vertex   5.050000e+001 2.500000e+001 2.500000e+000
      vertex   4.320000e+001 4.460000e+001 2.500000e+000
      vertex   5.050000e+001 6.500000e+001 2.500000e+000
    endloop
  endfacet
  facet normal 0.000000e+000 0.000000e+000 -1.000000e+000
    outer loop
      vertex   5.050000e+001 2.500000e+001 2.500000e+000
      vertex   3.750000e+001 2.500000e+001 2.500000e+000
      vertex   4.320000e+001 4.460000e+001 2.500000e+000
    endloop
  endfacet
  facet normal 0.000000e+000 -0.000000e+000 -1.000000e+000
    outer loop
      vertex   3.750000e+001 6.500000e+001 2.500000e+000
      vertex   3.980000e+001 4.460000e+001 2.500000e+000
      vertex   3.750000e+001 2.500000e+001 2.500000e+000
    endloop
  endfacet
  facet normal -0.000000e+000 -0.000000e+000 -1.000000e+000
    outer loop
      vertex   4.320000e+001 8.540000e+001 2.500000e+000
      vertex   5.050000e+001 6.500000e+001 2.500000e+000
      vertex   4.320000e+001 7.460000e+001 2.500000e+000
    endloop
  endfacet
  facet normal 0.000000e+000 0.000000e+000 -1.000000e+000
    outer loop
      vertex   4.320000e+001 8.540000e+001 2.500000e+000
      vertex   5.050000e+001 1.050000e+002 2.500000e+000
      vertex   5.050000e+001 6.500000e+001 2.500000e+000
    endloop
  endfacet
  facet normal 0.000000e+000 0.000000e+000 -1.000000e+000
    outer loop
      vertex   4.320000e+001 8.540000e+001 2.500000e+000
      vertex   3.750000e+001 1.050000e+002 2.500000e+000
      vertex   5.050000e+001 1.050000e+002 2.500000e+000
    endloop
  endfacet
  facet normal 0.000000e+000 0.000000e+000 -1.000000e+000
    outer loop
      vertex   4.320000e+001 8.540000e+001 2.500000e+000
      vertex   3.980000e+001 8.540000e+001 2.500000e+000
      vertex   3.750000e+001 1.050000e+002 2.500000e+000
    endloop
  endfacet
  facet normal 0.000000e+000 -0.000000e+000 -1.000000e+000
    outer loop
      vertex   3.750000e+001 1.050000e+002 2.500000e+000
      vertex   3.980000e+001 8.540000e+001 2.500000e+000
      vertex   3.750000e+001 6.500000e+001 2.500000e+000
    endloop
  endfacet
  facet normal 0.000000e+000 0.000000e+000 -1.000000e+000
    outer loop
      vertex   3.750000e+001 6.500000e+001 2.500000e+000
      vertex   3.980000e+001 8.540000e+001 2.500000e+000
      vertex   3.980000e+001 7.460000e+001 2.500000e+000
    endloop
  endfacet
  facet normal -0.000000e+000 0.000000e+000 -1.000000e+000
    outer loop
      vertex   4.320000e+001 7.460000e+001 2.500000e+000
      vertex   3.750000e+001 6.500000e+001 2.500000e+000
      vertex   3.980000e+001 7.460000e+001 2.500000e+000
    endloop
  endfacet
  facet normal -0.000000e+000 -0.000000e+000 -1.000000e+000
    outer loop
      vertex   4.320000e+001 7.460000e+001 2.500000e+000
      vertex   5.050000e+001 6.500000e+001 2.500000e+000
      vertex   3.750000e+001 6.500000e+001 2.500000e+000
    endloop
  endfacet
endsolid
