solid ascii
  facet normal 0.000000e+000 0.000000e+000 1.000000e+000
    outer loop
      vertex   -2.950000e+001 1.690000e+002 6.000000e+000
      vertex   -4.250000e+001 1.690000e+002 6.000000e+000
      vertex   -2.950000e+001 1.650000e+002 6.000000e+000
    endloop
  endfacet
  facet normal 0.000000e+000 0.000000e+000 1.000000e+000
    outer loop
      vertex   -2.950000e+001 1.650000e+002 6.000000e+000
      vertex   -4.250000e+001 1.690000e+002 6.000000e+000
      vertex   -4.250000e+001 1.650000e+002 6.000000e+000
    endloop
  endfacet
  facet normal 0.000000e+000 -1.000000e+000 0.000000e+000
    outer loop
      vertex   -4.250000e+001 1.650000e+002 6.000000e+000
      vertex   -4.250000e+001 1.650000e+002 2.000000e+000
      vertex   -2.950000e+001 1.650000e+002 6.000000e+000
    endloop
  endfacet
  facet normal 0.000000e+000 -1.000000e+000 -0.000000e+000
    outer loop
      vertex   -2.950000e+001 1.650000e+002 6.000000e+000
      vertex   -4.250000e+001 1.650000e+002 2.000000e+000
      vertex   -2.950000e+001 1.650000e+002 2.000000e+000
    endloop
  endfacet
  facet normal 1.000000e+000 -0.000000e+000 0.000000e+000
    outer loop
      vertex   -2.950000e+001 1.650000e+002 6.000000e+000
      vertex   -2.950000e+001 1.650000e+002 2.000000e+000
      vertex   -2.950000e+001 1.690000e+002 6.000000e+000
    endloop
  endfacet
  facet normal 1.000000e+000 -0.000000e+000 0.000000e+000
    outer loop
      vertex   -2.950000e+001 1.690000e+002 6.000000e+000
      vertex   -2.950000e+001 1.650000e+002 2.000000e+000
      vertex   -2.950000e+001 1.690000e+002 2.000000e+000
    endloop
  endfacet
  facet normal 1.000000e+000 -0.000000e+000 0.000000e+000
    outer loop
      vertex   -1.800000e+001 1.280000e+002 2.000000e+000
      vertex   -1.800000e+001 1.280000e+002 0.000000e+000
      vertex   -1.800000e+001 1.380000e+002 2.000000e+000
    endloop
  endfacet
  facet normal 1.000000e+000 -0.000000e+000 0.000000e+000
    outer loop
      vertex   -1.800000e+001 1.380000e+002 2.000000e+000
      vertex   -1.800000e+001 1.280000e+002 0.000000e+000
      vertex   -1.800000e+001 1.380000e+002 0.000000e+000
    endloop
  endfacet
  facet normal -0.000000e+000 -1.000000e+000 0.000000e+000
    outer loop
      vertex   -1.800000e+001 1.280000e+002 0.000000e+000
      vertex   -1.800000e+001 1.280000e+002 2.000000e+000
      vertex   -2.100000e+001 1.280000e+002 0.000000e+000
    endloop
  endfacet
  facet normal 0.000000e+000 -1.000000e+000 0.000000e+000
    outer loop
      vertex   -2.100000e+001 1.280000e+002 0.000000e+000
      vertex   -1.800000e+001 1.280000e+002 2.000000e+000
      vertex   -2.100000e+001 1.280000e+002 2.000000e+000
    endloop
  endfacet
  facet normal -1.000000e+000 7.105427e-016 0.000000e+000
    outer loop
      vertex   -2.100000e+001 1.330000e+002 2.000000e+000
      vertex   -2.100000e+001 1.330000e+002 0.000000e+000
      vertex   -2.100000e+001 1.280000e+002 2.000000e+000
    endloop
  endfacet
  facet normal -1.000000e+000 7.105427e-016 0.000000e+000
    outer loop
      vertex   -2.100000e+001 1.280000e+002 2.000000e+000
      vertex   -2.100000e+001 1.330000e+002 0.000000e+000
      vertex   -2.100000e+001 1.280000e+002 0.000000e+000
    endloop
  endfacet
  facet normal 0.000000e+000 -1.000000e+000 0.000000e+000
    outer loop
      vertex   -2.350000e+001 1.330000e+002 2.000000e+000
      vertex   -2.350000e+001 1.330000e+002 0.000000e+000
      vertex   -2.100000e+001 1.330000e+002 2.000000e+000
    endloop
  endfacet
  facet normal 0.000000e+000 -1.000000e+000 -0.000000e+000
    outer loop
      vertex   -2.100000e+001 1.330000e+002 2.000000e+000
      vertex   -2.350000e+001 1.330000e+002 0.000000e+000
      vertex   -2.100000e+001 1.330000e+002 0.000000e+000
    endloop
  endfacet
  facet normal -0.000000e+000 1.000000e+000 0.000000e+000
    outer loop
      vertex   -2.350000e+001 1.380000e+002 0.000000e+000
      vertex   -2.350000e+001 1.380000e+002 2.000000e+000
      vertex   -1.800000e+001 1.380000e+002 0.000000e+000
    endloop
  endfacet
  facet normal 0.000000e+000 1.000000e+000 -0.000000e+000
    outer loop
      vertex   -1.800000e+001 1.380000e+002 0.000000e+000
      vertex   -2.350000e+001 1.380000e+002 2.000000e+000
      vertex   -1.800000e+001 1.380000e+002 2.000000e+000
    endloop
  endfacet
  facet normal 1.000000e+000 -6.703233e-017 0.000000e+000
    outer loop
      vertex   -2.350000e+001 1.330000e+002 2.000000e+000
      vertex   -2.350000e+001 8.000000e+001 2.000000e+000
      vertex   -2.350000e+001 1.330000e+002 0.000000e+000
    endloop
  endfacet
  facet normal 1.000000e+000 -6.703233e-017 0.000000e+000
    outer loop
      vertex   -2.350000e+001 1.330000e+002 0.000000e+000
      vertex   -2.350000e+001 8.000000e+001 2.000000e+000
      vertex   -2.350000e+001 8.000000e+001 0.000000e+000
    endloop
  endfacet
  facet normal 1.000000e+000 -0.000000e+000 0.000000e+000
    outer loop
      vertex   -2.350000e+001 1.380000e+002 2.000000e+000
      vertex   -2.350000e+001 1.380000e+002 0.000000e+000
      vertex   -2.350000e+001 1.690000e+002 2.000000e+000
    endloop
  endfacet
  facet normal 1.000000e+000 -0.000000e+000 0.000000e+000
    outer loop
      vertex   -2.350000e+001 1.690000e+002 2.000000e+000
      vertex   -2.350000e+001 1.380000e+002 0.000000e+000
      vertex   -2.350000e+001 1.690000e+002 0.000000e+000
    endloop
  endfacet
  facet normal 1.000000e+000 -0.000000e+000 0.000000e+000
    outer loop
      vertex   -1.800000e+001 7.000000e+001 2.000000e+000
      vertex   -1.800000e+001 7.000000e+001 0.000000e+000
      vertex   -1.800000e+001 8.000000e+001 2.000000e+000
    endloop
  endfacet
  facet normal 1.000000e+000 -0.000000e+000 0.000000e+000
    outer loop
      vertex   -1.800000e+001 8.000000e+001 2.000000e+000
      vertex   -1.800000e+001 7.000000e+001 0.000000e+000
      vertex   -1.800000e+001 8.000000e+001 0.000000e+000
    endloop
  endfacet
  facet normal -0.000000e+000 -1.000000e+000 0.000000e+000
    outer loop
      vertex   -1.800000e+001 7.000000e+001 0.000000e+000
      vertex   -1.800000e+001 7.000000e+001 2.000000e+000
      vertex   -2.100000e+001 7.000000e+001 0.000000e+000
    endloop
  endfacet
  facet normal 0.000000e+000 -1.000000e+000 0.000000e+000
    outer loop
      vertex   -2.100000e+001 7.000000e+001 0.000000e+000
      vertex   -1.800000e+001 7.000000e+001 2.000000e+000
      vertex   -2.100000e+001 7.000000e+001 2.000000e+000
    endloop
  endfacet
  facet normal -1.000000e+000 -0.000000e+000 -0.000000e+000
    outer loop
      vertex   -2.100000e+001 7.500000e+001 2.000000e+000
      vertex   -2.100000e+001 7.500000e+001 0.000000e+000
      vertex   -2.100000e+001 7.000000e+001 2.000000e+000
    endloop
  endfacet
  facet normal -1.000000e+000 -0.000000e+000 -0.000000e+000
    outer loop
      vertex   -2.100000e+001 7.000000e+001 2.000000e+000
      vertex   -2.100000e+001 7.500000e+001 0.000000e+000
      vertex   -2.100000e+001 7.000000e+001 0.000000e+000
    endloop
  endfacet
  facet normal 0.000000e+000 -1.000000e+000 0.000000e+000
    outer loop
      vertex   -2.350000e+001 7.500000e+001 2.000000e+000
      vertex   -2.350000e+001 7.500000e+001 0.000000e+000
      vertex   -2.100000e+001 7.500000e+001 2.000000e+000
    endloop
  endfacet
  facet normal 0.000000e+000 -1.000000e+000 -0.000000e+000
    outer loop
      vertex   -2.100000e+001 7.500000e+001 2.000000e+000
      vertex   -2.350000e+001 7.500000e+001 0.000000e+000
      vertex   -2.100000e+001 7.500000e+001 0.000000e+000
    endloop
  endfacet
  facet normal -0.000000e+000 1.000000e+000 0.000000e+000
    outer loop
      vertex   -2.350000e+001 8.000000e+001 0.000000e+000
      vertex   -2.350000e+001 8.000000e+001 2.000000e+000
      vertex   -1.800000e+001 8.000000e+001 0.000000e+000
    endloop
  endfacet
  facet normal 0.000000e+000 1.000000e+000 -0.000000e+000
    outer loop
      vertex   -1.800000e+001 8.000000e+001 0.000000e+000
      vertex   -2.350000e+001 8.000000e+001 2.000000e+000
      vertex   -1.800000e+001 8.000000e+001 2.000000e+000
    endloop
  endfacet
  facet normal 1.000000e+000 9.868649e-017 -0.000000e+000
    outer loop
      vertex   -2.350000e+001 7.500000e+001 0.000000e+000
      vertex   -2.350000e+001 7.500000e+001 2.000000e+000
      vertex   -2.350000e+001 3.900000e+001 0.000000e+000
    endloop
  endfacet
  facet normal 1.000000e+000 9.868649e-017 0.000000e+000
    outer loop
      vertex   -2.350000e+001 3.900000e+001 0.000000e+000
      vertex   -2.350000e+001 7.500000e+001 2.000000e+000
      vertex   -2.350000e+001 3.900000e+001 2.000000e+000
    endloop
  endfacet
  facet normal 0.000000e+000 1.000000e+000 0.000000e+000
    outer loop
      vertex   -2.350000e+001 1.690000e+002 2.000000e+000
      vertex   -2.350000e+001 1.690000e+002 0.000000e+000
      vertex   -2.950000e+001 1.690000e+002 2.000000e+000
    endloop
  endfacet
  facet normal 0.000000e+000 1.000000e+000 0.000000e+000
    outer loop
      vertex   -2.950000e+001 1.690000e+002 2.000000e+000
      vertex   -2.350000e+001 1.690000e+002 0.000000e+000
      vertex   -4.250000e+001 1.690000e+002 0.000000e+000
    endloop
  endfacet
  facet normal 0.000000e+000 1.000000e+000 0.000000e+000
    outer loop
      vertex   -4.250000e+001 1.690000e+002 6.000000e+000
      vertex   -2.950000e+001 1.690000e+002 2.000000e+000
      vertex   -4.250000e+001 1.690000e+002 0.000000e+000
    endloop
  endfacet
  facet normal -0.000000e+000 1.000000e+000 0.000000e+000
    outer loop
      vertex   -4.250000e+001 1.690000e+002 6.000000e+000
      vertex   -2.950000e+001 1.690000e+002 6.000000e+000
      vertex   -2.950000e+001 1.690000e+002 2.000000e+000
    endloop
  endfacet
  facet normal -0.000000e+000 -1.000000e+000 0.000000e+000
    outer loop
      vertex   -2.350000e+001 3.900000e+001 0.000000e+000
      vertex   -2.350000e+001 3.900000e+001 2.000000e+000
      vertex   -4.250000e+001 3.900000e+001 0.000000e+000
    endloop
  endfacet
  facet normal 0.000000e+000 -1.000000e+000 0.000000e+000
    outer loop
      vertex   -4.250000e+001 3.900000e+001 0.000000e+000
      vertex   -2.350000e+001 3.900000e+001 2.000000e+000
      vertex   -4.250000e+001 3.900000e+001 2.000000e+000
    endloop
  endfacet
  facet normal 0.000000e+000 0.000000e+000 -1.000000e+000
    outer loop
      vertex   -2.350000e+001 3.900000e+001 0.000000e+000
      vertex   -4.250000e+001 3.900000e+001 0.000000e+000
      vertex   -2.350000e+001 7.500000e+001 0.000000e+000
    endloop
  endfacet
  facet normal -0.000000e+000 0.000000e+000 -1.000000e+000
    outer loop
      vertex   -2.350000e+001 7.500000e+001 0.000000e+000
      vertex   -4.250000e+001 3.900000e+001 0.000000e+000
      vertex   -4.250000e+001 8.233333e+001 0.000000e+000
    endloop
  endfacet
  facet normal 0.000000e+000 0.000000e+000 -1.000000e+000
    outer loop
      vertex   -2.350000e+001 8.000000e+001 0.000000e+000
      vertex   -4.250000e+001 8.233333e+001 0.000000e+000
      vertex   -4.250000e+001 1.256667e+002 0.000000e+000
    endloop
  endfacet
  facet normal -0.000000e+000 0.000000e+000 -1.000000e+000
    outer loop
      vertex   -2.350000e+001 1.330000e+002 0.000000e+000
      vertex   -4.250000e+001 1.256667e+002 0.000000e+000
      vertex   -2.350000e+001 1.380000e+002 0.000000e+000
    endloop
  endfacet
  facet normal 0.000000e+000 0.000000e+000 -1.000000e+000
    outer loop
      vertex   -2.100000e+001 1.330000e+002 0.000000e+000
      vertex   -2.350000e+001 1.380000e+002 0.000000e+000
      vertex   -1.800000e+001 1.380000e+002 0.000000e+000
    endloop
  endfacet
  facet normal 0.000000e+000 0.000000e+000 -1.000000e+000
    outer loop
      vertex   -1.800000e+001 1.280000e+002 0.000000e+000
      vertex   -2.100000e+001 1.330000e+002 0.000000e+000
      vertex   -1.800000e+001 1.380000e+002 0.000000e+000
    endloop
  endfacet
  facet normal 0.000000e+000 0.000000e+000 -1.000000e+000
    outer loop
      vertex   -1.800000e+001 1.280000e+002 0.000000e+000
      vertex   -2.100000e+001 1.280000e+002 0.000000e+000
      vertex   -2.100000e+001 1.330000e+002 0.000000e+000
    endloop
  endfacet
  facet normal 0.000000e+000 0.000000e+000 -1.000000e+000
    outer loop
      vertex   -2.350000e+001 7.500000e+001 0.000000e+000
      vertex   -4.250000e+001 8.233333e+001 0.000000e+000
      vertex   -2.350000e+001 8.000000e+001 0.000000e+000
    endloop
  endfacet
  facet normal 0.000000e+000 0.000000e+000 -1.000000e+000
    outer loop
      vertex   -2.100000e+001 7.500000e+001 0.000000e+000
      vertex   -2.350000e+001 8.000000e+001 0.000000e+000
      vertex   -1.800000e+001 8.000000e+001 0.000000e+000
    endloop
  endfacet
  facet normal 0.000000e+000 0.000000e+000 -1.000000e+000
    outer loop
      vertex   -1.800000e+001 7.000000e+001 0.000000e+000
      vertex   -2.100000e+001 7.500000e+001 0.000000e+000
      vertex   -1.800000e+001 8.000000e+001 0.000000e+000
    endloop
  endfacet
  facet normal 0.000000e+000 0.000000e+000 -1.000000e+000
    outer loop
      vertex   -1.800000e+001 7.000000e+001 0.000000e+000
      vertex   -2.100000e+001 7.000000e+001 0.000000e+000
      vertex   -2.100000e+001 7.500000e+001 0.000000e+000
    endloop
  endfacet
  facet normal 0.000000e+000 0.000000e+000 -1.000000e+000
    outer loop
      vertex   -4.250000e+001 1.256667e+002 0.000000e+000
      vertex   -4.250000e+001 1.690000e+002 0.000000e+000
      vertex   -2.350000e+001 1.380000e+002 0.000000e+000
    endloop
  endfacet
  facet normal 0.000000e+000 0.000000e+000 -1.000000e+000
    outer loop
      vertex   -2.350000e+001 1.380000e+002 0.000000e+000
      vertex   -4.250000e+001 1.690000e+002 0.000000e+000
      vertex   -2.350000e+001 1.690000e+002 0.000000e+000
    endloop
  endfacet
  facet normal 0.000000e+000 0.000000e+000 -1.000000e+000
    outer loop
      vertex   -2.350000e+001 1.330000e+002 0.000000e+000
      vertex   -2.350000e+001 1.380000e+002 0.000000e+000
      vertex   -2.100000e+001 1.330000e+002 0.000000e+000
    endloop
  endfacet
  facet normal -0.000000e+000 0.000000e+000 -1.000000e+000
    outer loop
      vertex   -2.350000e+001 1.330000e+002 0.000000e+000
      vertex   -2.350000e+001 8.000000e+001 0.000000e+000
      vertex   -4.250000e+001 1.256667e+002 0.000000e+000
    endloop
  endfacet
  facet normal 0.000000e+000 0.000000e+000 -1.000000e+000
    outer loop
      vertex   -2.350000e+001 7.500000e+001 0.000000e+000
      vertex   -2.350000e+001 8.000000e+001 0.000000e+000
      vertex   -2.100000e+001 7.500000e+001 0.000000e+000
    endloop
  endfacet
  facet normal -1.000000e+000 0.000000e+000 -0.000000e+000
    outer loop
      vertex   -4.250000e+001 3.900000e+001 2.000000e+000
      vertex   -4.250000e+001 8.100000e+001 2.000000e+000
      vertex   -4.250000e+001 3.900000e+001 0.000000e+000
    endloop
  endfacet
  facet normal -1.000000e+000 8.198570e-016 -1.721700e-014
    outer loop
      vertex   -4.250000e+001 3.900000e+001 0.000000e+000
      vertex   -4.250000e+001 8.100000e+001 2.000000e+000
      vertex   -4.250000e+001 8.233333e+001 0.000000e+000
    endloop
  endfacet
  facet normal -1.000000e+000 0.000000e+000 -1.776357e-014
    outer loop
      vertex   -4.250000e+001 8.233333e+001 0.000000e+000
      vertex   -4.250000e+001 8.100000e+001 2.000000e+000
      vertex   -4.250000e+001 1.230000e+002 2.000000e+000
    endloop
  endfacet
  facet normal -1.000000e+000 0.000000e+000 -1.776357e-014
    outer loop
      vertex   -4.250000e+001 1.256667e+002 0.000000e+000
      vertex   -4.250000e+001 1.230000e+002 2.000000e+000
      vertex   -4.250000e+001 1.650000e+002 2.000000e+000
    endloop
  endfacet
  facet normal -1.000000e+000 5.921189e-015 -5.921189e-015
    outer loop
      vertex   -4.250000e+001 1.690000e+002 0.000000e+000
      vertex   -4.250000e+001 1.650000e+002 2.000000e+000
      vertex   -4.250000e+001 1.690000e+002 6.000000e+000
    endloop
  endfacet
  facet normal -1.000000e+000 -0.000000e+000 -1.776357e-014
    outer loop
      vertex   -4.250000e+001 1.690000e+002 0.000000e+000
      vertex   -4.250000e+001 1.256667e+002 0.000000e+000
      vertex   -4.250000e+001 1.650000e+002 2.000000e+000
    endloop
  endfacet
  facet normal -1.000000e+000 0.000000e+000 -1.776357e-014
    outer loop
      vertex   -4.250000e+001 8.233333e+001 0.000000e+000
      vertex   -4.250000e+001 1.230000e+002 2.000000e+000
      vertex   -4.250000e+001 1.256667e+002 0.000000e+000
    endloop
  endfacet
  facet normal -1.000000e+000 0.000000e+000 0.000000e+000
    outer loop
      vertex   -4.250000e+001 1.650000e+002 2.000000e+000
      vertex   -4.250000e+001 1.650000e+002 6.000000e+000
      vertex   -4.250000e+001 1.690000e+002 6.000000e+000
    endloop
  endfacet
  facet normal -0.000000e+000 0.000000e+000 1.000000e+000
    outer loop
      vertex   -4.250000e+001 1.650000e+002 2.000000e+000
      vertex   -4.250000e+001 1.230000e+002 2.000000e+000
      vertex   -2.950000e+001 1.650000e+002 2.000000e+000
    endloop
  endfacet
  facet normal -0.000000e+000 0.000000e+000 1.000000e+000
    outer loop
      vertex   -2.950000e+001 1.650000e+002 2.000000e+000
      vertex   -4.250000e+001 1.230000e+002 2.000000e+000
      vertex   -2.350000e+001 1.380000e+002 2.000000e+000
    endloop
  endfacet
  facet normal 0.000000e+000 0.000000e+000 1.000000e+000
    outer loop
      vertex   -2.350000e+001 1.690000e+002 2.000000e+000
      vertex   -2.950000e+001 1.650000e+002 2.000000e+000
      vertex   -2.350000e+001 1.380000e+002 2.000000e+000
    endloop
  endfacet
  facet normal 0.000000e+000 0.000000e+000 1.000000e+000
    outer loop
      vertex   -2.350000e+001 1.690000e+002 2.000000e+000
      vertex   -2.950000e+001 1.690000e+002 2.000000e+000
      vertex   -2.950000e+001 1.650000e+002 2.000000e+000
    endloop
  endfacet
  facet normal -0.000000e+000 -0.000000e+000 1.000000e+000
    outer loop
      vertex   -4.250000e+001 8.100000e+001 2.000000e+000
      vertex   -2.350000e+001 8.000000e+001 2.000000e+000
      vertex   -4.250000e+001 1.230000e+002 2.000000e+000
    endloop
  endfacet
  facet normal -0.000000e+000 0.000000e+000 1.000000e+000
    outer loop
      vertex   -4.250000e+001 8.100000e+001 2.000000e+000
      vertex   -2.350000e+001 7.500000e+001 2.000000e+000
      vertex   -2.350000e+001 8.000000e+001 2.000000e+000
    endloop
  endfacet
  facet normal -0.000000e+000 0.000000e+000 1.000000e+000
    outer loop
      vertex   -4.250000e+001 8.100000e+001 2.000000e+000
      vertex   -4.250000e+001 3.900000e+001 2.000000e+000
      vertex   -2.350000e+001 7.500000e+001 2.000000e+000
    endloop
  endfacet
  facet normal -0.000000e+000 0.000000e+000 1.000000e+000
    outer loop
      vertex   -2.350000e+001 7.500000e+001 2.000000e+000
      vertex   -4.250000e+001 3.900000e+001 2.000000e+000
      vertex   -2.350000e+001 3.900000e+001 2.000000e+000
    endloop
  endfacet
  facet normal 0.000000e+000 -0.000000e+000 1.000000e+000
    outer loop
      vertex   -2.350000e+001 7.500000e+001 2.000000e+000
      vertex   -2.100000e+001 7.500000e+001 2.000000e+000
      vertex   -2.350000e+001 8.000000e+001 2.000000e+000
    endloop
  endfacet
  facet normal -0.000000e+000 0.000000e+000 1.000000e+000
    outer loop
      vertex   -2.350000e+001 8.000000e+001 2.000000e+000
      vertex   -2.100000e+001 7.500000e+001 2.000000e+000
      vertex   -1.800000e+001 8.000000e+001 2.000000e+000
    endloop
  endfacet
  facet normal 0.000000e+000 0.000000e+000 1.000000e+000
    outer loop
      vertex   -1.800000e+001 8.000000e+001 2.000000e+000
      vertex   -2.100000e+001 7.500000e+001 2.000000e+000
      vertex   -1.800000e+001 7.000000e+001 2.000000e+000
    endloop
  endfacet
  facet normal 0.000000e+000 0.000000e+000 1.000000e+000
    outer loop
      vertex   -1.800000e+001 7.000000e+001 2.000000e+000
      vertex   -2.100000e+001 7.500000e+001 2.000000e+000
      vertex   -2.100000e+001 7.000000e+001 2.000000e+000
    endloop
  endfacet
  facet normal 0.000000e+000 -0.000000e+000 1.000000e+000
    outer loop
      vertex   -2.350000e+001 8.000000e+001 2.000000e+000
      vertex   -2.350000e+001 1.330000e+002 2.000000e+000
      vertex   -4.250000e+001 1.230000e+002 2.000000e+000
    endloop
  endfacet
  facet normal 0.000000e+000 0.000000e+000 1.000000e+000
    outer loop
      vertex   -4.250000e+001 1.230000e+002 2.000000e+000
      vertex   -2.350000e+001 1.330000e+002 2.000000e+000
      vertex   -2.350000e+001 1.380000e+002 2.000000e+000
    endloop
  endfacet
  facet normal -0.000000e+000 0.000000e+000 1.000000e+000
    outer loop
      vertex   -2.350000e+001 1.380000e+002 2.000000e+000
      vertex   -2.350000e+001 1.330000e+002 2.000000e+000
      vertex   -2.100000e+001 1.330000e+002 2.000000e+000
    endloop
  endfacet
  facet normal 0.000000e+000 0.000000e+000 1.000000e+000
    outer loop
      vertex   -1.800000e+001 1.380000e+002 2.000000e+000
      vertex   -2.100000e+001 1.330000e+002 2.000000e+000
      vertex   -1.800000e+001 1.280000e+002 2.000000e+000
    endloop
  endfacet
  facet normal 0.000000e+000 0.000000e+000 1.000000e+000
    outer loop
      vertex   -1.800000e+001 1.380000e+002 2.000000e+000
      vertex   -2.350000e+001 1.380000e+002 2.000000e+000
      vertex   -2.100000e+001 1.330000e+002 2.000000e+000
    endloop
  endfacet
  facet normal -0.000000e+000 0.000000e+000 1.000000e+000
    outer loop
      vertex   -2.100000e+001 1.330000e+002 2.000000e+000
      vertex   -2.100000e+001 1.280000e+002 2.000000e+000
      vertex   -1.800000e+001 1.280000e+002 2.000000e+000
    endloop
  endfacet
endsolid
