solid ascii
  facet normal -1.000000e+000 0.000000e+000 -8.881784e-016
    outer loop
      vertex   2.212711e+001 9.270000e+001 9.500000e+000
      vertex   2.212711e+001 9.270000e+001 5.500000e+000
      vertex   2.212711e+001 6.830000e+001 9.500000e+000
    endloop
  endfacet
  facet normal -1.000000e+000 -0.000000e+000 -8.881784e-016
    outer loop
      vertex   2.212711e+001 6.830000e+001 9.500000e+000
      vertex   2.212711e+001 9.270000e+001 5.500000e+000
      vertex   2.212711e+001 6.830000e+001 5.500000e+000
    endloop
  endfacet
  facet normal 1.000000e+000 0.000000e+000 1.776357e-015
    outer loop
      vertex   2.512711e+001 6.830000e+001 9.500000e+000
      vertex   2.512711e+001 6.830000e+001 5.500000e+000
      vertex   2.512711e+001 9.270000e+001 9.500000e+000
    endloop
  endfacet
  facet normal 1.000000e+000 -0.000000e+000 1.776357e-015
    outer loop
      vertex   2.512711e+001 9.270000e+001 9.500000e+000
      vertex   2.512711e+001 6.830000e+001 5.500000e+000
      vertex   2.512711e+001 9.270000e+001 5.500000e+000
    endloop
  endfacet
  facet normal 0.000000e+000 0.000000e+000 1.000000e+000
    outer loop
      vertex   2.512711e+001 9.270000e+001 9.500000e+000
      vertex   2.212711e+001 9.270000e+001 9.500000e+000
      vertex   2.512711e+001 6.830000e+001 9.500000e+000
    endloop
  endfacet
  facet normal 0.000000e+000 0.000000e+000 1.000000e+000
    outer loop
      vertex   2.512711e+001 6.830000e+001 9.500000e+000
      vertex   2.212711e+001 9.270000e+001 9.500000e+000
      vertex   2.212711e+001 6.830000e+001 9.500000e+000
    endloop
  endfacet
  facet normal 0.000000e+000 -0.000000e+000 1.000000e+000
    outer loop
      vertex   1.612711e+001 6.500000e+001 5.500000e+000
      vertex   1.842711e+001 9.040000e+001 5.500000e+000
      vertex   1.612711e+001 1.050000e+002 5.500000e+000
    endloop
  endfacet
  facet normal 0.000000e+000 0.000000e+000 1.000000e+000
    outer loop
      vertex   1.612711e+001 6.500000e+001 5.500000e+000
      vertex   1.842711e+001 7.960000e+001 5.500000e+000
      vertex   1.842711e+001 9.040000e+001 5.500000e+000
    endloop
  endfacet
  facet normal 0.000000e+000 -0.000000e+000 1.000000e+000
    outer loop
      vertex   1.612711e+001 6.500000e+001 5.500000e+000
      vertex   2.082711e+001 6.830000e+001 5.500000e+000
      vertex   1.842711e+001 7.960000e+001 5.500000e+000
    endloop
  endfacet
  facet normal -0.000000e+000 0.000000e+000 1.000000e+000
    outer loop
      vertex   1.612711e+001 6.500000e+001 5.500000e+000
      vertex   1.842711e+001 6.040000e+001 5.500000e+000
      vertex   2.082711e+001 6.830000e+001 5.500000e+000
    endloop
  endfacet
  facet normal -0.000000e+000 0.000000e+000 1.000000e+000
    outer loop
      vertex   1.612711e+001 6.500000e+001 5.500000e+000
      vertex   1.842711e+001 4.960000e+001 5.500000e+000
      vertex   1.842711e+001 6.040000e+001 5.500000e+000
    endloop
  endfacet
  facet normal -0.000000e+000 0.000000e+000 1.000000e+000
    outer loop
      vertex   1.612711e+001 6.500000e+001 5.500000e+000
      vertex   1.612711e+001 2.500000e+001 5.500000e+000
      vertex   1.842711e+001 4.960000e+001 5.500000e+000
    endloop
  endfacet
  facet normal -0.000000e+000 0.000000e+000 1.000000e+000
    outer loop
      vertex   1.842711e+001 4.960000e+001 5.500000e+000
      vertex   1.612711e+001 2.500000e+001 5.500000e+000
      vertex   2.182711e+001 4.960000e+001 5.500000e+000
    endloop
  endfacet
  facet normal -3.416071e-016 7.915286e-017 1.000000e+000
    outer loop
      vertex   2.182711e+001 4.960000e+001 5.500000e+000
      vertex   1.612711e+001 2.500000e+001 5.500000e+000
      vertex   2.912711e+001 2.500000e+001 5.500000e+000
    endloop
  endfacet
  facet normal -1.200241e-015 0.000000e+000 1.000000e+000
    outer loop
      vertex   2.542711e+001 6.270000e+001 5.500000e+000
      vertex   2.912711e+001 2.500000e+001 5.500000e+000
      vertex   2.912711e+001 6.500000e+001 5.500000e+000
    endloop
  endfacet
  facet normal -1.200241e-015 0.000000e+000 1.000000e+000
    outer loop
      vertex   2.542711e+001 6.830000e+001 5.500000e+000
      vertex   2.912711e+001 6.500000e+001 5.500000e+000
      vertex   2.542711e+001 9.270000e+001 5.500000e+000
    endloop
  endfacet
  facet normal 2.046993e-006 -0.000000e+000 1.000000e+000
    outer loop
      vertex   2.512711e+001 9.270000e+001 5.500000e+000
      vertex   2.542711e+001 6.830000e+001 5.500000e+000
      vertex   2.542711e+001 9.270000e+001 5.500000e+000
    endloop
  endfacet
  facet normal 2.046993e-006 0.000000e+000 1.000000e+000
    outer loop
      vertex   2.512711e+001 9.270000e+001 5.500000e+000
      vertex   2.512711e+001 6.830000e+001 5.500000e+000
      vertex   2.542711e+001 6.830000e+001 5.500000e+000
    endloop
  endfacet
  facet normal -3.158461e-016 8.679739e-017 1.000000e+000
    outer loop
      vertex   2.182711e+001 4.960000e+001 5.500000e+000
      vertex   2.912711e+001 2.500000e+001 5.500000e+000
      vertex   2.542711e+001 6.270000e+001 5.500000e+000
    endloop
  endfacet
  facet normal 0.000000e+000 -0.000000e+000 1.000000e+000
    outer loop
      vertex   2.182711e+001 6.040000e+001 5.500000e+000
      vertex   2.542711e+001 6.270000e+001 5.500000e+000
      vertex   2.082711e+001 6.270000e+001 5.500000e+000
    endloop
  endfacet
  facet normal 0.000000e+000 0.000000e+000 1.000000e+000
    outer loop
      vertex   1.842711e+001 6.040000e+001 5.500000e+000
      vertex   2.082711e+001 6.270000e+001 5.500000e+000
      vertex   2.082711e+001 6.830000e+001 5.500000e+000
    endloop
  endfacet
  facet normal 0.000000e+000 -0.000000e+000 1.000000e+000
    outer loop
      vertex   1.842711e+001 6.040000e+001 5.500000e+000
      vertex   2.182711e+001 6.040000e+001 5.500000e+000
      vertex   2.082711e+001 6.270000e+001 5.500000e+000
    endloop
  endfacet
  facet normal -1.200241e-015 0.000000e+000 1.000000e+000
    outer loop
      vertex   2.912711e+001 6.500000e+001 5.500000e+000
      vertex   2.912711e+001 1.050000e+002 5.500000e+000
      vertex   2.542711e+001 9.270000e+001 5.500000e+000
    endloop
  endfacet
  facet normal -1.200241e-015 0.000000e+000 1.000000e+000
    outer loop
      vertex   2.542711e+001 9.270000e+001 5.500000e+000
      vertex   2.912711e+001 1.050000e+002 5.500000e+000
      vertex   2.542711e+001 9.830000e+001 5.500000e+000
    endloop
  endfacet
  facet normal 0.000000e+000 -6.628197e-016 1.000000e+000
    outer loop
      vertex   2.542711e+001 9.830000e+001 5.500000e+000
      vertex   2.912711e+001 1.050000e+002 5.500000e+000
      vertex   2.082711e+001 9.830000e+001 5.500000e+000
    endloop
  endfacet
  facet normal -3.416071e-016 -2.396348e-016 1.000000e+000
    outer loop
      vertex   2.082711e+001 9.830000e+001 5.500000e+000
      vertex   2.912711e+001 1.050000e+002 5.500000e+000
      vertex   1.612711e+001 1.050000e+002 5.500000e+000
    endloop
  endfacet
  facet normal 0.000000e+000 -0.000000e+000 1.000000e+000
    outer loop
      vertex   1.842711e+001 9.040000e+001 5.500000e+000
      vertex   2.082711e+001 9.830000e+001 5.500000e+000
      vertex   1.612711e+001 1.050000e+002 5.500000e+000
    endloop
  endfacet
  facet normal 0.000000e+000 0.000000e+000 1.000000e+000
    outer loop
      vertex   1.842711e+001 9.040000e+001 5.500000e+000
      vertex   2.082711e+001 9.270000e+001 5.500000e+000
      vertex   2.082711e+001 9.830000e+001 5.500000e+000
    endloop
  endfacet
  facet normal 0.000000e+000 -0.000000e+000 1.000000e+000
    outer loop
      vertex   1.842711e+001 9.040000e+001 5.500000e+000
      vertex   2.182711e+001 9.040000e+001 5.500000e+000
      vertex   2.082711e+001 9.270000e+001 5.500000e+000
    endloop
  endfacet
  facet normal -4.723830e-007 -2.053839e-007 1.000000e+000
    outer loop
      vertex   2.082711e+001 9.270000e+001 5.500000e+000
      vertex   2.182711e+001 9.040000e+001 5.500000e+000
      vertex   2.212711e+001 9.270000e+001 5.500000e+000
    endloop
  endfacet
  facet normal -2.046993e-006 0.000000e+000 1.000000e+000
    outer loop
      vertex   2.212711e+001 9.270000e+001 5.500000e+000
      vertex   2.182711e+001 9.040000e+001 5.500000e+000
      vertex   2.182711e+001 7.960000e+001 5.500000e+000
    endloop
  endfacet
  facet normal -4.723830e-007 4.180381e-008 1.000000e+000
    outer loop
      vertex   2.212711e+001 6.830000e+001 5.500000e+000
      vertex   2.182711e+001 7.960000e+001 5.500000e+000
      vertex   2.082711e+001 6.830000e+001 5.500000e+000
    endloop
  endfacet
  facet normal -2.046993e-006 0.000000e+000 1.000000e+000
    outer loop
      vertex   2.212711e+001 6.830000e+001 5.500000e+000
      vertex   2.212711e+001 9.270000e+001 5.500000e+000
      vertex   2.182711e+001 7.960000e+001 5.500000e+000
    endloop
  endfacet
  facet normal 0.000000e+000 0.000000e+000 1.000000e+000
    outer loop
      vertex   2.182711e+001 7.960000e+001 5.500000e+000
      vertex   1.842711e+001 7.960000e+001 5.500000e+000
      vertex   2.082711e+001 6.830000e+001 5.500000e+000
    endloop
  endfacet
  facet normal -0.000000e+000 0.000000e+000 1.000000e+000
    outer loop
      vertex   2.182711e+001 6.040000e+001 5.500000e+000
      vertex   2.182711e+001 4.960000e+001 5.500000e+000
      vertex   2.542711e+001 6.270000e+001 5.500000e+000
    endloop
  endfacet
  facet normal -1.200241e-015 0.000000e+000 1.000000e+000
    outer loop
      vertex   2.542711e+001 6.830000e+001 5.500000e+000
      vertex   2.542711e+001 6.270000e+001 5.500000e+000
      vertex   2.912711e+001 6.500000e+001 5.500000e+000
    endloop
  endfacet
  facet normal 1.000000e+000 -0.000000e+000 0.000000e+000
    outer loop
      vertex   2.082711e+001 6.270000e+001 5.500000e+000
      vertex   2.082711e+001 6.270000e+001 3.500000e+000
      vertex   2.082711e+001 6.830000e+001 5.500000e+000
    endloop
  endfacet
  facet normal 1.000000e+000 -0.000000e+000 0.000000e+000
    outer loop
      vertex   2.082711e+001 6.830000e+001 5.500000e+000
      vertex   2.082711e+001 6.270000e+001 3.500000e+000
      vertex   2.082711e+001 6.830000e+001 3.500000e+000
    endloop
  endfacet
  facet normal 1.093143e-014 -1.000000e+000 0.000000e+000
    outer loop
      vertex   2.082711e+001 6.830000e+001 5.500000e+000
      vertex   2.082711e+001 6.830000e+001 3.500000e+000
      vertex   2.212711e+001 6.830000e+001 5.500000e+000
    endloop
  endfacet
  facet normal 0.000000e+000 -1.000000e+000 7.105425e-015
    outer loop
      vertex   2.212711e+001 6.830000e+001 5.500000e+000
      vertex   2.082711e+001 6.830000e+001 3.500000e+000
      vertex   2.542711e+001 6.830000e+001 3.500000e+000
    endloop
  endfacet
  facet normal -4.736952e-014 -1.000000e+000 0.000000e+000
    outer loop
      vertex   2.512711e+001 6.830000e+001 5.500000e+000
      vertex   2.542711e+001 6.830000e+001 3.500000e+000
      vertex   2.542711e+001 6.830000e+001 5.500000e+000
    endloop
  endfacet
  facet normal 1.051814e-029 -1.000000e+000 7.105425e-015
    outer loop
      vertex   2.512711e+001 6.830000e+001 5.500000e+000
      vertex   2.212711e+001 6.830000e+001 5.500000e+000
      vertex   2.542711e+001 6.830000e+001 3.500000e+000
    endloop
  endfacet
  facet normal -0.000000e+000 -1.000000e+000 -0.000000e+000
    outer loop
      vertex   2.512711e+001 6.830000e+001 5.500000e+000
      vertex   2.212711e+001 6.830000e+001 9.500000e+000
      vertex   2.212711e+001 6.830000e+001 5.500000e+000
    endloop
  endfacet
  facet normal 0.000000e+000 -1.000000e+000 0.000000e+000
    outer loop
      vertex   2.512711e+001 6.830000e+001 5.500000e+000
      vertex   2.512711e+001 6.830000e+001 9.500000e+000
      vertex   2.212711e+001 6.830000e+001 9.500000e+000
    endloop
  endfacet
  facet normal -1.000000e+000 -0.000000e+000 -0.000000e+000
    outer loop
      vertex   2.542711e+001 6.830000e+001 5.500000e+000
      vertex   2.542711e+001 6.830000e+001 3.500000e+000
      vertex   2.542711e+001 6.270000e+001 5.500000e+000
    endloop
  endfacet
  facet normal -1.000000e+000 -0.000000e+000 -0.000000e+000
    outer loop
      vertex   2.542711e+001 6.270000e+001 5.500000e+000
      vertex   2.542711e+001 6.830000e+001 3.500000e+000
      vertex   2.542711e+001 6.270000e+001 3.500000e+000
    endloop
  endfacet
  facet normal -0.000000e+000 1.000000e+000 0.000000e+000
    outer loop
      vertex   2.082711e+001 6.270000e+001 5.500000e+000
      vertex   2.542711e+001 6.270000e+001 5.500000e+000
      vertex   2.082711e+001 6.270000e+001 3.500000e+000
    endloop
  endfacet
  facet normal -0.000000e+000 1.000000e+000 0.000000e+000
    outer loop
      vertex   2.082711e+001 6.270000e+001 3.500000e+000
      vertex   2.542711e+001 6.270000e+001 5.500000e+000
      vertex   2.542711e+001 6.270000e+001 3.500000e+000
    endloop
  endfacet
  facet normal 1.000000e+000 -0.000000e+000 0.000000e+000
    outer loop
      vertex   2.082711e+001 9.270000e+001 5.500000e+000
      vertex   2.082711e+001 9.270000e+001 3.500000e+000
      vertex   2.082711e+001 9.830000e+001 5.500000e+000
    endloop
  endfacet
  facet normal 1.000000e+000 -0.000000e+000 0.000000e+000
    outer loop
      vertex   2.082711e+001 9.830000e+001 5.500000e+000
      vertex   2.082711e+001 9.270000e+001 3.500000e+000
      vertex   2.082711e+001 9.830000e+001 3.500000e+000
    endloop
  endfacet
  facet normal -0.000000e+000 -1.000000e+000 -0.000000e+000
    outer loop
      vertex   2.542711e+001 9.830000e+001 5.500000e+000
      vertex   2.082711e+001 9.830000e+001 5.500000e+000
      vertex   2.542711e+001 9.830000e+001 3.500000e+000
    endloop
  endfacet
  facet normal -0.000000e+000 -1.000000e+000 -0.000000e+000
    outer loop
      vertex   2.542711e+001 9.830000e+001 3.500000e+000
      vertex   2.082711e+001 9.830000e+001 5.500000e+000
      vertex   2.082711e+001 9.830000e+001 3.500000e+000
    endloop
  endfacet
  facet normal -1.000000e+000 -0.000000e+000 -0.000000e+000
    outer loop
      vertex   2.542711e+001 9.830000e+001 5.500000e+000
      vertex   2.542711e+001 9.830000e+001 3.500000e+000
      vertex   2.542711e+001 9.270000e+001 5.500000e+000
    endloop
  endfacet
  facet normal -1.000000e+000 -0.000000e+000 -0.000000e+000
    outer loop
      vertex   2.542711e+001 9.270000e+001 5.500000e+000
      vertex   2.542711e+001 9.830000e+001 3.500000e+000
      vertex   2.542711e+001 9.270000e+001 3.500000e+000
    endloop
  endfacet
  facet normal 0.000000e+000 1.000000e+000 0.000000e+000
    outer loop
      vertex   2.542711e+001 9.270000e+001 5.500000e+000
      vertex   2.542711e+001 9.270000e+001 3.500000e+000
      vertex   2.512711e+001 9.270000e+001 5.500000e+000
    endloop
  endfacet
  facet normal 0.000000e+000 1.000000e+000 0.000000e+000
    outer loop
      vertex   2.512711e+001 9.270000e+001 5.500000e+000
      vertex   2.542711e+001 9.270000e+001 3.500000e+000
      vertex   2.212711e+001 9.270000e+001 5.500000e+000
    endloop
  endfacet
  facet normal 0.000000e+000 1.000000e+000 0.000000e+000
    outer loop
      vertex   2.512711e+001 9.270000e+001 9.500000e+000
      vertex   2.212711e+001 9.270000e+001 5.500000e+000
      vertex   2.212711e+001 9.270000e+001 9.500000e+000
    endloop
  endfacet
  facet normal 0.000000e+000 1.000000e+000 0.000000e+000
    outer loop
      vertex   2.512711e+001 9.270000e+001 9.500000e+000
      vertex   2.512711e+001 9.270000e+001 5.500000e+000
      vertex   2.212711e+001 9.270000e+001 5.500000e+000
    endloop
  endfacet
  facet normal 0.000000e+000 1.000000e+000 -0.000000e+000
    outer loop
      vertex   2.542711e+001 9.270000e+001 3.500000e+000
      vertex   2.082711e+001 9.270000e+001 3.500000e+000
      vertex   2.212711e+001 9.270000e+001 5.500000e+000
    endloop
  endfacet
  facet normal 0.000000e+000 1.000000e+000 -0.000000e+000
    outer loop
      vertex   2.212711e+001 9.270000e+001 5.500000e+000
      vertex   2.082711e+001 9.270000e+001 3.500000e+000
      vertex   2.082711e+001 9.270000e+001 5.500000e+000
    endloop
  endfacet
  facet normal 1.000000e+000 -0.000000e+000 0.000000e+000
    outer loop
      vertex   1.842711e+001 4.960000e+001 5.500000e+000
      vertex   1.842711e+001 4.960000e+001 3.500000e+000
      vertex   1.842711e+001 6.040000e+001 5.500000e+000
    endloop
  endfacet
  facet normal 1.000000e+000 -0.000000e+000 0.000000e+000
    outer loop
      vertex   1.842711e+001 6.040000e+001 5.500000e+000
      vertex   1.842711e+001 4.960000e+001 3.500000e+000
      vertex   1.842711e+001 6.040000e+001 3.500000e+000
    endloop
  endfacet
  facet normal -0.000000e+000 -1.000000e+000 -0.000000e+000
    outer loop
      vertex   2.182711e+001 6.040000e+001 5.500000e+000
      vertex   1.842711e+001 6.040000e+001 5.500000e+000
      vertex   2.182711e+001 6.040000e+001 3.500000e+000
    endloop
  endfacet
  facet normal -0.000000e+000 -1.000000e+000 -0.000000e+000
    outer loop
      vertex   2.182711e+001 6.040000e+001 3.500000e+000
      vertex   1.842711e+001 6.040000e+001 5.500000e+000
      vertex   1.842711e+001 6.040000e+001 3.500000e+000
    endloop
  endfacet
  facet normal -1.000000e+000 -0.000000e+000 -0.000000e+000
    outer loop
      vertex   2.182711e+001 6.040000e+001 5.500000e+000
      vertex   2.182711e+001 6.040000e+001 3.500000e+000
      vertex   2.182711e+001 4.960000e+001 5.500000e+000
    endloop
  endfacet
  facet normal -1.000000e+000 -0.000000e+000 -0.000000e+000
    outer loop
      vertex   2.182711e+001 4.960000e+001 5.500000e+000
      vertex   2.182711e+001 6.040000e+001 3.500000e+000
      vertex   2.182711e+001 4.960000e+001 3.500000e+000
    endloop
  endfacet
  facet normal -0.000000e+000 1.000000e+000 0.000000e+000
    outer loop
      vertex   1.842711e+001 4.960000e+001 5.500000e+000
      vertex   2.182711e+001 4.960000e+001 5.500000e+000
      vertex   1.842711e+001 4.960000e+001 3.500000e+000
    endloop
  endfacet
  facet normal -0.000000e+000 1.000000e+000 0.000000e+000
    outer loop
      vertex   1.842711e+001 4.960000e+001 3.500000e+000
      vertex   2.182711e+001 4.960000e+001 5.500000e+000
      vertex   2.182711e+001 4.960000e+001 3.500000e+000
    endloop
  endfacet
  facet normal 1.000000e+000 -0.000000e+000 0.000000e+000
    outer loop
      vertex   1.842711e+001 7.960000e+001 5.500000e+000
      vertex   1.842711e+001 7.960000e+001 3.500000e+000
      vertex   1.842711e+001 9.040000e+001 5.500000e+000
    endloop
  endfacet
  facet normal 1.000000e+000 -0.000000e+000 0.000000e+000
    outer loop
      vertex   1.842711e+001 9.040000e+001 5.500000e+000
      vertex   1.842711e+001 7.960000e+001 3.500000e+000
      vertex   1.842711e+001 9.040000e+001 3.500000e+000
    endloop
  endfacet
  facet normal -0.000000e+000 -1.000000e+000 -0.000000e+000
    outer loop
      vertex   2.182711e+001 9.040000e+001 5.500000e+000
      vertex   1.842711e+001 9.040000e+001 5.500000e+000
      vertex   2.182711e+001 9.040000e+001 3.500000e+000
    endloop
  endfacet
  facet normal -0.000000e+000 -1.000000e+000 -0.000000e+000
    outer loop
      vertex   2.182711e+001 9.040000e+001 3.500000e+000
      vertex   1.842711e+001 9.040000e+001 5.500000e+000
      vertex   1.842711e+001 9.040000e+001 3.500000e+000
    endloop
  endfacet
  facet normal -1.000000e+000 -0.000000e+000 -0.000000e+000
    outer loop
      vertex   2.182711e+001 9.040000e+001 5.500000e+000
      vertex   2.182711e+001 9.040000e+001 3.500000e+000
      vertex   2.182711e+001 7.960000e+001 5.500000e+000
    endloop
  endfacet
  facet normal -1.000000e+000 -0.000000e+000 -0.000000e+000
    outer loop
      vertex   2.182711e+001 7.960000e+001 5.500000e+000
      vertex   2.182711e+001 9.040000e+001 3.500000e+000
      vertex   2.182711e+001 7.960000e+001 3.500000e+000
    endloop
  endfacet
  facet normal -0.000000e+000 1.000000e+000 0.000000e+000
    outer loop
      vertex   1.842711e+001 7.960000e+001 5.500000e+000
      vertex   2.182711e+001 7.960000e+001 5.500000e+000
      vertex   1.842711e+001 7.960000e+001 3.500000e+000
    endloop
  endfacet
  facet normal -0.000000e+000 1.000000e+000 0.000000e+000
    outer loop
      vertex   1.842711e+001 7.960000e+001 3.500000e+000
      vertex   2.182711e+001 7.960000e+001 5.500000e+000
      vertex   2.182711e+001 7.960000e+001 3.500000e+000
    endloop
  endfacet
  facet normal 0.000000e+000 1.000000e+000 -0.000000e+000
    outer loop
      vertex   2.912711e+001 1.050000e+002 3.500000e+000
      vertex   1.612711e+001 1.050000e+002 3.500000e+000
      vertex   2.912711e+001 1.050000e+002 5.500000e+000
    endloop
  endfacet
  facet normal 0.000000e+000 1.000000e+000 0.000000e+000
    outer loop
      vertex   2.912711e+001 1.050000e+002 5.500000e+000
      vertex   1.612711e+001 1.050000e+002 3.500000e+000
      vertex   1.612711e+001 1.050000e+002 5.500000e+000
    endloop
  endfacet
  facet normal 1.000000e+000 0.000000e+000 1.776357e-015
    outer loop
      vertex   2.912711e+001 2.500000e+001 5.500000e+000
      vertex   2.912711e+001 2.500000e+001 3.500000e+000
      vertex   2.912711e+001 6.500000e+001 5.500000e+000
    endloop
  endfacet
  facet normal 1.000000e+000 -0.000000e+000 1.776357e-015
    outer loop
      vertex   2.912711e+001 6.500000e+001 5.500000e+000
      vertex   2.912711e+001 2.500000e+001 3.500000e+000
      vertex   2.912711e+001 6.500000e+001 3.500000e+000
    endloop
  endfacet
  facet normal 1.000000e+000 -0.000000e+000 1.776357e-015
    outer loop
      vertex   2.912711e+001 1.050000e+002 5.500000e+000
      vertex   2.912711e+001 6.500000e+001 3.500000e+000
      vertex   2.912711e+001 1.050000e+002 3.500000e+000
    endloop
  endfacet
  facet normal 1.000000e+000 0.000000e+000 1.776357e-015
    outer loop
      vertex   2.912711e+001 1.050000e+002 5.500000e+000
      vertex   2.912711e+001 6.500000e+001 5.500000e+000
      vertex   2.912711e+001 6.500000e+001 3.500000e+000
    endloop
  endfacet
  facet normal -1.000000e+000 0.000000e+000 -1.776357e-015
    outer loop
      vertex   1.612711e+001 1.050000e+002 5.500000e+000
      vertex   1.612711e+001 1.050000e+002 3.500000e+000
      vertex   1.612711e+001 6.500000e+001 5.500000e+000
    endloop
  endfacet
  facet normal -1.000000e+000 -0.000000e+000 -1.776357e-015
    outer loop
      vertex   1.612711e+001 6.500000e+001 5.500000e+000
      vertex   1.612711e+001 1.050000e+002 3.500000e+000
      vertex   1.612711e+001 6.500000e+001 3.500000e+000
    endloop
  endfacet
  facet normal -1.000000e+000 -0.000000e+000 -1.776357e-015
    outer loop
      vertex   1.612711e+001 2.500000e+001 5.500000e+000
      vertex   1.612711e+001 6.500000e+001 3.500000e+000
      vertex   1.612711e+001 2.500000e+001 3.500000e+000
    endloop
  endfacet
  facet normal -1.000000e+000 0.000000e+000 -1.776357e-015
    outer loop
      vertex   1.612711e+001 2.500000e+001 5.500000e+000
      vertex   1.612711e+001 6.500000e+001 5.500000e+000
      vertex   1.612711e+001 6.500000e+001 3.500000e+000
    endloop
  endfacet
  facet normal 0.000000e+000 -1.000000e+000 -0.000000e+000
    outer loop
      vertex   2.912711e+001 2.500000e+001 5.500000e+000
      vertex   1.612711e+001 2.500000e+001 5.500000e+000
      vertex   2.912711e+001 2.500000e+001 3.500000e+000
    endloop
  endfacet
  facet normal -0.000000e+000 -1.000000e+000 -0.000000e+000
    outer loop
      vertex   2.912711e+001 2.500000e+001 3.500000e+000
      vertex   1.612711e+001 2.500000e+001 5.500000e+000
      vertex   1.612711e+001 2.500000e+001 3.500000e+000
    endloop
  endfacet
  facet normal 1.200241e-015 0.000000e+000 -1.000000e+000
    outer loop
      vertex   2.542711e+001 6.830000e+001 3.500000e+000
      vertex   2.912711e+001 6.500000e+001 3.500000e+000
      vertex   2.542711e+001 6.270000e+001 3.500000e+000
    endloop
  endfacet
  facet normal 1.200241e-015 0.000000e+000 -1.000000e+000
    outer loop
      vertex   2.542711e+001 6.830000e+001 3.500000e+000
      vertex   2.542711e+001 9.270000e+001 3.500000e+000
      vertex   2.912711e+001 6.500000e+001 3.500000e+000
    endloop
  endfacet
  facet normal 0.000000e+000 0.000000e+000 -1.000000e+000
    outer loop
      vertex   2.542711e+001 6.830000e+001 3.500000e+000
      vertex   2.182711e+001 7.960000e+001 3.500000e+000
      vertex   2.542711e+001 9.270000e+001 3.500000e+000
    endloop
  endfacet
  facet normal 0.000000e+000 0.000000e+000 -1.000000e+000
    outer loop
      vertex   2.542711e+001 6.830000e+001 3.500000e+000
      vertex   2.082711e+001 6.830000e+001 3.500000e+000
      vertex   2.182711e+001 7.960000e+001 3.500000e+000
    endloop
  endfacet
  facet normal -0.000000e+000 0.000000e+000 -1.000000e+000
    outer loop
      vertex   2.182711e+001 7.960000e+001 3.500000e+000
      vertex   2.082711e+001 6.830000e+001 3.500000e+000
      vertex   1.842711e+001 7.960000e+001 3.500000e+000
    endloop
  endfacet
  facet normal 0.000000e+000 -0.000000e+000 -1.000000e+000
    outer loop
      vertex   1.842711e+001 7.960000e+001 3.500000e+000
      vertex   2.082711e+001 6.830000e+001 3.500000e+000
      vertex   1.612711e+001 6.500000e+001 3.500000e+000
    endloop
  endfacet
  facet normal -0.000000e+000 0.000000e+000 -1.000000e+000
    outer loop
      vertex   1.842711e+001 9.040000e+001 3.500000e+000
      vertex   1.612711e+001 6.500000e+001 3.500000e+000
      vertex   1.612711e+001 1.050000e+002 3.500000e+000
    endloop
  endfacet
  facet normal 3.416071e-016 2.396348e-016 -1.000000e+000
    outer loop
      vertex   2.082711e+001 9.830000e+001 3.500000e+000
      vertex   1.612711e+001 1.050000e+002 3.500000e+000
      vertex   2.912711e+001 1.050000e+002 3.500000e+000
    endloop
  endfacet
  facet normal 1.200241e-015 0.000000e+000 -1.000000e+000
    outer loop
      vertex   2.542711e+001 9.830000e+001 3.500000e+000
      vertex   2.912711e+001 1.050000e+002 3.500000e+000
      vertex   2.542711e+001 9.270000e+001 3.500000e+000
    endloop
  endfacet
  facet normal 0.000000e+000 6.628197e-016 -1.000000e+000
    outer loop
      vertex   2.542711e+001 9.830000e+001 3.500000e+000
      vertex   2.082711e+001 9.830000e+001 3.500000e+000
      vertex   2.912711e+001 1.050000e+002 3.500000e+000
    endloop
  endfacet
  facet normal 0.000000e+000 -0.000000e+000 -1.000000e+000
    outer loop
      vertex   1.612711e+001 6.500000e+001 3.500000e+000
      vertex   2.082711e+001 6.830000e+001 3.500000e+000
      vertex   1.842711e+001 6.040000e+001 3.500000e+000
    endloop
  endfacet
  facet normal 0.000000e+000 0.000000e+000 -1.000000e+000
    outer loop
      vertex   1.842711e+001 4.960000e+001 3.500000e+000
      vertex   1.612711e+001 6.500000e+001 3.500000e+000
      vertex   1.842711e+001 6.040000e+001 3.500000e+000
    endloop
  endfacet
  facet normal -0.000000e+000 0.000000e+000 -1.000000e+000
    outer loop
      vertex   1.842711e+001 4.960000e+001 3.500000e+000
      vertex   1.612711e+001 2.500000e+001 3.500000e+000
      vertex   1.612711e+001 6.500000e+001 3.500000e+000
    endloop
  endfacet
  facet normal 0.000000e+000 -0.000000e+000 -1.000000e+000
    outer loop
      vertex   1.842711e+001 4.960000e+001 3.500000e+000
      vertex   2.182711e+001 4.960000e+001 3.500000e+000
      vertex   1.612711e+001 2.500000e+001 3.500000e+000
    endloop
  endfacet
  facet normal 3.416071e-016 -7.915286e-017 -1.000000e+000
    outer loop
      vertex   1.612711e+001 2.500000e+001 3.500000e+000
      vertex   2.182711e+001 4.960000e+001 3.500000e+000
      vertex   2.912711e+001 2.500000e+001 3.500000e+000
    endloop
  endfacet
  facet normal 3.158461e-016 -8.679739e-017 -1.000000e+000
    outer loop
      vertex   2.912711e+001 2.500000e+001 3.500000e+000
      vertex   2.182711e+001 4.960000e+001 3.500000e+000
      vertex   2.542711e+001 6.270000e+001 3.500000e+000
    endloop
  endfacet
  facet normal 1.200241e-015 0.000000e+000 -1.000000e+000
    outer loop
      vertex   2.912711e+001 6.500000e+001 3.500000e+000
      vertex   2.912711e+001 2.500000e+001 3.500000e+000
      vertex   2.542711e+001 6.270000e+001 3.500000e+000
    endloop
  endfacet
  facet normal -0.000000e+000 0.000000e+000 -1.000000e+000
    outer loop
      vertex   2.542711e+001 6.270000e+001 3.500000e+000
      vertex   2.182711e+001 6.040000e+001 3.500000e+000
      vertex   2.082711e+001 6.270000e+001 3.500000e+000
    endloop
  endfacet
  facet normal -0.000000e+000 0.000000e+000 -1.000000e+000
    outer loop
      vertex   2.542711e+001 6.270000e+001 3.500000e+000
      vertex   2.182711e+001 4.960000e+001 3.500000e+000
      vertex   2.182711e+001 6.040000e+001 3.500000e+000
    endloop
  endfacet
  facet normal 1.200241e-015 0.000000e+000 -1.000000e+000
    outer loop
      vertex   2.912711e+001 6.500000e+001 3.500000e+000
      vertex   2.542711e+001 9.270000e+001 3.500000e+000
      vertex   2.912711e+001 1.050000e+002 3.500000e+000
    endloop
  endfacet
  facet normal 0.000000e+000 -0.000000e+000 -1.000000e+000
    outer loop
      vertex   1.612711e+001 1.050000e+002 3.500000e+000
      vertex   2.082711e+001 9.830000e+001 3.500000e+000
      vertex   1.842711e+001 9.040000e+001 3.500000e+000
    endloop
  endfacet
  facet normal 0.000000e+000 0.000000e+000 -1.000000e+000
    outer loop
      vertex   1.842711e+001 9.040000e+001 3.500000e+000
      vertex   2.082711e+001 9.830000e+001 3.500000e+000
      vertex   2.082711e+001 9.270000e+001 3.500000e+000
    endloop
  endfacet
  facet normal 0.000000e+000 0.000000e+000 -1.000000e+000
    outer loop
      vertex   2.182711e+001 9.040000e+001 3.500000e+000
      vertex   2.082711e+001 9.270000e+001 3.500000e+000
      vertex   2.542711e+001 9.270000e+001 3.500000e+000
    endloop
  endfacet
  facet normal 0.000000e+000 0.000000e+000 -1.000000e+000
    outer loop
      vertex   2.182711e+001 7.960000e+001 3.500000e+000
      vertex   2.182711e+001 9.040000e+001 3.500000e+000
      vertex   2.542711e+001 9.270000e+001 3.500000e+000
    endloop
  endfacet
  facet normal 0.000000e+000 0.000000e+000 -1.000000e+000
    outer loop
      vertex   1.842711e+001 9.040000e+001 3.500000e+000
      vertex   2.082711e+001 9.270000e+001 3.500000e+000
      vertex   2.182711e+001 9.040000e+001 3.500000e+000
    endloop
  endfacet
  facet normal 0.000000e+000 0.000000e+000 -1.000000e+000
    outer loop
      vertex   2.182711e+001 6.040000e+001 3.500000e+000
      vertex   1.842711e+001 6.040000e+001 3.500000e+000
      vertex   2.082711e+001 6.270000e+001 3.500000e+000
    endloop
  endfacet
  facet normal -0.000000e+000 0.000000e+000 -1.000000e+000
    outer loop
      vertex   2.082711e+001 6.270000e+001 3.500000e+000
      vertex   1.842711e+001 6.040000e+001 3.500000e+000
      vertex   2.082711e+001 6.830000e+001 3.500000e+000
    endloop
  endfacet
  facet normal 0.000000e+000 -0.000000e+000 -1.000000e+000
    outer loop
      vertex   1.842711e+001 9.040000e+001 3.500000e+000
      vertex   1.842711e+001 7.960000e+001 3.500000e+000
      vertex   1.612711e+001 6.500000e+001 3.500000e+000
    endloop
  endfacet
endsolid
