solid ascii
  facet normal 1.000000e+000 -0.000000e+000 0.000000e+000
    outer loop
      vertex   -7.500000e+000 6.750000e+001 2.000000e+001
      vertex   -7.500000e+000 6.750000e+001 0.000000e+000
      vertex   -7.500000e+000 9.250000e+001 2.000000e+001
    endloop
  endfacet
  facet normal 1.000000e+000 -0.000000e+000 0.000000e+000
    outer loop
      vertex   -7.500000e+000 9.250000e+001 2.000000e+001
      vertex   -7.500000e+000 6.750000e+001 0.000000e+000
      vertex   -7.500000e+000 9.250000e+001 0.000000e+000
    endloop
  endfacet
  facet normal 0.000000e+000 1.000000e+000 0.000000e+000
    outer loop
      vertex   -7.500000e+000 9.250000e+001 2.000000e+001
      vertex   -7.500000e+000 9.250000e+001 0.000000e+000
      vertex   -4.250000e+001 9.250000e+001 2.000000e+001
    endloop
  endfacet
  facet normal 0.000000e+000 1.000000e+000 0.000000e+000
    outer loop
      vertex   -4.250000e+001 9.250000e+001 2.000000e+001
      vertex   -7.500000e+000 9.250000e+001 0.000000e+000
      vertex   -4.250000e+001 9.250000e+001 0.000000e+000
    endloop
  endfacet
  facet normal -1.000000e+000 -0.000000e+000 -0.000000e+000
    outer loop
      vertex   -4.250000e+001 9.250000e+001 2.000000e+001
      vertex   -4.250000e+001 9.250000e+001 0.000000e+000
      vertex   -4.250000e+001 6.750000e+001 2.000000e+001
    endloop
  endfacet
  facet normal -1.000000e+000 -0.000000e+000 -0.000000e+000
    outer loop
      vertex   -4.250000e+001 6.750000e+001 2.000000e+001
      vertex   -4.250000e+001 9.250000e+001 0.000000e+000
      vertex   -4.250000e+001 6.750000e+001 0.000000e+000
    endloop
  endfacet
  facet normal 0.000000e+000 -1.000000e+000 0.000000e+000
    outer loop
      vertex   -4.250000e+001 6.750000e+001 2.000000e+001
      vertex   -4.250000e+001 6.750000e+001 0.000000e+000
      vertex   -7.500000e+000 6.750000e+001 2.000000e+001
    endloop
  endfacet
  facet normal 0.000000e+000 -1.000000e+000 -0.000000e+000
    outer loop
      vertex   -7.500000e+000 6.750000e+001 2.000000e+001
      vertex   -4.250000e+001 6.750000e+001 0.000000e+000
      vertex   -7.500000e+000 6.750000e+001 0.000000e+000
    endloop
  endfacet
  facet normal 0.000000e+000 0.000000e+000 1.000000e+000
    outer loop
      vertex   -7.500000e+000 9.250000e+001 2.000000e+001
      vertex   -1.000000e+001 9.000000e+001 2.000000e+001
      vertex   -7.500000e+000 6.750000e+001 2.000000e+001
    endloop
  endfacet
  facet normal 0.000000e+000 0.000000e+000 1.000000e+000
    outer loop
      vertex   -7.500000e+000 9.250000e+001 2.000000e+001
      vertex   -4.250000e+001 9.250000e+001 2.000000e+001
      vertex   -1.000000e+001 9.000000e+001 2.000000e+001
    endloop
  endfacet
  facet normal 0.000000e+000 0.000000e+000 1.000000e+000
    outer loop
      vertex   -1.000000e+001 9.000000e+001 2.000000e+001
      vertex   -4.250000e+001 9.250000e+001 2.000000e+001
      vertex   -4.000000e+001 9.000000e+001 2.000000e+001
    endloop
  endfacet
  facet normal 0.000000e+000 0.000000e+000 1.000000e+000
    outer loop
      vertex   -4.000000e+001 9.000000e+001 2.000000e+001
      vertex   -4.250000e+001 9.250000e+001 2.000000e+001
      vertex   -4.250000e+001 6.750000e+001 2.000000e+001
    endloop
  endfacet
  facet normal -0.000000e+000 0.000000e+000 1.000000e+000
    outer loop
      vertex   -4.000000e+001 7.000000e+001 2.000000e+001
      vertex   -4.250000e+001 6.750000e+001 2.000000e+001
      vertex   -7.500000e+000 6.750000e+001 2.000000e+001
    endloop
  endfacet
  facet normal -0.000000e+000 -0.000000e+000 1.000000e+000
    outer loop
      vertex   -1.000000e+001 7.000000e+001 2.000000e+001
      vertex   -7.500000e+000 6.750000e+001 2.000000e+001
      vertex   -1.000000e+001 9.000000e+001 2.000000e+001
    endloop
  endfacet
  facet normal 0.000000e+000 0.000000e+000 1.000000e+000
    outer loop
      vertex   -1.000000e+001 7.000000e+001 2.000000e+001
      vertex   -4.000000e+001 7.000000e+001 2.000000e+001
      vertex   -7.500000e+000 6.750000e+001 2.000000e+001
    endloop
  endfacet
  facet normal -0.000000e+000 0.000000e+000 1.000000e+000
    outer loop
      vertex   -4.000000e+001 9.000000e+001 2.000000e+001
      vertex   -4.250000e+001 6.750000e+001 2.000000e+001
      vertex   -4.000000e+001 7.000000e+001 2.000000e+001
    endloop
  endfacet
  facet normal -0.000000e+000 1.000000e+000 0.000000e+000
    outer loop
      vertex   -4.000000e+001 9.000000e+001 2.000000e+001
      vertex   -4.000000e+001 9.000000e+001 4.500000e+001
      vertex   -1.000000e+001 9.000000e+001 2.000000e+001
    endloop
  endfacet
  facet normal 0.000000e+000 1.000000e+000 -0.000000e+000
    outer loop
      vertex   -1.000000e+001 9.000000e+001 2.000000e+001
      vertex   -4.000000e+001 9.000000e+001 4.500000e+001
      vertex   -1.000000e+001 9.000000e+001 4.500000e+001
    endloop
  endfacet
  facet normal -1.000000e+000 0.000000e+000 0.000000e+000
    outer loop
      vertex   -4.000000e+001 7.000000e+001 2.000000e+001
      vertex   -4.000000e+001 7.000000e+001 4.500000e+001
      vertex   -4.000000e+001 9.000000e+001 2.000000e+001
    endloop
  endfacet
  facet normal -1.000000e+000 0.000000e+000 0.000000e+000
    outer loop
      vertex   -4.000000e+001 9.000000e+001 2.000000e+001
      vertex   -4.000000e+001 7.000000e+001 4.500000e+001
      vertex   -4.000000e+001 9.000000e+001 4.500000e+001
    endloop
  endfacet
  facet normal 0.000000e+000 0.000000e+000 1.000000e+000
    outer loop
      vertex   -1.425000e+001 8.575000e+001 5.000000e+000
      vertex   -3.575000e+001 8.575000e+001 5.000000e+000
      vertex   -1.425000e+001 7.425000e+001 5.000000e+000
    endloop
  endfacet
  facet normal 0.000000e+000 0.000000e+000 1.000000e+000
    outer loop
      vertex   -1.425000e+001 7.425000e+001 5.000000e+000
      vertex   -3.575000e+001 8.575000e+001 5.000000e+000
      vertex   -3.575000e+001 7.425000e+001 5.000000e+000
    endloop
  endfacet
  facet normal 0.000000e+000 -1.000000e+000 0.000000e+000
    outer loop
      vertex   -3.575000e+001 8.575000e+001 4.500000e+001
      vertex   -3.575000e+001 8.575000e+001 5.000000e+000
      vertex   -1.425000e+001 8.575000e+001 4.500000e+001
    endloop
  endfacet
  facet normal 0.000000e+000 -1.000000e+000 -0.000000e+000
    outer loop
      vertex   -1.425000e+001 8.575000e+001 4.500000e+001
      vertex   -3.575000e+001 8.575000e+001 5.000000e+000
      vertex   -1.425000e+001 8.575000e+001 5.000000e+000
    endloop
  endfacet
  facet normal 1.000000e+000 -0.000000e+000 0.000000e+000
    outer loop
      vertex   -3.575000e+001 7.425000e+001 4.500000e+001
      vertex   -3.575000e+001 7.425000e+001 5.000000e+000
      vertex   -3.575000e+001 8.575000e+001 4.500000e+001
    endloop
  endfacet
  facet normal 1.000000e+000 -0.000000e+000 0.000000e+000
    outer loop
      vertex   -3.575000e+001 8.575000e+001 4.500000e+001
      vertex   -3.575000e+001 7.425000e+001 5.000000e+000
      vertex   -3.575000e+001 8.575000e+001 5.000000e+000
    endloop
  endfacet
  facet normal 0.000000e+000 1.000000e+000 0.000000e+000
    outer loop
      vertex   -1.425000e+001 7.425000e+001 4.500000e+001
      vertex   -1.425000e+001 7.425000e+001 5.000000e+000
      vertex   -3.575000e+001 7.425000e+001 4.500000e+001
    endloop
  endfacet
  facet normal 0.000000e+000 1.000000e+000 0.000000e+000
    outer loop
      vertex   -3.575000e+001 7.425000e+001 4.500000e+001
      vertex   -1.425000e+001 7.425000e+001 5.000000e+000
      vertex   -3.575000e+001 7.425000e+001 5.000000e+000
    endloop
  endfacet
  facet normal -1.000000e+000 -0.000000e+000 -0.000000e+000
    outer loop
      vertex   -1.425000e+001 8.575000e+001 4.500000e+001
      vertex   -1.425000e+001 8.575000e+001 5.000000e+000
      vertex   -1.425000e+001 7.425000e+001 4.500000e+001
    endloop
  endfacet
  facet normal -1.000000e+000 -0.000000e+000 -0.000000e+000
    outer loop
      vertex   -1.425000e+001 7.425000e+001 4.500000e+001
      vertex   -1.425000e+001 8.575000e+001 5.000000e+000
      vertex   -1.425000e+001 7.425000e+001 5.000000e+000
    endloop
  endfacet
  facet normal 0.000000e+000 0.000000e+000 1.000000e+000
    outer loop
      vertex   -1.425000e+001 8.575000e+001 4.500000e+001
      vertex   -4.000000e+001 9.000000e+001 4.500000e+001
      vertex   -3.575000e+001 8.575000e+001 4.500000e+001
    endloop
  endfacet
  facet normal 0.000000e+000 -0.000000e+000 1.000000e+000
    outer loop
      vertex   -1.425000e+001 8.575000e+001 4.500000e+001
      vertex   -1.000000e+001 9.000000e+001 4.500000e+001
      vertex   -4.000000e+001 9.000000e+001 4.500000e+001
    endloop
  endfacet
  facet normal -0.000000e+000 0.000000e+000 1.000000e+000
    outer loop
      vertex   -1.425000e+001 8.575000e+001 4.500000e+001
      vertex   -1.000000e+001 7.000000e+001 4.500000e+001
      vertex   -1.000000e+001 9.000000e+001 4.500000e+001
    endloop
  endfacet
  facet normal 0.000000e+000 0.000000e+000 1.000000e+000
    outer loop
      vertex   -1.425000e+001 8.575000e+001 4.500000e+001
      vertex   -1.425000e+001 7.425000e+001 4.500000e+001
      vertex   -1.000000e+001 7.000000e+001 4.500000e+001
    endloop
  endfacet
  facet normal 0.000000e+000 0.000000e+000 1.000000e+000
    outer loop
      vertex   -1.000000e+001 7.000000e+001 4.500000e+001
      vertex   -1.425000e+001 7.425000e+001 4.500000e+001
      vertex   -3.575000e+001 7.425000e+001 4.500000e+001
    endloop
  endfacet
  facet normal 0.000000e+000 0.000000e+000 1.000000e+000
    outer loop
      vertex   -4.000000e+001 7.000000e+001 4.500000e+001
      vertex   -3.575000e+001 7.425000e+001 4.500000e+001
      vertex   -3.575000e+001 8.575000e+001 4.500000e+001
    endloop
  endfacet
  facet normal -0.000000e+000 0.000000e+000 1.000000e+000
    outer loop
      vertex   -4.000000e+001 9.000000e+001 4.500000e+001
      vertex   -4.000000e+001 7.000000e+001 4.500000e+001
      vertex   -3.575000e+001 8.575000e+001 4.500000e+001
    endloop
  endfacet
  facet normal 0.000000e+000 0.000000e+000 1.000000e+000
    outer loop
      vertex   -1.000000e+001 7.000000e+001 4.500000e+001
      vertex   -3.575000e+001 7.425000e+001 4.500000e+001
      vertex   -4.000000e+001 7.000000e+001 4.500000e+001
    endloop
  endfacet
  facet normal 0.000000e+000 0.000000e+000 -1.000000e+000
    outer loop
      vertex   -7.500000e+000 6.750000e+001 0.000000e+000
      vertex   -4.250000e+001 6.750000e+001 0.000000e+000
      vertex   -7.500000e+000 9.250000e+001 0.000000e+000
    endloop
  endfacet
  facet normal -0.000000e+000 0.000000e+000 -1.000000e+000
    outer loop
      vertex   -7.500000e+000 9.250000e+001 0.000000e+000
      vertex   -4.250000e+001 6.750000e+001 0.000000e+000
      vertex   -4.250000e+001 9.250000e+001 0.000000e+000
    endloop
  endfacet
  facet normal -0.000000e+000 -1.000000e+000 0.000000e+000
    outer loop
      vertex   -1.000000e+001 7.000000e+001 2.000000e+001
      vertex   -1.000000e+001 7.000000e+001 4.500000e+001
      vertex   -4.000000e+001 7.000000e+001 2.000000e+001
    endloop
  endfacet
  facet normal 0.000000e+000 -1.000000e+000 0.000000e+000
    outer loop
      vertex   -4.000000e+001 7.000000e+001 2.000000e+001
      vertex   -1.000000e+001 7.000000e+001 4.500000e+001
      vertex   -4.000000e+001 7.000000e+001 4.500000e+001
    endloop
  endfacet
  facet normal 1.000000e+000 0.000000e+000 -0.000000e+000
    outer loop
      vertex   -1.000000e+001 9.000000e+001 2.000000e+001
      vertex   -1.000000e+001 9.000000e+001 4.500000e+001
      vertex   -1.000000e+001 7.000000e+001 2.000000e+001
    endloop
  endfacet
  facet normal 1.000000e+000 0.000000e+000 -0.000000e+000
    outer loop
      vertex   -1.000000e+001 7.000000e+001 2.000000e+001
      vertex   -1.000000e+001 9.000000e+001 4.500000e+001
      vertex   -1.000000e+001 7.000000e+001 4.500000e+001
    endloop
  endfacet
endsolid
