solid ascii
  facet normal 1.000000e+000 -0.000000e+000 0.000000e+000
    outer loop
      vertex   5.750000e+001 1.027500e+002 9.500000e+000
      vertex   5.750000e+001 1.027500e+002 -4.440892e-015
      vertex   5.750000e+001 1.122500e+002 9.500000e+000
    endloop
  endfacet
  facet normal 1.000000e+000 -0.000000e+000 0.000000e+000
    outer loop
      vertex   5.750000e+001 1.122500e+002 9.500000e+000
      vertex   5.750000e+001 1.027500e+002 -4.440892e-015
      vertex   5.750000e+001 1.122500e+002 -4.440892e-015
    endloop
  endfacet
  facet normal -1.000000e+000 -0.000000e+000 -0.000000e+000
    outer loop
      vertex   -8.850000e+001 1.272500e+002 9.500000e+000
      vertex   -8.850000e+001 1.272500e+002 1.776357e-014
      vertex   -8.850000e+001 1.232500e+002 9.500000e+000
    endloop
  endfacet
  facet normal -1.000000e+000 -0.000000e+000 -0.000000e+000
    outer loop
      vertex   -8.850000e+001 1.232500e+002 9.500000e+000
      vertex   -8.850000e+001 1.272500e+002 1.776357e-014
      vertex   -8.850000e+001 1.232500e+002 1.776357e-014
    endloop
  endfacet
  facet normal -0.000000e+000 -1.000000e+000 -0.000000e+000
    outer loop
      vertex   -8.250000e+001 1.232500e+002 9.500000e+000
      vertex   -8.850000e+001 1.232500e+002 9.500000e+000
      vertex   -8.250000e+001 1.232500e+002 1.776357e-014
    endloop
  endfacet
  facet normal -0.000000e+000 -1.000000e+000 -0.000000e+000
    outer loop
      vertex   -8.250000e+001 1.232500e+002 1.776357e-014
      vertex   -8.850000e+001 1.232500e+002 9.500000e+000
      vertex   -8.850000e+001 1.232500e+002 1.776357e-014
    endloop
  endfacet
  facet normal -1.000000e+000 -2.583792e-015 -0.000000e+000
    outer loop
      vertex   -8.250000e+001 1.232500e+002 9.500000e+000
      vertex   -8.250000e+001 1.232500e+002 1.776357e-014
      vertex   -8.250000e+001 1.122500e+002 9.500000e+000
    endloop
  endfacet
  facet normal -1.000000e+000 -2.583792e-015 0.000000e+000
    outer loop
      vertex   -8.250000e+001 1.122500e+002 9.500000e+000
      vertex   -8.250000e+001 1.232500e+002 1.776357e-014
      vertex   -8.250000e+001 1.122500e+002 2.664535e-014
    endloop
  endfacet
  facet normal 1.000000e+000 -0.000000e+000 0.000000e+000
    outer loop
      vertex   -7.850000e+001 1.122500e+002 9.500000e+000
      vertex   -7.850000e+001 1.122500e+002 2.664535e-014
      vertex   -7.850000e+001 1.272500e+002 9.500000e+000
    endloop
  endfacet
  facet normal 1.000000e+000 -0.000000e+000 0.000000e+000
    outer loop
      vertex   -7.850000e+001 1.272500e+002 9.500000e+000
      vertex   -7.850000e+001 1.122500e+002 2.664535e-014
      vertex   -7.850000e+001 1.272500e+002 2.664535e-014
    endloop
  endfacet
  facet normal 0.000000e+000 1.000000e+000 -0.000000e+000
    outer loop
      vertex   -7.850000e+001 1.272500e+002 2.664535e-014
      vertex   -8.850000e+001 1.272500e+002 1.776357e-014
      vertex   -7.850000e+001 1.272500e+002 9.500000e+000
    endloop
  endfacet
  facet normal 0.000000e+000 1.000000e+000 -0.000000e+000
    outer loop
      vertex   -7.850000e+001 1.272500e+002 9.500000e+000
      vertex   -8.850000e+001 1.272500e+002 1.776357e-014
      vertex   -8.850000e+001 1.272500e+002 9.500000e+000
    endloop
  endfacet
  facet normal 0.000000e+000 1.000000e+000 -0.000000e+000
    outer loop
      vertex   -8.250000e+001 1.122500e+002 2.664535e-014
      vertex   -9.250000e+001 1.122500e+002 3.552714e-014
      vertex   -8.250000e+001 1.122500e+002 9.500000e+000
    endloop
  endfacet
  facet normal 0.000000e+000 1.000000e+000 -0.000000e+000
    outer loop
      vertex   -8.250000e+001 1.122500e+002 9.500000e+000
      vertex   -9.250000e+001 1.122500e+002 3.552714e-014
      vertex   -9.250000e+001 1.122500e+002 9.500000e+000
    endloop
  endfacet
  facet normal 0.000000e+000 1.000000e+000 0.000000e+000
    outer loop
      vertex   -7.850000e+001 1.122500e+002 9.500000e+000
      vertex   -3.316667e+001 1.122500e+002 9.500000e+000
      vertex   -7.850000e+001 1.122500e+002 2.664535e-014
    endloop
  endfacet
  facet normal -0.000000e+000 1.000000e+000 0.000000e+000
    outer loop
      vertex   -7.850000e+001 1.122500e+002 2.664535e-014
      vertex   -3.316667e+001 1.122500e+002 9.500000e+000
      vertex   -3.316667e+001 1.122500e+002 1.569115e-014
    endloop
  endfacet
  facet normal -0.000000e+000 1.000000e+000 0.000000e+000
    outer loop
      vertex   -3.316667e+001 1.122500e+002 1.569115e-014
      vertex   -3.316667e+001 1.122500e+002 9.500000e+000
      vertex   1.216667e+001 1.122500e+002 9.500000e+000
    endloop
  endfacet
  facet normal -0.000000e+000 1.000000e+000 -0.000000e+000
    outer loop
      vertex   1.216667e+001 1.122500e+002 5.625130e-015
      vertex   1.216667e+001 1.122500e+002 9.500000e+000
      vertex   5.750000e+001 1.122500e+002 9.500000e+000
    endloop
  endfacet
  facet normal 0.000000e+000 1.000000e+000 -0.000000e+000
    outer loop
      vertex   5.750000e+001 1.122500e+002 -4.440892e-015
      vertex   1.216667e+001 1.122500e+002 5.625130e-015
      vertex   5.750000e+001 1.122500e+002 9.500000e+000
    endloop
  endfacet
  facet normal -0.000000e+000 1.000000e+000 0.000000e+000
    outer loop
      vertex   -3.316667e+001 1.122500e+002 1.569115e-014
      vertex   1.216667e+001 1.122500e+002 9.500000e+000
      vertex   1.216667e+001 1.122500e+002 5.625130e-015
    endloop
  endfacet
  facet normal -1.000000e+000 2.583792e-015 0.000000e+000
    outer loop
      vertex   -8.250000e+001 9.174999e+001 1.776357e-014
      vertex   -8.250000e+001 9.174999e+001 9.500000e+000
      vertex   -8.250000e+001 1.027500e+002 2.664535e-014
    endloop
  endfacet
  facet normal -1.000000e+000 2.583792e-015 0.000000e+000
    outer loop
      vertex   -8.250000e+001 1.027500e+002 2.664535e-014
      vertex   -8.250000e+001 9.174999e+001 9.500000e+000
      vertex   -8.250000e+001 1.027500e+002 9.500000e+000
    endloop
  endfacet
  facet normal 1.000000e+000 -0.000000e+000 0.000000e+000
    outer loop
      vertex   -7.850000e+001 8.774999e+001 9.500000e+000
      vertex   -7.850000e+001 8.774999e+001 2.664535e-014
      vertex   -7.850000e+001 1.027500e+002 9.500000e+000
    endloop
  endfacet
  facet normal 1.000000e+000 -0.000000e+000 0.000000e+000
    outer loop
      vertex   -7.850000e+001 1.027500e+002 9.500000e+000
      vertex   -7.850000e+001 8.774999e+001 2.664535e-014
      vertex   -7.850000e+001 1.027500e+002 2.664535e-014
    endloop
  endfacet
  facet normal -0.000000e+000 -1.000000e+000 -0.000000e+000
    outer loop
      vertex   -8.250000e+001 1.027500e+002 9.500000e+000
      vertex   -9.250000e+001 1.027500e+002 9.500000e+000
      vertex   -8.250000e+001 1.027500e+002 2.664535e-014
    endloop
  endfacet
  facet normal -0.000000e+000 -1.000000e+000 -0.000000e+000
    outer loop
      vertex   -8.250000e+001 1.027500e+002 2.664535e-014
      vertex   -9.250000e+001 1.027500e+002 9.500000e+000
      vertex   -9.250000e+001 1.027500e+002 3.552714e-014
    endloop
  endfacet
  facet normal 0.000000e+000 -1.000000e+000 0.000000e+000
    outer loop
      vertex   -7.850000e+001 1.027500e+002 2.664535e-014
      vertex   -3.316667e+001 1.027500e+002 1.569115e-014
      vertex   -7.850000e+001 1.027500e+002 9.500000e+000
    endloop
  endfacet
  facet normal 0.000000e+000 -1.000000e+000 0.000000e+000
    outer loop
      vertex   -7.850000e+001 1.027500e+002 9.500000e+000
      vertex   -3.316667e+001 1.027500e+002 1.569115e-014
      vertex   -3.316667e+001 1.027500e+002 9.500000e+000
    endloop
  endfacet
  facet normal 0.000000e+000 -1.000000e+000 0.000000e+000
    outer loop
      vertex   -3.316667e+001 1.027500e+002 9.500000e+000
      vertex   -3.316667e+001 1.027500e+002 1.569115e-014
      vertex   1.216667e+001 1.027500e+002 5.625130e-015
    endloop
  endfacet
  facet normal 0.000000e+000 -1.000000e+000 0.000000e+000
    outer loop
      vertex   1.216667e+001 1.027500e+002 9.500000e+000
      vertex   1.216667e+001 1.027500e+002 5.625130e-015
      vertex   5.750000e+001 1.027500e+002 -4.440892e-015
    endloop
  endfacet
  facet normal -0.000000e+000 -1.000000e+000 -0.000000e+000
    outer loop
      vertex   5.750000e+001 1.027500e+002 9.500000e+000
      vertex   1.216667e+001 1.027500e+002 9.500000e+000
      vertex   5.750000e+001 1.027500e+002 -4.440892e-015
    endloop
  endfacet
  facet normal 0.000000e+000 -1.000000e+000 0.000000e+000
    outer loop
      vertex   -3.316667e+001 1.027500e+002 9.500000e+000
      vertex   1.216667e+001 1.027500e+002 5.625130e-015
      vertex   1.216667e+001 1.027500e+002 9.500000e+000
    endloop
  endfacet
  facet normal -1.000000e+000 -0.000000e+000 -0.000000e+000
    outer loop
      vertex   -9.250000e+001 1.122500e+002 9.500000e+000
      vertex   -9.250000e+001 1.122500e+002 3.552714e-014
      vertex   -9.250000e+001 1.027500e+002 9.500000e+000
    endloop
  endfacet
  facet normal -1.000000e+000 -0.000000e+000 -0.000000e+000
    outer loop
      vertex   -9.250000e+001 1.027500e+002 9.500000e+000
      vertex   -9.250000e+001 1.122500e+002 3.552714e-014
      vertex   -9.250000e+001 1.027500e+002 3.552714e-014
    endloop
  endfacet
  facet normal -2.220446e-016 0.000000e+000 -1.000000e+000
    outer loop
      vertex   5.750000e+001 1.027500e+002 -4.440892e-015
      vertex   1.216667e+001 1.027500e+002 5.625130e-015
      vertex   5.750000e+001 1.122500e+002 -4.440892e-015
    endloop
  endfacet
  facet normal -2.220446e-016 0.000000e+000 -1.000000e+000
    outer loop
      vertex   5.750000e+001 1.122500e+002 -4.440892e-015
      vertex   1.216667e+001 1.027500e+002 5.625130e-015
      vertex   1.216667e+001 1.122500e+002 5.625130e-015
    endloop
  endfacet
  facet normal -2.220446e-016 -0.000000e+000 -1.000000e+000
    outer loop
      vertex   1.216667e+001 1.122500e+002 5.625130e-015
      vertex   1.216667e+001 1.027500e+002 5.625130e-015
      vertex   -3.316667e+001 1.027500e+002 1.569115e-014
    endloop
  endfacet
  facet normal -2.416368e-016 -0.000000e+000 -1.000000e+000
    outer loop
      vertex   -3.316667e+001 1.122500e+002 1.569115e-014
      vertex   -3.316667e+001 1.027500e+002 1.569115e-014
      vertex   -7.850000e+001 1.027500e+002 2.664535e-014
    endloop
  endfacet
  facet normal -0.000000e+000 -0.000000e+000 -1.000000e+000
    outer loop
      vertex   -7.850000e+001 1.122500e+002 2.664535e-014
      vertex   -7.850000e+001 1.027500e+002 2.664535e-014
      vertex   -8.250000e+001 1.027500e+002 2.664535e-014
    endloop
  endfacet
  facet normal -8.881784e-016 -0.000000e+000 -1.000000e+000
    outer loop
      vertex   -8.250000e+001 1.122500e+002 2.664535e-014
      vertex   -8.250000e+001 1.027500e+002 2.664535e-014
      vertex   -9.250000e+001 1.027500e+002 3.552714e-014
    endloop
  endfacet
  facet normal -8.881784e-016 0.000000e+000 -1.000000e+000
    outer loop
      vertex   -9.250000e+001 1.122500e+002 3.552714e-014
      vertex   -8.250000e+001 1.122500e+002 2.664535e-014
      vertex   -9.250000e+001 1.027500e+002 3.552714e-014
    endloop
  endfacet
  facet normal -2.220446e-016 0.000000e+000 -1.000000e+000
    outer loop
      vertex   1.216667e+001 1.122500e+002 5.625130e-015
      vertex   -3.316667e+001 1.027500e+002 1.569115e-014
      vertex   -3.316667e+001 1.122500e+002 1.569115e-014
    endloop
  endfacet
  facet normal 0.000000e+000 8.074349e-016 -1.000000e+000
    outer loop
      vertex   -8.250000e+001 1.027500e+002 2.664535e-014
      vertex   -7.850000e+001 1.027500e+002 2.664535e-014
      vertex   -8.250000e+001 9.174999e+001 1.776357e-014
    endloop
  endfacet
  facet normal 2.220446e-015 0.000000e+000 -1.000000e+000
    outer loop
      vertex   -8.250000e+001 9.174999e+001 1.776357e-014
      vertex   -7.850000e+001 1.027500e+002 2.664535e-014
      vertex   -7.850000e+001 8.774999e+001 2.664535e-014
    endloop
  endfacet
  facet normal 8.881784e-016 -1.332268e-015 -1.000000e+000
    outer loop
      vertex   -8.850000e+001 8.774999e+001 1.776357e-014
      vertex   -8.250000e+001 9.174999e+001 1.776357e-014
      vertex   -7.850000e+001 8.774999e+001 2.664535e-014
    endloop
  endfacet
  facet normal 0.000000e+000 0.000000e+000 -1.000000e+000
    outer loop
      vertex   -8.850000e+001 8.774999e+001 1.776357e-014
      vertex   -8.850000e+001 9.174999e+001 1.776357e-014
      vertex   -8.250000e+001 9.174999e+001 1.776357e-014
    endloop
  endfacet
  facet normal -0.000000e+000 0.000000e+000 -1.000000e+000
    outer loop
      vertex   -7.850000e+001 1.122500e+002 2.664535e-014
      vertex   -8.250000e+001 1.027500e+002 2.664535e-014
      vertex   -8.250000e+001 1.122500e+002 2.664535e-014
    endloop
  endfacet
  facet normal -0.000000e+000 -8.074349e-016 -1.000000e+000
    outer loop
      vertex   -8.250000e+001 1.232500e+002 1.776357e-014
      vertex   -7.850000e+001 1.122500e+002 2.664535e-014
      vertex   -8.250000e+001 1.122500e+002 2.664535e-014
    endloop
  endfacet
  facet normal 2.220446e-015 0.000000e+000 -1.000000e+000
    outer loop
      vertex   -8.250000e+001 1.232500e+002 1.776357e-014
      vertex   -7.850000e+001 1.272500e+002 2.664535e-014
      vertex   -7.850000e+001 1.122500e+002 2.664535e-014
    endloop
  endfacet
  facet normal 8.881784e-016 1.332268e-015 -1.000000e+000
    outer loop
      vertex   -8.250000e+001 1.232500e+002 1.776357e-014
      vertex   -8.850000e+001 1.272500e+002 1.776357e-014
      vertex   -7.850000e+001 1.272500e+002 2.664535e-014
    endloop
  endfacet
  facet normal 0.000000e+000 0.000000e+000 -1.000000e+000
    outer loop
      vertex   -8.250000e+001 1.232500e+002 1.776357e-014
      vertex   -8.850000e+001 1.232500e+002 1.776357e-014
      vertex   -8.850000e+001 1.272500e+002 1.776357e-014
    endloop
  endfacet
  facet normal -2.416368e-016 0.000000e+000 -1.000000e+000
    outer loop
      vertex   -7.850000e+001 1.122500e+002 2.664535e-014
      vertex   -3.316667e+001 1.122500e+002 1.569115e-014
      vertex   -7.850000e+001 1.027500e+002 2.664535e-014
    endloop
  endfacet
  facet normal 2.742904e-016 0.000000e+000 1.000000e+000
    outer loop
      vertex   5.750000e+001 1.122500e+002 9.500000e+000
      vertex   1.216667e+001 1.122500e+002 9.500000e+000
      vertex   5.750000e+001 1.027500e+002 9.500000e+000
    endloop
  endfacet
  facet normal 1.959217e-016 -3.739699e-016 1.000000e+000
    outer loop
      vertex   5.750000e+001 1.027500e+002 9.500000e+000
      vertex   1.216667e+001 1.122500e+002 9.500000e+000
      vertex   1.216667e+001 1.027500e+002 9.500000e+000
    endloop
  endfacet
  facet normal 2.351061e-016 -3.739699e-016 1.000000e+000
    outer loop
      vertex   1.216667e+001 1.027500e+002 9.500000e+000
      vertex   1.216667e+001 1.122500e+002 9.500000e+000
      vertex   -3.316667e+001 1.122500e+002 9.500000e+000
    endloop
  endfacet
  facet normal 1.567374e-016 -3.739699e-016 1.000000e+000
    outer loop
      vertex   -3.316667e+001 1.027500e+002 9.500000e+000
      vertex   -3.316667e+001 1.122500e+002 9.500000e+000
      vertex   -7.850000e+001 1.122500e+002 9.500000e+000
    endloop
  endfacet
  facet normal 0.000000e+000 -0.000000e+000 1.000000e+000
    outer loop
      vertex   -7.850000e+001 1.027500e+002 9.500000e+000
      vertex   -7.850000e+001 1.122500e+002 9.500000e+000
      vertex   -8.250000e+001 1.122500e+002 9.500000e+000
    endloop
  endfacet
  facet normal 8.881784e-016 -0.000000e+000 1.000000e+000
    outer loop
      vertex   -8.250000e+001 1.027500e+002 9.500000e+000
      vertex   -8.250000e+001 1.122500e+002 9.500000e+000
      vertex   -9.250000e+001 1.122500e+002 9.500000e+000
    endloop
  endfacet
  facet normal 8.881784e-016 0.000000e+000 1.000000e+000
    outer loop
      vertex   -9.250000e+001 1.027500e+002 9.500000e+000
      vertex   -8.250000e+001 1.027500e+002 9.500000e+000
      vertex   -9.250000e+001 1.122500e+002 9.500000e+000
    endloop
  endfacet
  facet normal 2.351061e-016 -3.739699e-016 1.000000e+000
    outer loop
      vertex   1.216667e+001 1.027500e+002 9.500000e+000
      vertex   -3.316667e+001 1.122500e+002 9.500000e+000
      vertex   -3.316667e+001 1.027500e+002 9.500000e+000
    endloop
  endfacet
  facet normal 0.000000e+000 -8.074349e-016 1.000000e+000
    outer loop
      vertex   -8.250000e+001 1.122500e+002 9.500000e+000
      vertex   -7.850000e+001 1.122500e+002 9.500000e+000
      vertex   -8.250000e+001 1.232500e+002 9.500000e+000
    endloop
  endfacet
  facet normal 2.220446e-015 -0.000000e+000 1.000000e+000
    outer loop
      vertex   -8.250000e+001 1.232500e+002 9.500000e+000
      vertex   -7.850000e+001 1.122500e+002 9.500000e+000
      vertex   -7.850000e+001 1.272500e+002 9.500000e+000
    endloop
  endfacet
  facet normal 8.881784e-016 1.332268e-015 1.000000e+000
    outer loop
      vertex   -8.850000e+001 1.272500e+002 9.500000e+000
      vertex   -8.250000e+001 1.232500e+002 9.500000e+000
      vertex   -7.850000e+001 1.272500e+002 9.500000e+000
    endloop
  endfacet
  facet normal -0.000000e+000 0.000000e+000 1.000000e+000
    outer loop
      vertex   -8.850000e+001 1.272500e+002 9.500000e+000
      vertex   -8.850000e+001 1.232500e+002 9.500000e+000
      vertex   -8.250000e+001 1.232500e+002 9.500000e+000
    endloop
  endfacet
  facet normal 0.000000e+000 0.000000e+000 1.000000e+000
    outer loop
      vertex   -7.850000e+001 1.027500e+002 9.500000e+000
      vertex   -8.250000e+001 1.122500e+002 9.500000e+000
      vertex   -8.250000e+001 1.027500e+002 9.500000e+000
    endloop
  endfacet
  facet normal 0.000000e+000 8.074349e-016 1.000000e+000
    outer loop
      vertex   -8.250000e+001 9.174999e+001 9.500000e+000
      vertex   -7.850000e+001 1.027500e+002 9.500000e+000
      vertex   -8.250000e+001 1.027500e+002 9.500000e+000
    endloop
  endfacet
  facet normal 2.220446e-015 -0.000000e+000 1.000000e+000
    outer loop
      vertex   -8.250000e+001 9.174999e+001 9.500000e+000
      vertex   -7.850000e+001 8.774999e+001 9.500000e+000
      vertex   -7.850000e+001 1.027500e+002 9.500000e+000
    endloop
  endfacet
  facet normal 8.881784e-016 -1.332268e-015 1.000000e+000
    outer loop
      vertex   -8.250000e+001 9.174999e+001 9.500000e+000
      vertex   -8.850000e+001 8.774999e+001 9.500000e+000
      vertex   -7.850000e+001 8.774999e+001 9.500000e+000
    endloop
  endfacet
  facet normal 0.000000e+000 0.000000e+000 1.000000e+000
    outer loop
      vertex   -8.250000e+001 9.174999e+001 9.500000e+000
      vertex   -8.850000e+001 9.174999e+001 9.500000e+000
      vertex   -8.850000e+001 8.774999e+001 9.500000e+000
    endloop
  endfacet
  facet normal 2.351061e-016 0.000000e+000 1.000000e+000
    outer loop
      vertex   -7.850000e+001 1.027500e+002 9.500000e+000
      vertex   -3.316667e+001 1.027500e+002 9.500000e+000
      vertex   -7.850000e+001 1.122500e+002 9.500000e+000
    endloop
  endfacet
  facet normal -1.000000e+000 -0.000000e+000 -0.000000e+000
    outer loop
      vertex   -8.850000e+001 9.174999e+001 9.500000e+000
      vertex   -8.850000e+001 9.174999e+001 1.776357e-014
      vertex   -8.850000e+001 8.774999e+001 9.500000e+000
    endloop
  endfacet
  facet normal -1.000000e+000 -0.000000e+000 -0.000000e+000
    outer loop
      vertex   -8.850000e+001 8.774999e+001 9.500000e+000
      vertex   -8.850000e+001 9.174999e+001 1.776357e-014
      vertex   -8.850000e+001 8.774999e+001 1.776357e-014
    endloop
  endfacet
  facet normal 0.000000e+000 1.000000e+000 -0.000000e+000
    outer loop
      vertex   -8.250000e+001 9.174999e+001 1.776357e-014
      vertex   -8.850000e+001 9.174999e+001 1.776357e-014
      vertex   -8.250000e+001 9.174999e+001 9.500000e+000
    endloop
  endfacet
  facet normal 0.000000e+000 1.000000e+000 -0.000000e+000
    outer loop
      vertex   -8.250000e+001 9.174999e+001 9.500000e+000
      vertex   -8.850000e+001 9.174999e+001 1.776357e-014
      vertex   -8.850000e+001 9.174999e+001 9.500000e+000
    endloop
  endfacet
  facet normal -0.000000e+000 -1.000000e+000 -0.000000e+000
    outer loop
      vertex   -7.850000e+001 8.774999e+001 9.500000e+000
      vertex   -8.850000e+001 8.774999e+001 9.500000e+000
      vertex   -7.850000e+001 8.774999e+001 2.664535e-014
    endloop
  endfacet
  facet normal -0.000000e+000 -1.000000e+000 -0.000000e+000
    outer loop
      vertex   -7.850000e+001 8.774999e+001 2.664535e-014
      vertex   -8.850000e+001 8.774999e+001 9.500000e+000
      vertex   -8.850000e+001 8.774999e+001 1.776357e-014
    endloop
  endfacet
endsolid
