solid ascii
  facet normal 1.000000e+000 0.000000e+000 -0.000000e+000
    outer loop
      vertex   -1.020000e+002 2.080000e+002 2.000000e+000
      vertex   -1.020000e+002 2.080000e+002 8.000000e+000
      vertex   -1.020000e+002 1.780000e+002 2.000000e+000
    endloop
  endfacet
  facet normal 1.000000e+000 0.000000e+000 -0.000000e+000
    outer loop
      vertex   -1.020000e+002 1.780000e+002 2.000000e+000
      vertex   -1.020000e+002 2.080000e+002 8.000000e+000
      vertex   -1.020000e+002 1.780000e+002 8.000000e+000
    endloop
  endfacet
  facet normal 0.000000e+000 5.960464e-008 1.000000e+000
    outer loop
      vertex   -5.400000e+001 2.110000e+002 8.000000e+000
      vertex   -1.050000e+002 2.110000e+002 8.000000e+000
      vertex   -1.020000e+002 2.080000e+002 8.000000e+000
    endloop
  endfacet
  facet normal 6.622738e-009 -4.635916e-008 1.000000e+000
    outer loop
      vertex   -5.700000e+001 2.080000e+002 8.000000e+000
      vertex   -5.400000e+001 2.110000e+002 8.000000e+000
      vertex   -1.020000e+002 2.080000e+002 8.000000e+000
    endloop
  endfacet
  facet normal 1.010553e-013 -3.973653e-008 1.000000e+000
    outer loop
      vertex   -5.700000e+001 2.080000e+002 8.000000e+000
      vertex   -5.400000e+001 2.080000e+002 8.000000e+000
      vertex   -5.400000e+001 2.110000e+002 8.000000e+000
    endloop
  endfacet
  facet normal -1.010550e-014 3.973643e-009 1.000000e+000
    outer loop
      vertex   -5.700000e+001 2.080000e+002 8.000000e+000
      vertex   -5.400000e+001 1.780000e+002 8.000000e+000
      vertex   -5.400000e+001 2.080000e+002 8.000000e+000
    endloop
  endfacet
  facet normal -3.973646e-008 0.000000e+000 1.000000e+000
    outer loop
      vertex   -5.700000e+001 2.080000e+002 8.000000e+000
      vertex   -5.700000e+001 1.780000e+002 8.000000e+000
      vertex   -5.400000e+001 1.780000e+002 8.000000e+000
    endloop
  endfacet
  facet normal -3.973646e-008 0.000000e+000 1.000000e+000
    outer loop
      vertex   -5.400000e+001 1.780000e+002 8.000000e+000
      vertex   -5.700000e+001 1.780000e+002 8.000000e+000
      vertex   -5.400000e+001 1.760000e+002 8.000000e+000
    endloop
  endfacet
  facet normal 6.622738e-009 6.953875e-008 1.000000e+000
    outer loop
      vertex   -5.400000e+001 1.760000e+002 8.000000e+000
      vertex   -5.700000e+001 1.780000e+002 8.000000e+000
      vertex   -1.020000e+002 1.780000e+002 8.000000e+000
    endloop
  endfacet
  facet normal -5.960464e-008 0.000000e+000 1.000000e+000
    outer loop
      vertex   -1.050000e+002 1.760000e+002 8.000000e+000
      vertex   -1.020000e+002 1.780000e+002 8.000000e+000
      vertex   -1.020000e+002 2.080000e+002 8.000000e+000
    endloop
  endfacet
  facet normal -5.960464e-008 -5.075306e-017 1.000000e+000
    outer loop
      vertex   -1.050000e+002 2.110000e+002 8.000000e+000
      vertex   -1.050000e+002 1.760000e+002 8.000000e+000
      vertex   -1.020000e+002 2.080000e+002 8.000000e+000
    endloop
  endfacet
  facet normal 0.000000e+000 -8.940697e-008 1.000000e+000
    outer loop
      vertex   -1.050000e+002 1.760000e+002 8.000000e+000
      vertex   -5.400000e+001 1.760000e+002 8.000000e+000
      vertex   -1.020000e+002 1.780000e+002 8.000000e+000
    endloop
  endfacet
  facet normal 0.000000e+000 3.973643e-009 1.000000e+000
    outer loop
      vertex   -5.400000e+001 1.780000e+002 8.000000e+000
      vertex   -5.400000e+001 2.080000e+002 8.000000e+000
      vertex   -5.400000e+001 2.080000e+002 8.000000e+000
    endloop
  endfacet
  facet normal 0.000000e+000 -3.973643e-009 -1.000000e+000
    outer loop
      vertex   -5.400000e+001 1.780000e+002 2.000000e+000
      vertex   -5.400000e+001 2.080000e+002 2.000000e+000
      vertex   -5.400000e+001 2.080000e+002 2.000000e+000
    endloop
  endfacet
  facet normal -0.000000e+000 1.000000e+000 0.000000e+000
    outer loop
      vertex   -5.400000e+001 2.080000e+002 2.000000e+000
      vertex   -5.400000e+001 2.080000e+002 8.000000e+000
      vertex   -5.400000e+001 2.080000e+002 2.000000e+000
    endloop
  endfacet
  facet normal 0.000000e+000 1.000000e+000 -0.000000e+000
    outer loop
      vertex   -5.400000e+001 2.080000e+002 2.000000e+000
      vertex   -5.400000e+001 2.080000e+002 8.000000e+000
      vertex   -5.400000e+001 2.080000e+002 8.000000e+000
    endloop
  endfacet
  facet normal -1.000000e+000 -0.000000e+000 -0.000000e+000
    outer loop
      vertex   -5.700000e+001 2.080000e+002 8.000000e+000
      vertex   -5.700000e+001 2.080000e+002 2.000000e+000
      vertex   -5.700000e+001 1.780000e+002 8.000000e+000
    endloop
  endfacet
  facet normal -1.000000e+000 -0.000000e+000 -0.000000e+000
    outer loop
      vertex   -5.700000e+001 1.780000e+002 8.000000e+000
      vertex   -5.700000e+001 2.080000e+002 2.000000e+000
      vertex   -5.700000e+001 1.780000e+002 2.000000e+000
    endloop
  endfacet
  facet normal 1.000000e+000 -6.357829e-008 0.000000e+000
    outer loop
      vertex   -5.400000e+001 1.780000e+002 8.000000e+000
      vertex   -5.400000e+001 1.780000e+002 2.000000e+000
      vertex   -5.400000e+001 2.080000e+002 8.000000e+000
    endloop
  endfacet
  facet normal 1.000000e+000 -6.357829e-008 0.000000e+000
    outer loop
      vertex   -5.400000e+001 2.080000e+002 8.000000e+000
      vertex   -5.400000e+001 1.780000e+002 2.000000e+000
      vertex   -5.400000e+001 2.080000e+002 2.000000e+000
    endloop
  endfacet
  facet normal 0.000000e+000 1.000000e+000 0.000000e+000
    outer loop
      vertex   -1.020000e+002 1.780000e+002 8.000000e+000
      vertex   -5.700000e+001 1.780000e+002 8.000000e+000
      vertex   -1.020000e+002 1.780000e+002 2.000000e+000
    endloop
  endfacet
  facet normal -0.000000e+000 1.000000e+000 0.000000e+000
    outer loop
      vertex   -1.020000e+002 1.780000e+002 2.000000e+000
      vertex   -5.700000e+001 1.780000e+002 8.000000e+000
      vertex   -5.700000e+001 1.780000e+002 2.000000e+000
    endloop
  endfacet
  facet normal 6.622738e-009 0.000000e+000 1.000000e+000
    outer loop
      vertex   -1.020000e+002 1.780000e+002 2.000000e+000
      vertex   -5.700000e+001 1.780000e+002 2.000000e+000
      vertex   -1.020000e+002 2.080000e+002 2.000000e+000
    endloop
  endfacet
  facet normal 6.622738e-009 -0.000000e+000 1.000000e+000
    outer loop
      vertex   -1.020000e+002 2.080000e+002 2.000000e+000
      vertex   -5.700000e+001 1.780000e+002 2.000000e+000
      vertex   -5.700000e+001 2.080000e+002 2.000000e+000
    endloop
  endfacet
  facet normal 0.000000e+000 -1.000000e+000 0.000000e+000
    outer loop
      vertex   -1.020000e+002 2.080000e+002 8.000000e+000
      vertex   -1.020000e+002 2.080000e+002 2.000000e+000
      vertex   -5.700000e+001 2.080000e+002 8.000000e+000
    endloop
  endfacet
  facet normal 0.000000e+000 -1.000000e+000 -0.000000e+000
    outer loop
      vertex   -5.700000e+001 2.080000e+002 8.000000e+000
      vertex   -1.020000e+002 2.080000e+002 2.000000e+000
      vertex   -5.700000e+001 2.080000e+002 2.000000e+000
    endloop
  endfacet
  facet normal 0.000000e+000 1.000000e+000 0.000000e+000
    outer loop
      vertex   -5.400000e+001 2.110000e+002 8.000000e+000
      vertex   -5.400000e+001 2.110000e+002 2.000000e+000
      vertex   -1.050000e+002 2.110000e+002 8.000000e+000
    endloop
  endfacet
  facet normal 0.000000e+000 1.000000e+000 0.000000e+000
    outer loop
      vertex   -1.050000e+002 2.110000e+002 8.000000e+000
      vertex   -5.400000e+001 2.110000e+002 2.000000e+000
      vertex   -1.050000e+002 2.110000e+002 2.000000e+000
    endloop
  endfacet
  facet normal 0.000000e+000 -5.820766e-011 1.000000e+000
    outer loop
      vertex   -1.050000e+002 2.110000e+002 2.000000e+000
      vertex   -5.400000e+001 2.110000e+002 2.000000e+000
      vertex   -1.050000e+002 2.110000e+002 2.000000e+000
    endloop
  endfacet
  facet normal 0.000000e+000 -5.820766e-011 1.000000e+000
    outer loop
      vertex   -1.050000e+002 2.110000e+002 2.000000e+000
      vertex   -5.400000e+001 2.110000e+002 2.000000e+000
      vertex   -5.400000e+001 2.110000e+002 2.000000e+000
    endloop
  endfacet
  facet normal 0.000000e+000 -1.000000e+000 0.000000e+000
    outer loop
      vertex   -1.050000e+002 1.760000e+002 8.000000e+000
      vertex   -1.050000e+002 1.760000e+002 0.000000e+000
      vertex   -5.400000e+001 1.760000e+002 8.000000e+000
    endloop
  endfacet
  facet normal 0.000000e+000 -1.000000e+000 -0.000000e+000
    outer loop
      vertex   -5.400000e+001 1.760000e+002 8.000000e+000
      vertex   -1.050000e+002 1.760000e+002 0.000000e+000
      vertex   -5.400000e+001 1.760000e+002 0.000000e+000
    endloop
  endfacet
  facet normal -1.000000e+000 -0.000000e+000 -0.000000e+000
    outer loop
      vertex   -1.050000e+002 2.110000e+002 8.000000e+000
      vertex   -1.050000e+002 2.110000e+002 2.000000e+000
      vertex   -1.050000e+002 1.760000e+002 8.000000e+000
    endloop
  endfacet
  facet normal -1.000000e+000 0.000000e+000 -0.000000e+000
    outer loop
      vertex   -1.050000e+002 1.760000e+002 8.000000e+000
      vertex   -1.050000e+002 2.110000e+002 2.000000e+000
      vertex   -1.050000e+002 1.760000e+002 0.000000e+000
    endloop
  endfacet
  facet normal -1.000000e+000 0.000000e+000 0.000000e+000
    outer loop
      vertex   -1.050000e+002 1.760000e+002 0.000000e+000
      vertex   -1.050000e+002 2.110000e+002 2.000000e+000
      vertex   -1.050000e+002 2.110000e+002 0.000000e+000
    endloop
  endfacet
  facet normal -1.000000e+000 0.000000e+000 0.000000e+000
    outer loop
      vertex   -1.050000e+002 2.110000e+002 0.000000e+000
      vertex   -1.050000e+002 2.110000e+002 2.000000e+000
      vertex   -1.050000e+002 2.110000e+002 2.000000e+000
    endloop
  endfacet
  facet normal 1.000000e+000 -0.000000e+000 0.000000e+000
    outer loop
      vertex   -5.400000e+001 1.780000e+002 2.000000e+000
      vertex   -5.400000e+001 1.760000e+002 0.000000e+000
      vertex   -5.400000e+001 2.080000e+002 2.000000e+000
    endloop
  endfacet
  facet normal 1.000000e+000 0.000000e+000 0.000000e+000
    outer loop
      vertex   -5.400000e+001 1.780000e+002 2.000000e+000
      vertex   -5.400000e+001 1.760000e+002 8.000000e+000
      vertex   -5.400000e+001 1.760000e+002 0.000000e+000
    endloop
  endfacet
  facet normal 1.000000e+000 0.000000e+000 -0.000000e+000
    outer loop
      vertex   -5.400000e+001 1.780000e+002 2.000000e+000
      vertex   -5.400000e+001 1.780000e+002 8.000000e+000
      vertex   -5.400000e+001 1.760000e+002 8.000000e+000
    endloop
  endfacet
  facet normal 1.000000e+000 0.000000e+000 -0.000000e+000
    outer loop
      vertex   -5.400000e+001 1.760000e+002 0.000000e+000
      vertex   -5.400000e+001 2.110000e+002 0.000000e+000
      vertex   -5.400000e+001 2.080000e+002 2.000000e+000
    endloop
  endfacet
  facet normal 1.000000e+000 -4.736963e-015 -7.105445e-015
    outer loop
      vertex   -5.400000e+001 2.080000e+002 2.000000e+000
      vertex   -5.400000e+001 2.110000e+002 0.000000e+000
      vertex   -5.400000e+001 2.110000e+002 2.000000e+000
    endloop
  endfacet
  facet normal 1.000000e+000 -4.736964e-015 0.000000e+000
    outer loop
      vertex   -5.400000e+001 2.080000e+002 8.000000e+000
      vertex   -5.400000e+001 2.110000e+002 2.000000e+000
      vertex   -5.400000e+001 2.110000e+002 8.000000e+000
    endloop
  endfacet
  facet normal 1.000000e+000 -4.736964e-015 0.000000e+000
    outer loop
      vertex   -5.400000e+001 2.080000e+002 8.000000e+000
      vertex   -5.400000e+001 2.080000e+002 2.000000e+000
      vertex   -5.400000e+001 2.110000e+002 2.000000e+000
    endloop
  endfacet
  facet normal 1.000000e+000 1.862645e-009 -0.000000e+000
    outer loop
      vertex   -5.400000e+001 2.110000e+002 0.000000e+000
      vertex   -5.400000e+001 2.110000e+002 2.000000e+000
      vertex   -5.400000e+001 2.110000e+002 2.000000e+000
    endloop
  endfacet
  facet normal 0.000000e+000 -0.000000e+000 -1.000000e+000
    outer loop
      vertex   -1.050000e+002 2.110000e+002 0.000000e+000
      vertex   -5.400000e+001 2.110000e+002 0.000000e+000
      vertex   -1.050000e+002 1.760000e+002 0.000000e+000
    endloop
  endfacet
  facet normal 0.000000e+000 0.000000e+000 -1.000000e+000
    outer loop
      vertex   -1.050000e+002 1.760000e+002 0.000000e+000
      vertex   -5.400000e+001 2.110000e+002 0.000000e+000
      vertex   -5.400000e+001 1.760000e+002 0.000000e+000
    endloop
  endfacet
  facet normal -0.000000e+000 1.000000e+000 0.000000e+000
    outer loop
      vertex   -1.050000e+002 2.110000e+002 2.000000e+000
      vertex   -5.400000e+001 2.110000e+002 2.000000e+000
      vertex   -1.050000e+002 2.110000e+002 0.000000e+000
    endloop
  endfacet
  facet normal -0.000000e+000 1.000000e+000 0.000000e+000
    outer loop
      vertex   -1.050000e+002 2.110000e+002 0.000000e+000
      vertex   -5.400000e+001 2.110000e+002 2.000000e+000
      vertex   -5.400000e+001 2.110000e+002 0.000000e+000
    endloop
  endfacet
endsolid
