solid ascii
  facet normal 0.000000e+000 1.000000e+000 0.000000e+000
    outer loop
      vertex   -7.600000e+001 1.780000e+002 1.000000e+001
      vertex   -7.600000e+001 1.780000e+002 0.000000e+000
      vertex   -7.900000e+001 1.780000e+002 1.000000e+001
    endloop
  endfacet
  facet normal 0.000000e+000 1.000000e+000 0.000000e+000
    outer loop
      vertex   -7.900000e+001 1.780000e+002 1.000000e+001
      vertex   -7.600000e+001 1.780000e+002 0.000000e+000
      vertex   -7.900000e+001 1.780000e+002 0.000000e+000
    endloop
  endfacet
  facet normal 1.000000e+000 -0.000000e+000 0.000000e+000
    outer loop
      vertex   -7.900000e+001 1.780000e+002 1.000000e+001
      vertex   -7.900000e+001 1.780000e+002 0.000000e+000
      vertex   -7.900000e+001 2.030000e+002 1.000000e+001
    endloop
  endfacet
  facet normal 1.000000e+000 -0.000000e+000 0.000000e+000
    outer loop
      vertex   -7.900000e+001 2.030000e+002 1.000000e+001
      vertex   -7.900000e+001 1.780000e+002 0.000000e+000
      vertex   -7.900000e+001 2.030000e+002 0.000000e+000
    endloop
  endfacet
  facet normal 0.000000e+000 -1.000000e+000 0.000000e+000
    outer loop
      vertex   -7.900000e+001 2.030000e+002 1.000000e+001
      vertex   -7.900000e+001 2.030000e+002 0.000000e+000
      vertex   -7.600000e+001 2.030000e+002 1.000000e+001
    endloop
  endfacet
  facet normal 0.000000e+000 -1.000000e+000 -0.000000e+000
    outer loop
      vertex   -7.600000e+001 2.030000e+002 1.000000e+001
      vertex   -7.900000e+001 2.030000e+002 0.000000e+000
      vertex   -7.600000e+001 2.030000e+002 0.000000e+000
    endloop
  endfacet
  facet normal -1.000000e+000 -0.000000e+000 -0.000000e+000
    outer loop
      vertex   -7.600000e+001 2.030000e+002 1.000000e+001
      vertex   -7.600000e+001 2.030000e+002 0.000000e+000
      vertex   -7.600000e+001 1.780000e+002 1.000000e+001
    endloop
  endfacet
  facet normal -1.000000e+000 -0.000000e+000 -0.000000e+000
    outer loop
      vertex   -7.600000e+001 1.780000e+002 1.000000e+001
      vertex   -7.600000e+001 2.030000e+002 0.000000e+000
      vertex   -7.600000e+001 1.780000e+002 0.000000e+000
    endloop
  endfacet
  facet normal 0.000000e+000 -1.000000e+000 2.842171e-015
    outer loop
      vertex   -8.200000e+001 1.760000e+002 1.000000e+001
      vertex   -8.200000e+001 1.760000e+002 0.000000e+000
      vertex   -7.300000e+001 1.760000e+002 1.000000e+001
    endloop
  endfacet
  facet normal 0.000000e+000 -1.000000e+000 2.842171e-015
    outer loop
      vertex   -7.300000e+001 1.760000e+002 1.000000e+001
      vertex   -8.200000e+001 1.760000e+002 0.000000e+000
      vertex   -7.300000e+001 1.760000e+002 0.000000e+000
    endloop
  endfacet
  facet normal 1.000000e+000 0.000000e+000 -0.000000e+000
    outer loop
      vertex   -7.300000e+001 2.050000e+002 0.000000e+000
      vertex   -7.300000e+001 2.050000e+002 1.000000e+001
      vertex   -7.300000e+001 1.760000e+002 0.000000e+000
    endloop
  endfacet
  facet normal 1.000000e+000 0.000000e+000 -0.000000e+000
    outer loop
      vertex   -7.300000e+001 1.760000e+002 0.000000e+000
      vertex   -7.300000e+001 2.050000e+002 1.000000e+001
      vertex   -7.300000e+001 1.760000e+002 1.000000e+001
    endloop
  endfacet
  facet normal 0.000000e+000 0.000000e+000 -1.000000e+000
    outer loop
      vertex   -7.600000e+001 1.780000e+002 0.000000e+000
      vertex   -7.600000e+001 2.030000e+002 0.000000e+000
      vertex   -7.300000e+001 2.050000e+002 0.000000e+000
    endloop
  endfacet
  facet normal 0.000000e+000 0.000000e+000 -1.000000e+000
    outer loop
      vertex   -7.300000e+001 1.760000e+002 0.000000e+000
      vertex   -7.600000e+001 1.780000e+002 0.000000e+000
      vertex   -7.300000e+001 2.050000e+002 0.000000e+000
    endloop
  endfacet
  facet normal 0.000000e+000 0.000000e+000 -1.000000e+000
    outer loop
      vertex   -7.300000e+001 1.760000e+002 0.000000e+000
      vertex   -8.200000e+001 1.760000e+002 0.000000e+000
      vertex   -7.600000e+001 1.780000e+002 0.000000e+000
    endloop
  endfacet
  facet normal -0.000000e+000 0.000000e+000 -1.000000e+000
    outer loop
      vertex   -7.600000e+001 1.780000e+002 0.000000e+000
      vertex   -8.200000e+001 1.760000e+002 0.000000e+000
      vertex   -7.900000e+001 1.780000e+002 0.000000e+000
    endloop
  endfacet
  facet normal -0.000000e+000 0.000000e+000 -1.000000e+000
    outer loop
      vertex   -7.900000e+001 1.780000e+002 0.000000e+000
      vertex   -8.200000e+001 1.760000e+002 0.000000e+000
      vertex   -8.200000e+001 2.050000e+002 0.000000e+000
    endloop
  endfacet
  facet normal 0.000000e+000 0.000000e+000 -1.000000e+000
    outer loop
      vertex   -7.900000e+001 2.030000e+002 0.000000e+000
      vertex   -8.200000e+001 2.050000e+002 0.000000e+000
      vertex   -7.300000e+001 2.050000e+002 0.000000e+000
    endloop
  endfacet
  facet normal 0.000000e+000 0.000000e+000 -1.000000e+000
    outer loop
      vertex   -7.600000e+001 2.030000e+002 0.000000e+000
      vertex   -7.900000e+001 2.030000e+002 0.000000e+000
      vertex   -7.300000e+001 2.050000e+002 0.000000e+000
    endloop
  endfacet
  facet normal -0.000000e+000 -0.000000e+000 -1.000000e+000
    outer loop
      vertex   -7.900000e+001 2.030000e+002 0.000000e+000
      vertex   -7.900000e+001 1.780000e+002 0.000000e+000
      vertex   -8.200000e+001 2.050000e+002 0.000000e+000
    endloop
  endfacet
  facet normal 0.000000e+000 -0.000000e+000 1.000000e+000
    outer loop
      vertex   -7.900000e+001 1.780000e+002 1.000000e+001
      vertex   -7.900000e+001 2.030000e+002 1.000000e+001
      vertex   -8.200000e+001 2.050000e+002 1.000000e+001
    endloop
  endfacet
  facet normal 0.000000e+000 -0.000000e+000 1.000000e+000
    outer loop
      vertex   -8.200000e+001 1.760000e+002 1.000000e+001
      vertex   -7.900000e+001 1.780000e+002 1.000000e+001
      vertex   -8.200000e+001 2.050000e+002 1.000000e+001
    endloop
  endfacet
  facet normal 0.000000e+000 -0.000000e+000 1.000000e+000
    outer loop
      vertex   -8.200000e+001 1.760000e+002 1.000000e+001
      vertex   -7.300000e+001 1.760000e+002 1.000000e+001
      vertex   -7.900000e+001 1.780000e+002 1.000000e+001
    endloop
  endfacet
  facet normal -0.000000e+000 -0.000000e+000 1.000000e+000
    outer loop
      vertex   -7.900000e+001 1.780000e+002 1.000000e+001
      vertex   -7.300000e+001 1.760000e+002 1.000000e+001
      vertex   -7.600000e+001 1.780000e+002 1.000000e+001
    endloop
  endfacet
  facet normal -0.000000e+000 0.000000e+000 1.000000e+000
    outer loop
      vertex   -7.600000e+001 1.780000e+002 1.000000e+001
      vertex   -7.300000e+001 1.760000e+002 1.000000e+001
      vertex   -7.300000e+001 2.050000e+002 1.000000e+001
    endloop
  endfacet
  facet normal 0.000000e+000 -0.000000e+000 1.000000e+000
    outer loop
      vertex   -7.600000e+001 2.030000e+002 1.000000e+001
      vertex   -7.300000e+001 2.050000e+002 1.000000e+001
      vertex   -8.200000e+001 2.050000e+002 1.000000e+001
    endloop
  endfacet
  facet normal 0.000000e+000 -0.000000e+000 1.000000e+000
    outer loop
      vertex   -7.900000e+001 2.030000e+002 1.000000e+001
      vertex   -7.600000e+001 2.030000e+002 1.000000e+001
      vertex   -8.200000e+001 2.050000e+002 1.000000e+001
    endloop
  endfacet
  facet normal -0.000000e+000 0.000000e+000 1.000000e+000
    outer loop
      vertex   -7.600000e+001 2.030000e+002 1.000000e+001
      vertex   -7.600000e+001 1.780000e+002 1.000000e+001
      vertex   -7.300000e+001 2.050000e+002 1.000000e+001
    endloop
  endfacet
  facet normal -0.000000e+000 1.000000e+000 0.000000e+000
    outer loop
      vertex   -8.200000e+001 2.050000e+002 0.000000e+000
      vertex   -8.200000e+001 2.050000e+002 1.000000e+001
      vertex   -7.300000e+001 2.050000e+002 0.000000e+000
    endloop
  endfacet
  facet normal 0.000000e+000 1.000000e+000 -0.000000e+000
    outer loop
      vertex   -7.300000e+001 2.050000e+002 0.000000e+000
      vertex   -8.200000e+001 2.050000e+002 1.000000e+001
      vertex   -7.300000e+001 2.050000e+002 1.000000e+001
    endloop
  endfacet
  facet normal -1.000000e+000 -0.000000e+000 -0.000000e+000
    outer loop
      vertex   -8.200000e+001 2.050000e+002 1.000000e+001
      vertex   -8.200000e+001 2.050000e+002 0.000000e+000
      vertex   -8.200000e+001 1.760000e+002 1.000000e+001
    endloop
  endfacet
  facet normal -1.000000e+000 -0.000000e+000 -0.000000e+000
    outer loop
      vertex   -8.200000e+001 1.760000e+002 1.000000e+001
      vertex   -8.200000e+001 2.050000e+002 0.000000e+000
      vertex   -8.200000e+001 1.760000e+002 0.000000e+000
    endloop
  endfacet
endsolid
