solid ascii
  facet normal 0.000000e+000 -1.000000e+000 0.000000e+000
    outer loop
      vertex   -8.000000e+001 1.195939e+002 5.000000e+000
      vertex   -8.000000e+001 1.195939e+002 0.000000e+000
      vertex   -7.000000e+001 1.195939e+002 5.000000e+000
    endloop
  endfacet
  facet normal 0.000000e+000 -1.000000e+000 -0.000000e+000
    outer loop
      vertex   -7.000000e+001 1.195939e+002 5.000000e+000
      vertex   -8.000000e+001 1.195939e+002 0.000000e+000
      vertex   -7.000000e+001 1.195939e+002 0.000000e+000
    endloop
  endfacet
  facet normal -1.000000e+000 -0.000000e+000 -0.000000e+000
    outer loop
      vertex   -7.000000e+001 1.195939e+002 5.000000e+000
      vertex   -7.000000e+001 1.195939e+002 0.000000e+000
      vertex   -7.000000e+001 8.959390e+001 5.000000e+000
    endloop
  endfacet
  facet normal -1.000000e+000 -0.000000e+000 -0.000000e+000
    outer loop
      vertex   -7.000000e+001 8.959390e+001 5.000000e+000
      vertex   -7.000000e+001 1.195939e+002 0.000000e+000
      vertex   -7.000000e+001 8.959390e+001 0.000000e+000
    endloop
  endfacet
  facet normal 0.000000e+000 1.000000e+000 0.000000e+000
    outer loop
      vertex   -7.000000e+001 8.959390e+001 5.000000e+000
      vertex   -7.000000e+001 8.959390e+001 0.000000e+000
      vertex   -8.000000e+001 8.959390e+001 5.000000e+000
    endloop
  endfacet
  facet normal 0.000000e+000 1.000000e+000 0.000000e+000
    outer loop
      vertex   -8.000000e+001 8.959390e+001 5.000000e+000
      vertex   -7.000000e+001 8.959390e+001 0.000000e+000
      vertex   -8.000000e+001 8.959390e+001 0.000000e+000
    endloop
  endfacet
  facet normal 1.000000e+000 -0.000000e+000 0.000000e+000
    outer loop
      vertex   -8.000000e+001 8.959390e+001 5.000000e+000
      vertex   -8.000000e+001 8.959390e+001 0.000000e+000
      vertex   -8.000000e+001 1.195939e+002 5.000000e+000
    endloop
  endfacet
  facet normal 1.000000e+000 -0.000000e+000 0.000000e+000
    outer loop
      vertex   -8.000000e+001 1.195939e+002 5.000000e+000
      vertex   -8.000000e+001 8.959390e+001 0.000000e+000
      vertex   -8.000000e+001 1.195939e+002 0.000000e+000
    endloop
  endfacet
  facet normal 0.000000e+000 -1.000000e+000 0.000000e+000
    outer loop
      vertex   -8.000000e+001 7.959390e+001 5.000000e+000
      vertex   -8.000000e+001 7.959390e+001 0.000000e+000
      vertex   -7.000000e+001 7.959390e+001 5.000000e+000
    endloop
  endfacet
  facet normal 0.000000e+000 -1.000000e+000 -0.000000e+000
    outer loop
      vertex   -7.000000e+001 7.959390e+001 5.000000e+000
      vertex   -8.000000e+001 7.959390e+001 0.000000e+000
      vertex   -7.000000e+001 7.959390e+001 0.000000e+000
    endloop
  endfacet
  facet normal -1.000000e+000 -0.000000e+000 -0.000000e+000
    outer loop
      vertex   -7.000000e+001 7.959390e+001 5.000000e+000
      vertex   -7.000000e+001 7.959390e+001 0.000000e+000
      vertex   -7.000000e+001 4.959390e+001 5.000000e+000
    endloop
  endfacet
  facet normal -1.000000e+000 -0.000000e+000 -0.000000e+000
    outer loop
      vertex   -7.000000e+001 4.959390e+001 5.000000e+000
      vertex   -7.000000e+001 7.959390e+001 0.000000e+000
      vertex   -7.000000e+001 4.959390e+001 0.000000e+000
    endloop
  endfacet
  facet normal 0.000000e+000 1.000000e+000 0.000000e+000
    outer loop
      vertex   -7.000000e+001 4.959390e+001 5.000000e+000
      vertex   -7.000000e+001 4.959390e+001 0.000000e+000
      vertex   -8.000000e+001 4.959390e+001 5.000000e+000
    endloop
  endfacet
  facet normal 0.000000e+000 1.000000e+000 0.000000e+000
    outer loop
      vertex   -8.000000e+001 4.959390e+001 5.000000e+000
      vertex   -7.000000e+001 4.959390e+001 0.000000e+000
      vertex   -8.000000e+001 4.959390e+001 0.000000e+000
    endloop
  endfacet
  facet normal 1.000000e+000 -0.000000e+000 0.000000e+000
    outer loop
      vertex   -8.000000e+001 4.959390e+001 5.000000e+000
      vertex   -8.000000e+001 4.959390e+001 0.000000e+000
      vertex   -8.000000e+001 7.959390e+001 5.000000e+000
    endloop
  endfacet
  facet normal 1.000000e+000 -0.000000e+000 0.000000e+000
    outer loop
      vertex   -8.000000e+001 7.959390e+001 5.000000e+000
      vertex   -8.000000e+001 4.959390e+001 0.000000e+000
      vertex   -8.000000e+001 7.959390e+001 0.000000e+000
    endloop
  endfacet
  facet normal 0.000000e+000 0.000000e+000 1.000000e+000
    outer loop
      vertex   -7.000000e+001 1.195939e+002 5.000000e+000
      vertex   -7.000000e+001 8.959390e+001 5.000000e+000
      vertex   -6.500000e+001 8.500000e+001 5.000000e+000
    endloop
  endfacet
  facet normal 0.000000e+000 0.000000e+000 1.000000e+000
    outer loop
      vertex   -6.500000e+001 1.250000e+002 5.000000e+000
      vertex   -7.000000e+001 1.195939e+002 5.000000e+000
      vertex   -6.500000e+001 8.500000e+001 5.000000e+000
    endloop
  endfacet
  facet normal 0.000000e+000 0.000000e+000 1.000000e+000
    outer loop
      vertex   -6.500000e+001 1.250000e+002 5.000000e+000
      vertex   -8.500000e+001 1.250000e+002 5.000000e+000
      vertex   -7.000000e+001 1.195939e+002 5.000000e+000
    endloop
  endfacet
  facet normal 0.000000e+000 0.000000e+000 1.000000e+000
    outer loop
      vertex   -7.000000e+001 1.195939e+002 5.000000e+000
      vertex   -8.500000e+001 1.250000e+002 5.000000e+000
      vertex   -8.000000e+001 1.195939e+002 5.000000e+000
    endloop
  endfacet
  facet normal 0.000000e+000 0.000000e+000 1.000000e+000
    outer loop
      vertex   -8.000000e+001 1.195939e+002 5.000000e+000
      vertex   -8.500000e+001 1.250000e+002 5.000000e+000
      vertex   -8.500000e+001 8.500000e+001 5.000000e+000
    endloop
  endfacet
  facet normal -0.000000e+000 0.000000e+000 1.000000e+000
    outer loop
      vertex   -8.000000e+001 8.959390e+001 5.000000e+000
      vertex   -8.500000e+001 8.500000e+001 5.000000e+000
      vertex   -6.500000e+001 8.500000e+001 5.000000e+000
    endloop
  endfacet
  facet normal 0.000000e+000 0.000000e+000 1.000000e+000
    outer loop
      vertex   -7.000000e+001 8.959390e+001 5.000000e+000
      vertex   -8.000000e+001 8.959390e+001 5.000000e+000
      vertex   -6.500000e+001 8.500000e+001 5.000000e+000
    endloop
  endfacet
  facet normal 0.000000e+000 -0.000000e+000 1.000000e+000
    outer loop
      vertex   -8.000000e+001 8.959390e+001 5.000000e+000
      vertex   -8.000000e+001 1.195939e+002 5.000000e+000
      vertex   -8.500000e+001 8.500000e+001 5.000000e+000
    endloop
  endfacet
  facet normal 0.000000e+000 0.000000e+000 1.000000e+000
    outer loop
      vertex   -7.000000e+001 7.959390e+001 5.000000e+000
      vertex   -7.000000e+001 4.959390e+001 5.000000e+000
      vertex   -6.500000e+001 4.500000e+001 5.000000e+000
    endloop
  endfacet
  facet normal 0.000000e+000 0.000000e+000 1.000000e+000
    outer loop
      vertex   -6.500000e+001 8.500000e+001 5.000000e+000
      vertex   -7.000000e+001 7.959390e+001 5.000000e+000
      vertex   -6.500000e+001 4.500000e+001 5.000000e+000
    endloop
  endfacet
  facet normal 0.000000e+000 0.000000e+000 1.000000e+000
    outer loop
      vertex   -6.500000e+001 8.500000e+001 5.000000e+000
      vertex   -8.500000e+001 8.500000e+001 5.000000e+000
      vertex   -7.000000e+001 7.959390e+001 5.000000e+000
    endloop
  endfacet
  facet normal 0.000000e+000 0.000000e+000 1.000000e+000
    outer loop
      vertex   -7.000000e+001 7.959390e+001 5.000000e+000
      vertex   -8.500000e+001 8.500000e+001 5.000000e+000
      vertex   -8.000000e+001 7.959390e+001 5.000000e+000
    endloop
  endfacet
  facet normal 0.000000e+000 0.000000e+000 1.000000e+000
    outer loop
      vertex   -8.000000e+001 7.959390e+001 5.000000e+000
      vertex   -8.500000e+001 8.500000e+001 5.000000e+000
      vertex   -8.500000e+001 4.500000e+001 5.000000e+000
    endloop
  endfacet
  facet normal -0.000000e+000 0.000000e+000 1.000000e+000
    outer loop
      vertex   -8.000000e+001 4.959390e+001 5.000000e+000
      vertex   -8.500000e+001 4.500000e+001 5.000000e+000
      vertex   -6.500000e+001 4.500000e+001 5.000000e+000
    endloop
  endfacet
  facet normal 0.000000e+000 0.000000e+000 1.000000e+000
    outer loop
      vertex   -7.000000e+001 4.959390e+001 5.000000e+000
      vertex   -8.000000e+001 4.959390e+001 5.000000e+000
      vertex   -6.500000e+001 4.500000e+001 5.000000e+000
    endloop
  endfacet
  facet normal 0.000000e+000 -0.000000e+000 1.000000e+000
    outer loop
      vertex   -8.000000e+001 4.959390e+001 5.000000e+000
      vertex   -8.000000e+001 7.959390e+001 5.000000e+000
      vertex   -8.500000e+001 4.500000e+001 5.000000e+000
    endloop
  endfacet
  facet normal -1.000000e+000 -0.000000e+000 -0.000000e+000
    outer loop
      vertex   -8.500000e+001 1.250000e+002 5.000000e+000
      vertex   -8.500000e+001 1.250000e+002 0.000000e+000
      vertex   -8.500000e+001 8.500000e+001 5.000000e+000
    endloop
  endfacet
  facet normal -1.000000e+000 -0.000000e+000 -0.000000e+000
    outer loop
      vertex   -8.500000e+001 8.500000e+001 5.000000e+000
      vertex   -8.500000e+001 1.250000e+002 0.000000e+000
      vertex   -8.500000e+001 8.500000e+001 0.000000e+000
    endloop
  endfacet
  facet normal -1.000000e+000 -0.000000e+000 -0.000000e+000
    outer loop
      vertex   -8.500000e+001 4.500000e+001 5.000000e+000
      vertex   -8.500000e+001 8.500000e+001 0.000000e+000
      vertex   -8.500000e+001 4.500000e+001 0.000000e+000
    endloop
  endfacet
  facet normal -1.000000e+000 0.000000e+000 0.000000e+000
    outer loop
      vertex   -8.500000e+001 4.500000e+001 5.000000e+000
      vertex   -8.500000e+001 8.500000e+001 5.000000e+000
      vertex   -8.500000e+001 8.500000e+001 0.000000e+000
    endloop
  endfacet
  facet normal 1.000000e+000 -0.000000e+000 0.000000e+000
    outer loop
      vertex   -6.500000e+001 4.500000e+001 5.000000e+000
      vertex   -6.500000e+001 4.500000e+001 0.000000e+000
      vertex   -6.500000e+001 8.500000e+001 5.000000e+000
    endloop
  endfacet
  facet normal 1.000000e+000 -0.000000e+000 0.000000e+000
    outer loop
      vertex   -6.500000e+001 8.500000e+001 5.000000e+000
      vertex   -6.500000e+001 4.500000e+001 0.000000e+000
      vertex   -6.500000e+001 8.500000e+001 0.000000e+000
    endloop
  endfacet
  facet normal 1.000000e+000 -0.000000e+000 0.000000e+000
    outer loop
      vertex   -6.500000e+001 1.250000e+002 5.000000e+000
      vertex   -6.500000e+001 8.500000e+001 0.000000e+000
      vertex   -6.500000e+001 1.250000e+002 0.000000e+000
    endloop
  endfacet
  facet normal 1.000000e+000 0.000000e+000 0.000000e+000
    outer loop
      vertex   -6.500000e+001 1.250000e+002 5.000000e+000
      vertex   -6.500000e+001 8.500000e+001 5.000000e+000
      vertex   -6.500000e+001 8.500000e+001 0.000000e+000
    endloop
  endfacet
  facet normal 0.000000e+000 -1.000000e+000 0.000000e+000
    outer loop
      vertex   -1.250000e+002 1.250000e+002 0.000000e+000
      vertex   -8.500000e+001 1.250000e+002 0.000000e+000
      vertex   -9.500000e+001 1.250000e+002 5.000000e+000
    endloop
  endfacet
  facet normal 0.000000e+000 -1.000000e+000 0.000000e+000
    outer loop
      vertex   -1.250000e+002 1.250000e+002 5.000000e+000
      vertex   -1.250000e+002 1.250000e+002 0.000000e+000
      vertex   -9.500000e+001 1.250000e+002 5.000000e+000
    endloop
  endfacet
  facet normal -0.000000e+000 -1.000000e+000 -0.000000e+000
    outer loop
      vertex   -6.500000e+001 1.250000e+002 5.000000e+000
      vertex   -9.500000e+001 1.250000e+002 1.000000e+001
      vertex   -8.500000e+001 1.250000e+002 5.000000e+000
    endloop
  endfacet
  facet normal 0.000000e+000 -1.000000e+000 0.000000e+000
    outer loop
      vertex   -6.500000e+001 1.250000e+002 5.000000e+000
      vertex   -5.500000e+001 1.250000e+002 1.000000e+001
      vertex   -9.500000e+001 1.250000e+002 1.000000e+001
    endloop
  endfacet
  facet normal 0.000000e+000 -1.000000e+000 0.000000e+000
    outer loop
      vertex   -6.500000e+001 1.250000e+002 5.000000e+000
      vertex   -5.500000e+001 1.250000e+002 5.000000e+000
      vertex   -5.500000e+001 1.250000e+002 1.000000e+001
    endloop
  endfacet
  facet normal 0.000000e+000 -1.000000e+000 0.000000e+000
    outer loop
      vertex   -6.500000e+001 1.250000e+002 5.000000e+000
      vertex   -6.500000e+001 1.250000e+002 0.000000e+000
      vertex   -5.500000e+001 1.250000e+002 5.000000e+000
    endloop
  endfacet
  facet normal 0.000000e+000 -1.000000e+000 -0.000000e+000
    outer loop
      vertex   -5.500000e+001 1.250000e+002 5.000000e+000
      vertex   -6.500000e+001 1.250000e+002 0.000000e+000
      vertex   -2.500000e+001 1.250000e+002 0.000000e+000
    endloop
  endfacet
  facet normal -0.000000e+000 -1.000000e+000 -0.000000e+000
    outer loop
      vertex   -2.500000e+001 1.250000e+002 5.000000e+000
      vertex   -5.500000e+001 1.250000e+002 5.000000e+000
      vertex   -2.500000e+001 1.250000e+002 0.000000e+000
    endloop
  endfacet
  facet normal 0.000000e+000 -1.000000e+000 0.000000e+000
    outer loop
      vertex   -9.500000e+001 1.250000e+002 1.000000e+001
      vertex   -9.500000e+001 1.250000e+002 5.000000e+000
      vertex   -8.500000e+001 1.250000e+002 5.000000e+000
    endloop
  endfacet
  facet normal -0.000000e+000 -1.000000e+000 -0.000000e+000
    outer loop
      vertex   -8.500000e+001 1.250000e+002 5.000000e+000
      vertex   -9.500000e+001 1.250000e+002 5.000000e+000
      vertex   -8.500000e+001 1.250000e+002 0.000000e+000
    endloop
  endfacet
  facet normal 0.000000e+000 -0.000000e+000 1.000000e+000
    outer loop
      vertex   -5.500000e+001 1.250000e+002 5.000000e+000
      vertex   -5.000000e+001 1.400000e+002 5.000000e+000
      vertex   -5.500000e+001 1.450000e+002 5.000000e+000
    endloop
  endfacet
  facet normal 0.000000e+000 0.000000e+000 1.000000e+000
    outer loop
      vertex   -5.500000e+001 1.250000e+002 5.000000e+000
      vertex   -5.000000e+001 1.300000e+002 5.000000e+000
      vertex   -5.000000e+001 1.400000e+002 5.000000e+000
    endloop
  endfacet
  facet normal 0.000000e+000 -0.000000e+000 1.000000e+000
    outer loop
      vertex   -5.500000e+001 1.250000e+002 5.000000e+000
      vertex   -3.500000e+001 1.300000e+002 5.000000e+000
      vertex   -5.000000e+001 1.300000e+002 5.000000e+000
    endloop
  endfacet
  facet normal 0.000000e+000 -0.000000e+000 1.000000e+000
    outer loop
      vertex   -5.500000e+001 1.250000e+002 5.000000e+000
      vertex   -2.500000e+001 1.250000e+002 5.000000e+000
      vertex   -3.500000e+001 1.300000e+002 5.000000e+000
    endloop
  endfacet
  facet normal -0.000000e+000 -0.000000e+000 1.000000e+000
    outer loop
      vertex   -3.500000e+001 1.300000e+002 5.000000e+000
      vertex   -2.500000e+001 1.250000e+002 5.000000e+000
      vertex   -3.500000e+001 1.400000e+002 5.000000e+000
    endloop
  endfacet
  facet normal -0.000000e+000 0.000000e+000 1.000000e+000
    outer loop
      vertex   -3.500000e+001 1.400000e+002 5.000000e+000
      vertex   -2.500000e+001 1.250000e+002 5.000000e+000
      vertex   -2.500000e+001 1.450000e+002 5.000000e+000
    endloop
  endfacet
  facet normal -0.000000e+000 0.000000e+000 1.000000e+000
    outer loop
      vertex   -5.500000e+001 1.450000e+002 5.000000e+000
      vertex   -3.500000e+001 1.400000e+002 5.000000e+000
      vertex   -2.500000e+001 1.450000e+002 5.000000e+000
    endloop
  endfacet
  facet normal -0.000000e+000 0.000000e+000 1.000000e+000
    outer loop
      vertex   -5.500000e+001 1.450000e+002 5.000000e+000
      vertex   -5.000000e+001 1.400000e+002 5.000000e+000
      vertex   -3.500000e+001 1.400000e+002 5.000000e+000
    endloop
  endfacet
  facet normal 0.000000e+000 0.000000e+000 1.000000e+000
    outer loop
      vertex   -1.000000e+002 1.400000e+002 5.000000e+000
      vertex   -1.000000e+002 1.300000e+002 5.000000e+000
      vertex   -9.500000e+001 1.250000e+002 5.000000e+000
    endloop
  endfacet
  facet normal 0.000000e+000 0.000000e+000 1.000000e+000
    outer loop
      vertex   -9.500000e+001 1.450000e+002 5.000000e+000
      vertex   -1.000000e+002 1.400000e+002 5.000000e+000
      vertex   -9.500000e+001 1.250000e+002 5.000000e+000
    endloop
  endfacet
  facet normal -0.000000e+000 0.000000e+000 1.000000e+000
    outer loop
      vertex   -9.500000e+001 1.450000e+002 5.000000e+000
      vertex   -1.150000e+002 1.400000e+002 5.000000e+000
      vertex   -1.000000e+002 1.400000e+002 5.000000e+000
    endloop
  endfacet
  facet normal 0.000000e+000 0.000000e+000 1.000000e+000
    outer loop
      vertex   -9.500000e+001 1.450000e+002 5.000000e+000
      vertex   -1.250000e+002 1.450000e+002 5.000000e+000
      vertex   -1.150000e+002 1.400000e+002 5.000000e+000
    endloop
  endfacet
  facet normal 0.000000e+000 0.000000e+000 1.000000e+000
    outer loop
      vertex   -1.150000e+002 1.400000e+002 5.000000e+000
      vertex   -1.250000e+002 1.450000e+002 5.000000e+000
      vertex   -1.250000e+002 1.250000e+002 5.000000e+000
    endloop
  endfacet
  facet normal -0.000000e+000 0.000000e+000 1.000000e+000
    outer loop
      vertex   -1.150000e+002 1.300000e+002 5.000000e+000
      vertex   -1.250000e+002 1.250000e+002 5.000000e+000
      vertex   -9.500000e+001 1.250000e+002 5.000000e+000
    endloop
  endfacet
  facet normal 0.000000e+000 0.000000e+000 1.000000e+000
    outer loop
      vertex   -1.000000e+002 1.300000e+002 5.000000e+000
      vertex   -1.150000e+002 1.300000e+002 5.000000e+000
      vertex   -9.500000e+001 1.250000e+002 5.000000e+000
    endloop
  endfacet
  facet normal 0.000000e+000 -0.000000e+000 1.000000e+000
    outer loop
      vertex   -1.150000e+002 1.300000e+002 5.000000e+000
      vertex   -1.150000e+002 1.400000e+002 5.000000e+000
      vertex   -1.250000e+002 1.250000e+002 5.000000e+000
    endloop
  endfacet
  facet normal 0.000000e+000 -1.000000e+000 0.000000e+000
    outer loop
      vertex   -1.150000e+002 1.400000e+002 5.000000e+000
      vertex   -1.150000e+002 1.400000e+002 0.000000e+000
      vertex   -1.000000e+002 1.400000e+002 5.000000e+000
    endloop
  endfacet
  facet normal 0.000000e+000 -1.000000e+000 -0.000000e+000
    outer loop
      vertex   -1.000000e+002 1.400000e+002 5.000000e+000
      vertex   -1.150000e+002 1.400000e+002 0.000000e+000
      vertex   -1.000000e+002 1.400000e+002 0.000000e+000
    endloop
  endfacet
  facet normal -1.000000e+000 -0.000000e+000 -0.000000e+000
    outer loop
      vertex   -1.000000e+002 1.400000e+002 5.000000e+000
      vertex   -1.000000e+002 1.400000e+002 0.000000e+000
      vertex   -1.000000e+002 1.300000e+002 5.000000e+000
    endloop
  endfacet
  facet normal -1.000000e+000 -0.000000e+000 -0.000000e+000
    outer loop
      vertex   -1.000000e+002 1.300000e+002 5.000000e+000
      vertex   -1.000000e+002 1.400000e+002 0.000000e+000
      vertex   -1.000000e+002 1.300000e+002 0.000000e+000
    endloop
  endfacet
  facet normal 0.000000e+000 1.000000e+000 0.000000e+000
    outer loop
      vertex   -1.000000e+002 1.300000e+002 5.000000e+000
      vertex   -1.000000e+002 1.300000e+002 0.000000e+000
      vertex   -1.150000e+002 1.300000e+002 5.000000e+000
    endloop
  endfacet
  facet normal 0.000000e+000 1.000000e+000 0.000000e+000
    outer loop
      vertex   -1.150000e+002 1.300000e+002 5.000000e+000
      vertex   -1.000000e+002 1.300000e+002 0.000000e+000
      vertex   -1.150000e+002 1.300000e+002 0.000000e+000
    endloop
  endfacet
  facet normal 1.000000e+000 -0.000000e+000 0.000000e+000
    outer loop
      vertex   -1.150000e+002 1.300000e+002 5.000000e+000
      vertex   -1.150000e+002 1.300000e+002 0.000000e+000
      vertex   -1.150000e+002 1.400000e+002 5.000000e+000
    endloop
  endfacet
  facet normal 1.000000e+000 -0.000000e+000 0.000000e+000
    outer loop
      vertex   -1.150000e+002 1.400000e+002 5.000000e+000
      vertex   -1.150000e+002 1.300000e+002 0.000000e+000
      vertex   -1.150000e+002 1.400000e+002 0.000000e+000
    endloop
  endfacet
  facet normal 0.000000e+000 -1.000000e+000 0.000000e+000
    outer loop
      vertex   -5.000000e+001 1.400000e+002 5.000000e+000
      vertex   -5.000000e+001 1.400000e+002 0.000000e+000
      vertex   -3.500000e+001 1.400000e+002 5.000000e+000
    endloop
  endfacet
  facet normal 0.000000e+000 -1.000000e+000 -0.000000e+000
    outer loop
      vertex   -3.500000e+001 1.400000e+002 5.000000e+000
      vertex   -5.000000e+001 1.400000e+002 0.000000e+000
      vertex   -3.500000e+001 1.400000e+002 0.000000e+000
    endloop
  endfacet
  facet normal -1.000000e+000 -0.000000e+000 -0.000000e+000
    outer loop
      vertex   -3.500000e+001 1.400000e+002 5.000000e+000
      vertex   -3.500000e+001 1.400000e+002 0.000000e+000
      vertex   -3.500000e+001 1.300000e+002 5.000000e+000
    endloop
  endfacet
  facet normal -1.000000e+000 -0.000000e+000 -0.000000e+000
    outer loop
      vertex   -3.500000e+001 1.300000e+002 5.000000e+000
      vertex   -3.500000e+001 1.400000e+002 0.000000e+000
      vertex   -3.500000e+001 1.300000e+002 0.000000e+000
    endloop
  endfacet
  facet normal 0.000000e+000 1.000000e+000 0.000000e+000
    outer loop
      vertex   -3.500000e+001 1.300000e+002 5.000000e+000
      vertex   -3.500000e+001 1.300000e+002 0.000000e+000
      vertex   -5.000000e+001 1.300000e+002 5.000000e+000
    endloop
  endfacet
  facet normal 0.000000e+000 1.000000e+000 0.000000e+000
    outer loop
      vertex   -5.000000e+001 1.300000e+002 5.000000e+000
      vertex   -3.500000e+001 1.300000e+002 0.000000e+000
      vertex   -5.000000e+001 1.300000e+002 0.000000e+000
    endloop
  endfacet
  facet normal 1.000000e+000 -0.000000e+000 0.000000e+000
    outer loop
      vertex   -5.000000e+001 1.300000e+002 5.000000e+000
      vertex   -5.000000e+001 1.300000e+002 0.000000e+000
      vertex   -5.000000e+001 1.400000e+002 5.000000e+000
    endloop
  endfacet
  facet normal 1.000000e+000 -0.000000e+000 0.000000e+000
    outer loop
      vertex   -5.000000e+001 1.400000e+002 5.000000e+000
      vertex   -5.000000e+001 1.300000e+002 0.000000e+000
      vertex   -5.000000e+001 1.400000e+002 0.000000e+000
    endloop
  endfacet
  facet normal -1.000000e+000 -0.000000e+000 -0.000000e+000
    outer loop
      vertex   -1.250000e+002 1.450000e+002 5.000000e+000
      vertex   -1.250000e+002 1.450000e+002 0.000000e+000
      vertex   -1.250000e+002 1.250000e+002 5.000000e+000
    endloop
  endfacet
  facet normal -1.000000e+000 -0.000000e+000 -0.000000e+000
    outer loop
      vertex   -1.250000e+002 1.250000e+002 5.000000e+000
      vertex   -1.250000e+002 1.450000e+002 0.000000e+000
      vertex   -1.250000e+002 1.250000e+002 0.000000e+000
    endloop
  endfacet
  facet normal 1.000000e+000 -0.000000e+000 0.000000e+000
    outer loop
      vertex   -2.500000e+001 1.250000e+002 5.000000e+000
      vertex   -2.500000e+001 1.250000e+002 0.000000e+000
      vertex   -2.500000e+001 1.450000e+002 5.000000e+000
    endloop
  endfacet
  facet normal 1.000000e+000 -0.000000e+000 0.000000e+000
    outer loop
      vertex   -2.500000e+001 1.450000e+002 5.000000e+000
      vertex   -2.500000e+001 1.250000e+002 0.000000e+000
      vertex   -2.500000e+001 1.450000e+002 0.000000e+000
    endloop
  endfacet
  facet normal -1.000000e+000 0.000000e+000 0.000000e+000
    outer loop
      vertex   -5.975000e+001 1.297500e+002 0.000000e+000
      vertex   -5.975000e+001 1.297500e+002 1.000000e+001
      vertex   -5.975000e+001 1.402500e+002 0.000000e+000
    endloop
  endfacet
  facet normal -1.000000e+000 0.000000e+000 0.000000e+000
    outer loop
      vertex   -5.975000e+001 1.402500e+002 0.000000e+000
      vertex   -5.975000e+001 1.297500e+002 1.000000e+001
      vertex   -5.975000e+001 1.402500e+002 1.000000e+001
    endloop
  endfacet
  facet normal -0.000000e+000 1.000000e+000 0.000000e+000
    outer loop
      vertex   -7.025000e+001 1.297500e+002 0.000000e+000
      vertex   -7.025000e+001 1.297500e+002 1.000000e+001
      vertex   -5.975000e+001 1.297500e+002 0.000000e+000
    endloop
  endfacet
  facet normal 0.000000e+000 1.000000e+000 -0.000000e+000
    outer loop
      vertex   -5.975000e+001 1.297500e+002 0.000000e+000
      vertex   -7.025000e+001 1.297500e+002 1.000000e+001
      vertex   -5.975000e+001 1.297500e+002 1.000000e+001
    endloop
  endfacet
  facet normal -1.000000e+000 0.000000e+000 0.000000e+000
    outer loop
      vertex   -7.975000e+001 1.297500e+002 0.000000e+000
      vertex   -7.975000e+001 1.297500e+002 1.000000e+001
      vertex   -7.975000e+001 1.402500e+002 0.000000e+000
    endloop
  endfacet
  facet normal -1.000000e+000 0.000000e+000 0.000000e+000
    outer loop
      vertex   -7.975000e+001 1.402500e+002 0.000000e+000
      vertex   -7.975000e+001 1.297500e+002 1.000000e+001
      vertex   -7.975000e+001 1.402500e+002 1.000000e+001
    endloop
  endfacet
  facet normal -0.000000e+000 1.000000e+000 0.000000e+000
    outer loop
      vertex   -9.025000e+001 1.297500e+002 0.000000e+000
      vertex   -9.025000e+001 1.297500e+002 1.000000e+001
      vertex   -7.975000e+001 1.297500e+002 0.000000e+000
    endloop
  endfacet
  facet normal 0.000000e+000 1.000000e+000 -0.000000e+000
    outer loop
      vertex   -7.975000e+001 1.297500e+002 0.000000e+000
      vertex   -9.025000e+001 1.297500e+002 1.000000e+001
      vertex   -7.975000e+001 1.297500e+002 1.000000e+001
    endloop
  endfacet
  facet normal 1.000000e+000 0.000000e+000 -0.000000e+000
    outer loop
      vertex   -5.500000e+001 1.450000e+002 5.000000e+000
      vertex   -5.500000e+001 1.450000e+002 1.000000e+001
      vertex   -5.500000e+001 1.250000e+002 5.000000e+000
    endloop
  endfacet
  facet normal 1.000000e+000 0.000000e+000 -0.000000e+000
    outer loop
      vertex   -5.500000e+001 1.250000e+002 5.000000e+000
      vertex   -5.500000e+001 1.450000e+002 1.000000e+001
      vertex   -5.500000e+001 1.250000e+002 1.000000e+001
    endloop
  endfacet
  facet normal -0.000000e+000 -1.000000e+000 0.000000e+000
    outer loop
      vertex   -5.975000e+001 1.402500e+002 0.000000e+000
      vertex   -5.975000e+001 1.402500e+002 1.000000e+001
      vertex   -7.025000e+001 1.402500e+002 0.000000e+000
    endloop
  endfacet
  facet normal 0.000000e+000 -1.000000e+000 0.000000e+000
    outer loop
      vertex   -7.025000e+001 1.402500e+002 0.000000e+000
      vertex   -5.975000e+001 1.402500e+002 1.000000e+001
      vertex   -7.025000e+001 1.402500e+002 1.000000e+001
    endloop
  endfacet
  facet normal 1.000000e+000 0.000000e+000 -0.000000e+000
    outer loop
      vertex   -7.025000e+001 1.402500e+002 0.000000e+000
      vertex   -7.025000e+001 1.402500e+002 1.000000e+001
      vertex   -7.025000e+001 1.297500e+002 0.000000e+000
    endloop
  endfacet
  facet normal 1.000000e+000 0.000000e+000 -0.000000e+000
    outer loop
      vertex   -7.025000e+001 1.297500e+002 0.000000e+000
      vertex   -7.025000e+001 1.402500e+002 1.000000e+001
      vertex   -7.025000e+001 1.297500e+002 1.000000e+001
    endloop
  endfacet
  facet normal -0.000000e+000 -1.000000e+000 0.000000e+000
    outer loop
      vertex   -7.975000e+001 1.402500e+002 0.000000e+000
      vertex   -7.975000e+001 1.402500e+002 1.000000e+001
      vertex   -9.025000e+001 1.402500e+002 0.000000e+000
    endloop
  endfacet
  facet normal 0.000000e+000 -1.000000e+000 0.000000e+000
    outer loop
      vertex   -9.025000e+001 1.402500e+002 0.000000e+000
      vertex   -7.975000e+001 1.402500e+002 1.000000e+001
      vertex   -9.025000e+001 1.402500e+002 1.000000e+001
    endloop
  endfacet
  facet normal 1.000000e+000 0.000000e+000 -0.000000e+000
    outer loop
      vertex   -9.025000e+001 1.402500e+002 0.000000e+000
      vertex   -9.025000e+001 1.402500e+002 1.000000e+001
      vertex   -9.025000e+001 1.297500e+002 0.000000e+000
    endloop
  endfacet
  facet normal 1.000000e+000 0.000000e+000 -0.000000e+000
    outer loop
      vertex   -9.025000e+001 1.297500e+002 0.000000e+000
      vertex   -9.025000e+001 1.402500e+002 1.000000e+001
      vertex   -9.025000e+001 1.297500e+002 1.000000e+001
    endloop
  endfacet
  facet normal 0.000000e+000 0.000000e+000 1.000000e+000
    outer loop
      vertex   -5.975000e+001 1.402500e+002 1.000000e+001
      vertex   -5.975000e+001 1.297500e+002 1.000000e+001
      vertex   -5.500000e+001 1.250000e+002 1.000000e+001
    endloop
  endfacet
  facet normal 0.000000e+000 0.000000e+000 1.000000e+000
    outer loop
      vertex   -5.500000e+001 1.450000e+002 1.000000e+001
      vertex   -5.975000e+001 1.402500e+002 1.000000e+001
      vertex   -5.500000e+001 1.250000e+002 1.000000e+001
    endloop
  endfacet
  facet normal -0.000000e+000 0.000000e+000 1.000000e+000
    outer loop
      vertex   -5.500000e+001 1.450000e+002 1.000000e+001
      vertex   -7.025000e+001 1.402500e+002 1.000000e+001
      vertex   -5.975000e+001 1.402500e+002 1.000000e+001
    endloop
  endfacet
  facet normal 0.000000e+000 0.000000e+000 1.000000e+000
    outer loop
      vertex   -5.500000e+001 1.450000e+002 1.000000e+001
      vertex   -9.500000e+001 1.450000e+002 1.000000e+001
      vertex   -7.025000e+001 1.402500e+002 1.000000e+001
    endloop
  endfacet
  facet normal 0.000000e+000 0.000000e+000 1.000000e+000
    outer loop
      vertex   -7.025000e+001 1.402500e+002 1.000000e+001
      vertex   -9.500000e+001 1.450000e+002 1.000000e+001
      vertex   -7.975000e+001 1.402500e+002 1.000000e+001
    endloop
  endfacet
  facet normal 0.000000e+000 0.000000e+000 1.000000e+000
    outer loop
      vertex   -7.025000e+001 1.297500e+002 1.000000e+001
      vertex   -7.975000e+001 1.402500e+002 1.000000e+001
      vertex   -7.975000e+001 1.297500e+002 1.000000e+001
    endloop
  endfacet
  facet normal 0.000000e+000 0.000000e+000 1.000000e+000
    outer loop
      vertex   -5.500000e+001 1.250000e+002 1.000000e+001
      vertex   -7.975000e+001 1.297500e+002 1.000000e+001
      vertex   -9.500000e+001 1.250000e+002 1.000000e+001
    endloop
  endfacet
  facet normal 0.000000e+000 0.000000e+000 1.000000e+000
    outer loop
      vertex   -5.500000e+001 1.250000e+002 1.000000e+001
      vertex   -7.025000e+001 1.297500e+002 1.000000e+001
      vertex   -7.975000e+001 1.297500e+002 1.000000e+001
    endloop
  endfacet
  facet normal 0.000000e+000 0.000000e+000 1.000000e+000
    outer loop
      vertex   -5.500000e+001 1.250000e+002 1.000000e+001
      vertex   -5.975000e+001 1.297500e+002 1.000000e+001
      vertex   -7.025000e+001 1.297500e+002 1.000000e+001
    endloop
  endfacet
  facet normal 0.000000e+000 -0.000000e+000 1.000000e+000
    outer loop
      vertex   -7.025000e+001 1.297500e+002 1.000000e+001
      vertex   -7.025000e+001 1.402500e+002 1.000000e+001
      vertex   -7.975000e+001 1.402500e+002 1.000000e+001
    endloop
  endfacet
  facet normal 0.000000e+000 0.000000e+000 1.000000e+000
    outer loop
      vertex   -7.975000e+001 1.297500e+002 1.000000e+001
      vertex   -9.025000e+001 1.297500e+002 1.000000e+001
      vertex   -9.500000e+001 1.250000e+002 1.000000e+001
    endloop
  endfacet
  facet normal 0.000000e+000 0.000000e+000 1.000000e+000
    outer loop
      vertex   -9.500000e+001 1.250000e+002 1.000000e+001
      vertex   -9.025000e+001 1.297500e+002 1.000000e+001
      vertex   -9.025000e+001 1.402500e+002 1.000000e+001
    endloop
  endfacet
  facet normal -0.000000e+000 0.000000e+000 1.000000e+000
    outer loop
      vertex   -9.500000e+001 1.450000e+002 1.000000e+001
      vertex   -9.025000e+001 1.402500e+002 1.000000e+001
      vertex   -7.975000e+001 1.402500e+002 1.000000e+001
    endloop
  endfacet
  facet normal -0.000000e+000 0.000000e+000 1.000000e+000
    outer loop
      vertex   -9.500000e+001 1.450000e+002 1.000000e+001
      vertex   -9.500000e+001 1.250000e+002 1.000000e+001
      vertex   -9.025000e+001 1.402500e+002 1.000000e+001
    endloop
  endfacet
  facet normal -1.000000e+000 0.000000e+000 0.000000e+000
    outer loop
      vertex   -9.500000e+001 1.250000e+002 5.000000e+000
      vertex   -9.500000e+001 1.250000e+002 1.000000e+001
      vertex   -9.500000e+001 1.450000e+002 5.000000e+000
    endloop
  endfacet
  facet normal -1.000000e+000 0.000000e+000 0.000000e+000
    outer loop
      vertex   -9.500000e+001 1.450000e+002 5.000000e+000
      vertex   -9.500000e+001 1.250000e+002 1.000000e+001
      vertex   -9.500000e+001 1.450000e+002 1.000000e+001
    endloop
  endfacet
  facet normal -0.000000e+000 1.000000e+000 0.000000e+000
    outer loop
      vertex   -9.500000e+001 1.450000e+002 1.000000e+001
      vertex   -5.500000e+001 1.450000e+002 1.000000e+001
      vertex   -9.500000e+001 1.450000e+002 5.000000e+000
    endloop
  endfacet
  facet normal -0.000000e+000 1.000000e+000 0.000000e+000
    outer loop
      vertex   -9.500000e+001 1.450000e+002 5.000000e+000
      vertex   -5.500000e+001 1.450000e+002 1.000000e+001
      vertex   -5.500000e+001 1.450000e+002 5.000000e+000
    endloop
  endfacet
  facet normal -0.000000e+000 1.000000e+000 0.000000e+000
    outer loop
      vertex   -7.500000e+001 1.450000e+002 0.000000e+000
      vertex   -5.500000e+001 1.450000e+002 5.000000e+000
      vertex   -2.500000e+001 1.450000e+002 0.000000e+000
    endloop
  endfacet
  facet normal 0.000000e+000 1.000000e+000 -0.000000e+000
    outer loop
      vertex   -7.500000e+001 1.450000e+002 0.000000e+000
      vertex   -9.500000e+001 1.450000e+002 5.000000e+000
      vertex   -5.500000e+001 1.450000e+002 5.000000e+000
    endloop
  endfacet
  facet normal 0.000000e+000 1.000000e+000 -0.000000e+000
    outer loop
      vertex   -7.500000e+001 1.450000e+002 0.000000e+000
      vertex   -1.250000e+002 1.450000e+002 0.000000e+000
      vertex   -9.500000e+001 1.450000e+002 5.000000e+000
    endloop
  endfacet
  facet normal 0.000000e+000 1.000000e+000 -0.000000e+000
    outer loop
      vertex   -9.500000e+001 1.450000e+002 5.000000e+000
      vertex   -1.250000e+002 1.450000e+002 0.000000e+000
      vertex   -1.250000e+002 1.450000e+002 5.000000e+000
    endloop
  endfacet
  facet normal -0.000000e+000 1.000000e+000 0.000000e+000
    outer loop
      vertex   -5.500000e+001 1.450000e+002 5.000000e+000
      vertex   -2.500000e+001 1.450000e+002 5.000000e+000
      vertex   -2.500000e+001 1.450000e+002 0.000000e+000
    endloop
  endfacet
  facet normal 0.000000e+000 1.000000e+000 -0.000000e+000
    outer loop
      vertex   -2.500000e+001 4.500000e+001 0.000000e+000
      vertex   -6.500000e+001 4.500000e+001 0.000000e+000
      vertex   -5.500000e+001 4.500000e+001 5.000000e+000
    endloop
  endfacet
  facet normal 0.000000e+000 1.000000e+000 0.000000e+000
    outer loop
      vertex   -2.500000e+001 4.500000e+001 5.000000e+000
      vertex   -2.500000e+001 4.500000e+001 0.000000e+000
      vertex   -5.500000e+001 4.500000e+001 5.000000e+000
    endloop
  endfacet
  facet normal -0.000000e+000 1.000000e+000 0.000000e+000
    outer loop
      vertex   -8.500000e+001 4.500000e+001 5.000000e+000
      vertex   -5.500000e+001 4.500000e+001 1.000000e+001
      vertex   -6.500000e+001 4.500000e+001 5.000000e+000
    endloop
  endfacet
  facet normal 0.000000e+000 1.000000e+000 -0.000000e+000
    outer loop
      vertex   -8.500000e+001 4.500000e+001 5.000000e+000
      vertex   -9.500000e+001 4.500000e+001 1.000000e+001
      vertex   -5.500000e+001 4.500000e+001 1.000000e+001
    endloop
  endfacet
  facet normal 0.000000e+000 1.000000e+000 -0.000000e+000
    outer loop
      vertex   -8.500000e+001 4.500000e+001 5.000000e+000
      vertex   -9.500000e+001 4.500000e+001 5.000000e+000
      vertex   -9.500000e+001 4.500000e+001 1.000000e+001
    endloop
  endfacet
  facet normal 0.000000e+000 1.000000e+000 0.000000e+000
    outer loop
      vertex   -8.500000e+001 4.500000e+001 5.000000e+000
      vertex   -8.500000e+001 4.500000e+001 0.000000e+000
      vertex   -9.500000e+001 4.500000e+001 5.000000e+000
    endloop
  endfacet
  facet normal 0.000000e+000 1.000000e+000 0.000000e+000
    outer loop
      vertex   -9.500000e+001 4.500000e+001 5.000000e+000
      vertex   -8.500000e+001 4.500000e+001 0.000000e+000
      vertex   -1.250000e+002 4.500000e+001 0.000000e+000
    endloop
  endfacet
  facet normal -0.000000e+000 1.000000e+000 0.000000e+000
    outer loop
      vertex   -1.250000e+002 4.500000e+001 5.000000e+000
      vertex   -9.500000e+001 4.500000e+001 5.000000e+000
      vertex   -1.250000e+002 4.500000e+001 0.000000e+000
    endloop
  endfacet
  facet normal 0.000000e+000 1.000000e+000 0.000000e+000
    outer loop
      vertex   -5.500000e+001 4.500000e+001 1.000000e+001
      vertex   -5.500000e+001 4.500000e+001 5.000000e+000
      vertex   -6.500000e+001 4.500000e+001 5.000000e+000
    endloop
  endfacet
  facet normal -0.000000e+000 1.000000e+000 0.000000e+000
    outer loop
      vertex   -6.500000e+001 4.500000e+001 5.000000e+000
      vertex   -5.500000e+001 4.500000e+001 5.000000e+000
      vertex   -6.500000e+001 4.500000e+001 0.000000e+000
    endloop
  endfacet
  facet normal 1.000000e+000 0.000000e+000 -0.000000e+000
    outer loop
      vertex   -5.500000e+001 4.500000e+001 5.000000e+000
      vertex   -5.500000e+001 4.500000e+001 1.000000e+001
      vertex   -5.500000e+001 2.500000e+001 5.000000e+000
    endloop
  endfacet
  facet normal 1.000000e+000 0.000000e+000 -0.000000e+000
    outer loop
      vertex   -5.500000e+001 2.500000e+001 5.000000e+000
      vertex   -5.500000e+001 4.500000e+001 1.000000e+001
      vertex   -5.500000e+001 2.500000e+001 1.000000e+001
    endloop
  endfacet
  facet normal 0.000000e+000 -0.000000e+000 1.000000e+000
    outer loop
      vertex   -5.500000e+001 2.500000e+001 5.000000e+000
      vertex   -5.000000e+001 4.000000e+001 5.000000e+000
      vertex   -5.500000e+001 4.500000e+001 5.000000e+000
    endloop
  endfacet
  facet normal 0.000000e+000 0.000000e+000 1.000000e+000
    outer loop
      vertex   -5.500000e+001 2.500000e+001 5.000000e+000
      vertex   -5.000000e+001 3.000000e+001 5.000000e+000
      vertex   -5.000000e+001 4.000000e+001 5.000000e+000
    endloop
  endfacet
  facet normal 0.000000e+000 -0.000000e+000 1.000000e+000
    outer loop
      vertex   -5.500000e+001 2.500000e+001 5.000000e+000
      vertex   -3.500000e+001 3.000000e+001 5.000000e+000
      vertex   -5.000000e+001 3.000000e+001 5.000000e+000
    endloop
  endfacet
  facet normal 0.000000e+000 -0.000000e+000 1.000000e+000
    outer loop
      vertex   -5.500000e+001 2.500000e+001 5.000000e+000
      vertex   -2.500000e+001 2.500000e+001 5.000000e+000
      vertex   -3.500000e+001 3.000000e+001 5.000000e+000
    endloop
  endfacet
  facet normal -0.000000e+000 -0.000000e+000 1.000000e+000
    outer loop
      vertex   -3.500000e+001 3.000000e+001 5.000000e+000
      vertex   -2.500000e+001 2.500000e+001 5.000000e+000
      vertex   -3.500000e+001 4.000000e+001 5.000000e+000
    endloop
  endfacet
  facet normal -0.000000e+000 0.000000e+000 1.000000e+000
    outer loop
      vertex   -3.500000e+001 4.000000e+001 5.000000e+000
      vertex   -2.500000e+001 2.500000e+001 5.000000e+000
      vertex   -2.500000e+001 4.500000e+001 5.000000e+000
    endloop
  endfacet
  facet normal -0.000000e+000 0.000000e+000 1.000000e+000
    outer loop
      vertex   -5.500000e+001 4.500000e+001 5.000000e+000
      vertex   -3.500000e+001 4.000000e+001 5.000000e+000
      vertex   -2.500000e+001 4.500000e+001 5.000000e+000
    endloop
  endfacet
  facet normal -0.000000e+000 0.000000e+000 1.000000e+000
    outer loop
      vertex   -5.500000e+001 4.500000e+001 5.000000e+000
      vertex   -5.000000e+001 4.000000e+001 5.000000e+000
      vertex   -3.500000e+001 4.000000e+001 5.000000e+000
    endloop
  endfacet
  facet normal -1.000000e+000 0.000000e+000 0.000000e+000
    outer loop
      vertex   -9.500000e+001 2.500000e+001 5.000000e+000
      vertex   -9.500000e+001 2.500000e+001 1.000000e+001
      vertex   -9.500000e+001 4.500000e+001 5.000000e+000
    endloop
  endfacet
  facet normal -1.000000e+000 0.000000e+000 0.000000e+000
    outer loop
      vertex   -9.500000e+001 4.500000e+001 5.000000e+000
      vertex   -9.500000e+001 2.500000e+001 1.000000e+001
      vertex   -9.500000e+001 4.500000e+001 1.000000e+001
    endloop
  endfacet
  facet normal 0.000000e+000 0.000000e+000 1.000000e+000
    outer loop
      vertex   -5.975000e+001 4.025000e+001 1.000000e+001
      vertex   -5.975000e+001 2.975000e+001 1.000000e+001
      vertex   -5.500000e+001 2.500000e+001 1.000000e+001
    endloop
  endfacet
  facet normal 0.000000e+000 0.000000e+000 1.000000e+000
    outer loop
      vertex   -5.500000e+001 4.500000e+001 1.000000e+001
      vertex   -5.975000e+001 4.025000e+001 1.000000e+001
      vertex   -5.500000e+001 2.500000e+001 1.000000e+001
    endloop
  endfacet
  facet normal -0.000000e+000 0.000000e+000 1.000000e+000
    outer loop
      vertex   -5.500000e+001 4.500000e+001 1.000000e+001
      vertex   -7.025000e+001 4.025000e+001 1.000000e+001
      vertex   -5.975000e+001 4.025000e+001 1.000000e+001
    endloop
  endfacet
  facet normal 0.000000e+000 0.000000e+000 1.000000e+000
    outer loop
      vertex   -5.500000e+001 4.500000e+001 1.000000e+001
      vertex   -9.500000e+001 4.500000e+001 1.000000e+001
      vertex   -7.025000e+001 4.025000e+001 1.000000e+001
    endloop
  endfacet
  facet normal 0.000000e+000 0.000000e+000 1.000000e+000
    outer loop
      vertex   -7.025000e+001 4.025000e+001 1.000000e+001
      vertex   -9.500000e+001 4.500000e+001 1.000000e+001
      vertex   -7.975000e+001 4.025000e+001 1.000000e+001
    endloop
  endfacet
  facet normal 0.000000e+000 0.000000e+000 1.000000e+000
    outer loop
      vertex   -7.025000e+001 2.975000e+001 1.000000e+001
      vertex   -7.975000e+001 4.025000e+001 1.000000e+001
      vertex   -7.975000e+001 2.975000e+001 1.000000e+001
    endloop
  endfacet
  facet normal 0.000000e+000 0.000000e+000 1.000000e+000
    outer loop
      vertex   -5.500000e+001 2.500000e+001 1.000000e+001
      vertex   -7.975000e+001 2.975000e+001 1.000000e+001
      vertex   -9.500000e+001 2.500000e+001 1.000000e+001
    endloop
  endfacet
  facet normal 0.000000e+000 0.000000e+000 1.000000e+000
    outer loop
      vertex   -5.500000e+001 2.500000e+001 1.000000e+001
      vertex   -7.025000e+001 2.975000e+001 1.000000e+001
      vertex   -7.975000e+001 2.975000e+001 1.000000e+001
    endloop
  endfacet
  facet normal 0.000000e+000 0.000000e+000 1.000000e+000
    outer loop
      vertex   -5.500000e+001 2.500000e+001 1.000000e+001
      vertex   -5.975000e+001 2.975000e+001 1.000000e+001
      vertex   -7.025000e+001 2.975000e+001 1.000000e+001
    endloop
  endfacet
  facet normal 0.000000e+000 -0.000000e+000 1.000000e+000
    outer loop
      vertex   -7.025000e+001 2.975000e+001 1.000000e+001
      vertex   -7.025000e+001 4.025000e+001 1.000000e+001
      vertex   -7.975000e+001 4.025000e+001 1.000000e+001
    endloop
  endfacet
  facet normal 0.000000e+000 0.000000e+000 1.000000e+000
    outer loop
      vertex   -7.975000e+001 2.975000e+001 1.000000e+001
      vertex   -9.025000e+001 2.975000e+001 1.000000e+001
      vertex   -9.500000e+001 2.500000e+001 1.000000e+001
    endloop
  endfacet
  facet normal 0.000000e+000 0.000000e+000 1.000000e+000
    outer loop
      vertex   -9.500000e+001 2.500000e+001 1.000000e+001
      vertex   -9.025000e+001 2.975000e+001 1.000000e+001
      vertex   -9.025000e+001 4.025000e+001 1.000000e+001
    endloop
  endfacet
  facet normal -0.000000e+000 0.000000e+000 1.000000e+000
    outer loop
      vertex   -9.500000e+001 4.500000e+001 1.000000e+001
      vertex   -9.025000e+001 4.025000e+001 1.000000e+001
      vertex   -7.975000e+001 4.025000e+001 1.000000e+001
    endloop
  endfacet
  facet normal -0.000000e+000 0.000000e+000 1.000000e+000
    outer loop
      vertex   -9.500000e+001 4.500000e+001 1.000000e+001
      vertex   -9.500000e+001 2.500000e+001 1.000000e+001
      vertex   -9.025000e+001 4.025000e+001 1.000000e+001
    endloop
  endfacet
  facet normal -0.000000e+000 0.000000e+000 -1.000000e+000
    outer loop
      vertex   -7.975000e+001 1.297500e+002 0.000000e+000
      vertex   -8.500000e+001 1.250000e+002 0.000000e+000
      vertex   -9.025000e+001 1.297500e+002 0.000000e+000
    endloop
  endfacet
  facet normal -0.000000e+000 0.000000e+000 -1.000000e+000
    outer loop
      vertex   -7.975000e+001 1.297500e+002 0.000000e+000
      vertex   -8.000000e+001 1.195939e+002 0.000000e+000
      vertex   -8.500000e+001 1.250000e+002 0.000000e+000
    endloop
  endfacet
  facet normal 0.000000e+000 -0.000000e+000 -1.000000e+000
    outer loop
      vertex   -7.975000e+001 1.297500e+002 0.000000e+000
      vertex   -7.500000e+001 1.297500e+002 0.000000e+000
      vertex   -8.000000e+001 1.195939e+002 0.000000e+000
    endloop
  endfacet
  facet normal 0.000000e+000 0.000000e+000 -1.000000e+000
    outer loop
      vertex   -7.975000e+001 1.297500e+002 0.000000e+000
      vertex   -7.975000e+001 1.402500e+002 0.000000e+000
      vertex   -7.500000e+001 1.297500e+002 0.000000e+000
    endloop
  endfacet
  facet normal 0.000000e+000 0.000000e+000 -1.000000e+000
    outer loop
      vertex   -7.500000e+001 1.297500e+002 0.000000e+000
      vertex   -7.975000e+001 1.402500e+002 0.000000e+000
      vertex   -7.500000e+001 1.450000e+002 0.000000e+000
    endloop
  endfacet
  facet normal 0.000000e+000 0.000000e+000 -1.000000e+000
    outer loop
      vertex   -7.025000e+001 1.402500e+002 0.000000e+000
      vertex   -7.500000e+001 1.450000e+002 0.000000e+000
      vertex   -5.975000e+001 1.402500e+002 0.000000e+000
    endloop
  endfacet
  facet normal -0.000000e+000 0.000000e+000 -1.000000e+000
    outer loop
      vertex   -7.025000e+001 1.402500e+002 0.000000e+000
      vertex   -7.500000e+001 1.297500e+002 0.000000e+000
      vertex   -7.500000e+001 1.450000e+002 0.000000e+000
    endloop
  endfacet
  facet normal -0.000000e+000 -0.000000e+000 -1.000000e+000
    outer loop
      vertex   -7.025000e+001 1.402500e+002 0.000000e+000
      vertex   -7.025000e+001 1.297500e+002 0.000000e+000
      vertex   -7.500000e+001 1.297500e+002 0.000000e+000
    endloop
  endfacet
  facet normal 0.000000e+000 0.000000e+000 -1.000000e+000
    outer loop
      vertex   -7.500000e+001 1.297500e+002 0.000000e+000
      vertex   -7.025000e+001 1.297500e+002 0.000000e+000
      vertex   -7.000000e+001 1.195939e+002 0.000000e+000
    endloop
  endfacet
  facet normal 0.000000e+000 0.000000e+000 -1.000000e+000
    outer loop
      vertex   -8.000000e+001 1.195939e+002 0.000000e+000
      vertex   -7.500000e+001 1.297500e+002 0.000000e+000
      vertex   -7.000000e+001 1.195939e+002 0.000000e+000
    endloop
  endfacet
  facet normal 0.000000e+000 0.000000e+000 -1.000000e+000
    outer loop
      vertex   -7.975000e+001 1.402500e+002 0.000000e+000
      vertex   -9.025000e+001 1.402500e+002 0.000000e+000
      vertex   -7.500000e+001 1.450000e+002 0.000000e+000
    endloop
  endfacet
  facet normal 0.000000e+000 0.000000e+000 -1.000000e+000
    outer loop
      vertex   -7.500000e+001 1.450000e+002 0.000000e+000
      vertex   -9.025000e+001 1.402500e+002 0.000000e+000
      vertex   -1.000000e+002 1.400000e+002 0.000000e+000
    endloop
  endfacet
  facet normal -0.000000e+000 -0.000000e+000 -1.000000e+000
    outer loop
      vertex   -1.250000e+002 1.450000e+002 0.000000e+000
      vertex   -1.000000e+002 1.400000e+002 0.000000e+000
      vertex   -1.150000e+002 1.400000e+002 0.000000e+000
    endloop
  endfacet
  facet normal 0.000000e+000 0.000000e+000 -1.000000e+000
    outer loop
      vertex   -1.250000e+002 1.250000e+002 0.000000e+000
      vertex   -1.150000e+002 1.400000e+002 0.000000e+000
      vertex   -1.150000e+002 1.300000e+002 0.000000e+000
    endloop
  endfacet
  facet normal -0.000000e+000 0.000000e+000 -1.000000e+000
    outer loop
      vertex   -1.000000e+002 1.300000e+002 0.000000e+000
      vertex   -1.250000e+002 1.250000e+002 0.000000e+000
      vertex   -1.150000e+002 1.300000e+002 0.000000e+000
    endloop
  endfacet
  facet normal -0.000000e+000 -0.000000e+000 -1.000000e+000
    outer loop
      vertex   -1.000000e+002 1.300000e+002 0.000000e+000
      vertex   -8.500000e+001 1.250000e+002 0.000000e+000
      vertex   -1.250000e+002 1.250000e+002 0.000000e+000
    endloop
  endfacet
  facet normal 0.000000e+000 0.000000e+000 -1.000000e+000
    outer loop
      vertex   -1.000000e+002 1.300000e+002 0.000000e+000
      vertex   -9.025000e+001 1.297500e+002 0.000000e+000
      vertex   -8.500000e+001 1.250000e+002 0.000000e+000
    endloop
  endfacet
  facet normal 0.000000e+000 0.000000e+000 -1.000000e+000
    outer loop
      vertex   -1.000000e+002 1.300000e+002 0.000000e+000
      vertex   -1.000000e+002 1.400000e+002 0.000000e+000
      vertex   -9.025000e+001 1.297500e+002 0.000000e+000
    endloop
  endfacet
  facet normal 0.000000e+000 0.000000e+000 -1.000000e+000
    outer loop
      vertex   -9.025000e+001 1.297500e+002 0.000000e+000
      vertex   -1.000000e+002 1.400000e+002 0.000000e+000
      vertex   -9.025000e+001 1.402500e+002 0.000000e+000
    endloop
  endfacet
  facet normal 0.000000e+000 0.000000e+000 -1.000000e+000
    outer loop
      vertex   -7.000000e+001 1.195939e+002 0.000000e+000
      vertex   -7.025000e+001 1.297500e+002 0.000000e+000
      vertex   -6.500000e+001 1.250000e+002 0.000000e+000
    endloop
  endfacet
  facet normal 0.000000e+000 0.000000e+000 -1.000000e+000
    outer loop
      vertex   -6.500000e+001 8.500000e+001 0.000000e+000
      vertex   -7.000000e+001 1.195939e+002 0.000000e+000
      vertex   -6.500000e+001 1.250000e+002 0.000000e+000
    endloop
  endfacet
  facet normal 0.000000e+000 0.000000e+000 -1.000000e+000
    outer loop
      vertex   -6.500000e+001 8.500000e+001 0.000000e+000
      vertex   -7.000000e+001 8.959390e+001 0.000000e+000
      vertex   -7.000000e+001 1.195939e+002 0.000000e+000
    endloop
  endfacet
  facet normal -0.000000e+000 0.000000e+000 -1.000000e+000
    outer loop
      vertex   -6.500000e+001 8.500000e+001 0.000000e+000
      vertex   -7.000000e+001 7.959390e+001 0.000000e+000
      vertex   -7.000000e+001 8.959390e+001 0.000000e+000
    endloop
  endfacet
  facet normal -0.000000e+000 -0.000000e+000 -1.000000e+000
    outer loop
      vertex   -6.500000e+001 8.500000e+001 0.000000e+000
      vertex   -6.500000e+001 4.500000e+001 0.000000e+000
      vertex   -7.000000e+001 7.959390e+001 0.000000e+000
    endloop
  endfacet
  facet normal -0.000000e+000 -0.000000e+000 -1.000000e+000
    outer loop
      vertex   -7.000000e+001 7.959390e+001 0.000000e+000
      vertex   -6.500000e+001 4.500000e+001 0.000000e+000
      vertex   -7.000000e+001 4.959390e+001 0.000000e+000
    endloop
  endfacet
  facet normal -0.000000e+000 -0.000000e+000 -1.000000e+000
    outer loop
      vertex   -7.000000e+001 4.959390e+001 0.000000e+000
      vertex   -6.500000e+001 4.500000e+001 0.000000e+000
      vertex   -7.500000e+001 4.500000e+001 0.000000e+000
    endloop
  endfacet
  facet normal -0.000000e+000 -0.000000e+000 -1.000000e+000
    outer loop
      vertex   -8.000000e+001 4.959390e+001 0.000000e+000
      vertex   -7.500000e+001 4.500000e+001 0.000000e+000
      vertex   -8.500000e+001 4.500000e+001 0.000000e+000
    endloop
  endfacet
  facet normal -0.000000e+000 0.000000e+000 -1.000000e+000
    outer loop
      vertex   -8.000000e+001 7.959390e+001 0.000000e+000
      vertex   -8.500000e+001 4.500000e+001 0.000000e+000
      vertex   -8.500000e+001 8.500000e+001 0.000000e+000
    endloop
  endfacet
  facet normal -0.000000e+000 0.000000e+000 -1.000000e+000
    outer loop
      vertex   -8.000000e+001 8.959390e+001 0.000000e+000
      vertex   -8.500000e+001 8.500000e+001 0.000000e+000
      vertex   -8.000000e+001 1.195939e+002 0.000000e+000
    endloop
  endfacet
  facet normal -0.000000e+000 -0.000000e+000 -1.000000e+000
    outer loop
      vertex   -8.000000e+001 8.959390e+001 0.000000e+000
      vertex   -8.000000e+001 7.959390e+001 0.000000e+000
      vertex   -8.500000e+001 8.500000e+001 0.000000e+000
    endloop
  endfacet
  facet normal 0.000000e+000 -0.000000e+000 -1.000000e+000
    outer loop
      vertex   -8.000000e+001 8.959390e+001 0.000000e+000
      vertex   -7.000000e+001 8.959390e+001 0.000000e+000
      vertex   -8.000000e+001 7.959390e+001 0.000000e+000
    endloop
  endfacet
  facet normal 0.000000e+000 0.000000e+000 -1.000000e+000
    outer loop
      vertex   -8.000000e+001 7.959390e+001 0.000000e+000
      vertex   -7.000000e+001 8.959390e+001 0.000000e+000
      vertex   -7.000000e+001 7.959390e+001 0.000000e+000
    endloop
  endfacet
  facet normal 0.000000e+000 -0.000000e+000 -1.000000e+000
    outer loop
      vertex   -5.975000e+001 1.402500e+002 0.000000e+000
      vertex   -5.000000e+001 1.400000e+002 0.000000e+000
      vertex   -5.975000e+001 1.297500e+002 0.000000e+000
    endloop
  endfacet
  facet normal 0.000000e+000 0.000000e+000 -1.000000e+000
    outer loop
      vertex   -5.975000e+001 1.402500e+002 0.000000e+000
      vertex   -7.500000e+001 1.450000e+002 0.000000e+000
      vertex   -5.000000e+001 1.400000e+002 0.000000e+000
    endloop
  endfacet
  facet normal 0.000000e+000 0.000000e+000 -1.000000e+000
    outer loop
      vertex   -5.000000e+001 1.400000e+002 0.000000e+000
      vertex   -7.500000e+001 1.450000e+002 0.000000e+000
      vertex   -2.500000e+001 1.450000e+002 0.000000e+000
    endloop
  endfacet
  facet normal 0.000000e+000 0.000000e+000 -1.000000e+000
    outer loop
      vertex   -3.500000e+001 1.400000e+002 0.000000e+000
      vertex   -2.500000e+001 1.450000e+002 0.000000e+000
      vertex   -2.500000e+001 1.250000e+002 0.000000e+000
    endloop
  endfacet
  facet normal -0.000000e+000 -0.000000e+000 -1.000000e+000
    outer loop
      vertex   -3.500000e+001 1.300000e+002 0.000000e+000
      vertex   -2.500000e+001 1.250000e+002 0.000000e+000
      vertex   -5.000000e+001 1.300000e+002 0.000000e+000
    endloop
  endfacet
  facet normal 0.000000e+000 0.000000e+000 -1.000000e+000
    outer loop
      vertex   -3.500000e+001 1.300000e+002 0.000000e+000
      vertex   -3.500000e+001 1.400000e+002 0.000000e+000
      vertex   -2.500000e+001 1.250000e+002 0.000000e+000
    endloop
  endfacet
  facet normal 0.000000e+000 0.000000e+000 -1.000000e+000
    outer loop
      vertex   -3.500000e+001 1.400000e+002 0.000000e+000
      vertex   -5.000000e+001 1.400000e+002 0.000000e+000
      vertex   -2.500000e+001 1.450000e+002 0.000000e+000
    endloop
  endfacet
  facet normal 0.000000e+000 -0.000000e+000 -1.000000e+000
    outer loop
      vertex   -5.000000e+001 1.400000e+002 0.000000e+000
      vertex   -5.000000e+001 1.300000e+002 0.000000e+000
      vertex   -5.975000e+001 1.297500e+002 0.000000e+000
    endloop
  endfacet
  facet normal 0.000000e+000 -0.000000e+000 -1.000000e+000
    outer loop
      vertex   -5.975000e+001 1.297500e+002 0.000000e+000
      vertex   -5.000000e+001 1.300000e+002 0.000000e+000
      vertex   -6.500000e+001 1.250000e+002 0.000000e+000
    endloop
  endfacet
  facet normal 0.000000e+000 -0.000000e+000 -1.000000e+000
    outer loop
      vertex   -7.025000e+001 1.297500e+002 0.000000e+000
      vertex   -5.975000e+001 1.297500e+002 0.000000e+000
      vertex   -6.500000e+001 1.250000e+002 0.000000e+000
    endloop
  endfacet
  facet normal -0.000000e+000 0.000000e+000 -1.000000e+000
    outer loop
      vertex   -7.500000e+001 1.450000e+002 0.000000e+000
      vertex   -1.000000e+002 1.400000e+002 0.000000e+000
      vertex   -1.250000e+002 1.450000e+002 0.000000e+000
    endloop
  endfacet
  facet normal 0.000000e+000 -0.000000e+000 -1.000000e+000
    outer loop
      vertex   -1.250000e+002 1.450000e+002 0.000000e+000
      vertex   -1.150000e+002 1.400000e+002 0.000000e+000
      vertex   -1.250000e+002 1.250000e+002 0.000000e+000
    endloop
  endfacet
  facet normal 0.000000e+000 -0.000000e+000 -1.000000e+000
    outer loop
      vertex   -8.500000e+001 1.250000e+002 0.000000e+000
      vertex   -8.000000e+001 1.195939e+002 0.000000e+000
      vertex   -8.500000e+001 8.500000e+001 0.000000e+000
    endloop
  endfacet
  facet normal 0.000000e+000 -0.000000e+000 -1.000000e+000
    outer loop
      vertex   -8.000000e+001 4.959390e+001 0.000000e+000
      vertex   -7.000000e+001 4.959390e+001 0.000000e+000
      vertex   -7.500000e+001 4.500000e+001 0.000000e+000
    endloop
  endfacet
  facet normal 0.000000e+000 -0.000000e+000 -1.000000e+000
    outer loop
      vertex   -8.000000e+001 7.959390e+001 0.000000e+000
      vertex   -8.000000e+001 4.959390e+001 0.000000e+000
      vertex   -8.500000e+001 4.500000e+001 0.000000e+000
    endloop
  endfacet
  facet normal 0.000000e+000 -0.000000e+000 -1.000000e+000
    outer loop
      vertex   -1.150000e+002 4.000000e+001 0.000000e+000
      vertex   -1.150000e+002 3.000000e+001 0.000000e+000
      vertex   -1.250000e+002 2.500000e+001 0.000000e+000
    endloop
  endfacet
  facet normal 0.000000e+000 -0.000000e+000 -1.000000e+000
    outer loop
      vertex   -1.250000e+002 4.500000e+001 0.000000e+000
      vertex   -1.150000e+002 4.000000e+001 0.000000e+000
      vertex   -1.250000e+002 2.500000e+001 0.000000e+000
    endloop
  endfacet
  facet normal -0.000000e+000 -0.000000e+000 -1.000000e+000
    outer loop
      vertex   -1.250000e+002 4.500000e+001 0.000000e+000
      vertex   -1.000000e+002 4.000000e+001 0.000000e+000
      vertex   -1.150000e+002 4.000000e+001 0.000000e+000
    endloop
  endfacet
  facet normal 0.000000e+000 -0.000000e+000 -1.000000e+000
    outer loop
      vertex   -1.250000e+002 4.500000e+001 0.000000e+000
      vertex   -8.500000e+001 4.500000e+001 0.000000e+000
      vertex   -1.000000e+002 4.000000e+001 0.000000e+000
    endloop
  endfacet
  facet normal 0.000000e+000 -0.000000e+000 -1.000000e+000
    outer loop
      vertex   -1.000000e+002 4.000000e+001 0.000000e+000
      vertex   -8.500000e+001 4.500000e+001 0.000000e+000
      vertex   -9.025000e+001 4.025000e+001 0.000000e+000
    endloop
  endfacet
  facet normal 0.000000e+000 0.000000e+000 -1.000000e+000
    outer loop
      vertex   -9.025000e+001 2.975000e+001 0.000000e+000
      vertex   -1.000000e+002 4.000000e+001 0.000000e+000
      vertex   -9.025000e+001 4.025000e+001 0.000000e+000
    endloop
  endfacet
  facet normal 0.000000e+000 0.000000e+000 -1.000000e+000
    outer loop
      vertex   -9.025000e+001 2.975000e+001 0.000000e+000
      vertex   -1.000000e+002 3.000000e+001 0.000000e+000
      vertex   -1.000000e+002 4.000000e+001 0.000000e+000
    endloop
  endfacet
  facet normal -0.000000e+000 -0.000000e+000 -1.000000e+000
    outer loop
      vertex   -9.025000e+001 2.975000e+001 0.000000e+000
      vertex   -7.500000e+001 2.500000e+001 0.000000e+000
      vertex   -1.000000e+002 3.000000e+001 0.000000e+000
    endloop
  endfacet
  facet normal 0.000000e+000 0.000000e+000 -1.000000e+000
    outer loop
      vertex   -9.025000e+001 2.975000e+001 0.000000e+000
      vertex   -7.975000e+001 2.975000e+001 0.000000e+000
      vertex   -7.500000e+001 2.500000e+001 0.000000e+000
    endloop
  endfacet
  facet normal 0.000000e+000 0.000000e+000 -1.000000e+000
    outer loop
      vertex   -7.500000e+001 2.500000e+001 0.000000e+000
      vertex   -7.975000e+001 2.975000e+001 0.000000e+000
      vertex   -7.500000e+001 2.975000e+001 0.000000e+000
    endloop
  endfacet
  facet normal 0.000000e+000 0.000000e+000 -1.000000e+000
    outer loop
      vertex   -7.025000e+001 2.975000e+001 0.000000e+000
      vertex   -7.500000e+001 2.975000e+001 0.000000e+000
      vertex   -7.025000e+001 4.025000e+001 0.000000e+000
    endloop
  endfacet
  facet normal -0.000000e+000 0.000000e+000 -1.000000e+000
    outer loop
      vertex   -7.025000e+001 2.975000e+001 0.000000e+000
      vertex   -7.500000e+001 2.500000e+001 0.000000e+000
      vertex   -7.500000e+001 2.975000e+001 0.000000e+000
    endloop
  endfacet
  facet normal 0.000000e+000 -0.000000e+000 -1.000000e+000
    outer loop
      vertex   -7.025000e+001 2.975000e+001 0.000000e+000
      vertex   -5.975000e+001 2.975000e+001 0.000000e+000
      vertex   -7.500000e+001 2.500000e+001 0.000000e+000
    endloop
  endfacet
  facet normal 0.000000e+000 0.000000e+000 -1.000000e+000
    outer loop
      vertex   -7.500000e+001 2.500000e+001 0.000000e+000
      vertex   -5.975000e+001 2.975000e+001 0.000000e+000
      vertex   -5.000000e+001 3.000000e+001 0.000000e+000
    endloop
  endfacet
  facet normal 0.000000e+000 0.000000e+000 -1.000000e+000
    outer loop
      vertex   -2.500000e+001 2.500000e+001 0.000000e+000
      vertex   -5.000000e+001 3.000000e+001 0.000000e+000
      vertex   -3.500000e+001 3.000000e+001 0.000000e+000
    endloop
  endfacet
  facet normal -0.000000e+000 -0.000000e+000 -1.000000e+000
    outer loop
      vertex   -3.500000e+001 4.000000e+001 0.000000e+000
      vertex   -2.500000e+001 2.500000e+001 0.000000e+000
      vertex   -3.500000e+001 3.000000e+001 0.000000e+000
    endloop
  endfacet
  facet normal 0.000000e+000 0.000000e+000 -1.000000e+000
    outer loop
      vertex   -3.500000e+001 4.000000e+001 0.000000e+000
      vertex   -2.500000e+001 4.500000e+001 0.000000e+000
      vertex   -2.500000e+001 2.500000e+001 0.000000e+000
    endloop
  endfacet
  facet normal 0.000000e+000 0.000000e+000 -1.000000e+000
    outer loop
      vertex   -3.500000e+001 4.000000e+001 0.000000e+000
      vertex   -5.000000e+001 4.000000e+001 0.000000e+000
      vertex   -2.500000e+001 4.500000e+001 0.000000e+000
    endloop
  endfacet
  facet normal -0.000000e+000 0.000000e+000 -1.000000e+000
    outer loop
      vertex   -2.500000e+001 4.500000e+001 0.000000e+000
      vertex   -5.000000e+001 4.000000e+001 0.000000e+000
      vertex   -6.500000e+001 4.500000e+001 0.000000e+000
    endloop
  endfacet
  facet normal -0.000000e+000 -0.000000e+000 -1.000000e+000
    outer loop
      vertex   -6.500000e+001 4.500000e+001 0.000000e+000
      vertex   -5.000000e+001 4.000000e+001 0.000000e+000
      vertex   -5.975000e+001 4.025000e+001 0.000000e+000
    endloop
  endfacet
  facet normal 0.000000e+000 0.000000e+000 -1.000000e+000
    outer loop
      vertex   -7.025000e+001 4.025000e+001 0.000000e+000
      vertex   -6.500000e+001 4.500000e+001 0.000000e+000
      vertex   -5.975000e+001 4.025000e+001 0.000000e+000
    endloop
  endfacet
  facet normal 0.000000e+000 0.000000e+000 -1.000000e+000
    outer loop
      vertex   -7.025000e+001 4.025000e+001 0.000000e+000
      vertex   -7.500000e+001 4.500000e+001 0.000000e+000
      vertex   -6.500000e+001 4.500000e+001 0.000000e+000
    endloop
  endfacet
  facet normal 0.000000e+000 0.000000e+000 -1.000000e+000
    outer loop
      vertex   -7.025000e+001 4.025000e+001 0.000000e+000
      vertex   -7.975000e+001 4.025000e+001 0.000000e+000
      vertex   -7.500000e+001 4.500000e+001 0.000000e+000
    endloop
  endfacet
  facet normal -0.000000e+000 0.000000e+000 -1.000000e+000
    outer loop
      vertex   -7.025000e+001 4.025000e+001 0.000000e+000
      vertex   -7.500000e+001 2.975000e+001 0.000000e+000
      vertex   -7.975000e+001 4.025000e+001 0.000000e+000
    endloop
  endfacet
  facet normal -0.000000e+000 -0.000000e+000 -1.000000e+000
    outer loop
      vertex   -7.975000e+001 4.025000e+001 0.000000e+000
      vertex   -7.500000e+001 2.975000e+001 0.000000e+000
      vertex   -7.975000e+001 2.975000e+001 0.000000e+000
    endloop
  endfacet
  facet normal -0.000000e+000 0.000000e+000 -1.000000e+000
    outer loop
      vertex   -7.500000e+001 4.500000e+001 0.000000e+000
      vertex   -7.975000e+001 4.025000e+001 0.000000e+000
      vertex   -8.500000e+001 4.500000e+001 0.000000e+000
    endloop
  endfacet
  facet normal -0.000000e+000 -0.000000e+000 -1.000000e+000
    outer loop
      vertex   -8.500000e+001 4.500000e+001 0.000000e+000
      vertex   -7.975000e+001 4.025000e+001 0.000000e+000
      vertex   -9.025000e+001 4.025000e+001 0.000000e+000
    endloop
  endfacet
  facet normal -0.000000e+000 0.000000e+000 -1.000000e+000
    outer loop
      vertex   -5.000000e+001 3.000000e+001 0.000000e+000
      vertex   -5.975000e+001 2.975000e+001 0.000000e+000
      vertex   -5.000000e+001 4.000000e+001 0.000000e+000
    endloop
  endfacet
  facet normal -0.000000e+000 0.000000e+000 -1.000000e+000
    outer loop
      vertex   -5.000000e+001 4.000000e+001 0.000000e+000
      vertex   -5.975000e+001 2.975000e+001 0.000000e+000
      vertex   -5.975000e+001 4.025000e+001 0.000000e+000
    endloop
  endfacet
  facet normal 0.000000e+000 0.000000e+000 -1.000000e+000
    outer loop
      vertex   -2.500000e+001 1.250000e+002 0.000000e+000
      vertex   -6.500000e+001 1.250000e+002 0.000000e+000
      vertex   -5.000000e+001 1.300000e+002 0.000000e+000
    endloop
  endfacet
  facet normal 0.000000e+000 0.000000e+000 -1.000000e+000
    outer loop
      vertex   -2.500000e+001 2.500000e+001 0.000000e+000
      vertex   -7.500000e+001 2.500000e+001 0.000000e+000
      vertex   -5.000000e+001 3.000000e+001 0.000000e+000
    endloop
  endfacet
  facet normal 0.000000e+000 0.000000e+000 -1.000000e+000
    outer loop
      vertex   -7.500000e+001 2.500000e+001 0.000000e+000
      vertex   -1.250000e+002 2.500000e+001 0.000000e+000
      vertex   -1.000000e+002 3.000000e+001 0.000000e+000
    endloop
  endfacet
  facet normal -0.000000e+000 0.000000e+000 -1.000000e+000
    outer loop
      vertex   -1.000000e+002 3.000000e+001 0.000000e+000
      vertex   -1.250000e+002 2.500000e+001 0.000000e+000
      vertex   -1.150000e+002 3.000000e+001 0.000000e+000
    endloop
  endfacet
  facet normal 0.000000e+000 0.000000e+000 1.000000e+000
    outer loop
      vertex   -9.500000e+001 4.500000e+001 5.000000e+000
      vertex   -1.000000e+002 4.000000e+001 5.000000e+000
      vertex   -9.500000e+001 2.500000e+001 5.000000e+000
    endloop
  endfacet
  facet normal -0.000000e+000 0.000000e+000 1.000000e+000
    outer loop
      vertex   -9.500000e+001 4.500000e+001 5.000000e+000
      vertex   -1.150000e+002 4.000000e+001 5.000000e+000
      vertex   -1.000000e+002 4.000000e+001 5.000000e+000
    endloop
  endfacet
  facet normal 0.000000e+000 0.000000e+000 1.000000e+000
    outer loop
      vertex   -9.500000e+001 4.500000e+001 5.000000e+000
      vertex   -1.250000e+002 4.500000e+001 5.000000e+000
      vertex   -1.150000e+002 4.000000e+001 5.000000e+000
    endloop
  endfacet
  facet normal 0.000000e+000 0.000000e+000 1.000000e+000
    outer loop
      vertex   -1.150000e+002 4.000000e+001 5.000000e+000
      vertex   -1.250000e+002 4.500000e+001 5.000000e+000
      vertex   -1.250000e+002 2.500000e+001 5.000000e+000
    endloop
  endfacet
  facet normal -0.000000e+000 0.000000e+000 1.000000e+000
    outer loop
      vertex   -1.150000e+002 3.000000e+001 5.000000e+000
      vertex   -1.250000e+002 2.500000e+001 5.000000e+000
      vertex   -9.500000e+001 2.500000e+001 5.000000e+000
    endloop
  endfacet
  facet normal -0.000000e+000 -0.000000e+000 1.000000e+000
    outer loop
      vertex   -1.000000e+002 3.000000e+001 5.000000e+000
      vertex   -9.500000e+001 2.500000e+001 5.000000e+000
      vertex   -1.000000e+002 4.000000e+001 5.000000e+000
    endloop
  endfacet
  facet normal 0.000000e+000 0.000000e+000 1.000000e+000
    outer loop
      vertex   -1.000000e+002 3.000000e+001 5.000000e+000
      vertex   -1.150000e+002 3.000000e+001 5.000000e+000
      vertex   -9.500000e+001 2.500000e+001 5.000000e+000
    endloop
  endfacet
  facet normal -0.000000e+000 0.000000e+000 1.000000e+000
    outer loop
      vertex   -1.150000e+002 4.000000e+001 5.000000e+000
      vertex   -1.250000e+002 2.500000e+001 5.000000e+000
      vertex   -1.150000e+002 3.000000e+001 5.000000e+000
    endloop
  endfacet
  facet normal -0.000000e+000 -1.000000e+000 -0.000000e+000
    outer loop
      vertex   -5.500000e+001 2.500000e+001 1.000000e+001
      vertex   -9.500000e+001 2.500000e+001 1.000000e+001
      vertex   -5.500000e+001 2.500000e+001 5.000000e+000
    endloop
  endfacet
  facet normal -0.000000e+000 -1.000000e+000 -0.000000e+000
    outer loop
      vertex   -5.500000e+001 2.500000e+001 5.000000e+000
      vertex   -9.500000e+001 2.500000e+001 1.000000e+001
      vertex   -9.500000e+001 2.500000e+001 5.000000e+000
    endloop
  endfacet
  facet normal -0.000000e+000 -1.000000e+000 0.000000e+000
    outer loop
      vertex   -7.500000e+001 2.500000e+001 0.000000e+000
      vertex   -9.500000e+001 2.500000e+001 5.000000e+000
      vertex   -1.250000e+002 2.500000e+001 0.000000e+000
    endloop
  endfacet
  facet normal 0.000000e+000 -1.000000e+000 0.000000e+000
    outer loop
      vertex   -7.500000e+001 2.500000e+001 0.000000e+000
      vertex   -5.500000e+001 2.500000e+001 5.000000e+000
      vertex   -9.500000e+001 2.500000e+001 5.000000e+000
    endloop
  endfacet
  facet normal 0.000000e+000 -1.000000e+000 0.000000e+000
    outer loop
      vertex   -7.500000e+001 2.500000e+001 0.000000e+000
      vertex   -2.500000e+001 2.500000e+001 0.000000e+000
      vertex   -5.500000e+001 2.500000e+001 5.000000e+000
    endloop
  endfacet
  facet normal 0.000000e+000 -1.000000e+000 0.000000e+000
    outer loop
      vertex   -5.500000e+001 2.500000e+001 5.000000e+000
      vertex   -2.500000e+001 2.500000e+001 0.000000e+000
      vertex   -2.500000e+001 2.500000e+001 5.000000e+000
    endloop
  endfacet
  facet normal -0.000000e+000 -1.000000e+000 -0.000000e+000
    outer loop
      vertex   -9.500000e+001 2.500000e+001 5.000000e+000
      vertex   -1.250000e+002 2.500000e+001 5.000000e+000
      vertex   -1.250000e+002 2.500000e+001 0.000000e+000
    endloop
  endfacet
  facet normal 0.000000e+000 -1.000000e+000 0.000000e+000
    outer loop
      vertex   -7.025000e+001 4.025000e+001 1.000000e+001
      vertex   -7.025000e+001 4.025000e+001 0.000000e+000
      vertex   -5.975000e+001 4.025000e+001 1.000000e+001
    endloop
  endfacet
  facet normal 0.000000e+000 -1.000000e+000 -0.000000e+000
    outer loop
      vertex   -5.975000e+001 4.025000e+001 1.000000e+001
      vertex   -7.025000e+001 4.025000e+001 0.000000e+000
      vertex   -5.975000e+001 4.025000e+001 0.000000e+000
    endloop
  endfacet
  facet normal -1.000000e+000 -0.000000e+000 -0.000000e+000
    outer loop
      vertex   -5.975000e+001 4.025000e+001 1.000000e+001
      vertex   -5.975000e+001 4.025000e+001 0.000000e+000
      vertex   -5.975000e+001 2.975000e+001 1.000000e+001
    endloop
  endfacet
  facet normal -1.000000e+000 -0.000000e+000 -0.000000e+000
    outer loop
      vertex   -5.975000e+001 2.975000e+001 1.000000e+001
      vertex   -5.975000e+001 4.025000e+001 0.000000e+000
      vertex   -5.975000e+001 2.975000e+001 0.000000e+000
    endloop
  endfacet
  facet normal 0.000000e+000 1.000000e+000 0.000000e+000
    outer loop
      vertex   -5.975000e+001 2.975000e+001 1.000000e+001
      vertex   -5.975000e+001 2.975000e+001 0.000000e+000
      vertex   -7.025000e+001 2.975000e+001 1.000000e+001
    endloop
  endfacet
  facet normal 0.000000e+000 1.000000e+000 0.000000e+000
    outer loop
      vertex   -7.025000e+001 2.975000e+001 1.000000e+001
      vertex   -5.975000e+001 2.975000e+001 0.000000e+000
      vertex   -7.025000e+001 2.975000e+001 0.000000e+000
    endloop
  endfacet
  facet normal 1.000000e+000 -0.000000e+000 0.000000e+000
    outer loop
      vertex   -7.025000e+001 2.975000e+001 1.000000e+001
      vertex   -7.025000e+001 2.975000e+001 0.000000e+000
      vertex   -7.025000e+001 4.025000e+001 1.000000e+001
    endloop
  endfacet
  facet normal 1.000000e+000 -0.000000e+000 0.000000e+000
    outer loop
      vertex   -7.025000e+001 4.025000e+001 1.000000e+001
      vertex   -7.025000e+001 2.975000e+001 0.000000e+000
      vertex   -7.025000e+001 4.025000e+001 0.000000e+000
    endloop
  endfacet
  facet normal 0.000000e+000 -1.000000e+000 0.000000e+000
    outer loop
      vertex   -9.025000e+001 4.025000e+001 1.000000e+001
      vertex   -9.025000e+001 4.025000e+001 0.000000e+000
      vertex   -7.975000e+001 4.025000e+001 1.000000e+001
    endloop
  endfacet
  facet normal 0.000000e+000 -1.000000e+000 -0.000000e+000
    outer loop
      vertex   -7.975000e+001 4.025000e+001 1.000000e+001
      vertex   -9.025000e+001 4.025000e+001 0.000000e+000
      vertex   -7.975000e+001 4.025000e+001 0.000000e+000
    endloop
  endfacet
  facet normal -1.000000e+000 -0.000000e+000 -0.000000e+000
    outer loop
      vertex   -7.975000e+001 4.025000e+001 1.000000e+001
      vertex   -7.975000e+001 4.025000e+001 0.000000e+000
      vertex   -7.975000e+001 2.975000e+001 1.000000e+001
    endloop
  endfacet
  facet normal -1.000000e+000 -0.000000e+000 -0.000000e+000
    outer loop
      vertex   -7.975000e+001 2.975000e+001 1.000000e+001
      vertex   -7.975000e+001 4.025000e+001 0.000000e+000
      vertex   -7.975000e+001 2.975000e+001 0.000000e+000
    endloop
  endfacet
  facet normal 0.000000e+000 1.000000e+000 0.000000e+000
    outer loop
      vertex   -7.975000e+001 2.975000e+001 1.000000e+001
      vertex   -7.975000e+001 2.975000e+001 0.000000e+000
      vertex   -9.025000e+001 2.975000e+001 1.000000e+001
    endloop
  endfacet
  facet normal 0.000000e+000 1.000000e+000 0.000000e+000
    outer loop
      vertex   -9.025000e+001 2.975000e+001 1.000000e+001
      vertex   -7.975000e+001 2.975000e+001 0.000000e+000
      vertex   -9.025000e+001 2.975000e+001 0.000000e+000
    endloop
  endfacet
  facet normal 1.000000e+000 -0.000000e+000 0.000000e+000
    outer loop
      vertex   -9.025000e+001 2.975000e+001 1.000000e+001
      vertex   -9.025000e+001 2.975000e+001 0.000000e+000
      vertex   -9.025000e+001 4.025000e+001 1.000000e+001
    endloop
  endfacet
  facet normal 1.000000e+000 -0.000000e+000 0.000000e+000
    outer loop
      vertex   -9.025000e+001 4.025000e+001 1.000000e+001
      vertex   -9.025000e+001 2.975000e+001 0.000000e+000
      vertex   -9.025000e+001 4.025000e+001 0.000000e+000
    endloop
  endfacet
  facet normal 0.000000e+000 -1.000000e+000 0.000000e+000
    outer loop
      vertex   -1.150000e+002 4.000000e+001 5.000000e+000
      vertex   -1.150000e+002 4.000000e+001 0.000000e+000
      vertex   -1.000000e+002 4.000000e+001 5.000000e+000
    endloop
  endfacet
  facet normal 0.000000e+000 -1.000000e+000 -0.000000e+000
    outer loop
      vertex   -1.000000e+002 4.000000e+001 5.000000e+000
      vertex   -1.150000e+002 4.000000e+001 0.000000e+000
      vertex   -1.000000e+002 4.000000e+001 0.000000e+000
    endloop
  endfacet
  facet normal -1.000000e+000 -0.000000e+000 -0.000000e+000
    outer loop
      vertex   -1.000000e+002 4.000000e+001 5.000000e+000
      vertex   -1.000000e+002 4.000000e+001 0.000000e+000
      vertex   -1.000000e+002 3.000000e+001 5.000000e+000
    endloop
  endfacet
  facet normal -1.000000e+000 -0.000000e+000 -0.000000e+000
    outer loop
      vertex   -1.000000e+002 3.000000e+001 5.000000e+000
      vertex   -1.000000e+002 4.000000e+001 0.000000e+000
      vertex   -1.000000e+002 3.000000e+001 0.000000e+000
    endloop
  endfacet
  facet normal 0.000000e+000 1.000000e+000 0.000000e+000
    outer loop
      vertex   -1.000000e+002 3.000000e+001 5.000000e+000
      vertex   -1.000000e+002 3.000000e+001 0.000000e+000
      vertex   -1.150000e+002 3.000000e+001 5.000000e+000
    endloop
  endfacet
  facet normal 0.000000e+000 1.000000e+000 0.000000e+000
    outer loop
      vertex   -1.150000e+002 3.000000e+001 5.000000e+000
      vertex   -1.000000e+002 3.000000e+001 0.000000e+000
      vertex   -1.150000e+002 3.000000e+001 0.000000e+000
    endloop
  endfacet
  facet normal 1.000000e+000 -0.000000e+000 0.000000e+000
    outer loop
      vertex   -1.150000e+002 3.000000e+001 5.000000e+000
      vertex   -1.150000e+002 3.000000e+001 0.000000e+000
      vertex   -1.150000e+002 4.000000e+001 5.000000e+000
    endloop
  endfacet
  facet normal 1.000000e+000 -0.000000e+000 0.000000e+000
    outer loop
      vertex   -1.150000e+002 4.000000e+001 5.000000e+000
      vertex   -1.150000e+002 3.000000e+001 0.000000e+000
      vertex   -1.150000e+002 4.000000e+001 0.000000e+000
    endloop
  endfacet
  facet normal 0.000000e+000 -1.000000e+000 0.000000e+000
    outer loop
      vertex   -5.000000e+001 4.000000e+001 5.000000e+000
      vertex   -5.000000e+001 4.000000e+001 0.000000e+000
      vertex   -3.500000e+001 4.000000e+001 5.000000e+000
    endloop
  endfacet
  facet normal 0.000000e+000 -1.000000e+000 -0.000000e+000
    outer loop
      vertex   -3.500000e+001 4.000000e+001 5.000000e+000
      vertex   -5.000000e+001 4.000000e+001 0.000000e+000
      vertex   -3.500000e+001 4.000000e+001 0.000000e+000
    endloop
  endfacet
  facet normal -1.000000e+000 -0.000000e+000 -0.000000e+000
    outer loop
      vertex   -3.500000e+001 4.000000e+001 5.000000e+000
      vertex   -3.500000e+001 4.000000e+001 0.000000e+000
      vertex   -3.500000e+001 3.000000e+001 5.000000e+000
    endloop
  endfacet
  facet normal -1.000000e+000 -0.000000e+000 -0.000000e+000
    outer loop
      vertex   -3.500000e+001 3.000000e+001 5.000000e+000
      vertex   -3.500000e+001 4.000000e+001 0.000000e+000
      vertex   -3.500000e+001 3.000000e+001 0.000000e+000
    endloop
  endfacet
  facet normal 0.000000e+000 1.000000e+000 0.000000e+000
    outer loop
      vertex   -3.500000e+001 3.000000e+001 5.000000e+000
      vertex   -3.500000e+001 3.000000e+001 0.000000e+000
      vertex   -5.000000e+001 3.000000e+001 5.000000e+000
    endloop
  endfacet
  facet normal 0.000000e+000 1.000000e+000 0.000000e+000
    outer loop
      vertex   -5.000000e+001 3.000000e+001 5.000000e+000
      vertex   -3.500000e+001 3.000000e+001 0.000000e+000
      vertex   -5.000000e+001 3.000000e+001 0.000000e+000
    endloop
  endfacet
  facet normal 1.000000e+000 -0.000000e+000 0.000000e+000
    outer loop
      vertex   -5.000000e+001 3.000000e+001 5.000000e+000
      vertex   -5.000000e+001 3.000000e+001 0.000000e+000
      vertex   -5.000000e+001 4.000000e+001 5.000000e+000
    endloop
  endfacet
  facet normal 1.000000e+000 -0.000000e+000 0.000000e+000
    outer loop
      vertex   -5.000000e+001 4.000000e+001 5.000000e+000
      vertex   -5.000000e+001 3.000000e+001 0.000000e+000
      vertex   -5.000000e+001 4.000000e+001 0.000000e+000
    endloop
  endfacet
  facet normal -1.000000e+000 -0.000000e+000 -0.000000e+000
    outer loop
      vertex   -1.250000e+002 4.500000e+001 5.000000e+000
      vertex   -1.250000e+002 4.500000e+001 0.000000e+000
      vertex   -1.250000e+002 2.500000e+001 5.000000e+000
    endloop
  endfacet
  facet normal -1.000000e+000 -0.000000e+000 -0.000000e+000
    outer loop
      vertex   -1.250000e+002 2.500000e+001 5.000000e+000
      vertex   -1.250000e+002 4.500000e+001 0.000000e+000
      vertex   -1.250000e+002 2.500000e+001 0.000000e+000
    endloop
  endfacet
  facet normal 1.000000e+000 -0.000000e+000 0.000000e+000
    outer loop
      vertex   -2.500000e+001 2.500000e+001 5.000000e+000
      vertex   -2.500000e+001 2.500000e+001 0.000000e+000
      vertex   -2.500000e+001 4.500000e+001 5.000000e+000
    endloop
  endfacet
  facet normal 1.000000e+000 -0.000000e+000 0.000000e+000
    outer loop
      vertex   -2.500000e+001 4.500000e+001 5.000000e+000
      vertex   -2.500000e+001 2.500000e+001 0.000000e+000
      vertex   -2.500000e+001 4.500000e+001 0.000000e+000
    endloop
  endfacet
endsolid
