solid OpenSCAD_Model
  facet normal 1 -0 0
    outer loop
      vertex 21.5 0 50
      vertex 21.5 1.5 20
      vertex 21.5 1.5 50
    endloop
  endfacet
  facet normal 1 0 0
    outer loop
      vertex 21.5 1.5 20
      vertex 21.5 0 50
      vertex 21.5 0 20
    endloop
  endfacet
  facet normal 1 -0 0
    outer loop
      vertex 21.5 30.5 50
      vertex 21.5 32 20
      vertex 21.5 32 50
    endloop
  endfacet
  facet normal 1 0 0
    outer loop
      vertex 21.5 32 20
      vertex 21.5 30.5 50
      vertex 21.5 30.5 20
    endloop
  endfacet
  facet normal -1 0 0
    outer loop
      vertex 72.5 30.5 20
      vertex 72.5 32 50
      vertex 72.5 32 20
    endloop
  endfacet
  facet normal -1 -0 0
    outer loop
      vertex 72.5 32 50
      vertex 72.5 30.5 20
      vertex 72.5 30.5 50
    endloop
  endfacet
  facet normal -1 0 0
    outer loop
      vertex 72.5 0 20
      vertex 72.5 1.5 50
      vertex 72.5 1.5 20
    endloop
  endfacet
  facet normal -1 -0 0
    outer loop
      vertex 72.5 1.5 50
      vertex 72.5 0 20
      vertex 72.5 0 50
    endloop
  endfacet
  facet normal -0 0 1
    outer loop
      vertex 21.5 1.5 20
      vertex 72.5 0 20
      vertex 72.5 1.5 20
    endloop
  endfacet
  facet normal 0 0 1
    outer loop
      vertex 72.5 0 20
      vertex 21.5 1.5 20
      vertex 21.5 0 20
    endloop
  endfacet
  facet normal -0 0 1
    outer loop
      vertex 21.5 32 20
      vertex 72.5 30.5 20
      vertex 72.5 32 20
    endloop
  endfacet
  facet normal 0 0 1
    outer loop
      vertex 72.5 30.5 20
      vertex 21.5 32 20
      vertex 21.5 30.5 20
    endloop
  endfacet
  facet normal 0 -1 0
    outer loop
      vertex 0 0 50
      vertex 21.5 0 20
      vertex 21.5 0 50
    endloop
  endfacet
  facet normal 0 -1 -0
    outer loop
      vertex 21.5 0 20
      vertex 0 0 0
      vertex 72.5 0 20
    endloop
  endfacet
  facet normal 0 -1 0
    outer loop
      vertex 0 0 0
      vertex 21.5 0 20
      vertex 0 0 50
    endloop
  endfacet
  facet normal 0 -1 0
    outer loop
      vertex 72.5 0 20
      vertex 94 0 50
      vertex 72.5 0 50
    endloop
  endfacet
  facet normal 0 -1 0
    outer loop
      vertex 72.5 0 20
      vertex 94 0 0
      vertex 94 0 50
    endloop
  endfacet
  facet normal 0 -1 0
    outer loop
      vertex 94 0 0
      vertex 72.5 0 20
      vertex 0 0 0
    endloop
  endfacet
  facet normal 0 1 0
    outer loop
      vertex 94 32 50
      vertex 72.5 32 20
      vertex 72.5 32 50
    endloop
  endfacet
  facet normal 0 1 0
    outer loop
      vertex 72.5 32 20
      vertex 94 32 0
      vertex 21.5 32 20
    endloop
  endfacet
  facet normal 0 1 -0
    outer loop
      vertex 94 32 0
      vertex 72.5 32 20
      vertex 94 32 50
    endloop
  endfacet
  facet normal 0 1 -0
    outer loop
      vertex 21.5 32 20
      vertex 0 32 50
      vertex 21.5 32 50
    endloop
  endfacet
  facet normal 0 1 0
    outer loop
      vertex 21.5 32 20
      vertex 0 32 0
      vertex 0 32 50
    endloop
  endfacet
  facet normal 0 1 0
    outer loop
      vertex 0 32 0
      vertex 21.5 32 20
      vertex 94 32 0
    endloop
  endfacet
  facet normal -1 0 0
    outer loop
      vertex 0 0 0
      vertex 0 32 50
      vertex 0 32 0
    endloop
  endfacet
  facet normal -1 -0 0
    outer loop
      vertex 0 32 50
      vertex 0 0 0
      vertex 0 0 50
    endloop
  endfacet
  facet normal -0 0 1
    outer loop
      vertex 72.5 16.5 50
      vertex 92.5 15.5 50
      vertex 92.5 16.5 50
    endloop
  endfacet
  facet normal 0 0 1
    outer loop
      vertex 92.5 15.5 50
      vertex 72.5 16.5 50
      vertex 72.5 15.5 50
    endloop
  endfacet
  facet normal 0 0 1
    outer loop
      vertex 92.5 16.5 50
      vertex 94 32 50
      vertex 92.5 30.5 50
    endloop
  endfacet
  facet normal -0 0 1
    outer loop
      vertex 72.5 32 50
      vertex 92.5 30.5 50
      vertex 94 32 50
    endloop
  endfacet
  facet normal 0 0 1
    outer loop
      vertex 92.5 30.5 50
      vertex 72.5 32 50
      vertex 72.5 30.5 50
    endloop
  endfacet
  facet normal 0 0 1
    outer loop
      vertex 94 32 50
      vertex 92.5 16.5 50
      vertex 94 0 50
    endloop
  endfacet
  facet normal -0 0 1
    outer loop
      vertex 92.5 15.5 50
      vertex 94 0 50
      vertex 92.5 16.5 50
    endloop
  endfacet
  facet normal -0 0 1
    outer loop
      vertex 92.5 1.5 50
      vertex 94 0 50
      vertex 92.5 15.5 50
    endloop
  endfacet
  facet normal 0 0 1
    outer loop
      vertex 72.5 0 50
      vertex 92.5 1.5 50
      vertex 72.5 1.5 50
    endloop
  endfacet
  facet normal 0 0 1
    outer loop
      vertex 92.5 1.5 50
      vertex 72.5 0 50
      vertex 94 0 50
    endloop
  endfacet
  facet normal 0 0 1
    outer loop
      vertex 21.5 32 50
      vertex 1.5 30.5 50
      vertex 21.5 30.5 50
    endloop
  endfacet
  facet normal 0 0 1
    outer loop
      vertex 0 32 50
      vertex 1.5 16.5 50
      vertex 1.5 30.5 50
    endloop
  endfacet
  facet normal 0 0 1
    outer loop
      vertex 1.5 16.5 50
      vertex 0 32 50
      vertex 1.5 15.5 50
    endloop
  endfacet
  facet normal 0 0 1
    outer loop
      vertex 0 0 50
      vertex 1.5 15.5 50
      vertex 0 32 50
    endloop
  endfacet
  facet normal -0 0 1
    outer loop
      vertex 0 32 50
      vertex 1.5 30.5 50
      vertex 21.5 32 50
    endloop
  endfacet
  facet normal -0 0 1
    outer loop
      vertex 1.5 16.5 50
      vertex 21.5 15.5 50
      vertex 21.5 16.5 50
    endloop
  endfacet
  facet normal 0 0 1
    outer loop
      vertex 21.5 15.5 50
      vertex 1.5 16.5 50
      vertex 1.5 15.5 50
    endloop
  endfacet
  facet normal -0 0 1
    outer loop
      vertex 1.5 1.5 50
      vertex 21.5 0 50
      vertex 21.5 1.5 50
    endloop
  endfacet
  facet normal 0 0 1
    outer loop
      vertex 1.5 1.5 50
      vertex 0 0 50
      vertex 21.5 0 50
    endloop
  endfacet
  facet normal 0 0 1
    outer loop
      vertex 1.5 15.5 50
      vertex 0 0 50
      vertex 1.5 1.5 50
    endloop
  endfacet
  facet normal 1 -0 0
    outer loop
      vertex 94 0 50
      vertex 94 32 0
      vertex 94 32 50
    endloop
  endfacet
  facet normal 1 0 0
    outer loop
      vertex 94 32 0
      vertex 94 0 50
      vertex 94 0 0
    endloop
  endfacet
  facet normal 0 0 -1
    outer loop
      vertex 94 0 0
      vertex 72.5 13.5 0
      vertex 94 32 0
    endloop
  endfacet
  facet normal 0 0 -1
    outer loop
      vertex 94 0 0
      vertex 21.5 13.5 0
      vertex 72.5 13.5 0
    endloop
  endfacet
  facet normal -0 0 -1
    outer loop
      vertex 21.5 13.5 0
      vertex 0 0 0
      vertex 21.5 18.5 0
    endloop
  endfacet
  facet normal 0 0 -1
    outer loop
      vertex 0 0 0
      vertex 21.5 13.5 0
      vertex 94 0 0
    endloop
  endfacet
  facet normal 0 0 -1
    outer loop
      vertex 72.5 18.5 0
      vertex 94 32 0
      vertex 72.5 13.5 0
    endloop
  endfacet
  facet normal 0 0 -1
    outer loop
      vertex 21.5 18.5 0
      vertex 94 32 0
      vertex 72.5 18.5 0
    endloop
  endfacet
  facet normal 0 0 -1
    outer loop
      vertex 21.5 18.5 0
      vertex 0 32 0
      vertex 94 32 0
    endloop
  endfacet
  facet normal 0 0 -1
    outer loop
      vertex 0 32 0
      vertex 21.5 18.5 0
      vertex 0 0 0
    endloop
  endfacet
  facet normal 1 -0 0
    outer loop
      vertex 1.5 1.5 50
      vertex 1.5 15.5 1
      vertex 1.5 15.5 50
    endloop
  endfacet
  facet normal 1 0 0
    outer loop
      vertex 1.5 15.5 1
      vertex 1.5 1.5 50
      vertex 1.5 1.5 1
    endloop
  endfacet
  facet normal 1 -0 0
    outer loop
      vertex 1.5 16.5 50
      vertex 1.5 30.5 1
      vertex 1.5 30.5 50
    endloop
  endfacet
  facet normal 1 0 0
    outer loop
      vertex 1.5 30.5 1
      vertex 1.5 16.5 50
      vertex 1.5 16.5 1
    endloop
  endfacet
  facet normal -1 0 0
    outer loop
      vertex 92.5 1.5 1
      vertex 92.5 15.5 50
      vertex 92.5 15.5 1
    endloop
  endfacet
  facet normal -1 -0 0
    outer loop
      vertex 92.5 15.5 50
      vertex 92.5 1.5 1
      vertex 92.5 1.5 50
    endloop
  endfacet
  facet normal -1 0 0
    outer loop
      vertex 92.5 16.5 1
      vertex 92.5 30.5 50
      vertex 92.5 30.5 1
    endloop
  endfacet
  facet normal -1 -0 0
    outer loop
      vertex 92.5 30.5 50
      vertex 92.5 16.5 1
      vertex 92.5 16.5 50
    endloop
  endfacet
  facet normal 0 -1 0
    outer loop
      vertex 1.5 30.5 50
      vertex 21.5 30.5 20
      vertex 21.5 30.5 50
    endloop
  endfacet
  facet normal 0 -1 -0
    outer loop
      vertex 21.5 30.5 20
      vertex 1.5 30.5 1
      vertex 72.5 30.5 20
    endloop
  endfacet
  facet normal 0 -1 0
    outer loop
      vertex 1.5 30.5 1
      vertex 21.5 30.5 20
      vertex 1.5 30.5 50
    endloop
  endfacet
  facet normal 0 -1 0
    outer loop
      vertex 72.5 30.5 20
      vertex 92.5 30.5 50
      vertex 72.5 30.5 50
    endloop
  endfacet
  facet normal 0 -1 0
    outer loop
      vertex 72.5 30.5 20
      vertex 92.5 30.5 1
      vertex 92.5 30.5 50
    endloop
  endfacet
  facet normal 0 -1 0
    outer loop
      vertex 92.5 30.5 1
      vertex 72.5 30.5 20
      vertex 1.5 30.5 1
    endloop
  endfacet
  facet normal 0 0 1
    outer loop
      vertex 21.5 15.5 1
      vertex 1.5 15.5 1
      vertex 21.5 13.5 1
    endloop
  endfacet
  facet normal 0 0 1
    outer loop
      vertex 72.5 13.5 1
      vertex 92.5 15.5 1
      vertex 72.5 15.5 1
    endloop
  endfacet
  facet normal 0 0 1
    outer loop
      vertex 92.5 15.5 1
      vertex 72.5 13.5 1
      vertex 92.5 1.5 1
    endloop
  endfacet
  facet normal -0 0 1
    outer loop
      vertex 21.5 13.5 1
      vertex 92.5 1.5 1
      vertex 72.5 13.5 1
    endloop
  endfacet
  facet normal 0 0 1
    outer loop
      vertex 1.5 1.5 1
      vertex 21.5 13.5 1
      vertex 1.5 15.5 1
    endloop
  endfacet
  facet normal 0 0 1
    outer loop
      vertex 21.5 13.5 1
      vertex 1.5 1.5 1
      vertex 92.5 1.5 1
    endloop
  endfacet
  facet normal 0 0 1
    outer loop
      vertex 92.5 30.5 1
      vertex 72.5 18.5 1
      vertex 92.5 16.5 1
    endloop
  endfacet
  facet normal 0 0 1
    outer loop
      vertex 92.5 30.5 1
      vertex 21.5 18.5 1
      vertex 72.5 18.5 1
    endloop
  endfacet
  facet normal -0 0 1
    outer loop
      vertex 1.5 30.5 1
      vertex 21.5 18.5 1
      vertex 92.5 30.5 1
    endloop
  endfacet
  facet normal 0 0 1
    outer loop
      vertex 1.5 16.5 1
      vertex 21.5 18.5 1
      vertex 1.5 30.5 1
    endloop
  endfacet
  facet normal 0 0 1
    outer loop
      vertex 21.5 18.5 1
      vertex 1.5 16.5 1
      vertex 21.5 16.5 1
    endloop
  endfacet
  facet normal 0 0 1
    outer loop
      vertex 92.5 16.5 1
      vertex 72.5 18.5 1
      vertex 72.5 16.5 1
    endloop
  endfacet
  facet normal 0 1 0
    outer loop
      vertex 92.5 1.5 50
      vertex 72.5 1.5 20
      vertex 72.5 1.5 50
    endloop
  endfacet
  facet normal 0 1 0
    outer loop
      vertex 72.5 1.5 20
      vertex 92.5 1.5 1
      vertex 21.5 1.5 20
    endloop
  endfacet
  facet normal 0 1 -0
    outer loop
      vertex 92.5 1.5 1
      vertex 72.5 1.5 20
      vertex 92.5 1.5 50
    endloop
  endfacet
  facet normal 0 1 -0
    outer loop
      vertex 21.5 1.5 20
      vertex 1.5 1.5 50
      vertex 21.5 1.5 50
    endloop
  endfacet
  facet normal 0 1 0
    outer loop
      vertex 21.5 1.5 20
      vertex 1.5 1.5 1
      vertex 1.5 1.5 50
    endloop
  endfacet
  facet normal 0 1 0
    outer loop
      vertex 1.5 1.5 1
      vertex 21.5 1.5 20
      vertex 92.5 1.5 1
    endloop
  endfacet
  facet normal 1 0 0
    outer loop
      vertex 21.5 16.5 50
      vertex 21.5 15.5 50
      vertex 21.5 16.5 1
    endloop
  endfacet
  facet normal 1 -0 0
    outer loop
      vertex 21.5 16.5 1
      vertex 21.5 18.5 0
      vertex 21.5 18.5 1
    endloop
  endfacet
  facet normal 1 0 0
    outer loop
      vertex 21.5 15.5 1
      vertex 21.5 16.5 1
      vertex 21.5 15.5 50
    endloop
  endfacet
  facet normal 1 -0 0
    outer loop
      vertex 21.5 15.5 1
      vertex 21.5 18.5 0
      vertex 21.5 16.5 1
    endloop
  endfacet
  facet normal 1 0 0
    outer loop
      vertex 21.5 13.5 0
      vertex 21.5 15.5 1
      vertex 21.5 13.5 1
    endloop
  endfacet
  facet normal 1 0 0
    outer loop
      vertex 21.5 15.5 1
      vertex 21.5 13.5 0
      vertex 21.5 18.5 0
    endloop
  endfacet
  facet normal -1 0 0
    outer loop
      vertex 72.5 18.5 0
      vertex 72.5 16.5 1
      vertex 72.5 18.5 1
    endloop
  endfacet
  facet normal -1 0 0
    outer loop
      vertex 72.5 16.5 1
      vertex 72.5 15.5 1
      vertex 72.5 16.5 50
    endloop
  endfacet
  facet normal -1 0 0
    outer loop
      vertex 72.5 18.5 0
      vertex 72.5 15.5 1
      vertex 72.5 16.5 1
    endloop
  endfacet
  facet normal -1 0 0
    outer loop
      vertex 72.5 13.5 0
      vertex 72.5 15.5 1
      vertex 72.5 18.5 0
    endloop
  endfacet
  facet normal -1 -0 0
    outer loop
      vertex 72.5 15.5 1
      vertex 72.5 13.5 0
      vertex 72.5 13.5 1
    endloop
  endfacet
  facet normal -1 -0 0
    outer loop
      vertex 72.5 16.5 50
      vertex 72.5 15.5 1
      vertex 72.5 15.5 50
    endloop
  endfacet
  facet normal 0 -1 0
    outer loop
      vertex 21.5 18.5 0
      vertex 72.5 18.5 1
      vertex 21.5 18.5 1
    endloop
  endfacet
  facet normal 0 -1 -0
    outer loop
      vertex 72.5 18.5 1
      vertex 21.5 18.5 0
      vertex 72.5 18.5 0
    endloop
  endfacet
  facet normal 0 1 -0
    outer loop
      vertex 72.5 13.5 0
      vertex 21.5 13.5 1
      vertex 72.5 13.5 1
    endloop
  endfacet
  facet normal 0 1 0
    outer loop
      vertex 21.5 13.5 1
      vertex 72.5 13.5 0
      vertex 21.5 13.5 0
    endloop
  endfacet
  facet normal 0 1 -0
    outer loop
      vertex 92.5 16.5 1
      vertex 72.5 16.5 50
      vertex 92.5 16.5 50
    endloop
  endfacet
  facet normal 0 1 0
    outer loop
      vertex 72.5 16.5 50
      vertex 92.5 16.5 1
      vertex 72.5 16.5 1
    endloop
  endfacet
  facet normal 0 1 -0
    outer loop
      vertex 21.5 16.5 1
      vertex 1.5 16.5 50
      vertex 21.5 16.5 50
    endloop
  endfacet
  facet normal 0 1 0
    outer loop
      vertex 1.5 16.5 50
      vertex 21.5 16.5 1
      vertex 1.5 16.5 1
    endloop
  endfacet
  facet normal 0 -1 0
    outer loop
      vertex 72.5 15.5 1
      vertex 92.5 15.5 50
      vertex 72.5 15.5 50
    endloop
  endfacet
  facet normal 0 -1 -0
    outer loop
      vertex 92.5 15.5 50
      vertex 72.5 15.5 1
      vertex 92.5 15.5 1
    endloop
  endfacet
  facet normal 0 -1 0
    outer loop
      vertex 1.5 15.5 1
      vertex 21.5 15.5 50
      vertex 1.5 15.5 50
    endloop
  endfacet
  facet normal 0 -1 -0
    outer loop
      vertex 21.5 15.5 50
      vertex 1.5 15.5 1
      vertex 21.5 15.5 1
    endloop
  endfacet
endsolid OpenSCAD_Model
