solid OpenSCAD_Model
  facet normal -1 0 0
    outer loop
      vertex 0 0 0
      vertex 0 7.5 7.5
      vertex 0 7.5 0
    endloop
  endfacet
  facet normal -1 -0 0
    outer loop
      vertex 0 7.5 7.5
      vertex 0 0 0
      vertex 0 0 7.5
    endloop
  endfacet
  facet normal 0 0 1
    outer loop
      vertex 150 22 7.5
      vertex 140 18 7.5
      vertex 150 18 7.5
    endloop
  endfacet
  facet normal 0 0 1
    outer loop
      vertex 136 7.5 7.5
      vertex 140 18 7.5
      vertex 136 22 7.5
    endloop
  endfacet
  facet normal -0 0 1
    outer loop
      vertex 136 22 7.5
      vertex 140 18 7.5
      vertex 150 22 7.5
    endloop
  endfacet
  facet normal -0 0 1
    outer loop
      vertex 140 7.5 7.5
      vertex 150 0 7.5
      vertex 150 7.5 7.5
    endloop
  endfacet
  facet normal 0 0 1
    outer loop
      vertex 140 18 7.5
      vertex 136 7.5 7.5
      vertex 140 7.5 7.5
    endloop
  endfacet
  facet normal -0 0 1
    outer loop
      vertex 136 7.5 7.5
      vertex 150 0 7.5
      vertex 140 7.5 7.5
    endloop
  endfacet
  facet normal 0 0 1
    outer loop
      vertex 0 0 7.5
      vertex 136 7.5 7.5
      vertex 0 7.5 7.5
    endloop
  endfacet
  facet normal 0 0 1
    outer loop
      vertex 136 7.5 7.5
      vertex 0 0 7.5
      vertex 150 0 7.5
    endloop
  endfacet
  facet normal 1 -0 0
    outer loop
      vertex 150 0 7.5
      vertex 150 7.5 0
      vertex 150 7.5 7.5
    endloop
  endfacet
  facet normal 1 0 0
    outer loop
      vertex 150 7.5 0
      vertex 150 0 7.5
      vertex 150 0 0
    endloop
  endfacet
  facet normal 0 0 -1
    outer loop
      vertex 150 0 0
      vertex 140 7.5 0
      vertex 150 7.5 0
    endloop
  endfacet
  facet normal 0 0 -1
    outer loop
      vertex 140 7.5 0
      vertex 136 7.5 0
      vertex 140 18 0
    endloop
  endfacet
  facet normal 0 0 -1
    outer loop
      vertex 150 0 0
      vertex 136 7.5 0
      vertex 140 7.5 0
    endloop
  endfacet
  facet normal 0 0 -1
    outer loop
      vertex 0 0 0
      vertex 136 7.5 0
      vertex 150 0 0
    endloop
  endfacet
  facet normal -0 0 -1
    outer loop
      vertex 136 7.5 0
      vertex 0 0 0
      vertex 0 7.5 0
    endloop
  endfacet
  facet normal 0 0 -1
    outer loop
      vertex 140 18 0
      vertex 150 22 0
      vertex 150 18 0
    endloop
  endfacet
  facet normal 0 0 -1
    outer loop
      vertex 140 18 0
      vertex 136 22 0
      vertex 150 22 0
    endloop
  endfacet
  facet normal 0 0 -1
    outer loop
      vertex 136 22 0
      vertex 140 18 0
      vertex 136 7.5 0
    endloop
  endfacet
  facet normal 0 -1 0
    outer loop
      vertex 0 0 0
      vertex 150 0 7.5
      vertex 0 0 7.5
    endloop
  endfacet
  facet normal 0 -1 -0
    outer loop
      vertex 150 0 7.5
      vertex 0 0 0
      vertex 150 0 0
    endloop
  endfacet
  facet normal 0 1 -0
    outer loop
      vertex 150 7.5 0
      vertex 140 7.5 7.5
      vertex 150 7.5 7.5
    endloop
  endfacet
  facet normal 0 1 0
    outer loop
      vertex 140 7.5 7.5
      vertex 150 7.5 0
      vertex 140 7.5 0
    endloop
  endfacet
  facet normal 0 1 -0
    outer loop
      vertex 136 7.5 0
      vertex 0 7.5 7.5
      vertex 136 7.5 7.5
    endloop
  endfacet
  facet normal 0 1 0
    outer loop
      vertex 0 7.5 7.5
      vertex 136 7.5 0
      vertex 0 7.5 0
    endloop
  endfacet
  facet normal -1 0 0
    outer loop
      vertex 136 7.5 0
      vertex 136 22 7.5
      vertex 136 22 0
    endloop
  endfacet
  facet normal -1 -0 0
    outer loop
      vertex 136 22 7.5
      vertex 136 7.5 0
      vertex 136 7.5 7.5
    endloop
  endfacet
  facet normal 1 -0 0
    outer loop
      vertex 140 7.5 7.5
      vertex 140 18 0
      vertex 140 18 7.5
    endloop
  endfacet
  facet normal 1 0 0
    outer loop
      vertex 140 18 0
      vertex 140 7.5 7.5
      vertex 140 7.5 0
    endloop
  endfacet
  facet normal 0 -1 0
    outer loop
      vertex 140 18 0
      vertex 150 18 7.5
      vertex 140 18 7.5
    endloop
  endfacet
  facet normal 0 -1 -0
    outer loop
      vertex 150 18 7.5
      vertex 140 18 0
      vertex 150 18 0
    endloop
  endfacet
  facet normal 1 -0 0
    outer loop
      vertex 150 18 7.5
      vertex 150 22 0
      vertex 150 22 7.5
    endloop
  endfacet
  facet normal 1 0 0
    outer loop
      vertex 150 22 0
      vertex 150 18 7.5
      vertex 150 18 0
    endloop
  endfacet
  facet normal 0 1 -0
    outer loop
      vertex 150 22 0
      vertex 136 22 7.5
      vertex 150 22 7.5
    endloop
  endfacet
  facet normal 0 1 0
    outer loop
      vertex 136 22 7.5
      vertex 150 22 0
      vertex 136 22 0
    endloop
  endfacet
endsolid OpenSCAD_Model
