solid ascii
  facet normal -7.894919e-016 -1.000000e+000 -0.000000e+000
    outer loop
      vertex   -5.600000e+001 1.235000e+002 1.000000e+001
      vertex   -5.600000e+001 1.235000e+002 2.000000e+000
      vertex   -3.800000e+001 1.235000e+002 1.000000e+001
    endloop
  endfacet
  facet normal 4.584147e-016 -1.000000e+000 -2.807790e-015
    outer loop
      vertex   -3.800000e+001 1.235000e+002 1.000000e+001
      vertex   -5.600000e+001 1.235000e+002 2.000000e+000
      vertex   -2.500000e+001 1.235000e+002 2.000000e+000
    endloop
  endfacet
  facet normal 2.583792e-015 -1.000000e+000 0.000000e+000
    outer loop
      vertex   -3.600000e+001 1.235000e+002 1.000000e+001
      vertex   -2.500000e+001 1.235000e+002 2.000000e+000
      vertex   -2.500000e+001 1.235000e+002 1.000000e+001
    endloop
  endfacet
  facet normal -0.000000e+000 -1.000000e+000 -3.552714e-015
    outer loop
      vertex   -3.600000e+001 1.235000e+002 1.000000e+001
      vertex   -3.800000e+001 1.235000e+002 1.000000e+001
      vertex   -2.500000e+001 1.235000e+002 2.000000e+000
    endloop
  endfacet
  facet normal -0.000000e+000 -1.000000e+000 0.000000e+000
    outer loop
      vertex   -3.600000e+001 1.235000e+002 1.000000e+001
      vertex   -3.600000e+001 1.235000e+002 3.000000e+001
      vertex   -3.800000e+001 1.235000e+002 1.000000e+001
    endloop
  endfacet
  facet normal 0.000000e+000 -1.000000e+000 0.000000e+000
    outer loop
      vertex   -3.800000e+001 1.235000e+002 1.000000e+001
      vertex   -3.600000e+001 1.235000e+002 3.000000e+001
      vertex   -3.800000e+001 1.235000e+002 3.000000e+001
    endloop
  endfacet
  facet normal -1.000000e+000 0.000000e+000 0.000000e+000
    outer loop
      vertex   -3.800000e+001 1.235000e+002 1.000000e+001
      vertex   -3.800000e+001 1.235000e+002 3.000000e+001
      vertex   -3.800000e+001 1.360000e+002 1.000000e+001
    endloop
  endfacet
  facet normal -1.000000e+000 0.000000e+000 0.000000e+000
    outer loop
      vertex   -3.800000e+001 1.360000e+002 1.000000e+001
      vertex   -3.800000e+001 1.235000e+002 3.000000e+001
      vertex   -3.800000e+001 1.360000e+002 3.000000e+001
    endloop
  endfacet
  facet normal 1.000000e+000 0.000000e+000 0.000000e+000
    outer loop
      vertex   -3.600000e+001 1.380000e+002 1.000000e+001
      vertex   -3.600000e+001 1.380000e+002 3.000000e+001
      vertex   -3.600000e+001 1.235000e+002 1.000000e+001
    endloop
  endfacet
  facet normal 1.000000e+000 0.000000e+000 -0.000000e+000
    outer loop
      vertex   -3.600000e+001 1.235000e+002 1.000000e+001
      vertex   -3.600000e+001 1.380000e+002 3.000000e+001
      vertex   -3.600000e+001 1.235000e+002 3.000000e+001
    endloop
  endfacet
  facet normal 0.000000e+000 -0.000000e+000 1.000000e+000
    outer loop
      vertex   -3.600000e+001 1.235000e+002 3.000000e+001
      vertex   -3.600000e+001 1.380000e+002 3.000000e+001
      vertex   -3.800000e+001 1.360000e+002 3.000000e+001
    endloop
  endfacet
  facet normal 0.000000e+000 -0.000000e+000 1.000000e+000
    outer loop
      vertex   -3.800000e+001 1.235000e+002 3.000000e+001
      vertex   -3.600000e+001 1.235000e+002 3.000000e+001
      vertex   -3.800000e+001 1.360000e+002 3.000000e+001
    endloop
  endfacet
  facet normal 1.973730e-016 0.000000e+000 1.000000e+000
    outer loop
      vertex   -5.600000e+001 1.360000e+002 3.000000e+001
      vertex   -3.800000e+001 1.360000e+002 3.000000e+001
      vertex   -5.600000e+001 1.380000e+002 3.000000e+001
    endloop
  endfacet
  facet normal 1.776357e-016 -1.776357e-016 1.000000e+000
    outer loop
      vertex   -5.600000e+001 1.380000e+002 3.000000e+001
      vertex   -3.800000e+001 1.360000e+002 3.000000e+001
      vertex   -3.600000e+001 1.380000e+002 3.000000e+001
    endloop
  endfacet
  facet normal -0.000000e+000 -1.000000e+000 0.000000e+000
    outer loop
      vertex   -3.800000e+001 1.360000e+002 1.000000e+001
      vertex   -3.800000e+001 1.360000e+002 3.000000e+001
      vertex   -5.600000e+001 1.360000e+002 1.000000e+001
    endloop
  endfacet
  facet normal 0.000000e+000 -1.000000e+000 0.000000e+000
    outer loop
      vertex   -5.600000e+001 1.360000e+002 1.000000e+001
      vertex   -3.800000e+001 1.360000e+002 3.000000e+001
      vertex   -5.600000e+001 1.360000e+002 3.000000e+001
    endloop
  endfacet
  facet normal 0.000000e+000 -0.000000e+000 1.000000e+000
    outer loop
      vertex   -3.600000e+001 1.235000e+002 1.000000e+001
      vertex   -2.500000e+001 1.235000e+002 1.000000e+001
      vertex   -3.600000e+001 1.380000e+002 1.000000e+001
    endloop
  endfacet
  facet normal -0.000000e+000 0.000000e+000 1.000000e+000
    outer loop
      vertex   -3.600000e+001 1.380000e+002 1.000000e+001
      vertex   -2.500000e+001 1.235000e+002 1.000000e+001
      vertex   -2.500000e+001 1.380000e+002 1.000000e+001
    endloop
  endfacet
  facet normal 0.000000e+000 0.000000e+000 1.000000e+000
    outer loop
      vertex   -3.800000e+001 1.360000e+002 1.000000e+001
      vertex   -5.600000e+001 1.360000e+002 1.000000e+001
      vertex   -3.800000e+001 1.235000e+002 1.000000e+001
    endloop
  endfacet
  facet normal 0.000000e+000 0.000000e+000 1.000000e+000
    outer loop
      vertex   -3.800000e+001 1.235000e+002 1.000000e+001
      vertex   -5.600000e+001 1.360000e+002 1.000000e+001
      vertex   -5.600000e+001 1.235000e+002 1.000000e+001
    endloop
  endfacet
  facet normal -1.000000e+000 -0.000000e+000 -0.000000e+000
    outer loop
      vertex   -5.600000e+001 1.380000e+002 3.000000e+001
      vertex   -5.600000e+001 1.380000e+002 2.000000e+000
      vertex   -5.600000e+001 1.360000e+002 1.000000e+001
    endloop
  endfacet
  facet normal -1.000000e+000 0.000000e+000 -0.000000e+000
    outer loop
      vertex   -5.600000e+001 1.360000e+002 3.000000e+001
      vertex   -5.600000e+001 1.380000e+002 3.000000e+001
      vertex   -5.600000e+001 1.360000e+002 1.000000e+001
    endloop
  endfacet
  facet normal -1.000000e+000 0.000000e+000 -0.000000e+000
    outer loop
      vertex   -5.600000e+001 1.235000e+002 1.000000e+001
      vertex   -5.600000e+001 1.360000e+002 1.000000e+001
      vertex   -5.600000e+001 1.235000e+002 2.000000e+000
    endloop
  endfacet
  facet normal -1.000000e+000 0.000000e+000 0.000000e+000
    outer loop
      vertex   -5.600000e+001 1.235000e+002 2.000000e+000
      vertex   -5.600000e+001 1.360000e+002 1.000000e+001
      vertex   -5.600000e+001 1.380000e+002 2.000000e+000
    endloop
  endfacet
  facet normal 0.000000e+000 0.000000e+000 -1.000000e+000
    outer loop
      vertex   -7.100000e+001 4.400000e+001 0.000000e+000
      vertex   -7.100000e+001 6.900000e+001 0.000000e+000
      vertex   -3.600000e+001 4.400000e+001 0.000000e+000
    endloop
  endfacet
  facet normal 0.000000e+000 0.000000e+000 -1.000000e+000
    outer loop
      vertex   -7.100000e+001 4.400000e+001 0.000000e+000
      vertex   -1.060000e+002 4.400000e+001 0.000000e+000
      vertex   -7.100000e+001 6.900000e+001 0.000000e+000
    endloop
  endfacet
  facet normal -0.000000e+000 0.000000e+000 -1.000000e+000
    outer loop
      vertex   -7.100000e+001 6.900000e+001 0.000000e+000
      vertex   -1.060000e+002 4.400000e+001 0.000000e+000
      vertex   -1.170000e+002 6.900000e+001 0.000000e+000
    endloop
  endfacet
  facet normal -0.000000e+000 0.000000e+000 -1.000000e+000
    outer loop
      vertex   -1.060000e+002 7.100000e+001 0.000000e+000
      vertex   -1.170000e+002 6.900000e+001 0.000000e+000
      vertex   -1.060000e+002 1.110000e+002 0.000000e+000
    endloop
  endfacet
  facet normal -0.000000e+000 -0.000000e+000 -1.000000e+000
    outer loop
      vertex   -1.060000e+002 7.100000e+001 0.000000e+000
      vertex   -7.100000e+001 6.900000e+001 0.000000e+000
      vertex   -1.170000e+002 6.900000e+001 0.000000e+000
    endloop
  endfacet
  facet normal 0.000000e+000 0.000000e+000 -1.000000e+000
    outer loop
      vertex   -1.060000e+002 7.100000e+001 0.000000e+000
      vertex   -7.100000e+001 7.100000e+001 0.000000e+000
      vertex   -7.100000e+001 6.900000e+001 0.000000e+000
    endloop
  endfacet
  facet normal 0.000000e+000 0.000000e+000 -1.000000e+000
    outer loop
      vertex   -7.100000e+001 6.900000e+001 0.000000e+000
      vertex   -7.100000e+001 7.100000e+001 0.000000e+000
      vertex   -3.600000e+001 7.100000e+001 0.000000e+000
    endloop
  endfacet
  facet normal 0.000000e+000 0.000000e+000 -1.000000e+000
    outer loop
      vertex   -2.500000e+001 6.900000e+001 0.000000e+000
      vertex   -3.600000e+001 7.100000e+001 0.000000e+000
      vertex   -3.600000e+001 1.110000e+002 0.000000e+000
    endloop
  endfacet
  facet normal -0.000000e+000 0.000000e+000 -1.000000e+000
    outer loop
      vertex   -2.500000e+001 1.130000e+002 0.000000e+000
      vertex   -3.600000e+001 1.110000e+002 0.000000e+000
      vertex   -7.100000e+001 1.130000e+002 0.000000e+000
    endloop
  endfacet
  facet normal -0.000000e+000 0.000000e+000 -1.000000e+000
    outer loop
      vertex   -3.600000e+001 1.380000e+002 0.000000e+000
      vertex   -7.100000e+001 1.130000e+002 0.000000e+000
      vertex   -7.100000e+001 1.380000e+002 0.000000e+000
    endloop
  endfacet
  facet normal -0.000000e+000 -0.000000e+000 -1.000000e+000
    outer loop
      vertex   -3.600000e+001 1.380000e+002 0.000000e+000
      vertex   -2.500000e+001 1.130000e+002 0.000000e+000
      vertex   -7.100000e+001 1.130000e+002 0.000000e+000
    endloop
  endfacet
  facet normal 0.000000e+000 0.000000e+000 -1.000000e+000
    outer loop
      vertex   -3.600000e+001 1.380000e+002 0.000000e+000
      vertex   -2.500000e+001 1.570000e+002 0.000000e+000
      vertex   -2.500000e+001 1.130000e+002 0.000000e+000
    endloop
  endfacet
  facet normal 0.000000e+000 0.000000e+000 -1.000000e+000
    outer loop
      vertex   -3.600000e+001 1.380000e+002 0.000000e+000
      vertex   -3.600000e+001 1.500000e+002 0.000000e+000
      vertex   -2.500000e+001 1.570000e+002 0.000000e+000
    endloop
  endfacet
  facet normal -0.000000e+000 0.000000e+000 -1.000000e+000
    outer loop
      vertex   -2.500000e+001 1.570000e+002 0.000000e+000
      vertex   -3.600000e+001 1.500000e+002 0.000000e+000
      vertex   -7.100000e+001 1.570000e+002 0.000000e+000
    endloop
  endfacet
  facet normal -0.000000e+000 -0.000000e+000 -1.000000e+000
    outer loop
      vertex   -7.100000e+001 1.570000e+002 0.000000e+000
      vertex   -3.600000e+001 1.500000e+002 0.000000e+000
      vertex   -7.100000e+001 1.500000e+002 0.000000e+000
    endloop
  endfacet
  facet normal 0.000000e+000 0.000000e+000 -1.000000e+000
    outer loop
      vertex   -1.060000e+002 1.500000e+002 0.000000e+000
      vertex   -7.100000e+001 1.570000e+002 0.000000e+000
      vertex   -7.100000e+001 1.500000e+002 0.000000e+000
    endloop
  endfacet
  facet normal 0.000000e+000 0.000000e+000 -1.000000e+000
    outer loop
      vertex   -1.060000e+002 1.500000e+002 0.000000e+000
      vertex   -1.170000e+002 1.570000e+002 0.000000e+000
      vertex   -7.100000e+001 1.570000e+002 0.000000e+000
    endloop
  endfacet
  facet normal -0.000000e+000 -0.000000e+000 -1.000000e+000
    outer loop
      vertex   -1.060000e+002 1.500000e+002 0.000000e+000
      vertex   -1.060000e+002 1.380000e+002 0.000000e+000
      vertex   -1.170000e+002 1.570000e+002 0.000000e+000
    endloop
  endfacet
  facet normal 0.000000e+000 -0.000000e+000 -1.000000e+000
    outer loop
      vertex   -1.170000e+002 1.570000e+002 0.000000e+000
      vertex   -1.060000e+002 1.380000e+002 0.000000e+000
      vertex   -1.170000e+002 1.130000e+002 0.000000e+000
    endloop
  endfacet
  facet normal 0.000000e+000 0.000000e+000 -1.000000e+000
    outer loop
      vertex   -1.170000e+002 1.130000e+002 0.000000e+000
      vertex   -1.060000e+002 1.380000e+002 0.000000e+000
      vertex   -7.100000e+001 1.130000e+002 0.000000e+000
    endloop
  endfacet
  facet normal 0.000000e+000 0.000000e+000 -1.000000e+000
    outer loop
      vertex   -1.060000e+002 1.110000e+002 0.000000e+000
      vertex   -7.100000e+001 1.130000e+002 0.000000e+000
      vertex   -7.100000e+001 1.110000e+002 0.000000e+000
    endloop
  endfacet
  facet normal 0.000000e+000 0.000000e+000 -1.000000e+000
    outer loop
      vertex   -1.060000e+002 1.110000e+002 0.000000e+000
      vertex   -1.170000e+002 1.130000e+002 0.000000e+000
      vertex   -7.100000e+001 1.130000e+002 0.000000e+000
    endloop
  endfacet
  facet normal -0.000000e+000 0.000000e+000 -1.000000e+000
    outer loop
      vertex   -1.060000e+002 1.110000e+002 0.000000e+000
      vertex   -1.170000e+002 6.900000e+001 0.000000e+000
      vertex   -1.170000e+002 1.130000e+002 0.000000e+000
    endloop
  endfacet
  facet normal 0.000000e+000 -0.000000e+000 -1.000000e+000
    outer loop
      vertex   -1.170000e+002 6.900000e+001 0.000000e+000
      vertex   -1.060000e+002 4.400000e+001 0.000000e+000
      vertex   -1.170000e+002 2.500000e+001 0.000000e+000
    endloop
  endfacet
  facet normal 0.000000e+000 0.000000e+000 -1.000000e+000
    outer loop
      vertex   -1.170000e+002 2.500000e+001 0.000000e+000
      vertex   -1.060000e+002 4.400000e+001 0.000000e+000
      vertex   -1.060000e+002 3.200000e+001 0.000000e+000
    endloop
  endfacet
  facet normal 0.000000e+000 0.000000e+000 -1.000000e+000
    outer loop
      vertex   -7.100000e+001 2.500000e+001 0.000000e+000
      vertex   -1.060000e+002 3.200000e+001 0.000000e+000
      vertex   -7.100000e+001 3.200000e+001 0.000000e+000
    endloop
  endfacet
  facet normal -0.000000e+000 0.000000e+000 -1.000000e+000
    outer loop
      vertex   -3.600000e+001 3.200000e+001 0.000000e+000
      vertex   -7.100000e+001 2.500000e+001 0.000000e+000
      vertex   -7.100000e+001 3.200000e+001 0.000000e+000
    endloop
  endfacet
  facet normal -0.000000e+000 -0.000000e+000 -1.000000e+000
    outer loop
      vertex   -3.600000e+001 3.200000e+001 0.000000e+000
      vertex   -2.500000e+001 2.500000e+001 0.000000e+000
      vertex   -7.100000e+001 2.500000e+001 0.000000e+000
    endloop
  endfacet
  facet normal 0.000000e+000 0.000000e+000 -1.000000e+000
    outer loop
      vertex   -3.600000e+001 3.200000e+001 0.000000e+000
      vertex   -3.600000e+001 4.400000e+001 0.000000e+000
      vertex   -2.500000e+001 2.500000e+001 0.000000e+000
    endloop
  endfacet
  facet normal 0.000000e+000 0.000000e+000 -1.000000e+000
    outer loop
      vertex   -2.500000e+001 2.500000e+001 0.000000e+000
      vertex   -3.600000e+001 4.400000e+001 0.000000e+000
      vertex   -2.500000e+001 6.900000e+001 0.000000e+000
    endloop
  endfacet
  facet normal -0.000000e+000 0.000000e+000 -1.000000e+000
    outer loop
      vertex   -2.500000e+001 6.900000e+001 0.000000e+000
      vertex   -3.600000e+001 4.400000e+001 0.000000e+000
      vertex   -7.100000e+001 6.900000e+001 0.000000e+000
    endloop
  endfacet
  facet normal -0.000000e+000 -0.000000e+000 -1.000000e+000
    outer loop
      vertex   -3.600000e+001 7.100000e+001 0.000000e+000
      vertex   -2.500000e+001 6.900000e+001 0.000000e+000
      vertex   -7.100000e+001 6.900000e+001 0.000000e+000
    endloop
  endfacet
  facet normal 0.000000e+000 0.000000e+000 -1.000000e+000
    outer loop
      vertex   -1.170000e+002 2.500000e+001 0.000000e+000
      vertex   -1.060000e+002 3.200000e+001 0.000000e+000
      vertex   -7.100000e+001 2.500000e+001 0.000000e+000
    endloop
  endfacet
  facet normal 0.000000e+000 0.000000e+000 -1.000000e+000
    outer loop
      vertex   -3.600000e+001 1.110000e+002 0.000000e+000
      vertex   -7.100000e+001 1.110000e+002 0.000000e+000
      vertex   -7.100000e+001 1.130000e+002 0.000000e+000
    endloop
  endfacet
  facet normal -0.000000e+000 -0.000000e+000 -1.000000e+000
    outer loop
      vertex   -2.500000e+001 1.130000e+002 0.000000e+000
      vertex   -2.500000e+001 6.900000e+001 0.000000e+000
      vertex   -3.600000e+001 1.110000e+002 0.000000e+000
    endloop
  endfacet
  facet normal 0.000000e+000 0.000000e+000 -1.000000e+000
    outer loop
      vertex   -1.060000e+002 1.380000e+002 0.000000e+000
      vertex   -7.100000e+001 1.380000e+002 0.000000e+000
      vertex   -7.100000e+001 1.130000e+002 0.000000e+000
    endloop
  endfacet
  facet normal -4.037175e-017 0.000000e+000 1.000000e+000
    outer loop
      vertex   -3.600000e+001 1.380000e+002 2.000000e+000
      vertex   -2.500000e+001 1.380000e+002 2.000000e+000
      vertex   -3.600000e+001 1.500000e+002 2.000000e+000
    endloop
  endfacet
  facet normal -4.037175e-017 1.509782e-032 1.000000e+000
    outer loop
      vertex   -3.600000e+001 1.500000e+002 2.000000e+000
      vertex   -2.500000e+001 1.380000e+002 2.000000e+000
      vertex   -2.500000e+001 1.570000e+002 2.000000e+000
    endloop
  endfacet
  facet normal 0.000000e+000 -6.344132e-017 1.000000e+000
    outer loop
      vertex   -7.100000e+001 1.570000e+002 2.000000e+000
      vertex   -3.600000e+001 1.500000e+002 2.000000e+000
      vertex   -2.500000e+001 1.570000e+002 2.000000e+000
    endloop
  endfacet
  facet normal 1.268826e-017 0.000000e+000 1.000000e+000
    outer loop
      vertex   -7.100000e+001 1.570000e+002 2.000000e+000
      vertex   -7.100000e+001 1.500000e+002 2.000000e+000
      vertex   -3.600000e+001 1.500000e+002 2.000000e+000
    endloop
  endfacet
  facet normal -1.268826e-017 0.000000e+000 1.000000e+000
    outer loop
      vertex   -7.100000e+001 1.570000e+002 2.000000e+000
      vertex   -1.060000e+002 1.500000e+002 2.000000e+000
      vertex   -7.100000e+001 1.500000e+002 2.000000e+000
    endloop
  endfacet
  facet normal 0.000000e+000 -6.344132e-017 1.000000e+000
    outer loop
      vertex   -7.100000e+001 1.570000e+002 2.000000e+000
      vertex   -1.170000e+002 1.570000e+002 2.000000e+000
      vertex   -1.060000e+002 1.500000e+002 2.000000e+000
    endloop
  endfacet
  facet normal 4.037175e-017 0.000000e+000 1.000000e+000
    outer loop
      vertex   -1.060000e+002 1.500000e+002 2.000000e+000
      vertex   -1.170000e+002 1.570000e+002 2.000000e+000
      vertex   -1.170000e+002 1.380000e+002 2.000000e+000
    endloop
  endfacet
  facet normal 4.037175e-017 -0.000000e+000 1.000000e+000
    outer loop
      vertex   -1.060000e+002 1.380000e+002 2.000000e+000
      vertex   -1.060000e+002 1.500000e+002 2.000000e+000
      vertex   -1.170000e+002 1.380000e+002 2.000000e+000
    endloop
  endfacet
  facet normal -5.921189e-017 6.125368e-017 1.000000e+000
    outer loop
      vertex   -5.600000e+001 1.380000e+002 2.000000e+000
      vertex   -7.100000e+001 1.235000e+002 2.000000e+000
      vertex   -5.600000e+001 1.235000e+002 2.000000e+000
    endloop
  endfacet
  facet normal 0.000000e+000 0.000000e+000 1.000000e+000
    outer loop
      vertex   -5.600000e+001 1.380000e+002 2.000000e+000
      vertex   -8.600000e+001 1.380000e+002 2.000000e+000
      vertex   -7.100000e+001 1.235000e+002 2.000000e+000
    endloop
  endfacet
  facet normal -2.960595e-017 -3.062684e-017 1.000000e+000
    outer loop
      vertex   -7.100000e+001 1.235000e+002 2.000000e+000
      vertex   -8.600000e+001 1.380000e+002 2.000000e+000
      vertex   -8.600000e+001 1.235000e+002 2.000000e+000
    endloop
  endfacet
  facet normal -1.268826e-017 2.030122e-017 1.000000e+000
    outer loop
      vertex   -7.100000e+001 1.110000e+002 2.000000e+000
      vertex   -8.600000e+001 1.235000e+002 2.000000e+000
      vertex   -1.060000e+002 1.110000e+002 2.000000e+000
    endloop
  endfacet
  facet normal -2.960595e-017 0.000000e+000 1.000000e+000
    outer loop
      vertex   -7.100000e+001 1.110000e+002 2.000000e+000
      vertex   -7.100000e+001 1.235000e+002 2.000000e+000
      vertex   -8.600000e+001 1.235000e+002 2.000000e+000
    endloop
  endfacet
  facet normal -5.921189e-017 0.000000e+000 1.000000e+000
    outer loop
      vertex   -7.100000e+001 1.110000e+002 2.000000e+000
      vertex   -5.600000e+001 1.235000e+002 2.000000e+000
      vertex   -7.100000e+001 1.235000e+002 2.000000e+000
    endloop
  endfacet
  facet normal 1.268826e-017 -8.628019e-017 1.000000e+000
    outer loop
      vertex   -7.100000e+001 1.110000e+002 2.000000e+000
      vertex   -3.600000e+001 1.110000e+002 2.000000e+000
      vertex   -5.600000e+001 1.235000e+002 2.000000e+000
    endloop
  endfacet
  facet normal 2.865092e-017 -6.073994e-017 1.000000e+000
    outer loop
      vertex   -5.600000e+001 1.235000e+002 2.000000e+000
      vertex   -3.600000e+001 1.110000e+002 2.000000e+000
      vertex   -2.500000e+001 1.235000e+002 2.000000e+000
    endloop
  endfacet
  facet normal -4.037175e-017 -8.826416e-033 1.000000e+000
    outer loop
      vertex   -2.500000e+001 1.235000e+002 2.000000e+000
      vertex   -3.600000e+001 1.110000e+002 2.000000e+000
      vertex   -2.500000e+001 9.100000e+001 2.000000e+000
    endloop
  endfacet
  facet normal -4.037175e-017 0.000000e+000 1.000000e+000
    outer loop
      vertex   -2.500000e+001 9.100000e+001 2.000000e+000
      vertex   -3.600000e+001 1.110000e+002 2.000000e+000
      vertex   -3.600000e+001 7.100000e+001 2.000000e+000
    endloop
  endfacet
  facet normal -1.432546e-017 2.292073e-017 1.000000e+000
    outer loop
      vertex   -2.500000e+001 5.850000e+001 2.000000e+000
      vertex   -3.600000e+001 7.100000e+001 2.000000e+000
      vertex   -5.600000e+001 5.850000e+001 2.000000e+000
    endloop
  endfacet
  facet normal -4.037175e-017 0.000000e+000 1.000000e+000
    outer loop
      vertex   -2.500000e+001 5.850000e+001 2.000000e+000
      vertex   -2.500000e+001 9.100000e+001 2.000000e+000
      vertex   -3.600000e+001 7.100000e+001 2.000000e+000
    endloop
  endfacet
  facet normal 1.432546e-017 -2.292073e-017 1.000000e+000
    outer loop
      vertex   -8.600000e+001 1.235000e+002 2.000000e+000
      vertex   -1.170000e+002 1.235000e+002 2.000000e+000
      vertex   -1.060000e+002 1.110000e+002 2.000000e+000
    endloop
  endfacet
  facet normal 4.037175e-017 0.000000e+000 1.000000e+000
    outer loop
      vertex   -1.060000e+002 1.110000e+002 2.000000e+000
      vertex   -1.170000e+002 1.235000e+002 2.000000e+000
      vertex   -1.170000e+002 9.100000e+001 2.000000e+000
    endloop
  endfacet
  facet normal 4.037175e-017 0.000000e+000 1.000000e+000
    outer loop
      vertex   -1.060000e+002 7.100000e+001 2.000000e+000
      vertex   -1.170000e+002 9.100000e+001 2.000000e+000
      vertex   -1.170000e+002 5.850000e+001 2.000000e+000
    endloop
  endfacet
  facet normal -2.865092e-017 6.073994e-017 1.000000e+000
    outer loop
      vertex   -8.600000e+001 5.850000e+001 2.000000e+000
      vertex   -1.060000e+002 7.100000e+001 2.000000e+000
      vertex   -1.170000e+002 5.850000e+001 2.000000e+000
    endloop
  endfacet
  facet normal -1.268826e-017 8.628019e-017 1.000000e+000
    outer loop
      vertex   -8.600000e+001 5.850000e+001 2.000000e+000
      vertex   -7.100000e+001 7.100000e+001 2.000000e+000
      vertex   -1.060000e+002 7.100000e+001 2.000000e+000
    endloop
  endfacet
  facet normal 4.440892e-017 1.776357e-017 1.000000e+000
    outer loop
      vertex   -8.600000e+001 5.850000e+001 2.000000e+000
      vertex   -5.600000e+001 5.850000e+001 2.000000e+000
      vertex   -7.100000e+001 7.100000e+001 2.000000e+000
    endloop
  endfacet
  facet normal 4.440892e-017 3.062684e-017 1.000000e+000
    outer loop
      vertex   -8.600000e+001 5.850000e+001 2.000000e+000
      vertex   -5.600000e+001 4.400000e+001 2.000000e+000
      vertex   -5.600000e+001 5.850000e+001 2.000000e+000
    endloop
  endfacet
  facet normal 0.000000e+000 -6.125368e-017 1.000000e+000
    outer loop
      vertex   -8.600000e+001 5.850000e+001 2.000000e+000
      vertex   -8.600000e+001 4.400000e+001 2.000000e+000
      vertex   -5.600000e+001 4.400000e+001 2.000000e+000
    endloop
  endfacet
  facet normal 4.037175e-017 0.000000e+000 1.000000e+000
    outer loop
      vertex   -1.060000e+002 1.110000e+002 2.000000e+000
      vertex   -1.170000e+002 9.100000e+001 2.000000e+000
      vertex   -1.060000e+002 7.100000e+001 2.000000e+000
    endloop
  endfacet
  facet normal 1.268826e-017 -2.030122e-017 1.000000e+000
    outer loop
      vertex   -7.100000e+001 7.100000e+001 2.000000e+000
      vertex   -5.600000e+001 5.850000e+001 2.000000e+000
      vertex   -3.600000e+001 7.100000e+001 2.000000e+000
    endloop
  endfacet
  facet normal 1.000000e+000 -0.000000e+000 0.000000e+000
    outer loop
      vertex   -8.600000e+001 1.235000e+002 1.000000e+001
      vertex   -8.600000e+001 1.235000e+002 2.000000e+000
      vertex   -8.600000e+001 1.360000e+002 1.000000e+001
    endloop
  endfacet
  facet normal 1.000000e+000 -0.000000e+000 0.000000e+000
    outer loop
      vertex   -8.600000e+001 1.360000e+002 1.000000e+001
      vertex   -8.600000e+001 1.235000e+002 2.000000e+000
      vertex   -8.600000e+001 1.380000e+002 2.000000e+000
    endloop
  endfacet
  facet normal 1.000000e+000 0.000000e+000 0.000000e+000
    outer loop
      vertex   -8.600000e+001 1.380000e+002 3.000000e+001
      vertex   -8.600000e+001 1.360000e+002 1.000000e+001
      vertex   -8.600000e+001 1.380000e+002 2.000000e+000
    endloop
  endfacet
  facet normal 1.000000e+000 0.000000e+000 0.000000e+000
    outer loop
      vertex   -8.600000e+001 1.380000e+002 3.000000e+001
      vertex   -8.600000e+001 1.360000e+002 3.000000e+001
      vertex   -8.600000e+001 1.360000e+002 1.000000e+001
    endloop
  endfacet
  facet normal 1.000000e+000 0.000000e+000 -0.000000e+000
    outer loop
      vertex   -1.040000e+002 1.360000e+002 1.000000e+001
      vertex   -1.040000e+002 1.360000e+002 3.000000e+001
      vertex   -1.040000e+002 1.235000e+002 1.000000e+001
    endloop
  endfacet
  facet normal 1.000000e+000 0.000000e+000 -0.000000e+000
    outer loop
      vertex   -1.040000e+002 1.235000e+002 1.000000e+001
      vertex   -1.040000e+002 1.360000e+002 3.000000e+001
      vertex   -1.040000e+002 1.235000e+002 3.000000e+001
    endloop
  endfacet
  facet normal -0.000000e+000 -1.000000e+000 0.000000e+000
    outer loop
      vertex   -8.600000e+001 1.360000e+002 1.000000e+001
      vertex   -8.600000e+001 1.360000e+002 3.000000e+001
      vertex   -1.040000e+002 1.360000e+002 1.000000e+001
    endloop
  endfacet
  facet normal 0.000000e+000 -1.000000e+000 0.000000e+000
    outer loop
      vertex   -1.040000e+002 1.360000e+002 1.000000e+001
      vertex   -8.600000e+001 1.360000e+002 3.000000e+001
      vertex   -1.040000e+002 1.360000e+002 3.000000e+001
    endloop
  endfacet
  facet normal -1.000000e+000 -2.940177e-015 0.000000e+000
    outer loop
      vertex   -1.060000e+002 1.235000e+002 1.000000e+001
      vertex   -1.060000e+002 1.235000e+002 3.000000e+001
      vertex   -1.060000e+002 1.380000e+002 1.000000e+001
    endloop
  endfacet
  facet normal -1.000000e+000 -2.940177e-015 0.000000e+000
    outer loop
      vertex   -1.060000e+002 1.380000e+002 1.000000e+001
      vertex   -1.060000e+002 1.235000e+002 3.000000e+001
      vertex   -1.060000e+002 1.380000e+002 3.000000e+001
    endloop
  endfacet
  facet normal 0.000000e+000 -0.000000e+000 1.000000e+000
    outer loop
      vertex   -8.600000e+001 1.360000e+002 3.000000e+001
      vertex   -8.600000e+001 1.380000e+002 3.000000e+001
      vertex   -1.040000e+002 1.360000e+002 3.000000e+001
    endloop
  endfacet
  facet normal 0.000000e+000 -0.000000e+000 1.000000e+000
    outer loop
      vertex   -1.040000e+002 1.360000e+002 3.000000e+001
      vertex   -8.600000e+001 1.380000e+002 3.000000e+001
      vertex   -1.060000e+002 1.380000e+002 3.000000e+001
    endloop
  endfacet
  facet normal 0.000000e+000 -0.000000e+000 1.000000e+000
    outer loop
      vertex   -1.060000e+002 1.235000e+002 3.000000e+001
      vertex   -1.040000e+002 1.360000e+002 3.000000e+001
      vertex   -1.060000e+002 1.380000e+002 3.000000e+001
    endloop
  endfacet
  facet normal 0.000000e+000 0.000000e+000 1.000000e+000
    outer loop
      vertex   -1.060000e+002 1.235000e+002 3.000000e+001
      vertex   -1.040000e+002 1.235000e+002 3.000000e+001
      vertex   -1.040000e+002 1.360000e+002 3.000000e+001
    endloop
  endfacet
  facet normal 0.000000e+000 0.000000e+000 1.000000e+000
    outer loop
      vertex   -1.060000e+002 1.380000e+002 1.000000e+001
      vertex   -1.170000e+002 1.380000e+002 1.000000e+001
      vertex   -1.060000e+002 1.235000e+002 1.000000e+001
    endloop
  endfacet
  facet normal 0.000000e+000 0.000000e+000 1.000000e+000
    outer loop
      vertex   -1.060000e+002 1.235000e+002 1.000000e+001
      vertex   -1.170000e+002 1.380000e+002 1.000000e+001
      vertex   -1.170000e+002 1.235000e+002 1.000000e+001
    endloop
  endfacet
  facet normal 4.584147e-016 -1.000000e+000 -7.449238e-016
    outer loop
      vertex   -8.600000e+001 1.235000e+002 2.000000e+000
      vertex   -1.040000e+002 1.235000e+002 1.000000e+001
      vertex   -1.170000e+002 1.235000e+002 2.000000e+000
    endloop
  endfacet
  facet normal 7.894919e-016 -1.000000e+000 0.000000e+000
    outer loop
      vertex   -8.600000e+001 1.235000e+002 2.000000e+000
      vertex   -8.600000e+001 1.235000e+002 1.000000e+001
      vertex   -1.040000e+002 1.235000e+002 1.000000e+001
    endloop
  endfacet
  facet normal 0.000000e+000 -1.000000e+000 0.000000e+000
    outer loop
      vertex   -1.170000e+002 1.235000e+002 2.000000e+000
      vertex   -1.040000e+002 1.235000e+002 1.000000e+001
      vertex   -1.060000e+002 1.235000e+002 1.000000e+001
    endloop
  endfacet
  facet normal 0.000000e+000 -1.000000e+000 0.000000e+000
    outer loop
      vertex   -1.170000e+002 1.235000e+002 1.000000e+001
      vertex   -1.170000e+002 1.235000e+002 2.000000e+000
      vertex   -1.060000e+002 1.235000e+002 1.000000e+001
    endloop
  endfacet
  facet normal 0.000000e+000 -1.000000e+000 0.000000e+000
    outer loop
      vertex   -1.060000e+002 1.235000e+002 3.000000e+001
      vertex   -1.060000e+002 1.235000e+002 1.000000e+001
      vertex   -1.040000e+002 1.235000e+002 3.000000e+001
    endloop
  endfacet
  facet normal 0.000000e+000 -1.000000e+000 -0.000000e+000
    outer loop
      vertex   -1.040000e+002 1.235000e+002 3.000000e+001
      vertex   -1.060000e+002 1.235000e+002 1.000000e+001
      vertex   -1.040000e+002 1.235000e+002 1.000000e+001
    endloop
  endfacet
  facet normal 0.000000e+000 -0.000000e+000 1.000000e+000
    outer loop
      vertex   -1.040000e+002 1.235000e+002 1.000000e+001
      vertex   -8.600000e+001 1.235000e+002 1.000000e+001
      vertex   -1.040000e+002 1.360000e+002 1.000000e+001
    endloop
  endfacet
  facet normal -0.000000e+000 0.000000e+000 1.000000e+000
    outer loop
      vertex   -1.040000e+002 1.360000e+002 1.000000e+001
      vertex   -8.600000e+001 1.235000e+002 1.000000e+001
      vertex   -8.600000e+001 1.360000e+002 1.000000e+001
    endloop
  endfacet
  facet normal 0.000000e+000 1.000000e+000 0.000000e+000
    outer loop
      vertex   -3.600000e+001 1.380000e+002 2.000000e+000
      vertex   -3.600000e+001 1.380000e+002 0.000000e+000
      vertex   -5.600000e+001 1.380000e+002 2.000000e+000
    endloop
  endfacet
  facet normal -1.421085e-015 1.000000e+000 0.000000e+000
    outer loop
      vertex   -3.600000e+001 1.380000e+002 1.000000e+001
      vertex   -5.600000e+001 1.380000e+002 2.000000e+000
      vertex   -5.600000e+001 1.380000e+002 3.000000e+001
    endloop
  endfacet
  facet normal 0.000000e+000 1.000000e+000 1.421085e-015
    outer loop
      vertex   -3.600000e+001 1.380000e+002 3.000000e+001
      vertex   -3.600000e+001 1.380000e+002 1.000000e+001
      vertex   -5.600000e+001 1.380000e+002 3.000000e+001
    endloop
  endfacet
  facet normal -0.000000e+000 1.000000e+000 0.000000e+000
    outer loop
      vertex   -1.060000e+002 1.380000e+002 0.000000e+000
      vertex   -8.600000e+001 1.380000e+002 2.000000e+000
      vertex   -7.100000e+001 1.380000e+002 0.000000e+000
    endloop
  endfacet
  facet normal 0.000000e+000 1.000000e+000 0.000000e+000
    outer loop
      vertex   -1.060000e+002 1.380000e+002 0.000000e+000
      vertex   -1.060000e+002 1.380000e+002 2.000000e+000
      vertex   -8.600000e+001 1.380000e+002 2.000000e+000
    endloop
  endfacet
  facet normal 0.000000e+000 1.000000e+000 0.000000e+000
    outer loop
      vertex   -8.600000e+001 1.380000e+002 2.000000e+000
      vertex   -1.060000e+002 1.380000e+002 2.000000e+000
      vertex   -1.060000e+002 1.380000e+002 1.000000e+001
    endloop
  endfacet
  facet normal 0.000000e+000 1.000000e+000 -0.000000e+000
    outer loop
      vertex   -8.600000e+001 1.380000e+002 3.000000e+001
      vertex   -1.060000e+002 1.380000e+002 1.000000e+001
      vertex   -1.060000e+002 1.380000e+002 3.000000e+001
    endloop
  endfacet
  facet normal 0.000000e+000 1.000000e+000 0.000000e+000
    outer loop
      vertex   -8.600000e+001 1.380000e+002 3.000000e+001
      vertex   -8.600000e+001 1.380000e+002 2.000000e+000
      vertex   -1.060000e+002 1.380000e+002 1.000000e+001
    endloop
  endfacet
  facet normal -0.000000e+000 1.000000e+000 0.000000e+000
    outer loop
      vertex   -1.170000e+002 1.380000e+002 2.000000e+000
      vertex   -1.170000e+002 1.380000e+002 1.000000e+001
      vertex   -1.060000e+002 1.380000e+002 2.000000e+000
    endloop
  endfacet
  facet normal 0.000000e+000 1.000000e+000 -0.000000e+000
    outer loop
      vertex   -1.060000e+002 1.380000e+002 2.000000e+000
      vertex   -1.170000e+002 1.380000e+002 1.000000e+001
      vertex   -1.060000e+002 1.380000e+002 1.000000e+001
    endloop
  endfacet
  facet normal -0.000000e+000 1.000000e+000 0.000000e+000
    outer loop
      vertex   -8.600000e+001 1.380000e+002 2.000000e+000
      vertex   -5.600000e+001 1.380000e+002 2.000000e+000
      vertex   -7.100000e+001 1.380000e+002 0.000000e+000
    endloop
  endfacet
  facet normal -0.000000e+000 1.000000e+000 0.000000e+000
    outer loop
      vertex   -7.100000e+001 1.380000e+002 0.000000e+000
      vertex   -5.600000e+001 1.380000e+002 2.000000e+000
      vertex   -3.600000e+001 1.380000e+002 0.000000e+000
    endloop
  endfacet
  facet normal -7.888609e-032 1.000000e+000 -3.552714e-015
    outer loop
      vertex   -3.600000e+001 1.380000e+002 2.000000e+000
      vertex   -5.600000e+001 1.380000e+002 2.000000e+000
      vertex   -3.600000e+001 1.380000e+002 1.000000e+001
    endloop
  endfacet
  facet normal 0.000000e+000 1.000000e+000 -0.000000e+000
    outer loop
      vertex   -2.500000e+001 1.380000e+002 2.000000e+000
      vertex   -3.600000e+001 1.380000e+002 1.000000e+001
      vertex   -2.500000e+001 1.380000e+002 1.000000e+001
    endloop
  endfacet
  facet normal -2.583792e-015 1.000000e+000 -3.552714e-015
    outer loop
      vertex   -2.500000e+001 1.380000e+002 2.000000e+000
      vertex   -3.600000e+001 1.380000e+002 2.000000e+000
      vertex   -3.600000e+001 1.380000e+002 1.000000e+001
    endloop
  endfacet
  facet normal 7.894919e-016 1.000000e+000 0.000000e+000
    outer loop
      vertex   -8.600000e+001 5.850000e+001 1.000000e+001
      vertex   -8.600000e+001 5.850000e+001 2.000000e+000
      vertex   -1.040000e+002 5.850000e+001 1.000000e+001
    endloop
  endfacet
  facet normal 5.089425e-032 1.000000e+000 -1.776357e-015
    outer loop
      vertex   -1.040000e+002 5.850000e+001 1.000000e+001
      vertex   -8.600000e+001 5.850000e+001 2.000000e+000
      vertex   -1.170000e+002 5.850000e+001 2.000000e+000
    endloop
  endfacet
  facet normal -1.291896e-015 1.000000e+000 0.000000e+000
    outer loop
      vertex   -1.060000e+002 5.850000e+001 1.000000e+001
      vertex   -1.170000e+002 5.850000e+001 2.000000e+000
      vertex   -1.170000e+002 5.850000e+001 1.000000e+001
    endloop
  endfacet
  facet normal 0.000000e+000 1.000000e+000 -1.776357e-015
    outer loop
      vertex   -1.060000e+002 5.850000e+001 1.000000e+001
      vertex   -1.040000e+002 5.850000e+001 1.000000e+001
      vertex   -1.170000e+002 5.850000e+001 2.000000e+000
    endloop
  endfacet
  facet normal -0.000000e+000 1.000000e+000 0.000000e+000
    outer loop
      vertex   -1.060000e+002 5.850000e+001 1.000000e+001
      vertex   -1.060000e+002 5.850000e+001 3.000000e+001
      vertex   -1.040000e+002 5.850000e+001 1.000000e+001
    endloop
  endfacet
  facet normal 0.000000e+000 1.000000e+000 -0.000000e+000
    outer loop
      vertex   -1.040000e+002 5.850000e+001 1.000000e+001
      vertex   -1.060000e+002 5.850000e+001 3.000000e+001
      vertex   -1.040000e+002 5.850000e+001 3.000000e+001
    endloop
  endfacet
  facet normal 1.000000e+000 0.000000e+000 -0.000000e+000
    outer loop
      vertex   -1.040000e+002 5.850000e+001 1.000000e+001
      vertex   -1.040000e+002 5.850000e+001 3.000000e+001
      vertex   -1.040000e+002 4.600000e+001 1.000000e+001
    endloop
  endfacet
  facet normal 1.000000e+000 0.000000e+000 -0.000000e+000
    outer loop
      vertex   -1.040000e+002 4.600000e+001 1.000000e+001
      vertex   -1.040000e+002 5.850000e+001 3.000000e+001
      vertex   -1.040000e+002 4.600000e+001 3.000000e+001
    endloop
  endfacet
  facet normal -1.000000e+000 0.000000e+000 0.000000e+000
    outer loop
      vertex   -1.060000e+002 4.400000e+001 1.000000e+001
      vertex   -1.060000e+002 4.400000e+001 3.000000e+001
      vertex   -1.060000e+002 5.850000e+001 1.000000e+001
    endloop
  endfacet
  facet normal -1.000000e+000 0.000000e+000 0.000000e+000
    outer loop
      vertex   -1.060000e+002 5.850000e+001 1.000000e+001
      vertex   -1.060000e+002 4.400000e+001 3.000000e+001
      vertex   -1.060000e+002 5.850000e+001 3.000000e+001
    endloop
  endfacet
  facet normal -0.000000e+000 0.000000e+000 1.000000e+000
    outer loop
      vertex   -1.060000e+002 5.850000e+001 3.000000e+001
      vertex   -1.060000e+002 4.400000e+001 3.000000e+001
      vertex   -1.040000e+002 4.600000e+001 3.000000e+001
    endloop
  endfacet
  facet normal 0.000000e+000 0.000000e+000 1.000000e+000
    outer loop
      vertex   -1.040000e+002 5.850000e+001 3.000000e+001
      vertex   -1.060000e+002 5.850000e+001 3.000000e+001
      vertex   -1.040000e+002 4.600000e+001 3.000000e+001
    endloop
  endfacet
  facet normal -1.973730e-016 0.000000e+000 1.000000e+000
    outer loop
      vertex   -8.600000e+001 4.600000e+001 3.000000e+001
      vertex   -1.040000e+002 4.600000e+001 3.000000e+001
      vertex   -8.600000e+001 4.400000e+001 3.000000e+001
    endloop
  endfacet
  facet normal -1.776357e-016 1.776357e-016 1.000000e+000
    outer loop
      vertex   -8.600000e+001 4.400000e+001 3.000000e+001
      vertex   -1.040000e+002 4.600000e+001 3.000000e+001
      vertex   -1.060000e+002 4.400000e+001 3.000000e+001
    endloop
  endfacet
  facet normal -0.000000e+000 1.000000e+000 0.000000e+000
    outer loop
      vertex   -1.040000e+002 4.600000e+001 1.000000e+001
      vertex   -1.040000e+002 4.600000e+001 3.000000e+001
      vertex   -8.600000e+001 4.600000e+001 1.000000e+001
    endloop
  endfacet
  facet normal 0.000000e+000 1.000000e+000 -0.000000e+000
    outer loop
      vertex   -8.600000e+001 4.600000e+001 1.000000e+001
      vertex   -1.040000e+002 4.600000e+001 3.000000e+001
      vertex   -8.600000e+001 4.600000e+001 3.000000e+001
    endloop
  endfacet
  facet normal 0.000000e+000 0.000000e+000 1.000000e+000
    outer loop
      vertex   -1.060000e+002 5.850000e+001 1.000000e+001
      vertex   -1.170000e+002 5.850000e+001 1.000000e+001
      vertex   -1.060000e+002 4.400000e+001 1.000000e+001
    endloop
  endfacet
  facet normal 0.000000e+000 0.000000e+000 1.000000e+000
    outer loop
      vertex   -1.060000e+002 4.400000e+001 1.000000e+001
      vertex   -1.170000e+002 5.850000e+001 1.000000e+001
      vertex   -1.170000e+002 4.400000e+001 1.000000e+001
    endloop
  endfacet
  facet normal 0.000000e+000 -0.000000e+000 1.000000e+000
    outer loop
      vertex   -1.040000e+002 4.600000e+001 1.000000e+001
      vertex   -8.600000e+001 4.600000e+001 1.000000e+001
      vertex   -1.040000e+002 5.850000e+001 1.000000e+001
    endloop
  endfacet
  facet normal -0.000000e+000 0.000000e+000 1.000000e+000
    outer loop
      vertex   -1.040000e+002 5.850000e+001 1.000000e+001
      vertex   -8.600000e+001 4.600000e+001 1.000000e+001
      vertex   -8.600000e+001 5.850000e+001 1.000000e+001
    endloop
  endfacet
  facet normal 1.000000e+000 -0.000000e+000 0.000000e+000
    outer loop
      vertex   -8.600000e+001 4.400000e+001 3.000000e+001
      vertex   -8.600000e+001 4.400000e+001 2.000000e+000
      vertex   -8.600000e+001 4.600000e+001 1.000000e+001
    endloop
  endfacet
  facet normal 1.000000e+000 0.000000e+000 0.000000e+000
    outer loop
      vertex   -8.600000e+001 4.600000e+001 3.000000e+001
      vertex   -8.600000e+001 4.400000e+001 3.000000e+001
      vertex   -8.600000e+001 4.600000e+001 1.000000e+001
    endloop
  endfacet
  facet normal 1.000000e+000 0.000000e+000 0.000000e+000
    outer loop
      vertex   -8.600000e+001 5.850000e+001 1.000000e+001
      vertex   -8.600000e+001 4.600000e+001 1.000000e+001
      vertex   -8.600000e+001 5.850000e+001 2.000000e+000
    endloop
  endfacet
  facet normal 1.000000e+000 0.000000e+000 0.000000e+000
    outer loop
      vertex   -8.600000e+001 5.850000e+001 2.000000e+000
      vertex   -8.600000e+001 4.600000e+001 1.000000e+001
      vertex   -8.600000e+001 4.400000e+001 2.000000e+000
    endloop
  endfacet
  facet normal 4.037175e-017 0.000000e+000 1.000000e+000
    outer loop
      vertex   -1.060000e+002 4.400000e+001 2.000000e+000
      vertex   -1.170000e+002 4.400000e+001 2.000000e+000
      vertex   -1.060000e+002 3.200000e+001 2.000000e+000
    endloop
  endfacet
  facet normal 4.037175e-017 0.000000e+000 1.000000e+000
    outer loop
      vertex   -1.060000e+002 3.200000e+001 2.000000e+000
      vertex   -1.170000e+002 4.400000e+001 2.000000e+000
      vertex   -1.170000e+002 2.500000e+001 2.000000e+000
    endloop
  endfacet
  facet normal 0.000000e+000 6.344132e-017 1.000000e+000
    outer loop
      vertex   -7.100000e+001 2.500000e+001 2.000000e+000
      vertex   -1.060000e+002 3.200000e+001 2.000000e+000
      vertex   -1.170000e+002 2.500000e+001 2.000000e+000
    endloop
  endfacet
  facet normal -1.268826e-017 0.000000e+000 1.000000e+000
    outer loop
      vertex   -7.100000e+001 2.500000e+001 2.000000e+000
      vertex   -7.100000e+001 3.200000e+001 2.000000e+000
      vertex   -1.060000e+002 3.200000e+001 2.000000e+000
    endloop
  endfacet
  facet normal 1.268826e-017 0.000000e+000 1.000000e+000
    outer loop
      vertex   -7.100000e+001 2.500000e+001 2.000000e+000
      vertex   -3.600000e+001 3.200000e+001 2.000000e+000
      vertex   -7.100000e+001 3.200000e+001 2.000000e+000
    endloop
  endfacet
  facet normal -0.000000e+000 6.344132e-017 1.000000e+000
    outer loop
      vertex   -7.100000e+001 2.500000e+001 2.000000e+000
      vertex   -2.500000e+001 2.500000e+001 2.000000e+000
      vertex   -3.600000e+001 3.200000e+001 2.000000e+000
    endloop
  endfacet
  facet normal -4.037175e-017 0.000000e+000 1.000000e+000
    outer loop
      vertex   -3.600000e+001 3.200000e+001 2.000000e+000
      vertex   -2.500000e+001 2.500000e+001 2.000000e+000
      vertex   -2.500000e+001 4.400000e+001 2.000000e+000
    endloop
  endfacet
  facet normal -4.037175e-017 0.000000e+000 1.000000e+000
    outer loop
      vertex   -3.600000e+001 4.400000e+001 2.000000e+000
      vertex   -3.600000e+001 3.200000e+001 2.000000e+000
      vertex   -2.500000e+001 4.400000e+001 2.000000e+000
    endloop
  endfacet
  facet normal -1.000000e+000 -0.000000e+000 -0.000000e+000
    outer loop
      vertex   -5.600000e+001 5.850000e+001 1.000000e+001
      vertex   -5.600000e+001 5.850000e+001 2.000000e+000
      vertex   -5.600000e+001 4.600000e+001 1.000000e+001
    endloop
  endfacet
  facet normal -1.000000e+000 -0.000000e+000 -0.000000e+000
    outer loop
      vertex   -5.600000e+001 4.600000e+001 1.000000e+001
      vertex   -5.600000e+001 5.850000e+001 2.000000e+000
      vertex   -5.600000e+001 4.400000e+001 2.000000e+000
    endloop
  endfacet
  facet normal -1.000000e+000 0.000000e+000 -0.000000e+000
    outer loop
      vertex   -5.600000e+001 4.400000e+001 3.000000e+001
      vertex   -5.600000e+001 4.600000e+001 1.000000e+001
      vertex   -5.600000e+001 4.400000e+001 2.000000e+000
    endloop
  endfacet
  facet normal -1.000000e+000 0.000000e+000 0.000000e+000
    outer loop
      vertex   -5.600000e+001 4.400000e+001 3.000000e+001
      vertex   -5.600000e+001 4.600000e+001 3.000000e+001
      vertex   -5.600000e+001 4.600000e+001 1.000000e+001
    endloop
  endfacet
  facet normal -1.000000e+000 0.000000e+000 0.000000e+000
    outer loop
      vertex   -3.800000e+001 4.600000e+001 1.000000e+001
      vertex   -3.800000e+001 4.600000e+001 3.000000e+001
      vertex   -3.800000e+001 5.850000e+001 1.000000e+001
    endloop
  endfacet
  facet normal -1.000000e+000 0.000000e+000 0.000000e+000
    outer loop
      vertex   -3.800000e+001 5.850000e+001 1.000000e+001
      vertex   -3.800000e+001 4.600000e+001 3.000000e+001
      vertex   -3.800000e+001 5.850000e+001 3.000000e+001
    endloop
  endfacet
  facet normal -0.000000e+000 1.000000e+000 0.000000e+000
    outer loop
      vertex   -5.600000e+001 4.600000e+001 1.000000e+001
      vertex   -5.600000e+001 4.600000e+001 3.000000e+001
      vertex   -3.800000e+001 4.600000e+001 1.000000e+001
    endloop
  endfacet
  facet normal 0.000000e+000 1.000000e+000 -0.000000e+000
    outer loop
      vertex   -3.800000e+001 4.600000e+001 1.000000e+001
      vertex   -5.600000e+001 4.600000e+001 3.000000e+001
      vertex   -3.800000e+001 4.600000e+001 3.000000e+001
    endloop
  endfacet
  facet normal 1.000000e+000 0.000000e+000 -0.000000e+000
    outer loop
      vertex   -3.600000e+001 5.850000e+001 1.000000e+001
      vertex   -3.600000e+001 5.850000e+001 3.000000e+001
      vertex   -3.600000e+001 4.400000e+001 1.000000e+001
    endloop
  endfacet
  facet normal 1.000000e+000 0.000000e+000 -0.000000e+000
    outer loop
      vertex   -3.600000e+001 4.400000e+001 1.000000e+001
      vertex   -3.600000e+001 5.850000e+001 3.000000e+001
      vertex   -3.600000e+001 4.400000e+001 3.000000e+001
    endloop
  endfacet
  facet normal -0.000000e+000 0.000000e+000 1.000000e+000
    outer loop
      vertex   -5.600000e+001 4.600000e+001 3.000000e+001
      vertex   -5.600000e+001 4.400000e+001 3.000000e+001
      vertex   -3.800000e+001 4.600000e+001 3.000000e+001
    endloop
  endfacet
  facet normal 0.000000e+000 0.000000e+000 1.000000e+000
    outer loop
      vertex   -3.800000e+001 4.600000e+001 3.000000e+001
      vertex   -5.600000e+001 4.400000e+001 3.000000e+001
      vertex   -3.600000e+001 4.400000e+001 3.000000e+001
    endloop
  endfacet
  facet normal 0.000000e+000 0.000000e+000 1.000000e+000
    outer loop
      vertex   -3.600000e+001 5.850000e+001 3.000000e+001
      vertex   -3.800000e+001 4.600000e+001 3.000000e+001
      vertex   -3.600000e+001 4.400000e+001 3.000000e+001
    endloop
  endfacet
  facet normal 0.000000e+000 0.000000e+000 1.000000e+000
    outer loop
      vertex   -3.600000e+001 5.850000e+001 3.000000e+001
      vertex   -3.800000e+001 5.850000e+001 3.000000e+001
      vertex   -3.800000e+001 4.600000e+001 3.000000e+001
    endloop
  endfacet
  facet normal 0.000000e+000 -0.000000e+000 1.000000e+000
    outer loop
      vertex   -3.600000e+001 4.400000e+001 1.000000e+001
      vertex   -2.500000e+001 4.400000e+001 1.000000e+001
      vertex   -3.600000e+001 5.850000e+001 1.000000e+001
    endloop
  endfacet
  facet normal -0.000000e+000 0.000000e+000 1.000000e+000
    outer loop
      vertex   -3.600000e+001 5.850000e+001 1.000000e+001
      vertex   -2.500000e+001 4.400000e+001 1.000000e+001
      vertex   -2.500000e+001 5.850000e+001 1.000000e+001
    endloop
  endfacet
  facet normal 0.000000e+000 1.000000e+000 -1.776357e-015
    outer loop
      vertex   -5.600000e+001 5.850000e+001 2.000000e+000
      vertex   -3.800000e+001 5.850000e+001 1.000000e+001
      vertex   -2.500000e+001 5.850000e+001 2.000000e+000
    endloop
  endfacet
  facet normal -7.894919e-016 1.000000e+000 0.000000e+000
    outer loop
      vertex   -5.600000e+001 5.850000e+001 2.000000e+000
      vertex   -5.600000e+001 5.850000e+001 1.000000e+001
      vertex   -3.800000e+001 5.850000e+001 1.000000e+001
    endloop
  endfacet
  facet normal 0.000000e+000 1.000000e+000 -1.776357e-015
    outer loop
      vertex   -2.500000e+001 5.850000e+001 2.000000e+000
      vertex   -3.800000e+001 5.850000e+001 1.000000e+001
      vertex   -3.600000e+001 5.850000e+001 1.000000e+001
    endloop
  endfacet
  facet normal 1.291896e-015 1.000000e+000 0.000000e+000
    outer loop
      vertex   -2.500000e+001 5.850000e+001 1.000000e+001
      vertex   -2.500000e+001 5.850000e+001 2.000000e+000
      vertex   -3.600000e+001 5.850000e+001 1.000000e+001
    endloop
  endfacet
  facet normal 0.000000e+000 1.000000e+000 0.000000e+000
    outer loop
      vertex   -3.600000e+001 5.850000e+001 3.000000e+001
      vertex   -3.600000e+001 5.850000e+001 1.000000e+001
      vertex   -3.800000e+001 5.850000e+001 3.000000e+001
    endloop
  endfacet
  facet normal 0.000000e+000 1.000000e+000 0.000000e+000
    outer loop
      vertex   -3.800000e+001 5.850000e+001 3.000000e+001
      vertex   -3.600000e+001 5.850000e+001 1.000000e+001
      vertex   -3.800000e+001 5.850000e+001 1.000000e+001
    endloop
  endfacet
  facet normal 0.000000e+000 0.000000e+000 1.000000e+000
    outer loop
      vertex   -3.800000e+001 5.850000e+001 1.000000e+001
      vertex   -5.600000e+001 5.850000e+001 1.000000e+001
      vertex   -3.800000e+001 4.600000e+001 1.000000e+001
    endloop
  endfacet
  facet normal 0.000000e+000 0.000000e+000 1.000000e+000
    outer loop
      vertex   -3.800000e+001 4.600000e+001 1.000000e+001
      vertex   -5.600000e+001 5.850000e+001 1.000000e+001
      vertex   -5.600000e+001 4.600000e+001 1.000000e+001
    endloop
  endfacet
  facet normal 0.000000e+000 -1.000000e+000 0.000000e+000
    outer loop
      vertex   -1.060000e+002 4.400000e+001 2.000000e+000
      vertex   -1.060000e+002 4.400000e+001 0.000000e+000
      vertex   -8.600000e+001 4.400000e+001 2.000000e+000
    endloop
  endfacet
  facet normal 1.421085e-015 -1.000000e+000 0.000000e+000
    outer loop
      vertex   -1.060000e+002 4.400000e+001 1.000000e+001
      vertex   -8.600000e+001 4.400000e+001 2.000000e+000
      vertex   -8.600000e+001 4.400000e+001 3.000000e+001
    endloop
  endfacet
  facet normal 3.552714e-016 -1.000000e+000 1.065814e-015
    outer loop
      vertex   -1.060000e+002 4.400000e+001 3.000000e+001
      vertex   -1.060000e+002 4.400000e+001 1.000000e+001
      vertex   -8.600000e+001 4.400000e+001 3.000000e+001
    endloop
  endfacet
  facet normal -0.000000e+000 -1.000000e+000 0.000000e+000
    outer loop
      vertex   -3.600000e+001 4.400000e+001 0.000000e+000
      vertex   -5.600000e+001 4.400000e+001 2.000000e+000
      vertex   -7.100000e+001 4.400000e+001 0.000000e+000
    endloop
  endfacet
  facet normal 0.000000e+000 -1.000000e+000 0.000000e+000
    outer loop
      vertex   -3.600000e+001 4.400000e+001 0.000000e+000
      vertex   -3.600000e+001 4.400000e+001 2.000000e+000
      vertex   -5.600000e+001 4.400000e+001 2.000000e+000
    endloop
  endfacet
  facet normal -7.888609e-032 -1.000000e+000 -3.552714e-015
    outer loop
      vertex   -5.600000e+001 4.400000e+001 2.000000e+000
      vertex   -3.600000e+001 4.400000e+001 2.000000e+000
      vertex   -3.600000e+001 4.400000e+001 1.000000e+001
    endloop
  endfacet
  facet normal -3.552714e-016 -1.000000e+000 1.065814e-015
    outer loop
      vertex   -5.600000e+001 4.400000e+001 3.000000e+001
      vertex   -3.600000e+001 4.400000e+001 1.000000e+001
      vertex   -3.600000e+001 4.400000e+001 3.000000e+001
    endloop
  endfacet
  facet normal -1.421085e-015 -1.000000e+000 -0.000000e+000
    outer loop
      vertex   -5.600000e+001 4.400000e+001 3.000000e+001
      vertex   -5.600000e+001 4.400000e+001 2.000000e+000
      vertex   -3.600000e+001 4.400000e+001 1.000000e+001
    endloop
  endfacet
  facet normal -2.583792e-015 -1.000000e+000 0.000000e+000
    outer loop
      vertex   -2.500000e+001 4.400000e+001 2.000000e+000
      vertex   -2.500000e+001 4.400000e+001 1.000000e+001
      vertex   -3.600000e+001 4.400000e+001 2.000000e+000
    endloop
  endfacet
  facet normal -0.000000e+000 -1.000000e+000 -3.552714e-015
    outer loop
      vertex   -3.600000e+001 4.400000e+001 2.000000e+000
      vertex   -2.500000e+001 4.400000e+001 1.000000e+001
      vertex   -3.600000e+001 4.400000e+001 1.000000e+001
    endloop
  endfacet
  facet normal -0.000000e+000 -1.000000e+000 -0.000000e+000
    outer loop
      vertex   -5.600000e+001 4.400000e+001 2.000000e+000
      vertex   -8.600000e+001 4.400000e+001 2.000000e+000
      vertex   -7.100000e+001 4.400000e+001 0.000000e+000
    endloop
  endfacet
  facet normal -0.000000e+000 -1.000000e+000 0.000000e+000
    outer loop
      vertex   -7.100000e+001 4.400000e+001 0.000000e+000
      vertex   -8.600000e+001 4.400000e+001 2.000000e+000
      vertex   -1.060000e+002 4.400000e+001 0.000000e+000
    endloop
  endfacet
  facet normal 7.888609e-032 -1.000000e+000 -3.552714e-015
    outer loop
      vertex   -1.060000e+002 4.400000e+001 2.000000e+000
      vertex   -8.600000e+001 4.400000e+001 2.000000e+000
      vertex   -1.060000e+002 4.400000e+001 1.000000e+001
    endloop
  endfacet
  facet normal 0.000000e+000 -1.000000e+000 0.000000e+000
    outer loop
      vertex   -1.170000e+002 4.400000e+001 2.000000e+000
      vertex   -1.060000e+002 4.400000e+001 1.000000e+001
      vertex   -1.170000e+002 4.400000e+001 1.000000e+001
    endloop
  endfacet
  facet normal 2.583792e-015 -1.000000e+000 -3.552714e-015
    outer loop
      vertex   -1.170000e+002 4.400000e+001 2.000000e+000
      vertex   -1.060000e+002 4.400000e+001 2.000000e+000
      vertex   -1.060000e+002 4.400000e+001 1.000000e+001
    endloop
  endfacet
  facet normal -1.000000e+000 -0.000000e+000 -0.000000e+000
    outer loop
      vertex   -3.600000e+001 4.400000e+001 2.000000e+000
      vertex   -3.600000e+001 4.400000e+001 0.000000e+000
      vertex   -3.600000e+001 3.200000e+001 2.000000e+000
    endloop
  endfacet
  facet normal -1.000000e+000 -0.000000e+000 -0.000000e+000
    outer loop
      vertex   -3.600000e+001 3.200000e+001 2.000000e+000
      vertex   -3.600000e+001 4.400000e+001 0.000000e+000
      vertex   -3.600000e+001 3.200000e+001 0.000000e+000
    endloop
  endfacet
  facet normal -0.000000e+000 1.000000e+000 0.000000e+000
    outer loop
      vertex   -1.060000e+002 3.200000e+001 0.000000e+000
      vertex   -1.060000e+002 3.200000e+001 2.000000e+000
      vertex   -7.100000e+001 3.200000e+001 0.000000e+000
    endloop
  endfacet
  facet normal 0.000000e+000 1.000000e+000 -0.000000e+000
    outer loop
      vertex   -7.100000e+001 3.200000e+001 0.000000e+000
      vertex   -1.060000e+002 3.200000e+001 2.000000e+000
      vertex   -7.100000e+001 3.200000e+001 2.000000e+000
    endloop
  endfacet
  facet normal -0.000000e+000 1.000000e+000 -0.000000e+000
    outer loop
      vertex   -3.600000e+001 3.200000e+001 0.000000e+000
      vertex   -7.100000e+001 3.200000e+001 2.000000e+000
      vertex   -3.600000e+001 3.200000e+001 2.000000e+000
    endloop
  endfacet
  facet normal 0.000000e+000 1.000000e+000 -0.000000e+000
    outer loop
      vertex   -3.600000e+001 3.200000e+001 0.000000e+000
      vertex   -7.100000e+001 3.200000e+001 0.000000e+000
      vertex   -7.100000e+001 3.200000e+001 2.000000e+000
    endloop
  endfacet
  facet normal 1.000000e+000 -0.000000e+000 0.000000e+000
    outer loop
      vertex   -1.060000e+002 3.200000e+001 2.000000e+000
      vertex   -1.060000e+002 3.200000e+001 0.000000e+000
      vertex   -1.060000e+002 4.400000e+001 2.000000e+000
    endloop
  endfacet
  facet normal 1.000000e+000 -0.000000e+000 0.000000e+000
    outer loop
      vertex   -1.060000e+002 4.400000e+001 2.000000e+000
      vertex   -1.060000e+002 3.200000e+001 0.000000e+000
      vertex   -1.060000e+002 4.400000e+001 0.000000e+000
    endloop
  endfacet
  facet normal 0.000000e+000 -1.000000e+000 0.000000e+000
    outer loop
      vertex   -1.170000e+002 2.500000e+001 0.000000e+000
      vertex   -7.100000e+001 2.500000e+001 0.000000e+000
      vertex   -1.170000e+002 2.500000e+001 2.000000e+000
    endloop
  endfacet
  facet normal 0.000000e+000 -1.000000e+000 0.000000e+000
    outer loop
      vertex   -1.170000e+002 2.500000e+001 2.000000e+000
      vertex   -7.100000e+001 2.500000e+001 0.000000e+000
      vertex   -7.100000e+001 2.500000e+001 2.000000e+000
    endloop
  endfacet
  facet normal 0.000000e+000 -1.000000e+000 0.000000e+000
    outer loop
      vertex   -7.100000e+001 2.500000e+001 2.000000e+000
      vertex   -7.100000e+001 2.500000e+001 0.000000e+000
      vertex   -2.500000e+001 2.500000e+001 0.000000e+000
    endloop
  endfacet
  facet normal -0.000000e+000 -1.000000e+000 -0.000000e+000
    outer loop
      vertex   -2.500000e+001 2.500000e+001 2.000000e+000
      vertex   -7.100000e+001 2.500000e+001 2.000000e+000
      vertex   -2.500000e+001 2.500000e+001 0.000000e+000
    endloop
  endfacet
  facet normal -0.000000e+000 1.000000e+000 0.000000e+000
    outer loop
      vertex   -1.060000e+002 7.100000e+001 0.000000e+000
      vertex   -1.060000e+002 7.100000e+001 2.000000e+000
      vertex   -7.100000e+001 7.100000e+001 0.000000e+000
    endloop
  endfacet
  facet normal 0.000000e+000 1.000000e+000 -0.000000e+000
    outer loop
      vertex   -7.100000e+001 7.100000e+001 0.000000e+000
      vertex   -1.060000e+002 7.100000e+001 2.000000e+000
      vertex   -7.100000e+001 7.100000e+001 2.000000e+000
    endloop
  endfacet
  facet normal -0.000000e+000 1.000000e+000 -0.000000e+000
    outer loop
      vertex   -3.600000e+001 7.100000e+001 0.000000e+000
      vertex   -7.100000e+001 7.100000e+001 2.000000e+000
      vertex   -3.600000e+001 7.100000e+001 2.000000e+000
    endloop
  endfacet
  facet normal 0.000000e+000 1.000000e+000 -0.000000e+000
    outer loop
      vertex   -3.600000e+001 7.100000e+001 0.000000e+000
      vertex   -7.100000e+001 7.100000e+001 0.000000e+000
      vertex   -7.100000e+001 7.100000e+001 2.000000e+000
    endloop
  endfacet
  facet normal 1.000000e+000 -0.000000e+000 0.000000e+000
    outer loop
      vertex   -1.060000e+002 7.100000e+001 2.000000e+000
      vertex   -1.060000e+002 7.100000e+001 0.000000e+000
      vertex   -1.060000e+002 1.110000e+002 2.000000e+000
    endloop
  endfacet
  facet normal 1.000000e+000 -0.000000e+000 0.000000e+000
    outer loop
      vertex   -1.060000e+002 1.110000e+002 2.000000e+000
      vertex   -1.060000e+002 7.100000e+001 0.000000e+000
      vertex   -1.060000e+002 1.110000e+002 0.000000e+000
    endloop
  endfacet
  facet normal -0.000000e+000 -1.000000e+000 0.000000e+000
    outer loop
      vertex   -3.600000e+001 1.110000e+002 0.000000e+000
      vertex   -3.600000e+001 1.110000e+002 2.000000e+000
      vertex   -7.100000e+001 1.110000e+002 0.000000e+000
    endloop
  endfacet
  facet normal 0.000000e+000 -1.000000e+000 0.000000e+000
    outer loop
      vertex   -7.100000e+001 1.110000e+002 0.000000e+000
      vertex   -3.600000e+001 1.110000e+002 2.000000e+000
      vertex   -7.100000e+001 1.110000e+002 2.000000e+000
    endloop
  endfacet
  facet normal -0.000000e+000 -1.000000e+000 0.000000e+000
    outer loop
      vertex   -1.060000e+002 1.110000e+002 0.000000e+000
      vertex   -7.100000e+001 1.110000e+002 2.000000e+000
      vertex   -1.060000e+002 1.110000e+002 2.000000e+000
    endloop
  endfacet
  facet normal 0.000000e+000 -1.000000e+000 0.000000e+000
    outer loop
      vertex   -1.060000e+002 1.110000e+002 0.000000e+000
      vertex   -7.100000e+001 1.110000e+002 0.000000e+000
      vertex   -7.100000e+001 1.110000e+002 2.000000e+000
    endloop
  endfacet
  facet normal -1.000000e+000 -0.000000e+000 -0.000000e+000
    outer loop
      vertex   -3.600000e+001 1.110000e+002 2.000000e+000
      vertex   -3.600000e+001 1.110000e+002 0.000000e+000
      vertex   -3.600000e+001 7.100000e+001 2.000000e+000
    endloop
  endfacet
  facet normal -1.000000e+000 -0.000000e+000 -0.000000e+000
    outer loop
      vertex   -3.600000e+001 7.100000e+001 2.000000e+000
      vertex   -3.600000e+001 1.110000e+002 0.000000e+000
      vertex   -3.600000e+001 7.100000e+001 0.000000e+000
    endloop
  endfacet
  facet normal 1.000000e+000 -0.000000e+000 0.000000e+000
    outer loop
      vertex   -1.060000e+002 1.380000e+002 2.000000e+000
      vertex   -1.060000e+002 1.380000e+002 0.000000e+000
      vertex   -1.060000e+002 1.500000e+002 2.000000e+000
    endloop
  endfacet
  facet normal 1.000000e+000 -0.000000e+000 0.000000e+000
    outer loop
      vertex   -1.060000e+002 1.500000e+002 2.000000e+000
      vertex   -1.060000e+002 1.380000e+002 0.000000e+000
      vertex   -1.060000e+002 1.500000e+002 0.000000e+000
    endloop
  endfacet
  facet normal -0.000000e+000 -1.000000e+000 0.000000e+000
    outer loop
      vertex   -3.600000e+001 1.500000e+002 0.000000e+000
      vertex   -3.600000e+001 1.500000e+002 2.000000e+000
      vertex   -7.100000e+001 1.500000e+002 0.000000e+000
    endloop
  endfacet
  facet normal 0.000000e+000 -1.000000e+000 0.000000e+000
    outer loop
      vertex   -7.100000e+001 1.500000e+002 0.000000e+000
      vertex   -3.600000e+001 1.500000e+002 2.000000e+000
      vertex   -7.100000e+001 1.500000e+002 2.000000e+000
    endloop
  endfacet
  facet normal -0.000000e+000 -1.000000e+000 0.000000e+000
    outer loop
      vertex   -1.060000e+002 1.500000e+002 0.000000e+000
      vertex   -7.100000e+001 1.500000e+002 2.000000e+000
      vertex   -1.060000e+002 1.500000e+002 2.000000e+000
    endloop
  endfacet
  facet normal 0.000000e+000 -1.000000e+000 0.000000e+000
    outer loop
      vertex   -1.060000e+002 1.500000e+002 0.000000e+000
      vertex   -7.100000e+001 1.500000e+002 0.000000e+000
      vertex   -7.100000e+001 1.500000e+002 2.000000e+000
    endloop
  endfacet
  facet normal -1.000000e+000 -0.000000e+000 -0.000000e+000
    outer loop
      vertex   -3.600000e+001 1.500000e+002 2.000000e+000
      vertex   -3.600000e+001 1.500000e+002 0.000000e+000
      vertex   -3.600000e+001 1.380000e+002 2.000000e+000
    endloop
  endfacet
  facet normal -1.000000e+000 -0.000000e+000 -0.000000e+000
    outer loop
      vertex   -3.600000e+001 1.380000e+002 2.000000e+000
      vertex   -3.600000e+001 1.500000e+002 0.000000e+000
      vertex   -3.600000e+001 1.380000e+002 0.000000e+000
    endloop
  endfacet
  facet normal -1.000000e+000 -0.000000e+000 -0.000000e+000
    outer loop
      vertex   -1.170000e+002 1.570000e+002 2.000000e+000
      vertex   -1.170000e+002 1.570000e+002 0.000000e+000
      vertex   -1.170000e+002 1.380000e+002 2.000000e+000
    endloop
  endfacet
  facet normal -1.000000e+000 -0.000000e+000 -0.000000e+000
    outer loop
      vertex   -1.170000e+002 1.380000e+002 2.000000e+000
      vertex   -1.170000e+002 1.570000e+002 0.000000e+000
      vertex   -1.170000e+002 1.130000e+002 0.000000e+000
    endloop
  endfacet
  facet normal -1.000000e+000 -0.000000e+000 0.000000e+000
    outer loop
      vertex   -1.170000e+002 1.235000e+002 2.000000e+000
      vertex   -1.170000e+002 1.130000e+002 0.000000e+000
      vertex   -1.170000e+002 9.100000e+001 2.000000e+000
    endloop
  endfacet
  facet normal -1.000000e+000 0.000000e+000 -0.000000e+000
    outer loop
      vertex   -1.170000e+002 1.235000e+002 2.000000e+000
      vertex   -1.170000e+002 1.380000e+002 2.000000e+000
      vertex   -1.170000e+002 1.130000e+002 0.000000e+000
    endloop
  endfacet
  facet normal -1.000000e+000 0.000000e+000 0.000000e+000
    outer loop
      vertex   -1.170000e+002 1.235000e+002 2.000000e+000
      vertex   -1.170000e+002 1.235000e+002 1.000000e+001
      vertex   -1.170000e+002 1.380000e+002 2.000000e+000
    endloop
  endfacet
  facet normal -1.000000e+000 0.000000e+000 0.000000e+000
    outer loop
      vertex   -1.170000e+002 1.380000e+002 2.000000e+000
      vertex   -1.170000e+002 1.235000e+002 1.000000e+001
      vertex   -1.170000e+002 1.380000e+002 1.000000e+001
    endloop
  endfacet
  facet normal -1.000000e+000 0.000000e+000 0.000000e+000
    outer loop
      vertex   -1.170000e+002 1.130000e+002 0.000000e+000
      vertex   -1.170000e+002 6.900000e+001 0.000000e+000
      vertex   -1.170000e+002 9.100000e+001 2.000000e+000
    endloop
  endfacet
  facet normal -1.000000e+000 -0.000000e+000 0.000000e+000
    outer loop
      vertex   -1.170000e+002 9.100000e+001 2.000000e+000
      vertex   -1.170000e+002 6.900000e+001 0.000000e+000
      vertex   -1.170000e+002 5.850000e+001 2.000000e+000
    endloop
  endfacet
  facet normal -1.000000e+000 -0.000000e+000 -0.000000e+000
    outer loop
      vertex   -1.170000e+002 5.850000e+001 2.000000e+000
      vertex   -1.170000e+002 6.900000e+001 0.000000e+000
      vertex   -1.170000e+002 4.400000e+001 2.000000e+000
    endloop
  endfacet
  facet normal -1.000000e+000 -0.000000e+000 -0.000000e+000
    outer loop
      vertex   -1.170000e+002 4.400000e+001 1.000000e+001
      vertex   -1.170000e+002 5.850000e+001 2.000000e+000
      vertex   -1.170000e+002 4.400000e+001 2.000000e+000
    endloop
  endfacet
  facet normal -1.000000e+000 0.000000e+000 0.000000e+000
    outer loop
      vertex   -1.170000e+002 4.400000e+001 1.000000e+001
      vertex   -1.170000e+002 5.850000e+001 1.000000e+001
      vertex   -1.170000e+002 5.850000e+001 2.000000e+000
    endloop
  endfacet
  facet normal -1.000000e+000 0.000000e+000 0.000000e+000
    outer loop
      vertex   -1.170000e+002 6.900000e+001 0.000000e+000
      vertex   -1.170000e+002 2.500000e+001 0.000000e+000
      vertex   -1.170000e+002 4.400000e+001 2.000000e+000
    endloop
  endfacet
  facet normal -1.000000e+000 -0.000000e+000 0.000000e+000
    outer loop
      vertex   -1.170000e+002 4.400000e+001 2.000000e+000
      vertex   -1.170000e+002 2.500000e+001 0.000000e+000
      vertex   -1.170000e+002 2.500000e+001 2.000000e+000
    endloop
  endfacet
  facet normal 0.000000e+000 1.000000e+000 -0.000000e+000
    outer loop
      vertex   -2.500000e+001 1.570000e+002 0.000000e+000
      vertex   -7.100000e+001 1.570000e+002 0.000000e+000
      vertex   -2.500000e+001 1.570000e+002 2.000000e+000
    endloop
  endfacet
  facet normal 0.000000e+000 1.000000e+000 -0.000000e+000
    outer loop
      vertex   -2.500000e+001 1.570000e+002 2.000000e+000
      vertex   -7.100000e+001 1.570000e+002 0.000000e+000
      vertex   -7.100000e+001 1.570000e+002 2.000000e+000
    endloop
  endfacet
  facet normal 0.000000e+000 1.000000e+000 0.000000e+000
    outer loop
      vertex   -7.100000e+001 1.570000e+002 2.000000e+000
      vertex   -7.100000e+001 1.570000e+002 0.000000e+000
      vertex   -1.170000e+002 1.570000e+002 0.000000e+000
    endloop
  endfacet
  facet normal -0.000000e+000 1.000000e+000 0.000000e+000
    outer loop
      vertex   -1.170000e+002 1.570000e+002 2.000000e+000
      vertex   -7.100000e+001 1.570000e+002 2.000000e+000
      vertex   -1.170000e+002 1.570000e+002 0.000000e+000
    endloop
  endfacet
  facet normal 1.000000e+000 -0.000000e+000 0.000000e+000
    outer loop
      vertex   -2.500000e+001 2.500000e+001 2.000000e+000
      vertex   -2.500000e+001 2.500000e+001 0.000000e+000
      vertex   -2.500000e+001 4.400000e+001 2.000000e+000
    endloop
  endfacet
  facet normal 1.000000e+000 -0.000000e+000 0.000000e+000
    outer loop
      vertex   -2.500000e+001 4.400000e+001 2.000000e+000
      vertex   -2.500000e+001 2.500000e+001 0.000000e+000
      vertex   -2.500000e+001 6.900000e+001 0.000000e+000
    endloop
  endfacet
  facet normal 1.000000e+000 -0.000000e+000 0.000000e+000
    outer loop
      vertex   -2.500000e+001 5.850000e+001 2.000000e+000
      vertex   -2.500000e+001 6.900000e+001 0.000000e+000
      vertex   -2.500000e+001 9.100000e+001 2.000000e+000
    endloop
  endfacet
  facet normal 1.000000e+000 0.000000e+000 0.000000e+000
    outer loop
      vertex   -2.500000e+001 5.850000e+001 2.000000e+000
      vertex   -2.500000e+001 4.400000e+001 2.000000e+000
      vertex   -2.500000e+001 6.900000e+001 0.000000e+000
    endloop
  endfacet
  facet normal 1.000000e+000 0.000000e+000 -0.000000e+000
    outer loop
      vertex   -2.500000e+001 5.850000e+001 2.000000e+000
      vertex   -2.500000e+001 5.850000e+001 1.000000e+001
      vertex   -2.500000e+001 4.400000e+001 2.000000e+000
    endloop
  endfacet
  facet normal 1.000000e+000 0.000000e+000 -0.000000e+000
    outer loop
      vertex   -2.500000e+001 4.400000e+001 2.000000e+000
      vertex   -2.500000e+001 5.850000e+001 1.000000e+001
      vertex   -2.500000e+001 4.400000e+001 1.000000e+001
    endloop
  endfacet
  facet normal 1.000000e+000 0.000000e+000 -0.000000e+000
    outer loop
      vertex   -2.500000e+001 6.900000e+001 0.000000e+000
      vertex   -2.500000e+001 1.130000e+002 0.000000e+000
      vertex   -2.500000e+001 9.100000e+001 2.000000e+000
    endloop
  endfacet
  facet normal 1.000000e+000 2.186285e-016 2.404914e-015
    outer loop
      vertex   -2.500000e+001 9.100000e+001 2.000000e+000
      vertex   -2.500000e+001 1.130000e+002 0.000000e+000
      vertex   -2.500000e+001 1.235000e+002 2.000000e+000
    endloop
  endfacet
  facet normal 1.000000e+000 0.000000e+000 3.552714e-015
    outer loop
      vertex   -2.500000e+001 1.235000e+002 2.000000e+000
      vertex   -2.500000e+001 1.130000e+002 0.000000e+000
      vertex   -2.500000e+001 1.380000e+002 2.000000e+000
    endloop
  endfacet
  facet normal 1.000000e+000 -0.000000e+000 0.000000e+000
    outer loop
      vertex   -2.500000e+001 1.380000e+002 1.000000e+001
      vertex   -2.500000e+001 1.235000e+002 2.000000e+000
      vertex   -2.500000e+001 1.380000e+002 2.000000e+000
    endloop
  endfacet
  facet normal 1.000000e+000 0.000000e+000 0.000000e+000
    outer loop
      vertex   -2.500000e+001 1.380000e+002 1.000000e+001
      vertex   -2.500000e+001 1.235000e+002 1.000000e+001
      vertex   -2.500000e+001 1.235000e+002 2.000000e+000
    endloop
  endfacet
  facet normal 1.000000e+000 -0.000000e+000 3.552714e-015
    outer loop
      vertex   -2.500000e+001 1.130000e+002 0.000000e+000
      vertex   -2.500000e+001 1.570000e+002 0.000000e+000
      vertex   -2.500000e+001 1.380000e+002 2.000000e+000
    endloop
  endfacet
  facet normal 1.000000e+000 -3.739699e-016 0.000000e+000
    outer loop
      vertex   -2.500000e+001 1.380000e+002 2.000000e+000
      vertex   -2.500000e+001 1.570000e+002 0.000000e+000
      vertex   -2.500000e+001 1.570000e+002 2.000000e+000
    endloop
  endfacet
endsolid
