solid ascii
  facet normal 0.000000e+000 0.000000e+000 1.000000e+000
    outer loop
      vertex   -1.565000e+002 1.690000e+002 6.000000e+000
      vertex   -1.865000e+002 1.690000e+002 6.000000e+000
      vertex   -1.565000e+002 1.650000e+002 6.000000e+000
    endloop
  endfacet
  facet normal 0.000000e+000 0.000000e+000 1.000000e+000
    outer loop
      vertex   -1.565000e+002 1.650000e+002 6.000000e+000
      vertex   -1.865000e+002 1.690000e+002 6.000000e+000
      vertex   -1.865000e+002 1.650000e+002 6.000000e+000
    endloop
  endfacet
  facet normal -1.000000e+000 0.000000e+000 0.000000e+000
    outer loop
      vertex   -1.865000e+002 1.650000e+002 2.000000e+000
      vertex   -1.865000e+002 1.650000e+002 6.000000e+000
      vertex   -1.865000e+002 1.690000e+002 2.000000e+000
    endloop
  endfacet
  facet normal -1.000000e+000 0.000000e+000 0.000000e+000
    outer loop
      vertex   -1.865000e+002 1.690000e+002 2.000000e+000
      vertex   -1.865000e+002 1.650000e+002 6.000000e+000
      vertex   -1.865000e+002 1.690000e+002 6.000000e+000
    endloop
  endfacet
  facet normal -0.000000e+000 -1.000000e+000 0.000000e+000
    outer loop
      vertex   -1.565000e+002 1.650000e+002 2.000000e+000
      vertex   -1.565000e+002 1.650000e+002 6.000000e+000
      vertex   -1.865000e+002 1.650000e+002 2.000000e+000
    endloop
  endfacet
  facet normal 0.000000e+000 -1.000000e+000 0.000000e+000
    outer loop
      vertex   -1.865000e+002 1.650000e+002 2.000000e+000
      vertex   -1.565000e+002 1.650000e+002 6.000000e+000
      vertex   -1.865000e+002 1.650000e+002 6.000000e+000
    endloop
  endfacet
  facet normal 1.000000e+000 0.000000e+000 -0.000000e+000
    outer loop
      vertex   -1.565000e+002 1.690000e+002 2.000000e+000
      vertex   -1.565000e+002 1.690000e+002 6.000000e+000
      vertex   -1.565000e+002 1.650000e+002 2.000000e+000
    endloop
  endfacet
  facet normal 1.000000e+000 0.000000e+000 -0.000000e+000
    outer loop
      vertex   -1.565000e+002 1.650000e+002 2.000000e+000
      vertex   -1.565000e+002 1.690000e+002 6.000000e+000
      vertex   -1.565000e+002 1.650000e+002 6.000000e+000
    endloop
  endfacet
  facet normal -0.000000e+000 0.000000e+000 1.000000e+000
    outer loop
      vertex   -1.565000e+002 1.690000e+002 2.000000e+000
      vertex   -1.565000e+002 1.650000e+002 2.000000e+000
      vertex   -1.257500e+002 1.690000e+002 2.000000e+000
    endloop
  endfacet
  facet normal 0.000000e+000 0.000000e+000 1.000000e+000
    outer loop
      vertex   -1.257500e+002 1.690000e+002 2.000000e+000
      vertex   -1.565000e+002 1.650000e+002 2.000000e+000
      vertex   -1.530000e+002 1.500000e+002 2.000000e+000
    endloop
  endfacet
  facet normal 0.000000e+000 0.000000e+000 1.000000e+000
    outer loop
      vertex   -9.850000e+001 1.500000e+002 2.000000e+000
      vertex   -1.257500e+002 1.690000e+002 2.000000e+000
      vertex   -1.530000e+002 1.500000e+002 2.000000e+000
    endloop
  endfacet
  facet normal 0.000000e+000 -0.000000e+000 1.000000e+000
    outer loop
      vertex   -9.850000e+001 1.500000e+002 2.000000e+000
      vertex   -9.500000e+001 1.650000e+002 2.000000e+000
      vertex   -1.257500e+002 1.690000e+002 2.000000e+000
    endloop
  endfacet
  facet normal 0.000000e+000 -0.000000e+000 1.000000e+000
    outer loop
      vertex   -9.850000e+001 1.500000e+002 2.000000e+000
      vertex   -6.500000e+001 1.650000e+002 2.000000e+000
      vertex   -9.500000e+001 1.650000e+002 2.000000e+000
    endloop
  endfacet
  facet normal 0.000000e+000 -0.000000e+000 1.000000e+000
    outer loop
      vertex   -9.850000e+001 1.500000e+002 2.000000e+000
      vertex   -4.400000e+001 1.500000e+002 2.000000e+000
      vertex   -6.500000e+001 1.650000e+002 2.000000e+000
    endloop
  endfacet
  facet normal -0.000000e+000 0.000000e+000 1.000000e+000
    outer loop
      vertex   -6.500000e+001 1.650000e+002 2.000000e+000
      vertex   -4.400000e+001 1.500000e+002 2.000000e+000
      vertex   -2.500000e+001 1.690000e+002 2.000000e+000
    endloop
  endfacet
  facet normal -0.000000e+000 0.000000e+000 1.000000e+000
    outer loop
      vertex   -6.500000e+001 1.690000e+002 2.000000e+000
      vertex   -6.500000e+001 1.650000e+002 2.000000e+000
      vertex   -2.500000e+001 1.690000e+002 2.000000e+000
    endloop
  endfacet
  facet normal 0.000000e+000 0.000000e+000 1.000000e+000
    outer loop
      vertex   -1.565000e+002 1.650000e+002 2.000000e+000
      vertex   -1.865000e+002 1.650000e+002 2.000000e+000
      vertex   -1.530000e+002 1.500000e+002 2.000000e+000
    endloop
  endfacet
  facet normal 0.000000e+000 0.000000e+000 1.000000e+000
    outer loop
      vertex   -1.530000e+002 1.500000e+002 2.000000e+000
      vertex   -1.865000e+002 1.650000e+002 2.000000e+000
      vertex   -2.075000e+002 1.500000e+002 2.000000e+000
    endloop
  endfacet
  facet normal 0.000000e+000 -0.000000e+000 1.000000e+000
    outer loop
      vertex   -2.075000e+002 1.500000e+002 2.000000e+000
      vertex   -1.865000e+002 1.650000e+002 2.000000e+000
      vertex   -2.265000e+002 1.690000e+002 2.000000e+000
    endloop
  endfacet
  facet normal 0.000000e+000 -0.000000e+000 1.000000e+000
    outer loop
      vertex   -2.265000e+002 1.380000e+002 2.000000e+000
      vertex   -2.075000e+002 1.500000e+002 2.000000e+000
      vertex   -2.265000e+002 1.690000e+002 2.000000e+000
    endloop
  endfacet
  facet normal -0.000000e+000 0.000000e+000 1.000000e+000
    outer loop
      vertex   -2.265000e+002 1.380000e+002 2.000000e+000
      vertex   -2.265000e+002 1.330000e+002 2.000000e+000
      vertex   -2.075000e+002 1.500000e+002 2.000000e+000
    endloop
  endfacet
  facet normal -0.000000e+000 0.000000e+000 1.000000e+000
    outer loop
      vertex   -2.265000e+002 1.380000e+002 2.000000e+000
      vertex   -2.290000e+002 1.330000e+002 2.000000e+000
      vertex   -2.265000e+002 1.330000e+002 2.000000e+000
    endloop
  endfacet
  facet normal 0.000000e+000 0.000000e+000 1.000000e+000
    outer loop
      vertex   -2.265000e+002 1.380000e+002 2.000000e+000
      vertex   -2.320000e+002 1.380000e+002 2.000000e+000
      vertex   -2.290000e+002 1.330000e+002 2.000000e+000
    endloop
  endfacet
  facet normal 0.000000e+000 0.000000e+000 1.000000e+000
    outer loop
      vertex   -2.290000e+002 1.330000e+002 2.000000e+000
      vertex   -2.320000e+002 1.380000e+002 2.000000e+000
      vertex   -2.320000e+002 1.280000e+002 2.000000e+000
    endloop
  endfacet
  facet normal 0.000000e+000 -0.000000e+000 1.000000e+000
    outer loop
      vertex   -2.290000e+002 1.280000e+002 2.000000e+000
      vertex   -2.290000e+002 1.330000e+002 2.000000e+000
      vertex   -2.320000e+002 1.280000e+002 2.000000e+000
    endloop
  endfacet
  facet normal 0.000000e+000 -0.000000e+000 1.000000e+000
    outer loop
      vertex   -1.865000e+002 1.650000e+002 2.000000e+000
      vertex   -1.865000e+002 1.690000e+002 2.000000e+000
      vertex   -2.265000e+002 1.690000e+002 2.000000e+000
    endloop
  endfacet
  facet normal 0.000000e+000 0.000000e+000 1.000000e+000
    outer loop
      vertex   -2.075000e+002 1.500000e+002 2.000000e+000
      vertex   -2.265000e+002 1.330000e+002 2.000000e+000
      vertex   -2.075000e+002 9.450000e+001 2.000000e+000
    endloop
  endfacet
  facet normal 0.000000e+000 0.000000e+000 1.000000e+000
    outer loop
      vertex   -2.075000e+002 9.450000e+001 2.000000e+000
      vertex   -2.265000e+002 1.330000e+002 2.000000e+000
      vertex   -2.265000e+002 8.000000e+001 2.000000e+000
    endloop
  endfacet
  facet normal 0.000000e+000 -0.000000e+000 1.000000e+000
    outer loop
      vertex   -2.265000e+002 7.500000e+001 2.000000e+000
      vertex   -2.265000e+002 8.000000e+001 2.000000e+000
      vertex   -2.290000e+002 7.500000e+001 2.000000e+000
    endloop
  endfacet
  facet normal 0.000000e+000 -0.000000e+000 1.000000e+000
    outer loop
      vertex   -2.265000e+002 7.500000e+001 2.000000e+000
      vertex   -2.075000e+002 9.450000e+001 2.000000e+000
      vertex   -2.265000e+002 8.000000e+001 2.000000e+000
    endloop
  endfacet
  facet normal 4.106088e-018 -4.000804e-018 1.000000e+000
    outer loop
      vertex   -2.265000e+002 7.500000e+001 2.000000e+000
      vertex   -2.075000e+002 3.900000e+001 2.000000e+000
      vertex   -2.075000e+002 9.450000e+001 2.000000e+000
    endloop
  endfacet
  facet normal 1.168656e-017 0.000000e+000 1.000000e+000
    outer loop
      vertex   -2.265000e+002 7.500000e+001 2.000000e+000
      vertex   -2.265000e+002 3.900000e+001 2.000000e+000
      vertex   -2.075000e+002 3.900000e+001 2.000000e+000
    endloop
  endfacet
  facet normal 0.000000e+000 0.000000e+000 1.000000e+000
    outer loop
      vertex   -2.265000e+002 8.000000e+001 2.000000e+000
      vertex   -2.320000e+002 8.000000e+001 2.000000e+000
      vertex   -2.290000e+002 7.500000e+001 2.000000e+000
    endloop
  endfacet
  facet normal 0.000000e+000 0.000000e+000 1.000000e+000
    outer loop
      vertex   -2.290000e+002 7.500000e+001 2.000000e+000
      vertex   -2.320000e+002 8.000000e+001 2.000000e+000
      vertex   -2.320000e+002 7.000000e+001 2.000000e+000
    endloop
  endfacet
  facet normal 0.000000e+000 -0.000000e+000 1.000000e+000
    outer loop
      vertex   -2.290000e+002 7.000000e+001 2.000000e+000
      vertex   -2.290000e+002 7.500000e+001 2.000000e+000
      vertex   -2.320000e+002 7.000000e+001 2.000000e+000
    endloop
  endfacet
  facet normal 0.000000e+000 -0.000000e+000 1.000000e+000
    outer loop
      vertex   -4.400000e+001 9.450000e+001 2.000000e+000
      vertex   -2.500000e+001 1.330000e+002 2.000000e+000
      vertex   -4.400000e+001 1.500000e+002 2.000000e+000
    endloop
  endfacet
  facet normal -0.000000e+000 0.000000e+000 1.000000e+000
    outer loop
      vertex   -4.400000e+001 9.450000e+001 2.000000e+000
      vertex   -2.500000e+001 8.000000e+001 2.000000e+000
      vertex   -2.500000e+001 1.330000e+002 2.000000e+000
    endloop
  endfacet
  facet normal -0.000000e+000 0.000000e+000 1.000000e+000
    outer loop
      vertex   -4.400000e+001 9.450000e+001 2.000000e+000
      vertex   -2.500000e+001 7.500000e+001 2.000000e+000
      vertex   -2.500000e+001 8.000000e+001 2.000000e+000
    endloop
  endfacet
  facet normal -0.000000e+000 0.000000e+000 1.000000e+000
    outer loop
      vertex   -4.400000e+001 9.450000e+001 2.000000e+000
      vertex   -4.400000e+001 3.900000e+001 2.000000e+000
      vertex   -2.500000e+001 7.500000e+001 2.000000e+000
    endloop
  endfacet
  facet normal -0.000000e+000 0.000000e+000 1.000000e+000
    outer loop
      vertex   -2.500000e+001 7.500000e+001 2.000000e+000
      vertex   -4.400000e+001 3.900000e+001 2.000000e+000
      vertex   -2.500000e+001 3.900000e+001 2.000000e+000
    endloop
  endfacet
  facet normal 0.000000e+000 -0.000000e+000 1.000000e+000
    outer loop
      vertex   -2.500000e+001 7.500000e+001 2.000000e+000
      vertex   -2.250000e+001 7.500000e+001 2.000000e+000
      vertex   -2.500000e+001 8.000000e+001 2.000000e+000
    endloop
  endfacet
  facet normal -0.000000e+000 0.000000e+000 1.000000e+000
    outer loop
      vertex   -2.500000e+001 8.000000e+001 2.000000e+000
      vertex   -2.250000e+001 7.500000e+001 2.000000e+000
      vertex   -1.950000e+001 8.000000e+001 2.000000e+000
    endloop
  endfacet
  facet normal 0.000000e+000 0.000000e+000 1.000000e+000
    outer loop
      vertex   -1.950000e+001 8.000000e+001 2.000000e+000
      vertex   -2.250000e+001 7.500000e+001 2.000000e+000
      vertex   -1.950000e+001 7.000000e+001 2.000000e+000
    endloop
  endfacet
  facet normal 0.000000e+000 0.000000e+000 1.000000e+000
    outer loop
      vertex   -1.950000e+001 7.000000e+001 2.000000e+000
      vertex   -2.250000e+001 7.500000e+001 2.000000e+000
      vertex   -2.250000e+001 7.000000e+001 2.000000e+000
    endloop
  endfacet
  facet normal -0.000000e+000 0.000000e+000 1.000000e+000
    outer loop
      vertex   -4.400000e+001 1.500000e+002 2.000000e+000
      vertex   -2.500000e+001 1.330000e+002 2.000000e+000
      vertex   -2.500000e+001 1.380000e+002 2.000000e+000
    endloop
  endfacet
  facet normal 0.000000e+000 0.000000e+000 1.000000e+000
    outer loop
      vertex   -2.500000e+001 1.690000e+002 2.000000e+000
      vertex   -4.400000e+001 1.500000e+002 2.000000e+000
      vertex   -2.500000e+001 1.380000e+002 2.000000e+000
    endloop
  endfacet
  facet normal 0.000000e+000 -0.000000e+000 1.000000e+000
    outer loop
      vertex   -2.250000e+001 1.280000e+002 2.000000e+000
      vertex   -1.950000e+001 1.280000e+002 2.000000e+000
      vertex   -2.250000e+001 1.330000e+002 2.000000e+000
    endloop
  endfacet
  facet normal -0.000000e+000 0.000000e+000 1.000000e+000
    outer loop
      vertex   -2.250000e+001 1.330000e+002 2.000000e+000
      vertex   -1.950000e+001 1.280000e+002 2.000000e+000
      vertex   -1.950000e+001 1.380000e+002 2.000000e+000
    endloop
  endfacet
  facet normal -0.000000e+000 0.000000e+000 1.000000e+000
    outer loop
      vertex   -2.500000e+001 1.380000e+002 2.000000e+000
      vertex   -2.250000e+001 1.330000e+002 2.000000e+000
      vertex   -1.950000e+001 1.380000e+002 2.000000e+000
    endloop
  endfacet
  facet normal -0.000000e+000 0.000000e+000 1.000000e+000
    outer loop
      vertex   -2.500000e+001 1.380000e+002 2.000000e+000
      vertex   -2.500000e+001 1.330000e+002 2.000000e+000
      vertex   -2.250000e+001 1.330000e+002 2.000000e+000
    endloop
  endfacet
  facet normal 0.000000e+000 -0.000000e+000 1.000000e+000
    outer loop
      vertex   -9.500000e+001 1.650000e+002 2.000000e+000
      vertex   -9.500000e+001 1.690000e+002 2.000000e+000
      vertex   -1.257500e+002 1.690000e+002 2.000000e+000
    endloop
  endfacet
  facet normal 0.000000e+000 0.000000e+000 1.000000e+000
    outer loop
      vertex   -6.500000e+001 1.690000e+002 6.000000e+000
      vertex   -9.500000e+001 1.690000e+002 6.000000e+000
      vertex   -6.500000e+001 1.650000e+002 6.000000e+000
    endloop
  endfacet
  facet normal 0.000000e+000 0.000000e+000 1.000000e+000
    outer loop
      vertex   -6.500000e+001 1.650000e+002 6.000000e+000
      vertex   -9.500000e+001 1.690000e+002 6.000000e+000
      vertex   -9.500000e+001 1.650000e+002 6.000000e+000
    endloop
  endfacet
  facet normal -1.000000e+000 0.000000e+000 0.000000e+000
    outer loop
      vertex   -9.500000e+001 1.650000e+002 2.000000e+000
      vertex   -9.500000e+001 1.650000e+002 6.000000e+000
      vertex   -9.500000e+001 1.690000e+002 2.000000e+000
    endloop
  endfacet
  facet normal -1.000000e+000 0.000000e+000 0.000000e+000
    outer loop
      vertex   -9.500000e+001 1.690000e+002 2.000000e+000
      vertex   -9.500000e+001 1.650000e+002 6.000000e+000
      vertex   -9.500000e+001 1.690000e+002 6.000000e+000
    endloop
  endfacet
  facet normal -0.000000e+000 -1.000000e+000 0.000000e+000
    outer loop
      vertex   -6.500000e+001 1.650000e+002 2.000000e+000
      vertex   -6.500000e+001 1.650000e+002 6.000000e+000
      vertex   -9.500000e+001 1.650000e+002 2.000000e+000
    endloop
  endfacet
  facet normal 0.000000e+000 -1.000000e+000 0.000000e+000
    outer loop
      vertex   -9.500000e+001 1.650000e+002 2.000000e+000
      vertex   -6.500000e+001 1.650000e+002 6.000000e+000
      vertex   -9.500000e+001 1.650000e+002 6.000000e+000
    endloop
  endfacet
  facet normal 1.000000e+000 0.000000e+000 -0.000000e+000
    outer loop
      vertex   -6.500000e+001 1.690000e+002 2.000000e+000
      vertex   -6.500000e+001 1.690000e+002 6.000000e+000
      vertex   -6.500000e+001 1.650000e+002 2.000000e+000
    endloop
  endfacet
  facet normal 1.000000e+000 0.000000e+000 -0.000000e+000
    outer loop
      vertex   -6.500000e+001 1.650000e+002 2.000000e+000
      vertex   -6.500000e+001 1.690000e+002 6.000000e+000
      vertex   -6.500000e+001 1.650000e+002 6.000000e+000
    endloop
  endfacet
  facet normal 1.000000e+000 -0.000000e+000 0.000000e+000
    outer loop
      vertex   -1.950000e+001 1.280000e+002 2.000000e+000
      vertex   -1.950000e+001 1.280000e+002 0.000000e+000
      vertex   -1.950000e+001 1.380000e+002 2.000000e+000
    endloop
  endfacet
  facet normal 1.000000e+000 -0.000000e+000 0.000000e+000
    outer loop
      vertex   -1.950000e+001 1.380000e+002 2.000000e+000
      vertex   -1.950000e+001 1.280000e+002 0.000000e+000
      vertex   -1.950000e+001 1.380000e+002 0.000000e+000
    endloop
  endfacet
  facet normal -0.000000e+000 -1.000000e+000 0.000000e+000
    outer loop
      vertex   -1.950000e+001 1.280000e+002 0.000000e+000
      vertex   -1.950000e+001 1.280000e+002 2.000000e+000
      vertex   -2.250000e+001 1.280000e+002 0.000000e+000
    endloop
  endfacet
  facet normal 0.000000e+000 -1.000000e+000 0.000000e+000
    outer loop
      vertex   -2.250000e+001 1.280000e+002 0.000000e+000
      vertex   -1.950000e+001 1.280000e+002 2.000000e+000
      vertex   -2.250000e+001 1.280000e+002 2.000000e+000
    endloop
  endfacet
  facet normal -1.000000e+000 -0.000000e+000 -0.000000e+000
    outer loop
      vertex   -2.250000e+001 1.330000e+002 2.000000e+000
      vertex   -2.250000e+001 1.330000e+002 0.000000e+000
      vertex   -2.250000e+001 1.280000e+002 2.000000e+000
    endloop
  endfacet
  facet normal -1.000000e+000 -0.000000e+000 -0.000000e+000
    outer loop
      vertex   -2.250000e+001 1.280000e+002 2.000000e+000
      vertex   -2.250000e+001 1.330000e+002 0.000000e+000
      vertex   -2.250000e+001 1.280000e+002 0.000000e+000
    endloop
  endfacet
  facet normal 0.000000e+000 -1.000000e+000 0.000000e+000
    outer loop
      vertex   -2.500000e+001 1.330000e+002 2.000000e+000
      vertex   -2.500000e+001 1.330000e+002 0.000000e+000
      vertex   -2.250000e+001 1.330000e+002 2.000000e+000
    endloop
  endfacet
  facet normal 0.000000e+000 -1.000000e+000 -0.000000e+000
    outer loop
      vertex   -2.250000e+001 1.330000e+002 2.000000e+000
      vertex   -2.500000e+001 1.330000e+002 0.000000e+000
      vertex   -2.250000e+001 1.330000e+002 0.000000e+000
    endloop
  endfacet
  facet normal -0.000000e+000 1.000000e+000 0.000000e+000
    outer loop
      vertex   -2.500000e+001 1.380000e+002 0.000000e+000
      vertex   -2.500000e+001 1.380000e+002 2.000000e+000
      vertex   -1.950000e+001 1.380000e+002 0.000000e+000
    endloop
  endfacet
  facet normal 0.000000e+000 1.000000e+000 -0.000000e+000
    outer loop
      vertex   -1.950000e+001 1.380000e+002 0.000000e+000
      vertex   -2.500000e+001 1.380000e+002 2.000000e+000
      vertex   -1.950000e+001 1.380000e+002 2.000000e+000
    endloop
  endfacet
  facet normal 1.000000e+000 0.000000e+000 0.000000e+000
    outer loop
      vertex   -2.500000e+001 1.330000e+002 2.000000e+000
      vertex   -2.500000e+001 8.000000e+001 2.000000e+000
      vertex   -2.500000e+001 1.330000e+002 0.000000e+000
    endloop
  endfacet
  facet normal 1.000000e+000 0.000000e+000 0.000000e+000
    outer loop
      vertex   -2.500000e+001 1.330000e+002 0.000000e+000
      vertex   -2.500000e+001 8.000000e+001 2.000000e+000
      vertex   -2.500000e+001 8.000000e+001 0.000000e+000
    endloop
  endfacet
  facet normal 1.000000e+000 -2.292073e-016 0.000000e+000
    outer loop
      vertex   -2.500000e+001 1.380000e+002 2.000000e+000
      vertex   -2.500000e+001 1.380000e+002 0.000000e+000
      vertex   -2.500000e+001 1.690000e+002 2.000000e+000
    endloop
  endfacet
  facet normal 1.000000e+000 -2.292073e-016 0.000000e+000
    outer loop
      vertex   -2.500000e+001 1.690000e+002 2.000000e+000
      vertex   -2.500000e+001 1.380000e+002 0.000000e+000
      vertex   -2.500000e+001 1.690000e+002 0.000000e+000
    endloop
  endfacet
  facet normal 1.000000e+000 -0.000000e+000 0.000000e+000
    outer loop
      vertex   -1.950000e+001 7.000000e+001 2.000000e+000
      vertex   -1.950000e+001 7.000000e+001 0.000000e+000
      vertex   -1.950000e+001 8.000000e+001 2.000000e+000
    endloop
  endfacet
  facet normal 1.000000e+000 -0.000000e+000 0.000000e+000
    outer loop
      vertex   -1.950000e+001 8.000000e+001 2.000000e+000
      vertex   -1.950000e+001 7.000000e+001 0.000000e+000
      vertex   -1.950000e+001 8.000000e+001 0.000000e+000
    endloop
  endfacet
  facet normal -0.000000e+000 -1.000000e+000 0.000000e+000
    outer loop
      vertex   -1.950000e+001 7.000000e+001 0.000000e+000
      vertex   -1.950000e+001 7.000000e+001 2.000000e+000
      vertex   -2.250000e+001 7.000000e+001 0.000000e+000
    endloop
  endfacet
  facet normal 0.000000e+000 -1.000000e+000 0.000000e+000
    outer loop
      vertex   -2.250000e+001 7.000000e+001 0.000000e+000
      vertex   -1.950000e+001 7.000000e+001 2.000000e+000
      vertex   -2.250000e+001 7.000000e+001 2.000000e+000
    endloop
  endfacet
  facet normal -1.000000e+000 -0.000000e+000 -0.000000e+000
    outer loop
      vertex   -2.250000e+001 7.500000e+001 2.000000e+000
      vertex   -2.250000e+001 7.500000e+001 0.000000e+000
      vertex   -2.250000e+001 7.000000e+001 2.000000e+000
    endloop
  endfacet
  facet normal -1.000000e+000 -0.000000e+000 -0.000000e+000
    outer loop
      vertex   -2.250000e+001 7.000000e+001 2.000000e+000
      vertex   -2.250000e+001 7.500000e+001 0.000000e+000
      vertex   -2.250000e+001 7.000000e+001 0.000000e+000
    endloop
  endfacet
  facet normal 0.000000e+000 -1.000000e+000 0.000000e+000
    outer loop
      vertex   -2.500000e+001 7.500000e+001 2.000000e+000
      vertex   -2.500000e+001 7.500000e+001 0.000000e+000
      vertex   -2.250000e+001 7.500000e+001 2.000000e+000
    endloop
  endfacet
  facet normal 0.000000e+000 -1.000000e+000 -0.000000e+000
    outer loop
      vertex   -2.250000e+001 7.500000e+001 2.000000e+000
      vertex   -2.500000e+001 7.500000e+001 0.000000e+000
      vertex   -2.250000e+001 7.500000e+001 0.000000e+000
    endloop
  endfacet
  facet normal -0.000000e+000 1.000000e+000 0.000000e+000
    outer loop
      vertex   -2.500000e+001 8.000000e+001 0.000000e+000
      vertex   -2.500000e+001 8.000000e+001 2.000000e+000
      vertex   -1.950000e+001 8.000000e+001 0.000000e+000
    endloop
  endfacet
  facet normal 0.000000e+000 1.000000e+000 -0.000000e+000
    outer loop
      vertex   -1.950000e+001 8.000000e+001 0.000000e+000
      vertex   -2.500000e+001 8.000000e+001 2.000000e+000
      vertex   -1.950000e+001 8.000000e+001 2.000000e+000
    endloop
  endfacet
  facet normal 1.000000e+000 9.868649e-017 -0.000000e+000
    outer loop
      vertex   -2.500000e+001 7.500000e+001 0.000000e+000
      vertex   -2.500000e+001 7.500000e+001 2.000000e+000
      vertex   -2.500000e+001 3.900000e+001 0.000000e+000
    endloop
  endfacet
  facet normal 1.000000e+000 9.868649e-017 0.000000e+000
    outer loop
      vertex   -2.500000e+001 3.900000e+001 0.000000e+000
      vertex   -2.500000e+001 7.500000e+001 2.000000e+000
      vertex   -2.500000e+001 3.900000e+001 2.000000e+000
    endloop
  endfacet
  facet normal 0.000000e+000 -1.000000e+000 0.000000e+000
    outer loop
      vertex   -2.075000e+002 1.500000e+002 0.000000e+000
      vertex   -1.530000e+002 1.500000e+002 0.000000e+000
      vertex   -2.075000e+002 1.500000e+002 2.000000e+000
    endloop
  endfacet
  facet normal 0.000000e+000 -1.000000e+000 0.000000e+000
    outer loop
      vertex   -2.075000e+002 1.500000e+002 2.000000e+000
      vertex   -1.530000e+002 1.500000e+002 0.000000e+000
      vertex   -1.530000e+002 1.500000e+002 2.000000e+000
    endloop
  endfacet
  facet normal 0.000000e+000 -1.000000e+000 0.000000e+000
    outer loop
      vertex   -1.530000e+002 1.500000e+002 2.000000e+000
      vertex   -1.530000e+002 1.500000e+002 0.000000e+000
      vertex   -9.850000e+001 1.500000e+002 0.000000e+000
    endloop
  endfacet
  facet normal 0.000000e+000 -1.000000e+000 0.000000e+000
    outer loop
      vertex   -9.850000e+001 1.500000e+002 2.000000e+000
      vertex   -9.850000e+001 1.500000e+002 0.000000e+000
      vertex   -4.400000e+001 1.500000e+002 0.000000e+000
    endloop
  endfacet
  facet normal -0.000000e+000 -1.000000e+000 -0.000000e+000
    outer loop
      vertex   -4.400000e+001 1.500000e+002 2.000000e+000
      vertex   -9.850000e+001 1.500000e+002 2.000000e+000
      vertex   -4.400000e+001 1.500000e+002 0.000000e+000
    endloop
  endfacet
  facet normal 0.000000e+000 -1.000000e+000 0.000000e+000
    outer loop
      vertex   -1.530000e+002 1.500000e+002 2.000000e+000
      vertex   -9.850000e+001 1.500000e+002 0.000000e+000
      vertex   -9.850000e+001 1.500000e+002 2.000000e+000
    endloop
  endfacet
  facet normal -1.000000e+000 2.560514e-016 0.000000e+000
    outer loop
      vertex   -4.400000e+001 1.500000e+002 0.000000e+000
      vertex   -4.400000e+001 9.450000e+001 0.000000e+000
      vertex   -4.400000e+001 1.500000e+002 2.000000e+000
    endloop
  endfacet
  facet normal -1.000000e+000 2.560514e-016 0.000000e+000
    outer loop
      vertex   -4.400000e+001 1.500000e+002 2.000000e+000
      vertex   -4.400000e+001 9.450000e+001 0.000000e+000
      vertex   -4.400000e+001 9.450000e+001 2.000000e+000
    endloop
  endfacet
  facet normal -1.000000e+000 -0.000000e+000 -0.000000e+000
    outer loop
      vertex   -4.400000e+001 9.450000e+001 2.000000e+000
      vertex   -4.400000e+001 9.450000e+001 0.000000e+000
      vertex   -4.400000e+001 3.900000e+001 0.000000e+000
    endloop
  endfacet
  facet normal -1.000000e+000 0.000000e+000 -0.000000e+000
    outer loop
      vertex   -4.400000e+001 3.900000e+001 2.000000e+000
      vertex   -4.400000e+001 9.450000e+001 2.000000e+000
      vertex   -4.400000e+001 3.900000e+001 0.000000e+000
    endloop
  endfacet
  facet normal -7.105427e-016 1.000000e+000 0.000000e+000
    outer loop
      vertex   -2.500000e+001 1.690000e+002 2.000000e+000
      vertex   -2.500000e+001 1.690000e+002 0.000000e+000
      vertex   -6.500000e+001 1.690000e+002 2.000000e+000
    endloop
  endfacet
  facet normal 0.000000e+000 1.000000e+000 1.421085e-014
    outer loop
      vertex   -6.500000e+001 1.690000e+002 2.000000e+000
      vertex   -2.500000e+001 1.690000e+002 0.000000e+000
      vertex   -7.537500e+001 1.690000e+002 0.000000e+000
    endloop
  endfacet
  facet normal 0.000000e+000 1.000000e+000 1.421085e-014
    outer loop
      vertex   -9.500000e+001 1.690000e+002 2.000000e+000
      vertex   -7.537500e+001 1.690000e+002 0.000000e+000
      vertex   -1.257500e+002 1.690000e+002 0.000000e+000
    endloop
  endfacet
  facet normal 0.000000e+000 1.000000e+000 0.000000e+000
    outer loop
      vertex   -1.257500e+002 1.690000e+002 2.000000e+000
      vertex   -1.257500e+002 1.690000e+002 0.000000e+000
      vertex   -1.565000e+002 1.690000e+002 2.000000e+000
    endloop
  endfacet
  facet normal 9.242832e-016 1.000000e+000 0.000000e+000
    outer loop
      vertex   -1.257500e+002 1.690000e+002 2.000000e+000
      vertex   -9.500000e+001 1.690000e+002 2.000000e+000
      vertex   -1.257500e+002 1.690000e+002 0.000000e+000
    endloop
  endfacet
  facet normal 0.000000e+000 1.000000e+000 1.421085e-014
    outer loop
      vertex   -6.500000e+001 1.690000e+002 2.000000e+000
      vertex   -7.537500e+001 1.690000e+002 0.000000e+000
      vertex   -9.500000e+001 1.690000e+002 2.000000e+000
    endloop
  endfacet
  facet normal 0.000000e+000 1.000000e+000 0.000000e+000
    outer loop
      vertex   -9.500000e+001 1.690000e+002 6.000000e+000
      vertex   -6.500000e+001 1.690000e+002 2.000000e+000
      vertex   -9.500000e+001 1.690000e+002 2.000000e+000
    endloop
  endfacet
  facet normal -0.000000e+000 1.000000e+000 0.000000e+000
    outer loop
      vertex   -9.500000e+001 1.690000e+002 6.000000e+000
      vertex   -6.500000e+001 1.690000e+002 6.000000e+000
      vertex   -6.500000e+001 1.690000e+002 2.000000e+000
    endloop
  endfacet
  facet normal 0.000000e+000 1.000000e+000 -0.000000e+000
    outer loop
      vertex   -1.257500e+002 1.690000e+002 0.000000e+000
      vertex   -1.761250e+002 1.690000e+002 0.000000e+000
      vertex   -1.565000e+002 1.690000e+002 2.000000e+000
    endloop
  endfacet
  facet normal 0.000000e+000 1.000000e+000 0.000000e+000
    outer loop
      vertex   -1.565000e+002 1.690000e+002 2.000000e+000
      vertex   -1.761250e+002 1.690000e+002 0.000000e+000
      vertex   -1.865000e+002 1.690000e+002 2.000000e+000
    endloop
  endfacet
  facet normal 0.000000e+000 1.000000e+000 0.000000e+000
    outer loop
      vertex   -1.865000e+002 1.690000e+002 6.000000e+000
      vertex   -1.565000e+002 1.690000e+002 2.000000e+000
      vertex   -1.865000e+002 1.690000e+002 2.000000e+000
    endloop
  endfacet
  facet normal -0.000000e+000 1.000000e+000 0.000000e+000
    outer loop
      vertex   -1.865000e+002 1.690000e+002 6.000000e+000
      vertex   -1.565000e+002 1.690000e+002 6.000000e+000
      vertex   -1.565000e+002 1.690000e+002 2.000000e+000
    endloop
  endfacet
  facet normal 0.000000e+000 1.000000e+000 -0.000000e+000
    outer loop
      vertex   -1.761250e+002 1.690000e+002 0.000000e+000
      vertex   -2.265000e+002 1.690000e+002 0.000000e+000
      vertex   -1.865000e+002 1.690000e+002 2.000000e+000
    endloop
  endfacet
  facet normal 0.000000e+000 1.000000e+000 -0.000000e+000
    outer loop
      vertex   -1.865000e+002 1.690000e+002 2.000000e+000
      vertex   -2.265000e+002 1.690000e+002 0.000000e+000
      vertex   -2.265000e+002 1.690000e+002 2.000000e+000
    endloop
  endfacet
  facet normal -0.000000e+000 -1.000000e+000 0.000000e+000
    outer loop
      vertex   -2.500000e+001 3.900000e+001 0.000000e+000
      vertex   -2.500000e+001 3.900000e+001 2.000000e+000
      vertex   -4.400000e+001 3.900000e+001 0.000000e+000
    endloop
  endfacet
  facet normal 0.000000e+000 -1.000000e+000 0.000000e+000
    outer loop
      vertex   -4.400000e+001 3.900000e+001 0.000000e+000
      vertex   -2.500000e+001 3.900000e+001 2.000000e+000
      vertex   -4.400000e+001 3.900000e+001 2.000000e+000
    endloop
  endfacet
  facet normal 1.000000e+000 0.000000e+000 -0.000000e+000
    outer loop
      vertex   -2.290000e+002 1.330000e+002 0.000000e+000
      vertex   -2.290000e+002 1.330000e+002 2.000000e+000
      vertex   -2.290000e+002 1.280000e+002 0.000000e+000
    endloop
  endfacet
  facet normal 1.000000e+000 0.000000e+000 -0.000000e+000
    outer loop
      vertex   -2.290000e+002 1.280000e+002 0.000000e+000
      vertex   -2.290000e+002 1.330000e+002 2.000000e+000
      vertex   -2.290000e+002 1.280000e+002 2.000000e+000
    endloop
  endfacet
  facet normal -0.000000e+000 -1.000000e+000 0.000000e+000
    outer loop
      vertex   -2.290000e+002 1.280000e+002 0.000000e+000
      vertex   -2.290000e+002 1.280000e+002 2.000000e+000
      vertex   -2.320000e+002 1.280000e+002 0.000000e+000
    endloop
  endfacet
  facet normal 0.000000e+000 -1.000000e+000 0.000000e+000
    outer loop
      vertex   -2.320000e+002 1.280000e+002 0.000000e+000
      vertex   -2.290000e+002 1.280000e+002 2.000000e+000
      vertex   -2.320000e+002 1.280000e+002 2.000000e+000
    endloop
  endfacet
  facet normal -1.000000e+000 -0.000000e+000 -0.000000e+000
    outer loop
      vertex   -2.320000e+002 1.380000e+002 2.000000e+000
      vertex   -2.320000e+002 1.380000e+002 0.000000e+000
      vertex   -2.320000e+002 1.280000e+002 2.000000e+000
    endloop
  endfacet
  facet normal -1.000000e+000 -0.000000e+000 -0.000000e+000
    outer loop
      vertex   -2.320000e+002 1.280000e+002 2.000000e+000
      vertex   -2.320000e+002 1.380000e+002 0.000000e+000
      vertex   -2.320000e+002 1.280000e+002 0.000000e+000
    endloop
  endfacet
  facet normal 1.000000e+000 0.000000e+000 -0.000000e+000
    outer loop
      vertex   -2.290000e+002 7.500000e+001 0.000000e+000
      vertex   -2.290000e+002 7.500000e+001 2.000000e+000
      vertex   -2.290000e+002 7.000000e+001 0.000000e+000
    endloop
  endfacet
  facet normal 1.000000e+000 0.000000e+000 -0.000000e+000
    outer loop
      vertex   -2.290000e+002 7.000000e+001 0.000000e+000
      vertex   -2.290000e+002 7.500000e+001 2.000000e+000
      vertex   -2.290000e+002 7.000000e+001 2.000000e+000
    endloop
  endfacet
  facet normal -0.000000e+000 -1.000000e+000 0.000000e+000
    outer loop
      vertex   -2.290000e+002 7.000000e+001 0.000000e+000
      vertex   -2.290000e+002 7.000000e+001 2.000000e+000
      vertex   -2.320000e+002 7.000000e+001 0.000000e+000
    endloop
  endfacet
  facet normal 0.000000e+000 -1.000000e+000 0.000000e+000
    outer loop
      vertex   -2.320000e+002 7.000000e+001 0.000000e+000
      vertex   -2.290000e+002 7.000000e+001 2.000000e+000
      vertex   -2.320000e+002 7.000000e+001 2.000000e+000
    endloop
  endfacet
  facet normal -1.000000e+000 -0.000000e+000 -0.000000e+000
    outer loop
      vertex   -2.320000e+002 8.000000e+001 2.000000e+000
      vertex   -2.320000e+002 8.000000e+001 0.000000e+000
      vertex   -2.320000e+002 7.000000e+001 2.000000e+000
    endloop
  endfacet
  facet normal -1.000000e+000 -0.000000e+000 -0.000000e+000
    outer loop
      vertex   -2.320000e+002 7.000000e+001 2.000000e+000
      vertex   -2.320000e+002 8.000000e+001 0.000000e+000
      vertex   -2.320000e+002 7.000000e+001 0.000000e+000
    endloop
  endfacet
  facet normal 0.000000e+000 -1.000000e+000 0.000000e+000
    outer loop
      vertex   -2.290000e+002 7.500000e+001 2.000000e+000
      vertex   -2.290000e+002 7.500000e+001 0.000000e+000
      vertex   -2.265000e+002 7.500000e+001 2.000000e+000
    endloop
  endfacet
  facet normal 0.000000e+000 -1.000000e+000 -0.000000e+000
    outer loop
      vertex   -2.265000e+002 7.500000e+001 2.000000e+000
      vertex   -2.290000e+002 7.500000e+001 0.000000e+000
      vertex   -2.265000e+002 7.500000e+001 0.000000e+000
    endloop
  endfacet
  facet normal 0.000000e+000 1.000000e+000 0.000000e+000
    outer loop
      vertex   -2.265000e+002 8.000000e+001 2.000000e+000
      vertex   -2.265000e+002 8.000000e+001 0.000000e+000
      vertex   -2.320000e+002 8.000000e+001 2.000000e+000
    endloop
  endfacet
  facet normal 0.000000e+000 1.000000e+000 0.000000e+000
    outer loop
      vertex   -2.320000e+002 8.000000e+001 2.000000e+000
      vertex   -2.265000e+002 8.000000e+001 0.000000e+000
      vertex   -2.320000e+002 8.000000e+001 0.000000e+000
    endloop
  endfacet
  facet normal -1.000000e+000 -0.000000e+000 -0.000000e+000
    outer loop
      vertex   -2.265000e+002 7.500000e+001 2.000000e+000
      vertex   -2.265000e+002 7.500000e+001 0.000000e+000
      vertex   -2.265000e+002 3.900000e+001 2.000000e+000
    endloop
  endfacet
  facet normal -1.000000e+000 -0.000000e+000 -0.000000e+000
    outer loop
      vertex   -2.265000e+002 3.900000e+001 2.000000e+000
      vertex   -2.265000e+002 7.500000e+001 0.000000e+000
      vertex   -2.265000e+002 3.900000e+001 0.000000e+000
    endloop
  endfacet
  facet normal 0.000000e+000 -1.000000e+000 0.000000e+000
    outer loop
      vertex   -2.290000e+002 1.330000e+002 2.000000e+000
      vertex   -2.290000e+002 1.330000e+002 0.000000e+000
      vertex   -2.265000e+002 1.330000e+002 2.000000e+000
    endloop
  endfacet
  facet normal 0.000000e+000 -1.000000e+000 -0.000000e+000
    outer loop
      vertex   -2.265000e+002 1.330000e+002 2.000000e+000
      vertex   -2.290000e+002 1.330000e+002 0.000000e+000
      vertex   -2.265000e+002 1.330000e+002 0.000000e+000
    endloop
  endfacet
  facet normal 0.000000e+000 1.000000e+000 0.000000e+000
    outer loop
      vertex   -2.265000e+002 1.380000e+002 2.000000e+000
      vertex   -2.265000e+002 1.380000e+002 0.000000e+000
      vertex   -2.320000e+002 1.380000e+002 2.000000e+000
    endloop
  endfacet
  facet normal 0.000000e+000 1.000000e+000 0.000000e+000
    outer loop
      vertex   -2.320000e+002 1.380000e+002 2.000000e+000
      vertex   -2.265000e+002 1.380000e+002 0.000000e+000
      vertex   -2.320000e+002 1.380000e+002 0.000000e+000
    endloop
  endfacet
  facet normal -1.000000e+000 0.000000e+000 -0.000000e+000
    outer loop
      vertex   -2.265000e+002 8.000000e+001 2.000000e+000
      vertex   -2.265000e+002 1.330000e+002 2.000000e+000
      vertex   -2.265000e+002 8.000000e+001 0.000000e+000
    endloop
  endfacet
  facet normal -1.000000e+000 0.000000e+000 0.000000e+000
    outer loop
      vertex   -2.265000e+002 8.000000e+001 0.000000e+000
      vertex   -2.265000e+002 1.330000e+002 2.000000e+000
      vertex   -2.265000e+002 1.330000e+002 0.000000e+000
    endloop
  endfacet
  facet normal -0.000000e+000 -1.000000e+000 0.000000e+000
    outer loop
      vertex   -2.075000e+002 3.900000e+001 0.000000e+000
      vertex   -2.075000e+002 3.900000e+001 2.000000e+000
      vertex   -2.265000e+002 3.900000e+001 0.000000e+000
    endloop
  endfacet
  facet normal 0.000000e+000 -1.000000e+000 0.000000e+000
    outer loop
      vertex   -2.265000e+002 3.900000e+001 0.000000e+000
      vertex   -2.075000e+002 3.900000e+001 2.000000e+000
      vertex   -2.265000e+002 3.900000e+001 2.000000e+000
    endloop
  endfacet
  facet normal 1.000000e+000 0.000000e+000 0.000000e+000
    outer loop
      vertex   -2.075000e+002 1.500000e+002 2.000000e+000
      vertex   -2.075000e+002 9.450000e+001 2.000000e+000
      vertex   -2.075000e+002 1.500000e+002 0.000000e+000
    endloop
  endfacet
  facet normal 1.000000e+000 0.000000e+000 0.000000e+000
    outer loop
      vertex   -2.075000e+002 1.500000e+002 0.000000e+000
      vertex   -2.075000e+002 9.450000e+001 2.000000e+000
      vertex   -2.075000e+002 9.450000e+001 0.000000e+000
    endloop
  endfacet
  facet normal 1.000000e+000 0.000000e+000 -0.000000e+000
    outer loop
      vertex   -2.075000e+002 9.450000e+001 0.000000e+000
      vertex   -2.075000e+002 9.450000e+001 2.000000e+000
      vertex   -2.075000e+002 3.900000e+001 2.000000e+000
    endloop
  endfacet
  facet normal 1.000000e+000 0.000000e+000 -0.000000e+000
    outer loop
      vertex   -2.075000e+002 3.900000e+001 0.000000e+000
      vertex   -2.075000e+002 9.450000e+001 0.000000e+000
      vertex   -2.075000e+002 3.900000e+001 2.000000e+000
    endloop
  endfacet
  facet normal -1.000000e+000 0.000000e+000 0.000000e+000
    outer loop
      vertex   -2.265000e+002 1.380000e+002 0.000000e+000
      vertex   -2.265000e+002 1.380000e+002 2.000000e+000
      vertex   -2.265000e+002 1.690000e+002 0.000000e+000
    endloop
  endfacet
  facet normal -1.000000e+000 0.000000e+000 0.000000e+000
    outer loop
      vertex   -2.265000e+002 1.690000e+002 0.000000e+000
      vertex   -2.265000e+002 1.380000e+002 2.000000e+000
      vertex   -2.265000e+002 1.690000e+002 2.000000e+000
    endloop
  endfacet
  facet normal 0.000000e+000 0.000000e+000 -1.000000e+000
    outer loop
      vertex   -2.265000e+002 3.900000e+001 0.000000e+000
      vertex   -2.265000e+002 7.500000e+001 0.000000e+000
      vertex   -2.075000e+002 3.900000e+001 0.000000e+000
    endloop
  endfacet
  facet normal 0.000000e+000 0.000000e+000 -1.000000e+000
    outer loop
      vertex   -2.075000e+002 3.900000e+001 0.000000e+000
      vertex   -2.265000e+002 7.500000e+001 0.000000e+000
      vertex   -2.075000e+002 9.450000e+001 0.000000e+000
    endloop
  endfacet
  facet normal -0.000000e+000 0.000000e+000 -1.000000e+000
    outer loop
      vertex   -2.075000e+002 9.450000e+001 0.000000e+000
      vertex   -2.265000e+002 7.500000e+001 0.000000e+000
      vertex   -2.265000e+002 8.000000e+001 0.000000e+000
    endloop
  endfacet
  facet normal 0.000000e+000 -0.000000e+000 -1.000000e+000
    outer loop
      vertex   -2.265000e+002 1.330000e+002 0.000000e+000
      vertex   -2.075000e+002 9.450000e+001 0.000000e+000
      vertex   -2.265000e+002 8.000000e+001 0.000000e+000
    endloop
  endfacet
  facet normal 0.000000e+000 0.000000e+000 -1.000000e+000
    outer loop
      vertex   -2.265000e+002 1.330000e+002 0.000000e+000
      vertex   -2.075000e+002 1.500000e+002 0.000000e+000
      vertex   -2.075000e+002 9.450000e+001 0.000000e+000
    endloop
  endfacet
  facet normal 0.000000e+000 0.000000e+000 -1.000000e+000
    outer loop
      vertex   -2.265000e+002 1.330000e+002 0.000000e+000
      vertex   -2.265000e+002 1.380000e+002 0.000000e+000
      vertex   -2.075000e+002 1.500000e+002 0.000000e+000
    endloop
  endfacet
  facet normal 0.000000e+000 0.000000e+000 -1.000000e+000
    outer loop
      vertex   -2.265000e+002 1.330000e+002 0.000000e+000
      vertex   -2.290000e+002 1.330000e+002 0.000000e+000
      vertex   -2.265000e+002 1.380000e+002 0.000000e+000
    endloop
  endfacet
  facet normal -0.000000e+000 0.000000e+000 -1.000000e+000
    outer loop
      vertex   -2.265000e+002 1.380000e+002 0.000000e+000
      vertex   -2.290000e+002 1.330000e+002 0.000000e+000
      vertex   -2.320000e+002 1.380000e+002 0.000000e+000
    endloop
  endfacet
  facet normal 0.000000e+000 -0.000000e+000 -1.000000e+000
    outer loop
      vertex   -2.320000e+002 1.380000e+002 0.000000e+000
      vertex   -2.290000e+002 1.330000e+002 0.000000e+000
      vertex   -2.320000e+002 1.280000e+002 0.000000e+000
    endloop
  endfacet
  facet normal 0.000000e+000 0.000000e+000 -1.000000e+000
    outer loop
      vertex   -2.320000e+002 1.280000e+002 0.000000e+000
      vertex   -2.290000e+002 1.330000e+002 0.000000e+000
      vertex   -2.290000e+002 1.280000e+002 0.000000e+000
    endloop
  endfacet
  facet normal 0.000000e+000 0.000000e+000 -1.000000e+000
    outer loop
      vertex   -2.265000e+002 7.500000e+001 0.000000e+000
      vertex   -2.290000e+002 7.500000e+001 0.000000e+000
      vertex   -2.265000e+002 8.000000e+001 0.000000e+000
    endloop
  endfacet
  facet normal -0.000000e+000 0.000000e+000 -1.000000e+000
    outer loop
      vertex   -2.265000e+002 8.000000e+001 0.000000e+000
      vertex   -2.290000e+002 7.500000e+001 0.000000e+000
      vertex   -2.320000e+002 8.000000e+001 0.000000e+000
    endloop
  endfacet
  facet normal 0.000000e+000 -0.000000e+000 -1.000000e+000
    outer loop
      vertex   -2.320000e+002 8.000000e+001 0.000000e+000
      vertex   -2.290000e+002 7.500000e+001 0.000000e+000
      vertex   -2.320000e+002 7.000000e+001 0.000000e+000
    endloop
  endfacet
  facet normal 0.000000e+000 0.000000e+000 -1.000000e+000
    outer loop
      vertex   -2.320000e+002 7.000000e+001 0.000000e+000
      vertex   -2.290000e+002 7.500000e+001 0.000000e+000
      vertex   -2.290000e+002 7.000000e+001 0.000000e+000
    endloop
  endfacet
  facet normal 0.000000e+000 0.000000e+000 -1.000000e+000
    outer loop
      vertex   -2.265000e+002 1.380000e+002 0.000000e+000
      vertex   -2.265000e+002 1.690000e+002 0.000000e+000
      vertex   -2.075000e+002 1.500000e+002 0.000000e+000
    endloop
  endfacet
  facet normal 0.000000e+000 0.000000e+000 -1.000000e+000
    outer loop
      vertex   -2.075000e+002 1.500000e+002 0.000000e+000
      vertex   -2.265000e+002 1.690000e+002 0.000000e+000
      vertex   -1.761250e+002 1.690000e+002 0.000000e+000
    endloop
  endfacet
  facet normal 0.000000e+000 0.000000e+000 -1.000000e+000
    outer loop
      vertex   -1.530000e+002 1.500000e+002 0.000000e+000
      vertex   -1.761250e+002 1.690000e+002 0.000000e+000
      vertex   -1.257500e+002 1.690000e+002 0.000000e+000
    endloop
  endfacet
  facet normal 0.000000e+000 0.000000e+000 -1.000000e+000
    outer loop
      vertex   -9.850000e+001 1.500000e+002 0.000000e+000
      vertex   -1.257500e+002 1.690000e+002 0.000000e+000
      vertex   -7.537500e+001 1.690000e+002 0.000000e+000
    endloop
  endfacet
  facet normal 0.000000e+000 0.000000e+000 -1.000000e+000
    outer loop
      vertex   -4.400000e+001 1.500000e+002 0.000000e+000
      vertex   -7.537500e+001 1.690000e+002 0.000000e+000
      vertex   -2.500000e+001 1.690000e+002 0.000000e+000
    endloop
  endfacet
  facet normal 0.000000e+000 0.000000e+000 -1.000000e+000
    outer loop
      vertex   -2.500000e+001 1.380000e+002 0.000000e+000
      vertex   -4.400000e+001 1.500000e+002 0.000000e+000
      vertex   -2.500000e+001 1.690000e+002 0.000000e+000
    endloop
  endfacet
  facet normal -0.000000e+000 -0.000000e+000 -1.000000e+000
    outer loop
      vertex   -2.500000e+001 1.380000e+002 0.000000e+000
      vertex   -2.500000e+001 1.330000e+002 0.000000e+000
      vertex   -4.400000e+001 1.500000e+002 0.000000e+000
    endloop
  endfacet
  facet normal -0.000000e+000 -0.000000e+000 -1.000000e+000
    outer loop
      vertex   -2.500000e+001 1.380000e+002 0.000000e+000
      vertex   -2.250000e+001 1.330000e+002 0.000000e+000
      vertex   -2.500000e+001 1.330000e+002 0.000000e+000
    endloop
  endfacet
  facet normal 0.000000e+000 -0.000000e+000 -1.000000e+000
    outer loop
      vertex   -2.500000e+001 1.380000e+002 0.000000e+000
      vertex   -1.950000e+001 1.380000e+002 0.000000e+000
      vertex   -2.250000e+001 1.330000e+002 0.000000e+000
    endloop
  endfacet
  facet normal 0.000000e+000 0.000000e+000 -1.000000e+000
    outer loop
      vertex   -2.250000e+001 1.330000e+002 0.000000e+000
      vertex   -1.950000e+001 1.380000e+002 0.000000e+000
      vertex   -1.950000e+001 1.280000e+002 0.000000e+000
    endloop
  endfacet
  facet normal 0.000000e+000 0.000000e+000 -1.000000e+000
    outer loop
      vertex   -2.250000e+001 1.280000e+002 0.000000e+000
      vertex   -2.250000e+001 1.330000e+002 0.000000e+000
      vertex   -1.950000e+001 1.280000e+002 0.000000e+000
    endloop
  endfacet
  facet normal 0.000000e+000 0.000000e+000 -1.000000e+000
    outer loop
      vertex   -2.075000e+002 1.500000e+002 0.000000e+000
      vertex   -1.761250e+002 1.690000e+002 0.000000e+000
      vertex   -1.530000e+002 1.500000e+002 0.000000e+000
    endloop
  endfacet
  facet normal 0.000000e+000 0.000000e+000 -1.000000e+000
    outer loop
      vertex   -1.530000e+002 1.500000e+002 0.000000e+000
      vertex   -1.257500e+002 1.690000e+002 0.000000e+000
      vertex   -9.850000e+001 1.500000e+002 0.000000e+000
    endloop
  endfacet
  facet normal 0.000000e+000 0.000000e+000 -1.000000e+000
    outer loop
      vertex   -9.850000e+001 1.500000e+002 0.000000e+000
      vertex   -7.537500e+001 1.690000e+002 0.000000e+000
      vertex   -4.400000e+001 1.500000e+002 0.000000e+000
    endloop
  endfacet
  facet normal 0.000000e+000 -0.000000e+000 -1.000000e+000
    outer loop
      vertex   -4.400000e+001 1.500000e+002 0.000000e+000
      vertex   -2.500000e+001 1.330000e+002 0.000000e+000
      vertex   -4.400000e+001 9.450000e+001 0.000000e+000
    endloop
  endfacet
  facet normal 0.000000e+000 0.000000e+000 -1.000000e+000
    outer loop
      vertex   -4.400000e+001 9.450000e+001 0.000000e+000
      vertex   -2.500000e+001 1.330000e+002 0.000000e+000
      vertex   -2.500000e+001 8.000000e+001 0.000000e+000
    endloop
  endfacet
  facet normal 0.000000e+000 0.000000e+000 -1.000000e+000
    outer loop
      vertex   -2.500000e+001 7.500000e+001 0.000000e+000
      vertex   -2.500000e+001 8.000000e+001 0.000000e+000
      vertex   -2.250000e+001 7.500000e+001 0.000000e+000
    endloop
  endfacet
  facet normal 0.000000e+000 0.000000e+000 -1.000000e+000
    outer loop
      vertex   -2.500000e+001 7.500000e+001 0.000000e+000
      vertex   -4.400000e+001 9.450000e+001 0.000000e+000
      vertex   -2.500000e+001 8.000000e+001 0.000000e+000
    endloop
  endfacet
  facet normal -0.000000e+000 0.000000e+000 -1.000000e+000
    outer loop
      vertex   -2.500000e+001 7.500000e+001 0.000000e+000
      vertex   -4.400000e+001 3.900000e+001 0.000000e+000
      vertex   -4.400000e+001 9.450000e+001 0.000000e+000
    endloop
  endfacet
  facet normal -0.000000e+000 -0.000000e+000 -1.000000e+000
    outer loop
      vertex   -2.500000e+001 7.500000e+001 0.000000e+000
      vertex   -2.500000e+001 3.900000e+001 0.000000e+000
      vertex   -4.400000e+001 3.900000e+001 0.000000e+000
    endloop
  endfacet
  facet normal 0.000000e+000 -0.000000e+000 -1.000000e+000
    outer loop
      vertex   -2.500000e+001 8.000000e+001 0.000000e+000
      vertex   -1.950000e+001 8.000000e+001 0.000000e+000
      vertex   -2.250000e+001 7.500000e+001 0.000000e+000
    endloop
  endfacet
  facet normal 0.000000e+000 0.000000e+000 -1.000000e+000
    outer loop
      vertex   -2.250000e+001 7.500000e+001 0.000000e+000
      vertex   -1.950000e+001 8.000000e+001 0.000000e+000
      vertex   -1.950000e+001 7.000000e+001 0.000000e+000
    endloop
  endfacet
  facet normal 0.000000e+000 0.000000e+000 -1.000000e+000
    outer loop
      vertex   -2.250000e+001 7.000000e+001 0.000000e+000
      vertex   -2.250000e+001 7.500000e+001 0.000000e+000
      vertex   -1.950000e+001 7.000000e+001 0.000000e+000
    endloop
  endfacet
endsolid
