solid ascii
  facet normal 0.000000e+000 0.000000e+000 1.000000e+000
    outer loop
      vertex   -5.150000e+001 6.750000e+001 7.000000e+000
      vertex   -9.400000e+001 6.900000e+001 7.000000e+000
      vertex   -9.250000e+001 6.750000e+001 7.000000e+000
    endloop
  endfacet
  facet normal 0.000000e+000 -0.000000e+000 1.000000e+000
    outer loop
      vertex   -5.150000e+001 6.750000e+001 7.000000e+000
      vertex   -5.000000e+001 6.900000e+001 7.000000e+000
      vertex   -9.400000e+001 6.900000e+001 7.000000e+000
    endloop
  endfacet
  facet normal -0.000000e+000 0.000000e+000 1.000000e+000
    outer loop
      vertex   -5.150000e+001 6.750000e+001 7.000000e+000
      vertex   -5.000000e+001 2.500000e+001 7.000000e+000
      vertex   -5.000000e+001 6.900000e+001 7.000000e+000
    endloop
  endfacet
  facet normal 0.000000e+000 0.000000e+000 1.000000e+000
    outer loop
      vertex   -5.150000e+001 6.750000e+001 7.000000e+000
      vertex   -5.150000e+001 2.650000e+001 7.000000e+000
      vertex   -5.000000e+001 2.500000e+001 7.000000e+000
    endloop
  endfacet
  facet normal 0.000000e+000 0.000000e+000 1.000000e+000
    outer loop
      vertex   -5.000000e+001 2.500000e+001 7.000000e+000
      vertex   -5.150000e+001 2.650000e+001 7.000000e+000
      vertex   -9.250000e+001 2.650000e+001 7.000000e+000
    endloop
  endfacet
  facet normal 0.000000e+000 0.000000e+000 1.000000e+000
    outer loop
      vertex   -9.400000e+001 2.500000e+001 7.000000e+000
      vertex   -9.250000e+001 2.650000e+001 7.000000e+000
      vertex   -9.250000e+001 6.750000e+001 7.000000e+000
    endloop
  endfacet
  facet normal -0.000000e+000 0.000000e+000 1.000000e+000
    outer loop
      vertex   -9.400000e+001 6.900000e+001 7.000000e+000
      vertex   -9.400000e+001 2.500000e+001 7.000000e+000
      vertex   -9.250000e+001 6.750000e+001 7.000000e+000
    endloop
  endfacet
  facet normal 0.000000e+000 0.000000e+000 1.000000e+000
    outer loop
      vertex   -5.000000e+001 2.500000e+001 7.000000e+000
      vertex   -9.250000e+001 2.650000e+001 7.000000e+000
      vertex   -9.400000e+001 2.500000e+001 7.000000e+000
    endloop
  endfacet
  facet normal -1.000000e+000 -0.000000e+000 -0.000000e+000
    outer loop
      vertex   -5.150000e+001 6.750000e+001 7.000000e+000
      vertex   -5.150000e+001 6.750000e+001 0.000000e+000
      vertex   -5.150000e+001 2.650000e+001 7.000000e+000
    endloop
  endfacet
  facet normal -1.000000e+000 -0.000000e+000 -0.000000e+000
    outer loop
      vertex   -5.150000e+001 2.650000e+001 7.000000e+000
      vertex   -5.150000e+001 6.750000e+001 0.000000e+000
      vertex   -5.150000e+001 2.650000e+001 0.000000e+000
    endloop
  endfacet
  facet normal 0.000000e+000 -1.000000e+000 0.000000e+000
    outer loop
      vertex   -9.250000e+001 6.750000e+001 7.000000e+000
      vertex   -9.250000e+001 6.750000e+001 0.000000e+000
      vertex   -5.150000e+001 6.750000e+001 7.000000e+000
    endloop
  endfacet
  facet normal 0.000000e+000 -1.000000e+000 -0.000000e+000
    outer loop
      vertex   -5.150000e+001 6.750000e+001 7.000000e+000
      vertex   -9.250000e+001 6.750000e+001 0.000000e+000
      vertex   -5.150000e+001 6.750000e+001 0.000000e+000
    endloop
  endfacet
  facet normal 0.000000e+000 -1.000000e+000 0.000000e+000
    outer loop
      vertex   -9.400000e+001 2.500000e+001 7.000000e+000
      vertex   -9.400000e+001 2.500000e+001 0.000000e+000
      vertex   -5.000000e+001 2.500000e+001 7.000000e+000
    endloop
  endfacet
  facet normal 0.000000e+000 -1.000000e+000 -0.000000e+000
    outer loop
      vertex   -5.000000e+001 2.500000e+001 7.000000e+000
      vertex   -9.400000e+001 2.500000e+001 0.000000e+000
      vertex   -5.000000e+001 2.500000e+001 0.000000e+000
    endloop
  endfacet
  facet normal -1.000000e+000 -0.000000e+000 -0.000000e+000
    outer loop
      vertex   -9.400000e+001 6.900000e+001 7.000000e+000
      vertex   -9.400000e+001 6.900000e+001 0.000000e+000
      vertex   -9.400000e+001 2.500000e+001 7.000000e+000
    endloop
  endfacet
  facet normal -1.000000e+000 -0.000000e+000 -0.000000e+000
    outer loop
      vertex   -9.400000e+001 2.500000e+001 7.000000e+000
      vertex   -9.400000e+001 6.900000e+001 0.000000e+000
      vertex   -9.400000e+001 2.500000e+001 0.000000e+000
    endloop
  endfacet
  facet normal 0.000000e+000 1.000000e+000 0.000000e+000
    outer loop
      vertex   -5.150000e+001 2.650000e+001 7.000000e+000
      vertex   -5.150000e+001 2.650000e+001 0.000000e+000
      vertex   -9.250000e+001 2.650000e+001 7.000000e+000
    endloop
  endfacet
  facet normal 0.000000e+000 1.000000e+000 0.000000e+000
    outer loop
      vertex   -9.250000e+001 2.650000e+001 7.000000e+000
      vertex   -5.150000e+001 2.650000e+001 0.000000e+000
      vertex   -9.250000e+001 2.650000e+001 0.000000e+000
    endloop
  endfacet
  facet normal 1.000000e+000 -0.000000e+000 0.000000e+000
    outer loop
      vertex   -9.250000e+001 2.650000e+001 7.000000e+000
      vertex   -9.250000e+001 2.650000e+001 0.000000e+000
      vertex   -9.250000e+001 6.750000e+001 7.000000e+000
    endloop
  endfacet
  facet normal 1.000000e+000 -0.000000e+000 0.000000e+000
    outer loop
      vertex   -9.250000e+001 6.750000e+001 7.000000e+000
      vertex   -9.250000e+001 2.650000e+001 0.000000e+000
      vertex   -9.250000e+001 6.750000e+001 0.000000e+000
    endloop
  endfacet
  facet normal 0.000000e+000 -0.000000e+000 -1.000000e+000
    outer loop
      vertex   -9.250000e+001 6.750000e+001 0.000000e+000
      vertex   -5.000000e+001 6.900000e+001 0.000000e+000
      vertex   -5.150000e+001 6.750000e+001 0.000000e+000
    endloop
  endfacet
  facet normal 0.000000e+000 0.000000e+000 -1.000000e+000
    outer loop
      vertex   -9.250000e+001 6.750000e+001 0.000000e+000
      vertex   -9.400000e+001 6.900000e+001 0.000000e+000
      vertex   -5.000000e+001 6.900000e+001 0.000000e+000
    endloop
  endfacet
  facet normal -0.000000e+000 0.000000e+000 -1.000000e+000
    outer loop
      vertex   -9.250000e+001 6.750000e+001 0.000000e+000
      vertex   -9.400000e+001 2.500000e+001 0.000000e+000
      vertex   -9.400000e+001 6.900000e+001 0.000000e+000
    endloop
  endfacet
  facet normal 0.000000e+000 -0.000000e+000 -1.000000e+000
    outer loop
      vertex   -9.250000e+001 6.750000e+001 0.000000e+000
      vertex   -9.250000e+001 2.650000e+001 0.000000e+000
      vertex   -9.400000e+001 2.500000e+001 0.000000e+000
    endloop
  endfacet
  facet normal 0.000000e+000 0.000000e+000 -1.000000e+000
    outer loop
      vertex   -9.400000e+001 2.500000e+001 0.000000e+000
      vertex   -9.250000e+001 2.650000e+001 0.000000e+000
      vertex   -5.150000e+001 2.650000e+001 0.000000e+000
    endloop
  endfacet
  facet normal 0.000000e+000 0.000000e+000 -1.000000e+000
    outer loop
      vertex   -5.000000e+001 2.500000e+001 0.000000e+000
      vertex   -5.150000e+001 2.650000e+001 0.000000e+000
      vertex   -5.150000e+001 6.750000e+001 0.000000e+000
    endloop
  endfacet
  facet normal -0.000000e+000 -0.000000e+000 -1.000000e+000
    outer loop
      vertex   -5.000000e+001 6.900000e+001 0.000000e+000
      vertex   -5.000000e+001 2.500000e+001 0.000000e+000
      vertex   -5.150000e+001 6.750000e+001 0.000000e+000
    endloop
  endfacet
  facet normal 0.000000e+000 0.000000e+000 -1.000000e+000
    outer loop
      vertex   -9.400000e+001 2.500000e+001 0.000000e+000
      vertex   -5.150000e+001 2.650000e+001 0.000000e+000
      vertex   -5.000000e+001 2.500000e+001 0.000000e+000
    endloop
  endfacet
  facet normal 0.000000e+000 1.000000e+000 0.000000e+000
    outer loop
      vertex   -5.000000e+001 6.900000e+001 7.000000e+000
      vertex   -5.000000e+001 6.900000e+001 0.000000e+000
      vertex   -9.400000e+001 6.900000e+001 7.000000e+000
    endloop
  endfacet
  facet normal 0.000000e+000 1.000000e+000 0.000000e+000
    outer loop
      vertex   -9.400000e+001 6.900000e+001 7.000000e+000
      vertex   -5.000000e+001 6.900000e+001 0.000000e+000
      vertex   -9.400000e+001 6.900000e+001 0.000000e+000
    endloop
  endfacet
  facet normal 1.000000e+000 -0.000000e+000 0.000000e+000
    outer loop
      vertex   -5.000000e+001 2.500000e+001 7.000000e+000
      vertex   -5.000000e+001 2.500000e+001 0.000000e+000
      vertex   -5.000000e+001 6.900000e+001 7.000000e+000
    endloop
  endfacet
  facet normal 1.000000e+000 -0.000000e+000 0.000000e+000
    outer loop
      vertex   -5.000000e+001 6.900000e+001 7.000000e+000
      vertex   -5.000000e+001 2.500000e+001 0.000000e+000
      vertex   -5.000000e+001 6.900000e+001 0.000000e+000
    endloop
  endfacet
endsolid
