solid ascii
  facet normal 0.000000e+000 1.000000e+000 0.000000e+000
    outer loop
      vertex   -4.750000e+001 7.500000e+000 4.000000e+000
      vertex   -4.750000e+001 7.500000e+000 0.000000e+000
      vertex   -5.250000e+001 7.500000e+000 4.000000e+000
    endloop
  endfacet
  facet normal 0.000000e+000 1.000000e+000 0.000000e+000
    outer loop
      vertex   -5.250000e+001 7.500000e+000 4.000000e+000
      vertex   -4.750000e+001 7.500000e+000 0.000000e+000
      vertex   -5.250000e+001 7.500000e+000 0.000000e+000
    endloop
  endfacet
  facet normal 1.000000e+000 -0.000000e+000 0.000000e+000
    outer loop
      vertex   -5.250000e+001 7.500000e+000 4.000000e+000
      vertex   -5.250000e+001 7.500000e+000 0.000000e+000
      vertex   -5.250000e+001 1.250000e+001 4.000000e+000
    endloop
  endfacet
  facet normal 1.000000e+000 -0.000000e+000 0.000000e+000
    outer loop
      vertex   -5.250000e+001 1.250000e+001 4.000000e+000
      vertex   -5.250000e+001 7.500000e+000 0.000000e+000
      vertex   -5.250000e+001 1.250000e+001 0.000000e+000
    endloop
  endfacet
  facet normal 0.000000e+000 -1.000000e+000 0.000000e+000
    outer loop
      vertex   -5.250000e+001 1.250000e+001 4.000000e+000
      vertex   -5.250000e+001 1.250000e+001 0.000000e+000
      vertex   -4.750000e+001 1.250000e+001 4.000000e+000
    endloop
  endfacet
  facet normal 0.000000e+000 -1.000000e+000 -0.000000e+000
    outer loop
      vertex   -4.750000e+001 1.250000e+001 4.000000e+000
      vertex   -5.250000e+001 1.250000e+001 0.000000e+000
      vertex   -4.750000e+001 1.250000e+001 0.000000e+000
    endloop
  endfacet
  facet normal -1.000000e+000 -0.000000e+000 -0.000000e+000
    outer loop
      vertex   -4.750000e+001 1.250000e+001 4.000000e+000
      vertex   -4.750000e+001 1.250000e+001 0.000000e+000
      vertex   -4.750000e+001 7.500000e+000 4.000000e+000
    endloop
  endfacet
  facet normal -1.000000e+000 -0.000000e+000 -0.000000e+000
    outer loop
      vertex   -4.750000e+001 7.500000e+000 4.000000e+000
      vertex   -4.750000e+001 1.250000e+001 0.000000e+000
      vertex   -4.750000e+001 7.500000e+000 0.000000e+000
    endloop
  endfacet
  facet normal 0.000000e+000 0.000000e+000 1.000000e+000
    outer loop
      vertex   -4.750000e+001 1.250000e+001 4.000000e+000
      vertex   -5.500000e+001 1.500000e+001 4.000000e+000
      vertex   -5.250000e+001 1.250000e+001 4.000000e+000
    endloop
  endfacet
  facet normal 0.000000e+000 -0.000000e+000 1.000000e+000
    outer loop
      vertex   -4.750000e+001 1.250000e+001 4.000000e+000
      vertex   -4.500000e+001 1.500000e+001 4.000000e+000
      vertex   -5.500000e+001 1.500000e+001 4.000000e+000
    endloop
  endfacet
  facet normal -0.000000e+000 0.000000e+000 1.000000e+000
    outer loop
      vertex   -4.750000e+001 1.250000e+001 4.000000e+000
      vertex   -4.500000e+001 5.000000e+000 4.000000e+000
      vertex   -4.500000e+001 1.500000e+001 4.000000e+000
    endloop
  endfacet
  facet normal 0.000000e+000 0.000000e+000 1.000000e+000
    outer loop
      vertex   -4.750000e+001 1.250000e+001 4.000000e+000
      vertex   -4.750000e+001 7.500000e+000 4.000000e+000
      vertex   -4.500000e+001 5.000000e+000 4.000000e+000
    endloop
  endfacet
  facet normal 0.000000e+000 0.000000e+000 1.000000e+000
    outer loop
      vertex   -4.500000e+001 5.000000e+000 4.000000e+000
      vertex   -4.750000e+001 7.500000e+000 4.000000e+000
      vertex   -5.250000e+001 7.500000e+000 4.000000e+000
    endloop
  endfacet
  facet normal 0.000000e+000 0.000000e+000 1.000000e+000
    outer loop
      vertex   -5.500000e+001 5.000000e+000 4.000000e+000
      vertex   -5.250000e+001 7.500000e+000 4.000000e+000
      vertex   -5.250000e+001 1.250000e+001 4.000000e+000
    endloop
  endfacet
  facet normal -0.000000e+000 0.000000e+000 1.000000e+000
    outer loop
      vertex   -5.500000e+001 1.500000e+001 4.000000e+000
      vertex   -5.500000e+001 5.000000e+000 4.000000e+000
      vertex   -5.250000e+001 1.250000e+001 4.000000e+000
    endloop
  endfacet
  facet normal 0.000000e+000 0.000000e+000 1.000000e+000
    outer loop
      vertex   -4.500000e+001 5.000000e+000 4.000000e+000
      vertex   -5.250000e+001 7.500000e+000 4.000000e+000
      vertex   -5.500000e+001 5.000000e+000 4.000000e+000
    endloop
  endfacet
  facet normal 1.000000e+000 0.000000e+000 -1.421085e-015
    outer loop
      vertex   -5.500000e+001 1.500000e+001 4.000000e+000
      vertex   -5.500000e+001 1.500000e+001 1.400000e+001
      vertex   -5.500000e+001 5.000000e+000 4.000000e+000
    endloop
  endfacet
  facet normal 1.000000e+000 0.000000e+000 -1.421085e-015
    outer loop
      vertex   -5.500000e+001 5.000000e+000 4.000000e+000
      vertex   -5.500000e+001 1.500000e+001 1.400000e+001
      vertex   -5.500000e+001 5.000000e+000 1.400000e+001
    endloop
  endfacet
  facet normal 0.000000e+000 1.000000e+000 0.000000e+000
    outer loop
      vertex   -4.750000e+001 -7.250000e+001 4.000000e+000
      vertex   -4.750000e+001 -7.250000e+001 0.000000e+000
      vertex   -5.250000e+001 -7.250000e+001 4.000000e+000
    endloop
  endfacet
  facet normal 0.000000e+000 1.000000e+000 0.000000e+000
    outer loop
      vertex   -5.250000e+001 -7.250000e+001 4.000000e+000
      vertex   -4.750000e+001 -7.250000e+001 0.000000e+000
      vertex   -5.250000e+001 -7.250000e+001 0.000000e+000
    endloop
  endfacet
  facet normal 1.000000e+000 -0.000000e+000 0.000000e+000
    outer loop
      vertex   -5.250000e+001 -7.250000e+001 4.000000e+000
      vertex   -5.250000e+001 -7.250000e+001 0.000000e+000
      vertex   -5.250000e+001 -6.750000e+001 4.000000e+000
    endloop
  endfacet
  facet normal 1.000000e+000 -0.000000e+000 0.000000e+000
    outer loop
      vertex   -5.250000e+001 -6.750000e+001 4.000000e+000
      vertex   -5.250000e+001 -7.250000e+001 0.000000e+000
      vertex   -5.250000e+001 -6.750000e+001 0.000000e+000
    endloop
  endfacet
  facet normal 0.000000e+000 -1.000000e+000 0.000000e+000
    outer loop
      vertex   -5.250000e+001 -6.750000e+001 4.000000e+000
      vertex   -5.250000e+001 -6.750000e+001 0.000000e+000
      vertex   -4.750000e+001 -6.750000e+001 4.000000e+000
    endloop
  endfacet
  facet normal 0.000000e+000 -1.000000e+000 -0.000000e+000
    outer loop
      vertex   -4.750000e+001 -6.750000e+001 4.000000e+000
      vertex   -5.250000e+001 -6.750000e+001 0.000000e+000
      vertex   -4.750000e+001 -6.750000e+001 0.000000e+000
    endloop
  endfacet
  facet normal -1.000000e+000 -0.000000e+000 -0.000000e+000
    outer loop
      vertex   -4.750000e+001 -6.750000e+001 4.000000e+000
      vertex   -4.750000e+001 -6.750000e+001 0.000000e+000
      vertex   -4.750000e+001 -7.250000e+001 4.000000e+000
    endloop
  endfacet
  facet normal -1.000000e+000 -0.000000e+000 -0.000000e+000
    outer loop
      vertex   -4.750000e+001 -7.250000e+001 4.000000e+000
      vertex   -4.750000e+001 -6.750000e+001 0.000000e+000
      vertex   -4.750000e+001 -7.250000e+001 0.000000e+000
    endloop
  endfacet
  facet normal 0.000000e+000 0.000000e+000 1.000000e+000
    outer loop
      vertex   -4.750000e+001 -6.750000e+001 4.000000e+000
      vertex   -5.500000e+001 -6.500000e+001 4.000000e+000
      vertex   -5.250000e+001 -6.750000e+001 4.000000e+000
    endloop
  endfacet
  facet normal 0.000000e+000 -0.000000e+000 1.000000e+000
    outer loop
      vertex   -4.750000e+001 -6.750000e+001 4.000000e+000
      vertex   -4.500000e+001 -6.500000e+001 4.000000e+000
      vertex   -5.500000e+001 -6.500000e+001 4.000000e+000
    endloop
  endfacet
  facet normal -0.000000e+000 0.000000e+000 1.000000e+000
    outer loop
      vertex   -4.750000e+001 -6.750000e+001 4.000000e+000
      vertex   -4.500000e+001 -7.500000e+001 4.000000e+000
      vertex   -4.500000e+001 -6.500000e+001 4.000000e+000
    endloop
  endfacet
  facet normal 0.000000e+000 0.000000e+000 1.000000e+000
    outer loop
      vertex   -4.750000e+001 -6.750000e+001 4.000000e+000
      vertex   -4.750000e+001 -7.250000e+001 4.000000e+000
      vertex   -4.500000e+001 -7.500000e+001 4.000000e+000
    endloop
  endfacet
  facet normal 0.000000e+000 0.000000e+000 1.000000e+000
    outer loop
      vertex   -4.500000e+001 -7.500000e+001 4.000000e+000
      vertex   -4.750000e+001 -7.250000e+001 4.000000e+000
      vertex   -5.250000e+001 -7.250000e+001 4.000000e+000
    endloop
  endfacet
  facet normal 0.000000e+000 0.000000e+000 1.000000e+000
    outer loop
      vertex   -5.500000e+001 -7.500000e+001 4.000000e+000
      vertex   -5.250000e+001 -7.250000e+001 4.000000e+000
      vertex   -5.250000e+001 -6.750000e+001 4.000000e+000
    endloop
  endfacet
  facet normal -0.000000e+000 0.000000e+000 1.000000e+000
    outer loop
      vertex   -5.500000e+001 -6.500000e+001 4.000000e+000
      vertex   -5.500000e+001 -7.500000e+001 4.000000e+000
      vertex   -5.250000e+001 -6.750000e+001 4.000000e+000
    endloop
  endfacet
  facet normal 0.000000e+000 0.000000e+000 1.000000e+000
    outer loop
      vertex   -4.500000e+001 -7.500000e+001 4.000000e+000
      vertex   -5.250000e+001 -7.250000e+001 4.000000e+000
      vertex   -5.500000e+001 -7.500000e+001 4.000000e+000
    endloop
  endfacet
  facet normal 1.000000e+000 0.000000e+000 -1.421085e-015
    outer loop
      vertex   -5.500000e+001 -6.500000e+001 4.000000e+000
      vertex   -5.500000e+001 -6.500000e+001 1.400000e+001
      vertex   -5.500000e+001 -7.500000e+001 4.000000e+000
    endloop
  endfacet
  facet normal 1.000000e+000 0.000000e+000 -1.421085e-015
    outer loop
      vertex   -5.500000e+001 -7.500000e+001 4.000000e+000
      vertex   -5.500000e+001 -6.500000e+001 1.400000e+001
      vertex   -5.500000e+001 -7.500000e+001 1.400000e+001
    endloop
  endfacet
  facet normal -1.000000e+000 0.000000e+000 0.000000e+000
    outer loop
      vertex   -6.000000e+001 -8.000000e+001 0.000000e+000
      vertex   -6.000000e+001 -8.000000e+001 4.000000e+000
      vertex   -6.000000e+001 -6.000000e+001 0.000000e+000
    endloop
  endfacet
  facet normal -1.000000e+000 0.000000e+000 0.000000e+000
    outer loop
      vertex   -6.000000e+001 -6.000000e+001 0.000000e+000
      vertex   -6.000000e+001 -8.000000e+001 4.000000e+000
      vertex   -6.000000e+001 -6.000000e+001 4.000000e+000
    endloop
  endfacet
  facet normal -0.000000e+000 -1.000000e+000 0.000000e+000
    outer loop
      vertex   -4.000000e+001 -8.000000e+001 0.000000e+000
      vertex   -4.000000e+001 -8.000000e+001 4.000000e+000
      vertex   -6.000000e+001 -8.000000e+001 0.000000e+000
    endloop
  endfacet
  facet normal 0.000000e+000 -1.000000e+000 0.000000e+000
    outer loop
      vertex   -6.000000e+001 -8.000000e+001 0.000000e+000
      vertex   -4.000000e+001 -8.000000e+001 4.000000e+000
      vertex   -6.000000e+001 -8.000000e+001 4.000000e+000
    endloop
  endfacet
  facet normal 1.000000e+000 0.000000e+000 -0.000000e+000
    outer loop
      vertex   -4.000000e+001 -6.000000e+001 0.000000e+000
      vertex   -4.000000e+001 -6.000000e+001 4.000000e+000
      vertex   -4.000000e+001 -8.000000e+001 0.000000e+000
    endloop
  endfacet
  facet normal 1.000000e+000 0.000000e+000 -0.000000e+000
    outer loop
      vertex   -4.000000e+001 -8.000000e+001 0.000000e+000
      vertex   -4.000000e+001 -6.000000e+001 4.000000e+000
      vertex   -4.000000e+001 -8.000000e+001 4.000000e+000
    endloop
  endfacet
  facet normal 0.000000e+000 -1.000000e+000 7.105427e-015
    outer loop
      vertex   -4.500000e+001 -6.500000e+001 4.000000e+000
      vertex   -4.500000e+001 -6.500000e+001 1.400000e+001
      vertex   -5.500000e+001 -6.500000e+001 4.000000e+000
    endloop
  endfacet
  facet normal 0.000000e+000 -1.000000e+000 7.105427e-015
    outer loop
      vertex   -5.500000e+001 -6.500000e+001 4.000000e+000
      vertex   -4.500000e+001 -6.500000e+001 1.400000e+001
      vertex   -5.500000e+001 -6.500000e+001 1.400000e+001
    endloop
  endfacet
  facet normal 0.000000e+000 1.000000e+000 -7.105427e-015
    outer loop
      vertex   -5.500000e+001 -7.500000e+001 4.000000e+000
      vertex   -5.500000e+001 -7.500000e+001 1.400000e+001
      vertex   -4.500000e+001 -7.500000e+001 4.000000e+000
    endloop
  endfacet
  facet normal 0.000000e+000 1.000000e+000 -7.105427e-015
    outer loop
      vertex   -4.500000e+001 -7.500000e+001 4.000000e+000
      vertex   -5.500000e+001 -7.500000e+001 1.400000e+001
      vertex   -4.500000e+001 -7.500000e+001 1.400000e+001
    endloop
  endfacet
  facet normal -1.000000e+000 0.000000e+000 0.000000e+000
    outer loop
      vertex   -4.500000e+001 -7.500000e+001 4.000000e+000
      vertex   -4.500000e+001 -7.500000e+001 1.400000e+001
      vertex   -4.500000e+001 -6.500000e+001 4.000000e+000
    endloop
  endfacet
  facet normal -1.000000e+000 0.000000e+000 0.000000e+000
    outer loop
      vertex   -4.500000e+001 -6.500000e+001 4.000000e+000
      vertex   -4.500000e+001 -7.500000e+001 1.400000e+001
      vertex   -4.500000e+001 -6.500000e+001 1.400000e+001
    endloop
  endfacet
  facet normal -0.000000e+000 -0.000000e+000 1.000000e+000
    outer loop
      vertex   -5.500000e+001 -7.500000e+001 1.400000e+001
      vertex   -4.300000e+001 -7.700000e+001 1.400000e+001
      vertex   -4.500000e+001 -7.500000e+001 1.400000e+001
    endloop
  endfacet
  facet normal -0.000000e+000 0.000000e+000 1.000000e+000
    outer loop
      vertex   -5.500000e+001 -7.500000e+001 1.400000e+001
      vertex   -5.700000e+001 -7.700000e+001 1.400000e+001
      vertex   -4.300000e+001 -7.700000e+001 1.400000e+001
    endloop
  endfacet
  facet normal 0.000000e+000 0.000000e+000 1.000000e+000
    outer loop
      vertex   -5.500000e+001 -7.500000e+001 1.400000e+001
      vertex   -5.700000e+001 -6.300000e+001 1.400000e+001
      vertex   -5.700000e+001 -7.700000e+001 1.400000e+001
    endloop
  endfacet
  facet normal 0.000000e+000 -0.000000e+000 1.000000e+000
    outer loop
      vertex   -5.500000e+001 -7.500000e+001 1.400000e+001
      vertex   -5.500000e+001 -6.500000e+001 1.400000e+001
      vertex   -5.700000e+001 -6.300000e+001 1.400000e+001
    endloop
  endfacet
  facet normal -0.000000e+000 0.000000e+000 1.000000e+000
    outer loop
      vertex   -5.700000e+001 -6.300000e+001 1.400000e+001
      vertex   -5.500000e+001 -6.500000e+001 1.400000e+001
      vertex   -4.500000e+001 -6.500000e+001 1.400000e+001
    endloop
  endfacet
  facet normal 0.000000e+000 0.000000e+000 1.000000e+000
    outer loop
      vertex   -4.300000e+001 -6.300000e+001 1.400000e+001
      vertex   -4.500000e+001 -6.500000e+001 1.400000e+001
      vertex   -4.500000e+001 -7.500000e+001 1.400000e+001
    endloop
  endfacet
  facet normal 0.000000e+000 -0.000000e+000 1.000000e+000
    outer loop
      vertex   -4.300000e+001 -7.700000e+001 1.400000e+001
      vertex   -4.300000e+001 -6.300000e+001 1.400000e+001
      vertex   -4.500000e+001 -7.500000e+001 1.400000e+001
    endloop
  endfacet
  facet normal -0.000000e+000 0.000000e+000 1.000000e+000
    outer loop
      vertex   -5.700000e+001 -6.300000e+001 1.400000e+001
      vertex   -4.500000e+001 -6.500000e+001 1.400000e+001
      vertex   -4.300000e+001 -6.300000e+001 1.400000e+001
    endloop
  endfacet
  facet normal -0.000000e+000 1.000000e+000 0.000000e+000
    outer loop
      vertex   -5.700000e+001 -6.300000e+001 4.000000e+000
      vertex   -5.700000e+001 -6.300000e+001 1.400000e+001
      vertex   -4.300000e+001 -6.300000e+001 4.000000e+000
    endloop
  endfacet
  facet normal 0.000000e+000 1.000000e+000 -0.000000e+000
    outer loop
      vertex   -4.300000e+001 -6.300000e+001 4.000000e+000
      vertex   -5.700000e+001 -6.300000e+001 1.400000e+001
      vertex   -4.300000e+001 -6.300000e+001 1.400000e+001
    endloop
  endfacet
  facet normal -1.000000e+000 0.000000e+000 0.000000e+000
    outer loop
      vertex   -5.700000e+001 -7.700000e+001 4.000000e+000
      vertex   -5.700000e+001 -7.700000e+001 1.400000e+001
      vertex   -5.700000e+001 -6.300000e+001 4.000000e+000
    endloop
  endfacet
  facet normal -1.000000e+000 0.000000e+000 0.000000e+000
    outer loop
      vertex   -5.700000e+001 -6.300000e+001 4.000000e+000
      vertex   -5.700000e+001 -7.700000e+001 1.400000e+001
      vertex   -5.700000e+001 -6.300000e+001 1.400000e+001
    endloop
  endfacet
  facet normal -0.000000e+000 -1.000000e+000 0.000000e+000
    outer loop
      vertex   -4.300000e+001 -7.700000e+001 4.000000e+000
      vertex   -4.300000e+001 -7.700000e+001 1.400000e+001
      vertex   -5.700000e+001 -7.700000e+001 4.000000e+000
    endloop
  endfacet
  facet normal 0.000000e+000 -1.000000e+000 0.000000e+000
    outer loop
      vertex   -5.700000e+001 -7.700000e+001 4.000000e+000
      vertex   -4.300000e+001 -7.700000e+001 1.400000e+001
      vertex   -5.700000e+001 -7.700000e+001 1.400000e+001
    endloop
  endfacet
  facet normal 1.000000e+000 0.000000e+000 -0.000000e+000
    outer loop
      vertex   -4.300000e+001 -6.300000e+001 4.000000e+000
      vertex   -4.300000e+001 -6.300000e+001 1.400000e+001
      vertex   -4.300000e+001 -7.700000e+001 4.000000e+000
    endloop
  endfacet
  facet normal 1.000000e+000 0.000000e+000 -0.000000e+000
    outer loop
      vertex   -4.300000e+001 -7.700000e+001 4.000000e+000
      vertex   -4.300000e+001 -6.300000e+001 1.400000e+001
      vertex   -4.300000e+001 -7.700000e+001 1.400000e+001
    endloop
  endfacet
  facet normal 4.736952e-016 -1.000000e+000 0.000000e+000
    outer loop
      vertex   -6.000000e+001 -6.000000e+001 0.000000e+000
      vertex   -6.000000e+001 -6.000000e+001 4.000000e+000
      vertex   -7.500000e+001 -6.000000e+001 5.551115e-016
    endloop
  endfacet
  facet normal 4.736952e-016 -1.000000e+000 0.000000e+000
    outer loop
      vertex   -7.500000e+001 -6.000000e+001 5.551115e-016
      vertex   -6.000000e+001 -6.000000e+001 4.000000e+000
      vertex   -7.500000e+001 -6.000000e+001 4.000000e+000
    endloop
  endfacet
  facet normal -4.736952e-016 -1.000000e+000 -0.000000e+000
    outer loop
      vertex   -4.000000e+001 -6.000000e+001 4.000000e+000
      vertex   -4.000000e+001 -6.000000e+001 0.000000e+000
      vertex   -2.500000e+001 -6.000000e+001 4.000000e+000
    endloop
  endfacet
  facet normal -4.736952e-016 -1.000000e+000 0.000000e+000
    outer loop
      vertex   -2.500000e+001 -6.000000e+001 4.000000e+000
      vertex   -4.000000e+001 -6.000000e+001 0.000000e+000
      vertex   -2.500000e+001 -6.000000e+001 5.551115e-016
    endloop
  endfacet
  facet normal -0.000000e+000 1.000000e+000 0.000000e+000
    outer loop
      vertex   -6.000000e+001 2.000000e+001 0.000000e+000
      vertex   -6.000000e+001 2.000000e+001 4.000000e+000
      vertex   -4.000000e+001 2.000000e+001 0.000000e+000
    endloop
  endfacet
  facet normal 0.000000e+000 1.000000e+000 -0.000000e+000
    outer loop
      vertex   -4.000000e+001 2.000000e+001 0.000000e+000
      vertex   -6.000000e+001 2.000000e+001 4.000000e+000
      vertex   -4.000000e+001 2.000000e+001 4.000000e+000
    endloop
  endfacet
  facet normal -1.000000e+000 0.000000e+000 0.000000e+000
    outer loop
      vertex   -6.000000e+001 0.000000e+000 0.000000e+000
      vertex   -6.000000e+001 0.000000e+000 4.000000e+000
      vertex   -6.000000e+001 2.000000e+001 0.000000e+000
    endloop
  endfacet
  facet normal -1.000000e+000 0.000000e+000 0.000000e+000
    outer loop
      vertex   -6.000000e+001 2.000000e+001 0.000000e+000
      vertex   -6.000000e+001 0.000000e+000 4.000000e+000
      vertex   -6.000000e+001 2.000000e+001 4.000000e+000
    endloop
  endfacet
  facet normal 1.000000e+000 0.000000e+000 -0.000000e+000
    outer loop
      vertex   -4.000000e+001 2.000000e+001 0.000000e+000
      vertex   -4.000000e+001 2.000000e+001 4.000000e+000
      vertex   -4.000000e+001 0.000000e+000 0.000000e+000
    endloop
  endfacet
  facet normal 1.000000e+000 0.000000e+000 -0.000000e+000
    outer loop
      vertex   -4.000000e+001 0.000000e+000 0.000000e+000
      vertex   -4.000000e+001 2.000000e+001 4.000000e+000
      vertex   -4.000000e+001 0.000000e+000 4.000000e+000
    endloop
  endfacet
  facet normal 0.000000e+000 -1.000000e+000 7.105427e-015
    outer loop
      vertex   -4.500000e+001 1.500000e+001 4.000000e+000
      vertex   -4.500000e+001 1.500000e+001 1.400000e+001
      vertex   -5.500000e+001 1.500000e+001 4.000000e+000
    endloop
  endfacet
  facet normal 0.000000e+000 -1.000000e+000 7.105427e-015
    outer loop
      vertex   -5.500000e+001 1.500000e+001 4.000000e+000
      vertex   -4.500000e+001 1.500000e+001 1.400000e+001
      vertex   -5.500000e+001 1.500000e+001 1.400000e+001
    endloop
  endfacet
  facet normal 0.000000e+000 1.000000e+000 -7.105427e-015
    outer loop
      vertex   -5.500000e+001 5.000000e+000 4.000000e+000
      vertex   -5.500000e+001 5.000000e+000 1.400000e+001
      vertex   -4.500000e+001 5.000000e+000 4.000000e+000
    endloop
  endfacet
  facet normal 0.000000e+000 1.000000e+000 -7.105427e-015
    outer loop
      vertex   -4.500000e+001 5.000000e+000 4.000000e+000
      vertex   -5.500000e+001 5.000000e+000 1.400000e+001
      vertex   -4.500000e+001 5.000000e+000 1.400000e+001
    endloop
  endfacet
  facet normal -1.000000e+000 0.000000e+000 0.000000e+000
    outer loop
      vertex   -4.500000e+001 5.000000e+000 4.000000e+000
      vertex   -4.500000e+001 5.000000e+000 1.400000e+001
      vertex   -4.500000e+001 1.500000e+001 4.000000e+000
    endloop
  endfacet
  facet normal -1.000000e+000 0.000000e+000 0.000000e+000
    outer loop
      vertex   -4.500000e+001 1.500000e+001 4.000000e+000
      vertex   -4.500000e+001 5.000000e+000 1.400000e+001
      vertex   -4.500000e+001 1.500000e+001 1.400000e+001
    endloop
  endfacet
  facet normal -0.000000e+000 -0.000000e+000 1.000000e+000
    outer loop
      vertex   -5.500000e+001 5.000000e+000 1.400000e+001
      vertex   -4.300000e+001 3.000000e+000 1.400000e+001
      vertex   -4.500000e+001 5.000000e+000 1.400000e+001
    endloop
  endfacet
  facet normal -0.000000e+000 0.000000e+000 1.000000e+000
    outer loop
      vertex   -5.500000e+001 5.000000e+000 1.400000e+001
      vertex   -5.700000e+001 3.000000e+000 1.400000e+001
      vertex   -4.300000e+001 3.000000e+000 1.400000e+001
    endloop
  endfacet
  facet normal 0.000000e+000 0.000000e+000 1.000000e+000
    outer loop
      vertex   -5.500000e+001 5.000000e+000 1.400000e+001
      vertex   -5.700000e+001 1.700000e+001 1.400000e+001
      vertex   -5.700000e+001 3.000000e+000 1.400000e+001
    endloop
  endfacet
  facet normal 0.000000e+000 -0.000000e+000 1.000000e+000
    outer loop
      vertex   -5.500000e+001 5.000000e+000 1.400000e+001
      vertex   -5.500000e+001 1.500000e+001 1.400000e+001
      vertex   -5.700000e+001 1.700000e+001 1.400000e+001
    endloop
  endfacet
  facet normal -0.000000e+000 0.000000e+000 1.000000e+000
    outer loop
      vertex   -5.700000e+001 1.700000e+001 1.400000e+001
      vertex   -5.500000e+001 1.500000e+001 1.400000e+001
      vertex   -4.500000e+001 1.500000e+001 1.400000e+001
    endloop
  endfacet
  facet normal 0.000000e+000 0.000000e+000 1.000000e+000
    outer loop
      vertex   -4.300000e+001 1.700000e+001 1.400000e+001
      vertex   -4.500000e+001 1.500000e+001 1.400000e+001
      vertex   -4.500000e+001 5.000000e+000 1.400000e+001
    endloop
  endfacet
  facet normal 0.000000e+000 -0.000000e+000 1.000000e+000
    outer loop
      vertex   -4.300000e+001 3.000000e+000 1.400000e+001
      vertex   -4.300000e+001 1.700000e+001 1.400000e+001
      vertex   -4.500000e+001 5.000000e+000 1.400000e+001
    endloop
  endfacet
  facet normal -0.000000e+000 0.000000e+000 1.000000e+000
    outer loop
      vertex   -5.700000e+001 1.700000e+001 1.400000e+001
      vertex   -4.500000e+001 1.500000e+001 1.400000e+001
      vertex   -4.300000e+001 1.700000e+001 1.400000e+001
    endloop
  endfacet
  facet normal -0.000000e+000 1.000000e+000 0.000000e+000
    outer loop
      vertex   -5.700000e+001 1.700000e+001 4.000000e+000
      vertex   -5.700000e+001 1.700000e+001 1.400000e+001
      vertex   -4.300000e+001 1.700000e+001 4.000000e+000
    endloop
  endfacet
  facet normal 0.000000e+000 1.000000e+000 -0.000000e+000
    outer loop
      vertex   -4.300000e+001 1.700000e+001 4.000000e+000
      vertex   -5.700000e+001 1.700000e+001 1.400000e+001
      vertex   -4.300000e+001 1.700000e+001 1.400000e+001
    endloop
  endfacet
  facet normal -1.000000e+000 0.000000e+000 0.000000e+000
    outer loop
      vertex   -5.700000e+001 3.000000e+000 4.000000e+000
      vertex   -5.700000e+001 3.000000e+000 1.400000e+001
      vertex   -5.700000e+001 1.700000e+001 4.000000e+000
    endloop
  endfacet
  facet normal -1.000000e+000 0.000000e+000 0.000000e+000
    outer loop
      vertex   -5.700000e+001 1.700000e+001 4.000000e+000
      vertex   -5.700000e+001 3.000000e+000 1.400000e+001
      vertex   -5.700000e+001 1.700000e+001 1.400000e+001
    endloop
  endfacet
  facet normal -0.000000e+000 -1.000000e+000 0.000000e+000
    outer loop
      vertex   -4.300000e+001 3.000000e+000 4.000000e+000
      vertex   -4.300000e+001 3.000000e+000 1.400000e+001
      vertex   -5.700000e+001 3.000000e+000 4.000000e+000
    endloop
  endfacet
  facet normal 0.000000e+000 -1.000000e+000 0.000000e+000
    outer loop
      vertex   -5.700000e+001 3.000000e+000 4.000000e+000
      vertex   -4.300000e+001 3.000000e+000 1.400000e+001
      vertex   -5.700000e+001 3.000000e+000 1.400000e+001
    endloop
  endfacet
  facet normal 1.000000e+000 0.000000e+000 -0.000000e+000
    outer loop
      vertex   -4.300000e+001 1.700000e+001 4.000000e+000
      vertex   -4.300000e+001 1.700000e+001 1.400000e+001
      vertex   -4.300000e+001 3.000000e+000 4.000000e+000
    endloop
  endfacet
  facet normal 1.000000e+000 0.000000e+000 -0.000000e+000
    outer loop
      vertex   -4.300000e+001 3.000000e+000 4.000000e+000
      vertex   -4.300000e+001 1.700000e+001 1.400000e+001
      vertex   -4.300000e+001 3.000000e+000 1.400000e+001
    endloop
  endfacet
  facet normal 5.921189e-016 1.000000e+000 -0.000000e+000
    outer loop
      vertex   -4.000000e+001 0.000000e+000 0.000000e+000
      vertex   -4.000000e+001 0.000000e+000 4.000000e+000
      vertex   -2.500000e+001 -8.881784e-015 5.551115e-016
    endloop
  endfacet
  facet normal 5.921189e-016 1.000000e+000 0.000000e+000
    outer loop
      vertex   -2.500000e+001 -8.881784e-015 5.551115e-016
      vertex   -4.000000e+001 0.000000e+000 4.000000e+000
      vertex   -2.500000e+001 -8.881784e-015 4.000000e+000
    endloop
  endfacet
  facet normal -5.921189e-016 1.000000e+000 0.000000e+000
    outer loop
      vertex   -6.000000e+001 0.000000e+000 4.000000e+000
      vertex   -6.000000e+001 0.000000e+000 0.000000e+000
      vertex   -7.500000e+001 -8.881784e-015 4.000000e+000
    endloop
  endfacet
  facet normal -5.921189e-016 1.000000e+000 0.000000e+000
    outer loop
      vertex   -7.500000e+001 -8.881784e-015 4.000000e+000
      vertex   -6.000000e+001 0.000000e+000 0.000000e+000
      vertex   -7.500000e+001 -8.881784e-015 5.551115e-016
    endloop
  endfacet
  facet normal 0.000000e+000 1.000000e+000 0.000000e+000
    outer loop
      vertex   -3.000000e+001 -1.550000e+001 4.000000e+000
      vertex   -3.000000e+001 -1.550000e+001 0.000000e+000
      vertex   -7.000000e+001 -1.550000e+001 4.000000e+000
    endloop
  endfacet
  facet normal 0.000000e+000 1.000000e+000 0.000000e+000
    outer loop
      vertex   -7.000000e+001 -1.550000e+001 4.000000e+000
      vertex   -3.000000e+001 -1.550000e+001 0.000000e+000
      vertex   -7.000000e+001 -1.550000e+001 0.000000e+000
    endloop
  endfacet
  facet normal 1.000000e+000 -0.000000e+000 0.000000e+000
    outer loop
      vertex   -7.000000e+001 -1.550000e+001 4.000000e+000
      vertex   -7.000000e+001 -1.550000e+001 0.000000e+000
      vertex   -7.000000e+001 -4.500000e+000 4.000000e+000
    endloop
  endfacet
  facet normal 1.000000e+000 -0.000000e+000 0.000000e+000
    outer loop
      vertex   -7.000000e+001 -4.500000e+000 4.000000e+000
      vertex   -7.000000e+001 -1.550000e+001 0.000000e+000
      vertex   -7.000000e+001 -4.500000e+000 0.000000e+000
    endloop
  endfacet
  facet normal 0.000000e+000 -1.000000e+000 0.000000e+000
    outer loop
      vertex   -7.000000e+001 -4.500000e+000 4.000000e+000
      vertex   -7.000000e+001 -4.500000e+000 0.000000e+000
      vertex   -3.000000e+001 -4.500000e+000 4.000000e+000
    endloop
  endfacet
  facet normal 0.000000e+000 -1.000000e+000 -0.000000e+000
    outer loop
      vertex   -3.000000e+001 -4.500000e+000 4.000000e+000
      vertex   -7.000000e+001 -4.500000e+000 0.000000e+000
      vertex   -3.000000e+001 -4.500000e+000 0.000000e+000
    endloop
  endfacet
  facet normal -1.000000e+000 -0.000000e+000 -0.000000e+000
    outer loop
      vertex   -3.000000e+001 -4.500000e+000 4.000000e+000
      vertex   -3.000000e+001 -4.500000e+000 0.000000e+000
      vertex   -3.000000e+001 -1.550000e+001 4.000000e+000
    endloop
  endfacet
  facet normal -1.000000e+000 -0.000000e+000 -0.000000e+000
    outer loop
      vertex   -3.000000e+001 -1.550000e+001 4.000000e+000
      vertex   -3.000000e+001 -4.500000e+000 0.000000e+000
      vertex   -3.000000e+001 -1.550000e+001 0.000000e+000
    endloop
  endfacet
  facet normal 0.000000e+000 1.000000e+000 0.000000e+000
    outer loop
      vertex   -3.534358e+001 -5.526246e+001 4.000000e+000
      vertex   -3.534358e+001 -5.526246e+001 0.000000e+000
      vertex   -6.334358e+001 -5.526246e+001 4.000000e+000
    endloop
  endfacet
  facet normal 0.000000e+000 1.000000e+000 0.000000e+000
    outer loop
      vertex   -6.334358e+001 -5.526246e+001 4.000000e+000
      vertex   -3.534358e+001 -5.526246e+001 0.000000e+000
      vertex   -6.334358e+001 -5.526246e+001 0.000000e+000
    endloop
  endfacet
  facet normal 1.000000e+000 -0.000000e+000 0.000000e+000
    outer loop
      vertex   -6.334358e+001 -5.526246e+001 4.000000e+000
      vertex   -6.334358e+001 -5.526246e+001 0.000000e+000
      vertex   -6.334358e+001 -4.426246e+001 4.000000e+000
    endloop
  endfacet
  facet normal 1.000000e+000 -0.000000e+000 0.000000e+000
    outer loop
      vertex   -6.334358e+001 -4.426246e+001 4.000000e+000
      vertex   -6.334358e+001 -5.526246e+001 0.000000e+000
      vertex   -6.334358e+001 -4.426246e+001 0.000000e+000
    endloop
  endfacet
  facet normal 0.000000e+000 -1.000000e+000 0.000000e+000
    outer loop
      vertex   -6.334358e+001 -4.426246e+001 4.000000e+000
      vertex   -6.334358e+001 -4.426246e+001 0.000000e+000
      vertex   -3.534358e+001 -4.426246e+001 4.000000e+000
    endloop
  endfacet
  facet normal 0.000000e+000 -1.000000e+000 -0.000000e+000
    outer loop
      vertex   -3.534358e+001 -4.426246e+001 4.000000e+000
      vertex   -6.334358e+001 -4.426246e+001 0.000000e+000
      vertex   -3.534358e+001 -4.426246e+001 0.000000e+000
    endloop
  endfacet
  facet normal -1.000000e+000 -0.000000e+000 -0.000000e+000
    outer loop
      vertex   -3.534358e+001 -4.426246e+001 4.000000e+000
      vertex   -3.534358e+001 -4.426246e+001 0.000000e+000
      vertex   -3.534358e+001 -5.526246e+001 4.000000e+000
    endloop
  endfacet
  facet normal -1.000000e+000 -0.000000e+000 -0.000000e+000
    outer loop
      vertex   -3.534358e+001 -5.526246e+001 4.000000e+000
      vertex   -3.534358e+001 -4.426246e+001 0.000000e+000
      vertex   -3.534358e+001 -5.526246e+001 0.000000e+000
    endloop
  endfacet
  facet normal 0.000000e+000 1.000000e+000 0.000000e+000
    outer loop
      vertex   -3.000000e+001 -3.550000e+001 4.000000e+000
      vertex   -3.000000e+001 -3.550000e+001 0.000000e+000
      vertex   -7.000000e+001 -3.550000e+001 4.000000e+000
    endloop
  endfacet
  facet normal 0.000000e+000 1.000000e+000 0.000000e+000
    outer loop
      vertex   -7.000000e+001 -3.550000e+001 4.000000e+000
      vertex   -3.000000e+001 -3.550000e+001 0.000000e+000
      vertex   -7.000000e+001 -3.550000e+001 0.000000e+000
    endloop
  endfacet
  facet normal 1.000000e+000 -0.000000e+000 0.000000e+000
    outer loop
      vertex   -7.000000e+001 -3.550000e+001 4.000000e+000
      vertex   -7.000000e+001 -3.550000e+001 0.000000e+000
      vertex   -7.000000e+001 -2.450000e+001 4.000000e+000
    endloop
  endfacet
  facet normal 1.000000e+000 -0.000000e+000 0.000000e+000
    outer loop
      vertex   -7.000000e+001 -2.450000e+001 4.000000e+000
      vertex   -7.000000e+001 -3.550000e+001 0.000000e+000
      vertex   -7.000000e+001 -2.450000e+001 0.000000e+000
    endloop
  endfacet
  facet normal 0.000000e+000 -1.000000e+000 0.000000e+000
    outer loop
      vertex   -7.000000e+001 -2.450000e+001 4.000000e+000
      vertex   -7.000000e+001 -2.450000e+001 0.000000e+000
      vertex   -3.000000e+001 -2.450000e+001 4.000000e+000
    endloop
  endfacet
  facet normal 0.000000e+000 -1.000000e+000 -0.000000e+000
    outer loop
      vertex   -3.000000e+001 -2.450000e+001 4.000000e+000
      vertex   -7.000000e+001 -2.450000e+001 0.000000e+000
      vertex   -3.000000e+001 -2.450000e+001 0.000000e+000
    endloop
  endfacet
  facet normal -1.000000e+000 -0.000000e+000 -0.000000e+000
    outer loop
      vertex   -3.000000e+001 -2.450000e+001 4.000000e+000
      vertex   -3.000000e+001 -2.450000e+001 0.000000e+000
      vertex   -3.000000e+001 -3.550000e+001 4.000000e+000
    endloop
  endfacet
  facet normal -1.000000e+000 -0.000000e+000 -0.000000e+000
    outer loop
      vertex   -3.000000e+001 -3.550000e+001 4.000000e+000
      vertex   -3.000000e+001 -2.450000e+001 0.000000e+000
      vertex   -3.000000e+001 -3.550000e+001 0.000000e+000
    endloop
  endfacet
  facet normal 0.000000e+000 0.000000e+000 -1.000000e+000
    outer loop
      vertex   -4.750000e+001 7.500000e+000 0.000000e+000
      vertex   -4.750000e+001 1.250000e+001 0.000000e+000
      vertex   -4.000000e+001 2.000000e+001 0.000000e+000
    endloop
  endfacet
  facet normal 0.000000e+000 0.000000e+000 -1.000000e+000
    outer loop
      vertex   -4.000000e+001 0.000000e+000 0.000000e+000
      vertex   -4.750000e+001 7.500000e+000 0.000000e+000
      vertex   -4.000000e+001 2.000000e+001 0.000000e+000
    endloop
  endfacet
  facet normal 0.000000e+000 0.000000e+000 -1.000000e+000
    outer loop
      vertex   -4.000000e+001 0.000000e+000 0.000000e+000
      vertex   -6.000000e+001 0.000000e+000 0.000000e+000
      vertex   -4.750000e+001 7.500000e+000 0.000000e+000
    endloop
  endfacet
  facet normal -0.000000e+000 0.000000e+000 -1.000000e+000
    outer loop
      vertex   -4.000000e+001 0.000000e+000 0.000000e+000
      vertex   -7.000000e+001 -4.500000e+000 0.000000e+000
      vertex   -6.000000e+001 0.000000e+000 0.000000e+000
    endloop
  endfacet
  facet normal -0.000000e+000 -0.000000e+000 -1.000000e+000
    outer loop
      vertex   -4.000000e+001 0.000000e+000 0.000000e+000
      vertex   -3.000000e+001 -4.500000e+000 0.000000e+000
      vertex   -7.000000e+001 -4.500000e+000 0.000000e+000
    endloop
  endfacet
  facet normal 3.700743e-017 8.223874e-017 -1.000000e+000
    outer loop
      vertex   -4.000000e+001 0.000000e+000 0.000000e+000
      vertex   -2.500000e+001 -8.881784e-015 5.551115e-016
      vertex   -3.000000e+001 -4.500000e+000 0.000000e+000
    endloop
  endfacet
  facet normal 1.110223e-016 0.000000e+000 -1.000000e+000
    outer loop
      vertex   -3.000000e+001 -4.500000e+000 0.000000e+000
      vertex   -2.500000e+001 -8.881784e-015 5.551115e-016
      vertex   -3.000000e+001 -1.550000e+001 0.000000e+000
    endloop
  endfacet
  facet normal 1.110223e-016 0.000000e+000 -1.000000e+000
    outer loop
      vertex   -3.000000e+001 -1.550000e+001 0.000000e+000
      vertex   -2.500000e+001 -8.881784e-015 5.551115e-016
      vertex   -2.500000e+001 -3.000000e+001 5.551115e-016
    endloop
  endfacet
  facet normal 1.110223e-016 0.000000e+000 -1.000000e+000
    outer loop
      vertex   -3.000000e+001 -2.450000e+001 0.000000e+000
      vertex   -2.500000e+001 -3.000000e+001 5.551115e-016
      vertex   -3.000000e+001 -3.550000e+001 0.000000e+000
    endloop
  endfacet
  facet normal 1.110223e-016 0.000000e+000 -1.000000e+000
    outer loop
      vertex   -3.000000e+001 -2.450000e+001 0.000000e+000
      vertex   -3.000000e+001 -1.550000e+001 0.000000e+000
      vertex   -2.500000e+001 -3.000000e+001 5.551115e-016
    endloop
  endfacet
  facet normal 0.000000e+000 0.000000e+000 -1.000000e+000
    outer loop
      vertex   -3.000000e+001 -2.450000e+001 0.000000e+000
      vertex   -7.000000e+001 -2.450000e+001 0.000000e+000
      vertex   -3.000000e+001 -1.550000e+001 0.000000e+000
    endloop
  endfacet
  facet normal -0.000000e+000 0.000000e+000 -1.000000e+000
    outer loop
      vertex   -3.000000e+001 -1.550000e+001 0.000000e+000
      vertex   -7.000000e+001 -2.450000e+001 0.000000e+000
      vertex   -7.000000e+001 -1.550000e+001 0.000000e+000
    endloop
  endfacet
  facet normal -1.110223e-016 -0.000000e+000 -1.000000e+000
    outer loop
      vertex   -7.000000e+001 -1.550000e+001 0.000000e+000
      vertex   -7.000000e+001 -2.450000e+001 0.000000e+000
      vertex   -7.500000e+001 -3.000000e+001 5.551115e-016
    endloop
  endfacet
  facet normal -1.110223e-016 0.000000e+000 -1.000000e+000
    outer loop
      vertex   -7.500000e+001 -8.881784e-015 5.551115e-016
      vertex   -7.000000e+001 -1.550000e+001 0.000000e+000
      vertex   -7.500000e+001 -3.000000e+001 5.551115e-016
    endloop
  endfacet
  facet normal -1.110223e-016 -0.000000e+000 -1.000000e+000
    outer loop
      vertex   -7.500000e+001 -8.881784e-015 5.551115e-016
      vertex   -7.000000e+001 -4.500000e+000 0.000000e+000
      vertex   -7.000000e+001 -1.550000e+001 0.000000e+000
    endloop
  endfacet
  facet normal -3.700743e-017 8.223874e-017 -1.000000e+000
    outer loop
      vertex   -7.500000e+001 -8.881784e-015 5.551115e-016
      vertex   -6.000000e+001 0.000000e+000 0.000000e+000
      vertex   -7.000000e+001 -4.500000e+000 0.000000e+000
    endloop
  endfacet
  facet normal 0.000000e+000 0.000000e+000 -1.000000e+000
    outer loop
      vertex   -5.250000e+001 7.500000e+000 0.000000e+000
      vertex   -6.000000e+001 2.000000e+001 0.000000e+000
      vertex   -5.250000e+001 1.250000e+001 0.000000e+000
    endloop
  endfacet
  facet normal -0.000000e+000 0.000000e+000 -1.000000e+000
    outer loop
      vertex   -5.250000e+001 7.500000e+000 0.000000e+000
      vertex   -6.000000e+001 0.000000e+000 0.000000e+000
      vertex   -6.000000e+001 2.000000e+001 0.000000e+000
    endloop
  endfacet
  facet normal 0.000000e+000 -0.000000e+000 -1.000000e+000
    outer loop
      vertex   -5.250000e+001 7.500000e+000 0.000000e+000
      vertex   -4.750000e+001 7.500000e+000 0.000000e+000
      vertex   -6.000000e+001 0.000000e+000 0.000000e+000
    endloop
  endfacet
  facet normal 0.000000e+000 0.000000e+000 -1.000000e+000
    outer loop
      vertex   -4.750000e+001 -7.250000e+001 0.000000e+000
      vertex   -4.750000e+001 -6.750000e+001 0.000000e+000
      vertex   -4.000000e+001 -6.000000e+001 0.000000e+000
    endloop
  endfacet
  facet normal 0.000000e+000 0.000000e+000 -1.000000e+000
    outer loop
      vertex   -4.000000e+001 -8.000000e+001 0.000000e+000
      vertex   -4.750000e+001 -7.250000e+001 0.000000e+000
      vertex   -4.000000e+001 -6.000000e+001 0.000000e+000
    endloop
  endfacet
  facet normal 0.000000e+000 0.000000e+000 -1.000000e+000
    outer loop
      vertex   -4.000000e+001 -8.000000e+001 0.000000e+000
      vertex   -6.000000e+001 -8.000000e+001 0.000000e+000
      vertex   -4.750000e+001 -7.250000e+001 0.000000e+000
    endloop
  endfacet
  facet normal -0.000000e+000 0.000000e+000 -1.000000e+000
    outer loop
      vertex   -4.750000e+001 -7.250000e+001 0.000000e+000
      vertex   -6.000000e+001 -8.000000e+001 0.000000e+000
      vertex   -5.250000e+001 -7.250000e+001 0.000000e+000
    endloop
  endfacet
  facet normal -0.000000e+000 0.000000e+000 -1.000000e+000
    outer loop
      vertex   -5.250000e+001 -7.250000e+001 0.000000e+000
      vertex   -6.000000e+001 -8.000000e+001 0.000000e+000
      vertex   -6.000000e+001 -6.000000e+001 0.000000e+000
    endloop
  endfacet
  facet normal 0.000000e+000 0.000000e+000 -1.000000e+000
    outer loop
      vertex   -5.250000e+001 -6.750000e+001 0.000000e+000
      vertex   -6.000000e+001 -6.000000e+001 0.000000e+000
      vertex   -4.000000e+001 -6.000000e+001 0.000000e+000
    endloop
  endfacet
  facet normal 0.000000e+000 0.000000e+000 -1.000000e+000
    outer loop
      vertex   -4.750000e+001 -6.750000e+001 0.000000e+000
      vertex   -5.250000e+001 -6.750000e+001 0.000000e+000
      vertex   -4.000000e+001 -6.000000e+001 0.000000e+000
    endloop
  endfacet
  facet normal -0.000000e+000 -0.000000e+000 -1.000000e+000
    outer loop
      vertex   -5.250000e+001 -6.750000e+001 0.000000e+000
      vertex   -5.250000e+001 -7.250000e+001 0.000000e+000
      vertex   -6.000000e+001 -6.000000e+001 0.000000e+000
    endloop
  endfacet
  facet normal 0.000000e+000 -0.000000e+000 -1.000000e+000
    outer loop
      vertex   -6.334358e+001 -4.426246e+001 0.000000e+000
      vertex   -3.000000e+001 -3.550000e+001 0.000000e+000
      vertex   -3.534358e+001 -4.426246e+001 0.000000e+000
    endloop
  endfacet
  facet normal 0.000000e+000 0.000000e+000 -1.000000e+000
    outer loop
      vertex   -6.334358e+001 -4.426246e+001 0.000000e+000
      vertex   -7.000000e+001 -3.550000e+001 0.000000e+000
      vertex   -3.000000e+001 -3.550000e+001 0.000000e+000
    endloop
  endfacet
  facet normal -2.351025e-017 -1.785960e-017 -1.000000e+000
    outer loop
      vertex   -6.334358e+001 -4.426246e+001 0.000000e+000
      vertex   -7.500000e+001 -6.000000e+001 5.551115e-016
      vertex   -7.000000e+001 -3.550000e+001 0.000000e+000
    endloop
  endfacet
  facet normal -4.762281e-017 -0.000000e+000 -1.000000e+000
    outer loop
      vertex   -6.334358e+001 -4.426246e+001 0.000000e+000
      vertex   -6.334358e+001 -5.526246e+001 0.000000e+000
      vertex   -7.500000e+001 -6.000000e+001 5.551115e-016
    endloop
  endfacet
  facet normal -3.700743e-017 -2.611848e-017 -1.000000e+000
    outer loop
      vertex   -7.500000e+001 -6.000000e+001 5.551115e-016
      vertex   -6.334358e+001 -5.526246e+001 0.000000e+000
      vertex   -6.000000e+001 -6.000000e+001 0.000000e+000
    endloop
  endfacet
  facet normal 0.000000e+000 0.000000e+000 -1.000000e+000
    outer loop
      vertex   -6.000000e+001 -6.000000e+001 0.000000e+000
      vertex   -6.334358e+001 -5.526246e+001 0.000000e+000
      vertex   -4.000000e+001 -6.000000e+001 0.000000e+000
    endloop
  endfacet
  facet normal 0.000000e+000 0.000000e+000 -1.000000e+000
    outer loop
      vertex   -4.000000e+001 -6.000000e+001 0.000000e+000
      vertex   -6.334358e+001 -5.526246e+001 0.000000e+000
      vertex   -3.534358e+001 -5.526246e+001 0.000000e+000
    endloop
  endfacet
  facet normal 5.366725e-017 0.000000e+000 -1.000000e+000
    outer loop
      vertex   -2.500000e+001 -6.000000e+001 5.551115e-016
      vertex   -3.534358e+001 -5.526246e+001 0.000000e+000
      vertex   -3.534358e+001 -4.426246e+001 0.000000e+000
    endloop
  endfacet
  facet normal 2.783805e-017 -1.697638e-017 -1.000000e+000
    outer loop
      vertex   -3.000000e+001 -3.550000e+001 0.000000e+000
      vertex   -2.500000e+001 -6.000000e+001 5.551115e-016
      vertex   -3.534358e+001 -4.426246e+001 0.000000e+000
    endloop
  endfacet
  facet normal 1.110223e-016 0.000000e+000 -1.000000e+000
    outer loop
      vertex   -3.000000e+001 -3.550000e+001 0.000000e+000
      vertex   -2.500000e+001 -3.000000e+001 5.551115e-016
      vertex   -2.500000e+001 -6.000000e+001 5.551115e-016
    endloop
  endfacet
  facet normal 3.700743e-017 -3.637377e-017 -1.000000e+000
    outer loop
      vertex   -4.000000e+001 -6.000000e+001 0.000000e+000
      vertex   -3.534358e+001 -5.526246e+001 0.000000e+000
      vertex   -2.500000e+001 -6.000000e+001 5.551115e-016
    endloop
  endfacet
  facet normal -1.110223e-016 -0.000000e+000 -1.000000e+000
    outer loop
      vertex   -7.000000e+001 -2.450000e+001 0.000000e+000
      vertex   -7.000000e+001 -3.550000e+001 0.000000e+000
      vertex   -7.500000e+001 -3.000000e+001 5.551115e-016
    endloop
  endfacet
  facet normal -1.110223e-016 0.000000e+000 -1.000000e+000
    outer loop
      vertex   -7.500000e+001 -3.000000e+001 5.551115e-016
      vertex   -7.000000e+001 -3.550000e+001 0.000000e+000
      vertex   -7.500000e+001 -6.000000e+001 5.551115e-016
    endloop
  endfacet
  facet normal 0.000000e+000 -0.000000e+000 -1.000000e+000
    outer loop
      vertex   -6.000000e+001 2.000000e+001 0.000000e+000
      vertex   -4.000000e+001 2.000000e+001 0.000000e+000
      vertex   -5.250000e+001 1.250000e+001 0.000000e+000
    endloop
  endfacet
  facet normal 0.000000e+000 -0.000000e+000 -1.000000e+000
    outer loop
      vertex   -5.250000e+001 1.250000e+001 0.000000e+000
      vertex   -4.000000e+001 2.000000e+001 0.000000e+000
      vertex   -4.750000e+001 1.250000e+001 0.000000e+000
    endloop
  endfacet
  facet normal 0.000000e+000 -0.000000e+000 1.000000e+000
    outer loop
      vertex   -5.700000e+001 -7.700000e+001 4.000000e+000
      vertex   -5.700000e+001 -6.300000e+001 4.000000e+000
      vertex   -6.000000e+001 -6.000000e+001 4.000000e+000
    endloop
  endfacet
  facet normal 0.000000e+000 -0.000000e+000 1.000000e+000
    outer loop
      vertex   -6.000000e+001 -8.000000e+001 4.000000e+000
      vertex   -5.700000e+001 -7.700000e+001 4.000000e+000
      vertex   -6.000000e+001 -6.000000e+001 4.000000e+000
    endloop
  endfacet
  facet normal 0.000000e+000 -0.000000e+000 1.000000e+000
    outer loop
      vertex   -6.000000e+001 -8.000000e+001 4.000000e+000
      vertex   -4.000000e+001 -8.000000e+001 4.000000e+000
      vertex   -5.700000e+001 -7.700000e+001 4.000000e+000
    endloop
  endfacet
  facet normal -0.000000e+000 -0.000000e+000 1.000000e+000
    outer loop
      vertex   -5.700000e+001 -7.700000e+001 4.000000e+000
      vertex   -4.000000e+001 -8.000000e+001 4.000000e+000
      vertex   -4.300000e+001 -7.700000e+001 4.000000e+000
    endloop
  endfacet
  facet normal -0.000000e+000 0.000000e+000 1.000000e+000
    outer loop
      vertex   -4.300000e+001 -7.700000e+001 4.000000e+000
      vertex   -4.000000e+001 -8.000000e+001 4.000000e+000
      vertex   -4.000000e+001 -6.000000e+001 4.000000e+000
    endloop
  endfacet
  facet normal 0.000000e+000 -0.000000e+000 1.000000e+000
    outer loop
      vertex   -4.300000e+001 -6.300000e+001 4.000000e+000
      vertex   -4.000000e+001 -6.000000e+001 4.000000e+000
      vertex   -6.000000e+001 -6.000000e+001 4.000000e+000
    endloop
  endfacet
  facet normal 0.000000e+000 -0.000000e+000 1.000000e+000
    outer loop
      vertex   -5.700000e+001 -6.300000e+001 4.000000e+000
      vertex   -4.300000e+001 -6.300000e+001 4.000000e+000
      vertex   -6.000000e+001 -6.000000e+001 4.000000e+000
    endloop
  endfacet
  facet normal -0.000000e+000 0.000000e+000 1.000000e+000
    outer loop
      vertex   -4.300000e+001 -6.300000e+001 4.000000e+000
      vertex   -4.300000e+001 -7.700000e+001 4.000000e+000
      vertex   -4.000000e+001 -6.000000e+001 4.000000e+000
    endloop
  endfacet
  facet normal 0.000000e+000 -0.000000e+000 1.000000e+000
    outer loop
      vertex   -5.700000e+001 3.000000e+000 4.000000e+000
      vertex   -5.700000e+001 1.700000e+001 4.000000e+000
      vertex   -6.000000e+001 2.000000e+001 4.000000e+000
    endloop
  endfacet
  facet normal 0.000000e+000 -0.000000e+000 1.000000e+000
    outer loop
      vertex   -6.000000e+001 0.000000e+000 4.000000e+000
      vertex   -5.700000e+001 3.000000e+000 4.000000e+000
      vertex   -6.000000e+001 2.000000e+001 4.000000e+000
    endloop
  endfacet
  facet normal 0.000000e+000 -0.000000e+000 1.000000e+000
    outer loop
      vertex   -6.000000e+001 0.000000e+000 4.000000e+000
      vertex   -4.000000e+001 0.000000e+000 4.000000e+000
      vertex   -5.700000e+001 3.000000e+000 4.000000e+000
    endloop
  endfacet
  facet normal 0.000000e+000 -1.973730e-016 1.000000e+000
    outer loop
      vertex   -6.000000e+001 0.000000e+000 4.000000e+000
      vertex   -3.000000e+001 -4.500000e+000 4.000000e+000
      vertex   -4.000000e+001 0.000000e+000 4.000000e+000
    endloop
  endfacet
  facet normal 0.000000e+000 -1.973730e-016 1.000000e+000
    outer loop
      vertex   -6.000000e+001 0.000000e+000 4.000000e+000
      vertex   -7.000000e+001 -4.500000e+000 4.000000e+000
      vertex   -3.000000e+001 -4.500000e+000 4.000000e+000
    endloop
  endfacet
  facet normal -5.921189e-017 -6.579099e-017 1.000000e+000
    outer loop
      vertex   -6.000000e+001 0.000000e+000 4.000000e+000
      vertex   -7.500000e+001 -8.881784e-015 4.000000e+000
      vertex   -7.000000e+001 -4.500000e+000 4.000000e+000
    endloop
  endfacet
  facet normal 0.000000e+000 0.000000e+000 1.000000e+000
    outer loop
      vertex   -7.000000e+001 -4.500000e+000 4.000000e+000
      vertex   -7.500000e+001 -8.881784e-015 4.000000e+000
      vertex   -7.000000e+001 -1.550000e+001 4.000000e+000
    endloop
  endfacet
  facet normal 0.000000e+000 0.000000e+000 1.000000e+000
    outer loop
      vertex   -7.000000e+001 -1.550000e+001 4.000000e+000
      vertex   -7.500000e+001 -8.881784e-015 4.000000e+000
      vertex   -7.500000e+001 -3.000000e+001 4.000000e+000
    endloop
  endfacet
  facet normal 0.000000e+000 0.000000e+000 1.000000e+000
    outer loop
      vertex   -7.000000e+001 -2.450000e+001 4.000000e+000
      vertex   -7.500000e+001 -3.000000e+001 4.000000e+000
      vertex   -7.000000e+001 -3.550000e+001 4.000000e+000
    endloop
  endfacet
  facet normal 0.000000e+000 -0.000000e+000 1.000000e+000
    outer loop
      vertex   -7.000000e+001 -2.450000e+001 4.000000e+000
      vertex   -7.000000e+001 -1.550000e+001 4.000000e+000
      vertex   -7.500000e+001 -3.000000e+001 4.000000e+000
    endloop
  endfacet
  facet normal 0.000000e+000 -0.000000e+000 1.000000e+000
    outer loop
      vertex   -7.000000e+001 -2.450000e+001 4.000000e+000
      vertex   -3.000000e+001 -2.450000e+001 4.000000e+000
      vertex   -7.000000e+001 -1.550000e+001 4.000000e+000
    endloop
  endfacet
  facet normal -0.000000e+000 0.000000e+000 1.000000e+000
    outer loop
      vertex   -7.000000e+001 -1.550000e+001 4.000000e+000
      vertex   -3.000000e+001 -2.450000e+001 4.000000e+000
      vertex   -3.000000e+001 -1.550000e+001 4.000000e+000
    endloop
  endfacet
  facet normal 0.000000e+000 0.000000e+000 1.000000e+000
    outer loop
      vertex   -3.000000e+001 -1.550000e+001 4.000000e+000
      vertex   -3.000000e+001 -2.450000e+001 4.000000e+000
      vertex   -2.500000e+001 -3.000000e+001 4.000000e+000
    endloop
  endfacet
  facet normal 0.000000e+000 0.000000e+000 1.000000e+000
    outer loop
      vertex   -2.500000e+001 -8.881784e-015 4.000000e+000
      vertex   -3.000000e+001 -1.550000e+001 4.000000e+000
      vertex   -2.500000e+001 -3.000000e+001 4.000000e+000
    endloop
  endfacet
  facet normal 0.000000e+000 0.000000e+000 1.000000e+000
    outer loop
      vertex   -2.500000e+001 -8.881784e-015 4.000000e+000
      vertex   -3.000000e+001 -4.500000e+000 4.000000e+000
      vertex   -3.000000e+001 -1.550000e+001 4.000000e+000
    endloop
  endfacet
  facet normal 5.921189e-017 -6.579099e-017 1.000000e+000
    outer loop
      vertex   -2.500000e+001 -8.881784e-015 4.000000e+000
      vertex   -4.000000e+001 0.000000e+000 4.000000e+000
      vertex   -3.000000e+001 -4.500000e+000 4.000000e+000
    endloop
  endfacet
  facet normal 0.000000e+000 -0.000000e+000 1.000000e+000
    outer loop
      vertex   -4.300000e+001 3.000000e+000 4.000000e+000
      vertex   -4.000000e+001 2.000000e+001 4.000000e+000
      vertex   -4.300000e+001 1.700000e+001 4.000000e+000
    endloop
  endfacet
  facet normal -0.000000e+000 0.000000e+000 1.000000e+000
    outer loop
      vertex   -4.300000e+001 3.000000e+000 4.000000e+000
      vertex   -4.000000e+001 0.000000e+000 4.000000e+000
      vertex   -4.000000e+001 2.000000e+001 4.000000e+000
    endloop
  endfacet
  facet normal 0.000000e+000 0.000000e+000 1.000000e+000
    outer loop
      vertex   -4.300000e+001 3.000000e+000 4.000000e+000
      vertex   -5.700000e+001 3.000000e+000 4.000000e+000
      vertex   -4.000000e+001 0.000000e+000 4.000000e+000
    endloop
  endfacet
  facet normal 0.000000e+000 -0.000000e+000 1.000000e+000
    outer loop
      vertex   -3.534358e+001 -4.426246e+001 4.000000e+000
      vertex   -3.000000e+001 -3.550000e+001 4.000000e+000
      vertex   -6.334358e+001 -4.426246e+001 4.000000e+000
    endloop
  endfacet
  facet normal -0.000000e+000 -0.000000e+000 1.000000e+000
    outer loop
      vertex   -3.534358e+001 -4.426246e+001 4.000000e+000
      vertex   -2.500000e+001 -6.000000e+001 4.000000e+000
      vertex   -3.000000e+001 -3.550000e+001 4.000000e+000
    endloop
  endfacet
  facet normal 0.000000e+000 0.000000e+000 1.000000e+000
    outer loop
      vertex   -3.534358e+001 -4.426246e+001 4.000000e+000
      vertex   -3.534358e+001 -5.526246e+001 4.000000e+000
      vertex   -2.500000e+001 -6.000000e+001 4.000000e+000
    endloop
  endfacet
  facet normal 5.921189e-017 1.292787e-016 1.000000e+000
    outer loop
      vertex   -2.500000e+001 -6.000000e+001 4.000000e+000
      vertex   -3.534358e+001 -5.526246e+001 4.000000e+000
      vertex   -4.000000e+001 -6.000000e+001 4.000000e+000
    endloop
  endfacet
  facet normal 0.000000e+000 1.874768e-016 1.000000e+000
    outer loop
      vertex   -4.000000e+001 -6.000000e+001 4.000000e+000
      vertex   -3.534358e+001 -5.526246e+001 4.000000e+000
      vertex   -6.334358e+001 -5.526246e+001 4.000000e+000
    endloop
  endfacet
  facet normal -5.921189e-017 1.456872e-016 1.000000e+000
    outer loop
      vertex   -6.000000e+001 -6.000000e+001 4.000000e+000
      vertex   -6.334358e+001 -5.526246e+001 4.000000e+000
      vertex   -7.500000e+001 -6.000000e+001 4.000000e+000
    endloop
  endfacet
  facet normal -0.000000e+000 1.874768e-016 1.000000e+000
    outer loop
      vertex   -6.000000e+001 -6.000000e+001 4.000000e+000
      vertex   -4.000000e+001 -6.000000e+001 4.000000e+000
      vertex   -6.334358e+001 -5.526246e+001 4.000000e+000
    endloop
  endfacet
  facet normal 0.000000e+000 -0.000000e+000 1.000000e+000
    outer loop
      vertex   -6.334358e+001 -5.526246e+001 4.000000e+000
      vertex   -6.334358e+001 -4.426246e+001 4.000000e+000
      vertex   -7.500000e+001 -6.000000e+001 4.000000e+000
    endloop
  endfacet
  facet normal 0.000000e+000 -0.000000e+000 1.000000e+000
    outer loop
      vertex   -7.500000e+001 -6.000000e+001 4.000000e+000
      vertex   -6.334358e+001 -4.426246e+001 4.000000e+000
      vertex   -7.000000e+001 -3.550000e+001 4.000000e+000
    endloop
  endfacet
  facet normal -0.000000e+000 0.000000e+000 1.000000e+000
    outer loop
      vertex   -7.500000e+001 -3.000000e+001 4.000000e+000
      vertex   -7.500000e+001 -6.000000e+001 4.000000e+000
      vertex   -7.000000e+001 -3.550000e+001 4.000000e+000
    endloop
  endfacet
  facet normal -0.000000e+000 0.000000e+000 1.000000e+000
    outer loop
      vertex   -3.000000e+001 -2.450000e+001 4.000000e+000
      vertex   -3.000000e+001 -3.550000e+001 4.000000e+000
      vertex   -2.500000e+001 -3.000000e+001 4.000000e+000
    endloop
  endfacet
  facet normal 0.000000e+000 0.000000e+000 1.000000e+000
    outer loop
      vertex   -2.500000e+001 -3.000000e+001 4.000000e+000
      vertex   -3.000000e+001 -3.550000e+001 4.000000e+000
      vertex   -2.500000e+001 -6.000000e+001 4.000000e+000
    endloop
  endfacet
  facet normal 0.000000e+000 0.000000e+000 1.000000e+000
    outer loop
      vertex   -3.000000e+001 -3.550000e+001 4.000000e+000
      vertex   -7.000000e+001 -3.550000e+001 4.000000e+000
      vertex   -6.334358e+001 -4.426246e+001 4.000000e+000
    endloop
  endfacet
  facet normal 0.000000e+000 0.000000e+000 1.000000e+000
    outer loop
      vertex   -4.000000e+001 2.000000e+001 4.000000e+000
      vertex   -6.000000e+001 2.000000e+001 4.000000e+000
      vertex   -4.300000e+001 1.700000e+001 4.000000e+000
    endloop
  endfacet
  facet normal 0.000000e+000 0.000000e+000 1.000000e+000
    outer loop
      vertex   -4.300000e+001 1.700000e+001 4.000000e+000
      vertex   -6.000000e+001 2.000000e+001 4.000000e+000
      vertex   -5.700000e+001 1.700000e+001 4.000000e+000
    endloop
  endfacet
  facet normal -1.000000e+000 0.000000e+000 0.000000e+000
    outer loop
      vertex   -7.500000e+001 -6.000000e+001 5.551115e-016
      vertex   -7.500000e+001 -6.000000e+001 4.000000e+000
      vertex   -7.500000e+001 -3.000000e+001 5.551115e-016
    endloop
  endfacet
  facet normal -1.000000e+000 0.000000e+000 0.000000e+000
    outer loop
      vertex   -7.500000e+001 -3.000000e+001 5.551115e-016
      vertex   -7.500000e+001 -6.000000e+001 4.000000e+000
      vertex   -7.500000e+001 -3.000000e+001 4.000000e+000
    endloop
  endfacet
  facet normal -1.000000e+000 0.000000e+000 0.000000e+000
    outer loop
      vertex   -7.500000e+001 -8.881784e-015 5.551115e-016
      vertex   -7.500000e+001 -3.000000e+001 4.000000e+000
      vertex   -7.500000e+001 -8.881784e-015 4.000000e+000
    endloop
  endfacet
  facet normal -1.000000e+000 0.000000e+000 0.000000e+000
    outer loop
      vertex   -7.500000e+001 -8.881784e-015 5.551115e-016
      vertex   -7.500000e+001 -3.000000e+001 5.551115e-016
      vertex   -7.500000e+001 -3.000000e+001 4.000000e+000
    endloop
  endfacet
  facet normal 1.000000e+000 0.000000e+000 -0.000000e+000
    outer loop
      vertex   -2.500000e+001 -8.881784e-015 5.551115e-016
      vertex   -2.500000e+001 -8.881784e-015 4.000000e+000
      vertex   -2.500000e+001 -3.000000e+001 5.551115e-016
    endloop
  endfacet
  facet normal 1.000000e+000 0.000000e+000 -0.000000e+000
    outer loop
      vertex   -2.500000e+001 -3.000000e+001 5.551115e-016
      vertex   -2.500000e+001 -8.881784e-015 4.000000e+000
      vertex   -2.500000e+001 -3.000000e+001 4.000000e+000
    endloop
  endfacet
  facet normal 1.000000e+000 0.000000e+000 -0.000000e+000
    outer loop
      vertex   -2.500000e+001 -6.000000e+001 5.551115e-016
      vertex   -2.500000e+001 -3.000000e+001 4.000000e+000
      vertex   -2.500000e+001 -6.000000e+001 4.000000e+000
    endloop
  endfacet
  facet normal 1.000000e+000 0.000000e+000 0.000000e+000
    outer loop
      vertex   -2.500000e+001 -6.000000e+001 5.551115e-016
      vertex   -2.500000e+001 -3.000000e+001 5.551115e-016
      vertex   -2.500000e+001 -3.000000e+001 4.000000e+000
    endloop
  endfacet
endsolid
