solid ascii
  facet normal 0.000000e+000 -0.000000e+000 1.000000e+000
    outer loop
      vertex   -1.290000e+002 -9.100000e+001 2.000000e+000
      vertex   -1.110000e+002 -9.100000e+001 2.000000e+000
      vertex   -1.290000e+002 -4.900000e+001 2.000000e+000
    endloop
  endfacet
  facet normal -0.000000e+000 0.000000e+000 1.000000e+000
    outer loop
      vertex   -1.290000e+002 -4.900000e+001 2.000000e+000
      vertex   -1.110000e+002 -9.100000e+001 2.000000e+000
      vertex   -1.110000e+002 -4.900000e+001 2.000000e+000
    endloop
  endfacet
  facet normal 0.000000e+000 3.700743e-016 1.000000e+000
    outer loop
      vertex   -1.310000e+002 -9.300000e+001 2.000000e+000
      vertex   -1.150000e+002 -1.050000e+002 2.000000e+000
      vertex   -1.090000e+002 -9.300000e+001 2.000000e+000
    endloop
  endfacet
  facet normal -0.000000e+000 3.700743e-016 1.000000e+000
    outer loop
      vertex   -1.310000e+002 -9.300000e+001 2.000000e+000
      vertex   -1.250000e+002 -1.050000e+002 2.000000e+000
      vertex   -1.150000e+002 -1.050000e+002 2.000000e+000
    endloop
  endfacet
  facet normal -0.000000e+000 3.700743e-016 1.000000e+000
    outer loop
      vertex   -1.310000e+002 -9.300000e+001 2.000000e+000
      vertex   -1.350000e+002 -1.050000e+002 2.000000e+000
      vertex   -1.250000e+002 -1.050000e+002 2.000000e+000
    endloop
  endfacet
  facet normal 2.775558e-016 2.775558e-016 1.000000e+000
    outer loop
      vertex   -1.310000e+002 -9.300000e+001 2.000000e+000
      vertex   -1.450000e+002 -9.500000e+001 2.000000e+000
      vertex   -1.350000e+002 -1.050000e+002 2.000000e+000
    endloop
  endfacet
  facet normal 3.172066e-016 0.000000e+000 1.000000e+000
    outer loop
      vertex   -1.310000e+002 -9.300000e+001 2.000000e+000
      vertex   -1.450000e+002 -8.500000e+001 2.000000e+000
      vertex   -1.450000e+002 -9.500000e+001 2.000000e+000
    endloop
  endfacet
  facet normal 3.172066e-016 0.000000e+000 1.000000e+000
    outer loop
      vertex   -1.310000e+002 -9.300000e+001 2.000000e+000
      vertex   -1.450000e+002 -7.500000e+001 2.000000e+000
      vertex   -1.450000e+002 -8.500000e+001 2.000000e+000
    endloop
  endfacet
  facet normal 3.172066e-016 -0.000000e+000 1.000000e+000
    outer loop
      vertex   -1.310000e+002 -9.300000e+001 2.000000e+000
      vertex   -1.310000e+002 -4.700000e+001 2.000000e+000
      vertex   -1.450000e+002 -7.500000e+001 2.000000e+000
    endloop
  endfacet
  facet normal 3.172066e-016 -9.015553e-031 1.000000e+000
    outer loop
      vertex   -1.450000e+002 -7.500000e+001 2.000000e+000
      vertex   -1.310000e+002 -4.700000e+001 2.000000e+000
      vertex   -1.450000e+002 -6.500000e+001 2.000000e+000
    endloop
  endfacet
  facet normal 3.172066e-016 0.000000e+000 1.000000e+000
    outer loop
      vertex   -1.450000e+002 -6.500000e+001 2.000000e+000
      vertex   -1.310000e+002 -4.700000e+001 2.000000e+000
      vertex   -1.450000e+002 -5.500000e+001 2.000000e+000
    endloop
  endfacet
  facet normal -0.000000e+000 0.000000e+000 1.000000e+000
    outer loop
      vertex   -1.500000e+002 -5.500000e+001 2.000000e+000
      vertex   -1.450000e+002 -6.500000e+001 2.000000e+000
      vertex   -1.450000e+002 -5.500000e+001 2.000000e+000
    endloop
  endfacet
  facet normal -0.000000e+000 0.000000e+000 1.000000e+000
    outer loop
      vertex   -1.500000e+002 -5.500000e+001 2.000000e+000
      vertex   -1.500000e+002 -6.500000e+001 2.000000e+000
      vertex   -1.450000e+002 -6.500000e+001 2.000000e+000
    endloop
  endfacet
  facet normal 0.000000e+000 -3.700743e-016 1.000000e+000
    outer loop
      vertex   -1.090000e+002 -4.700000e+001 2.000000e+000
      vertex   -1.250000e+002 -3.500000e+001 2.000000e+000
      vertex   -1.310000e+002 -4.700000e+001 2.000000e+000
    endloop
  endfacet
  facet normal -2.629536e-031 -3.700743e-016 1.000000e+000
    outer loop
      vertex   -1.090000e+002 -4.700000e+001 2.000000e+000
      vertex   -1.150000e+002 -3.500000e+001 2.000000e+000
      vertex   -1.250000e+002 -3.500000e+001 2.000000e+000
    endloop
  endfacet
  facet normal 0.000000e+000 -3.700743e-016 1.000000e+000
    outer loop
      vertex   -1.090000e+002 -4.700000e+001 2.000000e+000
      vertex   -1.050000e+002 -3.500000e+001 2.000000e+000
      vertex   -1.150000e+002 -3.500000e+001 2.000000e+000
    endloop
  endfacet
  facet normal -2.775558e-016 -2.775558e-016 1.000000e+000
    outer loop
      vertex   -1.090000e+002 -4.700000e+001 2.000000e+000
      vertex   -9.500000e+001 -4.500000e+001 2.000000e+000
      vertex   -1.050000e+002 -3.500000e+001 2.000000e+000
    endloop
  endfacet
  facet normal -3.172066e-016 0.000000e+000 1.000000e+000
    outer loop
      vertex   -1.090000e+002 -4.700000e+001 2.000000e+000
      vertex   -9.500000e+001 -5.500000e+001 2.000000e+000
      vertex   -9.500000e+001 -4.500000e+001 2.000000e+000
    endloop
  endfacet
  facet normal -3.172066e-016 0.000000e+000 1.000000e+000
    outer loop
      vertex   -1.090000e+002 -4.700000e+001 2.000000e+000
      vertex   -9.500000e+001 -6.500000e+001 2.000000e+000
      vertex   -9.500000e+001 -5.500000e+001 2.000000e+000
    endloop
  endfacet
  facet normal -3.172066e-016 4.507777e-031 1.000000e+000
    outer loop
      vertex   -1.090000e+002 -4.700000e+001 2.000000e+000
      vertex   -9.500000e+001 -7.500000e+001 2.000000e+000
      vertex   -9.500000e+001 -6.500000e+001 2.000000e+000
    endloop
  endfacet
  facet normal -3.172066e-016 0.000000e+000 1.000000e+000
    outer loop
      vertex   -1.090000e+002 -4.700000e+001 2.000000e+000
      vertex   -1.090000e+002 -9.300000e+001 2.000000e+000
      vertex   -9.500000e+001 -7.500000e+001 2.000000e+000
    endloop
  endfacet
  facet normal -3.172066e-016 0.000000e+000 1.000000e+000
    outer loop
      vertex   -9.500000e+001 -7.500000e+001 2.000000e+000
      vertex   -1.090000e+002 -9.300000e+001 2.000000e+000
      vertex   -9.500000e+001 -8.500000e+001 2.000000e+000
    endloop
  endfacet
  facet normal 0.000000e+000 0.000000e+000 1.000000e+000
    outer loop
      vertex   -9.000000e+001 -8.500000e+001 2.000000e+000
      vertex   -9.500000e+001 -7.500000e+001 2.000000e+000
      vertex   -9.500000e+001 -8.500000e+001 2.000000e+000
    endloop
  endfacet
  facet normal 0.000000e+000 -0.000000e+000 1.000000e+000
    outer loop
      vertex   -9.000000e+001 -8.500000e+001 2.000000e+000
      vertex   -9.000000e+001 -7.500000e+001 2.000000e+000
      vertex   -9.500000e+001 -7.500000e+001 2.000000e+000
    endloop
  endfacet
  facet normal 0.000000e+000 -0.000000e+000 1.000000e+000
    outer loop
      vertex   -9.000000e+001 -4.500000e+001 2.000000e+000
      vertex   -9.000000e+001 -3.500000e+001 2.000000e+000
      vertex   -9.500000e+001 -4.500000e+001 2.000000e+000
    endloop
  endfacet
  facet normal 0.000000e+000 -0.000000e+000 1.000000e+000
    outer loop
      vertex   -9.500000e+001 -4.500000e+001 2.000000e+000
      vertex   -9.000000e+001 -3.500000e+001 2.000000e+000
      vertex   -9.500000e+001 -3.500000e+001 2.000000e+000
    endloop
  endfacet
  facet normal -0.000000e+000 -0.000000e+000 1.000000e+000
    outer loop
      vertex   -1.050000e+002 -3.500000e+001 2.000000e+000
      vertex   -9.500000e+001 -3.500000e+001 2.000000e+000
      vertex   -1.050000e+002 -3.000000e+001 2.000000e+000
    endloop
  endfacet
  facet normal -0.000000e+000 0.000000e+000 1.000000e+000
    outer loop
      vertex   -1.050000e+002 -3.500000e+001 2.000000e+000
      vertex   -9.500000e+001 -4.500000e+001 2.000000e+000
      vertex   -9.500000e+001 -3.500000e+001 2.000000e+000
    endloop
  endfacet
  facet normal 0.000000e+000 -0.000000e+000 1.000000e+000
    outer loop
      vertex   -9.500000e+001 -3.500000e+001 2.000000e+000
      vertex   -9.500000e+001 -3.000000e+001 2.000000e+000
      vertex   -1.050000e+002 -3.000000e+001 2.000000e+000
    endloop
  endfacet
  facet normal 0.000000e+000 0.000000e+000 1.000000e+000
    outer loop
      vertex   -1.150000e+002 -3.000000e+001 2.000000e+000
      vertex   -1.250000e+002 -3.000000e+001 2.000000e+000
      vertex   -1.150000e+002 -3.500000e+001 2.000000e+000
    endloop
  endfacet
  facet normal 0.000000e+000 0.000000e+000 1.000000e+000
    outer loop
      vertex   -1.150000e+002 -3.500000e+001 2.000000e+000
      vertex   -1.250000e+002 -3.000000e+001 2.000000e+000
      vertex   -1.250000e+002 -3.500000e+001 2.000000e+000
    endloop
  endfacet
  facet normal 7.888609e-031 -3.700743e-016 1.000000e+000
    outer loop
      vertex   -1.250000e+002 -3.500000e+001 2.000000e+000
      vertex   -1.350000e+002 -3.500000e+001 2.000000e+000
      vertex   -1.310000e+002 -4.700000e+001 2.000000e+000
    endloop
  endfacet
  facet normal 2.775558e-016 -2.775558e-016 1.000000e+000
    outer loop
      vertex   -1.310000e+002 -4.700000e+001 2.000000e+000
      vertex   -1.350000e+002 -3.500000e+001 2.000000e+000
      vertex   -1.450000e+002 -4.500000e+001 2.000000e+000
    endloop
  endfacet
  facet normal 3.172066e-016 0.000000e+000 1.000000e+000
    outer loop
      vertex   -1.450000e+002 -5.500000e+001 2.000000e+000
      vertex   -1.310000e+002 -4.700000e+001 2.000000e+000
      vertex   -1.450000e+002 -4.500000e+001 2.000000e+000
    endloop
  endfacet
  facet normal 0.000000e+000 0.000000e+000 1.000000e+000
    outer loop
      vertex   -1.350000e+002 -3.000000e+001 2.000000e+000
      vertex   -1.450000e+002 -3.000000e+001 2.000000e+000
      vertex   -1.350000e+002 -3.500000e+001 2.000000e+000
    endloop
  endfacet
  facet normal 0.000000e+000 0.000000e+000 1.000000e+000
    outer loop
      vertex   -1.350000e+002 -3.500000e+001 2.000000e+000
      vertex   -1.450000e+002 -3.000000e+001 2.000000e+000
      vertex   -1.450000e+002 -3.500000e+001 2.000000e+000
    endloop
  endfacet
  facet normal 0.000000e+000 -0.000000e+000 1.000000e+000
    outer loop
      vertex   -1.450000e+002 -4.500000e+001 2.000000e+000
      vertex   -1.450000e+002 -3.500000e+001 2.000000e+000
      vertex   -1.500000e+002 -3.500000e+001 2.000000e+000
    endloop
  endfacet
  facet normal 0.000000e+000 -0.000000e+000 1.000000e+000
    outer loop
      vertex   -1.500000e+002 -4.500000e+001 2.000000e+000
      vertex   -1.450000e+002 -4.500000e+001 2.000000e+000
      vertex   -1.500000e+002 -3.500000e+001 2.000000e+000
    endloop
  endfacet
  facet normal 0.000000e+000 0.000000e+000 1.000000e+000
    outer loop
      vertex   -1.350000e+002 -3.500000e+001 2.000000e+000
      vertex   -1.450000e+002 -3.500000e+001 2.000000e+000
      vertex   -1.450000e+002 -4.500000e+001 2.000000e+000
    endloop
  endfacet
  facet normal 0.000000e+000 0.000000e+000 1.000000e+000
    outer loop
      vertex   -1.450000e+002 -7.500000e+001 2.000000e+000
      vertex   -1.500000e+002 -7.500000e+001 2.000000e+000
      vertex   -1.450000e+002 -8.500000e+001 2.000000e+000
    endloop
  endfacet
  facet normal 0.000000e+000 0.000000e+000 1.000000e+000
    outer loop
      vertex   -1.450000e+002 -8.500000e+001 2.000000e+000
      vertex   -1.500000e+002 -7.500000e+001 2.000000e+000
      vertex   -1.500000e+002 -8.500000e+001 2.000000e+000
    endloop
  endfacet
  facet normal 0.000000e+000 0.000000e+000 1.000000e+000
    outer loop
      vertex   -1.350000e+002 -1.050000e+002 2.000000e+000
      vertex   -1.450000e+002 -9.500000e+001 2.000000e+000
      vertex   -1.450000e+002 -1.050000e+002 2.000000e+000
    endloop
  endfacet
  facet normal 0.000000e+000 0.000000e+000 1.000000e+000
    outer loop
      vertex   -1.350000e+002 -1.100000e+002 2.000000e+000
      vertex   -1.450000e+002 -1.050000e+002 2.000000e+000
      vertex   -1.450000e+002 -1.100000e+002 2.000000e+000
    endloop
  endfacet
  facet normal 0.000000e+000 -0.000000e+000 1.000000e+000
    outer loop
      vertex   -1.350000e+002 -1.100000e+002 2.000000e+000
      vertex   -1.350000e+002 -1.050000e+002 2.000000e+000
      vertex   -1.450000e+002 -1.050000e+002 2.000000e+000
    endloop
  endfacet
  facet normal 0.000000e+000 -0.000000e+000 1.000000e+000
    outer loop
      vertex   -1.500000e+002 -1.050000e+002 2.000000e+000
      vertex   -1.450000e+002 -1.050000e+002 2.000000e+000
      vertex   -1.500000e+002 -9.500000e+001 2.000000e+000
    endloop
  endfacet
  facet normal -0.000000e+000 0.000000e+000 1.000000e+000
    outer loop
      vertex   -1.500000e+002 -9.500000e+001 2.000000e+000
      vertex   -1.450000e+002 -1.050000e+002 2.000000e+000
      vertex   -1.450000e+002 -9.500000e+001 2.000000e+000
    endloop
  endfacet
  facet normal 0.000000e+000 -0.000000e+000 1.000000e+000
    outer loop
      vertex   -1.250000e+002 -1.100000e+002 2.000000e+000
      vertex   -1.150000e+002 -1.100000e+002 2.000000e+000
      vertex   -1.250000e+002 -1.050000e+002 2.000000e+000
    endloop
  endfacet
  facet normal -0.000000e+000 0.000000e+000 1.000000e+000
    outer loop
      vertex   -1.250000e+002 -1.050000e+002 2.000000e+000
      vertex   -1.150000e+002 -1.100000e+002 2.000000e+000
      vertex   -1.150000e+002 -1.050000e+002 2.000000e+000
    endloop
  endfacet
  facet normal -0.000000e+000 3.700743e-016 1.000000e+000
    outer loop
      vertex   -1.150000e+002 -1.050000e+002 2.000000e+000
      vertex   -1.050000e+002 -1.050000e+002 2.000000e+000
      vertex   -1.090000e+002 -9.300000e+001 2.000000e+000
    endloop
  endfacet
  facet normal -2.775558e-016 2.775558e-016 1.000000e+000
    outer loop
      vertex   -1.090000e+002 -9.300000e+001 2.000000e+000
      vertex   -1.050000e+002 -1.050000e+002 2.000000e+000
      vertex   -9.500000e+001 -9.500000e+001 2.000000e+000
    endloop
  endfacet
  facet normal -3.172066e-016 -4.507777e-031 1.000000e+000
    outer loop
      vertex   -9.500000e+001 -8.500000e+001 2.000000e+000
      vertex   -1.090000e+002 -9.300000e+001 2.000000e+000
      vertex   -9.500000e+001 -9.500000e+001 2.000000e+000
    endloop
  endfacet
  facet normal 0.000000e+000 -0.000000e+000 1.000000e+000
    outer loop
      vertex   -1.050000e+002 -1.100000e+002 2.000000e+000
      vertex   -9.500000e+001 -1.100000e+002 2.000000e+000
      vertex   -1.050000e+002 -1.050000e+002 2.000000e+000
    endloop
  endfacet
  facet normal -0.000000e+000 0.000000e+000 1.000000e+000
    outer loop
      vertex   -1.050000e+002 -1.050000e+002 2.000000e+000
      vertex   -9.500000e+001 -1.100000e+002 2.000000e+000
      vertex   -9.500000e+001 -1.050000e+002 2.000000e+000
    endloop
  endfacet
  facet normal -0.000000e+000 0.000000e+000 1.000000e+000
    outer loop
      vertex   -9.500000e+001 -9.500000e+001 2.000000e+000
      vertex   -9.500000e+001 -1.050000e+002 2.000000e+000
      vertex   -9.000000e+001 -9.500000e+001 2.000000e+000
    endloop
  endfacet
  facet normal -0.000000e+000 0.000000e+000 1.000000e+000
    outer loop
      vertex   -9.500000e+001 -9.500000e+001 2.000000e+000
      vertex   -1.050000e+002 -1.050000e+002 2.000000e+000
      vertex   -9.500000e+001 -1.050000e+002 2.000000e+000
    endloop
  endfacet
  facet normal -0.000000e+000 0.000000e+000 1.000000e+000
    outer loop
      vertex   -9.500000e+001 -1.050000e+002 2.000000e+000
      vertex   -9.000000e+001 -1.050000e+002 2.000000e+000
      vertex   -9.000000e+001 -9.500000e+001 2.000000e+000
    endloop
  endfacet
  facet normal -0.000000e+000 -0.000000e+000 1.000000e+000
    outer loop
      vertex   -9.500000e+001 -6.500000e+001 2.000000e+000
      vertex   -9.000000e+001 -6.500000e+001 2.000000e+000
      vertex   -9.500000e+001 -5.500000e+001 2.000000e+000
    endloop
  endfacet
  facet normal -0.000000e+000 0.000000e+000 1.000000e+000
    outer loop
      vertex   -9.500000e+001 -5.500000e+001 2.000000e+000
      vertex   -9.000000e+001 -6.500000e+001 2.000000e+000
      vertex   -9.000000e+001 -5.500000e+001 2.000000e+000
    endloop
  endfacet
  facet normal -1.000000e+000 0.000000e+000 0.000000e+000
    outer loop
      vertex   -1.500000e+002 -4.500000e+001 0.000000e+000
      vertex   -1.500000e+002 -4.500000e+001 2.000000e+000
      vertex   -1.500000e+002 -3.500000e+001 0.000000e+000
    endloop
  endfacet
  facet normal -1.000000e+000 0.000000e+000 0.000000e+000
    outer loop
      vertex   -1.500000e+002 -3.500000e+001 0.000000e+000
      vertex   -1.500000e+002 -4.500000e+001 2.000000e+000
      vertex   -1.500000e+002 -3.500000e+001 2.000000e+000
    endloop
  endfacet
  facet normal 0.000000e+000 0.000000e+000 -1.000000e+000
    outer loop
      vertex   -9.000000e+001 -4.500000e+001 0.000000e+000
      vertex   -9.500000e+001 -4.500000e+001 0.000000e+000
      vertex   -9.000000e+001 -3.500000e+001 0.000000e+000
    endloop
  endfacet
  facet normal -0.000000e+000 0.000000e+000 -1.000000e+000
    outer loop
      vertex   -9.000000e+001 -3.500000e+001 0.000000e+000
      vertex   -9.500000e+001 -4.500000e+001 0.000000e+000
      vertex   -9.500000e+001 -3.500000e+001 0.000000e+000
    endloop
  endfacet
  facet normal -0.000000e+000 -0.000000e+000 -1.000000e+000
    outer loop
      vertex   -9.500000e+001 -3.500000e+001 0.000000e+000
      vertex   -9.500000e+001 -4.500000e+001 0.000000e+000
      vertex   -1.050000e+002 -3.500000e+001 0.000000e+000
    endloop
  endfacet
  facet normal -0.000000e+000 0.000000e+000 -1.000000e+000
    outer loop
      vertex   -9.500000e+001 -3.000000e+001 0.000000e+000
      vertex   -1.050000e+002 -3.500000e+001 0.000000e+000
      vertex   -1.050000e+002 -3.000000e+001 0.000000e+000
    endloop
  endfacet
  facet normal -0.000000e+000 -0.000000e+000 -1.000000e+000
    outer loop
      vertex   -9.500000e+001 -3.000000e+001 0.000000e+000
      vertex   -9.500000e+001 -3.500000e+001 0.000000e+000
      vertex   -1.050000e+002 -3.500000e+001 0.000000e+000
    endloop
  endfacet
  facet normal -0.000000e+000 -0.000000e+000 -1.000000e+000
    outer loop
      vertex   -1.050000e+002 -3.500000e+001 0.000000e+000
      vertex   -9.500000e+001 -4.500000e+001 0.000000e+000
      vertex   -1.150000e+002 -3.500000e+001 0.000000e+000
    endloop
  endfacet
  facet normal 0.000000e+000 0.000000e+000 -1.000000e+000
    outer loop
      vertex   -1.150000e+002 -3.500000e+001 0.000000e+000
      vertex   -9.500000e+001 -4.500000e+001 0.000000e+000
      vertex   -9.500000e+001 -5.500000e+001 0.000000e+000
    endloop
  endfacet
  facet normal 0.000000e+000 0.000000e+000 -1.000000e+000
    outer loop
      vertex   -1.450000e+002 -5.500000e+001 0.000000e+000
      vertex   -9.500000e+001 -5.500000e+001 0.000000e+000
      vertex   -9.500000e+001 -6.500000e+001 0.000000e+000
    endloop
  endfacet
  facet normal 0.000000e+000 -0.000000e+000 -1.000000e+000
    outer loop
      vertex   -1.450000e+002 -6.500000e+001 0.000000e+000
      vertex   -9.500000e+001 -6.500000e+001 0.000000e+000
      vertex   -9.500000e+001 -7.500000e+001 0.000000e+000
    endloop
  endfacet
  facet normal 0.000000e+000 0.000000e+000 -1.000000e+000
    outer loop
      vertex   -1.450000e+002 -7.500000e+001 0.000000e+000
      vertex   -9.500000e+001 -7.500000e+001 0.000000e+000
      vertex   -9.500000e+001 -8.500000e+001 0.000000e+000
    endloop
  endfacet
  facet normal 0.000000e+000 -0.000000e+000 -1.000000e+000
    outer loop
      vertex   -1.450000e+002 -8.500000e+001 0.000000e+000
      vertex   -9.500000e+001 -8.500000e+001 0.000000e+000
      vertex   -1.250000e+002 -1.050000e+002 0.000000e+000
    endloop
  endfacet
  facet normal -0.000000e+000 -0.000000e+000 -1.000000e+000
    outer loop
      vertex   -1.450000e+002 -9.500000e+001 0.000000e+000
      vertex   -1.250000e+002 -1.050000e+002 0.000000e+000
      vertex   -1.350000e+002 -1.050000e+002 0.000000e+000
    endloop
  endfacet
  facet normal 0.000000e+000 -0.000000e+000 -1.000000e+000
    outer loop
      vertex   -1.450000e+002 -1.050000e+002 0.000000e+000
      vertex   -1.350000e+002 -1.050000e+002 0.000000e+000
      vertex   -1.450000e+002 -1.100000e+002 0.000000e+000
    endloop
  endfacet
  facet normal 0.000000e+000 0.000000e+000 -1.000000e+000
    outer loop
      vertex   -1.450000e+002 -1.050000e+002 0.000000e+000
      vertex   -1.450000e+002 -9.500000e+001 0.000000e+000
      vertex   -1.350000e+002 -1.050000e+002 0.000000e+000
    endloop
  endfacet
  facet normal 0.000000e+000 0.000000e+000 -1.000000e+000
    outer loop
      vertex   -1.450000e+002 -1.050000e+002 0.000000e+000
      vertex   -1.500000e+002 -1.050000e+002 0.000000e+000
      vertex   -1.450000e+002 -9.500000e+001 0.000000e+000
    endloop
  endfacet
  facet normal -0.000000e+000 0.000000e+000 -1.000000e+000
    outer loop
      vertex   -1.450000e+002 -9.500000e+001 0.000000e+000
      vertex   -1.500000e+002 -1.050000e+002 0.000000e+000
      vertex   -1.500000e+002 -9.500000e+001 0.000000e+000
    endloop
  endfacet
  facet normal 0.000000e+000 -0.000000e+000 -1.000000e+000
    outer loop
      vertex   -9.500000e+001 -5.500000e+001 0.000000e+000
      vertex   -9.000000e+001 -5.500000e+001 0.000000e+000
      vertex   -9.500000e+001 -6.500000e+001 0.000000e+000
    endloop
  endfacet
  facet normal 0.000000e+000 0.000000e+000 -1.000000e+000
    outer loop
      vertex   -9.500000e+001 -6.500000e+001 0.000000e+000
      vertex   -9.000000e+001 -5.500000e+001 0.000000e+000
      vertex   -9.000000e+001 -6.500000e+001 0.000000e+000
    endloop
  endfacet
  facet normal -0.000000e+000 -0.000000e+000 -1.000000e+000
    outer loop
      vertex   -1.450000e+002 -5.500000e+001 0.000000e+000
      vertex   -9.500000e+001 -6.500000e+001 0.000000e+000
      vertex   -1.450000e+002 -6.500000e+001 0.000000e+000
    endloop
  endfacet
  facet normal 0.000000e+000 0.000000e+000 -1.000000e+000
    outer loop
      vertex   -1.500000e+002 -6.500000e+001 0.000000e+000
      vertex   -1.450000e+002 -5.500000e+001 0.000000e+000
      vertex   -1.450000e+002 -6.500000e+001 0.000000e+000
    endloop
  endfacet
  facet normal 0.000000e+000 0.000000e+000 -1.000000e+000
    outer loop
      vertex   -1.500000e+002 -6.500000e+001 0.000000e+000
      vertex   -1.500000e+002 -5.500000e+001 0.000000e+000
      vertex   -1.450000e+002 -5.500000e+001 0.000000e+000
    endloop
  endfacet
  facet normal 0.000000e+000 -0.000000e+000 -1.000000e+000
    outer loop
      vertex   -9.500000e+001 -7.500000e+001 0.000000e+000
      vertex   -9.000000e+001 -7.500000e+001 0.000000e+000
      vertex   -9.500000e+001 -8.500000e+001 0.000000e+000
    endloop
  endfacet
  facet normal 0.000000e+000 0.000000e+000 -1.000000e+000
    outer loop
      vertex   -9.500000e+001 -8.500000e+001 0.000000e+000
      vertex   -9.000000e+001 -7.500000e+001 0.000000e+000
      vertex   -9.000000e+001 -8.500000e+001 0.000000e+000
    endloop
  endfacet
  facet normal 0.000000e+000 -0.000000e+000 -1.000000e+000
    outer loop
      vertex   -1.250000e+002 -1.050000e+002 0.000000e+000
      vertex   -9.500000e+001 -8.500000e+001 0.000000e+000
      vertex   -1.150000e+002 -1.050000e+002 0.000000e+000
    endloop
  endfacet
  facet normal 0.000000e+000 0.000000e+000 -1.000000e+000
    outer loop
      vertex   -1.250000e+002 -1.100000e+002 0.000000e+000
      vertex   -1.150000e+002 -1.050000e+002 0.000000e+000
      vertex   -1.150000e+002 -1.100000e+002 0.000000e+000
    endloop
  endfacet
  facet normal 0.000000e+000 0.000000e+000 -1.000000e+000
    outer loop
      vertex   -1.250000e+002 -1.100000e+002 0.000000e+000
      vertex   -1.250000e+002 -1.050000e+002 0.000000e+000
      vertex   -1.150000e+002 -1.050000e+002 0.000000e+000
    endloop
  endfacet
  facet normal -0.000000e+000 0.000000e+000 -1.000000e+000
    outer loop
      vertex   -9.000000e+001 -9.500000e+001 0.000000e+000
      vertex   -9.500000e+001 -1.050000e+002 0.000000e+000
      vertex   -9.500000e+001 -9.500000e+001 0.000000e+000
    endloop
  endfacet
  facet normal -0.000000e+000 -0.000000e+000 -1.000000e+000
    outer loop
      vertex   -9.000000e+001 -9.500000e+001 0.000000e+000
      vertex   -9.000000e+001 -1.050000e+002 0.000000e+000
      vertex   -9.500000e+001 -1.050000e+002 0.000000e+000
    endloop
  endfacet
  facet normal 0.000000e+000 0.000000e+000 -1.000000e+000
    outer loop
      vertex   -9.500000e+001 -1.100000e+002 0.000000e+000
      vertex   -1.050000e+002 -1.100000e+002 0.000000e+000
      vertex   -9.500000e+001 -1.050000e+002 0.000000e+000
    endloop
  endfacet
  facet normal -0.000000e+000 0.000000e+000 -1.000000e+000
    outer loop
      vertex   -9.500000e+001 -1.050000e+002 0.000000e+000
      vertex   -1.050000e+002 -1.100000e+002 0.000000e+000
      vertex   -1.050000e+002 -1.050000e+002 0.000000e+000
    endloop
  endfacet
  facet normal -0.000000e+000 0.000000e+000 -1.000000e+000
    outer loop
      vertex   -9.500000e+001 -9.500000e+001 0.000000e+000
      vertex   -1.050000e+002 -1.050000e+002 0.000000e+000
      vertex   -1.150000e+002 -1.050000e+002 0.000000e+000
    endloop
  endfacet
  facet normal 0.000000e+000 -0.000000e+000 -1.000000e+000
    outer loop
      vertex   -9.500000e+001 -8.500000e+001 0.000000e+000
      vertex   -9.500000e+001 -9.500000e+001 0.000000e+000
      vertex   -1.150000e+002 -1.050000e+002 0.000000e+000
    endloop
  endfacet
  facet normal 0.000000e+000 0.000000e+000 -1.000000e+000
    outer loop
      vertex   -9.500000e+001 -1.050000e+002 0.000000e+000
      vertex   -1.050000e+002 -1.050000e+002 0.000000e+000
      vertex   -9.500000e+001 -9.500000e+001 0.000000e+000
    endloop
  endfacet
  facet normal -0.000000e+000 -0.000000e+000 -1.000000e+000
    outer loop
      vertex   -1.450000e+002 -8.500000e+001 0.000000e+000
      vertex   -1.250000e+002 -1.050000e+002 0.000000e+000
      vertex   -1.450000e+002 -9.500000e+001 0.000000e+000
    endloop
  endfacet
  facet normal -0.000000e+000 -0.000000e+000 -1.000000e+000
    outer loop
      vertex   -1.350000e+002 -1.050000e+002 0.000000e+000
      vertex   -1.350000e+002 -1.100000e+002 0.000000e+000
      vertex   -1.450000e+002 -1.100000e+002 0.000000e+000
    endloop
  endfacet
  facet normal 0.000000e+000 0.000000e+000 -1.000000e+000
    outer loop
      vertex   -9.500000e+001 -8.500000e+001 0.000000e+000
      vertex   -1.450000e+002 -8.500000e+001 0.000000e+000
      vertex   -1.450000e+002 -7.500000e+001 0.000000e+000
    endloop
  endfacet
  facet normal -0.000000e+000 -0.000000e+000 -1.000000e+000
    outer loop
      vertex   -1.450000e+002 -7.500000e+001 0.000000e+000
      vertex   -1.450000e+002 -8.500000e+001 0.000000e+000
      vertex   -1.500000e+002 -8.500000e+001 0.000000e+000
    endloop
  endfacet
  facet normal 0.000000e+000 -0.000000e+000 -1.000000e+000
    outer loop
      vertex   -1.500000e+002 -7.500000e+001 0.000000e+000
      vertex   -1.450000e+002 -7.500000e+001 0.000000e+000
      vertex   -1.500000e+002 -8.500000e+001 0.000000e+000
    endloop
  endfacet
  facet normal 0.000000e+000 0.000000e+000 -1.000000e+000
    outer loop
      vertex   -1.450000e+002 -7.500000e+001 0.000000e+000
      vertex   -1.450000e+002 -6.500000e+001 0.000000e+000
      vertex   -9.500000e+001 -7.500000e+001 0.000000e+000
    endloop
  endfacet
  facet normal 0.000000e+000 -0.000000e+000 -1.000000e+000
    outer loop
      vertex   -1.450000e+002 -4.500000e+001 0.000000e+000
      vertex   -1.250000e+002 -3.500000e+001 0.000000e+000
      vertex   -1.450000e+002 -5.500000e+001 0.000000e+000
    endloop
  endfacet
  facet normal 0.000000e+000 0.000000e+000 -1.000000e+000
    outer loop
      vertex   -1.450000e+002 -4.500000e+001 0.000000e+000
      vertex   -1.350000e+002 -3.500000e+001 0.000000e+000
      vertex   -1.250000e+002 -3.500000e+001 0.000000e+000
    endloop
  endfacet
  facet normal 0.000000e+000 0.000000e+000 -1.000000e+000
    outer loop
      vertex   -1.450000e+002 -4.500000e+001 0.000000e+000
      vertex   -1.450000e+002 -3.500000e+001 0.000000e+000
      vertex   -1.350000e+002 -3.500000e+001 0.000000e+000
    endloop
  endfacet
  facet normal 0.000000e+000 0.000000e+000 -1.000000e+000
    outer loop
      vertex   -1.450000e+002 -4.500000e+001 0.000000e+000
      vertex   -1.500000e+002 -4.500000e+001 0.000000e+000
      vertex   -1.450000e+002 -3.500000e+001 0.000000e+000
    endloop
  endfacet
  facet normal -0.000000e+000 0.000000e+000 -1.000000e+000
    outer loop
      vertex   -1.450000e+002 -3.500000e+001 0.000000e+000
      vertex   -1.500000e+002 -4.500000e+001 0.000000e+000
      vertex   -1.500000e+002 -3.500000e+001 0.000000e+000
    endloop
  endfacet
  facet normal 0.000000e+000 -0.000000e+000 -1.000000e+000
    outer loop
      vertex   -1.450000e+002 -3.000000e+001 0.000000e+000
      vertex   -1.350000e+002 -3.000000e+001 0.000000e+000
      vertex   -1.450000e+002 -3.500000e+001 0.000000e+000
    endloop
  endfacet
  facet normal 0.000000e+000 -0.000000e+000 -1.000000e+000
    outer loop
      vertex   -1.450000e+002 -3.500000e+001 0.000000e+000
      vertex   -1.350000e+002 -3.000000e+001 0.000000e+000
      vertex   -1.350000e+002 -3.500000e+001 0.000000e+000
    endloop
  endfacet
  facet normal 0.000000e+000 -0.000000e+000 -1.000000e+000
    outer loop
      vertex   -1.250000e+002 -3.000000e+001 0.000000e+000
      vertex   -1.150000e+002 -3.000000e+001 0.000000e+000
      vertex   -1.250000e+002 -3.500000e+001 0.000000e+000
    endloop
  endfacet
  facet normal 0.000000e+000 0.000000e+000 -1.000000e+000
    outer loop
      vertex   -1.250000e+002 -3.500000e+001 0.000000e+000
      vertex   -1.150000e+002 -3.000000e+001 0.000000e+000
      vertex   -1.150000e+002 -3.500000e+001 0.000000e+000
    endloop
  endfacet
  facet normal 0.000000e+000 0.000000e+000 -1.000000e+000
    outer loop
      vertex   -1.450000e+002 -5.500000e+001 0.000000e+000
      vertex   -1.150000e+002 -3.500000e+001 0.000000e+000
      vertex   -9.500000e+001 -5.500000e+001 0.000000e+000
    endloop
  endfacet
  facet normal 0.000000e+000 0.000000e+000 -1.000000e+000
    outer loop
      vertex   -1.450000e+002 -5.500000e+001 0.000000e+000
      vertex   -1.250000e+002 -3.500000e+001 0.000000e+000
      vertex   -1.150000e+002 -3.500000e+001 0.000000e+000
    endloop
  endfacet
  facet normal 0.000000e+000 -1.000000e+000 0.000000e+000
    outer loop
      vertex   -1.500000e+002 -4.500000e+001 2.000000e+000
      vertex   -1.500000e+002 -4.500000e+001 0.000000e+000
      vertex   -1.450000e+002 -4.500000e+001 2.000000e+000
    endloop
  endfacet
  facet normal 0.000000e+000 -1.000000e+000 -0.000000e+000
    outer loop
      vertex   -1.450000e+002 -4.500000e+001 2.000000e+000
      vertex   -1.500000e+002 -4.500000e+001 0.000000e+000
      vertex   -1.450000e+002 -4.500000e+001 0.000000e+000
    endloop
  endfacet
  facet normal -1.000000e+000 0.000000e+000 0.000000e+000
    outer loop
      vertex   -1.500000e+002 -8.500000e+001 0.000000e+000
      vertex   -1.500000e+002 -8.500000e+001 2.000000e+000
      vertex   -1.500000e+002 -7.500000e+001 0.000000e+000
    endloop
  endfacet
  facet normal -1.000000e+000 0.000000e+000 0.000000e+000
    outer loop
      vertex   -1.500000e+002 -7.500000e+001 0.000000e+000
      vertex   -1.500000e+002 -8.500000e+001 2.000000e+000
      vertex   -1.500000e+002 -7.500000e+001 2.000000e+000
    endloop
  endfacet
  facet normal -1.000000e+000 -0.000000e+000 -0.000000e+000
    outer loop
      vertex   -1.500000e+002 -5.500000e+001 2.000000e+000
      vertex   -1.500000e+002 -5.500000e+001 0.000000e+000
      vertex   -1.500000e+002 -6.500000e+001 2.000000e+000
    endloop
  endfacet
  facet normal -1.000000e+000 -0.000000e+000 -0.000000e+000
    outer loop
      vertex   -1.500000e+002 -6.500000e+001 2.000000e+000
      vertex   -1.500000e+002 -5.500000e+001 0.000000e+000
      vertex   -1.500000e+002 -6.500000e+001 0.000000e+000
    endloop
  endfacet
  facet normal 0.000000e+000 -1.000000e+000 0.000000e+000
    outer loop
      vertex   -1.500000e+002 -6.500000e+001 2.000000e+000
      vertex   -1.500000e+002 -6.500000e+001 0.000000e+000
      vertex   -1.450000e+002 -6.500000e+001 2.000000e+000
    endloop
  endfacet
  facet normal 0.000000e+000 -1.000000e+000 -0.000000e+000
    outer loop
      vertex   -1.450000e+002 -6.500000e+001 2.000000e+000
      vertex   -1.500000e+002 -6.500000e+001 0.000000e+000
      vertex   -1.450000e+002 -6.500000e+001 0.000000e+000
    endloop
  endfacet
  facet normal -0.000000e+000 1.000000e+000 0.000000e+000
    outer loop
      vertex   -1.500000e+002 -7.500000e+001 0.000000e+000
      vertex   -1.500000e+002 -7.500000e+001 2.000000e+000
      vertex   -1.450000e+002 -7.500000e+001 0.000000e+000
    endloop
  endfacet
  facet normal 0.000000e+000 1.000000e+000 -0.000000e+000
    outer loop
      vertex   -1.450000e+002 -7.500000e+001 0.000000e+000
      vertex   -1.500000e+002 -7.500000e+001 2.000000e+000
      vertex   -1.450000e+002 -7.500000e+001 2.000000e+000
    endloop
  endfacet
  facet normal -1.000000e+000 0.000000e+000 0.000000e+000
    outer loop
      vertex   -1.450000e+002 -5.500000e+001 0.000000e+000
      vertex   -1.450000e+002 -5.500000e+001 2.000000e+000
      vertex   -1.450000e+002 -4.500000e+001 0.000000e+000
    endloop
  endfacet
  facet normal -1.000000e+000 0.000000e+000 0.000000e+000
    outer loop
      vertex   -1.450000e+002 -4.500000e+001 0.000000e+000
      vertex   -1.450000e+002 -5.500000e+001 2.000000e+000
      vertex   -1.450000e+002 -4.500000e+001 2.000000e+000
    endloop
  endfacet
  facet normal -1.000000e+000 2.842171e-015 0.000000e+000
    outer loop
      vertex   -1.450000e+002 -6.500000e+001 2.000000e+000
      vertex   -1.450000e+002 -6.500000e+001 0.000000e+000
      vertex   -1.450000e+002 -7.500000e+001 2.000000e+000
    endloop
  endfacet
  facet normal -1.000000e+000 2.842171e-015 0.000000e+000
    outer loop
      vertex   -1.450000e+002 -7.500000e+001 2.000000e+000
      vertex   -1.450000e+002 -6.500000e+001 0.000000e+000
      vertex   -1.450000e+002 -7.500000e+001 0.000000e+000
    endloop
  endfacet
  facet normal -0.000000e+000 1.000000e+000 0.000000e+000
    outer loop
      vertex   -1.500000e+002 -5.500000e+001 0.000000e+000
      vertex   -1.500000e+002 -5.500000e+001 2.000000e+000
      vertex   -1.450000e+002 -5.500000e+001 0.000000e+000
    endloop
  endfacet
  facet normal 0.000000e+000 1.000000e+000 -0.000000e+000
    outer loop
      vertex   -1.450000e+002 -5.500000e+001 0.000000e+000
      vertex   -1.500000e+002 -5.500000e+001 2.000000e+000
      vertex   -1.450000e+002 -5.500000e+001 2.000000e+000
    endloop
  endfacet
  facet normal 0.000000e+000 -1.000000e+000 0.000000e+000
    outer loop
      vertex   -1.500000e+002 -8.500000e+001 2.000000e+000
      vertex   -1.500000e+002 -8.500000e+001 0.000000e+000
      vertex   -1.450000e+002 -8.500000e+001 2.000000e+000
    endloop
  endfacet
  facet normal 0.000000e+000 -1.000000e+000 -0.000000e+000
    outer loop
      vertex   -1.450000e+002 -8.500000e+001 2.000000e+000
      vertex   -1.500000e+002 -8.500000e+001 0.000000e+000
      vertex   -1.450000e+002 -8.500000e+001 0.000000e+000
    endloop
  endfacet
  facet normal 2.842171e-015 1.000000e+000 0.000000e+000
    outer loop
      vertex   -9.000000e+001 -5.500000e+001 2.000000e+000
      vertex   -9.000000e+001 -5.500000e+001 0.000000e+000
      vertex   -9.500000e+001 -5.500000e+001 2.000000e+000
    endloop
  endfacet
  facet normal 2.842171e-015 1.000000e+000 0.000000e+000
    outer loop
      vertex   -9.500000e+001 -5.500000e+001 2.000000e+000
      vertex   -9.000000e+001 -5.500000e+001 0.000000e+000
      vertex   -9.500000e+001 -5.500000e+001 0.000000e+000
    endloop
  endfacet
  facet normal 2.842171e-015 1.000000e+000 7.105427e-015
    outer loop
      vertex   -9.000000e+001 -7.500000e+001 2.000000e+000
      vertex   -9.000000e+001 -7.500000e+001 0.000000e+000
      vertex   -9.500000e+001 -7.500000e+001 2.000000e+000
    endloop
  endfacet
  facet normal 0.000000e+000 1.000000e+000 0.000000e+000
    outer loop
      vertex   -9.500000e+001 -7.500000e+001 2.000000e+000
      vertex   -9.000000e+001 -7.500000e+001 0.000000e+000
      vertex   -9.500000e+001 -7.500000e+001 0.000000e+000
    endloop
  endfacet
  facet normal 1.000000e+000 -0.000000e+000 0.000000e+000
    outer loop
      vertex   -9.500000e+001 -5.500000e+001 2.000000e+000
      vertex   -9.500000e+001 -5.500000e+001 0.000000e+000
      vertex   -9.500000e+001 -4.500000e+001 2.000000e+000
    endloop
  endfacet
  facet normal 1.000000e+000 -0.000000e+000 0.000000e+000
    outer loop
      vertex   -9.500000e+001 -4.500000e+001 2.000000e+000
      vertex   -9.500000e+001 -5.500000e+001 0.000000e+000
      vertex   -9.500000e+001 -4.500000e+001 0.000000e+000
    endloop
  endfacet
  facet normal 1.000000e+000 -1.421085e-015 0.000000e+000
    outer loop
      vertex   -9.500000e+001 -7.500000e+001 2.000000e+000
      vertex   -9.500000e+001 -7.500000e+001 0.000000e+000
      vertex   -9.500000e+001 -6.500000e+001 2.000000e+000
    endloop
  endfacet
  facet normal 1.000000e+000 -1.421085e-015 0.000000e+000
    outer loop
      vertex   -9.500000e+001 -6.500000e+001 2.000000e+000
      vertex   -9.500000e+001 -7.500000e+001 0.000000e+000
      vertex   -9.500000e+001 -6.500000e+001 0.000000e+000
    endloop
  endfacet
  facet normal 0.000000e+000 -1.000000e+000 0.000000e+000
    outer loop
      vertex   -1.250000e+002 -1.100000e+002 2.000000e+000
      vertex   -1.250000e+002 -1.100000e+002 0.000000e+000
      vertex   -1.150000e+002 -1.100000e+002 2.000000e+000
    endloop
  endfacet
  facet normal 0.000000e+000 -1.000000e+000 -0.000000e+000
    outer loop
      vertex   -1.150000e+002 -1.100000e+002 2.000000e+000
      vertex   -1.250000e+002 -1.100000e+002 0.000000e+000
      vertex   -1.150000e+002 -1.100000e+002 0.000000e+000
    endloop
  endfacet
  facet normal 0.000000e+000 -1.000000e+000 0.000000e+000
    outer loop
      vertex   -1.050000e+002 -1.100000e+002 2.000000e+000
      vertex   -1.050000e+002 -1.100000e+002 0.000000e+000
      vertex   -9.500000e+001 -1.100000e+002 2.000000e+000
    endloop
  endfacet
  facet normal 0.000000e+000 -1.000000e+000 -0.000000e+000
    outer loop
      vertex   -9.500000e+001 -1.100000e+002 2.000000e+000
      vertex   -1.050000e+002 -1.100000e+002 0.000000e+000
      vertex   -9.500000e+001 -1.100000e+002 0.000000e+000
    endloop
  endfacet
  facet normal 0.000000e+000 -1.000000e+000 0.000000e+000
    outer loop
      vertex   -1.450000e+002 -1.100000e+002 2.000000e+000
      vertex   -1.450000e+002 -1.100000e+002 0.000000e+000
      vertex   -1.350000e+002 -1.100000e+002 2.000000e+000
    endloop
  endfacet
  facet normal 0.000000e+000 -1.000000e+000 -0.000000e+000
    outer loop
      vertex   -1.350000e+002 -1.100000e+002 2.000000e+000
      vertex   -1.450000e+002 -1.100000e+002 0.000000e+000
      vertex   -1.350000e+002 -1.100000e+002 0.000000e+000
    endloop
  endfacet
  facet normal 1.000000e+000 -0.000000e+000 0.000000e+000
    outer loop
      vertex   -1.350000e+002 -1.100000e+002 2.000000e+000
      vertex   -1.350000e+002 -1.100000e+002 0.000000e+000
      vertex   -1.350000e+002 -1.050000e+002 2.000000e+000
    endloop
  endfacet
  facet normal 1.000000e+000 -0.000000e+000 0.000000e+000
    outer loop
      vertex   -1.350000e+002 -1.050000e+002 2.000000e+000
      vertex   -1.350000e+002 -1.100000e+002 0.000000e+000
      vertex   -1.350000e+002 -1.050000e+002 0.000000e+000
    endloop
  endfacet
  facet normal 1.000000e+000 -0.000000e+000 0.000000e+000
    outer loop
      vertex   -1.150000e+002 -1.100000e+002 2.000000e+000
      vertex   -1.150000e+002 -1.100000e+002 0.000000e+000
      vertex   -1.150000e+002 -1.050000e+002 2.000000e+000
    endloop
  endfacet
  facet normal 1.000000e+000 -0.000000e+000 0.000000e+000
    outer loop
      vertex   -1.150000e+002 -1.050000e+002 2.000000e+000
      vertex   -1.150000e+002 -1.100000e+002 0.000000e+000
      vertex   -1.150000e+002 -1.050000e+002 0.000000e+000
    endloop
  endfacet
  facet normal 1.000000e+000 -0.000000e+000 0.000000e+000
    outer loop
      vertex   -9.500000e+001 -1.100000e+002 2.000000e+000
      vertex   -9.500000e+001 -1.100000e+002 0.000000e+000
      vertex   -9.500000e+001 -1.050000e+002 2.000000e+000
    endloop
  endfacet
  facet normal 1.000000e+000 -0.000000e+000 0.000000e+000
    outer loop
      vertex   -9.500000e+001 -1.050000e+002 2.000000e+000
      vertex   -9.500000e+001 -1.100000e+002 0.000000e+000
      vertex   -9.500000e+001 -1.050000e+002 0.000000e+000
    endloop
  endfacet
  facet normal -1.000000e+000 -0.000000e+000 -0.000000e+000
    outer loop
      vertex   -1.500000e+002 -9.500000e+001 2.000000e+000
      vertex   -1.500000e+002 -9.500000e+001 0.000000e+000
      vertex   -1.500000e+002 -1.050000e+002 2.000000e+000
    endloop
  endfacet
  facet normal -1.000000e+000 -0.000000e+000 -0.000000e+000
    outer loop
      vertex   -1.500000e+002 -1.050000e+002 2.000000e+000
      vertex   -1.500000e+002 -9.500000e+001 0.000000e+000
      vertex   -1.500000e+002 -1.050000e+002 0.000000e+000
    endloop
  endfacet
  facet normal 0.000000e+000 -1.000000e+000 0.000000e+000
    outer loop
      vertex   -1.500000e+002 -1.050000e+002 2.000000e+000
      vertex   -1.500000e+002 -1.050000e+002 0.000000e+000
      vertex   -1.450000e+002 -1.050000e+002 2.000000e+000
    endloop
  endfacet
  facet normal 0.000000e+000 -1.000000e+000 -0.000000e+000
    outer loop
      vertex   -1.450000e+002 -1.050000e+002 2.000000e+000
      vertex   -1.500000e+002 -1.050000e+002 0.000000e+000
      vertex   -1.450000e+002 -1.050000e+002 0.000000e+000
    endloop
  endfacet
  facet normal -1.000000e+000 0.000000e+000 0.000000e+000
    outer loop
      vertex   -1.450000e+002 -9.500000e+001 0.000000e+000
      vertex   -1.450000e+002 -9.500000e+001 2.000000e+000
      vertex   -1.450000e+002 -8.500000e+001 0.000000e+000
    endloop
  endfacet
  facet normal -1.000000e+000 0.000000e+000 0.000000e+000
    outer loop
      vertex   -1.450000e+002 -8.500000e+001 0.000000e+000
      vertex   -1.450000e+002 -9.500000e+001 2.000000e+000
      vertex   -1.450000e+002 -8.500000e+001 2.000000e+000
    endloop
  endfacet
  facet normal -1.000000e+000 0.000000e+000 0.000000e+000
    outer loop
      vertex   -1.450000e+002 -1.100000e+002 0.000000e+000
      vertex   -1.450000e+002 -1.100000e+002 2.000000e+000
      vertex   -1.450000e+002 -1.050000e+002 0.000000e+000
    endloop
  endfacet
  facet normal -1.000000e+000 0.000000e+000 0.000000e+000
    outer loop
      vertex   -1.450000e+002 -1.050000e+002 0.000000e+000
      vertex   -1.450000e+002 -1.100000e+002 2.000000e+000
      vertex   -1.450000e+002 -1.050000e+002 2.000000e+000
    endloop
  endfacet
  facet normal -0.000000e+000 1.000000e+000 0.000000e+000
    outer loop
      vertex   -1.500000e+002 -9.500000e+001 0.000000e+000
      vertex   -1.500000e+002 -9.500000e+001 2.000000e+000
      vertex   -1.450000e+002 -9.500000e+001 0.000000e+000
    endloop
  endfacet
  facet normal 0.000000e+000 1.000000e+000 -0.000000e+000
    outer loop
      vertex   -1.450000e+002 -9.500000e+001 0.000000e+000
      vertex   -1.500000e+002 -9.500000e+001 2.000000e+000
      vertex   -1.450000e+002 -9.500000e+001 2.000000e+000
    endloop
  endfacet
  facet normal -0.000000e+000 -1.000000e+000 0.000000e+000
    outer loop
      vertex   -1.250000e+002 -1.050000e+002 0.000000e+000
      vertex   -1.250000e+002 -1.050000e+002 2.000000e+000
      vertex   -1.350000e+002 -1.050000e+002 0.000000e+000
    endloop
  endfacet
  facet normal 0.000000e+000 -1.000000e+000 0.000000e+000
    outer loop
      vertex   -1.350000e+002 -1.050000e+002 0.000000e+000
      vertex   -1.250000e+002 -1.050000e+002 2.000000e+000
      vertex   -1.350000e+002 -1.050000e+002 2.000000e+000
    endloop
  endfacet
  facet normal -1.000000e+000 0.000000e+000 0.000000e+000
    outer loop
      vertex   -1.050000e+002 -1.100000e+002 0.000000e+000
      vertex   -1.050000e+002 -1.100000e+002 2.000000e+000
      vertex   -1.050000e+002 -1.050000e+002 0.000000e+000
    endloop
  endfacet
  facet normal -1.000000e+000 0.000000e+000 0.000000e+000
    outer loop
      vertex   -1.050000e+002 -1.050000e+002 0.000000e+000
      vertex   -1.050000e+002 -1.100000e+002 2.000000e+000
      vertex   -1.050000e+002 -1.050000e+002 2.000000e+000
    endloop
  endfacet
  facet normal 2.842171e-015 1.000000e+000 0.000000e+000
    outer loop
      vertex   -9.000000e+001 -9.500000e+001 2.000000e+000
      vertex   -9.000000e+001 -9.500000e+001 0.000000e+000
      vertex   -9.500000e+001 -9.500000e+001 2.000000e+000
    endloop
  endfacet
  facet normal 2.842171e-015 1.000000e+000 0.000000e+000
    outer loop
      vertex   -9.500000e+001 -9.500000e+001 2.000000e+000
      vertex   -9.000000e+001 -9.500000e+001 0.000000e+000
      vertex   -9.500000e+001 -9.500000e+001 0.000000e+000
    endloop
  endfacet
  facet normal -1.000000e+000 0.000000e+000 0.000000e+000
    outer loop
      vertex   -1.250000e+002 -1.100000e+002 0.000000e+000
      vertex   -1.250000e+002 -1.100000e+002 2.000000e+000
      vertex   -1.250000e+002 -1.050000e+002 0.000000e+000
    endloop
  endfacet
  facet normal -1.000000e+000 0.000000e+000 0.000000e+000
    outer loop
      vertex   -1.250000e+002 -1.050000e+002 0.000000e+000
      vertex   -1.250000e+002 -1.100000e+002 2.000000e+000
      vertex   -1.250000e+002 -1.050000e+002 2.000000e+000
    endloop
  endfacet
  facet normal 0.000000e+000 -1.000000e+000 0.000000e+000
    outer loop
      vertex   -1.150000e+002 -1.050000e+002 2.000000e+000
      vertex   -1.150000e+002 -1.050000e+002 0.000000e+000
      vertex   -1.050000e+002 -1.050000e+002 2.000000e+000
    endloop
  endfacet
  facet normal 0.000000e+000 -1.000000e+000 -0.000000e+000
    outer loop
      vertex   -1.050000e+002 -1.050000e+002 2.000000e+000
      vertex   -1.150000e+002 -1.050000e+002 0.000000e+000
      vertex   -1.050000e+002 -1.050000e+002 0.000000e+000
    endloop
  endfacet
  facet normal 1.000000e+000 1.421085e-015 0.000000e+000
    outer loop
      vertex   -9.500000e+001 -9.500000e+001 2.000000e+000
      vertex   -9.500000e+001 -9.500000e+001 0.000000e+000
      vertex   -9.500000e+001 -8.500000e+001 2.000000e+000
    endloop
  endfacet
  facet normal 1.000000e+000 1.421085e-015 0.000000e+000
    outer loop
      vertex   -9.500000e+001 -8.500000e+001 2.000000e+000
      vertex   -9.500000e+001 -9.500000e+001 0.000000e+000
      vertex   -9.500000e+001 -8.500000e+001 0.000000e+000
    endloop
  endfacet
  facet normal -1.000000e+000 -0.000000e+000 -0.000000e+000
    outer loop
      vertex   -1.250000e+002 -3.000000e+001 2.000000e+000
      vertex   -1.250000e+002 -3.000000e+001 0.000000e+000
      vertex   -1.250000e+002 -3.500000e+001 2.000000e+000
    endloop
  endfacet
  facet normal -1.000000e+000 -0.000000e+000 -0.000000e+000
    outer loop
      vertex   -1.250000e+002 -3.500000e+001 2.000000e+000
      vertex   -1.250000e+002 -3.000000e+001 0.000000e+000
      vertex   -1.250000e+002 -3.500000e+001 0.000000e+000
    endloop
  endfacet
  facet normal -1.000000e+000 -0.000000e+000 -0.000000e+000
    outer loop
      vertex   -1.050000e+002 -3.000000e+001 2.000000e+000
      vertex   -1.050000e+002 -3.000000e+001 0.000000e+000
      vertex   -1.050000e+002 -3.500000e+001 2.000000e+000
    endloop
  endfacet
  facet normal -1.000000e+000 -0.000000e+000 -0.000000e+000
    outer loop
      vertex   -1.050000e+002 -3.500000e+001 2.000000e+000
      vertex   -1.050000e+002 -3.000000e+001 0.000000e+000
      vertex   -1.050000e+002 -3.500000e+001 0.000000e+000
    endloop
  endfacet
  facet normal -1.000000e+000 -0.000000e+000 -0.000000e+000
    outer loop
      vertex   -1.450000e+002 -3.000000e+001 2.000000e+000
      vertex   -1.450000e+002 -3.000000e+001 0.000000e+000
      vertex   -1.450000e+002 -3.500000e+001 2.000000e+000
    endloop
  endfacet
  facet normal -1.000000e+000 -0.000000e+000 -0.000000e+000
    outer loop
      vertex   -1.450000e+002 -3.500000e+001 2.000000e+000
      vertex   -1.450000e+002 -3.000000e+001 0.000000e+000
      vertex   -1.450000e+002 -3.500000e+001 0.000000e+000
    endloop
  endfacet
  facet normal -2.131628e-015 1.000000e+000 0.000000e+000
    outer loop
      vertex   -1.250000e+002 -3.500000e+001 2.000000e+000
      vertex   -1.250000e+002 -3.500000e+001 0.000000e+000
      vertex   -1.350000e+002 -3.500000e+001 2.000000e+000
    endloop
  endfacet
  facet normal -2.131628e-015 1.000000e+000 0.000000e+000
    outer loop
      vertex   -1.350000e+002 -3.500000e+001 2.000000e+000
      vertex   -1.250000e+002 -3.500000e+001 0.000000e+000
      vertex   -1.350000e+002 -3.500000e+001 0.000000e+000
    endloop
  endfacet
  facet normal 0.000000e+000 1.000000e+000 -3.552714e-015
    outer loop
      vertex   -9.000000e+001 -3.500000e+001 2.000000e+000
      vertex   -9.000000e+001 -3.500000e+001 0.000000e+000
      vertex   -9.500000e+001 -3.500000e+001 2.000000e+000
    endloop
  endfacet
  facet normal 1.421085e-015 1.000000e+000 0.000000e+000
    outer loop
      vertex   -9.500000e+001 -3.500000e+001 2.000000e+000
      vertex   -9.000000e+001 -3.500000e+001 0.000000e+000
      vertex   -9.500000e+001 -3.500000e+001 0.000000e+000
    endloop
  endfacet
  facet normal 0.000000e+000 1.000000e+000 0.000000e+000
    outer loop
      vertex   -1.050000e+002 -3.500000e+001 2.000000e+000
      vertex   -1.050000e+002 -3.500000e+001 0.000000e+000
      vertex   -1.150000e+002 -3.500000e+001 2.000000e+000
    endloop
  endfacet
  facet normal 0.000000e+000 1.000000e+000 0.000000e+000
    outer loop
      vertex   -1.150000e+002 -3.500000e+001 2.000000e+000
      vertex   -1.050000e+002 -3.500000e+001 0.000000e+000
      vertex   -1.150000e+002 -3.500000e+001 0.000000e+000
    endloop
  endfacet
  facet normal -0.000000e+000 1.000000e+000 0.000000e+000
    outer loop
      vertex   -1.500000e+002 -3.500000e+001 0.000000e+000
      vertex   -1.500000e+002 -3.500000e+001 2.000000e+000
      vertex   -1.450000e+002 -3.500000e+001 0.000000e+000
    endloop
  endfacet
  facet normal 0.000000e+000 1.000000e+000 -0.000000e+000
    outer loop
      vertex   -1.450000e+002 -3.500000e+001 0.000000e+000
      vertex   -1.500000e+002 -3.500000e+001 2.000000e+000
      vertex   -1.450000e+002 -3.500000e+001 2.000000e+000
    endloop
  endfacet
  facet normal 1.000000e+000 0.000000e+000 -0.000000e+000
    outer loop
      vertex   -1.150000e+002 -3.000000e+001 0.000000e+000
      vertex   -1.150000e+002 -3.000000e+001 2.000000e+000
      vertex   -1.150000e+002 -3.500000e+001 0.000000e+000
    endloop
  endfacet
  facet normal 1.000000e+000 0.000000e+000 -0.000000e+000
    outer loop
      vertex   -1.150000e+002 -3.500000e+001 0.000000e+000
      vertex   -1.150000e+002 -3.000000e+001 2.000000e+000
      vertex   -1.150000e+002 -3.500000e+001 2.000000e+000
    endloop
  endfacet
  facet normal 1.000000e+000 0.000000e+000 -0.000000e+000
    outer loop
      vertex   -9.500000e+001 -3.000000e+001 0.000000e+000
      vertex   -9.500000e+001 -3.000000e+001 2.000000e+000
      vertex   -9.500000e+001 -3.500000e+001 0.000000e+000
    endloop
  endfacet
  facet normal 1.000000e+000 0.000000e+000 -0.000000e+000
    outer loop
      vertex   -9.500000e+001 -3.500000e+001 0.000000e+000
      vertex   -9.500000e+001 -3.000000e+001 2.000000e+000
      vertex   -9.500000e+001 -3.500000e+001 2.000000e+000
    endloop
  endfacet
  facet normal 1.000000e+000 -5.684342e-015 1.421085e-014
    outer loop
      vertex   -1.350000e+002 -3.000000e+001 0.000000e+000
      vertex   -1.350000e+002 -3.000000e+001 2.000000e+000
      vertex   -1.350000e+002 -3.500000e+001 0.000000e+000
    endloop
  endfacet
  facet normal 1.000000e+000 0.000000e+000 -0.000000e+000
    outer loop
      vertex   -1.350000e+002 -3.500000e+001 0.000000e+000
      vertex   -1.350000e+002 -3.000000e+001 2.000000e+000
      vertex   -1.350000e+002 -3.500000e+001 2.000000e+000
    endloop
  endfacet
  facet normal -0.000000e+000 1.000000e+000 0.000000e+000
    outer loop
      vertex   -1.250000e+002 -3.000000e+001 2.000000e+000
      vertex   -1.150000e+002 -3.000000e+001 2.000000e+000
      vertex   -1.250000e+002 -3.000000e+001 0.000000e+000
    endloop
  endfacet
  facet normal -0.000000e+000 1.000000e+000 0.000000e+000
    outer loop
      vertex   -1.250000e+002 -3.000000e+001 0.000000e+000
      vertex   -1.150000e+002 -3.000000e+001 2.000000e+000
      vertex   -1.150000e+002 -3.000000e+001 0.000000e+000
    endloop
  endfacet
  facet normal -0.000000e+000 1.000000e+000 0.000000e+000
    outer loop
      vertex   -1.050000e+002 -3.000000e+001 2.000000e+000
      vertex   -9.500000e+001 -3.000000e+001 2.000000e+000
      vertex   -1.050000e+002 -3.000000e+001 0.000000e+000
    endloop
  endfacet
  facet normal -0.000000e+000 1.000000e+000 0.000000e+000
    outer loop
      vertex   -1.050000e+002 -3.000000e+001 0.000000e+000
      vertex   -9.500000e+001 -3.000000e+001 2.000000e+000
      vertex   -9.500000e+001 -3.000000e+001 0.000000e+000
    endloop
  endfacet
  facet normal -0.000000e+000 1.000000e+000 0.000000e+000
    outer loop
      vertex   -1.450000e+002 -3.000000e+001 2.000000e+000
      vertex   -1.350000e+002 -3.000000e+001 2.000000e+000
      vertex   -1.450000e+002 -3.000000e+001 0.000000e+000
    endloop
  endfacet
  facet normal -0.000000e+000 1.000000e+000 0.000000e+000
    outer loop
      vertex   -1.450000e+002 -3.000000e+001 0.000000e+000
      vertex   -1.350000e+002 -3.000000e+001 2.000000e+000
      vertex   -1.350000e+002 -3.000000e+001 0.000000e+000
    endloop
  endfacet
  facet normal 0.000000e+000 -1.000000e+000 -7.105427e-015
    outer loop
      vertex   -9.000000e+001 -1.050000e+002 0.000000e+000
      vertex   -9.000000e+001 -1.050000e+002 2.000000e+000
      vertex   -9.500000e+001 -1.050000e+002 0.000000e+000
    endloop
  endfacet
  facet normal -2.842171e-015 -1.000000e+000 0.000000e+000
    outer loop
      vertex   -9.500000e+001 -1.050000e+002 0.000000e+000
      vertex   -9.000000e+001 -1.050000e+002 2.000000e+000
      vertex   -9.500000e+001 -1.050000e+002 2.000000e+000
    endloop
  endfacet
  facet normal 0.000000e+000 -1.000000e+000 -7.105427e-015
    outer loop
      vertex   -9.000000e+001 -8.500000e+001 0.000000e+000
      vertex   -9.000000e+001 -8.500000e+001 2.000000e+000
      vertex   -9.500000e+001 -8.500000e+001 0.000000e+000
    endloop
  endfacet
  facet normal -2.842171e-015 -1.000000e+000 0.000000e+000
    outer loop
      vertex   -9.500000e+001 -8.500000e+001 0.000000e+000
      vertex   -9.000000e+001 -8.500000e+001 2.000000e+000
      vertex   -9.500000e+001 -8.500000e+001 2.000000e+000
    endloop
  endfacet
  facet normal 0.000000e+000 -1.000000e+000 -7.105427e-015
    outer loop
      vertex   -9.000000e+001 -6.500000e+001 0.000000e+000
      vertex   -9.000000e+001 -6.500000e+001 2.000000e+000
      vertex   -9.500000e+001 -6.500000e+001 0.000000e+000
    endloop
  endfacet
  facet normal -2.842171e-015 -1.000000e+000 0.000000e+000
    outer loop
      vertex   -9.500000e+001 -6.500000e+001 0.000000e+000
      vertex   -9.000000e+001 -6.500000e+001 2.000000e+000
      vertex   -9.500000e+001 -6.500000e+001 2.000000e+000
    endloop
  endfacet
  facet normal 0.000000e+000 -1.000000e+000 -7.105427e-015
    outer loop
      vertex   -9.000000e+001 -4.500000e+001 0.000000e+000
      vertex   -9.000000e+001 -4.500000e+001 2.000000e+000
      vertex   -9.500000e+001 -4.500000e+001 0.000000e+000
    endloop
  endfacet
  facet normal -2.842171e-015 -1.000000e+000 0.000000e+000
    outer loop
      vertex   -9.500000e+001 -4.500000e+001 0.000000e+000
      vertex   -9.000000e+001 -4.500000e+001 2.000000e+000
      vertex   -9.500000e+001 -4.500000e+001 2.000000e+000
    endloop
  endfacet
  facet normal 1.000000e+000 0.000000e+000 0.000000e+000
    outer loop
      vertex   -9.000000e+001 -3.500000e+001 2.000000e+000
      vertex   -9.000000e+001 -4.500000e+001 2.000000e+000
      vertex   -9.000000e+001 -3.500000e+001 0.000000e+000
    endloop
  endfacet
  facet normal 1.000000e+000 0.000000e+000 0.000000e+000
    outer loop
      vertex   -9.000000e+001 -3.500000e+001 0.000000e+000
      vertex   -9.000000e+001 -4.500000e+001 2.000000e+000
      vertex   -9.000000e+001 -4.500000e+001 0.000000e+000
    endloop
  endfacet
  facet normal 1.000000e+000 0.000000e+000 0.000000e+000
    outer loop
      vertex   -9.000000e+001 -5.500000e+001 2.000000e+000
      vertex   -9.000000e+001 -6.500000e+001 2.000000e+000
      vertex   -9.000000e+001 -5.500000e+001 0.000000e+000
    endloop
  endfacet
  facet normal 1.000000e+000 0.000000e+000 0.000000e+000
    outer loop
      vertex   -9.000000e+001 -5.500000e+001 0.000000e+000
      vertex   -9.000000e+001 -6.500000e+001 2.000000e+000
      vertex   -9.000000e+001 -6.500000e+001 0.000000e+000
    endloop
  endfacet
  facet normal 1.000000e+000 0.000000e+000 0.000000e+000
    outer loop
      vertex   -9.000000e+001 -7.500000e+001 2.000000e+000
      vertex   -9.000000e+001 -8.500000e+001 2.000000e+000
      vertex   -9.000000e+001 -7.500000e+001 0.000000e+000
    endloop
  endfacet
  facet normal 1.000000e+000 0.000000e+000 0.000000e+000
    outer loop
      vertex   -9.000000e+001 -7.500000e+001 0.000000e+000
      vertex   -9.000000e+001 -8.500000e+001 2.000000e+000
      vertex   -9.000000e+001 -8.500000e+001 0.000000e+000
    endloop
  endfacet
  facet normal 1.000000e+000 0.000000e+000 0.000000e+000
    outer loop
      vertex   -9.000000e+001 -9.500000e+001 2.000000e+000
      vertex   -9.000000e+001 -1.050000e+002 2.000000e+000
      vertex   -9.000000e+001 -9.500000e+001 0.000000e+000
    endloop
  endfacet
  facet normal 1.000000e+000 0.000000e+000 0.000000e+000
    outer loop
      vertex   -9.000000e+001 -9.500000e+001 0.000000e+000
      vertex   -9.000000e+001 -1.050000e+002 2.000000e+000
      vertex   -9.000000e+001 -1.050000e+002 0.000000e+000
    endloop
  endfacet
  facet normal -0.000000e+000 -1.000000e+000 0.000000e+000
    outer loop
      vertex   -1.110000e+002 -4.900000e+001 2.000000e+000
      vertex   -1.110000e+002 -4.900000e+001 4.200000e+001
      vertex   -1.290000e+002 -4.900000e+001 2.000000e+000
    endloop
  endfacet
  facet normal 0.000000e+000 -1.000000e+000 0.000000e+000
    outer loop
      vertex   -1.290000e+002 -4.900000e+001 2.000000e+000
      vertex   -1.110000e+002 -4.900000e+001 4.200000e+001
      vertex   -1.290000e+002 -4.900000e+001 4.200000e+001
    endloop
  endfacet
  facet normal 0.000000e+000 -1.000000e+000 0.000000e+000
    outer loop
      vertex   -1.290000e+002 -4.900000e+001 4.200000e+001
      vertex   -1.110000e+002 -4.900000e+001 4.200000e+001
      vertex   -1.110000e+002 -4.900000e+001 8.200000e+001
    endloop
  endfacet
  facet normal 0.000000e+000 -1.000000e+000 0.000000e+000
    outer loop
      vertex   -1.290000e+002 -4.900000e+001 8.200000e+001
      vertex   -1.290000e+002 -4.900000e+001 4.200000e+001
      vertex   -1.110000e+002 -4.900000e+001 8.200000e+001
    endloop
  endfacet
  facet normal 1.000000e+000 0.000000e+000 -0.000000e+000
    outer loop
      vertex   -1.290000e+002 -4.900000e+001 2.000000e+000
      vertex   -1.290000e+002 -4.900000e+001 4.200000e+001
      vertex   -1.290000e+002 -9.100000e+001 2.000000e+000
    endloop
  endfacet
  facet normal 1.000000e+000 0.000000e+000 -0.000000e+000
    outer loop
      vertex   -1.290000e+002 -9.100000e+001 2.000000e+000
      vertex   -1.290000e+002 -4.900000e+001 4.200000e+001
      vertex   -1.290000e+002 -9.100000e+001 4.200000e+001
    endloop
  endfacet
  facet normal 1.000000e+000 0.000000e+000 0.000000e+000
    outer loop
      vertex   -1.290000e+002 -9.100000e+001 4.200000e+001
      vertex   -1.290000e+002 -4.900000e+001 4.200000e+001
      vertex   -1.290000e+002 -4.900000e+001 8.200000e+001
    endloop
  endfacet
  facet normal 1.000000e+000 -0.000000e+000 0.000000e+000
    outer loop
      vertex   -1.290000e+002 -9.100000e+001 8.200000e+001
      vertex   -1.290000e+002 -9.100000e+001 4.200000e+001
      vertex   -1.290000e+002 -4.900000e+001 8.200000e+001
    endloop
  endfacet
  facet normal -0.000000e+000 1.000000e+000 0.000000e+000
    outer loop
      vertex   -1.290000e+002 -9.100000e+001 2.000000e+000
      vertex   -1.290000e+002 -9.100000e+001 4.200000e+001
      vertex   -1.110000e+002 -9.100000e+001 2.000000e+000
    endloop
  endfacet
  facet normal 0.000000e+000 1.000000e+000 -0.000000e+000
    outer loop
      vertex   -1.110000e+002 -9.100000e+001 2.000000e+000
      vertex   -1.290000e+002 -9.100000e+001 4.200000e+001
      vertex   -1.110000e+002 -9.100000e+001 4.200000e+001
    endloop
  endfacet
  facet normal 0.000000e+000 1.000000e+000 -0.000000e+000
    outer loop
      vertex   -1.110000e+002 -9.100000e+001 4.200000e+001
      vertex   -1.290000e+002 -9.100000e+001 4.200000e+001
      vertex   -1.290000e+002 -9.100000e+001 8.200000e+001
    endloop
  endfacet
  facet normal 0.000000e+000 1.000000e+000 0.000000e+000
    outer loop
      vertex   -1.110000e+002 -9.100000e+001 8.200000e+001
      vertex   -1.110000e+002 -9.100000e+001 4.200000e+001
      vertex   -1.290000e+002 -9.100000e+001 8.200000e+001
    endloop
  endfacet
  facet normal -1.000000e+000 0.000000e+000 0.000000e+000
    outer loop
      vertex   -1.110000e+002 -9.100000e+001 2.000000e+000
      vertex   -1.110000e+002 -9.100000e+001 4.200000e+001
      vertex   -1.110000e+002 -4.900000e+001 2.000000e+000
    endloop
  endfacet
  facet normal -1.000000e+000 0.000000e+000 0.000000e+000
    outer loop
      vertex   -1.110000e+002 -4.900000e+001 2.000000e+000
      vertex   -1.110000e+002 -9.100000e+001 4.200000e+001
      vertex   -1.110000e+002 -4.900000e+001 4.200000e+001
    endloop
  endfacet
  facet normal -1.000000e+000 0.000000e+000 0.000000e+000
    outer loop
      vertex   -1.110000e+002 -4.900000e+001 4.200000e+001
      vertex   -1.110000e+002 -9.100000e+001 4.200000e+001
      vertex   -1.110000e+002 -9.100000e+001 8.200000e+001
    endloop
  endfacet
  facet normal -1.000000e+000 -0.000000e+000 -0.000000e+000
    outer loop
      vertex   -1.110000e+002 -4.900000e+001 8.200000e+001
      vertex   -1.110000e+002 -4.900000e+001 4.200000e+001
      vertex   -1.110000e+002 -9.100000e+001 8.200000e+001
    endloop
  endfacet
  facet normal -0.000000e+000 -0.000000e+000 1.000000e+000
    outer loop
      vertex   -1.290000e+002 -9.100000e+001 8.200000e+001
      vertex   -1.090000e+002 -9.300000e+001 8.200000e+001
      vertex   -1.110000e+002 -9.100000e+001 8.200000e+001
    endloop
  endfacet
  facet normal -0.000000e+000 0.000000e+000 1.000000e+000
    outer loop
      vertex   -1.290000e+002 -9.100000e+001 8.200000e+001
      vertex   -1.310000e+002 -9.300000e+001 8.200000e+001
      vertex   -1.090000e+002 -9.300000e+001 8.200000e+001
    endloop
  endfacet
  facet normal 0.000000e+000 0.000000e+000 1.000000e+000
    outer loop
      vertex   -1.290000e+002 -9.100000e+001 8.200000e+001
      vertex   -1.310000e+002 -4.700000e+001 8.200000e+001
      vertex   -1.310000e+002 -9.300000e+001 8.200000e+001
    endloop
  endfacet
  facet normal 0.000000e+000 -0.000000e+000 1.000000e+000
    outer loop
      vertex   -1.290000e+002 -9.100000e+001 8.200000e+001
      vertex   -1.290000e+002 -4.900000e+001 8.200000e+001
      vertex   -1.310000e+002 -4.700000e+001 8.200000e+001
    endloop
  endfacet
  facet normal -0.000000e+000 0.000000e+000 1.000000e+000
    outer loop
      vertex   -1.310000e+002 -4.700000e+001 8.200000e+001
      vertex   -1.290000e+002 -4.900000e+001 8.200000e+001
      vertex   -1.110000e+002 -4.900000e+001 8.200000e+001
    endloop
  endfacet
  facet normal 0.000000e+000 0.000000e+000 1.000000e+000
    outer loop
      vertex   -1.090000e+002 -4.700000e+001 8.200000e+001
      vertex   -1.110000e+002 -4.900000e+001 8.200000e+001
      vertex   -1.110000e+002 -9.100000e+001 8.200000e+001
    endloop
  endfacet
  facet normal 0.000000e+000 -0.000000e+000 1.000000e+000
    outer loop
      vertex   -1.090000e+002 -9.300000e+001 8.200000e+001
      vertex   -1.090000e+002 -4.700000e+001 8.200000e+001
      vertex   -1.110000e+002 -9.100000e+001 8.200000e+001
    endloop
  endfacet
  facet normal -0.000000e+000 0.000000e+000 1.000000e+000
    outer loop
      vertex   -1.310000e+002 -4.700000e+001 8.200000e+001
      vertex   -1.110000e+002 -4.900000e+001 8.200000e+001
      vertex   -1.090000e+002 -4.700000e+001 8.200000e+001
    endloop
  endfacet
  facet normal -0.000000e+000 1.000000e+000 0.000000e+000
    outer loop
      vertex   -1.310000e+002 -4.700000e+001 2.000000e+000
      vertex   -1.310000e+002 -4.700000e+001 4.200000e+001
      vertex   -1.090000e+002 -4.700000e+001 2.000000e+000
    endloop
  endfacet
  facet normal 0.000000e+000 1.000000e+000 -0.000000e+000
    outer loop
      vertex   -1.090000e+002 -4.700000e+001 2.000000e+000
      vertex   -1.310000e+002 -4.700000e+001 4.200000e+001
      vertex   -1.090000e+002 -4.700000e+001 4.200000e+001
    endloop
  endfacet
  facet normal 0.000000e+000 1.000000e+000 -0.000000e+000
    outer loop
      vertex   -1.090000e+002 -4.700000e+001 4.200000e+001
      vertex   -1.310000e+002 -4.700000e+001 4.200000e+001
      vertex   -1.310000e+002 -4.700000e+001 8.200000e+001
    endloop
  endfacet
  facet normal 0.000000e+000 1.000000e+000 0.000000e+000
    outer loop
      vertex   -1.090000e+002 -4.700000e+001 8.200000e+001
      vertex   -1.090000e+002 -4.700000e+001 4.200000e+001
      vertex   -1.310000e+002 -4.700000e+001 8.200000e+001
    endloop
  endfacet
  facet normal -1.000000e+000 0.000000e+000 0.000000e+000
    outer loop
      vertex   -1.310000e+002 -9.300000e+001 2.000000e+000
      vertex   -1.310000e+002 -9.300000e+001 4.200000e+001
      vertex   -1.310000e+002 -4.700000e+001 2.000000e+000
    endloop
  endfacet
  facet normal -1.000000e+000 0.000000e+000 0.000000e+000
    outer loop
      vertex   -1.310000e+002 -4.700000e+001 2.000000e+000
      vertex   -1.310000e+002 -9.300000e+001 4.200000e+001
      vertex   -1.310000e+002 -4.700000e+001 4.200000e+001
    endloop
  endfacet
  facet normal -1.000000e+000 0.000000e+000 0.000000e+000
    outer loop
      vertex   -1.310000e+002 -4.700000e+001 4.200000e+001
      vertex   -1.310000e+002 -9.300000e+001 4.200000e+001
      vertex   -1.310000e+002 -9.300000e+001 8.200000e+001
    endloop
  endfacet
  facet normal -1.000000e+000 -0.000000e+000 -0.000000e+000
    outer loop
      vertex   -1.310000e+002 -4.700000e+001 8.200000e+001
      vertex   -1.310000e+002 -4.700000e+001 4.200000e+001
      vertex   -1.310000e+002 -9.300000e+001 8.200000e+001
    endloop
  endfacet
  facet normal -0.000000e+000 -1.000000e+000 0.000000e+000
    outer loop
      vertex   -1.090000e+002 -9.300000e+001 2.000000e+000
      vertex   -1.090000e+002 -9.300000e+001 4.200000e+001
      vertex   -1.310000e+002 -9.300000e+001 2.000000e+000
    endloop
  endfacet
  facet normal 0.000000e+000 -1.000000e+000 0.000000e+000
    outer loop
      vertex   -1.310000e+002 -9.300000e+001 2.000000e+000
      vertex   -1.090000e+002 -9.300000e+001 4.200000e+001
      vertex   -1.310000e+002 -9.300000e+001 4.200000e+001
    endloop
  endfacet
  facet normal 0.000000e+000 -1.000000e+000 0.000000e+000
    outer loop
      vertex   -1.310000e+002 -9.300000e+001 4.200000e+001
      vertex   -1.090000e+002 -9.300000e+001 4.200000e+001
      vertex   -1.090000e+002 -9.300000e+001 8.200000e+001
    endloop
  endfacet
  facet normal 0.000000e+000 -1.000000e+000 0.000000e+000
    outer loop
      vertex   -1.310000e+002 -9.300000e+001 8.200000e+001
      vertex   -1.310000e+002 -9.300000e+001 4.200000e+001
      vertex   -1.090000e+002 -9.300000e+001 8.200000e+001
    endloop
  endfacet
  facet normal 1.000000e+000 0.000000e+000 -0.000000e+000
    outer loop
      vertex   -1.090000e+002 -4.700000e+001 2.000000e+000
      vertex   -1.090000e+002 -4.700000e+001 4.200000e+001
      vertex   -1.090000e+002 -9.300000e+001 2.000000e+000
    endloop
  endfacet
  facet normal 1.000000e+000 0.000000e+000 -0.000000e+000
    outer loop
      vertex   -1.090000e+002 -9.300000e+001 2.000000e+000
      vertex   -1.090000e+002 -4.700000e+001 4.200000e+001
      vertex   -1.090000e+002 -9.300000e+001 4.200000e+001
    endloop
  endfacet
  facet normal 1.000000e+000 0.000000e+000 0.000000e+000
    outer loop
      vertex   -1.090000e+002 -9.300000e+001 4.200000e+001
      vertex   -1.090000e+002 -4.700000e+001 4.200000e+001
      vertex   -1.090000e+002 -4.700000e+001 8.200000e+001
    endloop
  endfacet
  facet normal 1.000000e+000 -0.000000e+000 0.000000e+000
    outer loop
      vertex   -1.090000e+002 -9.300000e+001 8.200000e+001
      vertex   -1.090000e+002 -9.300000e+001 4.200000e+001
      vertex   -1.090000e+002 -4.700000e+001 8.200000e+001
    endloop
  endfacet
endsolid
