solid ascii
  facet normal 0.000000e+000 0.000000e+000 1.000000e+000
    outer loop
      vertex   -4.000000e+001 -1.800000e+001 4.000000e+000
      vertex   -6.000000e+001 -1.800000e+001 4.000000e+000
      vertex   -4.000000e+001 -2.250000e+001 4.000000e+000
    endloop
  endfacet
  facet normal 0.000000e+000 0.000000e+000 1.000000e+000
    outer loop
      vertex   -4.000000e+001 -2.250000e+001 4.000000e+000
      vertex   -6.000000e+001 -1.800000e+001 4.000000e+000
      vertex   -6.000000e+001 -2.250000e+001 4.000000e+000
    endloop
  endfacet
  facet normal 0.000000e+000 1.000000e+000 -0.000000e+000
    outer loop
      vertex   -4.000000e+001 -2.250000e+001 4.000000e+000
      vertex   -6.000000e+001 -2.250000e+001 4.000000e+000
      vertex   -4.000000e+001 -2.250000e+001 4.200000e+001
    endloop
  endfacet
  facet normal 0.000000e+000 1.000000e+000 0.000000e+000
    outer loop
      vertex   -4.000000e+001 -2.250000e+001 4.200000e+001
      vertex   -6.000000e+001 -2.250000e+001 4.000000e+000
      vertex   -7.500000e+001 -2.250000e+001 4.000000e+001
    endloop
  endfacet
  facet normal 0.000000e+000 1.000000e+000 0.000000e+000
    outer loop
      vertex   -7.500000e+001 -2.250000e+001 8.000000e+001
      vertex   -4.000000e+001 -2.250000e+001 4.200000e+001
      vertex   -7.500000e+001 -2.250000e+001 4.000000e+001
    endloop
  endfacet
  facet normal -0.000000e+000 1.000000e+000 0.000000e+000
    outer loop
      vertex   -7.500000e+001 -2.250000e+001 8.000000e+001
      vertex   -4.000000e+001 -2.250000e+001 8.000000e+001
      vertex   -4.000000e+001 -2.250000e+001 4.200000e+001
    endloop
  endfacet
  facet normal 0.000000e+000 1.000000e+000 -0.000000e+000
    outer loop
      vertex   -6.000000e+001 -2.250000e+001 0.000000e+000
      vertex   -7.500000e+001 -2.250000e+001 0.000000e+000
      vertex   -6.000000e+001 -2.250000e+001 4.000000e+000
    endloop
  endfacet
  facet normal 0.000000e+000 1.000000e+000 -0.000000e+000
    outer loop
      vertex   -6.000000e+001 -2.250000e+001 4.000000e+000
      vertex   -7.500000e+001 -2.250000e+001 0.000000e+000
      vertex   -7.500000e+001 -2.250000e+001 4.000000e+001
    endloop
  endfacet
  facet normal 0.000000e+000 0.000000e+000 1.000000e+000
    outer loop
      vertex   -4.000000e+001 -3.750000e+001 4.000000e+000
      vertex   -6.000000e+001 -3.750000e+001 4.000000e+000
      vertex   -4.000000e+001 -4.200000e+001 4.000000e+000
    endloop
  endfacet
  facet normal 0.000000e+000 0.000000e+000 1.000000e+000
    outer loop
      vertex   -4.000000e+001 -4.200000e+001 4.000000e+000
      vertex   -6.000000e+001 -3.750000e+001 4.000000e+000
      vertex   -6.000000e+001 -4.200000e+001 4.000000e+000
    endloop
  endfacet
  facet normal -0.000000e+000 -1.000000e+000 0.000000e+000
    outer loop
      vertex   -4.200000e+001 -2.450000e+001 0.000000e+000
      vertex   -4.200000e+001 -2.450000e+001 4.000000e+001
      vertex   -7.300000e+001 -2.450000e+001 0.000000e+000
    endloop
  endfacet
  facet normal 0.000000e+000 -1.000000e+000 0.000000e+000
    outer loop
      vertex   -7.300000e+001 -2.450000e+001 0.000000e+000
      vertex   -4.200000e+001 -2.450000e+001 4.000000e+001
      vertex   -7.300000e+001 -2.450000e+001 4.000000e+001
    endloop
  endfacet
  facet normal 0.000000e+000 -1.000000e+000 0.000000e+000
    outer loop
      vertex   -7.300000e+001 -2.450000e+001 4.000000e+001
      vertex   -4.200000e+001 -2.450000e+001 4.000000e+001
      vertex   -4.200000e+001 -2.450000e+001 8.000000e+001
    endloop
  endfacet
  facet normal 0.000000e+000 -1.000000e+000 0.000000e+000
    outer loop
      vertex   -7.300000e+001 -2.450000e+001 8.000000e+001
      vertex   -7.300000e+001 -2.450000e+001 4.000000e+001
      vertex   -4.200000e+001 -2.450000e+001 8.000000e+001
    endloop
  endfacet
  facet normal 1.000000e+000 0.000000e+000 -0.000000e+000
    outer loop
      vertex   -7.300000e+001 -2.450000e+001 0.000000e+000
      vertex   -7.300000e+001 -2.450000e+001 4.000000e+001
      vertex   -7.300000e+001 -3.550000e+001 0.000000e+000
    endloop
  endfacet
  facet normal 1.000000e+000 0.000000e+000 -0.000000e+000
    outer loop
      vertex   -7.300000e+001 -3.550000e+001 0.000000e+000
      vertex   -7.300000e+001 -2.450000e+001 4.000000e+001
      vertex   -7.300000e+001 -3.550000e+001 4.000000e+001
    endloop
  endfacet
  facet normal 1.000000e+000 0.000000e+000 0.000000e+000
    outer loop
      vertex   -7.300000e+001 -3.550000e+001 4.000000e+001
      vertex   -7.300000e+001 -2.450000e+001 4.000000e+001
      vertex   -7.300000e+001 -2.450000e+001 8.000000e+001
    endloop
  endfacet
  facet normal 1.000000e+000 -0.000000e+000 0.000000e+000
    outer loop
      vertex   -7.300000e+001 -3.550000e+001 8.000000e+001
      vertex   -7.300000e+001 -3.550000e+001 4.000000e+001
      vertex   -7.300000e+001 -2.450000e+001 8.000000e+001
    endloop
  endfacet
  facet normal -0.000000e+000 1.000000e+000 0.000000e+000
    outer loop
      vertex   -7.300000e+001 -3.550000e+001 0.000000e+000
      vertex   -7.300000e+001 -3.550000e+001 4.000000e+001
      vertex   -4.200000e+001 -3.550000e+001 0.000000e+000
    endloop
  endfacet
  facet normal 0.000000e+000 1.000000e+000 -0.000000e+000
    outer loop
      vertex   -4.200000e+001 -3.550000e+001 0.000000e+000
      vertex   -7.300000e+001 -3.550000e+001 4.000000e+001
      vertex   -4.200000e+001 -3.550000e+001 4.000000e+001
    endloop
  endfacet
  facet normal 0.000000e+000 1.000000e+000 -0.000000e+000
    outer loop
      vertex   -4.200000e+001 -3.550000e+001 4.000000e+001
      vertex   -7.300000e+001 -3.550000e+001 4.000000e+001
      vertex   -7.300000e+001 -3.550000e+001 8.000000e+001
    endloop
  endfacet
  facet normal 0.000000e+000 1.000000e+000 0.000000e+000
    outer loop
      vertex   -4.200000e+001 -3.550000e+001 8.000000e+001
      vertex   -4.200000e+001 -3.550000e+001 4.000000e+001
      vertex   -7.300000e+001 -3.550000e+001 8.000000e+001
    endloop
  endfacet
  facet normal -1.000000e+000 0.000000e+000 0.000000e+000
    outer loop
      vertex   -4.200000e+001 -3.550000e+001 0.000000e+000
      vertex   -4.200000e+001 -3.550000e+001 4.000000e+001
      vertex   -4.200000e+001 -2.450000e+001 0.000000e+000
    endloop
  endfacet
  facet normal -1.000000e+000 0.000000e+000 0.000000e+000
    outer loop
      vertex   -4.200000e+001 -2.450000e+001 0.000000e+000
      vertex   -4.200000e+001 -3.550000e+001 4.000000e+001
      vertex   -4.200000e+001 -2.450000e+001 4.000000e+001
    endloop
  endfacet
  facet normal -1.000000e+000 0.000000e+000 0.000000e+000
    outer loop
      vertex   -4.200000e+001 -2.450000e+001 4.000000e+001
      vertex   -4.200000e+001 -3.550000e+001 4.000000e+001
      vertex   -4.200000e+001 -3.550000e+001 8.000000e+001
    endloop
  endfacet
  facet normal -1.000000e+000 -0.000000e+000 -0.000000e+000
    outer loop
      vertex   -4.200000e+001 -2.450000e+001 8.000000e+001
      vertex   -4.200000e+001 -2.450000e+001 4.000000e+001
      vertex   -4.200000e+001 -3.550000e+001 8.000000e+001
    endloop
  endfacet
  facet normal -0.000000e+000 -0.000000e+000 1.000000e+000
    outer loop
      vertex   -7.300000e+001 -3.550000e+001 8.000000e+001
      vertex   -4.000000e+001 -3.750000e+001 8.000000e+001
      vertex   -4.200000e+001 -3.550000e+001 8.000000e+001
    endloop
  endfacet
  facet normal -0.000000e+000 0.000000e+000 1.000000e+000
    outer loop
      vertex   -7.300000e+001 -3.550000e+001 8.000000e+001
      vertex   -7.500000e+001 -3.750000e+001 8.000000e+001
      vertex   -4.000000e+001 -3.750000e+001 8.000000e+001
    endloop
  endfacet
  facet normal 0.000000e+000 0.000000e+000 1.000000e+000
    outer loop
      vertex   -7.300000e+001 -3.550000e+001 8.000000e+001
      vertex   -7.500000e+001 -2.250000e+001 8.000000e+001
      vertex   -7.500000e+001 -3.750000e+001 8.000000e+001
    endloop
  endfacet
  facet normal 0.000000e+000 -0.000000e+000 1.000000e+000
    outer loop
      vertex   -7.300000e+001 -3.550000e+001 8.000000e+001
      vertex   -7.300000e+001 -2.450000e+001 8.000000e+001
      vertex   -7.500000e+001 -2.250000e+001 8.000000e+001
    endloop
  endfacet
  facet normal -0.000000e+000 0.000000e+000 1.000000e+000
    outer loop
      vertex   -7.500000e+001 -2.250000e+001 8.000000e+001
      vertex   -7.300000e+001 -2.450000e+001 8.000000e+001
      vertex   -4.200000e+001 -2.450000e+001 8.000000e+001
    endloop
  endfacet
  facet normal 0.000000e+000 0.000000e+000 1.000000e+000
    outer loop
      vertex   -4.000000e+001 -2.250000e+001 8.000000e+001
      vertex   -4.200000e+001 -2.450000e+001 8.000000e+001
      vertex   -4.200000e+001 -3.550000e+001 8.000000e+001
    endloop
  endfacet
  facet normal 0.000000e+000 -0.000000e+000 1.000000e+000
    outer loop
      vertex   -4.000000e+001 -3.750000e+001 8.000000e+001
      vertex   -4.000000e+001 -2.250000e+001 8.000000e+001
      vertex   -4.200000e+001 -3.550000e+001 8.000000e+001
    endloop
  endfacet
  facet normal -0.000000e+000 0.000000e+000 1.000000e+000
    outer loop
      vertex   -7.500000e+001 -2.250000e+001 8.000000e+001
      vertex   -4.200000e+001 -2.450000e+001 8.000000e+001
      vertex   -4.000000e+001 -2.250000e+001 8.000000e+001
    endloop
  endfacet
  facet normal -1.000000e+000 0.000000e+000 0.000000e+000
    outer loop
      vertex   -7.500000e+001 -3.750000e+001 0.000000e+000
      vertex   -7.500000e+001 -3.750000e+001 4.000000e+001
      vertex   -7.500000e+001 -2.250000e+001 0.000000e+000
    endloop
  endfacet
  facet normal -1.000000e+000 0.000000e+000 0.000000e+000
    outer loop
      vertex   -7.500000e+001 -2.250000e+001 0.000000e+000
      vertex   -7.500000e+001 -3.750000e+001 4.000000e+001
      vertex   -7.500000e+001 -2.250000e+001 4.000000e+001
    endloop
  endfacet
  facet normal -1.000000e+000 0.000000e+000 0.000000e+000
    outer loop
      vertex   -7.500000e+001 -2.250000e+001 4.000000e+001
      vertex   -7.500000e+001 -3.750000e+001 4.000000e+001
      vertex   -7.500000e+001 -3.750000e+001 8.000000e+001
    endloop
  endfacet
  facet normal -1.000000e+000 -0.000000e+000 -0.000000e+000
    outer loop
      vertex   -7.500000e+001 -2.250000e+001 8.000000e+001
      vertex   -7.500000e+001 -2.250000e+001 4.000000e+001
      vertex   -7.500000e+001 -3.750000e+001 8.000000e+001
    endloop
  endfacet
  facet normal -0.000000e+000 -1.000000e+000 0.000000e+000
    outer loop
      vertex   -4.000000e+001 -3.750000e+001 4.000000e+000
      vertex   -4.000000e+001 -3.750000e+001 4.200000e+001
      vertex   -6.000000e+001 -3.750000e+001 4.000000e+000
    endloop
  endfacet
  facet normal -0.000000e+000 -1.000000e+000 0.000000e+000
    outer loop
      vertex   -6.000000e+001 -3.750000e+001 4.000000e+000
      vertex   -4.000000e+001 -3.750000e+001 4.200000e+001
      vertex   -7.500000e+001 -3.750000e+001 4.000000e+001
    endloop
  endfacet
  facet normal 0.000000e+000 -1.000000e+000 0.000000e+000
    outer loop
      vertex   -7.500000e+001 -3.750000e+001 0.000000e+000
      vertex   -6.000000e+001 -3.750000e+001 4.000000e+000
      vertex   -7.500000e+001 -3.750000e+001 4.000000e+001
    endloop
  endfacet
  facet normal 0.000000e+000 -1.000000e+000 0.000000e+000
    outer loop
      vertex   -7.500000e+001 -3.750000e+001 0.000000e+000
      vertex   -6.000000e+001 -3.750000e+001 0.000000e+000
      vertex   -6.000000e+001 -3.750000e+001 4.000000e+000
    endloop
  endfacet
  facet normal -0.000000e+000 -1.000000e+000 -0.000000e+000
    outer loop
      vertex   -4.000000e+001 -3.750000e+001 8.000000e+001
      vertex   -7.500000e+001 -3.750000e+001 8.000000e+001
      vertex   -4.000000e+001 -3.750000e+001 4.200000e+001
    endloop
  endfacet
  facet normal -0.000000e+000 -1.000000e+000 -0.000000e+000
    outer loop
      vertex   -4.000000e+001 -3.750000e+001 4.200000e+001
      vertex   -7.500000e+001 -3.750000e+001 8.000000e+001
      vertex   -7.500000e+001 -3.750000e+001 4.000000e+001
    endloop
  endfacet
  facet normal -0.000000e+000 -1.000000e+000 0.000000e+000
    outer loop
      vertex   -4.000000e+001 -6.000000e+001 4.000000e+000
      vertex   -4.000000e+001 -6.000000e+001 2.000000e+001
      vertex   -6.000000e+001 -6.000000e+001 4.000000e+000
    endloop
  endfacet
  facet normal 0.000000e+000 -1.000000e+000 0.000000e+000
    outer loop
      vertex   -6.000000e+001 -6.000000e+001 4.000000e+000
      vertex   -4.000000e+001 -6.000000e+001 2.000000e+001
      vertex   -6.000000e+001 -6.000000e+001 2.000000e+001
    endloop
  endfacet
  facet normal 0.000000e+000 1.000000e+000 0.000000e+000
    outer loop
      vertex   -4.200000e+001 -5.800000e+001 2.000000e+001
      vertex   -4.200000e+001 -5.800000e+001 0.000000e+000
      vertex   -5.800000e+001 -5.800000e+001 2.000000e+001
    endloop
  endfacet
  facet normal 0.000000e+000 1.000000e+000 0.000000e+000
    outer loop
      vertex   -5.800000e+001 -5.800000e+001 2.000000e+001
      vertex   -4.200000e+001 -5.800000e+001 0.000000e+000
      vertex   -5.800000e+001 -5.800000e+001 0.000000e+000
    endloop
  endfacet
  facet normal 1.000000e+000 -0.000000e+000 0.000000e+000
    outer loop
      vertex   -5.800000e+001 -5.800000e+001 2.000000e+001
      vertex   -5.800000e+001 -5.800000e+001 0.000000e+000
      vertex   -5.800000e+001 -4.400000e+001 2.000000e+001
    endloop
  endfacet
  facet normal 1.000000e+000 -0.000000e+000 0.000000e+000
    outer loop
      vertex   -5.800000e+001 -4.400000e+001 2.000000e+001
      vertex   -5.800000e+001 -5.800000e+001 0.000000e+000
      vertex   -5.800000e+001 -4.400000e+001 0.000000e+000
    endloop
  endfacet
  facet normal 0.000000e+000 -1.000000e+000 0.000000e+000
    outer loop
      vertex   -5.800000e+001 -4.400000e+001 2.000000e+001
      vertex   -5.800000e+001 -4.400000e+001 0.000000e+000
      vertex   -4.200000e+001 -4.400000e+001 2.000000e+001
    endloop
  endfacet
  facet normal 0.000000e+000 -1.000000e+000 -0.000000e+000
    outer loop
      vertex   -4.200000e+001 -4.400000e+001 2.000000e+001
      vertex   -5.800000e+001 -4.400000e+001 0.000000e+000
      vertex   -4.200000e+001 -4.400000e+001 0.000000e+000
    endloop
  endfacet
  facet normal -1.000000e+000 -0.000000e+000 -0.000000e+000
    outer loop
      vertex   -4.200000e+001 -4.400000e+001 2.000000e+001
      vertex   -4.200000e+001 -4.400000e+001 0.000000e+000
      vertex   -4.200000e+001 -5.800000e+001 2.000000e+001
    endloop
  endfacet
  facet normal -1.000000e+000 -0.000000e+000 -0.000000e+000
    outer loop
      vertex   -4.200000e+001 -5.800000e+001 2.000000e+001
      vertex   -4.200000e+001 -4.400000e+001 0.000000e+000
      vertex   -4.200000e+001 -5.800000e+001 0.000000e+000
    endloop
  endfacet
  facet normal 0.000000e+000 0.000000e+000 1.000000e+000
    outer loop
      vertex   -4.200000e+001 -4.400000e+001 2.000000e+001
      vertex   -6.000000e+001 -4.200000e+001 2.000000e+001
      vertex   -5.800000e+001 -4.400000e+001 2.000000e+001
    endloop
  endfacet
  facet normal 0.000000e+000 -0.000000e+000 1.000000e+000
    outer loop
      vertex   -4.200000e+001 -4.400000e+001 2.000000e+001
      vertex   -4.000000e+001 -4.200000e+001 2.000000e+001
      vertex   -6.000000e+001 -4.200000e+001 2.000000e+001
    endloop
  endfacet
  facet normal -0.000000e+000 0.000000e+000 1.000000e+000
    outer loop
      vertex   -4.200000e+001 -4.400000e+001 2.000000e+001
      vertex   -4.000000e+001 -6.000000e+001 2.000000e+001
      vertex   -4.000000e+001 -4.200000e+001 2.000000e+001
    endloop
  endfacet
  facet normal 0.000000e+000 0.000000e+000 1.000000e+000
    outer loop
      vertex   -4.200000e+001 -4.400000e+001 2.000000e+001
      vertex   -4.200000e+001 -5.800000e+001 2.000000e+001
      vertex   -4.000000e+001 -6.000000e+001 2.000000e+001
    endloop
  endfacet
  facet normal 0.000000e+000 0.000000e+000 1.000000e+000
    outer loop
      vertex   -4.000000e+001 -6.000000e+001 2.000000e+001
      vertex   -4.200000e+001 -5.800000e+001 2.000000e+001
      vertex   -5.800000e+001 -5.800000e+001 2.000000e+001
    endloop
  endfacet
  facet normal 0.000000e+000 0.000000e+000 1.000000e+000
    outer loop
      vertex   -6.000000e+001 -6.000000e+001 2.000000e+001
      vertex   -5.800000e+001 -5.800000e+001 2.000000e+001
      vertex   -5.800000e+001 -4.400000e+001 2.000000e+001
    endloop
  endfacet
  facet normal -0.000000e+000 0.000000e+000 1.000000e+000
    outer loop
      vertex   -6.000000e+001 -4.200000e+001 2.000000e+001
      vertex   -6.000000e+001 -6.000000e+001 2.000000e+001
      vertex   -5.800000e+001 -4.400000e+001 2.000000e+001
    endloop
  endfacet
  facet normal 0.000000e+000 0.000000e+000 1.000000e+000
    outer loop
      vertex   -4.000000e+001 -6.000000e+001 2.000000e+001
      vertex   -5.800000e+001 -5.800000e+001 2.000000e+001
      vertex   -6.000000e+001 -6.000000e+001 2.000000e+001
    endloop
  endfacet
  facet normal 0.000000e+000 1.000000e+000 -4.440892e-016
    outer loop
      vertex   -6.000000e+001 -4.200000e+001 4.000000e+000
      vertex   -6.000000e+001 -4.200000e+001 2.000000e+001
      vertex   -4.000000e+001 -4.200000e+001 4.000000e+000
    endloop
  endfacet
  facet normal 0.000000e+000 1.000000e+000 -4.440892e-016
    outer loop
      vertex   -4.000000e+001 -4.200000e+001 4.000000e+000
      vertex   -6.000000e+001 -4.200000e+001 2.000000e+001
      vertex   -4.000000e+001 -4.200000e+001 2.000000e+001
    endloop
  endfacet
  facet normal 0.000000e+000 1.000000e+000 0.000000e+000
    outer loop
      vertex   -4.750000e+001 -7.250000e+001 4.000000e+000
      vertex   -4.750000e+001 -7.250000e+001 0.000000e+000
      vertex   -5.250000e+001 -7.250000e+001 4.000000e+000
    endloop
  endfacet
  facet normal 0.000000e+000 1.000000e+000 0.000000e+000
    outer loop
      vertex   -5.250000e+001 -7.250000e+001 4.000000e+000
      vertex   -4.750000e+001 -7.250000e+001 0.000000e+000
      vertex   -5.250000e+001 -7.250000e+001 0.000000e+000
    endloop
  endfacet
  facet normal 1.000000e+000 -0.000000e+000 0.000000e+000
    outer loop
      vertex   -5.250000e+001 -7.250000e+001 4.000000e+000
      vertex   -5.250000e+001 -7.250000e+001 0.000000e+000
      vertex   -5.250000e+001 -6.750000e+001 4.000000e+000
    endloop
  endfacet
  facet normal 1.000000e+000 -0.000000e+000 0.000000e+000
    outer loop
      vertex   -5.250000e+001 -6.750000e+001 4.000000e+000
      vertex   -5.250000e+001 -7.250000e+001 0.000000e+000
      vertex   -5.250000e+001 -6.750000e+001 0.000000e+000
    endloop
  endfacet
  facet normal 0.000000e+000 -1.000000e+000 0.000000e+000
    outer loop
      vertex   -5.250000e+001 -6.750000e+001 4.000000e+000
      vertex   -5.250000e+001 -6.750000e+001 0.000000e+000
      vertex   -4.750000e+001 -6.750000e+001 4.000000e+000
    endloop
  endfacet
  facet normal 0.000000e+000 -1.000000e+000 -0.000000e+000
    outer loop
      vertex   -4.750000e+001 -6.750000e+001 4.000000e+000
      vertex   -5.250000e+001 -6.750000e+001 0.000000e+000
      vertex   -4.750000e+001 -6.750000e+001 0.000000e+000
    endloop
  endfacet
  facet normal -1.000000e+000 -0.000000e+000 -0.000000e+000
    outer loop
      vertex   -4.750000e+001 -6.750000e+001 4.000000e+000
      vertex   -4.750000e+001 -6.750000e+001 0.000000e+000
      vertex   -4.750000e+001 -7.250000e+001 4.000000e+000
    endloop
  endfacet
  facet normal -1.000000e+000 -0.000000e+000 -0.000000e+000
    outer loop
      vertex   -4.750000e+001 -7.250000e+001 4.000000e+000
      vertex   -4.750000e+001 -6.750000e+001 0.000000e+000
      vertex   -4.750000e+001 -7.250000e+001 0.000000e+000
    endloop
  endfacet
  facet normal 0.000000e+000 0.000000e+000 1.000000e+000
    outer loop
      vertex   -4.750000e+001 -6.750000e+001 4.000000e+000
      vertex   -5.500000e+001 -6.500000e+001 4.000000e+000
      vertex   -5.250000e+001 -6.750000e+001 4.000000e+000
    endloop
  endfacet
  facet normal 0.000000e+000 -0.000000e+000 1.000000e+000
    outer loop
      vertex   -4.750000e+001 -6.750000e+001 4.000000e+000
      vertex   -4.500000e+001 -6.500000e+001 4.000000e+000
      vertex   -5.500000e+001 -6.500000e+001 4.000000e+000
    endloop
  endfacet
  facet normal -0.000000e+000 0.000000e+000 1.000000e+000
    outer loop
      vertex   -4.750000e+001 -6.750000e+001 4.000000e+000
      vertex   -4.500000e+001 -7.500000e+001 4.000000e+000
      vertex   -4.500000e+001 -6.500000e+001 4.000000e+000
    endloop
  endfacet
  facet normal 0.000000e+000 0.000000e+000 1.000000e+000
    outer loop
      vertex   -4.750000e+001 -6.750000e+001 4.000000e+000
      vertex   -4.750000e+001 -7.250000e+001 4.000000e+000
      vertex   -4.500000e+001 -7.500000e+001 4.000000e+000
    endloop
  endfacet
  facet normal 0.000000e+000 0.000000e+000 1.000000e+000
    outer loop
      vertex   -4.500000e+001 -7.500000e+001 4.000000e+000
      vertex   -4.750000e+001 -7.250000e+001 4.000000e+000
      vertex   -5.250000e+001 -7.250000e+001 4.000000e+000
    endloop
  endfacet
  facet normal 0.000000e+000 0.000000e+000 1.000000e+000
    outer loop
      vertex   -5.500000e+001 -7.500000e+001 4.000000e+000
      vertex   -5.250000e+001 -7.250000e+001 4.000000e+000
      vertex   -5.250000e+001 -6.750000e+001 4.000000e+000
    endloop
  endfacet
  facet normal -0.000000e+000 0.000000e+000 1.000000e+000
    outer loop
      vertex   -5.500000e+001 -6.500000e+001 4.000000e+000
      vertex   -5.500000e+001 -7.500000e+001 4.000000e+000
      vertex   -5.250000e+001 -6.750000e+001 4.000000e+000
    endloop
  endfacet
  facet normal 0.000000e+000 0.000000e+000 1.000000e+000
    outer loop
      vertex   -4.500000e+001 -7.500000e+001 4.000000e+000
      vertex   -5.250000e+001 -7.250000e+001 4.000000e+000
      vertex   -5.500000e+001 -7.500000e+001 4.000000e+000
    endloop
  endfacet
  facet normal 1.000000e+000 0.000000e+000 -1.421085e-015
    outer loop
      vertex   -5.500000e+001 -6.500000e+001 4.000000e+000
      vertex   -5.500000e+001 -6.500000e+001 1.400000e+001
      vertex   -5.500000e+001 -7.500000e+001 4.000000e+000
    endloop
  endfacet
  facet normal 1.000000e+000 0.000000e+000 -1.421085e-015
    outer loop
      vertex   -5.500000e+001 -7.500000e+001 4.000000e+000
      vertex   -5.500000e+001 -6.500000e+001 1.400000e+001
      vertex   -5.500000e+001 -7.500000e+001 1.400000e+001
    endloop
  endfacet
  facet normal 0.000000e+000 0.000000e+000 1.000000e+000
    outer loop
      vertex   -4.000000e+001 -6.000000e+001 4.000000e+000
      vertex   -4.300000e+001 -7.700000e+001 4.000000e+000
      vertex   -4.000000e+001 -8.000000e+001 4.000000e+000
    endloop
  endfacet
  facet normal 0.000000e+000 0.000000e+000 1.000000e+000
    outer loop
      vertex   -4.000000e+001 -6.000000e+001 4.000000e+000
      vertex   -4.300000e+001 -6.300000e+001 4.000000e+000
      vertex   -4.300000e+001 -7.700000e+001 4.000000e+000
    endloop
  endfacet
  facet normal 0.000000e+000 0.000000e+000 1.000000e+000
    outer loop
      vertex   -4.000000e+001 -6.000000e+001 4.000000e+000
      vertex   -6.000000e+001 -6.000000e+001 4.000000e+000
      vertex   -4.300000e+001 -6.300000e+001 4.000000e+000
    endloop
  endfacet
  facet normal 0.000000e+000 0.000000e+000 1.000000e+000
    outer loop
      vertex   -4.300000e+001 -6.300000e+001 4.000000e+000
      vertex   -6.000000e+001 -6.000000e+001 4.000000e+000
      vertex   -5.700000e+001 -6.300000e+001 4.000000e+000
    endloop
  endfacet
  facet normal 0.000000e+000 0.000000e+000 1.000000e+000
    outer loop
      vertex   -5.700000e+001 -6.300000e+001 4.000000e+000
      vertex   -6.000000e+001 -6.000000e+001 4.000000e+000
      vertex   -5.700000e+001 -7.700000e+001 4.000000e+000
    endloop
  endfacet
  facet normal 0.000000e+000 0.000000e+000 1.000000e+000
    outer loop
      vertex   -5.700000e+001 -7.700000e+001 4.000000e+000
      vertex   -6.000000e+001 -6.000000e+001 4.000000e+000
      vertex   -6.000000e+001 -8.000000e+001 4.000000e+000
    endloop
  endfacet
  facet normal 0.000000e+000 0.000000e+000 1.000000e+000
    outer loop
      vertex   -4.000000e+001 -8.000000e+001 4.000000e+000
      vertex   -5.700000e+001 -7.700000e+001 4.000000e+000
      vertex   -6.000000e+001 -8.000000e+001 4.000000e+000
    endloop
  endfacet
  facet normal 0.000000e+000 0.000000e+000 1.000000e+000
    outer loop
      vertex   -4.000000e+001 -8.000000e+001 4.000000e+000
      vertex   -4.300000e+001 -7.700000e+001 4.000000e+000
      vertex   -5.700000e+001 -7.700000e+001 4.000000e+000
    endloop
  endfacet
  facet normal -1.000000e+000 0.000000e+000 -0.000000e+000
    outer loop
      vertex   -6.000000e+001 -8.000000e+001 4.000000e+000
      vertex   -6.000000e+001 -6.000000e+001 4.000000e+000
      vertex   -6.000000e+001 -8.000000e+001 0.000000e+000
    endloop
  endfacet
  facet normal -1.000000e+000 1.671865e-016 -8.359326e-016
    outer loop
      vertex   -6.000000e+001 -8.000000e+001 0.000000e+000
      vertex   -6.000000e+001 -6.000000e+001 4.000000e+000
      vertex   -6.000000e+001 -3.750000e+001 0.000000e+000
    endloop
  endfacet
  facet normal -1.000000e+000 3.947460e-016 4.440892e-016
    outer loop
      vertex   -6.000000e+001 -3.750000e+001 0.000000e+000
      vertex   -6.000000e+001 -6.000000e+001 4.000000e+000
      vertex   -6.000000e+001 -4.200000e+001 4.000000e+000
    endloop
  endfacet
  facet normal -1.000000e+000 -0.000000e+000 -0.000000e+000
    outer loop
      vertex   -6.000000e+001 -3.750000e+001 4.000000e+000
      vertex   -6.000000e+001 -3.750000e+001 0.000000e+000
      vertex   -6.000000e+001 -4.200000e+001 4.000000e+000
    endloop
  endfacet
  facet normal -1.000000e+000 3.947460e-016 4.440892e-016
    outer loop
      vertex   -6.000000e+001 -6.000000e+001 4.000000e+000
      vertex   -6.000000e+001 -6.000000e+001 2.000000e+001
      vertex   -6.000000e+001 -4.200000e+001 4.000000e+000
    endloop
  endfacet
  facet normal -1.000000e+000 0.000000e+000 0.000000e+000
    outer loop
      vertex   -6.000000e+001 -4.200000e+001 4.000000e+000
      vertex   -6.000000e+001 -6.000000e+001 2.000000e+001
      vertex   -6.000000e+001 -4.200000e+001 2.000000e+001
    endloop
  endfacet
  facet normal -0.000000e+000 -1.000000e+000 0.000000e+000
    outer loop
      vertex   -4.000000e+001 -8.000000e+001 0.000000e+000
      vertex   -4.000000e+001 -8.000000e+001 4.000000e+000
      vertex   -6.000000e+001 -8.000000e+001 0.000000e+000
    endloop
  endfacet
  facet normal 0.000000e+000 -1.000000e+000 0.000000e+000
    outer loop
      vertex   -6.000000e+001 -8.000000e+001 0.000000e+000
      vertex   -4.000000e+001 -8.000000e+001 4.000000e+000
      vertex   -6.000000e+001 -8.000000e+001 4.000000e+000
    endloop
  endfacet
  facet normal 0.000000e+000 -1.000000e+000 7.105427e-015
    outer loop
      vertex   -4.500000e+001 -6.500000e+001 4.000000e+000
      vertex   -4.500000e+001 -6.500000e+001 1.400000e+001
      vertex   -5.500000e+001 -6.500000e+001 4.000000e+000
    endloop
  endfacet
  facet normal 0.000000e+000 -1.000000e+000 7.105427e-015
    outer loop
      vertex   -5.500000e+001 -6.500000e+001 4.000000e+000
      vertex   -4.500000e+001 -6.500000e+001 1.400000e+001
      vertex   -5.500000e+001 -6.500000e+001 1.400000e+001
    endloop
  endfacet
  facet normal 0.000000e+000 1.000000e+000 -7.105427e-015
    outer loop
      vertex   -5.500000e+001 -7.500000e+001 4.000000e+000
      vertex   -5.500000e+001 -7.500000e+001 1.400000e+001
      vertex   -4.500000e+001 -7.500000e+001 4.000000e+000
    endloop
  endfacet
  facet normal 0.000000e+000 1.000000e+000 -7.105427e-015
    outer loop
      vertex   -4.500000e+001 -7.500000e+001 4.000000e+000
      vertex   -5.500000e+001 -7.500000e+001 1.400000e+001
      vertex   -4.500000e+001 -7.500000e+001 1.400000e+001
    endloop
  endfacet
  facet normal -1.000000e+000 0.000000e+000 0.000000e+000
    outer loop
      vertex   -4.500000e+001 -7.500000e+001 4.000000e+000
      vertex   -4.500000e+001 -7.500000e+001 1.400000e+001
      vertex   -4.500000e+001 -6.500000e+001 4.000000e+000
    endloop
  endfacet
  facet normal -1.000000e+000 0.000000e+000 0.000000e+000
    outer loop
      vertex   -4.500000e+001 -6.500000e+001 4.000000e+000
      vertex   -4.500000e+001 -7.500000e+001 1.400000e+001
      vertex   -4.500000e+001 -6.500000e+001 1.400000e+001
    endloop
  endfacet
  facet normal -0.000000e+000 -0.000000e+000 1.000000e+000
    outer loop
      vertex   -5.500000e+001 -7.500000e+001 1.400000e+001
      vertex   -4.300000e+001 -7.700000e+001 1.400000e+001
      vertex   -4.500000e+001 -7.500000e+001 1.400000e+001
    endloop
  endfacet
  facet normal -0.000000e+000 0.000000e+000 1.000000e+000
    outer loop
      vertex   -5.500000e+001 -7.500000e+001 1.400000e+001
      vertex   -5.700000e+001 -7.700000e+001 1.400000e+001
      vertex   -4.300000e+001 -7.700000e+001 1.400000e+001
    endloop
  endfacet
  facet normal 0.000000e+000 0.000000e+000 1.000000e+000
    outer loop
      vertex   -5.500000e+001 -7.500000e+001 1.400000e+001
      vertex   -5.700000e+001 -6.300000e+001 1.400000e+001
      vertex   -5.700000e+001 -7.700000e+001 1.400000e+001
    endloop
  endfacet
  facet normal 0.000000e+000 -0.000000e+000 1.000000e+000
    outer loop
      vertex   -5.500000e+001 -7.500000e+001 1.400000e+001
      vertex   -5.500000e+001 -6.500000e+001 1.400000e+001
      vertex   -5.700000e+001 -6.300000e+001 1.400000e+001
    endloop
  endfacet
  facet normal -0.000000e+000 0.000000e+000 1.000000e+000
    outer loop
      vertex   -5.700000e+001 -6.300000e+001 1.400000e+001
      vertex   -5.500000e+001 -6.500000e+001 1.400000e+001
      vertex   -4.500000e+001 -6.500000e+001 1.400000e+001
    endloop
  endfacet
  facet normal 0.000000e+000 0.000000e+000 1.000000e+000
    outer loop
      vertex   -4.300000e+001 -6.300000e+001 1.400000e+001
      vertex   -4.500000e+001 -6.500000e+001 1.400000e+001
      vertex   -4.500000e+001 -7.500000e+001 1.400000e+001
    endloop
  endfacet
  facet normal 0.000000e+000 -0.000000e+000 1.000000e+000
    outer loop
      vertex   -4.300000e+001 -7.700000e+001 1.400000e+001
      vertex   -4.300000e+001 -6.300000e+001 1.400000e+001
      vertex   -4.500000e+001 -7.500000e+001 1.400000e+001
    endloop
  endfacet
  facet normal -0.000000e+000 0.000000e+000 1.000000e+000
    outer loop
      vertex   -5.700000e+001 -6.300000e+001 1.400000e+001
      vertex   -4.500000e+001 -6.500000e+001 1.400000e+001
      vertex   -4.300000e+001 -6.300000e+001 1.400000e+001
    endloop
  endfacet
  facet normal -0.000000e+000 1.000000e+000 0.000000e+000
    outer loop
      vertex   -5.700000e+001 -6.300000e+001 4.000000e+000
      vertex   -5.700000e+001 -6.300000e+001 1.400000e+001
      vertex   -4.300000e+001 -6.300000e+001 4.000000e+000
    endloop
  endfacet
  facet normal 0.000000e+000 1.000000e+000 -0.000000e+000
    outer loop
      vertex   -4.300000e+001 -6.300000e+001 4.000000e+000
      vertex   -5.700000e+001 -6.300000e+001 1.400000e+001
      vertex   -4.300000e+001 -6.300000e+001 1.400000e+001
    endloop
  endfacet
  facet normal -1.000000e+000 0.000000e+000 0.000000e+000
    outer loop
      vertex   -5.700000e+001 -7.700000e+001 4.000000e+000
      vertex   -5.700000e+001 -7.700000e+001 1.400000e+001
      vertex   -5.700000e+001 -6.300000e+001 4.000000e+000
    endloop
  endfacet
  facet normal -1.000000e+000 0.000000e+000 0.000000e+000
    outer loop
      vertex   -5.700000e+001 -6.300000e+001 4.000000e+000
      vertex   -5.700000e+001 -7.700000e+001 1.400000e+001
      vertex   -5.700000e+001 -6.300000e+001 1.400000e+001
    endloop
  endfacet
  facet normal -0.000000e+000 -1.000000e+000 0.000000e+000
    outer loop
      vertex   -4.300000e+001 -7.700000e+001 4.000000e+000
      vertex   -4.300000e+001 -7.700000e+001 1.400000e+001
      vertex   -5.700000e+001 -7.700000e+001 4.000000e+000
    endloop
  endfacet
  facet normal 0.000000e+000 -1.000000e+000 0.000000e+000
    outer loop
      vertex   -5.700000e+001 -7.700000e+001 4.000000e+000
      vertex   -4.300000e+001 -7.700000e+001 1.400000e+001
      vertex   -5.700000e+001 -7.700000e+001 1.400000e+001
    endloop
  endfacet
  facet normal 1.000000e+000 0.000000e+000 -0.000000e+000
    outer loop
      vertex   -4.300000e+001 -6.300000e+001 4.000000e+000
      vertex   -4.300000e+001 -6.300000e+001 1.400000e+001
      vertex   -4.300000e+001 -7.700000e+001 4.000000e+000
    endloop
  endfacet
  facet normal 1.000000e+000 0.000000e+000 -0.000000e+000
    outer loop
      vertex   -4.300000e+001 -7.700000e+001 4.000000e+000
      vertex   -4.300000e+001 -6.300000e+001 1.400000e+001
      vertex   -4.300000e+001 -7.700000e+001 1.400000e+001
    endloop
  endfacet
  facet normal 0.000000e+000 1.000000e+000 -5.551115e-016
    outer loop
      vertex   -6.000000e+001 0.000000e+000 4.000000e+000
      vertex   -6.000000e+001 8.881784e-015 2.000000e+001
      vertex   -4.000000e+001 0.000000e+000 4.000000e+000
    endloop
  endfacet
  facet normal 0.000000e+000 1.000000e+000 -5.551115e-016
    outer loop
      vertex   -4.000000e+001 0.000000e+000 4.000000e+000
      vertex   -6.000000e+001 8.881784e-015 2.000000e+001
      vertex   -4.000000e+001 8.881784e-015 2.000000e+001
    endloop
  endfacet
  facet normal 0.000000e+000 1.000000e+000 0.000000e+000
    outer loop
      vertex   -4.200000e+001 -1.600000e+001 2.000000e+001
      vertex   -4.200000e+001 -1.600000e+001 0.000000e+000
      vertex   -5.800000e+001 -1.600000e+001 2.000000e+001
    endloop
  endfacet
  facet normal 0.000000e+000 1.000000e+000 0.000000e+000
    outer loop
      vertex   -5.800000e+001 -1.600000e+001 2.000000e+001
      vertex   -4.200000e+001 -1.600000e+001 0.000000e+000
      vertex   -5.800000e+001 -1.600000e+001 0.000000e+000
    endloop
  endfacet
  facet normal 1.000000e+000 -0.000000e+000 0.000000e+000
    outer loop
      vertex   -5.800000e+001 -1.600000e+001 2.000000e+001
      vertex   -5.800000e+001 -1.600000e+001 0.000000e+000
      vertex   -5.800000e+001 -2.000000e+000 2.000000e+001
    endloop
  endfacet
  facet normal 1.000000e+000 -0.000000e+000 0.000000e+000
    outer loop
      vertex   -5.800000e+001 -2.000000e+000 2.000000e+001
      vertex   -5.800000e+001 -1.600000e+001 0.000000e+000
      vertex   -5.800000e+001 -2.000000e+000 0.000000e+000
    endloop
  endfacet
  facet normal 0.000000e+000 -1.000000e+000 0.000000e+000
    outer loop
      vertex   -5.800000e+001 -2.000000e+000 2.000000e+001
      vertex   -5.800000e+001 -2.000000e+000 0.000000e+000
      vertex   -4.200000e+001 -2.000000e+000 2.000000e+001
    endloop
  endfacet
  facet normal 0.000000e+000 -1.000000e+000 -0.000000e+000
    outer loop
      vertex   -4.200000e+001 -2.000000e+000 2.000000e+001
      vertex   -5.800000e+001 -2.000000e+000 0.000000e+000
      vertex   -4.200000e+001 -2.000000e+000 0.000000e+000
    endloop
  endfacet
  facet normal -1.000000e+000 -0.000000e+000 -0.000000e+000
    outer loop
      vertex   -4.200000e+001 -2.000000e+000 2.000000e+001
      vertex   -4.200000e+001 -2.000000e+000 0.000000e+000
      vertex   -4.200000e+001 -1.600000e+001 2.000000e+001
    endloop
  endfacet
  facet normal -1.000000e+000 -0.000000e+000 -0.000000e+000
    outer loop
      vertex   -4.200000e+001 -1.600000e+001 2.000000e+001
      vertex   -4.200000e+001 -2.000000e+000 0.000000e+000
      vertex   -4.200000e+001 -1.600000e+001 0.000000e+000
    endloop
  endfacet
  facet normal 0.000000e+000 0.000000e+000 1.000000e+000
    outer loop
      vertex   -4.200000e+001 -2.000000e+000 2.000000e+001
      vertex   -6.000000e+001 8.881784e-015 2.000000e+001
      vertex   -5.800000e+001 -2.000000e+000 2.000000e+001
    endloop
  endfacet
  facet normal 0.000000e+000 -0.000000e+000 1.000000e+000
    outer loop
      vertex   -4.200000e+001 -2.000000e+000 2.000000e+001
      vertex   -4.000000e+001 8.881784e-015 2.000000e+001
      vertex   -6.000000e+001 8.881784e-015 2.000000e+001
    endloop
  endfacet
  facet normal -0.000000e+000 0.000000e+000 1.000000e+000
    outer loop
      vertex   -4.200000e+001 -2.000000e+000 2.000000e+001
      vertex   -4.000000e+001 -1.800000e+001 2.000000e+001
      vertex   -4.000000e+001 8.881784e-015 2.000000e+001
    endloop
  endfacet
  facet normal 0.000000e+000 0.000000e+000 1.000000e+000
    outer loop
      vertex   -4.200000e+001 -2.000000e+000 2.000000e+001
      vertex   -4.200000e+001 -1.600000e+001 2.000000e+001
      vertex   -4.000000e+001 -1.800000e+001 2.000000e+001
    endloop
  endfacet
  facet normal 0.000000e+000 0.000000e+000 1.000000e+000
    outer loop
      vertex   -4.000000e+001 -1.800000e+001 2.000000e+001
      vertex   -4.200000e+001 -1.600000e+001 2.000000e+001
      vertex   -5.800000e+001 -1.600000e+001 2.000000e+001
    endloop
  endfacet
  facet normal 0.000000e+000 0.000000e+000 1.000000e+000
    outer loop
      vertex   -6.000000e+001 -1.800000e+001 2.000000e+001
      vertex   -5.800000e+001 -1.600000e+001 2.000000e+001
      vertex   -5.800000e+001 -2.000000e+000 2.000000e+001
    endloop
  endfacet
  facet normal -0.000000e+000 0.000000e+000 1.000000e+000
    outer loop
      vertex   -6.000000e+001 8.881784e-015 2.000000e+001
      vertex   -6.000000e+001 -1.800000e+001 2.000000e+001
      vertex   -5.800000e+001 -2.000000e+000 2.000000e+001
    endloop
  endfacet
  facet normal 0.000000e+000 0.000000e+000 1.000000e+000
    outer loop
      vertex   -4.000000e+001 -1.800000e+001 2.000000e+001
      vertex   -5.800000e+001 -1.600000e+001 2.000000e+001
      vertex   -6.000000e+001 -1.800000e+001 2.000000e+001
    endloop
  endfacet
  facet normal 0.000000e+000 -1.000000e+000 4.440892e-016
    outer loop
      vertex   -4.000000e+001 -1.800000e+001 4.000000e+000
      vertex   -4.000000e+001 -1.800000e+001 2.000000e+001
      vertex   -6.000000e+001 -1.800000e+001 4.000000e+000
    endloop
  endfacet
  facet normal 0.000000e+000 -1.000000e+000 4.440892e-016
    outer loop
      vertex   -6.000000e+001 -1.800000e+001 4.000000e+000
      vertex   -4.000000e+001 -1.800000e+001 2.000000e+001
      vertex   -6.000000e+001 -1.800000e+001 2.000000e+001
    endloop
  endfacet
  facet normal 0.000000e+000 1.000000e+000 0.000000e+000
    outer loop
      vertex   -4.750000e+001 7.500000e+000 4.000000e+000
      vertex   -4.750000e+001 7.500000e+000 0.000000e+000
      vertex   -5.250000e+001 7.500000e+000 4.000000e+000
    endloop
  endfacet
  facet normal 0.000000e+000 1.000000e+000 0.000000e+000
    outer loop
      vertex   -5.250000e+001 7.500000e+000 4.000000e+000
      vertex   -4.750000e+001 7.500000e+000 0.000000e+000
      vertex   -5.250000e+001 7.500000e+000 0.000000e+000
    endloop
  endfacet
  facet normal 1.000000e+000 -0.000000e+000 0.000000e+000
    outer loop
      vertex   -5.250000e+001 7.500000e+000 4.000000e+000
      vertex   -5.250000e+001 7.500000e+000 0.000000e+000
      vertex   -5.250000e+001 1.250000e+001 4.000000e+000
    endloop
  endfacet
  facet normal 1.000000e+000 -0.000000e+000 0.000000e+000
    outer loop
      vertex   -5.250000e+001 1.250000e+001 4.000000e+000
      vertex   -5.250000e+001 7.500000e+000 0.000000e+000
      vertex   -5.250000e+001 1.250000e+001 0.000000e+000
    endloop
  endfacet
  facet normal 0.000000e+000 -1.000000e+000 0.000000e+000
    outer loop
      vertex   -5.250000e+001 1.250000e+001 4.000000e+000
      vertex   -5.250000e+001 1.250000e+001 0.000000e+000
      vertex   -4.750000e+001 1.250000e+001 4.000000e+000
    endloop
  endfacet
  facet normal 0.000000e+000 -1.000000e+000 -0.000000e+000
    outer loop
      vertex   -4.750000e+001 1.250000e+001 4.000000e+000
      vertex   -5.250000e+001 1.250000e+001 0.000000e+000
      vertex   -4.750000e+001 1.250000e+001 0.000000e+000
    endloop
  endfacet
  facet normal -1.000000e+000 -0.000000e+000 -0.000000e+000
    outer loop
      vertex   -4.750000e+001 1.250000e+001 4.000000e+000
      vertex   -4.750000e+001 1.250000e+001 0.000000e+000
      vertex   -4.750000e+001 7.500000e+000 4.000000e+000
    endloop
  endfacet
  facet normal -1.000000e+000 -0.000000e+000 -0.000000e+000
    outer loop
      vertex   -4.750000e+001 7.500000e+000 4.000000e+000
      vertex   -4.750000e+001 1.250000e+001 0.000000e+000
      vertex   -4.750000e+001 7.500000e+000 0.000000e+000
    endloop
  endfacet
  facet normal 0.000000e+000 0.000000e+000 1.000000e+000
    outer loop
      vertex   -4.750000e+001 1.250000e+001 4.000000e+000
      vertex   -5.500000e+001 1.500000e+001 4.000000e+000
      vertex   -5.250000e+001 1.250000e+001 4.000000e+000
    endloop
  endfacet
  facet normal 0.000000e+000 -0.000000e+000 1.000000e+000
    outer loop
      vertex   -4.750000e+001 1.250000e+001 4.000000e+000
      vertex   -4.500000e+001 1.500000e+001 4.000000e+000
      vertex   -5.500000e+001 1.500000e+001 4.000000e+000
    endloop
  endfacet
  facet normal -0.000000e+000 0.000000e+000 1.000000e+000
    outer loop
      vertex   -4.750000e+001 1.250000e+001 4.000000e+000
      vertex   -4.500000e+001 5.000000e+000 4.000000e+000
      vertex   -4.500000e+001 1.500000e+001 4.000000e+000
    endloop
  endfacet
  facet normal 0.000000e+000 0.000000e+000 1.000000e+000
    outer loop
      vertex   -4.750000e+001 1.250000e+001 4.000000e+000
      vertex   -4.750000e+001 7.500000e+000 4.000000e+000
      vertex   -4.500000e+001 5.000000e+000 4.000000e+000
    endloop
  endfacet
  facet normal 0.000000e+000 0.000000e+000 1.000000e+000
    outer loop
      vertex   -4.500000e+001 5.000000e+000 4.000000e+000
      vertex   -4.750000e+001 7.500000e+000 4.000000e+000
      vertex   -5.250000e+001 7.500000e+000 4.000000e+000
    endloop
  endfacet
  facet normal 0.000000e+000 0.000000e+000 1.000000e+000
    outer loop
      vertex   -5.500000e+001 5.000000e+000 4.000000e+000
      vertex   -5.250000e+001 7.500000e+000 4.000000e+000
      vertex   -5.250000e+001 1.250000e+001 4.000000e+000
    endloop
  endfacet
  facet normal -0.000000e+000 0.000000e+000 1.000000e+000
    outer loop
      vertex   -5.500000e+001 1.500000e+001 4.000000e+000
      vertex   -5.500000e+001 5.000000e+000 4.000000e+000
      vertex   -5.250000e+001 1.250000e+001 4.000000e+000
    endloop
  endfacet
  facet normal 0.000000e+000 0.000000e+000 1.000000e+000
    outer loop
      vertex   -4.500000e+001 5.000000e+000 4.000000e+000
      vertex   -5.250000e+001 7.500000e+000 4.000000e+000
      vertex   -5.500000e+001 5.000000e+000 4.000000e+000
    endloop
  endfacet
  facet normal 1.000000e+000 0.000000e+000 -1.421085e-015
    outer loop
      vertex   -5.500000e+001 1.500000e+001 4.000000e+000
      vertex   -5.500000e+001 1.500000e+001 1.400000e+001
      vertex   -5.500000e+001 5.000000e+000 4.000000e+000
    endloop
  endfacet
  facet normal 1.000000e+000 0.000000e+000 -1.421085e-015
    outer loop
      vertex   -5.500000e+001 5.000000e+000 4.000000e+000
      vertex   -5.500000e+001 1.500000e+001 1.400000e+001
      vertex   -5.500000e+001 5.000000e+000 1.400000e+001
    endloop
  endfacet
  facet normal 0.000000e+000 0.000000e+000 1.000000e+000
    outer loop
      vertex   -4.000000e+001 2.000000e+001 4.000000e+000
      vertex   -4.300000e+001 3.000000e+000 4.000000e+000
      vertex   -4.000000e+001 0.000000e+000 4.000000e+000
    endloop
  endfacet
  facet normal 0.000000e+000 0.000000e+000 1.000000e+000
    outer loop
      vertex   -4.000000e+001 2.000000e+001 4.000000e+000
      vertex   -4.300000e+001 1.700000e+001 4.000000e+000
      vertex   -4.300000e+001 3.000000e+000 4.000000e+000
    endloop
  endfacet
  facet normal 0.000000e+000 0.000000e+000 1.000000e+000
    outer loop
      vertex   -4.000000e+001 2.000000e+001 4.000000e+000
      vertex   -6.000000e+001 2.000000e+001 4.000000e+000
      vertex   -4.300000e+001 1.700000e+001 4.000000e+000
    endloop
  endfacet
  facet normal 0.000000e+000 0.000000e+000 1.000000e+000
    outer loop
      vertex   -4.300000e+001 1.700000e+001 4.000000e+000
      vertex   -6.000000e+001 2.000000e+001 4.000000e+000
      vertex   -5.700000e+001 1.700000e+001 4.000000e+000
    endloop
  endfacet
  facet normal 0.000000e+000 0.000000e+000 1.000000e+000
    outer loop
      vertex   -5.700000e+001 1.700000e+001 4.000000e+000
      vertex   -6.000000e+001 2.000000e+001 4.000000e+000
      vertex   -5.700000e+001 3.000000e+000 4.000000e+000
    endloop
  endfacet
  facet normal 0.000000e+000 0.000000e+000 1.000000e+000
    outer loop
      vertex   -5.700000e+001 3.000000e+000 4.000000e+000
      vertex   -6.000000e+001 2.000000e+001 4.000000e+000
      vertex   -6.000000e+001 0.000000e+000 4.000000e+000
    endloop
  endfacet
  facet normal 0.000000e+000 0.000000e+000 1.000000e+000
    outer loop
      vertex   -4.000000e+001 0.000000e+000 4.000000e+000
      vertex   -5.700000e+001 3.000000e+000 4.000000e+000
      vertex   -6.000000e+001 0.000000e+000 4.000000e+000
    endloop
  endfacet
  facet normal 0.000000e+000 0.000000e+000 1.000000e+000
    outer loop
      vertex   -4.000000e+001 0.000000e+000 4.000000e+000
      vertex   -4.300000e+001 3.000000e+000 4.000000e+000
      vertex   -5.700000e+001 3.000000e+000 4.000000e+000
    endloop
  endfacet
  facet normal 0.000000e+000 -0.000000e+000 -1.000000e+000
    outer loop
      vertex   -5.250000e+001 -6.750000e+001 0.000000e+000
      vertex   -4.200000e+001 -5.800000e+001 0.000000e+000
      vertex   -4.750000e+001 -6.750000e+001 0.000000e+000
    endloop
  endfacet
  facet normal 0.000000e+000 0.000000e+000 -1.000000e+000
    outer loop
      vertex   -5.250000e+001 -6.750000e+001 0.000000e+000
      vertex   -5.800000e+001 -5.800000e+001 0.000000e+000
      vertex   -4.200000e+001 -5.800000e+001 0.000000e+000
    endloop
  endfacet
  facet normal -0.000000e+000 0.000000e+000 -1.000000e+000
    outer loop
      vertex   -5.250000e+001 -6.750000e+001 0.000000e+000
      vertex   -6.000000e+001 -8.000000e+001 0.000000e+000
      vertex   -5.800000e+001 -5.800000e+001 0.000000e+000
    endloop
  endfacet
  facet normal 0.000000e+000 -0.000000e+000 -1.000000e+000
    outer loop
      vertex   -5.250000e+001 -6.750000e+001 0.000000e+000
      vertex   -5.250000e+001 -7.250000e+001 0.000000e+000
      vertex   -6.000000e+001 -8.000000e+001 0.000000e+000
    endloop
  endfacet
  facet normal 0.000000e+000 0.000000e+000 -1.000000e+000
    outer loop
      vertex   -6.000000e+001 -8.000000e+001 0.000000e+000
      vertex   -5.250000e+001 -7.250000e+001 0.000000e+000
      vertex   -4.750000e+001 -7.250000e+001 0.000000e+000
    endloop
  endfacet
  facet normal 0.000000e+000 0.000000e+000 -1.000000e+000
    outer loop
      vertex   -4.000000e+001 -8.000000e+001 0.000000e+000
      vertex   -4.750000e+001 -7.250000e+001 0.000000e+000
      vertex   -4.750000e+001 -6.750000e+001 0.000000e+000
    endloop
  endfacet
  facet normal -0.000000e+000 -0.000000e+000 -1.000000e+000
    outer loop
      vertex   -4.200000e+001 -5.800000e+001 0.000000e+000
      vertex   -4.000000e+001 -8.000000e+001 0.000000e+000
      vertex   -4.750000e+001 -6.750000e+001 0.000000e+000
    endloop
  endfacet
  facet normal 0.000000e+000 0.000000e+000 -1.000000e+000
    outer loop
      vertex   -4.200000e+001 -5.800000e+001 0.000000e+000
      vertex   -4.000000e+001 -3.000000e+001 0.000000e+000
      vertex   -4.000000e+001 -8.000000e+001 0.000000e+000
    endloop
  endfacet
  facet normal 0.000000e+000 0.000000e+000 -1.000000e+000
    outer loop
      vertex   -4.200000e+001 -5.800000e+001 0.000000e+000
      vertex   -4.200000e+001 -4.400000e+001 0.000000e+000
      vertex   -4.000000e+001 -3.000000e+001 0.000000e+000
    endloop
  endfacet
  facet normal -0.000000e+000 0.000000e+000 -1.000000e+000
    outer loop
      vertex   -4.000000e+001 -3.000000e+001 0.000000e+000
      vertex   -4.200000e+001 -4.400000e+001 0.000000e+000
      vertex   -4.200000e+001 -3.550000e+001 0.000000e+000
    endloop
  endfacet
  facet normal 0.000000e+000 -0.000000e+000 -1.000000e+000
    outer loop
      vertex   -4.200000e+001 -2.450000e+001 0.000000e+000
      vertex   -4.000000e+001 -3.000000e+001 0.000000e+000
      vertex   -4.200000e+001 -3.550000e+001 0.000000e+000
    endloop
  endfacet
  facet normal 0.000000e+000 0.000000e+000 -1.000000e+000
    outer loop
      vertex   -4.200000e+001 -2.450000e+001 0.000000e+000
      vertex   -4.200000e+001 -1.600000e+001 0.000000e+000
      vertex   -4.000000e+001 -3.000000e+001 0.000000e+000
    endloop
  endfacet
  facet normal 0.000000e+000 0.000000e+000 -1.000000e+000
    outer loop
      vertex   -4.200000e+001 -2.450000e+001 0.000000e+000
      vertex   -5.800000e+001 -1.600000e+001 0.000000e+000
      vertex   -4.200000e+001 -1.600000e+001 0.000000e+000
    endloop
  endfacet
  facet normal 0.000000e+000 0.000000e+000 -1.000000e+000
    outer loop
      vertex   -4.200000e+001 -2.450000e+001 0.000000e+000
      vertex   -6.000000e+001 -2.250000e+001 0.000000e+000
      vertex   -5.800000e+001 -1.600000e+001 0.000000e+000
    endloop
  endfacet
  facet normal 0.000000e+000 0.000000e+000 -1.000000e+000
    outer loop
      vertex   -4.200000e+001 -2.450000e+001 0.000000e+000
      vertex   -7.300000e+001 -2.450000e+001 0.000000e+000
      vertex   -6.000000e+001 -2.250000e+001 0.000000e+000
    endloop
  endfacet
  facet normal -0.000000e+000 0.000000e+000 -1.000000e+000
    outer loop
      vertex   -6.000000e+001 -2.250000e+001 0.000000e+000
      vertex   -7.300000e+001 -2.450000e+001 0.000000e+000
      vertex   -7.500000e+001 -2.250000e+001 0.000000e+000
    endloop
  endfacet
  facet normal 0.000000e+000 0.000000e+000 -1.000000e+000
    outer loop
      vertex   -7.500000e+001 -2.250000e+001 0.000000e+000
      vertex   -7.300000e+001 -2.450000e+001 0.000000e+000
      vertex   -7.300000e+001 -3.550000e+001 0.000000e+000
    endloop
  endfacet
  facet normal 0.000000e+000 0.000000e+000 -1.000000e+000
    outer loop
      vertex   -7.500000e+001 -3.750000e+001 0.000000e+000
      vertex   -7.300000e+001 -3.550000e+001 0.000000e+000
      vertex   -6.000000e+001 -3.750000e+001 0.000000e+000
    endloop
  endfacet
  facet normal 0.000000e+000 0.000000e+000 -1.000000e+000
    outer loop
      vertex   -7.500000e+001 -3.750000e+001 0.000000e+000
      vertex   -7.500000e+001 -2.250000e+001 0.000000e+000
      vertex   -7.300000e+001 -3.550000e+001 0.000000e+000
    endloop
  endfacet
  facet normal 0.000000e+000 0.000000e+000 -1.000000e+000
    outer loop
      vertex   -6.000000e+001 -8.000000e+001 0.000000e+000
      vertex   -4.750000e+001 -7.250000e+001 0.000000e+000
      vertex   -4.000000e+001 -8.000000e+001 0.000000e+000
    endloop
  endfacet
  facet normal 0.000000e+000 0.000000e+000 -1.000000e+000
    outer loop
      vertex   -4.200000e+001 -4.400000e+001 0.000000e+000
      vertex   -5.800000e+001 -4.400000e+001 0.000000e+000
      vertex   -4.200000e+001 -3.550000e+001 0.000000e+000
    endloop
  endfacet
  facet normal -0.000000e+000 0.000000e+000 -1.000000e+000
    outer loop
      vertex   -4.200000e+001 -3.550000e+001 0.000000e+000
      vertex   -5.800000e+001 -4.400000e+001 0.000000e+000
      vertex   -6.000000e+001 -3.750000e+001 0.000000e+000
    endloop
  endfacet
  facet normal 0.000000e+000 -0.000000e+000 -1.000000e+000
    outer loop
      vertex   -7.300000e+001 -3.550000e+001 0.000000e+000
      vertex   -4.200000e+001 -3.550000e+001 0.000000e+000
      vertex   -6.000000e+001 -3.750000e+001 0.000000e+000
    endloop
  endfacet
  facet normal -0.000000e+000 -0.000000e+000 -1.000000e+000
    outer loop
      vertex   -5.800000e+001 -4.400000e+001 0.000000e+000
      vertex   -5.800000e+001 -5.800000e+001 0.000000e+000
      vertex   -6.000000e+001 -3.750000e+001 0.000000e+000
    endloop
  endfacet
  facet normal 0.000000e+000 -0.000000e+000 -1.000000e+000
    outer loop
      vertex   -6.000000e+001 -3.750000e+001 0.000000e+000
      vertex   -5.800000e+001 -5.800000e+001 0.000000e+000
      vertex   -6.000000e+001 -8.000000e+001 0.000000e+000
    endloop
  endfacet
  facet normal 0.000000e+000 0.000000e+000 -1.000000e+000
    outer loop
      vertex   -5.800000e+001 -2.000000e+000 0.000000e+000
      vertex   -4.750000e+001 7.500000e+000 0.000000e+000
      vertex   -4.200000e+001 -2.000000e+000 0.000000e+000
    endloop
  endfacet
  facet normal 0.000000e+000 0.000000e+000 -1.000000e+000
    outer loop
      vertex   -5.800000e+001 -2.000000e+000 0.000000e+000
      vertex   -5.250000e+001 7.500000e+000 0.000000e+000
      vertex   -4.750000e+001 7.500000e+000 0.000000e+000
    endloop
  endfacet
  facet normal 0.000000e+000 0.000000e+000 -1.000000e+000
    outer loop
      vertex   -5.800000e+001 -2.000000e+000 0.000000e+000
      vertex   -6.000000e+001 2.000000e+001 0.000000e+000
      vertex   -5.250000e+001 7.500000e+000 0.000000e+000
    endloop
  endfacet
  facet normal -0.000000e+000 0.000000e+000 -1.000000e+000
    outer loop
      vertex   -5.800000e+001 -2.000000e+000 0.000000e+000
      vertex   -6.000000e+001 -2.250000e+001 0.000000e+000
      vertex   -6.000000e+001 2.000000e+001 0.000000e+000
    endloop
  endfacet
  facet normal 0.000000e+000 -0.000000e+000 -1.000000e+000
    outer loop
      vertex   -5.800000e+001 -2.000000e+000 0.000000e+000
      vertex   -5.800000e+001 -1.600000e+001 0.000000e+000
      vertex   -6.000000e+001 -2.250000e+001 0.000000e+000
    endloop
  endfacet
  facet normal 0.000000e+000 0.000000e+000 -1.000000e+000
    outer loop
      vertex   -4.200000e+001 -1.600000e+001 0.000000e+000
      vertex   -4.200000e+001 -2.000000e+000 0.000000e+000
      vertex   -4.000000e+001 -3.000000e+001 0.000000e+000
    endloop
  endfacet
  facet normal 0.000000e+000 0.000000e+000 -1.000000e+000
    outer loop
      vertex   -4.000000e+001 -3.000000e+001 0.000000e+000
      vertex   -4.200000e+001 -2.000000e+000 0.000000e+000
      vertex   -4.000000e+001 2.000000e+001 0.000000e+000
    endloop
  endfacet
  facet normal -0.000000e+000 0.000000e+000 -1.000000e+000
    outer loop
      vertex   -4.000000e+001 2.000000e+001 0.000000e+000
      vertex   -4.200000e+001 -2.000000e+000 0.000000e+000
      vertex   -4.750000e+001 7.500000e+000 0.000000e+000
    endloop
  endfacet
  facet normal 0.000000e+000 -0.000000e+000 -1.000000e+000
    outer loop
      vertex   -4.750000e+001 1.250000e+001 0.000000e+000
      vertex   -4.000000e+001 2.000000e+001 0.000000e+000
      vertex   -4.750000e+001 7.500000e+000 0.000000e+000
    endloop
  endfacet
  facet normal 0.000000e+000 0.000000e+000 -1.000000e+000
    outer loop
      vertex   -4.750000e+001 1.250000e+001 0.000000e+000
      vertex   -5.250000e+001 1.250000e+001 0.000000e+000
      vertex   -4.000000e+001 2.000000e+001 0.000000e+000
    endloop
  endfacet
  facet normal -0.000000e+000 0.000000e+000 -1.000000e+000
    outer loop
      vertex   -4.000000e+001 2.000000e+001 0.000000e+000
      vertex   -5.250000e+001 1.250000e+001 0.000000e+000
      vertex   -6.000000e+001 2.000000e+001 0.000000e+000
    endloop
  endfacet
  facet normal 0.000000e+000 0.000000e+000 -1.000000e+000
    outer loop
      vertex   -6.000000e+001 2.000000e+001 0.000000e+000
      vertex   -5.250000e+001 1.250000e+001 0.000000e+000
      vertex   -5.250000e+001 7.500000e+000 0.000000e+000
    endloop
  endfacet
  facet normal -0.000000e+000 1.000000e+000 0.000000e+000
    outer loop
      vertex   -6.000000e+001 2.000000e+001 0.000000e+000
      vertex   -6.000000e+001 2.000000e+001 4.000000e+000
      vertex   -4.000000e+001 2.000000e+001 0.000000e+000
    endloop
  endfacet
  facet normal 0.000000e+000 1.000000e+000 -0.000000e+000
    outer loop
      vertex   -4.000000e+001 2.000000e+001 0.000000e+000
      vertex   -6.000000e+001 2.000000e+001 4.000000e+000
      vertex   -4.000000e+001 2.000000e+001 4.000000e+000
    endloop
  endfacet
  facet normal -1.000000e+000 -0.000000e+000 -0.000000e+000
    outer loop
      vertex   -6.000000e+001 2.000000e+001 4.000000e+000
      vertex   -6.000000e+001 2.000000e+001 0.000000e+000
      vertex   -6.000000e+001 0.000000e+000 4.000000e+000
    endloop
  endfacet
  facet normal -1.000000e+000 -1.671865e-016 -8.359326e-016
    outer loop
      vertex   -6.000000e+001 0.000000e+000 4.000000e+000
      vertex   -6.000000e+001 2.000000e+001 0.000000e+000
      vertex   -6.000000e+001 -2.250000e+001 0.000000e+000
    endloop
  endfacet
  facet normal -1.000000e+000 -0.000000e+000 0.000000e+000
    outer loop
      vertex   -6.000000e+001 -1.800000e+001 4.000000e+000
      vertex   -6.000000e+001 -2.250000e+001 0.000000e+000
      vertex   -6.000000e+001 -2.250000e+001 4.000000e+000
    endloop
  endfacet
  facet normal -1.000000e+000 -3.947460e-016 4.440892e-016
    outer loop
      vertex   -6.000000e+001 -1.800000e+001 4.000000e+000
      vertex   -6.000000e+001 0.000000e+000 4.000000e+000
      vertex   -6.000000e+001 -2.250000e+001 0.000000e+000
    endloop
  endfacet
  facet normal -1.000000e+000 -3.947460e-016 1.753024e-031
    outer loop
      vertex   -6.000000e+001 -1.800000e+001 4.000000e+000
      vertex   -6.000000e+001 -1.800000e+001 2.000000e+001
      vertex   -6.000000e+001 0.000000e+000 4.000000e+000
    endloop
  endfacet
  facet normal -1.000000e+000 0.000000e+000 4.440892e-016
    outer loop
      vertex   -6.000000e+001 0.000000e+000 4.000000e+000
      vertex   -6.000000e+001 -1.800000e+001 2.000000e+001
      vertex   -6.000000e+001 8.881784e-015 2.000000e+001
    endloop
  endfacet
  facet normal 1.000000e+000 0.000000e+000 0.000000e+000
    outer loop
      vertex   -4.000000e+001 2.000000e+001 4.000000e+000
      vertex   -4.000000e+001 0.000000e+000 4.000000e+000
      vertex   -4.000000e+001 2.000000e+001 0.000000e+000
    endloop
  endfacet
  facet normal 1.000000e+000 0.000000e+000 0.000000e+000
    outer loop
      vertex   -4.000000e+001 2.000000e+001 0.000000e+000
      vertex   -4.000000e+001 0.000000e+000 4.000000e+000
      vertex   -4.000000e+001 -3.000000e+001 0.000000e+000
    endloop
  endfacet
  facet normal 1.000000e+000 3.947460e-016 -2.960595e-015
    outer loop
      vertex   -4.000000e+001 -3.000000e+001 0.000000e+000
      vertex   -4.000000e+001 0.000000e+000 4.000000e+000
      vertex   -4.000000e+001 -1.800000e+001 4.000000e+000
    endloop
  endfacet
  facet normal 1.000000e+000 0.000000e+000 -1.776357e-015
    outer loop
      vertex   -4.000000e+001 -2.250000e+001 4.000000e+000
      vertex   -4.000000e+001 -3.000000e+001 0.000000e+000
      vertex   -4.000000e+001 -1.800000e+001 4.000000e+000
    endloop
  endfacet
  facet normal 1.000000e+000 -9.473903e-016 0.000000e+000
    outer loop
      vertex   -4.000000e+001 -2.250000e+001 4.000000e+000
      vertex   -4.000000e+001 -3.000000e+001 4.000000e+001
      vertex   -4.000000e+001 -3.000000e+001 0.000000e+000
    endloop
  endfacet
  facet normal 1.000000e+000 -9.473903e-016 0.000000e+000
    outer loop
      vertex   -4.000000e+001 -2.250000e+001 4.000000e+000
      vertex   -4.000000e+001 -2.250000e+001 4.200000e+001
      vertex   -4.000000e+001 -3.000000e+001 4.000000e+001
    endloop
  endfacet
  facet normal 1.000000e+000 0.000000e+000 -3.552714e-015
    outer loop
      vertex   -4.000000e+001 -3.000000e+001 4.000000e+001
      vertex   -4.000000e+001 -2.250000e+001 4.200000e+001
      vertex   -4.000000e+001 -3.750000e+001 4.200000e+001
    endloop
  endfacet
  facet normal 1.000000e+000 9.473903e-016 0.000000e+000
    outer loop
      vertex   -4.000000e+001 -3.750000e+001 4.000000e+000
      vertex   -4.000000e+001 -3.000000e+001 4.000000e+001
      vertex   -4.000000e+001 -3.750000e+001 4.200000e+001
    endloop
  endfacet
  facet normal 1.000000e+000 9.473903e-016 -0.000000e+000
    outer loop
      vertex   -4.000000e+001 -3.750000e+001 4.000000e+000
      vertex   -4.000000e+001 -3.000000e+001 0.000000e+000
      vertex   -4.000000e+001 -3.000000e+001 4.000000e+001
    endloop
  endfacet
  facet normal 1.000000e+000 0.000000e+000 -1.776357e-015
    outer loop
      vertex   -4.000000e+001 -3.750000e+001 4.000000e+000
      vertex   -4.000000e+001 -4.200000e+001 4.000000e+000
      vertex   -4.000000e+001 -3.000000e+001 0.000000e+000
    endloop
  endfacet
  facet normal 1.000000e+000 -3.947460e-016 -2.960595e-015
    outer loop
      vertex   -4.000000e+001 -3.000000e+001 0.000000e+000
      vertex   -4.000000e+001 -4.200000e+001 4.000000e+000
      vertex   -4.000000e+001 -6.000000e+001 4.000000e+000
    endloop
  endfacet
  facet normal 1.000000e+000 0.000000e+000 -0.000000e+000
    outer loop
      vertex   -4.000000e+001 -8.000000e+001 0.000000e+000
      vertex   -4.000000e+001 -6.000000e+001 4.000000e+000
      vertex   -4.000000e+001 -8.000000e+001 4.000000e+000
    endloop
  endfacet
  facet normal 1.000000e+000 0.000000e+000 -0.000000e+000
    outer loop
      vertex   -4.000000e+001 -8.000000e+001 0.000000e+000
      vertex   -4.000000e+001 -3.000000e+001 0.000000e+000
      vertex   -4.000000e+001 -6.000000e+001 4.000000e+000
    endloop
  endfacet
  facet normal 1.000000e+000 3.947460e-016 -4.440892e-016
    outer loop
      vertex   -4.000000e+001 0.000000e+000 4.000000e+000
      vertex   -4.000000e+001 8.881784e-015 2.000000e+001
      vertex   -4.000000e+001 -1.800000e+001 4.000000e+000
    endloop
  endfacet
  facet normal 1.000000e+000 0.000000e+000 -0.000000e+000
    outer loop
      vertex   -4.000000e+001 -1.800000e+001 4.000000e+000
      vertex   -4.000000e+001 8.881784e-015 2.000000e+001
      vertex   -4.000000e+001 -1.800000e+001 2.000000e+001
    endloop
  endfacet
  facet normal 1.000000e+000 0.000000e+000 -0.000000e+000
    outer loop
      vertex   -4.000000e+001 -2.250000e+001 4.200000e+001
      vertex   -4.000000e+001 -2.250000e+001 8.000000e+001
      vertex   -4.000000e+001 -3.750000e+001 4.200000e+001
    endloop
  endfacet
  facet normal 1.000000e+000 0.000000e+000 -0.000000e+000
    outer loop
      vertex   -4.000000e+001 -3.750000e+001 4.200000e+001
      vertex   -4.000000e+001 -2.250000e+001 8.000000e+001
      vertex   -4.000000e+001 -3.750000e+001 8.000000e+001
    endloop
  endfacet
  facet normal 1.000000e+000 -3.947460e-016 1.753024e-031
    outer loop
      vertex   -4.000000e+001 -4.200000e+001 4.000000e+000
      vertex   -4.000000e+001 -4.200000e+001 2.000000e+001
      vertex   -4.000000e+001 -6.000000e+001 4.000000e+000
    endloop
  endfacet
  facet normal 1.000000e+000 0.000000e+000 -4.440892e-016
    outer loop
      vertex   -4.000000e+001 -6.000000e+001 4.000000e+000
      vertex   -4.000000e+001 -4.200000e+001 2.000000e+001
      vertex   -4.000000e+001 -6.000000e+001 2.000000e+001
    endloop
  endfacet
  facet normal 0.000000e+000 -1.000000e+000 7.105427e-015
    outer loop
      vertex   -4.500000e+001 1.500000e+001 4.000000e+000
      vertex   -4.500000e+001 1.500000e+001 1.400000e+001
      vertex   -5.500000e+001 1.500000e+001 4.000000e+000
    endloop
  endfacet
  facet normal 0.000000e+000 -1.000000e+000 7.105427e-015
    outer loop
      vertex   -5.500000e+001 1.500000e+001 4.000000e+000
      vertex   -4.500000e+001 1.500000e+001 1.400000e+001
      vertex   -5.500000e+001 1.500000e+001 1.400000e+001
    endloop
  endfacet
  facet normal 0.000000e+000 1.000000e+000 -7.105427e-015
    outer loop
      vertex   -5.500000e+001 5.000000e+000 4.000000e+000
      vertex   -5.500000e+001 5.000000e+000 1.400000e+001
      vertex   -4.500000e+001 5.000000e+000 4.000000e+000
    endloop
  endfacet
  facet normal 0.000000e+000 1.000000e+000 -7.105427e-015
    outer loop
      vertex   -4.500000e+001 5.000000e+000 4.000000e+000
      vertex   -5.500000e+001 5.000000e+000 1.400000e+001
      vertex   -4.500000e+001 5.000000e+000 1.400000e+001
    endloop
  endfacet
  facet normal -1.000000e+000 0.000000e+000 0.000000e+000
    outer loop
      vertex   -4.500000e+001 5.000000e+000 4.000000e+000
      vertex   -4.500000e+001 5.000000e+000 1.400000e+001
      vertex   -4.500000e+001 1.500000e+001 4.000000e+000
    endloop
  endfacet
  facet normal -1.000000e+000 0.000000e+000 0.000000e+000
    outer loop
      vertex   -4.500000e+001 1.500000e+001 4.000000e+000
      vertex   -4.500000e+001 5.000000e+000 1.400000e+001
      vertex   -4.500000e+001 1.500000e+001 1.400000e+001
    endloop
  endfacet
  facet normal -0.000000e+000 -0.000000e+000 1.000000e+000
    outer loop
      vertex   -5.500000e+001 5.000000e+000 1.400000e+001
      vertex   -4.300000e+001 3.000000e+000 1.400000e+001
      vertex   -4.500000e+001 5.000000e+000 1.400000e+001
    endloop
  endfacet
  facet normal -0.000000e+000 0.000000e+000 1.000000e+000
    outer loop
      vertex   -5.500000e+001 5.000000e+000 1.400000e+001
      vertex   -5.700000e+001 3.000000e+000 1.400000e+001
      vertex   -4.300000e+001 3.000000e+000 1.400000e+001
    endloop
  endfacet
  facet normal 0.000000e+000 0.000000e+000 1.000000e+000
    outer loop
      vertex   -5.500000e+001 5.000000e+000 1.400000e+001
      vertex   -5.700000e+001 1.700000e+001 1.400000e+001
      vertex   -5.700000e+001 3.000000e+000 1.400000e+001
    endloop
  endfacet
  facet normal 0.000000e+000 -0.000000e+000 1.000000e+000
    outer loop
      vertex   -5.500000e+001 5.000000e+000 1.400000e+001
      vertex   -5.500000e+001 1.500000e+001 1.400000e+001
      vertex   -5.700000e+001 1.700000e+001 1.400000e+001
    endloop
  endfacet
  facet normal -0.000000e+000 0.000000e+000 1.000000e+000
    outer loop
      vertex   -5.700000e+001 1.700000e+001 1.400000e+001
      vertex   -5.500000e+001 1.500000e+001 1.400000e+001
      vertex   -4.500000e+001 1.500000e+001 1.400000e+001
    endloop
  endfacet
  facet normal 0.000000e+000 0.000000e+000 1.000000e+000
    outer loop
      vertex   -4.300000e+001 1.700000e+001 1.400000e+001
      vertex   -4.500000e+001 1.500000e+001 1.400000e+001
      vertex   -4.500000e+001 5.000000e+000 1.400000e+001
    endloop
  endfacet
  facet normal 0.000000e+000 -0.000000e+000 1.000000e+000
    outer loop
      vertex   -4.300000e+001 3.000000e+000 1.400000e+001
      vertex   -4.300000e+001 1.700000e+001 1.400000e+001
      vertex   -4.500000e+001 5.000000e+000 1.400000e+001
    endloop
  endfacet
  facet normal -0.000000e+000 0.000000e+000 1.000000e+000
    outer loop
      vertex   -5.700000e+001 1.700000e+001 1.400000e+001
      vertex   -4.500000e+001 1.500000e+001 1.400000e+001
      vertex   -4.300000e+001 1.700000e+001 1.400000e+001
    endloop
  endfacet
  facet normal -0.000000e+000 1.000000e+000 0.000000e+000
    outer loop
      vertex   -5.700000e+001 1.700000e+001 4.000000e+000
      vertex   -5.700000e+001 1.700000e+001 1.400000e+001
      vertex   -4.300000e+001 1.700000e+001 4.000000e+000
    endloop
  endfacet
  facet normal 0.000000e+000 1.000000e+000 -0.000000e+000
    outer loop
      vertex   -4.300000e+001 1.700000e+001 4.000000e+000
      vertex   -5.700000e+001 1.700000e+001 1.400000e+001
      vertex   -4.300000e+001 1.700000e+001 1.400000e+001
    endloop
  endfacet
  facet normal -1.000000e+000 0.000000e+000 0.000000e+000
    outer loop
      vertex   -5.700000e+001 3.000000e+000 4.000000e+000
      vertex   -5.700000e+001 3.000000e+000 1.400000e+001
      vertex   -5.700000e+001 1.700000e+001 4.000000e+000
    endloop
  endfacet
  facet normal -1.000000e+000 0.000000e+000 0.000000e+000
    outer loop
      vertex   -5.700000e+001 1.700000e+001 4.000000e+000
      vertex   -5.700000e+001 3.000000e+000 1.400000e+001
      vertex   -5.700000e+001 1.700000e+001 1.400000e+001
    endloop
  endfacet
  facet normal -0.000000e+000 -1.000000e+000 0.000000e+000
    outer loop
      vertex   -4.300000e+001 3.000000e+000 4.000000e+000
      vertex   -4.300000e+001 3.000000e+000 1.400000e+001
      vertex   -5.700000e+001 3.000000e+000 4.000000e+000
    endloop
  endfacet
  facet normal 0.000000e+000 -1.000000e+000 0.000000e+000
    outer loop
      vertex   -5.700000e+001 3.000000e+000 4.000000e+000
      vertex   -4.300000e+001 3.000000e+000 1.400000e+001
      vertex   -5.700000e+001 3.000000e+000 1.400000e+001
    endloop
  endfacet
  facet normal 1.000000e+000 0.000000e+000 -0.000000e+000
    outer loop
      vertex   -4.300000e+001 1.700000e+001 4.000000e+000
      vertex   -4.300000e+001 1.700000e+001 1.400000e+001
      vertex   -4.300000e+001 3.000000e+000 4.000000e+000
    endloop
  endfacet
  facet normal 1.000000e+000 0.000000e+000 -0.000000e+000
    outer loop
      vertex   -4.300000e+001 3.000000e+000 4.000000e+000
      vertex   -4.300000e+001 1.700000e+001 1.400000e+001
      vertex   -4.300000e+001 3.000000e+000 1.400000e+001
    endloop
  endfacet
endsolid
