solid ascii
  facet normal 0.000000e+000 0.000000e+000 1.000000e+000
    outer loop
      vertex   -2.000000e+001 6.500000e+001 4.000000e+000
      vertex   -6.475000e+001 6.500000e+001 4.000000e+000
      vertex   -2.000000e+001 4.500000e+001 4.000000e+000
    endloop
  endfacet
  facet normal 0.000000e+000 0.000000e+000 1.000000e+000
    outer loop
      vertex   -2.000000e+001 4.500000e+001 4.000000e+000
      vertex   -6.475000e+001 6.500000e+001 4.000000e+000
      vertex   -6.475000e+001 4.500000e+001 4.000000e+000
    endloop
  endfacet
  facet normal 0.000000e+000 -0.000000e+000 1.000000e+000
    outer loop
      vertex   -6.475000e+001 4.500000e+001 4.000000e+000
      vertex   -6.475000e+001 6.500000e+001 4.000000e+000
      vertex   -1.095000e+002 6.500000e+001 4.000000e+000
    endloop
  endfacet
  facet normal 0.000000e+000 -0.000000e+000 1.000000e+000
    outer loop
      vertex   -1.095000e+002 4.500000e+001 4.000000e+000
      vertex   -1.095000e+002 6.500000e+001 4.000000e+000
      vertex   -1.542500e+002 6.500000e+001 4.000000e+000
    endloop
  endfacet
  facet normal 0.000000e+000 -0.000000e+000 1.000000e+000
    outer loop
      vertex   -1.542500e+002 4.500000e+001 4.000000e+000
      vertex   -1.542500e+002 6.500000e+001 4.000000e+000
      vertex   -1.990000e+002 6.500000e+001 4.000000e+000
    endloop
  endfacet
  facet normal 0.000000e+000 -0.000000e+000 1.000000e+000
    outer loop
      vertex   -1.990000e+002 4.500000e+001 4.000000e+000
      vertex   -1.542500e+002 4.500000e+001 4.000000e+000
      vertex   -1.990000e+002 6.500000e+001 4.000000e+000
    endloop
  endfacet
  facet normal 0.000000e+000 0.000000e+000 1.000000e+000
    outer loop
      vertex   -6.475000e+001 4.500000e+001 4.000000e+000
      vertex   -1.095000e+002 6.500000e+001 4.000000e+000
      vertex   -1.095000e+002 4.500000e+001 4.000000e+000
    endloop
  endfacet
  facet normal 0.000000e+000 0.000000e+000 1.000000e+000
    outer loop
      vertex   -1.095000e+002 4.500000e+001 4.000000e+000
      vertex   -1.542500e+002 6.500000e+001 4.000000e+000
      vertex   -1.542500e+002 4.500000e+001 4.000000e+000
    endloop
  endfacet
  facet normal 0.000000e+000 0.000000e+000 -1.000000e+000
    outer loop
      vertex   -2.000000e+001 4.500000e+001 0.000000e+000
      vertex   -6.475000e+001 4.500000e+001 0.000000e+000
      vertex   -2.000000e+001 6.500000e+001 0.000000e+000
    endloop
  endfacet
  facet normal -0.000000e+000 0.000000e+000 -1.000000e+000
    outer loop
      vertex   -2.000000e+001 6.500000e+001 0.000000e+000
      vertex   -6.475000e+001 4.500000e+001 0.000000e+000
      vertex   -6.475000e+001 6.500000e+001 0.000000e+000
    endloop
  endfacet
  facet normal -0.000000e+000 -0.000000e+000 -1.000000e+000
    outer loop
      vertex   -6.475000e+001 6.500000e+001 0.000000e+000
      vertex   -6.475000e+001 4.500000e+001 0.000000e+000
      vertex   -1.095000e+002 4.500000e+001 0.000000e+000
    endloop
  endfacet
  facet normal -0.000000e+000 -0.000000e+000 -1.000000e+000
    outer loop
      vertex   -1.095000e+002 6.500000e+001 0.000000e+000
      vertex   -1.095000e+002 4.500000e+001 0.000000e+000
      vertex   -1.542500e+002 4.500000e+001 0.000000e+000
    endloop
  endfacet
  facet normal -0.000000e+000 -0.000000e+000 -1.000000e+000
    outer loop
      vertex   -1.542500e+002 6.500000e+001 0.000000e+000
      vertex   -1.542500e+002 4.500000e+001 0.000000e+000
      vertex   -1.990000e+002 4.500000e+001 0.000000e+000
    endloop
  endfacet
  facet normal 0.000000e+000 -0.000000e+000 -1.000000e+000
    outer loop
      vertex   -1.990000e+002 6.500000e+001 0.000000e+000
      vertex   -1.542500e+002 6.500000e+001 0.000000e+000
      vertex   -1.990000e+002 4.500000e+001 0.000000e+000
    endloop
  endfacet
  facet normal -0.000000e+000 0.000000e+000 -1.000000e+000
    outer loop
      vertex   -6.475000e+001 6.500000e+001 0.000000e+000
      vertex   -1.095000e+002 4.500000e+001 0.000000e+000
      vertex   -1.095000e+002 6.500000e+001 0.000000e+000
    endloop
  endfacet
  facet normal -0.000000e+000 0.000000e+000 -1.000000e+000
    outer loop
      vertex   -1.095000e+002 6.500000e+001 0.000000e+000
      vertex   -1.542500e+002 4.500000e+001 0.000000e+000
      vertex   -1.542500e+002 6.500000e+001 0.000000e+000
    endloop
  endfacet
  facet normal 0.000000e+000 -1.000000e+000 0.000000e+000
    outer loop
      vertex   -1.990000e+002 4.500000e+001 4.000000e+000
      vertex   -1.990000e+002 4.500000e+001 0.000000e+000
      vertex   -1.542500e+002 4.500000e+001 4.000000e+000
    endloop
  endfacet
  facet normal 0.000000e+000 -1.000000e+000 -0.000000e+000
    outer loop
      vertex   -1.542500e+002 4.500000e+001 4.000000e+000
      vertex   -1.990000e+002 4.500000e+001 0.000000e+000
      vertex   -1.542500e+002 4.500000e+001 0.000000e+000
    endloop
  endfacet
  facet normal 0.000000e+000 -1.000000e+000 -0.000000e+000
    outer loop
      vertex   -1.095000e+002 4.500000e+001 4.000000e+000
      vertex   -1.542500e+002 4.500000e+001 0.000000e+000
      vertex   -1.095000e+002 4.500000e+001 0.000000e+000
    endloop
  endfacet
  facet normal 0.000000e+000 -1.000000e+000 -0.000000e+000
    outer loop
      vertex   -6.475000e+001 4.500000e+001 4.000000e+000
      vertex   -1.095000e+002 4.500000e+001 0.000000e+000
      vertex   -6.475000e+001 4.500000e+001 0.000000e+000
    endloop
  endfacet
  facet normal 0.000000e+000 -1.000000e+000 -0.000000e+000
    outer loop
      vertex   -2.000000e+001 4.500000e+001 4.000000e+000
      vertex   -6.475000e+001 4.500000e+001 0.000000e+000
      vertex   -2.000000e+001 4.500000e+001 0.000000e+000
    endloop
  endfacet
  facet normal -0.000000e+000 -1.000000e+000 -0.000000e+000
    outer loop
      vertex   -2.000000e+001 4.500000e+001 4.000000e+000
      vertex   -6.475000e+001 4.500000e+001 4.000000e+000
      vertex   -6.475000e+001 4.500000e+001 0.000000e+000
    endloop
  endfacet
  facet normal 0.000000e+000 -1.000000e+000 0.000000e+000
    outer loop
      vertex   -1.542500e+002 4.500000e+001 4.000000e+000
      vertex   -1.542500e+002 4.500000e+001 0.000000e+000
      vertex   -1.095000e+002 4.500000e+001 4.000000e+000
    endloop
  endfacet
  facet normal 0.000000e+000 -1.000000e+000 0.000000e+000
    outer loop
      vertex   -1.095000e+002 4.500000e+001 4.000000e+000
      vertex   -1.095000e+002 4.500000e+001 0.000000e+000
      vertex   -6.475000e+001 4.500000e+001 4.000000e+000
    endloop
  endfacet
  facet normal -1.000000e+000 -0.000000e+000 -0.000000e+000
    outer loop
      vertex   -1.990000e+002 6.500000e+001 4.000000e+000
      vertex   -1.990000e+002 6.500000e+001 0.000000e+000
      vertex   -1.990000e+002 4.500000e+001 4.000000e+000
    endloop
  endfacet
  facet normal -1.000000e+000 -0.000000e+000 -0.000000e+000
    outer loop
      vertex   -1.990000e+002 4.500000e+001 4.000000e+000
      vertex   -1.990000e+002 6.500000e+001 0.000000e+000
      vertex   -1.990000e+002 4.500000e+001 0.000000e+000
    endloop
  endfacet
  facet normal 0.000000e+000 1.000000e+000 0.000000e+000
    outer loop
      vertex   -2.000000e+001 6.500000e+001 4.000000e+000
      vertex   -2.000000e+001 6.500000e+001 0.000000e+000
      vertex   -6.475000e+001 6.500000e+001 4.000000e+000
    endloop
  endfacet
  facet normal 0.000000e+000 1.000000e+000 0.000000e+000
    outer loop
      vertex   -6.475000e+001 6.500000e+001 4.000000e+000
      vertex   -2.000000e+001 6.500000e+001 0.000000e+000
      vertex   -6.475000e+001 6.500000e+001 0.000000e+000
    endloop
  endfacet
  facet normal 0.000000e+000 1.000000e+000 0.000000e+000
    outer loop
      vertex   -1.095000e+002 6.500000e+001 4.000000e+000
      vertex   -6.475000e+001 6.500000e+001 0.000000e+000
      vertex   -1.095000e+002 6.500000e+001 0.000000e+000
    endloop
  endfacet
  facet normal 0.000000e+000 1.000000e+000 0.000000e+000
    outer loop
      vertex   -1.542500e+002 6.500000e+001 4.000000e+000
      vertex   -1.095000e+002 6.500000e+001 0.000000e+000
      vertex   -1.542500e+002 6.500000e+001 0.000000e+000
    endloop
  endfacet
  facet normal 0.000000e+000 1.000000e+000 0.000000e+000
    outer loop
      vertex   -1.990000e+002 6.500000e+001 4.000000e+000
      vertex   -1.542500e+002 6.500000e+001 0.000000e+000
      vertex   -1.990000e+002 6.500000e+001 0.000000e+000
    endloop
  endfacet
  facet normal -0.000000e+000 1.000000e+000 0.000000e+000
    outer loop
      vertex   -1.990000e+002 6.500000e+001 4.000000e+000
      vertex   -1.542500e+002 6.500000e+001 4.000000e+000
      vertex   -1.542500e+002 6.500000e+001 0.000000e+000
    endloop
  endfacet
  facet normal 0.000000e+000 1.000000e+000 0.000000e+000
    outer loop
      vertex   -6.475000e+001 6.500000e+001 4.000000e+000
      vertex   -6.475000e+001 6.500000e+001 0.000000e+000
      vertex   -1.095000e+002 6.500000e+001 4.000000e+000
    endloop
  endfacet
  facet normal 0.000000e+000 1.000000e+000 0.000000e+000
    outer loop
      vertex   -1.095000e+002 6.500000e+001 4.000000e+000
      vertex   -1.095000e+002 6.500000e+001 0.000000e+000
      vertex   -1.542500e+002 6.500000e+001 4.000000e+000
    endloop
  endfacet
  facet normal 1.000000e+000 -0.000000e+000 0.000000e+000
    outer loop
      vertex   -2.000000e+001 4.500000e+001 4.000000e+000
      vertex   -2.000000e+001 4.500000e+001 0.000000e+000
      vertex   -2.000000e+001 6.500000e+001 4.000000e+000
    endloop
  endfacet
  facet normal 1.000000e+000 -0.000000e+000 0.000000e+000
    outer loop
      vertex   -2.000000e+001 6.500000e+001 4.000000e+000
      vertex   -2.000000e+001 4.500000e+001 0.000000e+000
      vertex   -2.000000e+001 6.500000e+001 0.000000e+000
    endloop
  endfacet
endsolid
