solid ascii
  facet normal 0.000000e+000 7.216450e-017 1.000000e+000
    outer loop
      vertex   -1.300000e+002 9.375000e+001 2.000000e-001
      vertex   -1.300000e+002 1.037500e+002 2.000000e-001
      vertex   -1.400000e+002 9.375000e+001 2.000000e-001
    endloop
  endfacet
  facet normal 7.216450e-017 0.000000e+000 1.000000e+000
    outer loop
      vertex   -1.400000e+002 9.375000e+001 2.000000e-001
      vertex   -1.300000e+002 1.037500e+002 2.000000e-001
      vertex   -1.400000e+002 1.137500e+002 2.000000e-001
    endloop
  endfacet
  facet normal 0.000000e+000 -7.216450e-017 1.000000e+000
    outer loop
      vertex   -1.400000e+002 1.137500e+002 2.000000e-001
      vertex   -1.300000e+002 1.037500e+002 2.000000e-001
      vertex   -1.200000e+002 1.137500e+002 2.000000e-001
    endloop
  endfacet
  facet normal -7.216450e-017 0.000000e+000 1.000000e+000
    outer loop
      vertex   -1.200000e+002 1.137500e+002 2.000000e-001
      vertex   -1.300000e+002 1.037500e+002 2.000000e-001
      vertex   -1.200000e+002 1.037500e+002 2.000000e-001
    endloop
  endfacet
  facet normal 1.000000e+000 0.000000e+000 -0.000000e+000
    outer loop
      vertex   -1.200000e+002 1.037500e+002 0.000000e+000
      vertex   -1.200000e+002 1.137500e+002 0.000000e+000
      vertex   -1.200000e+002 1.037500e+002 2.000000e-001
    endloop
  endfacet
  facet normal 1.000000e+000 -0.000000e+000 0.000000e+000
    outer loop
      vertex   -1.200000e+002 1.037500e+002 2.000000e-001
      vertex   -1.200000e+002 1.137500e+002 0.000000e+000
      vertex   -1.200000e+002 1.137500e+002 2.000000e-001
    endloop
  endfacet
  facet normal -0.000000e+000 -1.000000e+000 -0.000000e+000
    outer loop
      vertex   -1.300000e+002 9.375000e+001 2.000000e-001
      vertex   -1.400000e+002 9.375000e+001 2.000000e-001
      vertex   -1.300000e+002 9.375000e+001 0.000000e+000
    endloop
  endfacet
  facet normal -0.000000e+000 -1.000000e+000 -0.000000e+000
    outer loop
      vertex   -1.300000e+002 9.375000e+001 0.000000e+000
      vertex   -1.400000e+002 9.375000e+001 2.000000e-001
      vertex   -1.400000e+002 9.375000e+001 0.000000e+000
    endloop
  endfacet
  facet normal -1.000000e+000 0.000000e+000 0.000000e+000
    outer loop
      vertex   -1.400000e+002 1.137500e+002 0.000000e+000
      vertex   -1.400000e+002 9.375000e+001 0.000000e+000
      vertex   -1.400000e+002 1.137500e+002 2.000000e-001
    endloop
  endfacet
  facet normal -1.000000e+000 -0.000000e+000 0.000000e+000
    outer loop
      vertex   -1.400000e+002 1.137500e+002 2.000000e-001
      vertex   -1.400000e+002 9.375000e+001 0.000000e+000
      vertex   -1.400000e+002 9.375000e+001 2.000000e-001
    endloop
  endfacet
  facet normal 0.000000e+000 1.000000e+000 -0.000000e+000
    outer loop
      vertex   -1.200000e+002 1.137500e+002 0.000000e+000
      vertex   -1.400000e+002 1.137500e+002 0.000000e+000
      vertex   -1.200000e+002 1.137500e+002 2.000000e-001
    endloop
  endfacet
  facet normal 0.000000e+000 1.000000e+000 -0.000000e+000
    outer loop
      vertex   -1.200000e+002 1.137500e+002 2.000000e-001
      vertex   -1.400000e+002 1.137500e+002 0.000000e+000
      vertex   -1.400000e+002 1.137500e+002 2.000000e-001
    endloop
  endfacet
  facet normal -1.000000e+000 1.136868e-014 0.000000e+000
    outer loop
      vertex   -1.300000e+002 1.037500e+002 2.500000e+001
      vertex   -1.300000e+002 1.037500e+002 2.000000e-001
      vertex   -1.300000e+002 9.875000e+001 2.000000e+000
    endloop
  endfacet
  facet normal -1.000000e+000 0.000000e+000 2.471453e-015
    outer loop
      vertex   -1.300000e+002 9.875000e+001 2.500000e+001
      vertex   -1.300000e+002 1.037500e+002 2.500000e+001
      vertex   -1.300000e+002 9.875000e+001 2.000000e+000
    endloop
  endfacet
  facet normal -1.000000e+000 -2.862206e-015 0.000000e+000
    outer loop
      vertex   -1.300000e+002 9.375000e+001 0.000000e+000
      vertex   -1.300000e+002 8.382000e+001 2.000000e+000
      vertex   -1.300000e+002 9.375000e+001 2.000000e-001
    endloop
  endfacet
  facet normal -1.000000e+000 0.000000e+000 1.421085e-014
    outer loop
      vertex   -1.300000e+002 9.375000e+001 0.000000e+000
      vertex   -1.300000e+002 8.082000e+001 2.000000e+000
      vertex   -1.300000e+002 8.382000e+001 2.000000e+000
    endloop
  endfacet
  facet normal -1.000000e+000 -1.935095e-015 1.700465e-015
    outer loop
      vertex   -1.300000e+002 9.375000e+001 0.000000e+000
      vertex   -1.300000e+002 6.437500e+001 0.000000e+000
      vertex   -1.300000e+002 8.082000e+001 2.000000e+000
    endloop
  endfacet
  facet normal -1.000000e+000 0.000000e+000 -1.421085e-014
    outer loop
      vertex   -1.300000e+002 8.082000e+001 2.000000e+000
      vertex   -1.300000e+002 6.437500e+001 0.000000e+000
      vertex   -1.300000e+002 6.588000e+001 2.000000e+000
    endloop
  endfacet
  facet normal -1.000000e+000 0.000000e+000 -1.421085e-014
    outer loop
      vertex   -1.300000e+002 6.588000e+001 2.000000e+000
      vertex   -1.300000e+002 6.437500e+001 0.000000e+000
      vertex   -1.300000e+002 6.288000e+001 2.000000e+000
    endloop
  endfacet
  facet normal -1.000000e+000 -0.000000e+000 -0.000000e+000
    outer loop
      vertex   -1.300000e+002 6.288000e+001 1.700000e+001
      vertex   -1.300000e+002 6.588000e+001 2.000000e+000
      vertex   -1.300000e+002 6.288000e+001 2.000000e+000
    endloop
  endfacet
  facet normal -1.000000e+000 0.000000e+000 0.000000e+000
    outer loop
      vertex   -1.300000e+002 6.288000e+001 1.700000e+001
      vertex   -1.300000e+002 6.588000e+001 1.700000e+001
      vertex   -1.300000e+002 6.588000e+001 2.000000e+000
    endloop
  endfacet
  facet normal -1.000000e+000 0.000000e+000 -1.421085e-014
    outer loop
      vertex   -1.300000e+002 6.288000e+001 2.000000e+000
      vertex   -1.300000e+002 6.437500e+001 0.000000e+000
      vertex   -1.300000e+002 4.794000e+001 2.000000e+000
    endloop
  endfacet
  facet normal -1.000000e+000 1.935095e-015 1.690789e-015
    outer loop
      vertex   -1.300000e+002 4.794000e+001 2.000000e+000
      vertex   -1.300000e+002 6.437500e+001 0.000000e+000
      vertex   -1.300000e+002 3.500000e+001 0.000000e+000
    endloop
  endfacet
  facet normal -1.000000e+000 2.859327e-015 0.000000e+000
    outer loop
      vertex   -1.300000e+002 4.494000e+001 2.000000e+000
      vertex   -1.300000e+002 3.500000e+001 0.000000e+000
      vertex   -1.300000e+002 3.500000e+001 2.000000e-001
    endloop
  endfacet
  facet normal -1.000000e+000 -5.684342e-015 -1.578984e-014
    outer loop
      vertex   -1.300000e+002 3.000000e+001 2.000000e+000
      vertex   -1.300000e+002 3.500000e+001 2.000000e-001
      vertex   -1.300000e+002 2.500000e+001 2.000000e-001
    endloop
  endfacet
  facet normal -1.000000e+000 -1.136868e-014 0.000000e+000
    outer loop
      vertex   -1.300000e+002 2.500000e+001 2.500000e+001
      vertex   -1.300000e+002 3.000000e+001 2.000000e+000
      vertex   -1.300000e+002 2.500000e+001 2.000000e-001
    endloop
  endfacet
  facet normal -1.000000e+000 0.000000e+000 2.471453e-015
    outer loop
      vertex   -1.300000e+002 2.500000e+001 2.500000e+001
      vertex   -1.300000e+002 3.000000e+001 2.500000e+001
      vertex   -1.300000e+002 3.000000e+001 2.000000e+000
    endloop
  endfacet
  facet normal -1.000000e+000 0.000000e+000 1.421085e-014
    outer loop
      vertex   -1.300000e+002 4.794000e+001 2.000000e+000
      vertex   -1.300000e+002 3.500000e+001 0.000000e+000
      vertex   -1.300000e+002 4.494000e+001 2.000000e+000
    endloop
  endfacet
  facet normal -1.000000e+000 -0.000000e+000 -0.000000e+000
    outer loop
      vertex   -1.300000e+002 4.494000e+001 1.700000e+001
      vertex   -1.300000e+002 4.794000e+001 2.000000e+000
      vertex   -1.300000e+002 4.494000e+001 2.000000e+000
    endloop
  endfacet
  facet normal -1.000000e+000 0.000000e+000 0.000000e+000
    outer loop
      vertex   -1.300000e+002 4.494000e+001 1.700000e+001
      vertex   -1.300000e+002 4.794000e+001 1.700000e+001
      vertex   -1.300000e+002 4.794000e+001 2.000000e+000
    endloop
  endfacet
  facet normal -1.000000e+000 1.902390e-015 5.284417e-015
    outer loop
      vertex   -1.300000e+002 4.494000e+001 2.000000e+000
      vertex   -1.300000e+002 3.500000e+001 2.000000e-001
      vertex   -1.300000e+002 3.000000e+001 2.000000e+000
    endloop
  endfacet
  facet normal -1.000000e+000 0.000000e+000 0.000000e+000
    outer loop
      vertex   -1.300000e+002 8.082000e+001 2.000000e+000
      vertex   -1.300000e+002 8.082000e+001 1.700000e+001
      vertex   -1.300000e+002 8.382000e+001 2.000000e+000
    endloop
  endfacet
  facet normal -1.000000e+000 0.000000e+000 0.000000e+000
    outer loop
      vertex   -1.300000e+002 8.382000e+001 2.000000e+000
      vertex   -1.300000e+002 8.082000e+001 1.700000e+001
      vertex   -1.300000e+002 8.382000e+001 1.700000e+001
    endloop
  endfacet
  facet normal -1.000000e+000 -1.903664e-015 5.287957e-015
    outer loop
      vertex   -1.300000e+002 8.382000e+001 2.000000e+000
      vertex   -1.300000e+002 9.875000e+001 2.000000e+000
      vertex   -1.300000e+002 9.375000e+001 2.000000e-001
    endloop
  endfacet
  facet normal -1.000000e+000 5.684342e-015 -1.578984e-014
    outer loop
      vertex   -1.300000e+002 9.375000e+001 2.000000e-001
      vertex   -1.300000e+002 9.875000e+001 2.000000e+000
      vertex   -1.300000e+002 1.037500e+002 2.000000e-001
    endloop
  endfacet
  facet normal 0.000000e+000 0.000000e+000 -1.000000e+000
    outer loop
      vertex   -1.400000e+002 9.375000e+001 0.000000e+000
      vertex   -1.400000e+002 1.137500e+002 0.000000e+000
      vertex   -1.300000e+002 9.375000e+001 0.000000e+000
    endloop
  endfacet
  facet normal 0.000000e+000 0.000000e+000 -1.000000e+000
    outer loop
      vertex   -1.300000e+002 9.375000e+001 0.000000e+000
      vertex   -1.400000e+002 1.137500e+002 0.000000e+000
      vertex   -1.200000e+002 1.037500e+002 0.000000e+000
    endloop
  endfacet
  facet normal 0.000000e+000 -9.022765e-016 -1.000000e+000
    outer loop
      vertex   -9.166667e+001 6.437500e+001 3.552714e-014
      vertex   -1.200000e+002 1.037500e+002 0.000000e+000
      vertex   -6.750000e+001 1.037500e+002 0.000000e+000
    endloop
  endfacet
  facet normal 0.000000e+000 -9.022765e-016 -1.000000e+000
    outer loop
      vertex   -4.333333e+001 6.437500e+001 3.552714e-014
      vertex   -6.750000e+001 1.037500e+002 0.000000e+000
      vertex   -1.500000e+001 1.037500e+002 0.000000e+000
    endloop
  endfacet
  facet normal 0.000000e+000 0.000000e+000 -1.000000e+000
    outer loop
      vertex   -5.000000e+000 9.375000e+001 0.000000e+000
      vertex   -1.500000e+001 1.037500e+002 0.000000e+000
      vertex   5.000000e+000 1.137500e+002 0.000000e+000
    endloop
  endfacet
  facet normal 0.000000e+000 0.000000e+000 -1.000000e+000
    outer loop
      vertex   5.000000e+000 9.375000e+001 0.000000e+000
      vertex   -5.000000e+000 9.375000e+001 0.000000e+000
      vertex   5.000000e+000 1.137500e+002 0.000000e+000
    endloop
  endfacet
  facet normal 0.000000e+000 0.000000e+000 -1.000000e+000
    outer loop
      vertex   -1.400000e+002 1.137500e+002 0.000000e+000
      vertex   -1.200000e+002 1.137500e+002 0.000000e+000
      vertex   -1.200000e+002 1.037500e+002 0.000000e+000
    endloop
  endfacet
  facet normal 5.247085e-016 -5.247085e-016 -1.000000e+000
    outer loop
      vertex   -1.300000e+002 9.375000e+001 0.000000e+000
      vertex   -1.200000e+002 1.037500e+002 0.000000e+000
      vertex   -9.166667e+001 6.437500e+001 3.552714e-014
    endloop
  endfacet
  facet normal 9.267949e-016 -1.793436e-030 -1.000000e+000
    outer loop
      vertex   -1.300000e+002 6.437500e+001 0.000000e+000
      vertex   -9.166667e+001 6.437500e+001 3.552714e-014
      vertex   -1.300000e+002 3.500000e+001 0.000000e+000
    endloop
  endfacet
  facet normal 9.267949e-016 1.793436e-030 -1.000000e+000
    outer loop
      vertex   -1.300000e+002 6.437500e+001 0.000000e+000
      vertex   -1.300000e+002 9.375000e+001 0.000000e+000
      vertex   -9.166667e+001 6.437500e+001 3.552714e-014
    endloop
  endfacet
  facet normal 0.000000e+000 -9.022765e-016 -1.000000e+000
    outer loop
      vertex   -9.166667e+001 6.437500e+001 3.552714e-014
      vertex   -6.750000e+001 1.037500e+002 0.000000e+000
      vertex   -4.333333e+001 6.437500e+001 3.552714e-014
    endloop
  endfacet
  facet normal 0.000000e+000 9.022765e-016 -1.000000e+000
    outer loop
      vertex   -6.750000e+001 2.500000e+001 0.000000e+000
      vertex   -4.333333e+001 6.437500e+001 3.552714e-014
      vertex   -1.500000e+001 2.500000e+001 0.000000e+000
    endloop
  endfacet
  facet normal 0.000000e+000 9.022765e-016 -1.000000e+000
    outer loop
      vertex   -6.750000e+001 2.500000e+001 0.000000e+000
      vertex   -9.166667e+001 6.437500e+001 3.552714e-014
      vertex   -4.333333e+001 6.437500e+001 3.552714e-014
    endloop
  endfacet
  facet normal 0.000000e+000 9.022765e-016 -1.000000e+000
    outer loop
      vertex   -6.750000e+001 2.500000e+001 0.000000e+000
      vertex   -1.200000e+002 2.500000e+001 0.000000e+000
      vertex   -9.166667e+001 6.437500e+001 3.552714e-014
    endloop
  endfacet
  facet normal 5.247085e-016 5.247085e-016 -1.000000e+000
    outer loop
      vertex   -9.166667e+001 6.437500e+001 3.552714e-014
      vertex   -1.200000e+002 2.500000e+001 0.000000e+000
      vertex   -1.300000e+002 3.500000e+001 0.000000e+000
    endloop
  endfacet
  facet normal 0.000000e+000 -0.000000e+000 -1.000000e+000
    outer loop
      vertex   -1.300000e+002 3.500000e+001 0.000000e+000
      vertex   -1.200000e+002 2.500000e+001 0.000000e+000
      vertex   -1.400000e+002 1.500000e+001 0.000000e+000
    endloop
  endfacet
  facet normal 0.000000e+000 -0.000000e+000 -1.000000e+000
    outer loop
      vertex   -1.400000e+002 3.500000e+001 0.000000e+000
      vertex   -1.300000e+002 3.500000e+001 0.000000e+000
      vertex   -1.400000e+002 1.500000e+001 0.000000e+000
    endloop
  endfacet
  facet normal 0.000000e+000 0.000000e+000 -1.000000e+000
    outer loop
      vertex   -1.500000e+001 1.037500e+002 0.000000e+000
      vertex   -1.500000e+001 1.137500e+002 0.000000e+000
      vertex   5.000000e+000 1.137500e+002 0.000000e+000
    endloop
  endfacet
  facet normal -5.247085e-016 -5.247085e-016 -1.000000e+000
    outer loop
      vertex   -1.500000e+001 1.037500e+002 0.000000e+000
      vertex   -5.000000e+000 9.375000e+001 0.000000e+000
      vertex   -4.333333e+001 6.437500e+001 3.552714e-014
    endloop
  endfacet
  facet normal -9.267949e-016 -0.000000e+000 -1.000000e+000
    outer loop
      vertex   -4.333333e+001 6.437500e+001 3.552714e-014
      vertex   -5.000000e+000 9.375000e+001 0.000000e+000
      vertex   -5.000000e+000 6.437500e+001 0.000000e+000
    endloop
  endfacet
  facet normal -9.267949e-016 0.000000e+000 -1.000000e+000
    outer loop
      vertex   -5.000000e+000 3.500000e+001 0.000000e+000
      vertex   -4.333333e+001 6.437500e+001 3.552714e-014
      vertex   -5.000000e+000 6.437500e+001 0.000000e+000
    endloop
  endfacet
  facet normal -5.247085e-016 5.247085e-016 -1.000000e+000
    outer loop
      vertex   -5.000000e+000 3.500000e+001 0.000000e+000
      vertex   -1.500000e+001 2.500000e+001 0.000000e+000
      vertex   -4.333333e+001 6.437500e+001 3.552714e-014
    endloop
  endfacet
  facet normal -0.000000e+000 -0.000000e+000 -1.000000e+000
    outer loop
      vertex   -5.000000e+000 3.500000e+001 0.000000e+000
      vertex   5.000000e+000 1.500000e+001 0.000000e+000
      vertex   -1.500000e+001 2.500000e+001 0.000000e+000
    endloop
  endfacet
  facet normal 0.000000e+000 0.000000e+000 -1.000000e+000
    outer loop
      vertex   -5.000000e+000 3.500000e+001 0.000000e+000
      vertex   5.000000e+000 3.500000e+001 0.000000e+000
      vertex   5.000000e+000 1.500000e+001 0.000000e+000
    endloop
  endfacet
  facet normal 0.000000e+000 0.000000e+000 -1.000000e+000
    outer loop
      vertex   5.000000e+000 1.500000e+001 0.000000e+000
      vertex   -1.500000e+001 1.500000e+001 0.000000e+000
      vertex   -1.500000e+001 2.500000e+001 0.000000e+000
    endloop
  endfacet
  facet normal -0.000000e+000 -0.000000e+000 -1.000000e+000
    outer loop
      vertex   -1.200000e+002 2.500000e+001 0.000000e+000
      vertex   -1.200000e+002 1.500000e+001 0.000000e+000
      vertex   -1.400000e+002 1.500000e+001 0.000000e+000
    endloop
  endfacet
  facet normal 7.216450e-017 0.000000e+000 1.000000e+000
    outer loop
      vertex   -1.500000e+001 1.037500e+002 2.000000e-001
      vertex   -5.000000e+000 1.037500e+002 2.000000e-001
      vertex   -1.500000e+001 1.137500e+002 2.000000e-001
    endloop
  endfacet
  facet normal 0.000000e+000 -7.216450e-017 1.000000e+000
    outer loop
      vertex   -1.500000e+001 1.137500e+002 2.000000e-001
      vertex   -5.000000e+000 1.037500e+002 2.000000e-001
      vertex   5.000000e+000 1.137500e+002 2.000000e-001
    endloop
  endfacet
  facet normal -7.216450e-017 0.000000e+000 1.000000e+000
    outer loop
      vertex   5.000000e+000 1.137500e+002 2.000000e-001
      vertex   -5.000000e+000 1.037500e+002 2.000000e-001
      vertex   5.000000e+000 9.375000e+001 2.000000e-001
    endloop
  endfacet
  facet normal 0.000000e+000 7.216450e-017 1.000000e+000
    outer loop
      vertex   5.000000e+000 9.375000e+001 2.000000e-001
      vertex   -5.000000e+000 1.037500e+002 2.000000e-001
      vertex   -5.000000e+000 9.375000e+001 2.000000e-001
    endloop
  endfacet
  facet normal 0.000000e+000 -1.000000e+000 0.000000e+000
    outer loop
      vertex   -5.000000e+000 9.375000e+001 0.000000e+000
      vertex   5.000000e+000 9.375000e+001 0.000000e+000
      vertex   -5.000000e+000 9.375000e+001 2.000000e-001
    endloop
  endfacet
  facet normal 0.000000e+000 -1.000000e+000 0.000000e+000
    outer loop
      vertex   -5.000000e+000 9.375000e+001 2.000000e-001
      vertex   5.000000e+000 9.375000e+001 0.000000e+000
      vertex   5.000000e+000 9.375000e+001 2.000000e-001
    endloop
  endfacet
  facet normal -1.000000e+000 0.000000e+000 -0.000000e+000
    outer loop
      vertex   -1.500000e+001 1.037500e+002 2.000000e-001
      vertex   -1.500000e+001 1.137500e+002 2.000000e-001
      vertex   -1.500000e+001 1.037500e+002 0.000000e+000
    endloop
  endfacet
  facet normal -1.000000e+000 0.000000e+000 0.000000e+000
    outer loop
      vertex   -1.500000e+001 1.037500e+002 0.000000e+000
      vertex   -1.500000e+001 1.137500e+002 2.000000e-001
      vertex   -1.500000e+001 1.137500e+002 0.000000e+000
    endloop
  endfacet
  facet normal 0.000000e+000 1.000000e+000 -0.000000e+000
    outer loop
      vertex   5.000000e+000 1.137500e+002 0.000000e+000
      vertex   -1.500000e+001 1.137500e+002 0.000000e+000
      vertex   5.000000e+000 1.137500e+002 2.000000e-001
    endloop
  endfacet
  facet normal 0.000000e+000 1.000000e+000 -0.000000e+000
    outer loop
      vertex   5.000000e+000 1.137500e+002 2.000000e-001
      vertex   -1.500000e+001 1.137500e+002 0.000000e+000
      vertex   -1.500000e+001 1.137500e+002 2.000000e-001
    endloop
  endfacet
  facet normal 1.000000e+000 0.000000e+000 -0.000000e+000
    outer loop
      vertex   5.000000e+000 9.375000e+001 0.000000e+000
      vertex   5.000000e+000 1.137500e+002 0.000000e+000
      vertex   5.000000e+000 9.375000e+001 2.000000e-001
    endloop
  endfacet
  facet normal 1.000000e+000 -0.000000e+000 0.000000e+000
    outer loop
      vertex   5.000000e+000 9.375000e+001 2.000000e-001
      vertex   5.000000e+000 1.137500e+002 0.000000e+000
      vertex   5.000000e+000 1.137500e+002 2.000000e-001
    endloop
  endfacet
  facet normal -0.000000e+000 1.000000e+000 0.000000e+000
    outer loop
      vertex   -1.300000e+002 1.037500e+002 2.000000e-001
      vertex   -1.300000e+002 1.037500e+002 2.500000e+001
      vertex   -1.200000e+002 1.037500e+002 2.000000e-001
    endloop
  endfacet
  facet normal 0.000000e+000 1.000000e+000 -0.000000e+000
    outer loop
      vertex   -1.200000e+002 1.037500e+002 2.000000e-001
      vertex   -1.300000e+002 1.037500e+002 2.500000e+001
      vertex   -8.833333e+001 1.037500e+002 2.500000e+001
    endloop
  endfacet
  facet normal 0.000000e+000 1.000000e+000 -0.000000e+000
    outer loop
      vertex   -6.750000e+001 1.037500e+002 0.000000e+000
      vertex   -8.833333e+001 1.037500e+002 2.500000e+001
      vertex   -4.666667e+001 1.037500e+002 2.500000e+001
    endloop
  endfacet
  facet normal 0.000000e+000 1.000000e+000 -0.000000e+000
    outer loop
      vertex   -1.500000e+001 1.037500e+002 2.000000e-001
      vertex   -4.666667e+001 1.037500e+002 2.500000e+001
      vertex   -5.000000e+000 1.037500e+002 2.500000e+001
    endloop
  endfacet
  facet normal 0.000000e+000 1.000000e+000 -0.000000e+000
    outer loop
      vertex   -5.000000e+000 1.037500e+002 2.000000e-001
      vertex   -1.500000e+001 1.037500e+002 2.000000e-001
      vertex   -5.000000e+000 1.037500e+002 2.500000e+001
    endloop
  endfacet
  facet normal -0.000000e+000 1.000000e+000 0.000000e+000
    outer loop
      vertex   -1.200000e+002 1.037500e+002 2.000000e-001
      vertex   -8.833333e+001 1.037500e+002 2.500000e+001
      vertex   -6.750000e+001 1.037500e+002 0.000000e+000
    endloop
  endfacet
  facet normal -0.000000e+000 1.000000e+000 0.000000e+000
    outer loop
      vertex   -1.200000e+002 1.037500e+002 0.000000e+000
      vertex   -1.200000e+002 1.037500e+002 2.000000e-001
      vertex   -6.750000e+001 1.037500e+002 0.000000e+000
    endloop
  endfacet
  facet normal -0.000000e+000 1.000000e+000 0.000000e+000
    outer loop
      vertex   -6.750000e+001 1.037500e+002 0.000000e+000
      vertex   -4.666667e+001 1.037500e+002 2.500000e+001
      vertex   -1.500000e+001 1.037500e+002 2.000000e-001
    endloop
  endfacet
  facet normal 0.000000e+000 1.000000e+000 -0.000000e+000
    outer loop
      vertex   -1.500000e+001 1.037500e+002 0.000000e+000
      vertex   -6.750000e+001 1.037500e+002 0.000000e+000
      vertex   -1.500000e+001 1.037500e+002 2.000000e-001
    endloop
  endfacet
  facet normal 0.000000e+000 1.000000e+000 -0.000000e+000
    outer loop
      vertex   -1.300000e+002 3.500000e+001 0.000000e+000
      vertex   -1.400000e+002 3.500000e+001 0.000000e+000
      vertex   -1.300000e+002 3.500000e+001 2.000000e-001
    endloop
  endfacet
  facet normal 0.000000e+000 1.000000e+000 -0.000000e+000
    outer loop
      vertex   -1.300000e+002 3.500000e+001 2.000000e-001
      vertex   -1.400000e+002 3.500000e+001 0.000000e+000
      vertex   -1.400000e+002 3.500000e+001 2.000000e-001
    endloop
  endfacet
  facet normal 0.000000e+000 -7.216450e-017 1.000000e+000
    outer loop
      vertex   -1.300000e+002 3.500000e+001 2.000000e-001
      vertex   -1.400000e+002 3.500000e+001 2.000000e-001
      vertex   -1.300000e+002 2.500000e+001 2.000000e-001
    endloop
  endfacet
  facet normal 7.216450e-017 0.000000e+000 1.000000e+000
    outer loop
      vertex   -1.300000e+002 2.500000e+001 2.000000e-001
      vertex   -1.400000e+002 3.500000e+001 2.000000e-001
      vertex   -1.400000e+002 1.500000e+001 2.000000e-001
    endloop
  endfacet
  facet normal 0.000000e+000 7.216450e-017 1.000000e+000
    outer loop
      vertex   -1.200000e+002 1.500000e+001 2.000000e-001
      vertex   -1.300000e+002 2.500000e+001 2.000000e-001
      vertex   -1.400000e+002 1.500000e+001 2.000000e-001
    endloop
  endfacet
  facet normal -7.216450e-017 0.000000e+000 1.000000e+000
    outer loop
      vertex   -1.200000e+002 1.500000e+001 2.000000e-001
      vertex   -1.200000e+002 2.500000e+001 2.000000e-001
      vertex   -1.300000e+002 2.500000e+001 2.000000e-001
    endloop
  endfacet
  facet normal 0.000000e+000 -1.000000e+000 0.000000e+000
    outer loop
      vertex   -1.400000e+002 1.500000e+001 0.000000e+000
      vertex   -1.200000e+002 1.500000e+001 0.000000e+000
      vertex   -1.400000e+002 1.500000e+001 2.000000e-001
    endloop
  endfacet
  facet normal 0.000000e+000 -1.000000e+000 0.000000e+000
    outer loop
      vertex   -1.400000e+002 1.500000e+001 2.000000e-001
      vertex   -1.200000e+002 1.500000e+001 0.000000e+000
      vertex   -1.200000e+002 1.500000e+001 2.000000e-001
    endloop
  endfacet
  facet normal -1.000000e+000 0.000000e+000 0.000000e+000
    outer loop
      vertex   -1.400000e+002 3.500000e+001 0.000000e+000
      vertex   -1.400000e+002 1.500000e+001 0.000000e+000
      vertex   -1.400000e+002 3.500000e+001 2.000000e-001
    endloop
  endfacet
  facet normal -1.000000e+000 -0.000000e+000 0.000000e+000
    outer loop
      vertex   -1.400000e+002 3.500000e+001 2.000000e-001
      vertex   -1.400000e+002 1.500000e+001 0.000000e+000
      vertex   -1.400000e+002 1.500000e+001 2.000000e-001
    endloop
  endfacet
  facet normal 1.000000e+000 0.000000e+000 0.000000e+000
    outer loop
      vertex   -1.200000e+002 2.500000e+001 2.000000e-001
      vertex   -1.200000e+002 1.500000e+001 2.000000e-001
      vertex   -1.200000e+002 2.500000e+001 0.000000e+000
    endloop
  endfacet
  facet normal 1.000000e+000 0.000000e+000 0.000000e+000
    outer loop
      vertex   -1.200000e+002 2.500000e+001 0.000000e+000
      vertex   -1.200000e+002 1.500000e+001 2.000000e-001
      vertex   -1.200000e+002 1.500000e+001 0.000000e+000
    endloop
  endfacet
  facet normal 0.000000e+000 -1.000000e+000 0.000000e+000
    outer loop
      vertex   -1.300000e+002 2.500000e+001 2.000000e-001
      vertex   -1.200000e+002 2.500000e+001 2.000000e-001
      vertex   -1.300000e+002 2.500000e+001 2.500000e+001
    endloop
  endfacet
  facet normal 0.000000e+000 -1.000000e+000 0.000000e+000
    outer loop
      vertex   -1.300000e+002 2.500000e+001 2.500000e+001
      vertex   -1.200000e+002 2.500000e+001 2.000000e-001
      vertex   -8.833333e+001 2.500000e+001 2.500000e+001
    endloop
  endfacet
  facet normal 0.000000e+000 -1.000000e+000 -0.000000e+000
    outer loop
      vertex   -8.833333e+001 2.500000e+001 2.500000e+001
      vertex   -1.200000e+002 2.500000e+001 2.000000e-001
      vertex   -6.750000e+001 2.500000e+001 0.000000e+000
    endloop
  endfacet
  facet normal 0.000000e+000 -1.000000e+000 -0.000000e+000
    outer loop
      vertex   -4.666667e+001 2.500000e+001 2.500000e+001
      vertex   -6.750000e+001 2.500000e+001 0.000000e+000
      vertex   -1.500000e+001 2.500000e+001 2.000000e-001
    endloop
  endfacet
  facet normal 0.000000e+000 -1.000000e+000 -0.000000e+000
    outer loop
      vertex   -5.000000e+000 2.500000e+001 2.500000e+001
      vertex   -1.500000e+001 2.500000e+001 2.000000e-001
      vertex   -5.000000e+000 2.500000e+001 2.000000e-001
    endloop
  endfacet
  facet normal -0.000000e+000 -1.000000e+000 -0.000000e+000
    outer loop
      vertex   -5.000000e+000 2.500000e+001 2.500000e+001
      vertex   -4.666667e+001 2.500000e+001 2.500000e+001
      vertex   -1.500000e+001 2.500000e+001 2.000000e-001
    endloop
  endfacet
  facet normal 0.000000e+000 -1.000000e+000 0.000000e+000
    outer loop
      vertex   -1.200000e+002 2.500000e+001 2.000000e-001
      vertex   -1.200000e+002 2.500000e+001 0.000000e+000
      vertex   -6.750000e+001 2.500000e+001 0.000000e+000
    endloop
  endfacet
  facet normal 0.000000e+000 -1.000000e+000 0.000000e+000
    outer loop
      vertex   -6.750000e+001 2.500000e+001 0.000000e+000
      vertex   -1.500000e+001 2.500000e+001 0.000000e+000
      vertex   -1.500000e+001 2.500000e+001 2.000000e-001
    endloop
  endfacet
  facet normal -0.000000e+000 -1.000000e+000 -0.000000e+000
    outer loop
      vertex   -4.666667e+001 2.500000e+001 2.500000e+001
      vertex   -8.833333e+001 2.500000e+001 2.500000e+001
      vertex   -6.750000e+001 2.500000e+001 0.000000e+000
    endloop
  endfacet
  facet normal 0.000000e+000 -7.216450e-017 1.000000e+000
    outer loop
      vertex   -5.000000e+000 3.500000e+001 2.000000e-001
      vertex   -5.000000e+000 2.500000e+001 2.000000e-001
      vertex   5.000000e+000 3.500000e+001 2.000000e-001
    endloop
  endfacet
  facet normal -7.216450e-017 0.000000e+000 1.000000e+000
    outer loop
      vertex   5.000000e+000 3.500000e+001 2.000000e-001
      vertex   -5.000000e+000 2.500000e+001 2.000000e-001
      vertex   5.000000e+000 1.500000e+001 2.000000e-001
    endloop
  endfacet
  facet normal 0.000000e+000 7.216450e-017 1.000000e+000
    outer loop
      vertex   5.000000e+000 1.500000e+001 2.000000e-001
      vertex   -5.000000e+000 2.500000e+001 2.000000e-001
      vertex   -1.500000e+001 1.500000e+001 2.000000e-001
    endloop
  endfacet
  facet normal 7.216450e-017 0.000000e+000 1.000000e+000
    outer loop
      vertex   -1.500000e+001 1.500000e+001 2.000000e-001
      vertex   -5.000000e+000 2.500000e+001 2.000000e-001
      vertex   -1.500000e+001 2.500000e+001 2.000000e-001
    endloop
  endfacet
  facet normal -1.000000e+000 0.000000e+000 0.000000e+000
    outer loop
      vertex   -1.500000e+001 2.500000e+001 0.000000e+000
      vertex   -1.500000e+001 1.500000e+001 0.000000e+000
      vertex   -1.500000e+001 2.500000e+001 2.000000e-001
    endloop
  endfacet
  facet normal -1.000000e+000 -0.000000e+000 0.000000e+000
    outer loop
      vertex   -1.500000e+001 2.500000e+001 2.000000e-001
      vertex   -1.500000e+001 1.500000e+001 0.000000e+000
      vertex   -1.500000e+001 1.500000e+001 2.000000e-001
    endloop
  endfacet
  facet normal 0.000000e+000 -1.000000e+000 0.000000e+000
    outer loop
      vertex   -1.500000e+001 1.500000e+001 0.000000e+000
      vertex   5.000000e+000 1.500000e+001 0.000000e+000
      vertex   -1.500000e+001 1.500000e+001 2.000000e-001
    endloop
  endfacet
  facet normal 0.000000e+000 -1.000000e+000 0.000000e+000
    outer loop
      vertex   -1.500000e+001 1.500000e+001 2.000000e-001
      vertex   5.000000e+000 1.500000e+001 0.000000e+000
      vertex   5.000000e+000 1.500000e+001 2.000000e-001
    endloop
  endfacet
  facet normal -0.000000e+000 1.000000e+000 0.000000e+000
    outer loop
      vertex   -5.000000e+000 3.500000e+001 2.000000e-001
      vertex   5.000000e+000 3.500000e+001 2.000000e-001
      vertex   -5.000000e+000 3.500000e+001 0.000000e+000
    endloop
  endfacet
  facet normal -0.000000e+000 1.000000e+000 0.000000e+000
    outer loop
      vertex   -5.000000e+000 3.500000e+001 0.000000e+000
      vertex   5.000000e+000 3.500000e+001 2.000000e-001
      vertex   5.000000e+000 3.500000e+001 0.000000e+000
    endloop
  endfacet
  facet normal 1.000000e+000 0.000000e+000 -0.000000e+000
    outer loop
      vertex   5.000000e+000 1.500000e+001 0.000000e+000
      vertex   5.000000e+000 3.500000e+001 0.000000e+000
      vertex   5.000000e+000 1.500000e+001 2.000000e-001
    endloop
  endfacet
  facet normal 1.000000e+000 -0.000000e+000 0.000000e+000
    outer loop
      vertex   5.000000e+000 1.500000e+001 2.000000e-001
      vertex   5.000000e+000 3.500000e+001 0.000000e+000
      vertex   5.000000e+000 3.500000e+001 2.000000e-001
    endloop
  endfacet
  facet normal 1.000000e+000 0.000000e+000 -0.000000e+000
    outer loop
      vertex   -5.000000e+000 1.037500e+002 2.000000e-001
      vertex   -5.000000e+000 1.037500e+002 2.500000e+001
      vertex   -5.000000e+000 9.375000e+001 2.000000e-001
    endloop
  endfacet
  facet normal 1.000000e+000 0.000000e+000 -0.000000e+000
    outer loop
      vertex   -5.000000e+000 9.375000e+001 2.000000e-001
      vertex   -5.000000e+000 1.037500e+002 2.500000e+001
      vertex   -5.000000e+000 6.437500e+001 2.500000e+001
    endloop
  endfacet
  facet normal 1.000000e+000 0.000000e+000 0.000000e+000
    outer loop
      vertex   -5.000000e+000 6.437500e+001 0.000000e+000
      vertex   -5.000000e+000 6.437500e+001 2.500000e+001
      vertex   -5.000000e+000 3.500000e+001 2.000000e-001
    endloop
  endfacet
  facet normal 1.000000e+000 0.000000e+000 -0.000000e+000
    outer loop
      vertex   -5.000000e+000 3.500000e+001 0.000000e+000
      vertex   -5.000000e+000 6.437500e+001 0.000000e+000
      vertex   -5.000000e+000 3.500000e+001 2.000000e-001
    endloop
  endfacet
  facet normal 1.000000e+000 0.000000e+000 0.000000e+000
    outer loop
      vertex   -5.000000e+000 6.437500e+001 2.500000e+001
      vertex   -5.000000e+000 2.500000e+001 2.500000e+001
      vertex   -5.000000e+000 3.500000e+001 2.000000e-001
    endloop
  endfacet
  facet normal 1.000000e+000 0.000000e+000 0.000000e+000
    outer loop
      vertex   -5.000000e+000 3.500000e+001 2.000000e-001
      vertex   -5.000000e+000 2.500000e+001 2.500000e+001
      vertex   -5.000000e+000 2.500000e+001 2.000000e-001
    endloop
  endfacet
  facet normal 1.000000e+000 0.000000e+000 -0.000000e+000
    outer loop
      vertex   -5.000000e+000 9.375000e+001 0.000000e+000
      vertex   -5.000000e+000 9.375000e+001 2.000000e-001
      vertex   -5.000000e+000 6.437500e+001 0.000000e+000
    endloop
  endfacet
  facet normal 1.000000e+000 0.000000e+000 -0.000000e+000
    outer loop
      vertex   -5.000000e+000 6.437500e+001 0.000000e+000
      vertex   -5.000000e+000 9.375000e+001 2.000000e-001
      vertex   -5.000000e+000 6.437500e+001 2.500000e+001
    endloop
  endfacet
  facet normal 0.000000e+000 -0.000000e+000 1.000000e+000
    outer loop
      vertex   -1.300000e+002 8.082000e+001 1.700000e+001
      vertex   -9.000000e+001 8.082000e+001 1.700000e+001
      vertex   -1.300000e+002 8.382000e+001 1.700000e+001
    endloop
  endfacet
  facet normal -0.000000e+000 0.000000e+000 1.000000e+000
    outer loop
      vertex   -1.300000e+002 8.382000e+001 1.700000e+001
      vertex   -9.000000e+001 8.082000e+001 1.700000e+001
      vertex   -9.000000e+001 8.382000e+001 1.700000e+001
    endloop
  endfacet
  facet normal -0.000000e+000 0.000000e+000 1.000000e+000
    outer loop
      vertex   -9.000000e+001 8.382000e+001 1.700000e+001
      vertex   -9.000000e+001 8.082000e+001 1.700000e+001
      vertex   -5.000000e+001 8.082000e+001 1.700000e+001
    endloop
  endfacet
  facet normal 0.000000e+000 0.000000e+000 1.000000e+000
    outer loop
      vertex   -5.000000e+001 8.382000e+001 1.700000e+001
      vertex   -9.000000e+001 8.382000e+001 1.700000e+001
      vertex   -5.000000e+001 8.082000e+001 1.700000e+001
    endloop
  endfacet
  facet normal 0.000000e+000 -1.000000e+000 0.000000e+000
    outer loop
      vertex   -1.300000e+002 8.082000e+001 1.700000e+001
      vertex   -1.300000e+002 8.082000e+001 2.000000e+000
      vertex   -9.000000e+001 8.082000e+001 1.700000e+001
    endloop
  endfacet
  facet normal 0.000000e+000 -1.000000e+000 -0.000000e+000
    outer loop
      vertex   -9.000000e+001 8.082000e+001 1.700000e+001
      vertex   -1.300000e+002 8.082000e+001 2.000000e+000
      vertex   -9.000000e+001 8.082000e+001 2.000000e+000
    endloop
  endfacet
  facet normal 0.000000e+000 -1.000000e+000 -0.000000e+000
    outer loop
      vertex   -5.000000e+001 8.082000e+001 1.700000e+001
      vertex   -9.000000e+001 8.082000e+001 2.000000e+000
      vertex   -5.000000e+001 8.082000e+001 2.000000e+000
    endloop
  endfacet
  facet normal -0.000000e+000 -1.000000e+000 -0.000000e+000
    outer loop
      vertex   -5.000000e+001 8.082000e+001 1.700000e+001
      vertex   -9.000000e+001 8.082000e+001 1.700000e+001
      vertex   -9.000000e+001 8.082000e+001 2.000000e+000
    endloop
  endfacet
  facet normal -0.000000e+000 1.000000e+000 0.000000e+000
    outer loop
      vertex   -1.300000e+002 8.382000e+001 2.000000e+000
      vertex   -1.300000e+002 8.382000e+001 1.700000e+001
      vertex   -9.000000e+001 8.382000e+001 2.000000e+000
    endloop
  endfacet
  facet normal 0.000000e+000 1.000000e+000 -0.000000e+000
    outer loop
      vertex   -9.000000e+001 8.382000e+001 2.000000e+000
      vertex   -1.300000e+002 8.382000e+001 1.700000e+001
      vertex   -9.000000e+001 8.382000e+001 1.700000e+001
    endloop
  endfacet
  facet normal 0.000000e+000 1.000000e+000 -0.000000e+000
    outer loop
      vertex   -5.000000e+001 8.382000e+001 2.000000e+000
      vertex   -9.000000e+001 8.382000e+001 1.700000e+001
      vertex   -5.000000e+001 8.382000e+001 1.700000e+001
    endloop
  endfacet
  facet normal 0.000000e+000 1.000000e+000 -0.000000e+000
    outer loop
      vertex   -5.000000e+001 8.382000e+001 2.000000e+000
      vertex   -9.000000e+001 8.382000e+001 2.000000e+000
      vertex   -9.000000e+001 8.382000e+001 1.700000e+001
    endloop
  endfacet
  facet normal 1.000000e+000 -0.000000e+000 0.000000e+000
    outer loop
      vertex   -5.000000e+001 8.082000e+001 1.700000e+001
      vertex   -5.000000e+001 8.082000e+001 2.000000e+000
      vertex   -5.000000e+001 8.382000e+001 1.700000e+001
    endloop
  endfacet
  facet normal 1.000000e+000 -0.000000e+000 0.000000e+000
    outer loop
      vertex   -5.000000e+001 8.382000e+001 1.700000e+001
      vertex   -5.000000e+001 8.082000e+001 2.000000e+000
      vertex   -5.000000e+001 8.382000e+001 2.000000e+000
    endloop
  endfacet
  facet normal -8.992806e-016 -2.409325e-015 1.000000e+000
    outer loop
      vertex   -1.300000e+002 8.382000e+001 2.000000e+000
      vertex   -9.000000e+001 8.382000e+001 2.000000e+000
      vertex   -1.300000e+002 9.875000e+001 2.000000e+000
    endloop
  endfacet
  facet normal -0.000000e+000 -0.000000e+000 1.000000e+000
    outer loop
      vertex   -1.300000e+002 9.875000e+001 2.000000e+000
      vertex   -9.000000e+001 8.382000e+001 2.000000e+000
      vertex   -9.000000e+001 9.875000e+001 2.000000e+000
    endloop
  endfacet
  facet normal 8.992806e-016 8.559643e-031 1.000000e+000
    outer loop
      vertex   -9.000000e+001 9.875000e+001 2.000000e+000
      vertex   -9.000000e+001 8.382000e+001 2.000000e+000
      vertex   -5.000000e+001 8.382000e+001 2.000000e+000
    endloop
  endfacet
  facet normal 0.000000e+000 -2.409325e-015 1.000000e+000
    outer loop
      vertex   -5.000000e+001 9.875000e+001 2.000000e+000
      vertex   -5.000000e+001 8.382000e+001 2.000000e+000
      vertex   -1.000000e+001 9.875000e+001 2.000000e+000
    endloop
  endfacet
  facet normal 0.000000e+000 -2.409325e-015 1.000000e+000
    outer loop
      vertex   -5.000000e+001 9.875000e+001 2.000000e+000
      vertex   -9.000000e+001 9.875000e+001 2.000000e+000
      vertex   -5.000000e+001 8.382000e+001 2.000000e+000
    endloop
  endfacet
  facet normal -8.992806e-016 0.000000e+000 1.000000e+000
    outer loop
      vertex   -5.000000e+001 8.382000e+001 2.000000e+000
      vertex   -5.000000e+001 8.082000e+001 2.000000e+000
      vertex   -1.000000e+001 9.875000e+001 2.000000e+000
    endloop
  endfacet
  facet normal -8.992806e-016 0.000000e+000 1.000000e+000
    outer loop
      vertex   -1.000000e+001 9.875000e+001 2.000000e+000
      vertex   -5.000000e+001 8.082000e+001 2.000000e+000
      vertex   -1.000000e+001 6.437500e+001 2.000000e+000
    endloop
  endfacet
  facet normal -8.992806e-016 0.000000e+000 1.000000e+000
    outer loop
      vertex   -1.000000e+001 6.437500e+001 2.000000e+000
      vertex   -5.000000e+001 8.082000e+001 2.000000e+000
      vertex   -5.000000e+001 6.588000e+001 2.000000e+000
    endloop
  endfacet
  facet normal -8.992806e-016 0.000000e+000 1.000000e+000
    outer loop
      vertex   -5.000000e+001 6.288000e+001 2.000000e+000
      vertex   -1.000000e+001 6.437500e+001 2.000000e+000
      vertex   -5.000000e+001 6.588000e+001 2.000000e+000
    endloop
  endfacet
  facet normal -8.992806e-016 0.000000e+000 1.000000e+000
    outer loop
      vertex   -5.000000e+001 6.288000e+001 2.000000e+000
      vertex   -5.000000e+001 4.794000e+001 2.000000e+000
      vertex   -1.000000e+001 6.437500e+001 2.000000e+000
    endloop
  endfacet
  facet normal 8.992806e-016 0.000000e+000 1.000000e+000
    outer loop
      vertex   -5.000000e+001 6.288000e+001 2.000000e+000
      vertex   -9.000000e+001 6.288000e+001 2.000000e+000
      vertex   -5.000000e+001 4.794000e+001 2.000000e+000
    endloop
  endfacet
  facet normal 8.992806e-016 0.000000e+000 1.000000e+000
    outer loop
      vertex   -5.000000e+001 4.794000e+001 2.000000e+000
      vertex   -9.000000e+001 6.288000e+001 2.000000e+000
      vertex   -9.000000e+001 4.794000e+001 2.000000e+000
    endloop
  endfacet
  facet normal -8.992806e-016 0.000000e+000 1.000000e+000
    outer loop
      vertex   -9.000000e+001 4.794000e+001 2.000000e+000
      vertex   -9.000000e+001 6.288000e+001 2.000000e+000
      vertex   -1.300000e+002 6.288000e+001 2.000000e+000
    endloop
  endfacet
  facet normal -8.992806e-016 0.000000e+000 1.000000e+000
    outer loop
      vertex   -1.300000e+002 4.794000e+001 2.000000e+000
      vertex   -9.000000e+001 4.794000e+001 2.000000e+000
      vertex   -1.300000e+002 6.288000e+001 2.000000e+000
    endloop
  endfacet
  facet normal 8.992806e-016 0.000000e+000 1.000000e+000
    outer loop
      vertex   -5.000000e+001 8.082000e+001 2.000000e+000
      vertex   -9.000000e+001 8.082000e+001 2.000000e+000
      vertex   -5.000000e+001 6.588000e+001 2.000000e+000
    endloop
  endfacet
  facet normal 8.992806e-016 0.000000e+000 1.000000e+000
    outer loop
      vertex   -5.000000e+001 6.588000e+001 2.000000e+000
      vertex   -9.000000e+001 8.082000e+001 2.000000e+000
      vertex   -9.000000e+001 6.588000e+001 2.000000e+000
    endloop
  endfacet
  facet normal -8.992806e-016 0.000000e+000 1.000000e+000
    outer loop
      vertex   -9.000000e+001 6.588000e+001 2.000000e+000
      vertex   -9.000000e+001 8.082000e+001 2.000000e+000
      vertex   -1.300000e+002 8.082000e+001 2.000000e+000
    endloop
  endfacet
  facet normal -8.992806e-016 0.000000e+000 1.000000e+000
    outer loop
      vertex   -1.300000e+002 6.588000e+001 2.000000e+000
      vertex   -9.000000e+001 6.588000e+001 2.000000e+000
      vertex   -1.300000e+002 8.082000e+001 2.000000e+000
    endloop
  endfacet
  facet normal -8.992806e-016 0.000000e+000 1.000000e+000
    outer loop
      vertex   -1.000000e+001 6.437500e+001 2.000000e+000
      vertex   -5.000000e+001 4.794000e+001 2.000000e+000
      vertex   -1.000000e+001 3.000000e+001 2.000000e+000
    endloop
  endfacet
  facet normal -8.992806e-016 0.000000e+000 1.000000e+000
    outer loop
      vertex   -1.000000e+001 3.000000e+001 2.000000e+000
      vertex   -5.000000e+001 4.794000e+001 2.000000e+000
      vertex   -5.000000e+001 4.494000e+001 2.000000e+000
    endloop
  endfacet
  facet normal 8.992806e-016 2.407713e-015 1.000000e+000
    outer loop
      vertex   -5.000000e+001 3.000000e+001 2.000000e+000
      vertex   -5.000000e+001 4.494000e+001 2.000000e+000
      vertex   -9.000000e+001 4.494000e+001 2.000000e+000
    endloop
  endfacet
  facet normal -8.992806e-016 0.000000e+000 1.000000e+000
    outer loop
      vertex   -9.000000e+001 3.000000e+001 2.000000e+000
      vertex   -9.000000e+001 4.494000e+001 2.000000e+000
      vertex   -1.300000e+002 4.494000e+001 2.000000e+000
    endloop
  endfacet
  facet normal -0.000000e+000 2.407713e-015 1.000000e+000
    outer loop
      vertex   -1.300000e+002 3.000000e+001 2.000000e+000
      vertex   -9.000000e+001 3.000000e+001 2.000000e+000
      vertex   -1.300000e+002 4.494000e+001 2.000000e+000
    endloop
  endfacet
  facet normal 0.000000e+000 2.407713e-015 1.000000e+000
    outer loop
      vertex   -1.000000e+001 3.000000e+001 2.000000e+000
      vertex   -5.000000e+001 4.494000e+001 2.000000e+000
      vertex   -5.000000e+001 3.000000e+001 2.000000e+000
    endloop
  endfacet
  facet normal 0.000000e+000 0.000000e+000 1.000000e+000
    outer loop
      vertex   -5.000000e+001 3.000000e+001 2.000000e+000
      vertex   -9.000000e+001 4.494000e+001 2.000000e+000
      vertex   -9.000000e+001 3.000000e+001 2.000000e+000
    endloop
  endfacet
  facet normal 0.000000e+000 -0.000000e+000 1.000000e+000
    outer loop
      vertex   -1.300000e+002 6.288000e+001 1.700000e+001
      vertex   -9.000000e+001 6.288000e+001 1.700000e+001
      vertex   -1.300000e+002 6.588000e+001 1.700000e+001
    endloop
  endfacet
  facet normal -0.000000e+000 0.000000e+000 1.000000e+000
    outer loop
      vertex   -1.300000e+002 6.588000e+001 1.700000e+001
      vertex   -9.000000e+001 6.288000e+001 1.700000e+001
      vertex   -9.000000e+001 6.588000e+001 1.700000e+001
    endloop
  endfacet
  facet normal -0.000000e+000 0.000000e+000 1.000000e+000
    outer loop
      vertex   -9.000000e+001 6.588000e+001 1.700000e+001
      vertex   -9.000000e+001 6.288000e+001 1.700000e+001
      vertex   -5.000000e+001 6.288000e+001 1.700000e+001
    endloop
  endfacet
  facet normal 0.000000e+000 0.000000e+000 1.000000e+000
    outer loop
      vertex   -5.000000e+001 6.588000e+001 1.700000e+001
      vertex   -9.000000e+001 6.588000e+001 1.700000e+001
      vertex   -5.000000e+001 6.288000e+001 1.700000e+001
    endloop
  endfacet
  facet normal 0.000000e+000 -1.000000e+000 0.000000e+000
    outer loop
      vertex   -1.300000e+002 6.288000e+001 1.700000e+001
      vertex   -1.300000e+002 6.288000e+001 2.000000e+000
      vertex   -9.000000e+001 6.288000e+001 1.700000e+001
    endloop
  endfacet
  facet normal 0.000000e+000 -1.000000e+000 -0.000000e+000
    outer loop
      vertex   -9.000000e+001 6.288000e+001 1.700000e+001
      vertex   -1.300000e+002 6.288000e+001 2.000000e+000
      vertex   -9.000000e+001 6.288000e+001 2.000000e+000
    endloop
  endfacet
  facet normal 0.000000e+000 -1.000000e+000 -0.000000e+000
    outer loop
      vertex   -5.000000e+001 6.288000e+001 1.700000e+001
      vertex   -9.000000e+001 6.288000e+001 2.000000e+000
      vertex   -5.000000e+001 6.288000e+001 2.000000e+000
    endloop
  endfacet
  facet normal -0.000000e+000 -1.000000e+000 -0.000000e+000
    outer loop
      vertex   -5.000000e+001 6.288000e+001 1.700000e+001
      vertex   -9.000000e+001 6.288000e+001 1.700000e+001
      vertex   -9.000000e+001 6.288000e+001 2.000000e+000
    endloop
  endfacet
  facet normal -0.000000e+000 1.000000e+000 0.000000e+000
    outer loop
      vertex   -1.300000e+002 6.588000e+001 2.000000e+000
      vertex   -1.300000e+002 6.588000e+001 1.700000e+001
      vertex   -9.000000e+001 6.588000e+001 2.000000e+000
    endloop
  endfacet
  facet normal 0.000000e+000 1.000000e+000 -0.000000e+000
    outer loop
      vertex   -9.000000e+001 6.588000e+001 2.000000e+000
      vertex   -1.300000e+002 6.588000e+001 1.700000e+001
      vertex   -9.000000e+001 6.588000e+001 1.700000e+001
    endloop
  endfacet
  facet normal 0.000000e+000 1.000000e+000 -0.000000e+000
    outer loop
      vertex   -5.000000e+001 6.588000e+001 2.000000e+000
      vertex   -9.000000e+001 6.588000e+001 1.700000e+001
      vertex   -5.000000e+001 6.588000e+001 1.700000e+001
    endloop
  endfacet
  facet normal 0.000000e+000 1.000000e+000 -0.000000e+000
    outer loop
      vertex   -5.000000e+001 6.588000e+001 2.000000e+000
      vertex   -9.000000e+001 6.588000e+001 2.000000e+000
      vertex   -9.000000e+001 6.588000e+001 1.700000e+001
    endloop
  endfacet
  facet normal 1.000000e+000 -0.000000e+000 0.000000e+000
    outer loop
      vertex   -5.000000e+001 6.288000e+001 1.700000e+001
      vertex   -5.000000e+001 6.288000e+001 2.000000e+000
      vertex   -5.000000e+001 6.588000e+001 1.700000e+001
    endloop
  endfacet
  facet normal 1.000000e+000 -0.000000e+000 0.000000e+000
    outer loop
      vertex   -5.000000e+001 6.588000e+001 1.700000e+001
      vertex   -5.000000e+001 6.288000e+001 2.000000e+000
      vertex   -5.000000e+001 6.588000e+001 2.000000e+000
    endloop
  endfacet
  facet normal 0.000000e+000 -0.000000e+000 1.000000e+000
    outer loop
      vertex   -1.300000e+002 4.494000e+001 1.700000e+001
      vertex   -9.000000e+001 4.494000e+001 1.700000e+001
      vertex   -1.300000e+002 4.794000e+001 1.700000e+001
    endloop
  endfacet
  facet normal -0.000000e+000 0.000000e+000 1.000000e+000
    outer loop
      vertex   -1.300000e+002 4.794000e+001 1.700000e+001
      vertex   -9.000000e+001 4.494000e+001 1.700000e+001
      vertex   -9.000000e+001 4.794000e+001 1.700000e+001
    endloop
  endfacet
  facet normal -0.000000e+000 0.000000e+000 1.000000e+000
    outer loop
      vertex   -9.000000e+001 4.794000e+001 1.700000e+001
      vertex   -9.000000e+001 4.494000e+001 1.700000e+001
      vertex   -5.000000e+001 4.494000e+001 1.700000e+001
    endloop
  endfacet
  facet normal 0.000000e+000 0.000000e+000 1.000000e+000
    outer loop
      vertex   -5.000000e+001 4.794000e+001 1.700000e+001
      vertex   -9.000000e+001 4.794000e+001 1.700000e+001
      vertex   -5.000000e+001 4.494000e+001 1.700000e+001
    endloop
  endfacet
  facet normal 0.000000e+000 -1.000000e+000 0.000000e+000
    outer loop
      vertex   -1.300000e+002 4.494000e+001 1.700000e+001
      vertex   -1.300000e+002 4.494000e+001 2.000000e+000
      vertex   -9.000000e+001 4.494000e+001 1.700000e+001
    endloop
  endfacet
  facet normal 0.000000e+000 -1.000000e+000 -0.000000e+000
    outer loop
      vertex   -9.000000e+001 4.494000e+001 1.700000e+001
      vertex   -1.300000e+002 4.494000e+001 2.000000e+000
      vertex   -9.000000e+001 4.494000e+001 2.000000e+000
    endloop
  endfacet
  facet normal 0.000000e+000 -1.000000e+000 -0.000000e+000
    outer loop
      vertex   -5.000000e+001 4.494000e+001 1.700000e+001
      vertex   -9.000000e+001 4.494000e+001 2.000000e+000
      vertex   -5.000000e+001 4.494000e+001 2.000000e+000
    endloop
  endfacet
  facet normal -0.000000e+000 -1.000000e+000 -0.000000e+000
    outer loop
      vertex   -5.000000e+001 4.494000e+001 1.700000e+001
      vertex   -9.000000e+001 4.494000e+001 1.700000e+001
      vertex   -9.000000e+001 4.494000e+001 2.000000e+000
    endloop
  endfacet
  facet normal -1.776357e-016 1.000000e+000 0.000000e+000
    outer loop
      vertex   -1.300000e+002 4.794000e+001 2.000000e+000
      vertex   -1.300000e+002 4.794000e+001 1.700000e+001
      vertex   -9.000000e+001 4.794000e+001 2.000000e+000
    endloop
  endfacet
  facet normal -0.000000e+000 1.000000e+000 4.736952e-016
    outer loop
      vertex   -9.000000e+001 4.794000e+001 2.000000e+000
      vertex   -1.300000e+002 4.794000e+001 1.700000e+001
      vertex   -9.000000e+001 4.794000e+001 1.700000e+001
    endloop
  endfacet
  facet normal 0.000000e+000 1.000000e+000 -0.000000e+000
    outer loop
      vertex   -5.000000e+001 4.794000e+001 2.000000e+000
      vertex   -9.000000e+001 4.794000e+001 1.700000e+001
      vertex   -5.000000e+001 4.794000e+001 1.700000e+001
    endloop
  endfacet
  facet normal 1.776357e-016 1.000000e+000 4.736952e-016
    outer loop
      vertex   -5.000000e+001 4.794000e+001 2.000000e+000
      vertex   -9.000000e+001 4.794000e+001 2.000000e+000
      vertex   -9.000000e+001 4.794000e+001 1.700000e+001
    endloop
  endfacet
  facet normal 1.000000e+000 -0.000000e+000 0.000000e+000
    outer loop
      vertex   -5.000000e+001 4.494000e+001 1.700000e+001
      vertex   -5.000000e+001 4.494000e+001 2.000000e+000
      vertex   -5.000000e+001 4.794000e+001 1.700000e+001
    endloop
  endfacet
  facet normal 1.000000e+000 -0.000000e+000 0.000000e+000
    outer loop
      vertex   -5.000000e+001 4.794000e+001 1.700000e+001
      vertex   -5.000000e+001 4.494000e+001 2.000000e+000
      vertex   -5.000000e+001 4.794000e+001 2.000000e+000
    endloop
  endfacet
  facet normal -1.776357e-016 1.000000e+000 0.000000e+000
    outer loop
      vertex   -1.000000e+001 3.000000e+001 2.500000e+001
      vertex   -1.000000e+001 3.000000e+001 2.000000e+000
      vertex   -5.000000e+001 3.000000e+001 2.500000e+001
    endloop
  endfacet
  facet normal 0.000000e+000 1.000000e+000 3.089316e-016
    outer loop
      vertex   -5.000000e+001 3.000000e+001 2.500000e+001
      vertex   -1.000000e+001 3.000000e+001 2.000000e+000
      vertex   -5.000000e+001 3.000000e+001 2.000000e+000
    endloop
  endfacet
  facet normal 0.000000e+000 1.000000e+000 3.089316e-016
    outer loop
      vertex   -9.000000e+001 3.000000e+001 2.500000e+001
      vertex   -5.000000e+001 3.000000e+001 2.000000e+000
      vertex   -9.000000e+001 3.000000e+001 2.000000e+000
    endloop
  endfacet
  facet normal 0.000000e+000 1.000000e+000 3.089316e-016
    outer loop
      vertex   -1.300000e+002 3.000000e+001 2.500000e+001
      vertex   -9.000000e+001 3.000000e+001 2.000000e+000
      vertex   -1.300000e+002 3.000000e+001 2.000000e+000
    endloop
  endfacet
  facet normal -0.000000e+000 1.000000e+000 3.089316e-016
    outer loop
      vertex   -1.300000e+002 3.000000e+001 2.500000e+001
      vertex   -9.000000e+001 3.000000e+001 2.500000e+001
      vertex   -9.000000e+001 3.000000e+001 2.000000e+000
    endloop
  endfacet
  facet normal 0.000000e+000 1.000000e+000 3.089316e-016
    outer loop
      vertex   -5.000000e+001 3.000000e+001 2.500000e+001
      vertex   -5.000000e+001 3.000000e+001 2.000000e+000
      vertex   -9.000000e+001 3.000000e+001 2.500000e+001
    endloop
  endfacet
  facet normal 0.000000e+000 -1.000000e+000 -3.089316e-015
    outer loop
      vertex   -1.000000e+001 9.875000e+001 2.000000e+000
      vertex   -1.000000e+001 9.875000e+001 2.500000e+001
      vertex   -5.000000e+001 9.875000e+001 2.000000e+000
    endloop
  endfacet
  facet normal -1.421085e-015 -1.000000e+000 -6.178632e-016
    outer loop
      vertex   -5.000000e+001 9.875000e+001 2.000000e+000
      vertex   -1.000000e+001 9.875000e+001 2.500000e+001
      vertex   -5.000000e+001 9.875000e+001 2.500000e+001
    endloop
  endfacet
  facet normal -0.000000e+000 -1.000000e+000 -6.178632e-016
    outer loop
      vertex   -9.000000e+001 9.875000e+001 2.000000e+000
      vertex   -5.000000e+001 9.875000e+001 2.500000e+001
      vertex   -9.000000e+001 9.875000e+001 2.500000e+001
    endloop
  endfacet
  facet normal -0.000000e+000 -1.000000e+000 -6.178632e-016
    outer loop
      vertex   -1.300000e+002 9.875000e+001 2.000000e+000
      vertex   -9.000000e+001 9.875000e+001 2.500000e+001
      vertex   -1.300000e+002 9.875000e+001 2.500000e+001
    endloop
  endfacet
  facet normal 0.000000e+000 -1.000000e+000 -6.178632e-016
    outer loop
      vertex   -1.300000e+002 9.875000e+001 2.000000e+000
      vertex   -9.000000e+001 9.875000e+001 2.000000e+000
      vertex   -9.000000e+001 9.875000e+001 2.500000e+001
    endloop
  endfacet
  facet normal 0.000000e+000 -1.000000e+000 -6.178632e-016
    outer loop
      vertex   -5.000000e+001 9.875000e+001 2.000000e+000
      vertex   -5.000000e+001 9.875000e+001 2.500000e+001
      vertex   -9.000000e+001 9.875000e+001 2.000000e+000
    endloop
  endfacet
  facet normal -1.000000e+000 -0.000000e+000 -0.000000e+000
    outer loop
      vertex   -1.000000e+001 9.875000e+001 2.500000e+001
      vertex   -1.000000e+001 9.875000e+001 2.000000e+000
      vertex   -1.000000e+001 6.437500e+001 2.500000e+001
    endloop
  endfacet
  facet normal -1.000000e+000 -0.000000e+000 -0.000000e+000
    outer loop
      vertex   -1.000000e+001 6.437500e+001 2.500000e+001
      vertex   -1.000000e+001 9.875000e+001 2.000000e+000
      vertex   -1.000000e+001 6.437500e+001 2.000000e+000
    endloop
  endfacet
  facet normal -1.000000e+000 -0.000000e+000 -0.000000e+000
    outer loop
      vertex   -1.000000e+001 3.000000e+001 2.500000e+001
      vertex   -1.000000e+001 6.437500e+001 2.000000e+000
      vertex   -1.000000e+001 3.000000e+001 2.000000e+000
    endloop
  endfacet
  facet normal -1.000000e+000 0.000000e+000 0.000000e+000
    outer loop
      vertex   -1.000000e+001 3.000000e+001 2.500000e+001
      vertex   -1.000000e+001 6.437500e+001 2.500000e+001
      vertex   -1.000000e+001 6.437500e+001 2.000000e+000
    endloop
  endfacet
  facet normal 0.000000e+000 -0.000000e+000 1.000000e+000
    outer loop
      vertex   -4.666667e+001 2.500000e+001 2.500000e+001
      vertex   -5.000000e+000 2.500000e+001 2.500000e+001
      vertex   -1.000000e+001 3.000000e+001 2.500000e+001
    endloop
  endfacet
  facet normal -0.000000e+000 0.000000e+000 1.000000e+000
    outer loop
      vertex   -5.000000e+001 3.000000e+001 2.500000e+001
      vertex   -4.666667e+001 2.500000e+001 2.500000e+001
      vertex   -1.000000e+001 3.000000e+001 2.500000e+001
    endloop
  endfacet
  facet normal -0.000000e+000 0.000000e+000 1.000000e+000
    outer loop
      vertex   -5.000000e+001 3.000000e+001 2.500000e+001
      vertex   -8.833333e+001 2.500000e+001 2.500000e+001
      vertex   -4.666667e+001 2.500000e+001 2.500000e+001
    endloop
  endfacet
  facet normal 0.000000e+000 0.000000e+000 1.000000e+000
    outer loop
      vertex   -5.000000e+001 3.000000e+001 2.500000e+001
      vertex   -9.000000e+001 3.000000e+001 2.500000e+001
      vertex   -8.833333e+001 2.500000e+001 2.500000e+001
    endloop
  endfacet
  facet normal 0.000000e+000 0.000000e+000 1.000000e+000
    outer loop
      vertex   -8.833333e+001 2.500000e+001 2.500000e+001
      vertex   -9.000000e+001 3.000000e+001 2.500000e+001
      vertex   -1.300000e+002 2.500000e+001 2.500000e+001
    endloop
  endfacet
  facet normal 0.000000e+000 -0.000000e+000 1.000000e+000
    outer loop
      vertex   -1.300000e+002 2.500000e+001 2.500000e+001
      vertex   -9.000000e+001 3.000000e+001 2.500000e+001
      vertex   -1.300000e+002 3.000000e+001 2.500000e+001
    endloop
  endfacet
  facet normal 0.000000e+000 0.000000e+000 1.000000e+000
    outer loop
      vertex   -5.000000e+000 1.037500e+002 2.500000e+001
      vertex   -1.000000e+001 9.875000e+001 2.500000e+001
      vertex   -5.000000e+000 6.437500e+001 2.500000e+001
    endloop
  endfacet
  facet normal 0.000000e+000 0.000000e+000 1.000000e+000
    outer loop
      vertex   -5.000000e+000 1.037500e+002 2.500000e+001
      vertex   -4.666667e+001 1.037500e+002 2.500000e+001
      vertex   -1.000000e+001 9.875000e+001 2.500000e+001
    endloop
  endfacet
  facet normal 0.000000e+000 0.000000e+000 1.000000e+000
    outer loop
      vertex   -1.000000e+001 9.875000e+001 2.500000e+001
      vertex   -4.666667e+001 1.037500e+002 2.500000e+001
      vertex   -5.000000e+001 9.875000e+001 2.500000e+001
    endloop
  endfacet
  facet normal 0.000000e+000 -0.000000e+000 1.000000e+000
    outer loop
      vertex   -5.000000e+001 9.875000e+001 2.500000e+001
      vertex   -4.666667e+001 1.037500e+002 2.500000e+001
      vertex   -8.833333e+001 1.037500e+002 2.500000e+001
    endloop
  endfacet
  facet normal 0.000000e+000 -0.000000e+000 1.000000e+000
    outer loop
      vertex   -9.000000e+001 9.875000e+001 2.500000e+001
      vertex   -8.833333e+001 1.037500e+002 2.500000e+001
      vertex   -1.300000e+002 1.037500e+002 2.500000e+001
    endloop
  endfacet
  facet normal 0.000000e+000 -0.000000e+000 1.000000e+000
    outer loop
      vertex   -1.300000e+002 9.875000e+001 2.500000e+001
      vertex   -9.000000e+001 9.875000e+001 2.500000e+001
      vertex   -1.300000e+002 1.037500e+002 2.500000e+001
    endloop
  endfacet
  facet normal 0.000000e+000 0.000000e+000 1.000000e+000
    outer loop
      vertex   -5.000000e+001 9.875000e+001 2.500000e+001
      vertex   -8.833333e+001 1.037500e+002 2.500000e+001
      vertex   -9.000000e+001 9.875000e+001 2.500000e+001
    endloop
  endfacet
  facet normal 0.000000e+000 0.000000e+000 1.000000e+000
    outer loop
      vertex   -1.000000e+001 9.875000e+001 2.500000e+001
      vertex   -1.000000e+001 6.437500e+001 2.500000e+001
      vertex   -5.000000e+000 6.437500e+001 2.500000e+001
    endloop
  endfacet
  facet normal 0.000000e+000 0.000000e+000 1.000000e+000
    outer loop
      vertex   -5.000000e+000 6.437500e+001 2.500000e+001
      vertex   -1.000000e+001 6.437500e+001 2.500000e+001
      vertex   -1.000000e+001 3.000000e+001 2.500000e+001
    endloop
  endfacet
  facet normal 0.000000e+000 -0.000000e+000 1.000000e+000
    outer loop
      vertex   -5.000000e+000 2.500000e+001 2.500000e+001
      vertex   -5.000000e+000 6.437500e+001 2.500000e+001
      vertex   -1.000000e+001 3.000000e+001 2.500000e+001
    endloop
  endfacet
endsolid
