solid ascii
  facet normal -2.424094e-012 1.540599e-011 1.000000e+000
    outer loop
      vertex   -5.000000e+000 5.007818e+001 2.000000e+000
      vertex   -1.013199e+001 4.902071e+001 2.000000e+000
      vertex   -5.000000e+000 5.005098e+001 2.000000e+000
    endloop
  endfacet
  facet normal -2.814753e-011 1.366025e-010 1.000000e+000
    outer loop
      vertex   -1.500000e+001 5.603027e+001 2.000000e+000
      vertex   -1.512194e+001 5.603027e+001 2.000000e+000
      vertex   -2.000000e+001 5.500000e+001 2.000000e+000
    endloop
  endfacet
  facet normal -1.351595e-011 6.732591e-011 1.000000e+000
    outer loop
      vertex   -2.000000e+001 5.500000e+001 2.000000e+000
      vertex   -1.512194e+001 5.603027e+001 2.000000e+000
      vertex   -2.000000e+001 5.505098e+001 2.000000e+000
    endloop
  endfacet
  facet normal 1.416036e-015 9.701425e-001 -2.425356e-001
    outer loop
      vertex   -1.013199e+001 5.603027e+001 2.000000e+000
      vertex   -1.462194e+001 5.553027e+001 -3.432532e-012
      vertex   -1.500000e+001 5.603027e+001 2.000000e+000
    endloop
  endfacet
  facet normal 6.770250e-012 9.701425e-001 -2.425356e-001
    outer loop
      vertex   -1.500000e+001 5.603027e+001 2.000000e+000
      vertex   -1.462194e+001 5.553027e+001 -3.432532e-012
      vertex   -1.512194e+001 5.603027e+001 2.000000e+000
    endloop
  endfacet
  facet normal -1.782221e-001 8.877600e-001 -4.244043e-001
    outer loop
      vertex   -1.512194e+001 5.603027e+001 2.000000e+000
      vertex   -1.877732e+001 5.434031e+001 -3.432532e-012
      vertex   -2.000000e+001 5.505098e+001 2.000000e+000
    endloop
  endfacet
  facet normal -8.792667e-001 -3.207086e-011 -4.763297e-001
    outer loop
      vertex   -2.000000e+001 5.505098e+001 2.000000e+000
      vertex   -1.891653e+001 5.095987e+001 -3.431977e-012
      vertex   -2.000000e+001 5.500000e+001 2.000000e+000
    endloop
  endfacet
  facet normal -8.792667e-001 3.303107e-013 -4.763297e-001
    outer loop
      vertex   -2.000000e+001 5.500000e+001 2.000000e+000
      vertex   -1.891653e+001 5.095987e+001 -3.431977e-012
      vertex   -2.000000e+001 5.005098e+001 2.000000e+000
    endloop
  endfacet
  facet normal -1.924626e-001 -9.340385e-001 -3.008823e-001
    outer loop
      vertex   -2.000000e+001 5.005098e+001 2.000000e+000
      vertex   -1.456011e+001 4.957433e+001 -3.431977e-012
      vertex   -1.500000e+001 4.902071e+001 2.000000e+000
    endloop
  endfacet
  facet normal 1.724024e-013 -9.701425e-001 -2.425356e-001
    outer loop
      vertex   -1.500000e+001 4.902071e+001 2.000000e+000
      vertex   -1.063199e+001 4.952071e+001 -3.431699e-012
      vertex   -1.013199e+001 4.902071e+001 2.000000e+000
    endloop
  endfacet
  facet normal 2.664636e-001 9.123703e-001 -3.107695e-001
    outer loop
      vertex   -1.013199e+001 5.603027e+001 2.000000e+000
      vertex   -6.181238e+000 5.419519e+001 -3.432532e-012
      vertex   -1.057358e+001 5.547801e+001 -3.432532e-012
    endloop
  endfacet
  facet normal 1.760480e-001 -8.769305e-001 -4.472136e-001
    outer loop
      vertex   -1.013199e+001 4.902071e+001 2.000000e+000
      vertex   -6.177266e+000 5.083459e+001 -3.431977e-012
      vertex   -5.000000e+000 5.005098e+001 2.000000e+000
    endloop
  endfacet
  facet normal 8.608621e-001 1.017608e-003 -5.088373e-001
    outer loop
      vertex   -5.000000e+000 5.497280e+001 2.000000e+000
      vertex   -6.177266e+000 5.083459e+001 -3.431977e-012
      vertex   -6.181238e+000 5.419519e+001 -3.432532e-012
    endloop
  endfacet
  facet normal 1.243460e-002 9.631433e-001 -2.687012e-001
    outer loop
      vertex   -1.462194e+001 5.553027e+001 -3.432532e-012
      vertex   -1.013199e+001 5.603027e+001 2.000000e+000
      vertex   -1.057358e+001 5.547801e+001 -3.432532e-012
    endloop
  endfacet
  facet normal -2.630172e-001 9.184651e-001 -2.953706e-001
    outer loop
      vertex   -1.877732e+001 5.434031e+001 -3.432532e-012
      vertex   -1.512194e+001 5.603027e+001 2.000000e+000
      vertex   -1.462194e+001 5.553027e+001 -3.432532e-012
    endloop
  endfacet
  facet normal -8.471106e-001 3.488579e-002 -5.302703e-001
    outer loop
      vertex   -1.891653e+001 5.095987e+001 -3.431977e-012
      vertex   -2.000000e+001 5.505098e+001 2.000000e+000
      vertex   -1.877732e+001 5.434031e+001 -3.432532e-012
    endloop
  endfacet
  facet normal -2.602086e-001 -8.181444e-001 -5.127682e-001
    outer loop
      vertex   -1.456011e+001 4.957433e+001 -3.431977e-012
      vertex   -2.000000e+001 5.005098e+001 2.000000e+000
      vertex   -1.891653e+001 5.095987e+001 -3.431977e-012
    endloop
  endfacet
  facet normal -1.314403e-002 -9.629279e-001 -2.694386e-001
    outer loop
      vertex   -1.063199e+001 4.952071e+001 -3.431699e-012
      vertex   -1.500000e+001 4.902071e+001 2.000000e+000
      vertex   -1.456011e+001 4.957433e+001 -3.431977e-012
    endloop
  endfacet
  facet normal 2.701685e-001 -9.160079e-001 -2.965441e-001
    outer loop
      vertex   -6.177266e+000 5.083459e+001 -3.431977e-012
      vertex   -1.013199e+001 4.902071e+001 2.000000e+000
      vertex   -1.063199e+001 4.952071e+001 -3.431699e-012
    endloop
  endfacet
  facet normal 8.617844e-001 4.425073e-013 -5.072746e-001
    outer loop
      vertex   -5.000000e+000 5.497280e+001 2.000000e+000
      vertex   -5.000000e+000 5.007818e+001 2.000000e+000
      vertex   -6.177266e+000 5.083459e+001 -3.431977e-012
    endloop
  endfacet
  facet normal 8.617844e-001 -7.966511e-011 -5.072746e-001
    outer loop
      vertex   -6.177266e+000 5.083459e+001 -3.431977e-012
      vertex   -5.000000e+000 5.007818e+001 2.000000e+000
      vertex   -5.000000e+000 5.005098e+001 2.000000e+000
    endloop
  endfacet
  facet normal 1.805083e-001 8.760233e-001 -4.472136e-001
    outer loop
      vertex   -6.181238e+000 5.419519e+001 -3.432532e-012
      vertex   -1.013199e+001 5.603027e+001 2.000000e+000
      vertex   -5.000000e+000 5.497280e+001 2.000000e+000
    endloop
  endfacet
  facet normal -4.070493e-017 -1.393735e-016 -1.000000e+000
    outer loop
      vertex   -6.181238e+000 5.419519e+001 -3.432532e-012
      vertex   -1.063199e+001 4.952071e+001 -3.431699e-012
      vertex   -1.057358e+001 5.547801e+001 -3.432532e-012
    endloop
  endfacet
  facet normal -1.358221e-017 -1.651981e-016 -1.000000e+000
    outer loop
      vertex   -6.181238e+000 5.419519e+001 -3.432532e-012
      vertex   -6.177266e+000 5.083459e+001 -3.431977e-012
      vertex   -1.063199e+001 4.952071e+001 -3.431699e-012
    endloop
  endfacet
  facet normal 6.874163e-017 -1.404466e-016 -1.000000e+000
    outer loop
      vertex   -1.063199e+001 4.952071e+001 -3.431699e-012
      vertex   -1.456011e+001 4.957433e+001 -3.431977e-012
      vertex   -1.057358e+001 5.547801e+001 -3.432532e-012
    endloop
  endfacet
  facet normal -1.203451e-018 -9.321541e-017 -1.000000e+000
    outer loop
      vertex   -1.057358e+001 5.547801e+001 -3.432532e-012
      vertex   -1.456011e+001 4.957433e+001 -3.431977e-012
      vertex   -1.462194e+001 5.553027e+001 -3.432532e-012
    endloop
  endfacet
  facet normal 2.661103e-017 -9.292664e-017 -1.000000e+000
    outer loop
      vertex   -1.462194e+001 5.553027e+001 -3.432532e-012
      vertex   -1.456011e+001 4.957433e+001 -3.431977e-012
      vertex   -1.877732e+001 5.434031e+001 -3.432532e-012
    endloop
  endfacet
  facet normal -5.155221e-017 -1.620898e-016 -1.000000e+000
    outer loop
      vertex   -1.877732e+001 5.434031e+001 -3.432532e-012
      vertex   -1.456011e+001 4.957433e+001 -3.431977e-012
      vertex   -1.891653e+001 5.095987e+001 -3.431977e-012
    endloop
  endfacet
  facet normal -3.091186e-012 -1.539782e-011 -1.000000e+000
    outer loop
      vertex   -5.000000e+000 5.497280e+001 2.000000e+000
      vertex   -1.013199e+001 5.603027e+001 2.000000e+000
      vertex   -5.000000e+000 5.500000e+001 2.000000e+000
    endloop
  endfacet
  facet normal -2.814025e-011 -1.365676e-010 -1.000000e+000
    outer loop
      vertex   -1.500000e+001 4.902071e+001 2.000000e+000
      vertex   -1.512194e+001 4.902071e+001 2.000000e+000
      vertex   -2.000000e+001 5.005098e+001 2.000000e+000
    endloop
  endfacet
  facet normal -1.351512e-011 -6.732155e-011 -1.000000e+000
    outer loop
      vertex   -2.000000e+001 5.005098e+001 2.000000e+000
      vertex   -1.512194e+001 4.902071e+001 2.000000e+000
      vertex   -2.000000e+001 5.000000e+001 2.000000e+000
    endloop
  endfacet
  facet normal -1.695482e-013 -9.701425e-001 2.425356e-001
    outer loop
      vertex   -1.013199e+001 4.902071e+001 2.000000e+000
      vertex   -1.462194e+001 4.952071e+001 4.000000e+000
      vertex   -1.500000e+001 4.902071e+001 2.000000e+000
    endloop
  endfacet
  facet normal 6.768483e-012 -9.701425e-001 2.425356e-001
    outer loop
      vertex   -1.500000e+001 4.902071e+001 2.000000e+000
      vertex   -1.462194e+001 4.952071e+001 4.000000e+000
      vertex   -1.512194e+001 4.902071e+001 2.000000e+000
    endloop
  endfacet
  facet normal -1.782221e-001 -8.877600e-001 4.244043e-001
    outer loop
      vertex   -1.512194e+001 4.902071e+001 2.000000e+000
      vertex   -1.877732e+001 5.071066e+001 4.000000e+000
      vertex   -2.000000e+001 5.000000e+001 2.000000e+000
    endloop
  endfacet
  facet normal -8.792667e-001 3.206703e-011 4.763297e-001
    outer loop
      vertex   -2.000000e+001 5.000000e+001 2.000000e+000
      vertex   -1.891653e+001 5.409110e+001 4.000000e+000
      vertex   -2.000000e+001 5.005098e+001 2.000000e+000
    endloop
  endfacet
  facet normal -8.792667e-001 -3.303107e-013 4.763297e-001
    outer loop
      vertex   -2.000000e+001 5.005098e+001 2.000000e+000
      vertex   -1.891653e+001 5.409110e+001 4.000000e+000
      vertex   -2.000000e+001 5.500000e+001 2.000000e+000
    endloop
  endfacet
  facet normal -1.924626e-001 9.340385e-001 3.008823e-001
    outer loop
      vertex   -2.000000e+001 5.500000e+001 2.000000e+000
      vertex   -1.456011e+001 5.547665e+001 4.000000e+000
      vertex   -1.500000e+001 5.603027e+001 2.000000e+000
    endloop
  endfacet
  facet normal 1.416036e-015 9.701425e-001 2.425356e-001
    outer loop
      vertex   -1.500000e+001 5.603027e+001 2.000000e+000
      vertex   -1.063199e+001 5.553027e+001 4.000000e+000
      vertex   -1.013199e+001 5.603027e+001 2.000000e+000
    endloop
  endfacet
  facet normal 2.664636e-001 -9.123703e-001 3.107695e-001
    outer loop
      vertex   -1.013199e+001 4.902071e+001 2.000000e+000
      vertex   -6.181238e+000 5.085578e+001 4.000000e+000
      vertex   -1.057358e+001 4.957297e+001 4.000000e+000
    endloop
  endfacet
  facet normal 1.760480e-001 8.769305e-001 4.472136e-001
    outer loop
      vertex   -1.013199e+001 5.603027e+001 2.000000e+000
      vertex   -6.177266e+000 5.421639e+001 4.000000e+000
      vertex   -5.000000e+000 5.500000e+001 2.000000e+000
    endloop
  endfacet
  facet normal 8.608621e-001 -1.017608e-003 5.088373e-001
    outer loop
      vertex   -5.000000e+000 5.007818e+001 2.000000e+000
      vertex   -6.177266e+000 5.421639e+001 4.000000e+000
      vertex   -6.181238e+000 5.085578e+001 4.000000e+000
    endloop
  endfacet
  facet normal 1.243460e-002 -9.631433e-001 2.687012e-001
    outer loop
      vertex   -1.462194e+001 4.952071e+001 4.000000e+000
      vertex   -1.013199e+001 4.902071e+001 2.000000e+000
      vertex   -1.057358e+001 4.957297e+001 4.000000e+000
    endloop
  endfacet
  facet normal -2.630172e-001 -9.184651e-001 2.953706e-001
    outer loop
      vertex   -1.877732e+001 5.071066e+001 4.000000e+000
      vertex   -1.512194e+001 4.902071e+001 2.000000e+000
      vertex   -1.462194e+001 4.952071e+001 4.000000e+000
    endloop
  endfacet
  facet normal -8.471106e-001 -3.488579e-002 5.302703e-001
    outer loop
      vertex   -1.891653e+001 5.409110e+001 4.000000e+000
      vertex   -2.000000e+001 5.000000e+001 2.000000e+000
      vertex   -1.877732e+001 5.071066e+001 4.000000e+000
    endloop
  endfacet
  facet normal -2.602086e-001 8.181444e-001 5.127682e-001
    outer loop
      vertex   -1.456011e+001 5.547665e+001 4.000000e+000
      vertex   -2.000000e+001 5.500000e+001 2.000000e+000
      vertex   -1.891653e+001 5.409110e+001 4.000000e+000
    endloop
  endfacet
  facet normal -1.314403e-002 9.629279e-001 2.694386e-001
    outer loop
      vertex   -1.063199e+001 5.553027e+001 4.000000e+000
      vertex   -1.500000e+001 5.603027e+001 2.000000e+000
      vertex   -1.456011e+001 5.547665e+001 4.000000e+000
    endloop
  endfacet
  facet normal 2.701685e-001 9.160079e-001 2.965441e-001
    outer loop
      vertex   -6.177266e+000 5.421639e+001 4.000000e+000
      vertex   -1.013199e+001 5.603027e+001 2.000000e+000
      vertex   -1.063199e+001 5.553027e+001 4.000000e+000
    endloop
  endfacet
  facet normal 8.617844e-001 -4.425073e-013 5.072746e-001
    outer loop
      vertex   -5.000000e+000 5.007818e+001 2.000000e+000
      vertex   -5.000000e+000 5.497280e+001 2.000000e+000
      vertex   -6.177266e+000 5.421639e+001 4.000000e+000
    endloop
  endfacet
  facet normal 8.617844e-001 7.966097e-011 5.072746e-001
    outer loop
      vertex   -6.177266e+000 5.421639e+001 4.000000e+000
      vertex   -5.000000e+000 5.497280e+001 2.000000e+000
      vertex   -5.000000e+000 5.500000e+001 2.000000e+000
    endloop
  endfacet
  facet normal 1.805083e-001 -8.760233e-001 4.472136e-001
    outer loop
      vertex   -6.181238e+000 5.085578e+001 4.000000e+000
      vertex   -1.013199e+001 4.902071e+001 2.000000e+000
      vertex   -5.000000e+000 5.007818e+001 2.000000e+000
    endloop
  endfacet
  facet normal 0.000000e+000 0.000000e+000 1.000000e+000
    outer loop
      vertex   -6.181238e+000 5.085578e+001 4.000000e+000
      vertex   -1.063199e+001 5.553027e+001 4.000000e+000
      vertex   -1.057358e+001 4.957297e+001 4.000000e+000
    endloop
  endfacet
  facet normal 0.000000e+000 -0.000000e+000 1.000000e+000
    outer loop
      vertex   -6.181238e+000 5.085578e+001 4.000000e+000
      vertex   -6.177266e+000 5.421639e+001 4.000000e+000
      vertex   -1.063199e+001 5.553027e+001 4.000000e+000
    endloop
  endfacet
  facet normal 0.000000e+000 0.000000e+000 1.000000e+000
    outer loop
      vertex   -1.063199e+001 5.553027e+001 4.000000e+000
      vertex   -1.456011e+001 5.547665e+001 4.000000e+000
      vertex   -1.057358e+001 4.957297e+001 4.000000e+000
    endloop
  endfacet
  facet normal 0.000000e+000 0.000000e+000 1.000000e+000
    outer loop
      vertex   -1.057358e+001 4.957297e+001 4.000000e+000
      vertex   -1.456011e+001 5.547665e+001 4.000000e+000
      vertex   -1.462194e+001 4.952071e+001 4.000000e+000
    endloop
  endfacet
  facet normal 0.000000e+000 -0.000000e+000 1.000000e+000
    outer loop
      vertex   -1.462194e+001 4.952071e+001 4.000000e+000
      vertex   -1.456011e+001 5.547665e+001 4.000000e+000
      vertex   -1.877732e+001 5.071066e+001 4.000000e+000
    endloop
  endfacet
  facet normal 0.000000e+000 -0.000000e+000 1.000000e+000
    outer loop
      vertex   -1.877732e+001 5.071066e+001 4.000000e+000
      vertex   -1.456011e+001 5.547665e+001 4.000000e+000
      vertex   -1.891653e+001 5.409110e+001 4.000000e+000
    endloop
  endfacet
endsolid
