solid ascii
  facet normal -0.000000e+000 0.000000e+000 1.000000e+000
    outer loop
      vertex   -6.000000e+001 1.250000e+002 1.750000e+001
      vertex   -6.000000e+001 1.225000e+002 1.750000e+001
      vertex   -4.000000e+001 1.250000e+002 1.750000e+001
    endloop
  endfacet
  facet normal -0.000000e+000 0.000000e+000 1.000000e+000
    outer loop
      vertex   -4.000000e+001 1.250000e+002 1.750000e+001
      vertex   -6.000000e+001 1.225000e+002 1.750000e+001
      vertex   -4.000000e+001 1.225000e+002 1.750000e+001
    endloop
  endfacet
  facet normal 1.000000e+000 0.000000e+000 3.157968e-016
    outer loop
      vertex   -6.000000e+001 1.250000e+002 1.750000e+001
      vertex   -6.000000e+001 1.250000e+002 6.250000e+001
      vertex   -6.000000e+001 1.225000e+002 1.750000e+001
    endloop
  endfacet
  facet normal 1.000000e+000 0.000000e+000 3.157968e-016
    outer loop
      vertex   -6.000000e+001 1.225000e+002 1.750000e+001
      vertex   -6.000000e+001 1.250000e+002 6.250000e+001
      vertex   -6.000000e+001 1.225000e+002 6.250000e+001
    endloop
  endfacet
  facet normal -0.000000e+000 0.000000e+000 1.000000e+000
    outer loop
      vertex   -6.000000e+001 7.750000e+001 1.750000e+001
      vertex   -6.000000e+001 7.500000e+001 1.750000e+001
      vertex   -4.000000e+001 7.750000e+001 1.750000e+001
    endloop
  endfacet
  facet normal 0.000000e+000 0.000000e+000 1.000000e+000
    outer loop
      vertex   -4.000000e+001 7.750000e+001 1.750000e+001
      vertex   -6.000000e+001 7.500000e+001 1.750000e+001
      vertex   -4.000000e+001 7.500000e+001 1.750000e+001
    endloop
  endfacet
  facet normal -1.000000e+000 0.000000e+000 0.000000e+000
    outer loop
      vertex   -4.000000e+001 7.500000e+001 1.750000e+001
      vertex   -4.000000e+001 7.500000e+001 6.250000e+001
      vertex   -4.000000e+001 7.750000e+001 1.750000e+001
    endloop
  endfacet
  facet normal -1.000000e+000 0.000000e+000 0.000000e+000
    outer loop
      vertex   -4.000000e+001 7.750000e+001 1.750000e+001
      vertex   -4.000000e+001 7.500000e+001 6.250000e+001
      vertex   -4.000000e+001 7.750000e+001 6.250000e+001
    endloop
  endfacet
  facet normal 0.000000e+000 0.000000e+000 1.000000e+000
    outer loop
      vertex   -2.500000e+001 1.100000e+002 1.750000e+001
      vertex   -2.750000e+001 1.100000e+002 1.750000e+001
      vertex   -2.500000e+001 9.000000e+001 1.750000e+001
    endloop
  endfacet
  facet normal 0.000000e+000 0.000000e+000 1.000000e+000
    outer loop
      vertex   -2.500000e+001 9.000000e+001 1.750000e+001
      vertex   -2.750000e+001 1.100000e+002 1.750000e+001
      vertex   -2.750000e+001 9.000000e+001 1.750000e+001
    endloop
  endfacet
  facet normal -0.000000e+000 -1.000000e+000 0.000000e+000
    outer loop
      vertex   -2.500000e+001 1.100000e+002 1.750000e+001
      vertex   -2.500000e+001 1.100000e+002 6.250000e+001
      vertex   -2.750000e+001 1.100000e+002 1.750000e+001
    endloop
  endfacet
  facet normal 0.000000e+000 -1.000000e+000 0.000000e+000
    outer loop
      vertex   -2.750000e+001 1.100000e+002 1.750000e+001
      vertex   -2.500000e+001 1.100000e+002 6.250000e+001
      vertex   -2.750000e+001 1.100000e+002 6.250000e+001
    endloop
  endfacet
  facet normal 0.000000e+000 0.000000e+000 1.000000e+000
    outer loop
      vertex   -7.250000e+001 1.100000e+002 1.750000e+001
      vertex   -7.500000e+001 1.100000e+002 1.750000e+001
      vertex   -7.250000e+001 9.000000e+001 1.750000e+001
    endloop
  endfacet
  facet normal 0.000000e+000 0.000000e+000 1.000000e+000
    outer loop
      vertex   -7.250000e+001 9.000000e+001 1.750000e+001
      vertex   -7.500000e+001 1.100000e+002 1.750000e+001
      vertex   -7.500000e+001 9.000000e+001 1.750000e+001
    endloop
  endfacet
  facet normal -0.000000e+000 1.000000e+000 0.000000e+000
    outer loop
      vertex   -7.500000e+001 9.000000e+001 1.750000e+001
      vertex   -7.500000e+001 9.000000e+001 6.250000e+001
      vertex   -7.250000e+001 9.000000e+001 1.750000e+001
    endloop
  endfacet
  facet normal 0.000000e+000 1.000000e+000 -0.000000e+000
    outer loop
      vertex   -7.250000e+001 9.000000e+001 1.750000e+001
      vertex   -7.500000e+001 9.000000e+001 6.250000e+001
      vertex   -7.250000e+001 9.000000e+001 6.250000e+001
    endloop
  endfacet
  facet normal 0.000000e+000 1.000000e+000 0.000000e+000
    outer loop
      vertex   -4.000000e+001 9.000000e+001 2.500000e+000
      vertex   -4.000000e+001 9.000000e+001 0.000000e+000
      vertex   -6.000000e+001 9.000000e+001 2.500000e+000
    endloop
  endfacet
  facet normal 0.000000e+000 1.000000e+000 0.000000e+000
    outer loop
      vertex   -6.000000e+001 9.000000e+001 2.500000e+000
      vertex   -4.000000e+001 9.000000e+001 0.000000e+000
      vertex   -6.000000e+001 9.000000e+001 0.000000e+000
    endloop
  endfacet
  facet normal 1.000000e+000 -0.000000e+000 0.000000e+000
    outer loop
      vertex   -6.000000e+001 9.000000e+001 2.500000e+000
      vertex   -6.000000e+001 9.000000e+001 0.000000e+000
      vertex   -6.000000e+001 1.100000e+002 2.500000e+000
    endloop
  endfacet
  facet normal 1.000000e+000 -0.000000e+000 0.000000e+000
    outer loop
      vertex   -6.000000e+001 1.100000e+002 2.500000e+000
      vertex   -6.000000e+001 9.000000e+001 0.000000e+000
      vertex   -6.000000e+001 1.100000e+002 0.000000e+000
    endloop
  endfacet
  facet normal 0.000000e+000 -1.000000e+000 0.000000e+000
    outer loop
      vertex   -6.000000e+001 1.100000e+002 2.500000e+000
      vertex   -6.000000e+001 1.100000e+002 0.000000e+000
      vertex   -4.000000e+001 1.100000e+002 2.500000e+000
    endloop
  endfacet
  facet normal 0.000000e+000 -1.000000e+000 -0.000000e+000
    outer loop
      vertex   -4.000000e+001 1.100000e+002 2.500000e+000
      vertex   -6.000000e+001 1.100000e+002 0.000000e+000
      vertex   -4.000000e+001 1.100000e+002 0.000000e+000
    endloop
  endfacet
  facet normal -1.000000e+000 -0.000000e+000 -0.000000e+000
    outer loop
      vertex   -4.000000e+001 1.100000e+002 2.500000e+000
      vertex   -4.000000e+001 1.100000e+002 0.000000e+000
      vertex   -4.000000e+001 9.000000e+001 2.500000e+000
    endloop
  endfacet
  facet normal -1.000000e+000 -0.000000e+000 -0.000000e+000
    outer loop
      vertex   -4.000000e+001 9.000000e+001 2.500000e+000
      vertex   -4.000000e+001 1.100000e+002 0.000000e+000
      vertex   -4.000000e+001 9.000000e+001 0.000000e+000
    endloop
  endfacet
  facet normal 0.000000e+000 5.551115e-017 -1.000000e+000
    outer loop
      vertex   -6.000000e+001 1.100000e+002 0.000000e+000
      vertex   -2.500000e+001 1.250000e+002 8.326673e-016
      vertex   -4.000000e+001 1.100000e+002 0.000000e+000
    endloop
  endfacet
  facet normal 0.000000e+000 5.551115e-017 -1.000000e+000
    outer loop
      vertex   -6.000000e+001 1.100000e+002 0.000000e+000
      vertex   -7.500000e+001 1.250000e+002 8.326673e-016
      vertex   -2.500000e+001 1.250000e+002 8.326673e-016
    endloop
  endfacet
  facet normal -5.551115e-017 0.000000e+000 -1.000000e+000
    outer loop
      vertex   -6.000000e+001 1.100000e+002 0.000000e+000
      vertex   -7.500000e+001 7.500000e+001 8.326673e-016
      vertex   -7.500000e+001 1.250000e+002 8.326673e-016
    endloop
  endfacet
  facet normal -5.551115e-017 -0.000000e+000 -1.000000e+000
    outer loop
      vertex   -6.000000e+001 1.100000e+002 0.000000e+000
      vertex   -6.000000e+001 9.000000e+001 0.000000e+000
      vertex   -7.500000e+001 7.500000e+001 8.326673e-016
    endloop
  endfacet
  facet normal 0.000000e+000 -5.551115e-017 -1.000000e+000
    outer loop
      vertex   -7.500000e+001 7.500000e+001 8.326673e-016
      vertex   -6.000000e+001 9.000000e+001 0.000000e+000
      vertex   -4.000000e+001 9.000000e+001 0.000000e+000
    endloop
  endfacet
  facet normal 5.551115e-017 0.000000e+000 -1.000000e+000
    outer loop
      vertex   -2.500000e+001 7.500000e+001 8.326673e-016
      vertex   -4.000000e+001 9.000000e+001 0.000000e+000
      vertex   -4.000000e+001 1.100000e+002 0.000000e+000
    endloop
  endfacet
  facet normal 5.551115e-017 0.000000e+000 -1.000000e+000
    outer loop
      vertex   -2.500000e+001 1.250000e+002 8.326673e-016
      vertex   -2.500000e+001 7.500000e+001 8.326673e-016
      vertex   -4.000000e+001 1.100000e+002 0.000000e+000
    endloop
  endfacet
  facet normal 0.000000e+000 -5.551115e-017 -1.000000e+000
    outer loop
      vertex   -7.500000e+001 7.500000e+001 8.326673e-016
      vertex   -4.000000e+001 9.000000e+001 0.000000e+000
      vertex   -2.500000e+001 7.500000e+001 8.326673e-016
    endloop
  endfacet
  facet normal -1.000000e+000 -0.000000e+000 -0.000000e+000
    outer loop
      vertex   -2.750000e+001 1.225000e+002 6.250000e+001
      vertex   -2.750000e+001 1.225000e+002 3.250000e+001
      vertex   -2.750000e+001 1.100000e+002 6.250000e+001
    endloop
  endfacet
  facet normal -1.000000e+000 0.000000e+000 -0.000000e+000
    outer loop
      vertex   -2.750000e+001 1.100000e+002 6.250000e+001
      vertex   -2.750000e+001 1.225000e+002 3.250000e+001
      vertex   -2.750000e+001 1.100000e+002 1.750000e+001
    endloop
  endfacet
  facet normal -1.000000e+000 0.000000e+000 0.000000e+000
    outer loop
      vertex   -2.750000e+001 1.100000e+002 1.750000e+001
      vertex   -2.750000e+001 1.225000e+002 3.250000e+001
      vertex   -2.750000e+001 1.225000e+002 2.500000e+000
    endloop
  endfacet
  facet normal -1.000000e+000 -0.000000e+000 -0.000000e+000
    outer loop
      vertex   -2.750000e+001 9.000000e+001 1.750000e+001
      vertex   -2.750000e+001 1.225000e+002 2.500000e+000
      vertex   -2.750000e+001 7.750000e+001 2.500000e+000
    endloop
  endfacet
  facet normal -1.000000e+000 0.000000e+000 -0.000000e+000
    outer loop
      vertex   -2.750000e+001 7.750000e+001 3.250000e+001
      vertex   -2.750000e+001 9.000000e+001 1.750000e+001
      vertex   -2.750000e+001 7.750000e+001 2.500000e+000
    endloop
  endfacet
  facet normal -1.000000e+000 0.000000e+000 0.000000e+000
    outer loop
      vertex   -2.750000e+001 7.750000e+001 3.250000e+001
      vertex   -2.750000e+001 9.000000e+001 6.250000e+001
      vertex   -2.750000e+001 9.000000e+001 1.750000e+001
    endloop
  endfacet
  facet normal -1.000000e+000 0.000000e+000 0.000000e+000
    outer loop
      vertex   -2.750000e+001 7.750000e+001 3.250000e+001
      vertex   -2.750000e+001 7.750000e+001 6.250000e+001
      vertex   -2.750000e+001 9.000000e+001 6.250000e+001
    endloop
  endfacet
  facet normal -1.000000e+000 -0.000000e+000 -0.000000e+000
    outer loop
      vertex   -2.750000e+001 1.100000e+002 1.750000e+001
      vertex   -2.750000e+001 1.225000e+002 2.500000e+000
      vertex   -2.750000e+001 9.000000e+001 1.750000e+001
    endloop
  endfacet
  facet normal 0.000000e+000 -1.000000e+000 -0.000000e+000
    outer loop
      vertex   -6.000000e+001 1.225000e+002 6.250000e+001
      vertex   -7.250000e+001 1.225000e+002 3.250000e+001
      vertex   -6.000000e+001 1.225000e+002 1.750000e+001
    endloop
  endfacet
  facet normal -0.000000e+000 -1.000000e+000 -0.000000e+000
    outer loop
      vertex   -6.000000e+001 1.225000e+002 6.250000e+001
      vertex   -7.250000e+001 1.225000e+002 6.250000e+001
      vertex   -7.250000e+001 1.225000e+002 3.250000e+001
    endloop
  endfacet
  facet normal 0.000000e+000 -1.000000e+000 0.000000e+000
    outer loop
      vertex   -7.250000e+001 1.225000e+002 3.250000e+001
      vertex   -7.250000e+001 1.225000e+002 2.500000e+000
      vertex   -6.000000e+001 1.225000e+002 1.750000e+001
    endloop
  endfacet
  facet normal 0.000000e+000 -1.000000e+000 -0.000000e+000
    outer loop
      vertex   -6.000000e+001 1.225000e+002 1.750000e+001
      vertex   -7.250000e+001 1.225000e+002 2.500000e+000
      vertex   -4.000000e+001 1.225000e+002 1.750000e+001
    endloop
  endfacet
  facet normal 0.000000e+000 -1.000000e+000 -0.000000e+000
    outer loop
      vertex   -4.000000e+001 1.225000e+002 1.750000e+001
      vertex   -7.250000e+001 1.225000e+002 2.500000e+000
      vertex   -2.750000e+001 1.225000e+002 2.500000e+000
    endloop
  endfacet
  facet normal 0.000000e+000 -1.000000e+000 -0.000000e+000
    outer loop
      vertex   -2.750000e+001 1.225000e+002 3.250000e+001
      vertex   -4.000000e+001 1.225000e+002 1.750000e+001
      vertex   -2.750000e+001 1.225000e+002 2.500000e+000
    endloop
  endfacet
  facet normal -0.000000e+000 -1.000000e+000 -0.000000e+000
    outer loop
      vertex   -2.750000e+001 1.225000e+002 3.250000e+001
      vertex   -4.000000e+001 1.225000e+002 6.250000e+001
      vertex   -4.000000e+001 1.225000e+002 1.750000e+001
    endloop
  endfacet
  facet normal 0.000000e+000 -1.000000e+000 0.000000e+000
    outer loop
      vertex   -2.750000e+001 1.225000e+002 3.250000e+001
      vertex   -2.750000e+001 1.225000e+002 6.250000e+001
      vertex   -4.000000e+001 1.225000e+002 6.250000e+001
    endloop
  endfacet
  facet normal 0.000000e+000 1.000000e+000 0.000000e+000
    outer loop
      vertex   -2.750000e+001 7.750000e+001 6.250000e+001
      vertex   -2.750000e+001 7.750000e+001 3.250000e+001
      vertex   -4.000000e+001 7.750000e+001 6.250000e+001
    endloop
  endfacet
  facet normal 0.000000e+000 1.000000e+000 0.000000e+000
    outer loop
      vertex   -4.000000e+001 7.750000e+001 6.250000e+001
      vertex   -2.750000e+001 7.750000e+001 3.250000e+001
      vertex   -4.000000e+001 7.750000e+001 1.750000e+001
    endloop
  endfacet
  facet normal -0.000000e+000 1.000000e+000 0.000000e+000
    outer loop
      vertex   -4.000000e+001 7.750000e+001 1.750000e+001
      vertex   -2.750000e+001 7.750000e+001 3.250000e+001
      vertex   -2.750000e+001 7.750000e+001 2.500000e+000
    endloop
  endfacet
  facet normal -0.000000e+000 1.000000e+000 0.000000e+000
    outer loop
      vertex   -7.250000e+001 7.750000e+001 2.500000e+000
      vertex   -4.000000e+001 7.750000e+001 1.750000e+001
      vertex   -2.750000e+001 7.750000e+001 2.500000e+000
    endloop
  endfacet
  facet normal 7.105427e-016 1.000000e+000 -1.539509e-015
    outer loop
      vertex   -7.250000e+001 7.750000e+001 2.500000e+000
      vertex   -6.000000e+001 7.750000e+001 1.750000e+001
      vertex   -4.000000e+001 7.750000e+001 1.750000e+001
    endloop
  endfacet
  facet normal -1.136868e-015 1.000000e+000 0.000000e+000
    outer loop
      vertex   -7.250000e+001 7.750000e+001 2.500000e+000
      vertex   -7.250000e+001 7.750000e+001 3.250000e+001
      vertex   -6.000000e+001 7.750000e+001 1.750000e+001
    endloop
  endfacet
  facet normal -7.579123e-016 1.000000e+000 3.157968e-016
    outer loop
      vertex   -6.000000e+001 7.750000e+001 1.750000e+001
      vertex   -7.250000e+001 7.750000e+001 3.250000e+001
      vertex   -6.000000e+001 7.750000e+001 6.250000e+001
    endloop
  endfacet
  facet normal 0.000000e+000 1.000000e+000 -0.000000e+000
    outer loop
      vertex   -6.000000e+001 7.750000e+001 6.250000e+001
      vertex   -7.250000e+001 7.750000e+001 3.250000e+001
      vertex   -7.250000e+001 7.750000e+001 6.250000e+001
    endloop
  endfacet
  facet normal 1.000000e+000 0.000000e+000 0.000000e+000
    outer loop
      vertex   -7.250000e+001 9.000000e+001 6.250000e+001
      vertex   -7.250000e+001 7.750000e+001 3.250000e+001
      vertex   -7.250000e+001 9.000000e+001 1.750000e+001
    endloop
  endfacet
  facet normal 1.000000e+000 0.000000e+000 0.000000e+000
    outer loop
      vertex   -7.250000e+001 9.000000e+001 6.250000e+001
      vertex   -7.250000e+001 7.750000e+001 6.250000e+001
      vertex   -7.250000e+001 7.750000e+001 3.250000e+001
    endloop
  endfacet
  facet normal 1.000000e+000 -0.000000e+000 0.000000e+000
    outer loop
      vertex   -7.250000e+001 7.750000e+001 3.250000e+001
      vertex   -7.250000e+001 7.750000e+001 2.500000e+000
      vertex   -7.250000e+001 9.000000e+001 1.750000e+001
    endloop
  endfacet
  facet normal 1.000000e+000 -0.000000e+000 0.000000e+000
    outer loop
      vertex   -7.250000e+001 9.000000e+001 1.750000e+001
      vertex   -7.250000e+001 7.750000e+001 2.500000e+000
      vertex   -7.250000e+001 1.225000e+002 2.500000e+000
    endloop
  endfacet
  facet normal 1.000000e+000 -0.000000e+000 0.000000e+000
    outer loop
      vertex   -7.250000e+001 1.100000e+002 1.750000e+001
      vertex   -7.250000e+001 1.225000e+002 2.500000e+000
      vertex   -7.250000e+001 1.225000e+002 3.250000e+001
    endloop
  endfacet
  facet normal 1.000000e+000 -0.000000e+000 0.000000e+000
    outer loop
      vertex   -7.250000e+001 1.100000e+002 6.250000e+001
      vertex   -7.250000e+001 1.225000e+002 3.250000e+001
      vertex   -7.250000e+001 1.225000e+002 6.250000e+001
    endloop
  endfacet
  facet normal 1.000000e+000 -0.000000e+000 0.000000e+000
    outer loop
      vertex   -7.250000e+001 1.100000e+002 6.250000e+001
      vertex   -7.250000e+001 1.100000e+002 1.750000e+001
      vertex   -7.250000e+001 1.225000e+002 3.250000e+001
    endloop
  endfacet
  facet normal 1.000000e+000 -0.000000e+000 -0.000000e+000
    outer loop
      vertex   -7.250000e+001 9.000000e+001 1.750000e+001
      vertex   -7.250000e+001 1.225000e+002 2.500000e+000
      vertex   -7.250000e+001 1.100000e+002 1.750000e+001
    endloop
  endfacet
  facet normal -0.000000e+000 0.000000e+000 1.000000e+000
    outer loop
      vertex   -2.750000e+001 9.000000e+001 6.250000e+001
      vertex   -2.750000e+001 7.750000e+001 6.250000e+001
      vertex   -2.500000e+001 9.000000e+001 6.250000e+001
    endloop
  endfacet
  facet normal 0.000000e+000 0.000000e+000 1.000000e+000
    outer loop
      vertex   -2.500000e+001 9.000000e+001 6.250000e+001
      vertex   -2.750000e+001 7.750000e+001 6.250000e+001
      vertex   -2.500000e+001 7.500000e+001 6.250000e+001
    endloop
  endfacet
  facet normal 0.000000e+000 0.000000e+000 1.000000e+000
    outer loop
      vertex   -2.500000e+001 7.500000e+001 6.250000e+001
      vertex   -2.750000e+001 7.750000e+001 6.250000e+001
      vertex   -4.000000e+001 7.500000e+001 6.250000e+001
    endloop
  endfacet
  facet normal 0.000000e+000 -0.000000e+000 1.000000e+000
    outer loop
      vertex   -4.000000e+001 7.500000e+001 6.250000e+001
      vertex   -2.750000e+001 7.750000e+001 6.250000e+001
      vertex   -4.000000e+001 7.750000e+001 6.250000e+001
    endloop
  endfacet
  facet normal 0.000000e+000 3.552714e-017 1.000000e+000
    outer loop
      vertex   -7.250000e+001 1.225000e+002 2.500000e+000
      vertex   -4.000000e+001 1.100000e+002 2.500000e+000
      vertex   -2.750000e+001 1.225000e+002 2.500000e+000
    endloop
  endfacet
  facet normal -0.000000e+000 3.552714e-017 1.000000e+000
    outer loop
      vertex   -7.250000e+001 1.225000e+002 2.500000e+000
      vertex   -6.000000e+001 1.100000e+002 2.500000e+000
      vertex   -4.000000e+001 1.100000e+002 2.500000e+000
    endloop
  endfacet
  facet normal -3.552714e-017 0.000000e+000 1.000000e+000
    outer loop
      vertex   -7.250000e+001 1.225000e+002 2.500000e+000
      vertex   -6.000000e+001 9.000000e+001 2.500000e+000
      vertex   -6.000000e+001 1.100000e+002 2.500000e+000
    endloop
  endfacet
  facet normal -3.552714e-017 0.000000e+000 1.000000e+000
    outer loop
      vertex   -7.250000e+001 1.225000e+002 2.500000e+000
      vertex   -7.250000e+001 7.750000e+001 2.500000e+000
      vertex   -6.000000e+001 9.000000e+001 2.500000e+000
    endloop
  endfacet
  facet normal 0.000000e+000 -3.552714e-017 1.000000e+000
    outer loop
      vertex   -6.000000e+001 9.000000e+001 2.500000e+000
      vertex   -7.250000e+001 7.750000e+001 2.500000e+000
      vertex   -2.750000e+001 7.750000e+001 2.500000e+000
    endloop
  endfacet
  facet normal 3.552714e-017 -0.000000e+000 1.000000e+000
    outer loop
      vertex   -4.000000e+001 9.000000e+001 2.500000e+000
      vertex   -2.750000e+001 7.750000e+001 2.500000e+000
      vertex   -2.750000e+001 1.225000e+002 2.500000e+000
    endloop
  endfacet
  facet normal 3.552714e-017 0.000000e+000 1.000000e+000
    outer loop
      vertex   -4.000000e+001 1.100000e+002 2.500000e+000
      vertex   -4.000000e+001 9.000000e+001 2.500000e+000
      vertex   -2.750000e+001 1.225000e+002 2.500000e+000
    endloop
  endfacet
  facet normal 0.000000e+000 -3.552714e-017 1.000000e+000
    outer loop
      vertex   -6.000000e+001 9.000000e+001 2.500000e+000
      vertex   -2.750000e+001 7.750000e+001 2.500000e+000
      vertex   -4.000000e+001 9.000000e+001 2.500000e+000
    endloop
  endfacet
  facet normal 1.000000e+000 0.000000e+000 0.000000e+000
    outer loop
      vertex   -6.000000e+001 7.750000e+001 1.750000e+001
      vertex   -6.000000e+001 7.750000e+001 6.250000e+001
      vertex   -6.000000e+001 7.500000e+001 1.750000e+001
    endloop
  endfacet
  facet normal 1.000000e+000 0.000000e+000 -0.000000e+000
    outer loop
      vertex   -6.000000e+001 7.500000e+001 1.750000e+001
      vertex   -6.000000e+001 7.750000e+001 6.250000e+001
      vertex   -6.000000e+001 7.500000e+001 6.250000e+001
    endloop
  endfacet
  facet normal 0.000000e+000 0.000000e+000 1.000000e+000
    outer loop
      vertex   -6.000000e+001 7.750000e+001 6.250000e+001
      vertex   -7.250000e+001 7.750000e+001 6.250000e+001
      vertex   -6.000000e+001 7.500000e+001 6.250000e+001
    endloop
  endfacet
  facet normal 0.000000e+000 0.000000e+000 1.000000e+000
    outer loop
      vertex   -6.000000e+001 7.500000e+001 6.250000e+001
      vertex   -7.250000e+001 7.750000e+001 6.250000e+001
      vertex   -7.500000e+001 7.500000e+001 6.250000e+001
    endloop
  endfacet
  facet normal 0.000000e+000 -0.000000e+000 1.000000e+000
    outer loop
      vertex   -7.500000e+001 7.500000e+001 6.250000e+001
      vertex   -7.250000e+001 7.750000e+001 6.250000e+001
      vertex   -7.500000e+001 9.000000e+001 6.250000e+001
    endloop
  endfacet
  facet normal -0.000000e+000 0.000000e+000 1.000000e+000
    outer loop
      vertex   -7.500000e+001 9.000000e+001 6.250000e+001
      vertex   -7.250000e+001 7.750000e+001 6.250000e+001
      vertex   -7.250000e+001 9.000000e+001 6.250000e+001
    endloop
  endfacet
  facet normal -1.000000e+000 0.000000e+000 -1.578984e-016
    outer loop
      vertex   -4.000000e+001 1.225000e+002 1.750000e+001
      vertex   -4.000000e+001 1.225000e+002 6.250000e+001
      vertex   -4.000000e+001 1.250000e+002 1.750000e+001
    endloop
  endfacet
  facet normal -1.000000e+000 0.000000e+000 -1.578984e-016
    outer loop
      vertex   -4.000000e+001 1.250000e+002 1.750000e+001
      vertex   -4.000000e+001 1.225000e+002 6.250000e+001
      vertex   -4.000000e+001 1.250000e+002 6.250000e+001
    endloop
  endfacet
  facet normal -0.000000e+000 -1.000000e+000 -0.000000e+000
    outer loop
      vertex   -2.500000e+001 7.500000e+001 6.250000e+001
      vertex   -4.000000e+001 7.500000e+001 6.250000e+001
      vertex   -2.500000e+001 7.500000e+001 3.125000e+001
    endloop
  endfacet
  facet normal -0.000000e+000 -1.000000e+000 -0.000000e+000
    outer loop
      vertex   -2.500000e+001 7.500000e+001 3.125000e+001
      vertex   -4.000000e+001 7.500000e+001 6.250000e+001
      vertex   -4.000000e+001 7.500000e+001 1.750000e+001
    endloop
  endfacet
  facet normal -0.000000e+000 -1.000000e+000 0.000000e+000
    outer loop
      vertex   -2.500000e+001 7.500000e+001 8.326673e-016
      vertex   -4.000000e+001 7.500000e+001 1.750000e+001
      vertex   -7.500000e+001 7.500000e+001 8.326673e-016
    endloop
  endfacet
  facet normal -0.000000e+000 -1.000000e+000 0.000000e+000
    outer loop
      vertex   -2.500000e+001 7.500000e+001 8.326673e-016
      vertex   -2.500000e+001 7.500000e+001 3.125000e+001
      vertex   -4.000000e+001 7.500000e+001 1.750000e+001
    endloop
  endfacet
  facet normal -7.105427e-016 -1.000000e+000 1.421085e-015
    outer loop
      vertex   -4.000000e+001 7.500000e+001 1.750000e+001
      vertex   -6.000000e+001 7.500000e+001 1.750000e+001
      vertex   -7.500000e+001 7.500000e+001 8.326673e-016
    endloop
  endfacet
  facet normal 9.473903e-016 -1.000000e+000 0.000000e+000
    outer loop
      vertex   -7.500000e+001 7.500000e+001 8.326673e-016
      vertex   -6.000000e+001 7.500000e+001 1.750000e+001
      vertex   -7.500000e+001 7.500000e+001 3.125000e+001
    endloop
  endfacet
  facet normal 6.579099e-016 -1.000000e+000 -3.157968e-016
    outer loop
      vertex   -7.500000e+001 7.500000e+001 3.125000e+001
      vertex   -6.000000e+001 7.500000e+001 1.750000e+001
      vertex   -6.000000e+001 7.500000e+001 6.250000e+001
    endloop
  endfacet
  facet normal 0.000000e+000 -1.000000e+000 0.000000e+000
    outer loop
      vertex   -7.500000e+001 7.500000e+001 6.250000e+001
      vertex   -7.500000e+001 7.500000e+001 3.125000e+001
      vertex   -6.000000e+001 7.500000e+001 6.250000e+001
    endloop
  endfacet
  facet normal -0.000000e+000 -1.000000e+000 0.000000e+000
    outer loop
      vertex   -7.250000e+001 1.100000e+002 1.750000e+001
      vertex   -7.250000e+001 1.100000e+002 6.250000e+001
      vertex   -7.500000e+001 1.100000e+002 1.750000e+001
    endloop
  endfacet
  facet normal 0.000000e+000 -1.000000e+000 0.000000e+000
    outer loop
      vertex   -7.500000e+001 1.100000e+002 1.750000e+001
      vertex   -7.250000e+001 1.100000e+002 6.250000e+001
      vertex   -7.500000e+001 1.100000e+002 6.250000e+001
    endloop
  endfacet
  facet normal 0.000000e+000 -0.000000e+000 1.000000e+000
    outer loop
      vertex   -6.000000e+001 1.225000e+002 6.250000e+001
      vertex   -6.000000e+001 1.250000e+002 6.250000e+001
      vertex   -7.250000e+001 1.225000e+002 6.250000e+001
    endloop
  endfacet
  facet normal 0.000000e+000 -0.000000e+000 1.000000e+000
    outer loop
      vertex   -7.250000e+001 1.225000e+002 6.250000e+001
      vertex   -6.000000e+001 1.250000e+002 6.250000e+001
      vertex   -7.500000e+001 1.250000e+002 6.250000e+001
    endloop
  endfacet
  facet normal 0.000000e+000 -0.000000e+000 1.000000e+000
    outer loop
      vertex   -7.500000e+001 1.100000e+002 6.250000e+001
      vertex   -7.250000e+001 1.225000e+002 6.250000e+001
      vertex   -7.500000e+001 1.250000e+002 6.250000e+001
    endloop
  endfacet
  facet normal 0.000000e+000 0.000000e+000 1.000000e+000
    outer loop
      vertex   -7.500000e+001 1.100000e+002 6.250000e+001
      vertex   -7.250000e+001 1.100000e+002 6.250000e+001
      vertex   -7.250000e+001 1.225000e+002 6.250000e+001
    endloop
  endfacet
  facet normal -0.000000e+000 1.000000e+000 0.000000e+000
    outer loop
      vertex   -2.750000e+001 9.000000e+001 1.750000e+001
      vertex   -2.750000e+001 9.000000e+001 6.250000e+001
      vertex   -2.500000e+001 9.000000e+001 1.750000e+001
    endloop
  endfacet
  facet normal 0.000000e+000 1.000000e+000 -0.000000e+000
    outer loop
      vertex   -2.500000e+001 9.000000e+001 1.750000e+001
      vertex   -2.750000e+001 9.000000e+001 6.250000e+001
      vertex   -2.500000e+001 9.000000e+001 6.250000e+001
    endloop
  endfacet
  facet normal 1.000000e+000 0.000000e+000 0.000000e+000
    outer loop
      vertex   -2.500000e+001 1.250000e+002 6.250000e+001
      vertex   -2.500000e+001 1.100000e+002 6.250000e+001
      vertex   -2.500000e+001 1.250000e+002 3.125000e+001
    endloop
  endfacet
  facet normal 1.000000e+000 0.000000e+000 0.000000e+000
    outer loop
      vertex   -2.500000e+001 1.250000e+002 3.125000e+001
      vertex   -2.500000e+001 1.100000e+002 6.250000e+001
      vertex   -2.500000e+001 1.100000e+002 1.750000e+001
    endloop
  endfacet
  facet normal 1.000000e+000 0.000000e+000 0.000000e+000
    outer loop
      vertex   -2.500000e+001 1.250000e+002 8.326673e-016
      vertex   -2.500000e+001 1.100000e+002 1.750000e+001
      vertex   -2.500000e+001 7.500000e+001 8.326673e-016
    endloop
  endfacet
  facet normal 1.000000e+000 0.000000e+000 -0.000000e+000
    outer loop
      vertex   -2.500000e+001 1.250000e+002 8.326673e-016
      vertex   -2.500000e+001 1.250000e+002 3.125000e+001
      vertex   -2.500000e+001 1.100000e+002 1.750000e+001
    endloop
  endfacet
  facet normal 1.000000e+000 0.000000e+000 0.000000e+000
    outer loop
      vertex   -2.500000e+001 1.100000e+002 1.750000e+001
      vertex   -2.500000e+001 9.000000e+001 1.750000e+001
      vertex   -2.500000e+001 7.500000e+001 8.326673e-016
    endloop
  endfacet
  facet normal 1.000000e+000 0.000000e+000 -0.000000e+000
    outer loop
      vertex   -2.500000e+001 7.500000e+001 8.326673e-016
      vertex   -2.500000e+001 9.000000e+001 1.750000e+001
      vertex   -2.500000e+001 7.500000e+001 3.125000e+001
    endloop
  endfacet
  facet normal 1.000000e+000 -0.000000e+000 0.000000e+000
    outer loop
      vertex   -2.500000e+001 7.500000e+001 3.125000e+001
      vertex   -2.500000e+001 9.000000e+001 1.750000e+001
      vertex   -2.500000e+001 9.000000e+001 6.250000e+001
    endloop
  endfacet
  facet normal 1.000000e+000 -0.000000e+000 0.000000e+000
    outer loop
      vertex   -2.500000e+001 7.500000e+001 6.250000e+001
      vertex   -2.500000e+001 7.500000e+001 3.125000e+001
      vertex   -2.500000e+001 9.000000e+001 6.250000e+001
    endloop
  endfacet
  facet normal 0.000000e+000 -0.000000e+000 1.000000e+000
    outer loop
      vertex   -2.750000e+001 1.100000e+002 6.250000e+001
      vertex   -2.500000e+001 1.100000e+002 6.250000e+001
      vertex   -2.750000e+001 1.225000e+002 6.250000e+001
    endloop
  endfacet
  facet normal -0.000000e+000 0.000000e+000 1.000000e+000
    outer loop
      vertex   -2.750000e+001 1.225000e+002 6.250000e+001
      vertex   -2.500000e+001 1.100000e+002 6.250000e+001
      vertex   -2.500000e+001 1.250000e+002 6.250000e+001
    endloop
  endfacet
  facet normal -0.000000e+000 0.000000e+000 1.000000e+000
    outer loop
      vertex   -4.000000e+001 1.250000e+002 6.250000e+001
      vertex   -2.750000e+001 1.225000e+002 6.250000e+001
      vertex   -2.500000e+001 1.250000e+002 6.250000e+001
    endloop
  endfacet
  facet normal -0.000000e+000 0.000000e+000 1.000000e+000
    outer loop
      vertex   -4.000000e+001 1.250000e+002 6.250000e+001
      vertex   -4.000000e+001 1.225000e+002 6.250000e+001
      vertex   -2.750000e+001 1.225000e+002 6.250000e+001
    endloop
  endfacet
  facet normal -1.000000e+000 0.000000e+000 -0.000000e+000
    outer loop
      vertex   -7.500000e+001 1.100000e+002 6.250000e+001
      vertex   -7.500000e+001 1.250000e+002 3.125000e+001
      vertex   -7.500000e+001 1.100000e+002 1.750000e+001
    endloop
  endfacet
  facet normal -1.000000e+000 0.000000e+000 0.000000e+000
    outer loop
      vertex   -7.500000e+001 1.100000e+002 6.250000e+001
      vertex   -7.500000e+001 1.250000e+002 6.250000e+001
      vertex   -7.500000e+001 1.250000e+002 3.125000e+001
    endloop
  endfacet
  facet normal -1.000000e+000 -0.000000e+000 -0.000000e+000
    outer loop
      vertex   -7.500000e+001 1.250000e+002 3.125000e+001
      vertex   -7.500000e+001 1.250000e+002 8.326673e-016
      vertex   -7.500000e+001 1.100000e+002 1.750000e+001
    endloop
  endfacet
  facet normal -1.000000e+000 -0.000000e+000 -0.000000e+000
    outer loop
      vertex   -7.500000e+001 1.100000e+002 1.750000e+001
      vertex   -7.500000e+001 1.250000e+002 8.326673e-016
      vertex   -7.500000e+001 7.500000e+001 8.326673e-016
    endloop
  endfacet
  facet normal -1.000000e+000 -0.000000e+000 0.000000e+000
    outer loop
      vertex   -7.500000e+001 9.000000e+001 1.750000e+001
      vertex   -7.500000e+001 7.500000e+001 8.326673e-016
      vertex   -7.500000e+001 7.500000e+001 3.125000e+001
    endloop
  endfacet
  facet normal -1.000000e+000 -0.000000e+000 0.000000e+000
    outer loop
      vertex   -7.500000e+001 9.000000e+001 6.250000e+001
      vertex   -7.500000e+001 7.500000e+001 3.125000e+001
      vertex   -7.500000e+001 7.500000e+001 6.250000e+001
    endloop
  endfacet
  facet normal -1.000000e+000 -0.000000e+000 -0.000000e+000
    outer loop
      vertex   -7.500000e+001 9.000000e+001 6.250000e+001
      vertex   -7.500000e+001 9.000000e+001 1.750000e+001
      vertex   -7.500000e+001 7.500000e+001 3.125000e+001
    endloop
  endfacet
  facet normal -1.000000e+000 -0.000000e+000 0.000000e+000
    outer loop
      vertex   -7.500000e+001 1.100000e+002 1.750000e+001
      vertex   -7.500000e+001 7.500000e+001 8.326673e-016
      vertex   -7.500000e+001 9.000000e+001 1.750000e+001
    endloop
  endfacet
  facet normal 0.000000e+000 1.000000e+000 0.000000e+000
    outer loop
      vertex   -4.000000e+001 1.250000e+002 6.250000e+001
      vertex   -2.500000e+001 1.250000e+002 3.125000e+001
      vertex   -4.000000e+001 1.250000e+002 1.750000e+001
    endloop
  endfacet
  facet normal -0.000000e+000 1.000000e+000 0.000000e+000
    outer loop
      vertex   -4.000000e+001 1.250000e+002 6.250000e+001
      vertex   -2.500000e+001 1.250000e+002 6.250000e+001
      vertex   -2.500000e+001 1.250000e+002 3.125000e+001
    endloop
  endfacet
  facet normal 0.000000e+000 1.000000e+000 0.000000e+000
    outer loop
      vertex   -2.500000e+001 1.250000e+002 3.125000e+001
      vertex   -2.500000e+001 1.250000e+002 8.326673e-016
      vertex   -4.000000e+001 1.250000e+002 1.750000e+001
    endloop
  endfacet
  facet normal 0.000000e+000 1.000000e+000 0.000000e+000
    outer loop
      vertex   -4.000000e+001 1.250000e+002 1.750000e+001
      vertex   -2.500000e+001 1.250000e+002 8.326673e-016
      vertex   -7.500000e+001 1.250000e+002 8.326673e-016
    endloop
  endfacet
  facet normal 0.000000e+000 1.000000e+000 -0.000000e+000
    outer loop
      vertex   -6.000000e+001 1.250000e+002 1.750000e+001
      vertex   -7.500000e+001 1.250000e+002 8.326673e-016
      vertex   -7.500000e+001 1.250000e+002 3.125000e+001
    endloop
  endfacet
  facet normal 0.000000e+000 1.000000e+000 -0.000000e+000
    outer loop
      vertex   -6.000000e+001 1.250000e+002 6.250000e+001
      vertex   -7.500000e+001 1.250000e+002 3.125000e+001
      vertex   -7.500000e+001 1.250000e+002 6.250000e+001
    endloop
  endfacet
  facet normal 0.000000e+000 1.000000e+000 0.000000e+000
    outer loop
      vertex   -6.000000e+001 1.250000e+002 6.250000e+001
      vertex   -6.000000e+001 1.250000e+002 1.750000e+001
      vertex   -7.500000e+001 1.250000e+002 3.125000e+001
    endloop
  endfacet
  facet normal 0.000000e+000 1.000000e+000 -0.000000e+000
    outer loop
      vertex   -4.000000e+001 1.250000e+002 1.750000e+001
      vertex   -7.500000e+001 1.250000e+002 8.326673e-016
      vertex   -6.000000e+001 1.250000e+002 1.750000e+001
    endloop
  endfacet
endsolid
