solid ascii
  facet normal 1.000000e+000 0.000000e+000 -0.000000e+000
    outer loop
      vertex   -1.020000e+002 2.080000e+002 2.000000e+000
      vertex   -1.020000e+002 2.080000e+002 2.200000e+001
      vertex   -1.020000e+002 1.780000e+002 2.000000e+000
    endloop
  endfacet
  facet normal 1.000000e+000 0.000000e+000 -0.000000e+000
    outer loop
      vertex   -1.020000e+002 1.780000e+002 2.000000e+000
      vertex   -1.020000e+002 2.080000e+002 2.200000e+001
      vertex   -1.020000e+002 1.780000e+002 2.200000e+001
    endloop
  endfacet
  facet normal 0.000000e+000 1.000000e+000 -0.000000e+000
    outer loop
      vertex   -5.700000e+001 1.780000e+002 2.000000e+000
      vertex   -1.020000e+002 1.780000e+002 2.000000e+000
      vertex   -5.700000e+001 1.780000e+002 2.200000e+001
    endloop
  endfacet
  facet normal 0.000000e+000 1.000000e+000 -0.000000e+000
    outer loop
      vertex   -5.700000e+001 1.780000e+002 2.200000e+001
      vertex   -1.020000e+002 1.780000e+002 2.000000e+000
      vertex   -1.020000e+002 1.780000e+002 2.200000e+001
    endloop
  endfacet
  facet normal 0.000000e+000 1.000000e+000 2.842171e-015
    outer loop
      vertex   -7.450000e+001 1.780000e+002 3.200000e+001
      vertex   -1.020000e+002 1.780000e+002 2.200000e+001
      vertex   -1.290000e+002 1.780000e+002 3.200000e+001
    endloop
  endfacet
  facet normal 0.000000e+000 1.000000e+000 2.842171e-015
    outer loop
      vertex   -7.450000e+001 1.780000e+002 3.200000e+001
      vertex   -5.700000e+001 1.780000e+002 2.200000e+001
      vertex   -1.020000e+002 1.780000e+002 2.200000e+001
    endloop
  endfacet
  facet normal 0.000000e+000 1.000000e+000 2.842171e-015
    outer loop
      vertex   -7.450000e+001 1.780000e+002 3.200000e+001
      vertex   -5.400000e+001 1.780000e+002 2.200000e+001
      vertex   -5.700000e+001 1.780000e+002 2.200000e+001
    endloop
  endfacet
  facet normal -0.000000e+000 1.000000e+000 2.842171e-015
    outer loop
      vertex   -7.450000e+001 1.780000e+002 3.200000e+001
      vertex   -2.000000e+001 1.780000e+002 3.200000e+001
      vertex   -5.400000e+001 1.780000e+002 2.200000e+001
    endloop
  endfacet
  facet normal 1.495880e-015 1.000000e+000 -2.243819e-015
    outer loop
      vertex   -5.400000e+001 1.780000e+002 2.200000e+001
      vertex   -2.000000e+001 1.780000e+002 3.200000e+001
      vertex   -3.500000e+001 1.780000e+002 2.200000e+001
    endloop
  endfacet
  facet normal 1.495880e-015 1.000000e+000 0.000000e+000
    outer loop
      vertex   -3.500000e+001 1.780000e+002 2.000000e+000
      vertex   -5.400000e+001 1.780000e+002 2.200000e+001
      vertex   -3.500000e+001 1.780000e+002 2.200000e+001
    endloop
  endfacet
  facet normal 1.495880e-015 1.000000e+000 -0.000000e+000
    outer loop
      vertex   -3.500000e+001 1.780000e+002 2.000000e+000
      vertex   -5.400000e+001 1.780000e+002 2.000000e+000
      vertex   -5.400000e+001 1.780000e+002 2.200000e+001
    endloop
  endfacet
  facet normal 0.000000e+000 1.000000e+000 2.842171e-015
    outer loop
      vertex   -1.020000e+002 1.780000e+002 2.200000e+001
      vertex   -1.050000e+002 1.780000e+002 2.200000e+001
      vertex   -1.290000e+002 1.780000e+002 3.200000e+001
    endloop
  endfacet
  facet normal -1.184238e-015 1.000000e+000 0.000000e+000
    outer loop
      vertex   -1.290000e+002 1.780000e+002 3.200000e+001
      vertex   -1.050000e+002 1.780000e+002 2.200000e+001
      vertex   -1.290000e+002 1.780000e+002 2.000000e+000
    endloop
  endfacet
  facet normal -1.184238e-015 1.000000e+000 0.000000e+000
    outer loop
      vertex   -1.290000e+002 1.780000e+002 2.000000e+000
      vertex   -1.050000e+002 1.780000e+002 2.200000e+001
      vertex   -1.050000e+002 1.780000e+002 2.000000e+000
    endloop
  endfacet
  facet normal 0.000000e+000 1.000000e+000 0.000000e+000
    outer loop
      vertex   -2.000000e+001 1.780000e+002 3.200000e+001
      vertex   -2.000000e+001 1.780000e+002 2.200000e+001
      vertex   -3.500000e+001 1.780000e+002 2.200000e+001
    endloop
  endfacet
  facet normal 0.000000e+000 -1.000000e+000 0.000000e+000
    outer loop
      vertex   -1.020000e+002 2.080000e+002 2.200000e+001
      vertex   -1.020000e+002 2.080000e+002 2.000000e+000
      vertex   -5.700000e+001 2.080000e+002 2.200000e+001
    endloop
  endfacet
  facet normal 0.000000e+000 -1.000000e+000 -0.000000e+000
    outer loop
      vertex   -5.700000e+001 2.080000e+002 2.200000e+001
      vertex   -1.020000e+002 2.080000e+002 2.000000e+000
      vertex   -5.700000e+001 2.080000e+002 2.000000e+000
    endloop
  endfacet
  facet normal 4.967054e-009 -3.612404e-009 1.000000e+000
    outer loop
      vertex   -1.050000e+002 1.780000e+002 2.000000e+000
      vertex   -1.050000e+002 2.110000e+002 2.000000e+000
      vertex   -1.290000e+002 1.780000e+002 2.000000e+000
    endloop
  endfacet
  facet normal 1.850371e-017 -1.345725e-017 1.000000e+000
    outer loop
      vertex   -1.290000e+002 1.780000e+002 2.000000e+000
      vertex   -1.050000e+002 2.110000e+002 2.000000e+000
      vertex   -1.290000e+002 2.110000e+002 2.000000e+000
    endloop
  endfacet
  facet normal 0.000000e+000 -5.820766e-011 1.000000e+000
    outer loop
      vertex   -1.290000e+002 2.110000e+002 2.000000e+000
      vertex   -1.050000e+002 2.110000e+002 2.000000e+000
      vertex   -7.450000e+001 2.110000e+002 2.000000e+000
    endloop
  endfacet
  facet normal 0.000000e+000 -5.820766e-011 1.000000e+000
    outer loop
      vertex   -7.450000e+001 2.110000e+002 2.000000e+000
      vertex   -1.050000e+002 2.110000e+002 2.000000e+000
      vertex   -5.400000e+001 2.110000e+002 2.000000e+000
    endloop
  endfacet
  facet normal 8.903576e-015 -3.973653e-008 1.000000e+000
    outer loop
      vertex   -2.000000e+001 2.110000e+002 2.000000e+000
      vertex   -5.400000e+001 2.110000e+002 2.000000e+000
      vertex   -5.400000e+001 2.080000e+002 2.000000e+000
    endloop
  endfacet
  facet normal -6.274174e-009 0.000000e+000 1.000000e+000
    outer loop
      vertex   -3.500000e+001 1.930000e+002 2.000000e+000
      vertex   -5.400000e+001 2.080000e+002 2.000000e+000
      vertex   -5.400000e+001 1.780000e+002 2.000000e+000
    endloop
  endfacet
  facet normal -6.274174e-009 0.000000e+000 1.000000e+000
    outer loop
      vertex   -3.500000e+001 1.780000e+002 2.000000e+000
      vertex   -3.500000e+001 1.930000e+002 2.000000e+000
      vertex   -5.400000e+001 1.780000e+002 2.000000e+000
    endloop
  endfacet
  facet normal 0.000000e+000 -3.973653e-008 1.000000e+000
    outer loop
      vertex   -5.400000e+001 2.110000e+002 2.000000e+000
      vertex   -5.400000e+001 2.080000e+002 2.000000e+000
      vertex   -5.400000e+001 2.080000e+002 2.000000e+000
    endloop
  endfacet
  facet normal -3.784422e-009 3.153684e-009 1.000000e+000
    outer loop
      vertex   -2.000000e+001 2.110000e+002 2.000000e+000
      vertex   -5.400000e+001 2.080000e+002 2.000000e+000
      vertex   -3.500000e+001 1.930000e+002 2.000000e+000
    endloop
  endfacet
  facet normal 0.000000e+000 -2.467161e-017 1.000000e+000
    outer loop
      vertex   -2.000000e+001 1.930000e+002 2.000000e+000
      vertex   -2.000000e+001 2.110000e+002 2.000000e+000
      vertex   -3.500000e+001 1.930000e+002 2.000000e+000
    endloop
  endfacet
  facet normal 0.000000e+000 -5.820766e-011 1.000000e+000
    outer loop
      vertex   -2.000000e+001 2.110000e+002 2.000000e+000
      vertex   -7.450000e+001 2.110000e+002 2.000000e+000
      vertex   -5.400000e+001 2.110000e+002 2.000000e+000
    endloop
  endfacet
  facet normal -1.000000e+000 -0.000000e+000 -0.000000e+000
    outer loop
      vertex   -5.700000e+001 2.080000e+002 2.200000e+001
      vertex   -5.700000e+001 2.080000e+002 2.000000e+000
      vertex   -5.700000e+001 1.780000e+002 2.200000e+001
    endloop
  endfacet
  facet normal -1.000000e+000 -0.000000e+000 -0.000000e+000
    outer loop
      vertex   -5.700000e+001 1.780000e+002 2.200000e+001
      vertex   -5.700000e+001 2.080000e+002 2.000000e+000
      vertex   -5.700000e+001 1.780000e+002 2.000000e+000
    endloop
  endfacet
  facet normal -0.000000e+000 1.000000e+000 0.000000e+000
    outer loop
      vertex   -5.400000e+001 2.080000e+002 2.000000e+000
      vertex   -5.400000e+001 2.080000e+002 2.200000e+001
      vertex   -5.400000e+001 2.080000e+002 2.000000e+000
    endloop
  endfacet
  facet normal 0.000000e+000 1.000000e+000 -0.000000e+000
    outer loop
      vertex   -5.400000e+001 2.080000e+002 2.000000e+000
      vertex   -5.400000e+001 2.080000e+002 2.200000e+001
      vertex   -5.400000e+001 2.080000e+002 2.200000e+001
    endloop
  endfacet
  facet normal 1.000000e+000 0.000000e+000 -0.000000e+000
    outer loop
      vertex   -5.400000e+001 2.080000e+002 2.000000e+000
      vertex   -5.400000e+001 2.080000e+002 2.200000e+001
      vertex   -5.400000e+001 1.780000e+002 2.000000e+000
    endloop
  endfacet
  facet normal 1.000000e+000 0.000000e+000 -0.000000e+000
    outer loop
      vertex   -5.400000e+001 1.780000e+002 2.000000e+000
      vertex   -5.400000e+001 2.080000e+002 2.200000e+001
      vertex   -5.400000e+001 1.780000e+002 2.200000e+001
    endloop
  endfacet
  facet normal 1.000000e+000 0.000000e+000 -0.000000e+000
    outer loop
      vertex   -5.400000e+001 2.080000e+002 2.000000e+000
      vertex   -5.400000e+001 2.110000e+002 2.000000e+000
      vertex   -5.400000e+001 2.080000e+002 2.200000e+001
    endloop
  endfacet
  facet normal 1.000000e+000 -0.000000e+000 0.000000e+000
    outer loop
      vertex   -5.400000e+001 2.080000e+002 2.200000e+001
      vertex   -5.400000e+001 2.110000e+002 2.000000e+000
      vertex   -5.400000e+001 2.110000e+002 2.200000e+001
    endloop
  endfacet
  facet normal 0.000000e+000 -3.973643e-008 1.000000e+000
    outer loop
      vertex   -5.700000e+001 2.080000e+002 2.200000e+001
      vertex   -5.400000e+001 2.110000e+002 2.200000e+001
      vertex   -1.020000e+002 2.080000e+002 2.200000e+001
    endloop
  endfacet
  facet normal 1.010553e-013 -3.973653e-008 1.000000e+000
    outer loop
      vertex   -5.700000e+001 2.080000e+002 2.200000e+001
      vertex   -5.400000e+001 2.080000e+002 2.200000e+001
      vertex   -5.400000e+001 2.110000e+002 2.200000e+001
    endloop
  endfacet
  facet normal -0.000000e+000 -0.000000e+000 1.000000e+000
    outer loop
      vertex   -5.700000e+001 2.080000e+002 2.200000e+001
      vertex   -5.400000e+001 1.780000e+002 2.200000e+001
      vertex   -5.400000e+001 2.080000e+002 2.200000e+001
    endloop
  endfacet
  facet normal -0.000000e+000 0.000000e+000 1.000000e+000
    outer loop
      vertex   -5.700000e+001 2.080000e+002 2.200000e+001
      vertex   -5.700000e+001 1.780000e+002 2.200000e+001
      vertex   -5.400000e+001 1.780000e+002 2.200000e+001
    endloop
  endfacet
  facet normal 0.000000e+000 -0.000000e+000 1.000000e+000
    outer loop
      vertex   -5.400000e+001 1.780000e+002 2.200000e+001
      vertex   -5.400000e+001 2.080000e+002 2.200000e+001
      vertex   -5.400000e+001 2.080000e+002 2.200000e+001
    endloop
  endfacet
  facet normal 0.000000e+000 -3.973643e-008 1.000000e+000
    outer loop
      vertex   -5.400000e+001 2.110000e+002 2.200000e+001
      vertex   -1.050000e+002 2.110000e+002 2.200000e+001
      vertex   -1.020000e+002 2.080000e+002 2.200000e+001
    endloop
  endfacet
  facet normal 3.612403e-008 -3.612404e-009 1.000000e+000
    outer loop
      vertex   -1.020000e+002 2.080000e+002 2.200000e+001
      vertex   -1.050000e+002 2.110000e+002 2.200000e+001
      vertex   -1.050000e+002 1.780000e+002 2.200000e+001
    endloop
  endfacet
  facet normal 0.000000e+000 -0.000000e+000 1.000000e+000
    outer loop
      vertex   -1.020000e+002 1.780000e+002 2.200000e+001
      vertex   -1.020000e+002 2.080000e+002 2.200000e+001
      vertex   -1.050000e+002 1.780000e+002 2.200000e+001
    endloop
  endfacet
  facet normal -0.000000e+000 1.000000e+000 0.000000e+000
    outer loop
      vertex   -1.050000e+002 2.110000e+002 2.000000e+000
      vertex   -1.050000e+002 2.110000e+002 2.200000e+001
      vertex   -5.400000e+001 2.110000e+002 2.000000e+000
    endloop
  endfacet
  facet normal 0.000000e+000 1.000000e+000 -0.000000e+000
    outer loop
      vertex   -5.400000e+001 2.110000e+002 2.000000e+000
      vertex   -1.050000e+002 2.110000e+002 2.200000e+001
      vertex   -5.400000e+001 2.110000e+002 2.200000e+001
    endloop
  endfacet
  facet normal -1.000000e+000 -0.000000e+000 -0.000000e+000
    outer loop
      vertex   -1.050000e+002 2.110000e+002 2.200000e+001
      vertex   -1.050000e+002 2.110000e+002 2.000000e+000
      vertex   -1.050000e+002 1.780000e+002 2.200000e+001
    endloop
  endfacet
  facet normal -1.000000e+000 0.000000e+000 -0.000000e+000
    outer loop
      vertex   -1.050000e+002 1.780000e+002 2.200000e+001
      vertex   -1.050000e+002 2.110000e+002 2.000000e+000
      vertex   -1.050000e+002 1.780000e+002 2.000000e+000
    endloop
  endfacet
  facet normal 0.000000e+000 1.000000e+000 0.000000e+000
    outer loop
      vertex   -2.250000e+001 1.805000e+002 2.200000e+001
      vertex   -2.250000e+001 1.805000e+002 2.000000e+000
      vertex   -3.250000e+001 1.805000e+002 2.200000e+001
    endloop
  endfacet
  facet normal 0.000000e+000 1.000000e+000 0.000000e+000
    outer loop
      vertex   -3.250000e+001 1.805000e+002 2.200000e+001
      vertex   -2.250000e+001 1.805000e+002 2.000000e+000
      vertex   -3.250000e+001 1.805000e+002 2.000000e+000
    endloop
  endfacet
  facet normal 1.000000e+000 -0.000000e+000 0.000000e+000
    outer loop
      vertex   -3.250000e+001 1.805000e+002 2.200000e+001
      vertex   -3.250000e+001 1.805000e+002 2.000000e+000
      vertex   -3.250000e+001 1.905000e+002 2.200000e+001
    endloop
  endfacet
  facet normal 1.000000e+000 -0.000000e+000 0.000000e+000
    outer loop
      vertex   -3.250000e+001 1.905000e+002 2.200000e+001
      vertex   -3.250000e+001 1.805000e+002 2.000000e+000
      vertex   -3.250000e+001 1.905000e+002 2.000000e+000
    endloop
  endfacet
  facet normal 0.000000e+000 -1.000000e+000 0.000000e+000
    outer loop
      vertex   -3.250000e+001 1.905000e+002 2.200000e+001
      vertex   -3.250000e+001 1.905000e+002 2.000000e+000
      vertex   -2.250000e+001 1.905000e+002 2.200000e+001
    endloop
  endfacet
  facet normal 0.000000e+000 -1.000000e+000 -0.000000e+000
    outer loop
      vertex   -2.250000e+001 1.905000e+002 2.200000e+001
      vertex   -3.250000e+001 1.905000e+002 2.000000e+000
      vertex   -2.250000e+001 1.905000e+002 2.000000e+000
    endloop
  endfacet
  facet normal -1.000000e+000 -0.000000e+000 -0.000000e+000
    outer loop
      vertex   -2.250000e+001 1.905000e+002 2.200000e+001
      vertex   -2.250000e+001 1.905000e+002 2.000000e+000
      vertex   -2.250000e+001 1.805000e+002 2.200000e+001
    endloop
  endfacet
  facet normal -1.000000e+000 -0.000000e+000 -0.000000e+000
    outer loop
      vertex   -2.250000e+001 1.805000e+002 2.200000e+001
      vertex   -2.250000e+001 1.905000e+002 2.000000e+000
      vertex   -2.250000e+001 1.805000e+002 2.000000e+000
    endloop
  endfacet
  facet normal 0.000000e+000 0.000000e+000 1.000000e+000
    outer loop
      vertex   -2.000000e+001 1.780000e+002 2.200000e+001
      vertex   -3.250000e+001 1.805000e+002 2.200000e+001
      vertex   -3.500000e+001 1.780000e+002 2.200000e+001
    endloop
  endfacet
  facet normal 0.000000e+000 0.000000e+000 1.000000e+000
    outer loop
      vertex   -2.000000e+001 1.780000e+002 2.200000e+001
      vertex   -2.250000e+001 1.805000e+002 2.200000e+001
      vertex   -3.250000e+001 1.805000e+002 2.200000e+001
    endloop
  endfacet
  facet normal 0.000000e+000 0.000000e+000 1.000000e+000
    outer loop
      vertex   -2.000000e+001 1.780000e+002 2.200000e+001
      vertex   -2.250000e+001 1.905000e+002 2.200000e+001
      vertex   -2.250000e+001 1.805000e+002 2.200000e+001
    endloop
  endfacet
  facet normal 0.000000e+000 -0.000000e+000 1.000000e+000
    outer loop
      vertex   -2.000000e+001 1.780000e+002 2.200000e+001
      vertex   -2.000000e+001 1.930000e+002 2.200000e+001
      vertex   -2.250000e+001 1.905000e+002 2.200000e+001
    endloop
  endfacet
  facet normal 0.000000e+000 -0.000000e+000 1.000000e+000
    outer loop
      vertex   -2.250000e+001 1.905000e+002 2.200000e+001
      vertex   -2.000000e+001 1.930000e+002 2.200000e+001
      vertex   -3.500000e+001 1.930000e+002 2.200000e+001
    endloop
  endfacet
  facet normal 0.000000e+000 0.000000e+000 1.000000e+000
    outer loop
      vertex   -3.250000e+001 1.905000e+002 2.200000e+001
      vertex   -3.500000e+001 1.930000e+002 2.200000e+001
      vertex   -3.500000e+001 1.780000e+002 2.200000e+001
    endloop
  endfacet
  facet normal 0.000000e+000 -0.000000e+000 1.000000e+000
    outer loop
      vertex   -3.250000e+001 1.805000e+002 2.200000e+001
      vertex   -3.250000e+001 1.905000e+002 2.200000e+001
      vertex   -3.500000e+001 1.780000e+002 2.200000e+001
    endloop
  endfacet
  facet normal 0.000000e+000 0.000000e+000 1.000000e+000
    outer loop
      vertex   -2.250000e+001 1.905000e+002 2.200000e+001
      vertex   -3.500000e+001 1.930000e+002 2.200000e+001
      vertex   -3.250000e+001 1.905000e+002 2.200000e+001
    endloop
  endfacet
  facet normal -0.000000e+000 1.000000e+000 0.000000e+000
    outer loop
      vertex   -3.500000e+001 1.930000e+002 2.000000e+000
      vertex   -3.500000e+001 1.930000e+002 2.200000e+001
      vertex   -2.000000e+001 1.930000e+002 2.000000e+000
    endloop
  endfacet
  facet normal 0.000000e+000 1.000000e+000 -0.000000e+000
    outer loop
      vertex   -2.000000e+001 1.930000e+002 2.000000e+000
      vertex   -3.500000e+001 1.930000e+002 2.200000e+001
      vertex   -2.000000e+001 1.930000e+002 2.200000e+001
    endloop
  endfacet
  facet normal -1.000000e+000 0.000000e+000 0.000000e+000
    outer loop
      vertex   -3.500000e+001 1.780000e+002 2.000000e+000
      vertex   -3.500000e+001 1.780000e+002 2.200000e+001
      vertex   -3.500000e+001 1.930000e+002 2.000000e+000
    endloop
  endfacet
  facet normal -1.000000e+000 0.000000e+000 0.000000e+000
    outer loop
      vertex   -3.500000e+001 1.930000e+002 2.000000e+000
      vertex   -3.500000e+001 1.780000e+002 2.200000e+001
      vertex   -3.500000e+001 1.930000e+002 2.200000e+001
    endloop
  endfacet
  facet normal 0.000000e+000 -0.000000e+000 1.000000e+000
    outer loop
      vertex   -3.250000e+001 1.805000e+002 2.000000e+000
      vertex   -2.250000e+001 1.805000e+002 2.000000e+000
      vertex   -3.250000e+001 1.905000e+002 2.000000e+000
    endloop
  endfacet
  facet normal -0.000000e+000 0.000000e+000 1.000000e+000
    outer loop
      vertex   -3.250000e+001 1.905000e+002 2.000000e+000
      vertex   -2.250000e+001 1.805000e+002 2.000000e+000
      vertex   -2.250000e+001 1.905000e+002 2.000000e+000
    endloop
  endfacet
  facet normal 0.000000e+000 -3.806479e-017 1.000000e+000
    outer loop
      vertex   -1.290000e+002 1.390000e+002 2.000000e+000
      vertex   -7.450000e+001 1.390000e+002 2.000000e+000
      vertex   -1.290000e+002 1.740000e+002 2.000000e+000
    endloop
  endfacet
  facet normal 0.000000e+000 -3.806479e-017 1.000000e+000
    outer loop
      vertex   -1.290000e+002 1.740000e+002 2.000000e+000
      vertex   -7.450000e+001 1.390000e+002 2.000000e+000
      vertex   -7.450000e+001 1.740000e+002 2.000000e+000
    endloop
  endfacet
  facet normal 0.000000e+000 -3.806479e-017 1.000000e+000
    outer loop
      vertex   -7.450000e+001 1.740000e+002 2.000000e+000
      vertex   -7.450000e+001 1.390000e+002 2.000000e+000
      vertex   -2.000000e+001 1.390000e+002 2.000000e+000
    endloop
  endfacet
  facet normal 0.000000e+000 -3.806479e-017 1.000000e+000
    outer loop
      vertex   -2.000000e+001 1.740000e+002 2.000000e+000
      vertex   -7.450000e+001 1.740000e+002 2.000000e+000
      vertex   -2.000000e+001 1.390000e+002 2.000000e+000
    endloop
  endfacet
  facet normal 0.000000e+000 0.000000e+000 1.000000e+000
    outer loop
      vertex   -2.000000e+001 1.780000e+002 3.200000e+001
      vertex   -7.450000e+001 1.780000e+002 3.200000e+001
      vertex   -2.000000e+001 1.740000e+002 3.200000e+001
    endloop
  endfacet
  facet normal 0.000000e+000 0.000000e+000 1.000000e+000
    outer loop
      vertex   -2.000000e+001 1.740000e+002 3.200000e+001
      vertex   -7.450000e+001 1.780000e+002 3.200000e+001
      vertex   -7.450000e+001 1.740000e+002 3.200000e+001
    endloop
  endfacet
  facet normal 0.000000e+000 -0.000000e+000 1.000000e+000
    outer loop
      vertex   -7.450000e+001 1.740000e+002 3.200000e+001
      vertex   -7.450000e+001 1.780000e+002 3.200000e+001
      vertex   -1.290000e+002 1.780000e+002 3.200000e+001
    endloop
  endfacet
  facet normal 0.000000e+000 -0.000000e+000 1.000000e+000
    outer loop
      vertex   -1.290000e+002 1.740000e+002 3.200000e+001
      vertex   -7.450000e+001 1.740000e+002 3.200000e+001
      vertex   -1.290000e+002 1.780000e+002 3.200000e+001
    endloop
  endfacet
  facet normal -0.000000e+000 -1.000000e+000 0.000000e+000
    outer loop
      vertex   -2.000000e+001 1.740000e+002 2.000000e+000
      vertex   -2.000000e+001 1.740000e+002 3.200000e+001
      vertex   -7.450000e+001 1.740000e+002 2.000000e+000
    endloop
  endfacet
  facet normal 0.000000e+000 -1.000000e+000 0.000000e+000
    outer loop
      vertex   -7.450000e+001 1.740000e+002 2.000000e+000
      vertex   -2.000000e+001 1.740000e+002 3.200000e+001
      vertex   -7.450000e+001 1.740000e+002 3.200000e+001
    endloop
  endfacet
  facet normal 0.000000e+000 -1.000000e+000 0.000000e+000
    outer loop
      vertex   -1.290000e+002 1.740000e+002 2.000000e+000
      vertex   -7.450000e+001 1.740000e+002 3.200000e+001
      vertex   -1.290000e+002 1.740000e+002 3.200000e+001
    endloop
  endfacet
  facet normal 0.000000e+000 -1.000000e+000 0.000000e+000
    outer loop
      vertex   -1.290000e+002 1.740000e+002 2.000000e+000
      vertex   -7.450000e+001 1.740000e+002 2.000000e+000
      vertex   -7.450000e+001 1.740000e+002 3.200000e+001
    endloop
  endfacet
  facet normal 0.000000e+000 1.000000e+000 -0.000000e+000
    outer loop
      vertex   -2.000000e+001 2.110000e+002 0.000000e+000
      vertex   -7.450000e+001 2.110000e+002 0.000000e+000
      vertex   -2.000000e+001 2.110000e+002 2.000000e+000
    endloop
  endfacet
  facet normal 0.000000e+000 1.000000e+000 -0.000000e+000
    outer loop
      vertex   -2.000000e+001 2.110000e+002 2.000000e+000
      vertex   -7.450000e+001 2.110000e+002 0.000000e+000
      vertex   -7.450000e+001 2.110000e+002 2.000000e+000
    endloop
  endfacet
  facet normal 0.000000e+000 1.000000e+000 0.000000e+000
    outer loop
      vertex   -7.450000e+001 2.110000e+002 2.000000e+000
      vertex   -7.450000e+001 2.110000e+002 0.000000e+000
      vertex   -1.290000e+002 2.110000e+002 0.000000e+000
    endloop
  endfacet
  facet normal -0.000000e+000 1.000000e+000 0.000000e+000
    outer loop
      vertex   -1.290000e+002 2.110000e+002 2.000000e+000
      vertex   -7.450000e+001 2.110000e+002 2.000000e+000
      vertex   -1.290000e+002 2.110000e+002 0.000000e+000
    endloop
  endfacet
  facet normal 0.000000e+000 0.000000e+000 -1.000000e+000
    outer loop
      vertex   -7.450000e+001 1.350000e+002 0.000000e+000
      vertex   -1.290000e+002 1.350000e+002 0.000000e+000
      vertex   -7.450000e+001 1.730000e+002 0.000000e+000
    endloop
  endfacet
  facet normal 0.000000e+000 0.000000e+000 -1.000000e+000
    outer loop
      vertex   -2.000000e+001 1.730000e+002 0.000000e+000
      vertex   -7.450000e+001 1.730000e+002 0.000000e+000
      vertex   -2.000000e+001 2.110000e+002 0.000000e+000
    endloop
  endfacet
  facet normal -0.000000e+000 0.000000e+000 -1.000000e+000
    outer loop
      vertex   -2.000000e+001 1.730000e+002 0.000000e+000
      vertex   -7.450000e+001 1.350000e+002 0.000000e+000
      vertex   -7.450000e+001 1.730000e+002 0.000000e+000
    endloop
  endfacet
  facet normal -0.000000e+000 -0.000000e+000 -1.000000e+000
    outer loop
      vertex   -2.000000e+001 1.730000e+002 0.000000e+000
      vertex   -2.000000e+001 1.350000e+002 0.000000e+000
      vertex   -7.450000e+001 1.350000e+002 0.000000e+000
    endloop
  endfacet
  facet normal 0.000000e+000 -0.000000e+000 -1.000000e+000
    outer loop
      vertex   -1.290000e+002 2.110000e+002 0.000000e+000
      vertex   -7.450000e+001 2.110000e+002 0.000000e+000
      vertex   -1.290000e+002 1.730000e+002 0.000000e+000
    endloop
  endfacet
  facet normal 0.000000e+000 0.000000e+000 -1.000000e+000
    outer loop
      vertex   -1.290000e+002 1.730000e+002 0.000000e+000
      vertex   -7.450000e+001 2.110000e+002 0.000000e+000
      vertex   -7.450000e+001 1.730000e+002 0.000000e+000
    endloop
  endfacet
  facet normal 0.000000e+000 0.000000e+000 -1.000000e+000
    outer loop
      vertex   -1.290000e+002 1.350000e+002 0.000000e+000
      vertex   -1.290000e+002 1.730000e+002 0.000000e+000
      vertex   -7.450000e+001 1.730000e+002 0.000000e+000
    endloop
  endfacet
  facet normal 0.000000e+000 -0.000000e+000 -1.000000e+000
    outer loop
      vertex   -7.450000e+001 2.110000e+002 0.000000e+000
      vertex   -2.000000e+001 2.110000e+002 0.000000e+000
      vertex   -7.450000e+001 1.730000e+002 0.000000e+000
    endloop
  endfacet
  facet normal 0.000000e+000 -0.000000e+000 1.000000e+000
    outer loop
      vertex   -1.020000e+002 1.780000e+002 2.000000e+000
      vertex   -5.700000e+001 1.780000e+002 2.000000e+000
      vertex   -1.020000e+002 2.080000e+002 2.000000e+000
    endloop
  endfacet
  facet normal -0.000000e+000 0.000000e+000 1.000000e+000
    outer loop
      vertex   -1.020000e+002 2.080000e+002 2.000000e+000
      vertex   -5.700000e+001 1.780000e+002 2.000000e+000
      vertex   -5.700000e+001 2.080000e+002 2.000000e+000
    endloop
  endfacet
  facet normal -1.000000e+000 0.000000e+000 0.000000e+000
    outer loop
      vertex   -1.290000e+002 1.730000e+002 0.000000e+000
      vertex   -1.290000e+002 1.350000e+002 0.000000e+000
      vertex   -1.290000e+002 1.390000e+002 2.000000e+000
    endloop
  endfacet
  facet normal -1.000000e+000 -0.000000e+000 0.000000e+000
    outer loop
      vertex   -1.290000e+002 1.740000e+002 2.000000e+000
      vertex   -1.290000e+002 1.730000e+002 0.000000e+000
      vertex   -1.290000e+002 1.390000e+002 2.000000e+000
    endloop
  endfacet
  facet normal -1.000000e+000 0.000000e+000 -0.000000e+000
    outer loop
      vertex   -1.290000e+002 1.740000e+002 2.000000e+000
      vertex   -1.290000e+002 1.780000e+002 2.000000e+000
      vertex   -1.290000e+002 1.730000e+002 0.000000e+000
    endloop
  endfacet
  facet normal -1.000000e+000 0.000000e+000 0.000000e+000
    outer loop
      vertex   -1.290000e+002 1.740000e+002 2.000000e+000
      vertex   -1.290000e+002 1.740000e+002 3.200000e+001
      vertex   -1.290000e+002 1.780000e+002 2.000000e+000
    endloop
  endfacet
  facet normal -1.000000e+000 0.000000e+000 0.000000e+000
    outer loop
      vertex   -1.290000e+002 1.780000e+002 2.000000e+000
      vertex   -1.290000e+002 1.740000e+002 3.200000e+001
      vertex   -1.290000e+002 1.780000e+002 3.200000e+001
    endloop
  endfacet
  facet normal -1.000000e+000 -0.000000e+000 -0.000000e+000
    outer loop
      vertex   -1.290000e+002 1.390000e+002 3.200000e+001
      vertex   -1.290000e+002 1.390000e+002 2.000000e+000
      vertex   -1.290000e+002 1.350000e+002 3.200000e+001
    endloop
  endfacet
  facet normal -1.000000e+000 0.000000e+000 -0.000000e+000
    outer loop
      vertex   -1.290000e+002 1.350000e+002 3.200000e+001
      vertex   -1.290000e+002 1.390000e+002 2.000000e+000
      vertex   -1.290000e+002 1.350000e+002 0.000000e+000
    endloop
  endfacet
  facet normal -1.000000e+000 -0.000000e+000 -0.000000e+000
    outer loop
      vertex   -1.290000e+002 2.110000e+002 2.000000e+000
      vertex   -1.290000e+002 2.110000e+002 0.000000e+000
      vertex   -1.290000e+002 1.780000e+002 2.000000e+000
    endloop
  endfacet
  facet normal -1.000000e+000 -0.000000e+000 -0.000000e+000
    outer loop
      vertex   -1.290000e+002 1.780000e+002 2.000000e+000
      vertex   -1.290000e+002 2.110000e+002 0.000000e+000
      vertex   -1.290000e+002 1.730000e+002 0.000000e+000
    endloop
  endfacet
  facet normal 0.000000e+000 0.000000e+000 1.000000e+000
    outer loop
      vertex   -2.000000e+001 1.390000e+002 3.200000e+001
      vertex   -7.450000e+001 1.390000e+002 3.200000e+001
      vertex   -2.000000e+001 1.350000e+002 3.200000e+001
    endloop
  endfacet
  facet normal 0.000000e+000 0.000000e+000 1.000000e+000
    outer loop
      vertex   -2.000000e+001 1.350000e+002 3.200000e+001
      vertex   -7.450000e+001 1.390000e+002 3.200000e+001
      vertex   -7.450000e+001 1.350000e+002 3.200000e+001
    endloop
  endfacet
  facet normal 0.000000e+000 -0.000000e+000 1.000000e+000
    outer loop
      vertex   -7.450000e+001 1.350000e+002 3.200000e+001
      vertex   -7.450000e+001 1.390000e+002 3.200000e+001
      vertex   -1.290000e+002 1.390000e+002 3.200000e+001
    endloop
  endfacet
  facet normal 0.000000e+000 -0.000000e+000 1.000000e+000
    outer loop
      vertex   -1.290000e+002 1.350000e+002 3.200000e+001
      vertex   -7.450000e+001 1.350000e+002 3.200000e+001
      vertex   -1.290000e+002 1.390000e+002 3.200000e+001
    endloop
  endfacet
  facet normal -0.000000e+000 1.000000e+000 0.000000e+000
    outer loop
      vertex   -1.290000e+002 1.390000e+002 2.000000e+000
      vertex   -1.290000e+002 1.390000e+002 3.200000e+001
      vertex   -7.450000e+001 1.390000e+002 2.000000e+000
    endloop
  endfacet
  facet normal 0.000000e+000 1.000000e+000 -0.000000e+000
    outer loop
      vertex   -7.450000e+001 1.390000e+002 2.000000e+000
      vertex   -1.290000e+002 1.390000e+002 3.200000e+001
      vertex   -7.450000e+001 1.390000e+002 3.200000e+001
    endloop
  endfacet
  facet normal 0.000000e+000 1.000000e+000 -0.000000e+000
    outer loop
      vertex   -2.000000e+001 1.390000e+002 2.000000e+000
      vertex   -7.450000e+001 1.390000e+002 3.200000e+001
      vertex   -2.000000e+001 1.390000e+002 3.200000e+001
    endloop
  endfacet
  facet normal 0.000000e+000 1.000000e+000 -0.000000e+000
    outer loop
      vertex   -2.000000e+001 1.390000e+002 2.000000e+000
      vertex   -7.450000e+001 1.390000e+002 2.000000e+000
      vertex   -7.450000e+001 1.390000e+002 3.200000e+001
    endloop
  endfacet
  facet normal -0.000000e+000 -1.000000e+000 0.000000e+000
    outer loop
      vertex   -2.000000e+001 1.350000e+002 0.000000e+000
      vertex   -2.000000e+001 1.350000e+002 3.200000e+001
      vertex   -7.450000e+001 1.350000e+002 0.000000e+000
    endloop
  endfacet
  facet normal 0.000000e+000 -1.000000e+000 0.000000e+000
    outer loop
      vertex   -7.450000e+001 1.350000e+002 0.000000e+000
      vertex   -2.000000e+001 1.350000e+002 3.200000e+001
      vertex   -7.450000e+001 1.350000e+002 3.200000e+001
    endloop
  endfacet
  facet normal 0.000000e+000 -1.000000e+000 0.000000e+000
    outer loop
      vertex   -1.290000e+002 1.350000e+002 0.000000e+000
      vertex   -7.450000e+001 1.350000e+002 3.200000e+001
      vertex   -1.290000e+002 1.350000e+002 3.200000e+001
    endloop
  endfacet
  facet normal 0.000000e+000 -1.000000e+000 0.000000e+000
    outer loop
      vertex   -1.290000e+002 1.350000e+002 0.000000e+000
      vertex   -7.450000e+001 1.350000e+002 0.000000e+000
      vertex   -7.450000e+001 1.350000e+002 3.200000e+001
    endloop
  endfacet
  facet normal 1.000000e+000 0.000000e+000 0.000000e+000
    outer loop
      vertex   -2.000000e+001 1.780000e+002 3.200000e+001
      vertex   -2.000000e+001 1.740000e+002 3.200000e+001
      vertex   -2.000000e+001 1.780000e+002 2.200000e+001
    endloop
  endfacet
  facet normal 1.000000e+000 0.000000e+000 0.000000e+000
    outer loop
      vertex   -2.000000e+001 1.780000e+002 2.200000e+001
      vertex   -2.000000e+001 1.740000e+002 3.200000e+001
      vertex   -2.000000e+001 1.740000e+002 2.000000e+000
    endloop
  endfacet
  facet normal 1.000000e+000 0.000000e+000 0.000000e+000
    outer loop
      vertex   -2.000000e+001 1.930000e+002 2.000000e+000
      vertex   -2.000000e+001 1.740000e+002 2.000000e+000
      vertex   -2.000000e+001 1.730000e+002 0.000000e+000
    endloop
  endfacet
  facet normal 1.000000e+000 0.000000e+000 0.000000e+000
    outer loop
      vertex   -2.000000e+001 2.110000e+002 0.000000e+000
      vertex   -2.000000e+001 1.930000e+002 2.000000e+000
      vertex   -2.000000e+001 1.730000e+002 0.000000e+000
    endloop
  endfacet
  facet normal 1.000000e+000 0.000000e+000 -0.000000e+000
    outer loop
      vertex   -2.000000e+001 2.110000e+002 0.000000e+000
      vertex   -2.000000e+001 2.110000e+002 2.000000e+000
      vertex   -2.000000e+001 1.930000e+002 2.000000e+000
    endloop
  endfacet
  facet normal 1.000000e+000 0.000000e+000 0.000000e+000
    outer loop
      vertex   -2.000000e+001 1.740000e+002 2.000000e+000
      vertex   -2.000000e+001 1.390000e+002 2.000000e+000
      vertex   -2.000000e+001 1.730000e+002 0.000000e+000
    endloop
  endfacet
  facet normal 1.000000e+000 0.000000e+000 0.000000e+000
    outer loop
      vertex   -2.000000e+001 1.730000e+002 0.000000e+000
      vertex   -2.000000e+001 1.390000e+002 2.000000e+000
      vertex   -2.000000e+001 1.350000e+002 0.000000e+000
    endloop
  endfacet
  facet normal 1.000000e+000 0.000000e+000 -0.000000e+000
    outer loop
      vertex   -2.000000e+001 1.350000e+002 0.000000e+000
      vertex   -2.000000e+001 1.390000e+002 2.000000e+000
      vertex   -2.000000e+001 1.350000e+002 3.200000e+001
    endloop
  endfacet
  facet normal 1.000000e+000 -0.000000e+000 0.000000e+000
    outer loop
      vertex   -2.000000e+001 1.350000e+002 3.200000e+001
      vertex   -2.000000e+001 1.390000e+002 2.000000e+000
      vertex   -2.000000e+001 1.390000e+002 3.200000e+001
    endloop
  endfacet
  facet normal 1.000000e+000 0.000000e+000 0.000000e+000
    outer loop
      vertex   -2.000000e+001 1.930000e+002 2.200000e+001
      vertex   -2.000000e+001 1.780000e+002 2.200000e+001
      vertex   -2.000000e+001 1.930000e+002 2.000000e+000
    endloop
  endfacet
  facet normal 1.000000e+000 0.000000e+000 0.000000e+000
    outer loop
      vertex   -2.000000e+001 1.930000e+002 2.000000e+000
      vertex   -2.000000e+001 1.780000e+002 2.200000e+001
      vertex   -2.000000e+001 1.740000e+002 2.000000e+000
    endloop
  endfacet
endsolid
