solid ascii
  facet normal 0.000000e+000 -4.440892e-017 1.000000e+000
    outer loop
      vertex   -3.500000e+001 2.050000e+002 2.000000e+000
      vertex   -5.000000e+001 2.050000e+002 2.000000e+000
      vertex   -3.500000e+001 1.650000e+002 2.000000e+000
    endloop
  endfacet
  facet normal 1.184238e-016 0.000000e+000 1.000000e+000
    outer loop
      vertex   -3.500000e+001 1.650000e+002 2.000000e+000
      vertex   -5.000000e+001 2.050000e+002 2.000000e+000
      vertex   -5.000000e+001 1.650000e+002 2.000000e+000
    endloop
  endfacet
  facet normal -1.184238e-016 -4.440892e-017 1.000000e+000
    outer loop
      vertex   -2.500000e+001 1.650000e+002 2.000000e+000
      vertex   -1.000000e+001 1.650000e+002 2.000000e+000
      vertex   -2.500000e+001 2.050000e+002 2.000000e+000
    endloop
  endfacet
  facet normal -0.000000e+000 0.000000e+000 1.000000e+000
    outer loop
      vertex   -2.500000e+001 2.050000e+002 2.000000e+000
      vertex   -1.000000e+001 1.650000e+002 2.000000e+000
      vertex   -1.000000e+001 2.050000e+002 2.000000e+000
    endloop
  endfacet
  facet normal -0.000000e+000 -1.000000e+000 0.000000e+000
    outer loop
      vertex   -3.500000e+001 1.650000e+002 0.000000e+000
      vertex   -3.500000e+001 1.650000e+002 2.000000e+000
      vertex   -5.000000e+001 1.650000e+002 0.000000e+000
    endloop
  endfacet
  facet normal 0.000000e+000 -1.000000e+000 0.000000e+000
    outer loop
      vertex   -5.000000e+001 1.650000e+002 0.000000e+000
      vertex   -3.500000e+001 1.650000e+002 2.000000e+000
      vertex   -5.000000e+001 1.650000e+002 2.000000e+000
    endloop
  endfacet
  facet normal 0.000000e+000 -1.000000e+000 0.000000e+000
    outer loop
      vertex   -2.500000e+001 1.650000e+002 2.000000e+000
      vertex   -2.500000e+001 1.650000e+002 0.000000e+000
      vertex   -1.000000e+001 1.650000e+002 2.000000e+000
    endloop
  endfacet
  facet normal 0.000000e+000 -1.000000e+000 -0.000000e+000
    outer loop
      vertex   -1.000000e+001 1.650000e+002 2.000000e+000
      vertex   -2.500000e+001 1.650000e+002 0.000000e+000
      vertex   -1.000000e+001 1.650000e+002 0.000000e+000
    endloop
  endfacet
  facet normal -1.000000e+000 -0.000000e+000 -0.000000e+000
    outer loop
      vertex   -5.000000e+001 2.050000e+002 2.000000e+000
      vertex   -5.000000e+001 2.050000e+002 0.000000e+000
      vertex   -5.000000e+001 1.650000e+002 2.000000e+000
    endloop
  endfacet
  facet normal -1.000000e+000 -0.000000e+000 -0.000000e+000
    outer loop
      vertex   -5.000000e+001 1.650000e+002 2.000000e+000
      vertex   -5.000000e+001 2.050000e+002 0.000000e+000
      vertex   -5.000000e+001 1.650000e+002 0.000000e+000
    endloop
  endfacet
  facet normal 1.000000e+000 -0.000000e+000 0.000000e+000
    outer loop
      vertex   -1.000000e+001 1.650000e+002 2.000000e+000
      vertex   -1.000000e+001 1.650000e+002 0.000000e+000
      vertex   -1.000000e+001 2.050000e+002 2.000000e+000
    endloop
  endfacet
  facet normal 1.000000e+000 -0.000000e+000 0.000000e+000
    outer loop
      vertex   -1.000000e+001 2.050000e+002 2.000000e+000
      vertex   -1.000000e+001 1.650000e+002 0.000000e+000
      vertex   -1.000000e+001 2.050000e+002 0.000000e+000
    endloop
  endfacet
  facet normal 2.220446e-016 0.000000e+000 1.000000e+000
    outer loop
      vertex   -3.500000e+001 1.650000e+002 2.000000e+000
      vertex   -3.500000e+001 1.150000e+002 2.000000e+000
      vertex   -3.300000e+001 1.650000e+002 2.000000e+000
    endloop
  endfacet
  facet normal -0.000000e+000 8.881784e-018 1.000000e+000
    outer loop
      vertex   -3.300000e+001 1.650000e+002 2.000000e+000
      vertex   -3.500000e+001 1.150000e+002 2.000000e+000
      vertex   -2.500000e+001 1.150000e+002 2.000000e+000
    endloop
  endfacet
  facet normal -2.220446e-016 0.000000e+000 1.000000e+000
    outer loop
      vertex   -2.700000e+001 1.650000e+002 2.000000e+000
      vertex   -2.500000e+001 1.150000e+002 2.000000e+000
      vertex   -2.500000e+001 1.650000e+002 2.000000e+000
    endloop
  endfacet
  facet normal 0.000000e+000 8.881784e-018 1.000000e+000
    outer loop
      vertex   -2.700000e+001 1.650000e+002 2.000000e+000
      vertex   -3.300000e+001 1.650000e+002 2.000000e+000
      vertex   -2.500000e+001 1.150000e+002 2.000000e+000
    endloop
  endfacet
  facet normal 0.000000e+000 0.000000e+000 1.000000e+000
    outer loop
      vertex   -2.700000e+001 1.650000e+002 2.000000e+000
      vertex   -3.300000e+001 2.050000e+002 2.000000e+000
      vertex   -3.300000e+001 1.650000e+002 2.000000e+000
    endloop
  endfacet
  facet normal 0.000000e+000 -0.000000e+000 1.000000e+000
    outer loop
      vertex   -2.700000e+001 1.650000e+002 2.000000e+000
      vertex   -2.700000e+001 2.050000e+002 2.000000e+000
      vertex   -3.300000e+001 2.050000e+002 2.000000e+000
    endloop
  endfacet
  facet normal 2.220446e-016 0.000000e+000 1.000000e+000
    outer loop
      vertex   -3.500000e+001 6.500000e+001 2.000000e+000
      vertex   -3.300000e+001 6.500000e+001 2.000000e+000
      vertex   -3.500000e+001 1.150000e+002 2.000000e+000
    endloop
  endfacet
  facet normal 0.000000e+000 -8.881784e-018 1.000000e+000
    outer loop
      vertex   -3.500000e+001 1.150000e+002 2.000000e+000
      vertex   -3.300000e+001 6.500000e+001 2.000000e+000
      vertex   -2.700000e+001 6.500000e+001 2.000000e+000
    endloop
  endfacet
  facet normal -2.220446e-016 0.000000e+000 1.000000e+000
    outer loop
      vertex   -2.500000e+001 1.150000e+002 2.000000e+000
      vertex   -2.700000e+001 6.500000e+001 2.000000e+000
      vertex   -2.500000e+001 6.500000e+001 2.000000e+000
    endloop
  endfacet
  facet normal 0.000000e+000 -8.881784e-018 1.000000e+000
    outer loop
      vertex   -2.500000e+001 1.150000e+002 2.000000e+000
      vertex   -3.500000e+001 1.150000e+002 2.000000e+000
      vertex   -2.700000e+001 6.500000e+001 2.000000e+000
    endloop
  endfacet
  facet normal 0.000000e+000 -0.000000e+000 1.000000e+000
    outer loop
      vertex   -3.300000e+001 2.500000e+001 2.000000e+000
      vertex   -2.700000e+001 2.500000e+001 2.000000e+000
      vertex   -3.300000e+001 6.500000e+001 2.000000e+000
    endloop
  endfacet
  facet normal -0.000000e+000 0.000000e+000 1.000000e+000
    outer loop
      vertex   -3.300000e+001 6.500000e+001 2.000000e+000
      vertex   -2.700000e+001 2.500000e+001 2.000000e+000
      vertex   -2.700000e+001 6.500000e+001 2.000000e+000
    endloop
  endfacet
  facet normal 1.000000e+000 0.000000e+000 -0.000000e+000
    outer loop
      vertex   -2.500000e+001 2.050000e+002 2.000000e+000
      vertex   -2.500000e+001 2.050000e+002 2.000000e+001
      vertex   -2.500000e+001 1.650000e+002 2.000000e+000
    endloop
  endfacet
  facet normal 1.000000e+000 0.000000e+000 -0.000000e+000
    outer loop
      vertex   -2.500000e+001 1.650000e+002 2.000000e+000
      vertex   -2.500000e+001 2.050000e+002 2.000000e+001
      vertex   -2.500000e+001 1.650000e+002 2.000000e+001
    endloop
  endfacet
  facet normal -1.000000e+000 0.000000e+000 0.000000e+000
    outer loop
      vertex   -3.500000e+001 1.650000e+002 0.000000e+000
      vertex   -3.500000e+001 1.150000e+002 0.000000e+000
      vertex   -3.500000e+001 1.650000e+002 2.000000e+000
    endloop
  endfacet
  facet normal -1.000000e+000 -0.000000e+000 0.000000e+000
    outer loop
      vertex   -3.500000e+001 1.650000e+002 2.000000e+000
      vertex   -3.500000e+001 1.150000e+002 0.000000e+000
      vertex   -3.500000e+001 1.150000e+002 2.000000e+000
    endloop
  endfacet
  facet normal -1.000000e+000 -0.000000e+000 -0.000000e+000
    outer loop
      vertex   -3.500000e+001 1.150000e+002 2.000000e+000
      vertex   -3.500000e+001 1.150000e+002 0.000000e+000
      vertex   -3.500000e+001 6.500000e+001 0.000000e+000
    endloop
  endfacet
  facet normal -1.000000e+000 0.000000e+000 -0.000000e+000
    outer loop
      vertex   -3.500000e+001 6.500000e+001 2.000000e+000
      vertex   -3.500000e+001 1.150000e+002 2.000000e+000
      vertex   -3.500000e+001 6.500000e+001 0.000000e+000
    endloop
  endfacet
  facet normal -1.000000e+000 0.000000e+000 0.000000e+000
    outer loop
      vertex   -3.500000e+001 1.650000e+002 2.000000e+000
      vertex   -3.500000e+001 1.650000e+002 2.000000e+001
      vertex   -3.500000e+001 2.050000e+002 2.000000e+000
    endloop
  endfacet
  facet normal -1.000000e+000 0.000000e+000 0.000000e+000
    outer loop
      vertex   -3.500000e+001 2.050000e+002 2.000000e+000
      vertex   -3.500000e+001 1.650000e+002 2.000000e+001
      vertex   -3.500000e+001 2.050000e+002 2.000000e+001
    endloop
  endfacet
  facet normal 0.000000e+000 1.000000e+000 0.000000e+000
    outer loop
      vertex   -3.500000e+001 6.500000e+001 2.000000e+000
      vertex   -3.500000e+001 6.500000e+001 0.000000e+000
      vertex   -5.000000e+001 6.500000e+001 2.000000e+000
    endloop
  endfacet
  facet normal 0.000000e+000 1.000000e+000 0.000000e+000
    outer loop
      vertex   -5.000000e+001 6.500000e+001 2.000000e+000
      vertex   -3.500000e+001 6.500000e+001 0.000000e+000
      vertex   -5.000000e+001 6.500000e+001 0.000000e+000
    endloop
  endfacet
  facet normal 1.184238e-016 4.440892e-017 1.000000e+000
    outer loop
      vertex   -3.500000e+001 6.500000e+001 2.000000e+000
      vertex   -5.000000e+001 6.500000e+001 2.000000e+000
      vertex   -3.500000e+001 2.500000e+001 2.000000e+000
    endloop
  endfacet
  facet normal 0.000000e+000 0.000000e+000 1.000000e+000
    outer loop
      vertex   -3.500000e+001 2.500000e+001 2.000000e+000
      vertex   -5.000000e+001 6.500000e+001 2.000000e+000
      vertex   -5.000000e+001 2.500000e+001 2.000000e+000
    endloop
  endfacet
  facet normal -0.000000e+000 4.440892e-017 1.000000e+000
    outer loop
      vertex   -2.500000e+001 2.500000e+001 2.000000e+000
      vertex   -1.000000e+001 2.500000e+001 2.000000e+000
      vertex   -2.500000e+001 6.500000e+001 2.000000e+000
    endloop
  endfacet
  facet normal -1.184238e-016 0.000000e+000 1.000000e+000
    outer loop
      vertex   -2.500000e+001 6.500000e+001 2.000000e+000
      vertex   -1.000000e+001 2.500000e+001 2.000000e+000
      vertex   -1.000000e+001 6.500000e+001 2.000000e+000
    endloop
  endfacet
  facet normal -0.000000e+000 1.000000e+000 0.000000e+000
    outer loop
      vertex   -2.500000e+001 6.500000e+001 0.000000e+000
      vertex   -2.500000e+001 6.500000e+001 2.000000e+000
      vertex   -1.000000e+001 6.500000e+001 0.000000e+000
    endloop
  endfacet
  facet normal 0.000000e+000 1.000000e+000 -0.000000e+000
    outer loop
      vertex   -1.000000e+001 6.500000e+001 0.000000e+000
      vertex   -2.500000e+001 6.500000e+001 2.000000e+000
      vertex   -1.000000e+001 6.500000e+001 2.000000e+000
    endloop
  endfacet
  facet normal -1.000000e+000 0.000000e+000 0.000000e+000
    outer loop
      vertex   -5.000000e+001 2.500000e+001 0.000000e+000
      vertex   -5.000000e+001 2.500000e+001 2.000000e+000
      vertex   -5.000000e+001 6.500000e+001 0.000000e+000
    endloop
  endfacet
  facet normal -1.000000e+000 0.000000e+000 0.000000e+000
    outer loop
      vertex   -5.000000e+001 6.500000e+001 0.000000e+000
      vertex   -5.000000e+001 2.500000e+001 2.000000e+000
      vertex   -5.000000e+001 6.500000e+001 2.000000e+000
    endloop
  endfacet
  facet normal 1.000000e+000 0.000000e+000 -0.000000e+000
    outer loop
      vertex   -1.000000e+001 6.500000e+001 0.000000e+000
      vertex   -1.000000e+001 6.500000e+001 2.000000e+000
      vertex   -1.000000e+001 2.500000e+001 0.000000e+000
    endloop
  endfacet
  facet normal 1.000000e+000 0.000000e+000 -0.000000e+000
    outer loop
      vertex   -1.000000e+001 2.500000e+001 0.000000e+000
      vertex   -1.000000e+001 6.500000e+001 2.000000e+000
      vertex   -1.000000e+001 2.500000e+001 2.000000e+000
    endloop
  endfacet
  facet normal 1.000000e+000 0.000000e+000 0.000000e+000
    outer loop
      vertex   -2.500000e+001 1.650000e+002 2.000000e+000
      vertex   -2.500000e+001 1.150000e+002 2.000000e+000
      vertex   -2.500000e+001 1.650000e+002 0.000000e+000
    endloop
  endfacet
  facet normal 1.000000e+000 0.000000e+000 0.000000e+000
    outer loop
      vertex   -2.500000e+001 1.650000e+002 0.000000e+000
      vertex   -2.500000e+001 1.150000e+002 2.000000e+000
      vertex   -2.500000e+001 1.150000e+002 0.000000e+000
    endloop
  endfacet
  facet normal 1.000000e+000 0.000000e+000 -0.000000e+000
    outer loop
      vertex   -2.500000e+001 1.150000e+002 0.000000e+000
      vertex   -2.500000e+001 1.150000e+002 2.000000e+000
      vertex   -2.500000e+001 6.500000e+001 2.000000e+000
    endloop
  endfacet
  facet normal 1.000000e+000 0.000000e+000 -0.000000e+000
    outer loop
      vertex   -2.500000e+001 6.500000e+001 0.000000e+000
      vertex   -2.500000e+001 1.150000e+002 0.000000e+000
      vertex   -2.500000e+001 6.500000e+001 2.000000e+000
    endloop
  endfacet
  facet normal 1.000000e+000 0.000000e+000 -0.000000e+000
    outer loop
      vertex   -2.500000e+001 6.500000e+001 2.000000e+000
      vertex   -2.500000e+001 6.500000e+001 2.000000e+001
      vertex   -2.500000e+001 2.500000e+001 2.000000e+000
    endloop
  endfacet
  facet normal 1.000000e+000 0.000000e+000 -0.000000e+000
    outer loop
      vertex   -2.500000e+001 2.500000e+001 2.000000e+000
      vertex   -2.500000e+001 6.500000e+001 2.000000e+001
      vertex   -2.500000e+001 2.500000e+001 2.000000e+001
    endloop
  endfacet
  facet normal 0.000000e+000 0.000000e+000 -1.000000e+000
    outer loop
      vertex   -2.500000e+001 1.150000e+002 0.000000e+000
      vertex   -3.500000e+001 1.650000e+002 0.000000e+000
      vertex   -2.500000e+001 1.650000e+002 0.000000e+000
    endloop
  endfacet
  facet normal 0.000000e+000 0.000000e+000 -1.000000e+000
    outer loop
      vertex   -2.500000e+001 1.150000e+002 0.000000e+000
      vertex   -3.500000e+001 1.150000e+002 0.000000e+000
      vertex   -3.500000e+001 1.650000e+002 0.000000e+000
    endloop
  endfacet
  facet normal -0.000000e+000 -0.000000e+000 -1.000000e+000
    outer loop
      vertex   -2.500000e+001 1.150000e+002 0.000000e+000
      vertex   -2.500000e+001 6.500000e+001 0.000000e+000
      vertex   -3.500000e+001 1.150000e+002 0.000000e+000
    endloop
  endfacet
  facet normal -0.000000e+000 -0.000000e+000 -1.000000e+000
    outer loop
      vertex   -3.500000e+001 1.150000e+002 0.000000e+000
      vertex   -2.500000e+001 6.500000e+001 0.000000e+000
      vertex   -3.500000e+001 6.500000e+001 0.000000e+000
    endloop
  endfacet
  facet normal 0.000000e+000 -0.000000e+000 -1.000000e+000
    outer loop
      vertex   -3.500000e+001 6.500000e+001 0.000000e+000
      vertex   -2.500000e+001 6.500000e+001 0.000000e+000
      vertex   -5.000000e+001 2.500000e+001 0.000000e+000
    endloop
  endfacet
  facet normal 0.000000e+000 -0.000000e+000 -1.000000e+000
    outer loop
      vertex   -5.000000e+001 6.500000e+001 0.000000e+000
      vertex   -3.500000e+001 6.500000e+001 0.000000e+000
      vertex   -5.000000e+001 2.500000e+001 0.000000e+000
    endloop
  endfacet
  facet normal -0.000000e+000 -0.000000e+000 -1.000000e+000
    outer loop
      vertex   -1.000000e+001 6.500000e+001 0.000000e+000
      vertex   -1.000000e+001 2.500000e+001 0.000000e+000
      vertex   -2.500000e+001 6.500000e+001 0.000000e+000
    endloop
  endfacet
  facet normal -0.000000e+000 -0.000000e+000 -1.000000e+000
    outer loop
      vertex   -2.500000e+001 6.500000e+001 0.000000e+000
      vertex   -1.000000e+001 2.500000e+001 0.000000e+000
      vertex   -5.000000e+001 2.500000e+001 0.000000e+000
    endloop
  endfacet
  facet normal 0.000000e+000 0.000000e+000 -1.000000e+000
    outer loop
      vertex   -5.000000e+001 1.650000e+002 0.000000e+000
      vertex   -5.000000e+001 2.050000e+002 0.000000e+000
      vertex   -3.500000e+001 1.650000e+002 0.000000e+000
    endloop
  endfacet
  facet normal 0.000000e+000 0.000000e+000 -1.000000e+000
    outer loop
      vertex   -3.500000e+001 1.650000e+002 0.000000e+000
      vertex   -5.000000e+001 2.050000e+002 0.000000e+000
      vertex   -1.000000e+001 2.050000e+002 0.000000e+000
    endloop
  endfacet
  facet normal 0.000000e+000 0.000000e+000 -1.000000e+000
    outer loop
      vertex   -2.500000e+001 1.650000e+002 0.000000e+000
      vertex   -1.000000e+001 2.050000e+002 0.000000e+000
      vertex   -1.000000e+001 1.650000e+002 0.000000e+000
    endloop
  endfacet
  facet normal 0.000000e+000 0.000000e+000 -1.000000e+000
    outer loop
      vertex   -2.500000e+001 1.650000e+002 0.000000e+000
      vertex   -3.500000e+001 1.650000e+002 0.000000e+000
      vertex   -1.000000e+001 2.050000e+002 0.000000e+000
    endloop
  endfacet
  facet normal -0.000000e+000 -1.000000e+000 0.000000e+000
    outer loop
      vertex   -2.500000e+001 1.650000e+002 2.000000e+000
      vertex   -2.500000e+001 1.650000e+002 2.000000e+001
      vertex   -2.700000e+001 1.650000e+002 2.000000e+000
    endloop
  endfacet
  facet normal 0.000000e+000 -1.000000e+000 0.000000e+000
    outer loop
      vertex   -2.700000e+001 1.650000e+002 2.000000e+000
      vertex   -2.500000e+001 1.650000e+002 2.000000e+001
      vertex   -2.700000e+001 1.650000e+002 2.000000e+001
    endloop
  endfacet
  facet normal 1.000000e+000 -0.000000e+000 0.000000e+000
    outer loop
      vertex   -3.300000e+001 1.650000e+002 2.000000e+001
      vertex   -3.300000e+001 1.650000e+002 2.000000e+000
      vertex   -3.300000e+001 2.050000e+002 2.000000e+001
    endloop
  endfacet
  facet normal 1.000000e+000 -0.000000e+000 0.000000e+000
    outer loop
      vertex   -3.300000e+001 2.050000e+002 2.000000e+001
      vertex   -3.300000e+001 1.650000e+002 2.000000e+000
      vertex   -3.300000e+001 2.050000e+002 2.000000e+000
    endloop
  endfacet
  facet normal -1.000000e+000 0.000000e+000 0.000000e+000
    outer loop
      vertex   -2.700000e+001 1.650000e+002 2.000000e+000
      vertex   -2.700000e+001 1.650000e+002 2.000000e+001
      vertex   -2.700000e+001 2.050000e+002 2.000000e+000
    endloop
  endfacet
  facet normal -1.000000e+000 0.000000e+000 0.000000e+000
    outer loop
      vertex   -2.700000e+001 2.050000e+002 2.000000e+000
      vertex   -2.700000e+001 1.650000e+002 2.000000e+001
      vertex   -2.700000e+001 2.050000e+002 2.000000e+001
    endloop
  endfacet
  facet normal 0.000000e+000 1.000000e+000 0.000000e+000
    outer loop
      vertex   -2.700000e+001 2.050000e+002 2.000000e+001
      vertex   -2.500000e+001 2.050000e+002 2.000000e+000
      vertex   -2.700000e+001 2.050000e+002 2.000000e+000
    endloop
  endfacet
  facet normal -0.000000e+000 1.000000e+000 0.000000e+000
    outer loop
      vertex   -2.700000e+001 2.050000e+002 2.000000e+001
      vertex   -2.500000e+001 2.050000e+002 2.000000e+001
      vertex   -2.500000e+001 2.050000e+002 2.000000e+000
    endloop
  endfacet
  facet normal 0.000000e+000 1.000000e+000 0.000000e+000
    outer loop
      vertex   -1.000000e+001 2.050000e+002 2.000000e+000
      vertex   -1.000000e+001 2.050000e+002 0.000000e+000
      vertex   -2.500000e+001 2.050000e+002 2.000000e+000
    endloop
  endfacet
  facet normal 0.000000e+000 1.000000e+000 0.000000e+000
    outer loop
      vertex   -2.500000e+001 2.050000e+002 2.000000e+000
      vertex   -1.000000e+001 2.050000e+002 0.000000e+000
      vertex   -2.700000e+001 2.050000e+002 2.000000e+000
    endloop
  endfacet
  facet normal 0.000000e+000 1.000000e+000 0.000000e+000
    outer loop
      vertex   -2.700000e+001 2.050000e+002 2.000000e+000
      vertex   -1.000000e+001 2.050000e+002 0.000000e+000
      vertex   -5.000000e+001 2.050000e+002 0.000000e+000
    endloop
  endfacet
  facet normal 0.000000e+000 1.000000e+000 -0.000000e+000
    outer loop
      vertex   -3.300000e+001 2.050000e+002 2.000000e+000
      vertex   -5.000000e+001 2.050000e+002 0.000000e+000
      vertex   -3.500000e+001 2.050000e+002 2.000000e+000
    endloop
  endfacet
  facet normal 0.000000e+000 1.000000e+000 0.000000e+000
    outer loop
      vertex   -3.500000e+001 2.050000e+002 2.000000e+001
      vertex   -3.300000e+001 2.050000e+002 2.000000e+000
      vertex   -3.500000e+001 2.050000e+002 2.000000e+000
    endloop
  endfacet
  facet normal -0.000000e+000 1.000000e+000 0.000000e+000
    outer loop
      vertex   -3.500000e+001 2.050000e+002 2.000000e+001
      vertex   -3.300000e+001 2.050000e+002 2.000000e+001
      vertex   -3.300000e+001 2.050000e+002 2.000000e+000
    endloop
  endfacet
  facet normal 0.000000e+000 1.000000e+000 0.000000e+000
    outer loop
      vertex   -5.000000e+001 2.050000e+002 0.000000e+000
      vertex   -5.000000e+001 2.050000e+002 2.000000e+000
      vertex   -3.500000e+001 2.050000e+002 2.000000e+000
    endloop
  endfacet
  facet normal -0.000000e+000 1.000000e+000 0.000000e+000
    outer loop
      vertex   -3.300000e+001 2.050000e+002 2.000000e+000
      vertex   -2.700000e+001 2.050000e+002 2.000000e+000
      vertex   -5.000000e+001 2.050000e+002 0.000000e+000
    endloop
  endfacet
  facet normal 0.000000e+000 -0.000000e+000 1.000000e+000
    outer loop
      vertex   -2.700000e+001 1.650000e+002 2.000000e+001
      vertex   -2.500000e+001 1.650000e+002 2.000000e+001
      vertex   -2.700000e+001 2.050000e+002 2.000000e+001
    endloop
  endfacet
  facet normal -0.000000e+000 0.000000e+000 1.000000e+000
    outer loop
      vertex   -2.700000e+001 2.050000e+002 2.000000e+001
      vertex   -2.500000e+001 1.650000e+002 2.000000e+001
      vertex   -2.500000e+001 2.050000e+002 2.000000e+001
    endloop
  endfacet
  facet normal 0.000000e+000 0.000000e+000 1.000000e+000
    outer loop
      vertex   -3.300000e+001 2.050000e+002 2.000000e+001
      vertex   -3.500000e+001 2.050000e+002 2.000000e+001
      vertex   -3.300000e+001 1.650000e+002 2.000000e+001
    endloop
  endfacet
  facet normal 0.000000e+000 0.000000e+000 1.000000e+000
    outer loop
      vertex   -3.300000e+001 1.650000e+002 2.000000e+001
      vertex   -3.500000e+001 2.050000e+002 2.000000e+001
      vertex   -3.500000e+001 1.650000e+002 2.000000e+001
    endloop
  endfacet
  facet normal -0.000000e+000 -1.000000e+000 0.000000e+000
    outer loop
      vertex   -3.300000e+001 1.650000e+002 2.000000e+000
      vertex   -3.300000e+001 1.650000e+002 2.000000e+001
      vertex   -3.500000e+001 1.650000e+002 2.000000e+000
    endloop
  endfacet
  facet normal 0.000000e+000 -1.000000e+000 0.000000e+000
    outer loop
      vertex   -3.500000e+001 1.650000e+002 2.000000e+000
      vertex   -3.300000e+001 1.650000e+002 2.000000e+001
      vertex   -3.500000e+001 1.650000e+002 2.000000e+001
    endloop
  endfacet
  facet normal -0.000000e+000 1.000000e+000 0.000000e+000
    outer loop
      vertex   -2.700000e+001 6.500000e+001 2.000000e+000
      vertex   -2.700000e+001 6.500000e+001 2.000000e+001
      vertex   -2.500000e+001 6.500000e+001 2.000000e+000
    endloop
  endfacet
  facet normal 0.000000e+000 1.000000e+000 -0.000000e+000
    outer loop
      vertex   -2.500000e+001 6.500000e+001 2.000000e+000
      vertex   -2.700000e+001 6.500000e+001 2.000000e+001
      vertex   -2.500000e+001 6.500000e+001 2.000000e+001
    endloop
  endfacet
  facet normal -0.000000e+000 1.000000e+000 0.000000e+000
    outer loop
      vertex   -3.500000e+001 6.500000e+001 2.000000e+000
      vertex   -3.500000e+001 6.500000e+001 2.000000e+001
      vertex   -3.300000e+001 6.500000e+001 2.000000e+000
    endloop
  endfacet
  facet normal 0.000000e+000 1.000000e+000 -0.000000e+000
    outer loop
      vertex   -3.300000e+001 6.500000e+001 2.000000e+000
      vertex   -3.500000e+001 6.500000e+001 2.000000e+001
      vertex   -3.300000e+001 6.500000e+001 2.000000e+001
    endloop
  endfacet
  facet normal 1.000000e+000 -0.000000e+000 0.000000e+000
    outer loop
      vertex   -3.300000e+001 2.500000e+001 2.000000e+001
      vertex   -3.300000e+001 2.500000e+001 2.000000e+000
      vertex   -3.300000e+001 6.500000e+001 2.000000e+001
    endloop
  endfacet
  facet normal 1.000000e+000 -0.000000e+000 0.000000e+000
    outer loop
      vertex   -3.300000e+001 6.500000e+001 2.000000e+001
      vertex   -3.300000e+001 2.500000e+001 2.000000e+000
      vertex   -3.300000e+001 6.500000e+001 2.000000e+000
    endloop
  endfacet
  facet normal -1.000000e+000 0.000000e+000 0.000000e+000
    outer loop
      vertex   -2.700000e+001 2.500000e+001 2.000000e+000
      vertex   -2.700000e+001 2.500000e+001 2.000000e+001
      vertex   -2.700000e+001 6.500000e+001 2.000000e+000
    endloop
  endfacet
  facet normal -1.000000e+000 0.000000e+000 0.000000e+000
    outer loop
      vertex   -2.700000e+001 6.500000e+001 2.000000e+000
      vertex   -2.700000e+001 2.500000e+001 2.000000e+001
      vertex   -2.700000e+001 6.500000e+001 2.000000e+001
    endloop
  endfacet
  facet normal 0.000000e+000 -0.000000e+000 1.000000e+000
    outer loop
      vertex   -2.700000e+001 2.500000e+001 2.000000e+001
      vertex   -2.500000e+001 2.500000e+001 2.000000e+001
      vertex   -2.700000e+001 6.500000e+001 2.000000e+001
    endloop
  endfacet
  facet normal -0.000000e+000 0.000000e+000 1.000000e+000
    outer loop
      vertex   -2.700000e+001 6.500000e+001 2.000000e+001
      vertex   -2.500000e+001 2.500000e+001 2.000000e+001
      vertex   -2.500000e+001 6.500000e+001 2.000000e+001
    endloop
  endfacet
  facet normal 0.000000e+000 0.000000e+000 1.000000e+000
    outer loop
      vertex   -3.300000e+001 6.500000e+001 2.000000e+001
      vertex   -3.500000e+001 6.500000e+001 2.000000e+001
      vertex   -3.300000e+001 2.500000e+001 2.000000e+001
    endloop
  endfacet
  facet normal 0.000000e+000 0.000000e+000 1.000000e+000
    outer loop
      vertex   -3.300000e+001 2.500000e+001 2.000000e+001
      vertex   -3.500000e+001 6.500000e+001 2.000000e+001
      vertex   -3.500000e+001 2.500000e+001 2.000000e+001
    endloop
  endfacet
  facet normal 0.000000e+000 -1.000000e+000 -0.000000e+000
    outer loop
      vertex   -2.500000e+001 2.500000e+001 2.000000e+001
      vertex   -2.700000e+001 2.500000e+001 2.000000e+000
      vertex   -2.500000e+001 2.500000e+001 2.000000e+000
    endloop
  endfacet
  facet normal -0.000000e+000 -1.000000e+000 -0.000000e+000
    outer loop
      vertex   -2.500000e+001 2.500000e+001 2.000000e+001
      vertex   -2.700000e+001 2.500000e+001 2.000000e+001
      vertex   -2.700000e+001 2.500000e+001 2.000000e+000
    endloop
  endfacet
  facet normal 0.000000e+000 -1.000000e+000 -0.000000e+000
    outer loop
      vertex   -3.300000e+001 2.500000e+001 2.000000e+000
      vertex   -5.000000e+001 2.500000e+001 0.000000e+000
      vertex   -2.700000e+001 2.500000e+001 2.000000e+000
    endloop
  endfacet
  facet normal -0.000000e+000 -1.000000e+000 0.000000e+000
    outer loop
      vertex   -3.300000e+001 2.500000e+001 2.000000e+000
      vertex   -3.500000e+001 2.500000e+001 2.000000e+000
      vertex   -5.000000e+001 2.500000e+001 0.000000e+000
    endloop
  endfacet
  facet normal -0.000000e+000 -1.000000e+000 0.000000e+000
    outer loop
      vertex   -3.300000e+001 2.500000e+001 2.000000e+000
      vertex   -3.300000e+001 2.500000e+001 2.000000e+001
      vertex   -3.500000e+001 2.500000e+001 2.000000e+000
    endloop
  endfacet
  facet normal 0.000000e+000 -1.000000e+000 0.000000e+000
    outer loop
      vertex   -3.500000e+001 2.500000e+001 2.000000e+000
      vertex   -3.300000e+001 2.500000e+001 2.000000e+001
      vertex   -3.500000e+001 2.500000e+001 2.000000e+001
    endloop
  endfacet
  facet normal -0.000000e+000 -1.000000e+000 -0.000000e+000
    outer loop
      vertex   -3.500000e+001 2.500000e+001 2.000000e+000
      vertex   -5.000000e+001 2.500000e+001 2.000000e+000
      vertex   -5.000000e+001 2.500000e+001 0.000000e+000
    endloop
  endfacet
  facet normal 0.000000e+000 -1.000000e+000 0.000000e+000
    outer loop
      vertex   -5.000000e+001 2.500000e+001 0.000000e+000
      vertex   -1.000000e+001 2.500000e+001 0.000000e+000
      vertex   -2.700000e+001 2.500000e+001 2.000000e+000
    endloop
  endfacet
  facet normal 0.000000e+000 -1.000000e+000 0.000000e+000
    outer loop
      vertex   -2.700000e+001 2.500000e+001 2.000000e+000
      vertex   -1.000000e+001 2.500000e+001 0.000000e+000
      vertex   -2.500000e+001 2.500000e+001 2.000000e+000
    endloop
  endfacet
  facet normal 0.000000e+000 -1.000000e+000 0.000000e+000
    outer loop
      vertex   -2.500000e+001 2.500000e+001 2.000000e+000
      vertex   -1.000000e+001 2.500000e+001 0.000000e+000
      vertex   -1.000000e+001 2.500000e+001 2.000000e+000
    endloop
  endfacet
  facet normal -1.000000e+000 0.000000e+000 0.000000e+000
    outer loop
      vertex   -3.500000e+001 2.500000e+001 2.000000e+000
      vertex   -3.500000e+001 2.500000e+001 2.000000e+001
      vertex   -3.500000e+001 6.500000e+001 2.000000e+000
    endloop
  endfacet
  facet normal -1.000000e+000 0.000000e+000 0.000000e+000
    outer loop
      vertex   -3.500000e+001 6.500000e+001 2.000000e+000
      vertex   -3.500000e+001 2.500000e+001 2.000000e+001
      vertex   -3.500000e+001 6.500000e+001 2.000000e+001
    endloop
  endfacet
endsolid
