solid ascii
  facet normal 0.000000e+000 -1.000000e+000 0.000000e+000
    outer loop
      vertex   -6.300000e+001 1.465000e+002 4.000000e+000
      vertex   -6.300000e+001 1.465000e+002 0.000000e+000
      vertex   -5.500000e+001 1.465000e+002 4.000000e+000
    endloop
  endfacet
  facet normal 0.000000e+000 -1.000000e+000 -0.000000e+000
    outer loop
      vertex   -5.500000e+001 1.465000e+002 4.000000e+000
      vertex   -6.300000e+001 1.465000e+002 0.000000e+000
      vertex   -5.500000e+001 1.465000e+002 0.000000e+000
    endloop
  endfacet
  facet normal -1.000000e+000 -0.000000e+000 -0.000000e+000
    outer loop
      vertex   -6.300000e+001 1.505000e+002 4.000000e+000
      vertex   -6.300000e+001 1.505000e+002 0.000000e+000
      vertex   -6.300000e+001 1.465000e+002 4.000000e+000
    endloop
  endfacet
  facet normal -1.000000e+000 -0.000000e+000 -0.000000e+000
    outer loop
      vertex   -6.300000e+001 1.465000e+002 4.000000e+000
      vertex   -6.300000e+001 1.505000e+002 0.000000e+000
      vertex   -6.300000e+001 1.465000e+002 0.000000e+000
    endloop
  endfacet
  facet normal 0.000000e+000 1.000000e+000 0.000000e+000
    outer loop
      vertex   -5.500000e+001 1.505000e+002 4.000000e+000
      vertex   -5.500000e+001 1.505000e+002 0.000000e+000
      vertex   -6.300000e+001 1.505000e+002 4.000000e+000
    endloop
  endfacet
  facet normal 0.000000e+000 1.000000e+000 0.000000e+000
    outer loop
      vertex   -6.300000e+001 1.505000e+002 4.000000e+000
      vertex   -5.500000e+001 1.505000e+002 0.000000e+000
      vertex   -6.300000e+001 1.505000e+002 0.000000e+000
    endloop
  endfacet
  facet normal -1.000000e+000 -0.000000e+000 -0.000000e+000
    outer loop
      vertex   -5.500000e+001 1.465000e+002 4.000000e+000
      vertex   -5.500000e+001 1.465000e+002 0.000000e+000
      vertex   -5.500000e+001 1.155000e+002 4.000000e+000
    endloop
  endfacet
  facet normal -1.000000e+000 -0.000000e+000 -0.000000e+000
    outer loop
      vertex   -5.500000e+001 1.155000e+002 4.000000e+000
      vertex   -5.500000e+001 1.465000e+002 0.000000e+000
      vertex   -5.500000e+001 1.155000e+002 0.000000e+000
    endloop
  endfacet
  facet normal -1.000000e+000 -0.000000e+000 -0.000000e+000
    outer loop
      vertex   -5.500000e+001 8.450000e+001 4.000000e+000
      vertex   -5.500000e+001 1.155000e+002 0.000000e+000
      vertex   -5.500000e+001 8.450000e+001 0.000000e+000
    endloop
  endfacet
  facet normal -1.000000e+000 0.000000e+000 0.000000e+000
    outer loop
      vertex   -5.500000e+001 8.450000e+001 4.000000e+000
      vertex   -5.500000e+001 1.155000e+002 4.000000e+000
      vertex   -5.500000e+001 1.155000e+002 0.000000e+000
    endloop
  endfacet
  facet normal 0.000000e+000 -1.000000e+000 0.000000e+000
    outer loop
      vertex   -6.300000e+001 1.550000e+002 4.000000e+000
      vertex   -6.300000e+001 1.550000e+002 0.000000e+000
      vertex   -5.500000e+001 1.550000e+002 4.000000e+000
    endloop
  endfacet
  facet normal 0.000000e+000 -1.000000e+000 -0.000000e+000
    outer loop
      vertex   -5.500000e+001 1.550000e+002 4.000000e+000
      vertex   -6.300000e+001 1.550000e+002 0.000000e+000
      vertex   -5.500000e+001 1.550000e+002 0.000000e+000
    endloop
  endfacet
  facet normal -1.000000e+000 -0.000000e+000 -0.000000e+000
    outer loop
      vertex   -6.300000e+001 1.590000e+002 4.000000e+000
      vertex   -6.300000e+001 1.590000e+002 0.000000e+000
      vertex   -6.300000e+001 1.550000e+002 4.000000e+000
    endloop
  endfacet
  facet normal -1.000000e+000 -0.000000e+000 -0.000000e+000
    outer loop
      vertex   -6.300000e+001 1.550000e+002 4.000000e+000
      vertex   -6.300000e+001 1.590000e+002 0.000000e+000
      vertex   -6.300000e+001 1.550000e+002 0.000000e+000
    endloop
  endfacet
  facet normal -1.000000e+000 0.000000e+000 0.000000e+000
    outer loop
      vertex   -5.500000e+001 1.505000e+002 0.000000e+000
      vertex   -5.500000e+001 1.505000e+002 4.000000e+000
      vertex   -5.500000e+001 1.550000e+002 0.000000e+000
    endloop
  endfacet
  facet normal -1.000000e+000 0.000000e+000 0.000000e+000
    outer loop
      vertex   -5.500000e+001 1.550000e+002 0.000000e+000
      vertex   -5.500000e+001 1.505000e+002 4.000000e+000
      vertex   -5.500000e+001 1.550000e+002 4.000000e+000
    endloop
  endfacet
  facet normal 0.000000e+000 -1.000000e+000 0.000000e+000
    outer loop
      vertex   -6.300000e+001 8.050000e+001 4.000000e+000
      vertex   -6.300000e+001 8.050000e+001 0.000000e+000
      vertex   -5.500000e+001 8.050000e+001 4.000000e+000
    endloop
  endfacet
  facet normal 0.000000e+000 -1.000000e+000 -0.000000e+000
    outer loop
      vertex   -5.500000e+001 8.050000e+001 4.000000e+000
      vertex   -6.300000e+001 8.050000e+001 0.000000e+000
      vertex   -5.500000e+001 8.050000e+001 0.000000e+000
    endloop
  endfacet
  facet normal -1.000000e+000 -0.000000e+000 -0.000000e+000
    outer loop
      vertex   -6.300000e+001 8.450000e+001 4.000000e+000
      vertex   -6.300000e+001 8.450000e+001 0.000000e+000
      vertex   -6.300000e+001 8.050000e+001 4.000000e+000
    endloop
  endfacet
  facet normal -1.000000e+000 -0.000000e+000 -0.000000e+000
    outer loop
      vertex   -6.300000e+001 8.050000e+001 4.000000e+000
      vertex   -6.300000e+001 8.450000e+001 0.000000e+000
      vertex   -6.300000e+001 8.050000e+001 0.000000e+000
    endloop
  endfacet
  facet normal 0.000000e+000 1.000000e+000 0.000000e+000
    outer loop
      vertex   -5.500000e+001 8.450000e+001 4.000000e+000
      vertex   -5.500000e+001 8.450000e+001 0.000000e+000
      vertex   -6.300000e+001 8.450000e+001 4.000000e+000
    endloop
  endfacet
  facet normal 0.000000e+000 1.000000e+000 0.000000e+000
    outer loop
      vertex   -6.300000e+001 8.450000e+001 4.000000e+000
      vertex   -5.500000e+001 8.450000e+001 0.000000e+000
      vertex   -6.300000e+001 8.450000e+001 0.000000e+000
    endloop
  endfacet
  facet normal -1.000000e+000 -0.000000e+000 -0.000000e+000
    outer loop
      vertex   -5.500000e+001 8.050000e+001 4.000000e+000
      vertex   -5.500000e+001 8.050000e+001 0.000000e+000
      vertex   -5.500000e+001 7.600000e+001 4.000000e+000
    endloop
  endfacet
  facet normal -1.000000e+000 -0.000000e+000 -0.000000e+000
    outer loop
      vertex   -5.500000e+001 7.600000e+001 4.000000e+000
      vertex   -5.500000e+001 8.050000e+001 0.000000e+000
      vertex   -5.500000e+001 7.600000e+001 0.000000e+000
    endloop
  endfacet
  facet normal -1.000000e+000 -0.000000e+000 -0.000000e+000
    outer loop
      vertex   -6.300000e+001 7.600000e+001 4.000000e+000
      vertex   -6.300000e+001 7.600000e+001 0.000000e+000
      vertex   -6.300000e+001 7.200000e+001 4.000000e+000
    endloop
  endfacet
  facet normal -1.000000e+000 -0.000000e+000 -0.000000e+000
    outer loop
      vertex   -6.300000e+001 7.200000e+001 4.000000e+000
      vertex   -6.300000e+001 7.600000e+001 0.000000e+000
      vertex   -6.300000e+001 7.200000e+001 0.000000e+000
    endloop
  endfacet
  facet normal 0.000000e+000 1.000000e+000 0.000000e+000
    outer loop
      vertex   -5.500000e+001 7.600000e+001 4.000000e+000
      vertex   -5.500000e+001 7.600000e+001 0.000000e+000
      vertex   -6.300000e+001 7.600000e+001 4.000000e+000
    endloop
  endfacet
  facet normal 0.000000e+000 1.000000e+000 0.000000e+000
    outer loop
      vertex   -6.300000e+001 7.600000e+001 4.000000e+000
      vertex   -5.500000e+001 7.600000e+001 0.000000e+000
      vertex   -6.300000e+001 7.600000e+001 0.000000e+000
    endloop
  endfacet
  facet normal 0.000000e+000 1.000000e+000 0.000000e+000
    outer loop
      vertex   -4.500000e+001 1.590000e+002 4.000000e+000
      vertex   -4.500000e+001 1.590000e+002 0.000000e+000
      vertex   -6.300000e+001 1.590000e+002 4.000000e+000
    endloop
  endfacet
  facet normal 0.000000e+000 1.000000e+000 0.000000e+000
    outer loop
      vertex   -6.300000e+001 1.590000e+002 4.000000e+000
      vertex   -4.500000e+001 1.590000e+002 0.000000e+000
      vertex   -6.300000e+001 1.590000e+002 0.000000e+000
    endloop
  endfacet
  facet normal 0.000000e+000 0.000000e+000 1.000000e+000
    outer loop
      vertex   -4.500000e+001 1.155000e+002 4.000000e+000
      vertex   -5.500000e+001 8.450000e+001 4.000000e+000
      vertex   -4.500000e+001 7.200000e+001 4.000000e+000
    endloop
  endfacet
  facet normal 0.000000e+000 0.000000e+000 1.000000e+000
    outer loop
      vertex   -4.500000e+001 1.155000e+002 4.000000e+000
      vertex   -5.500000e+001 1.155000e+002 4.000000e+000
      vertex   -5.500000e+001 8.450000e+001 4.000000e+000
    endloop
  endfacet
  facet normal 0.000000e+000 0.000000e+000 1.000000e+000
    outer loop
      vertex   -4.500000e+001 1.155000e+002 4.000000e+000
      vertex   -5.500000e+001 1.465000e+002 4.000000e+000
      vertex   -5.500000e+001 1.155000e+002 4.000000e+000
    endloop
  endfacet
  facet normal 0.000000e+000 -0.000000e+000 1.000000e+000
    outer loop
      vertex   -4.500000e+001 1.155000e+002 4.000000e+000
      vertex   -4.500000e+001 1.590000e+002 4.000000e+000
      vertex   -5.500000e+001 1.465000e+002 4.000000e+000
    endloop
  endfacet
  facet normal 0.000000e+000 -0.000000e+000 1.000000e+000
    outer loop
      vertex   -5.500000e+001 1.465000e+002 4.000000e+000
      vertex   -4.500000e+001 1.590000e+002 4.000000e+000
      vertex   -5.500000e+001 1.505000e+002 4.000000e+000
    endloop
  endfacet
  facet normal -0.000000e+000 0.000000e+000 1.000000e+000
    outer loop
      vertex   -6.300000e+001 1.505000e+002 4.000000e+000
      vertex   -5.500000e+001 1.465000e+002 4.000000e+000
      vertex   -5.500000e+001 1.505000e+002 4.000000e+000
    endloop
  endfacet
  facet normal -0.000000e+000 0.000000e+000 1.000000e+000
    outer loop
      vertex   -6.300000e+001 1.505000e+002 4.000000e+000
      vertex   -6.300000e+001 1.465000e+002 4.000000e+000
      vertex   -5.500000e+001 1.465000e+002 4.000000e+000
    endloop
  endfacet
  facet normal 0.000000e+000 -0.000000e+000 1.000000e+000
    outer loop
      vertex   -5.500000e+001 1.505000e+002 4.000000e+000
      vertex   -4.500000e+001 1.590000e+002 4.000000e+000
      vertex   -5.500000e+001 1.550000e+002 4.000000e+000
    endloop
  endfacet
  facet normal 0.000000e+000 -0.000000e+000 1.000000e+000
    outer loop
      vertex   -5.500000e+001 1.550000e+002 4.000000e+000
      vertex   -4.500000e+001 1.590000e+002 4.000000e+000
      vertex   -6.300000e+001 1.590000e+002 4.000000e+000
    endloop
  endfacet
  facet normal 0.000000e+000 -0.000000e+000 1.000000e+000
    outer loop
      vertex   -6.300000e+001 1.550000e+002 4.000000e+000
      vertex   -5.500000e+001 1.550000e+002 4.000000e+000
      vertex   -6.300000e+001 1.590000e+002 4.000000e+000
    endloop
  endfacet
  facet normal 0.000000e+000 0.000000e+000 1.000000e+000
    outer loop
      vertex   -4.500000e+001 7.200000e+001 4.000000e+000
      vertex   -5.500000e+001 8.450000e+001 4.000000e+000
      vertex   -5.500000e+001 8.050000e+001 4.000000e+000
    endloop
  endfacet
  facet normal -0.000000e+000 -0.000000e+000 1.000000e+000
    outer loop
      vertex   -5.500000e+001 7.600000e+001 4.000000e+000
      vertex   -4.500000e+001 7.200000e+001 4.000000e+000
      vertex   -5.500000e+001 8.050000e+001 4.000000e+000
    endloop
  endfacet
  facet normal -0.000000e+000 0.000000e+000 1.000000e+000
    outer loop
      vertex   -5.500000e+001 7.600000e+001 4.000000e+000
      vertex   -6.300000e+001 7.200000e+001 4.000000e+000
      vertex   -4.500000e+001 7.200000e+001 4.000000e+000
    endloop
  endfacet
  facet normal 0.000000e+000 0.000000e+000 1.000000e+000
    outer loop
      vertex   -5.500000e+001 7.600000e+001 4.000000e+000
      vertex   -6.300000e+001 7.600000e+001 4.000000e+000
      vertex   -6.300000e+001 7.200000e+001 4.000000e+000
    endloop
  endfacet
  facet normal 0.000000e+000 -0.000000e+000 1.000000e+000
    outer loop
      vertex   -6.300000e+001 8.050000e+001 4.000000e+000
      vertex   -5.500000e+001 8.050000e+001 4.000000e+000
      vertex   -6.300000e+001 8.450000e+001 4.000000e+000
    endloop
  endfacet
  facet normal -0.000000e+000 0.000000e+000 1.000000e+000
    outer loop
      vertex   -6.300000e+001 8.450000e+001 4.000000e+000
      vertex   -5.500000e+001 8.050000e+001 4.000000e+000
      vertex   -5.500000e+001 8.450000e+001 4.000000e+000
    endloop
  endfacet
  facet normal 0.000000e+000 0.000000e+000 -1.000000e+000
    outer loop
      vertex   -4.500000e+001 1.155000e+002 0.000000e+000
      vertex   -5.500000e+001 1.465000e+002 0.000000e+000
      vertex   -4.500000e+001 1.590000e+002 0.000000e+000
    endloop
  endfacet
  facet normal 0.000000e+000 0.000000e+000 -1.000000e+000
    outer loop
      vertex   -4.500000e+001 1.155000e+002 0.000000e+000
      vertex   -5.500000e+001 1.155000e+002 0.000000e+000
      vertex   -5.500000e+001 1.465000e+002 0.000000e+000
    endloop
  endfacet
  facet normal -0.000000e+000 0.000000e+000 -1.000000e+000
    outer loop
      vertex   -4.500000e+001 1.155000e+002 0.000000e+000
      vertex   -5.500000e+001 8.450000e+001 0.000000e+000
      vertex   -5.500000e+001 1.155000e+002 0.000000e+000
    endloop
  endfacet
  facet normal -0.000000e+000 -0.000000e+000 -1.000000e+000
    outer loop
      vertex   -4.500000e+001 1.155000e+002 0.000000e+000
      vertex   -4.500000e+001 7.200000e+001 0.000000e+000
      vertex   -5.500000e+001 8.450000e+001 0.000000e+000
    endloop
  endfacet
  facet normal -0.000000e+000 -0.000000e+000 -1.000000e+000
    outer loop
      vertex   -5.500000e+001 8.450000e+001 0.000000e+000
      vertex   -4.500000e+001 7.200000e+001 0.000000e+000
      vertex   -5.500000e+001 8.050000e+001 0.000000e+000
    endloop
  endfacet
  facet normal 0.000000e+000 0.000000e+000 -1.000000e+000
    outer loop
      vertex   -6.300000e+001 8.050000e+001 0.000000e+000
      vertex   -5.500000e+001 8.450000e+001 0.000000e+000
      vertex   -5.500000e+001 8.050000e+001 0.000000e+000
    endloop
  endfacet
  facet normal 0.000000e+000 0.000000e+000 -1.000000e+000
    outer loop
      vertex   -6.300000e+001 8.050000e+001 0.000000e+000
      vertex   -6.300000e+001 8.450000e+001 0.000000e+000
      vertex   -5.500000e+001 8.450000e+001 0.000000e+000
    endloop
  endfacet
  facet normal -0.000000e+000 -0.000000e+000 -1.000000e+000
    outer loop
      vertex   -5.500000e+001 8.050000e+001 0.000000e+000
      vertex   -4.500000e+001 7.200000e+001 0.000000e+000
      vertex   -5.500000e+001 7.600000e+001 0.000000e+000
    endloop
  endfacet
  facet normal -0.000000e+000 -0.000000e+000 -1.000000e+000
    outer loop
      vertex   -5.500000e+001 7.600000e+001 0.000000e+000
      vertex   -4.500000e+001 7.200000e+001 0.000000e+000
      vertex   -6.300000e+001 7.200000e+001 0.000000e+000
    endloop
  endfacet
  facet normal 0.000000e+000 -0.000000e+000 -1.000000e+000
    outer loop
      vertex   -6.300000e+001 7.600000e+001 0.000000e+000
      vertex   -5.500000e+001 7.600000e+001 0.000000e+000
      vertex   -6.300000e+001 7.200000e+001 0.000000e+000
    endloop
  endfacet
  facet normal -0.000000e+000 0.000000e+000 -1.000000e+000
    outer loop
      vertex   -4.500000e+001 1.590000e+002 0.000000e+000
      vertex   -5.500000e+001 1.465000e+002 0.000000e+000
      vertex   -5.500000e+001 1.505000e+002 0.000000e+000
    endloop
  endfacet
  facet normal 0.000000e+000 -0.000000e+000 -1.000000e+000
    outer loop
      vertex   -5.500000e+001 1.550000e+002 0.000000e+000
      vertex   -4.500000e+001 1.590000e+002 0.000000e+000
      vertex   -5.500000e+001 1.505000e+002 0.000000e+000
    endloop
  endfacet
  facet normal 0.000000e+000 0.000000e+000 -1.000000e+000
    outer loop
      vertex   -5.500000e+001 1.550000e+002 0.000000e+000
      vertex   -6.300000e+001 1.590000e+002 0.000000e+000
      vertex   -4.500000e+001 1.590000e+002 0.000000e+000
    endloop
  endfacet
  facet normal 0.000000e+000 0.000000e+000 -1.000000e+000
    outer loop
      vertex   -5.500000e+001 1.550000e+002 0.000000e+000
      vertex   -6.300000e+001 1.550000e+002 0.000000e+000
      vertex   -6.300000e+001 1.590000e+002 0.000000e+000
    endloop
  endfacet
  facet normal 0.000000e+000 -0.000000e+000 -1.000000e+000
    outer loop
      vertex   -6.300000e+001 1.505000e+002 0.000000e+000
      vertex   -5.500000e+001 1.505000e+002 0.000000e+000
      vertex   -6.300000e+001 1.465000e+002 0.000000e+000
    endloop
  endfacet
  facet normal 0.000000e+000 0.000000e+000 -1.000000e+000
    outer loop
      vertex   -6.300000e+001 1.465000e+002 0.000000e+000
      vertex   -5.500000e+001 1.505000e+002 0.000000e+000
      vertex   -5.500000e+001 1.465000e+002 0.000000e+000
    endloop
  endfacet
  facet normal -0.000000e+000 -1.000000e+000 0.000000e+000
    outer loop
      vertex   -4.500000e+001 7.200000e+001 0.000000e+000
      vertex   -4.500000e+001 7.200000e+001 4.000000e+000
      vertex   -6.300000e+001 7.200000e+001 0.000000e+000
    endloop
  endfacet
  facet normal 0.000000e+000 -1.000000e+000 0.000000e+000
    outer loop
      vertex   -6.300000e+001 7.200000e+001 0.000000e+000
      vertex   -4.500000e+001 7.200000e+001 4.000000e+000
      vertex   -6.300000e+001 7.200000e+001 4.000000e+000
    endloop
  endfacet
  facet normal 1.000000e+000 -0.000000e+000 0.000000e+000
    outer loop
      vertex   -4.500000e+001 7.200000e+001 4.000000e+000
      vertex   -4.500000e+001 7.200000e+001 0.000000e+000
      vertex   -4.500000e+001 1.155000e+002 4.000000e+000
    endloop
  endfacet
  facet normal 1.000000e+000 -0.000000e+000 0.000000e+000
    outer loop
      vertex   -4.500000e+001 1.155000e+002 4.000000e+000
      vertex   -4.500000e+001 7.200000e+001 0.000000e+000
      vertex   -4.500000e+001 1.155000e+002 0.000000e+000
    endloop
  endfacet
  facet normal 1.000000e+000 -0.000000e+000 0.000000e+000
    outer loop
      vertex   -4.500000e+001 1.590000e+002 4.000000e+000
      vertex   -4.500000e+001 1.155000e+002 0.000000e+000
      vertex   -4.500000e+001 1.590000e+002 0.000000e+000
    endloop
  endfacet
  facet normal 1.000000e+000 0.000000e+000 0.000000e+000
    outer loop
      vertex   -4.500000e+001 1.590000e+002 4.000000e+000
      vertex   -4.500000e+001 1.155000e+002 4.000000e+000
      vertex   -4.500000e+001 1.155000e+002 0.000000e+000
    endloop
  endfacet
endsolid
