solid ascii
  facet normal -7.071068e-001 -7.071068e-001 -0.000000e+000
    outer loop
      vertex   -5.471802e+001 6.500000e+001 4.000000e+000
      vertex   -5.471802e+001 6.500000e+001 0.000000e+000
      vertex   -4.871662e+001 5.899860e+001 4.000000e+000
    endloop
  endfacet
  facet normal -7.071068e-001 -7.071068e-001 0.000000e+000
    outer loop
      vertex   -4.871662e+001 5.899860e+001 4.000000e+000
      vertex   -5.471802e+001 6.500000e+001 0.000000e+000
      vertex   -4.871662e+001 5.899860e+001 2.220446e-015
    endloop
  endfacet
  facet normal -7.071068e-001 7.071068e-001 0.000000e+000
    outer loop
      vertex   -4.871662e+001 5.899860e+001 4.000000e+000
      vertex   -4.871662e+001 5.899860e+001 2.220446e-015
      vertex   -5.189860e+001 5.581662e+001 4.000000e+000
    endloop
  endfacet
  facet normal -7.071068e-001 7.071068e-001 -1.282924e-015
    outer loop
      vertex   -5.189860e+001 5.581662e+001 4.000000e+000
      vertex   -4.871662e+001 5.899860e+001 2.220446e-015
      vertex   -5.189860e+001 5.581662e+001 2.220446e-015
    endloop
  endfacet
  facet normal 7.071068e-001 7.071068e-001 -0.000000e+000
    outer loop
      vertex   -6.108198e+001 6.500000e+001 2.220446e-015
      vertex   -6.108198e+001 6.500000e+001 4.000000e+000
      vertex   -5.189860e+001 5.581662e+001 2.220446e-015
    endloop
  endfacet
  facet normal 7.071068e-001 7.071068e-001 1.367769e-015
    outer loop
      vertex   -5.189860e+001 5.581662e+001 2.220446e-015
      vertex   -6.108198e+001 6.500000e+001 4.000000e+000
      vertex   -5.189860e+001 5.581662e+001 4.000000e+000
    endloop
  endfacet
  facet normal -0.000000e+000 0.000000e+000 1.000000e+000
    outer loop
      vertex   -5.471802e+001 6.500000e+001 4.000000e+000
      vertex   -4.871662e+001 5.899860e+001 4.000000e+000
      vertex   -3.500000e+001 6.500000e+001 4.000000e+000
    endloop
  endfacet
  facet normal 0.000000e+000 0.000000e+000 1.000000e+000
    outer loop
      vertex   -3.500000e+001 6.500000e+001 4.000000e+000
      vertex   -4.871662e+001 5.899860e+001 4.000000e+000
      vertex   -3.500000e+001 2.500000e+001 4.000000e+000
    endloop
  endfacet
  facet normal 0.000000e+000 0.000000e+000 1.000000e+000
    outer loop
      vertex   -3.500000e+001 2.500000e+001 4.000000e+000
      vertex   -4.871662e+001 5.899860e+001 4.000000e+000
      vertex   -5.189860e+001 5.581662e+001 4.000000e+000
    endloop
  endfacet
  facet normal 0.000000e+000 -0.000000e+000 1.000000e+000
    outer loop
      vertex   -5.624665e+001 4.424144e+001 4.000000e+000
      vertex   -5.189860e+001 5.581662e+001 4.000000e+000
      vertex   -8.500000e+001 5.194588e+001 4.000000e+000
    endloop
  endfacet
  facet normal -0.000000e+000 -0.000000e+000 1.000000e+000
    outer loop
      vertex   -5.624665e+001 4.424144e+001 4.000000e+000
      vertex   -3.500000e+001 2.500000e+001 4.000000e+000
      vertex   -5.189860e+001 5.581662e+001 4.000000e+000
    endloop
  endfacet
  facet normal 0.000000e+000 0.000000e+000 1.000000e+000
    outer loop
      vertex   -5.624665e+001 4.424144e+001 4.000000e+000
      vertex   -5.805838e+001 3.747996e+001 4.000000e+000
      vertex   -3.500000e+001 2.500000e+001 4.000000e+000
    endloop
  endfacet
  facet normal 0.000000e+000 0.000000e+000 1.000000e+000
    outer loop
      vertex   -3.500000e+001 2.500000e+001 4.000000e+000
      vertex   -5.805838e+001 3.747996e+001 4.000000e+000
      vertex   -8.500000e+001 2.500000e+001 4.000000e+000
    endloop
  endfacet
  facet normal 0.000000e+000 -0.000000e+000 1.000000e+000
    outer loop
      vertex   -8.500000e+001 2.500000e+001 4.000000e+000
      vertex   -5.805838e+001 3.747996e+001 4.000000e+000
      vertex   -8.500000e+001 4.469894e+001 4.000000e+000
    endloop
  endfacet
  facet normal 0.000000e+000 0.000000e+000 1.000000e+000
    outer loop
      vertex   -5.189860e+001 5.581662e+001 4.000000e+000
      vertex   -6.108198e+001 6.500000e+001 4.000000e+000
      vertex   -8.500000e+001 5.194588e+001 4.000000e+000
    endloop
  endfacet
  facet normal 0.000000e+000 -0.000000e+000 1.000000e+000
    outer loop
      vertex   -8.500000e+001 5.194588e+001 4.000000e+000
      vertex   -6.108198e+001 6.500000e+001 4.000000e+000
      vertex   -8.500000e+001 6.500000e+001 4.000000e+000
    endloop
  endfacet
  facet normal 0.000000e+000 1.000000e+000 0.000000e+000
    outer loop
      vertex   -6.108198e+001 6.500000e+001 4.000000e+000
      vertex   -6.108198e+001 6.500000e+001 2.220446e-015
      vertex   -8.500000e+001 6.500000e+001 4.000000e+000
    endloop
  endfacet
  facet normal 0.000000e+000 1.000000e+000 0.000000e+000
    outer loop
      vertex   -8.500000e+001 6.500000e+001 4.000000e+000
      vertex   -6.108198e+001 6.500000e+001 2.220446e-015
      vertex   -8.500000e+001 6.500000e+001 0.000000e+000
    endloop
  endfacet
  facet normal -0.000000e+000 1.000000e+000 0.000000e+000
    outer loop
      vertex   -5.471802e+001 6.500000e+001 0.000000e+000
      vertex   -5.471802e+001 6.500000e+001 4.000000e+000
      vertex   -3.500000e+001 6.500000e+001 0.000000e+000
    endloop
  endfacet
  facet normal 0.000000e+000 1.000000e+000 -0.000000e+000
    outer loop
      vertex   -3.500000e+001 6.500000e+001 0.000000e+000
      vertex   -5.471802e+001 6.500000e+001 4.000000e+000
      vertex   -3.500000e+001 6.500000e+001 4.000000e+000
    endloop
  endfacet
  facet normal -2.588190e-001 -9.659258e-001 -0.000000e+000
    outer loop
      vertex   -8.500000e+001 5.194588e+001 4.000000e+000
      vertex   -8.500000e+001 5.194588e+001 1.110223e-015
      vertex   -5.624665e+001 4.424144e+001 4.000000e+000
    endloop
  endfacet
  facet normal -2.588190e-001 -9.659258e-001 0.000000e+000
    outer loop
      vertex   -5.624665e+001 4.424144e+001 4.000000e+000
      vertex   -8.500000e+001 5.194588e+001 1.110223e-015
      vertex   -5.624665e+001 4.424144e+001 1.110223e-015
    endloop
  endfacet
  facet normal -9.659258e-001 2.588190e-001 0.000000e+000
    outer loop
      vertex   -5.624665e+001 4.424144e+001 4.000000e+000
      vertex   -5.624665e+001 4.424144e+001 1.110223e-015
      vertex   -5.805838e+001 3.747996e+001 4.000000e+000
    endloop
  endfacet
  facet normal -9.659258e-001 2.588190e-001 -1.712916e-015
    outer loop
      vertex   -5.805838e+001 3.747996e+001 4.000000e+000
      vertex   -5.624665e+001 4.424144e+001 1.110223e-015
      vertex   -5.805838e+001 3.747996e+001 1.110223e-015
    endloop
  endfacet
  facet normal 2.588190e-001 9.659258e-001 -1.715829e-015
    outer loop
      vertex   -8.500000e+001 4.469894e+001 8.326673e-016
      vertex   -8.500000e+001 4.469894e+001 4.000000e+000
      vertex   -5.805838e+001 3.747996e+001 1.110223e-015
    endloop
  endfacet
  facet normal 2.588190e-001 9.659258e-001 5.094954e-016
    outer loop
      vertex   -5.805838e+001 3.747996e+001 1.110223e-015
      vertex   -8.500000e+001 4.469894e+001 4.000000e+000
      vertex   -5.805838e+001 3.747996e+001 4.000000e+000
    endloop
  endfacet
  facet normal -1.000000e+000 -0.000000e+000 0.000000e+000
    outer loop
      vertex   -8.500000e+001 4.469894e+001 4.000000e+000
      vertex   -8.500000e+001 4.469894e+001 8.326673e-016
      vertex   -8.500000e+001 2.500000e+001 4.000000e+000
    endloop
  endfacet
  facet normal -1.000000e+000 0.000000e+000 -0.000000e+000
    outer loop
      vertex   -8.500000e+001 2.500000e+001 4.000000e+000
      vertex   -8.500000e+001 4.469894e+001 8.326673e-016
      vertex   -8.500000e+001 2.500000e+001 0.000000e+000
    endloop
  endfacet
  facet normal -1.000000e+000 0.000000e+000 0.000000e+000
    outer loop
      vertex   -8.500000e+001 5.194588e+001 1.110223e-015
      vertex   -8.500000e+001 5.194588e+001 4.000000e+000
      vertex   -8.500000e+001 6.500000e+001 0.000000e+000
    endloop
  endfacet
  facet normal -1.000000e+000 0.000000e+000 0.000000e+000
    outer loop
      vertex   -8.500000e+001 6.500000e+001 0.000000e+000
      vertex   -8.500000e+001 5.194588e+001 4.000000e+000
      vertex   -8.500000e+001 6.500000e+001 4.000000e+000
    endloop
  endfacet
  facet normal 0.000000e+000 -3.699881e-016 -1.000000e+000
    outer loop
      vertex   -5.471802e+001 6.500000e+001 0.000000e+000
      vertex   -3.500000e+001 6.500000e+001 0.000000e+000
      vertex   -4.871662e+001 5.899860e+001 2.220446e-015
    endloop
  endfacet
  facet normal -1.618800e-016 -0.000000e+000 -1.000000e+000
    outer loop
      vertex   -4.871662e+001 5.899860e+001 2.220446e-015
      vertex   -3.500000e+001 6.500000e+001 0.000000e+000
      vertex   -3.500000e+001 2.500000e+001 0.000000e+000
    endloop
  endfacet
  facet normal 2.582326e-017 8.621396e-017 -1.000000e+000
    outer loop
      vertex   -5.189860e+001 5.581662e+001 2.220446e-015
      vertex   -3.500000e+001 2.500000e+001 0.000000e+000
      vertex   -5.624665e+001 4.424144e+001 1.110223e-015
    endloop
  endfacet
  facet normal 2.334991e-017 8.714304e-017 -1.000000e+000
    outer loop
      vertex   -8.500000e+001 5.194588e+001 1.110223e-015
      vertex   -5.189860e+001 5.581662e+001 2.220446e-015
      vertex   -5.624665e+001 4.424144e+001 1.110223e-015
    endloop
  endfacet
  facet normal 3.002864e-017 3.002864e-017 -1.000000e+000
    outer loop
      vertex   -8.500000e+001 5.194588e+001 1.110223e-015
      vertex   -6.108198e+001 6.500000e+001 2.220446e-015
      vertex   -5.189860e+001 5.581662e+001 2.220446e-015
    endloop
  endfacet
  facet normal 9.283570e-017 -8.504769e-017 -1.000000e+000
    outer loop
      vertex   -8.500000e+001 5.194588e+001 1.110223e-015
      vertex   -8.500000e+001 6.500000e+001 0.000000e+000
      vertex   -6.108198e+001 6.500000e+001 2.220446e-015
    endloop
  endfacet
  facet normal -4.205012e-017 1.126730e-017 -1.000000e+000
    outer loop
      vertex   -5.624665e+001 4.424144e+001 1.110223e-015
      vertex   -3.500000e+001 2.500000e+001 0.000000e+000
      vertex   -5.805838e+001 3.747996e+001 1.110223e-015
    endloop
  endfacet
  facet normal 0.000000e+000 8.896048e-017 -1.000000e+000
    outer loop
      vertex   -5.805838e+001 3.747996e+001 1.110223e-015
      vertex   -3.500000e+001 2.500000e+001 0.000000e+000
      vertex   -8.500000e+001 2.500000e+001 0.000000e+000
    endloop
  endfacet
  facet normal 2.162823e-017 4.226964e-017 -1.000000e+000
    outer loop
      vertex   -8.500000e+001 4.469894e+001 8.326673e-016
      vertex   -5.805838e+001 3.747996e+001 1.110223e-015
      vertex   -8.500000e+001 2.500000e+001 0.000000e+000
    endloop
  endfacet
  facet normal -4.653538e-017 4.653538e-017 -1.000000e+000
    outer loop
      vertex   -5.189860e+001 5.581662e+001 2.220446e-015
      vertex   -4.871662e+001 5.899860e+001 2.220446e-015
      vertex   -3.500000e+001 2.500000e+001 0.000000e+000
    endloop
  endfacet
  facet normal 0.000000e+000 -1.000000e+000 0.000000e+000
    outer loop
      vertex   -8.500000e+001 2.500000e+001 4.000000e+000
      vertex   -8.500000e+001 2.500000e+001 0.000000e+000
      vertex   -3.500000e+001 2.500000e+001 4.000000e+000
    endloop
  endfacet
  facet normal 0.000000e+000 -1.000000e+000 -0.000000e+000
    outer loop
      vertex   -3.500000e+001 2.500000e+001 4.000000e+000
      vertex   -8.500000e+001 2.500000e+001 0.000000e+000
      vertex   -3.500000e+001 2.500000e+001 0.000000e+000
    endloop
  endfacet
  facet normal 1.000000e+000 -0.000000e+000 0.000000e+000
    outer loop
      vertex   -3.500000e+001 2.500000e+001 4.000000e+000
      vertex   -3.500000e+001 2.500000e+001 0.000000e+000
      vertex   -3.500000e+001 6.500000e+001 4.000000e+000
    endloop
  endfacet
  facet normal 1.000000e+000 -0.000000e+000 0.000000e+000
    outer loop
      vertex   -3.500000e+001 6.500000e+001 4.000000e+000
      vertex   -3.500000e+001 2.500000e+001 0.000000e+000
      vertex   -3.500000e+001 6.500000e+001 0.000000e+000
    endloop
  endfacet
endsolid
