solid ascii
  facet normal 1.000000e+000 0.000000e+000 -0.000000e+000
    outer loop
      vertex   -4.500000e+001 -7.000000e+001 2.000000e+000
      vertex   -4.500000e+001 -7.000000e+001 5.200000e+001
      vertex   -4.500000e+001 -9.700000e+001 2.000000e+000
    endloop
  endfacet
  facet normal 1.000000e+000 0.000000e+000 -0.000000e+000
    outer loop
      vertex   -4.500000e+001 -9.700000e+001 2.000000e+000
      vertex   -4.500000e+001 -7.000000e+001 5.200000e+001
      vertex   -4.500000e+001 -9.700000e+001 5.200000e+001
    endloop
  endfacet
  facet normal -0.000000e+000 -1.000000e+000 0.000000e+000
    outer loop
      vertex   -4.500000e+001 -9.700000e+001 2.000000e+000
      vertex   -4.500000e+001 -9.700000e+001 5.200000e+001
      vertex   -5.500000e+001 -9.700000e+001 2.000000e+000
    endloop
  endfacet
  facet normal 0.000000e+000 -1.000000e+000 0.000000e+000
    outer loop
      vertex   -5.500000e+001 -9.700000e+001 2.000000e+000
      vertex   -4.500000e+001 -9.700000e+001 5.200000e+001
      vertex   -5.500000e+001 -9.700000e+001 5.200000e+001
    endloop
  endfacet
  facet normal -0.000000e+000 1.000000e+000 0.000000e+000
    outer loop
      vertex   -5.300000e+001 -9.500000e+001 2.000000e+000
      vertex   -5.300000e+001 -9.500000e+001 5.200000e+001
      vertex   -4.700000e+001 -9.500000e+001 2.000000e+000
    endloop
  endfacet
  facet normal 0.000000e+000 1.000000e+000 -0.000000e+000
    outer loop
      vertex   -4.700000e+001 -9.500000e+001 2.000000e+000
      vertex   -5.300000e+001 -9.500000e+001 5.200000e+001
      vertex   -4.700000e+001 -9.500000e+001 5.200000e+001
    endloop
  endfacet
  facet normal 1.000000e+000 0.000000e+000 -0.000000e+000
    outer loop
      vertex   -5.300000e+001 -7.000000e+001 2.000000e+000
      vertex   -5.300000e+001 -7.000000e+001 5.200000e+001
      vertex   -5.300000e+001 -9.500000e+001 2.000000e+000
    endloop
  endfacet
  facet normal 1.000000e+000 0.000000e+000 -0.000000e+000
    outer loop
      vertex   -5.300000e+001 -9.500000e+001 2.000000e+000
      vertex   -5.300000e+001 -7.000000e+001 5.200000e+001
      vertex   -5.300000e+001 -9.500000e+001 5.200000e+001
    endloop
  endfacet
  facet normal -1.000000e+000 -5.684342e-016 -2.842171e-016
    outer loop
      vertex   -4.700000e+001 -7.000000e+001 5.200000e+001
      vertex   -4.700000e+001 -7.000000e+001 2.000000e+000
      vertex   -4.700000e+001 -9.500000e+001 5.200000e+001
    endloop
  endfacet
  facet normal -1.000000e+000 -0.000000e+000 -0.000000e+000
    outer loop
      vertex   -4.700000e+001 -9.500000e+001 5.200000e+001
      vertex   -4.700000e+001 -7.000000e+001 2.000000e+000
      vertex   -4.700000e+001 -9.500000e+001 2.000000e+000
    endloop
  endfacet
  facet normal 0.000000e+000 0.000000e+000 1.000000e+000
    outer loop
      vertex   -5.300000e+001 -7.000000e+001 5.200000e+001
      vertex   -5.500000e+001 -7.000000e+001 5.200000e+001
      vertex   -5.300000e+001 -9.500000e+001 5.200000e+001
    endloop
  endfacet
  facet normal 0.000000e+000 0.000000e+000 1.000000e+000
    outer loop
      vertex   -5.300000e+001 -9.500000e+001 5.200000e+001
      vertex   -5.500000e+001 -7.000000e+001 5.200000e+001
      vertex   -5.500000e+001 -9.700000e+001 5.200000e+001
    endloop
  endfacet
  facet normal 0.000000e+000 0.000000e+000 1.000000e+000
    outer loop
      vertex   -4.500000e+001 -9.700000e+001 5.200000e+001
      vertex   -5.300000e+001 -9.500000e+001 5.200000e+001
      vertex   -5.500000e+001 -9.700000e+001 5.200000e+001
    endloop
  endfacet
  facet normal 0.000000e+000 0.000000e+000 1.000000e+000
    outer loop
      vertex   -4.500000e+001 -9.700000e+001 5.200000e+001
      vertex   -4.700000e+001 -9.500000e+001 5.200000e+001
      vertex   -5.300000e+001 -9.500000e+001 5.200000e+001
    endloop
  endfacet
  facet normal 0.000000e+000 -0.000000e+000 1.000000e+000
    outer loop
      vertex   -4.500000e+001 -9.700000e+001 5.200000e+001
      vertex   -4.500000e+001 -7.000000e+001 5.200000e+001
      vertex   -4.700000e+001 -9.500000e+001 5.200000e+001
    endloop
  endfacet
  facet normal 0.000000e+000 -0.000000e+000 1.000000e+000
    outer loop
      vertex   -4.700000e+001 -9.500000e+001 5.200000e+001
      vertex   -4.500000e+001 -7.000000e+001 5.200000e+001
      vertex   -4.700000e+001 -7.000000e+001 5.200000e+001
    endloop
  endfacet
  facet normal -1.000000e+000 -0.000000e+000 -0.000000e+000
    outer loop
      vertex   -5.500000e+001 -7.000000e+001 5.200000e+001
      vertex   -5.500000e+001 -7.000000e+001 2.000000e+000
      vertex   -5.500000e+001 -9.700000e+001 5.200000e+001
    endloop
  endfacet
  facet normal -1.000000e+000 -0.000000e+000 -0.000000e+000
    outer loop
      vertex   -5.500000e+001 -9.700000e+001 5.200000e+001
      vertex   -5.500000e+001 -7.000000e+001 2.000000e+000
      vertex   -5.500000e+001 -9.700000e+001 2.000000e+000
    endloop
  endfacet
  facet normal 0.000000e+000 1.000000e+000 0.000000e+000
    outer loop
      vertex   -5.300000e+001 -7.000000e+001 5.200000e+001
      vertex   -5.300000e+001 -7.000000e+001 2.000000e+000
      vertex   -5.500000e+001 -7.000000e+001 5.200000e+001
    endloop
  endfacet
  facet normal 0.000000e+000 1.000000e+000 0.000000e+000
    outer loop
      vertex   -5.500000e+001 -7.000000e+001 5.200000e+001
      vertex   -5.300000e+001 -7.000000e+001 2.000000e+000
      vertex   -5.500000e+001 -7.000000e+001 2.000000e+000
    endloop
  endfacet
  facet normal -0.000000e+000 1.000000e+000 -0.000000e+000
    outer loop
      vertex   -4.700000e+001 -7.000000e+001 2.000000e+000
      vertex   -4.700000e+001 -7.000000e+001 5.200000e+001
      vertex   -4.500000e+001 -7.000000e+001 2.000000e+000
    endloop
  endfacet
  facet normal 0.000000e+000 1.000000e+000 -0.000000e+000
    outer loop
      vertex   -4.500000e+001 -7.000000e+001 2.000000e+000
      vertex   -4.700000e+001 -7.000000e+001 5.200000e+001
      vertex   -4.500000e+001 -7.000000e+001 5.200000e+001
    endloop
  endfacet
  facet normal 0.000000e+000 -1.000000e+000 0.000000e+000
    outer loop
      vertex   -4.700000e+001 -3.000000e+001 5.200000e+001
      vertex   -4.700000e+001 -3.000000e+001 2.000000e+000
      vertex   -4.500000e+001 -3.000000e+001 5.200000e+001
    endloop
  endfacet
  facet normal 0.000000e+000 -1.000000e+000 -0.000000e+000
    outer loop
      vertex   -4.500000e+001 -3.000000e+001 5.200000e+001
      vertex   -4.700000e+001 -3.000000e+001 2.000000e+000
      vertex   -4.500000e+001 -3.000000e+001 2.000000e+000
    endloop
  endfacet
  facet normal -0.000000e+000 -1.000000e+000 0.000000e+000
    outer loop
      vertex   -5.300000e+001 -3.000000e+001 2.000000e+000
      vertex   -5.300000e+001 -3.000000e+001 5.200000e+001
      vertex   -5.500000e+001 -3.000000e+001 2.000000e+000
    endloop
  endfacet
  facet normal 0.000000e+000 -1.000000e+000 0.000000e+000
    outer loop
      vertex   -5.500000e+001 -3.000000e+001 2.000000e+000
      vertex   -5.300000e+001 -3.000000e+001 5.200000e+001
      vertex   -5.500000e+001 -3.000000e+001 5.200000e+001
    endloop
  endfacet
  facet normal 1.000000e+000 -0.000000e+000 0.000000e+000
    outer loop
      vertex   -5.300000e+001 -3.000000e+001 5.200000e+001
      vertex   -5.300000e+001 -3.000000e+001 2.000000e+000
      vertex   -5.300000e+001 -5.000000e+000 5.200000e+001
    endloop
  endfacet
  facet normal 1.000000e+000 -0.000000e+000 0.000000e+000
    outer loop
      vertex   -5.300000e+001 -5.000000e+000 5.200000e+001
      vertex   -5.300000e+001 -3.000000e+001 2.000000e+000
      vertex   -5.300000e+001 -5.000000e+000 2.000000e+000
    endloop
  endfacet
  facet normal 0.000000e+000 -0.000000e+000 1.000000e+000
    outer loop
      vertex   -5.300000e+001 -3.000000e+001 5.200000e+001
      vertex   -5.300000e+001 -5.000000e+000 5.200000e+001
      vertex   -5.500000e+001 -3.000000e+001 5.200000e+001
    endloop
  endfacet
  facet normal 0.000000e+000 -0.000000e+000 1.000000e+000
    outer loop
      vertex   -5.500000e+001 -3.000000e+001 5.200000e+001
      vertex   -5.300000e+001 -5.000000e+000 5.200000e+001
      vertex   -5.500000e+001 -3.000000e+000 5.200000e+001
    endloop
  endfacet
  facet normal -0.000000e+000 0.000000e+000 1.000000e+000
    outer loop
      vertex   -5.500000e+001 -3.000000e+000 5.200000e+001
      vertex   -5.300000e+001 -5.000000e+000 5.200000e+001
      vertex   -4.700000e+001 -5.000000e+000 5.200000e+001
    endloop
  endfacet
  facet normal 0.000000e+000 0.000000e+000 1.000000e+000
    outer loop
      vertex   -4.500000e+001 -3.000000e+000 5.200000e+001
      vertex   -4.700000e+001 -5.000000e+000 5.200000e+001
      vertex   -4.500000e+001 -3.000000e+001 5.200000e+001
    endloop
  endfacet
  facet normal 0.000000e+000 0.000000e+000 1.000000e+000
    outer loop
      vertex   -4.500000e+001 -3.000000e+000 5.200000e+001
      vertex   -5.500000e+001 -3.000000e+000 5.200000e+001
      vertex   -4.700000e+001 -5.000000e+000 5.200000e+001
    endloop
  endfacet
  facet normal -0.000000e+000 0.000000e+000 1.000000e+000
    outer loop
      vertex   -4.700000e+001 -5.000000e+000 5.200000e+001
      vertex   -4.700000e+001 -3.000000e+001 5.200000e+001
      vertex   -4.500000e+001 -3.000000e+001 5.200000e+001
    endloop
  endfacet
  facet normal 1.000000e+000 -0.000000e+000 0.000000e+000
    outer loop
      vertex   -4.500000e+001 -3.000000e+001 5.200000e+001
      vertex   -4.500000e+001 -3.000000e+001 2.000000e+000
      vertex   -4.500000e+001 -3.000000e+000 5.200000e+001
    endloop
  endfacet
  facet normal 1.000000e+000 -0.000000e+000 0.000000e+000
    outer loop
      vertex   -4.500000e+001 -3.000000e+000 5.200000e+001
      vertex   -4.500000e+001 -3.000000e+001 2.000000e+000
      vertex   -4.500000e+001 -3.000000e+000 2.000000e+000
    endloop
  endfacet
  facet normal -0.000000e+000 -1.000000e+000 0.000000e+000
    outer loop
      vertex   -4.700000e+001 -5.000000e+000 2.000000e+000
      vertex   -4.700000e+001 -5.000000e+000 5.200000e+001
      vertex   -5.300000e+001 -5.000000e+000 2.000000e+000
    endloop
  endfacet
  facet normal 0.000000e+000 -1.000000e+000 0.000000e+000
    outer loop
      vertex   -5.300000e+001 -5.000000e+000 2.000000e+000
      vertex   -4.700000e+001 -5.000000e+000 5.200000e+001
      vertex   -5.300000e+001 -5.000000e+000 5.200000e+001
    endloop
  endfacet
  facet normal -1.000000e+000 0.000000e+000 -2.842171e-016
    outer loop
      vertex   -4.700000e+001 -3.000000e+001 2.000000e+000
      vertex   -4.700000e+001 -3.000000e+001 5.200000e+001
      vertex   -4.700000e+001 -5.000000e+000 2.000000e+000
    endloop
  endfacet
  facet normal -1.000000e+000 5.684342e-016 0.000000e+000
    outer loop
      vertex   -4.700000e+001 -5.000000e+000 2.000000e+000
      vertex   -4.700000e+001 -3.000000e+001 5.200000e+001
      vertex   -4.700000e+001 -5.000000e+000 5.200000e+001
    endloop
  endfacet
  facet normal -0.000000e+000 1.000000e+000 0.000000e+000
    outer loop
      vertex   -5.500000e+001 -3.000000e+000 2.000000e+000
      vertex   -5.500000e+001 -3.000000e+000 5.200000e+001
      vertex   -4.500000e+001 -3.000000e+000 2.000000e+000
    endloop
  endfacet
  facet normal 0.000000e+000 1.000000e+000 -0.000000e+000
    outer loop
      vertex   -4.500000e+001 -3.000000e+000 2.000000e+000
      vertex   -5.500000e+001 -3.000000e+000 5.200000e+001
      vertex   -4.500000e+001 -3.000000e+000 5.200000e+001
    endloop
  endfacet
  facet normal -1.000000e+000 0.000000e+000 0.000000e+000
    outer loop
      vertex   -5.500000e+001 -3.000000e+001 2.000000e+000
      vertex   -5.500000e+001 -3.000000e+001 5.200000e+001
      vertex   -5.500000e+001 -3.000000e+000 2.000000e+000
    endloop
  endfacet
  facet normal -1.000000e+000 0.000000e+000 0.000000e+000
    outer loop
      vertex   -5.500000e+001 -3.000000e+000 2.000000e+000
      vertex   -5.500000e+001 -3.000000e+001 5.200000e+001
      vertex   -5.500000e+001 -3.000000e+000 5.200000e+001
    endloop
  endfacet
  facet normal -0.000000e+000 1.000000e+000 0.000000e+000
    outer loop
      vertex   -4.500000e+001 1.000000e+001 0.000000e+000
      vertex   -4.500000e+001 1.000000e+001 2.000000e+000
      vertex   -3.500000e+001 1.000000e+001 0.000000e+000
    endloop
  endfacet
  facet normal 0.000000e+000 1.000000e+000 -0.000000e+000
    outer loop
      vertex   -3.500000e+001 1.000000e+001 0.000000e+000
      vertex   -4.500000e+001 1.000000e+001 2.000000e+000
      vertex   -3.500000e+001 1.000000e+001 2.000000e+000
    endloop
  endfacet
  facet normal -0.000000e+000 1.000000e+000 0.000000e+000
    outer loop
      vertex   -6.500000e+001 1.000000e+001 0.000000e+000
      vertex   -6.500000e+001 1.000000e+001 2.000000e+000
      vertex   -5.500000e+001 1.000000e+001 0.000000e+000
    endloop
  endfacet
  facet normal 0.000000e+000 1.000000e+000 -0.000000e+000
    outer loop
      vertex   -5.500000e+001 1.000000e+001 0.000000e+000
      vertex   -6.500000e+001 1.000000e+001 2.000000e+000
      vertex   -5.500000e+001 1.000000e+001 2.000000e+000
    endloop
  endfacet
  facet normal -1.000000e+000 -0.000000e+000 -0.000000e+000
    outer loop
      vertex   -6.500000e+001 1.000000e+001 2.000000e+000
      vertex   -6.500000e+001 1.000000e+001 0.000000e+000
      vertex   -6.500000e+001 5.000000e+000 2.000000e+000
    endloop
  endfacet
  facet normal -1.000000e+000 -0.000000e+000 -0.000000e+000
    outer loop
      vertex   -6.500000e+001 5.000000e+000 2.000000e+000
      vertex   -6.500000e+001 1.000000e+001 0.000000e+000
      vertex   -6.500000e+001 5.000000e+000 0.000000e+000
    endloop
  endfacet
  facet normal -1.000000e+000 -0.000000e+000 -0.000000e+000
    outer loop
      vertex   -4.500000e+001 1.000000e+001 2.000000e+000
      vertex   -4.500000e+001 1.000000e+001 0.000000e+000
      vertex   -4.500000e+001 5.000000e+000 2.000000e+000
    endloop
  endfacet
  facet normal -1.000000e+000 -0.000000e+000 -0.000000e+000
    outer loop
      vertex   -4.500000e+001 5.000000e+000 2.000000e+000
      vertex   -4.500000e+001 1.000000e+001 0.000000e+000
      vertex   -4.500000e+001 5.000000e+000 0.000000e+000
    endloop
  endfacet
  facet normal 0.000000e+000 -0.000000e+000 -1.000000e+000
    outer loop
      vertex   -6.500000e+001 1.000000e+001 0.000000e+000
      vertex   -5.500000e+001 1.000000e+001 0.000000e+000
      vertex   -6.500000e+001 5.000000e+000 0.000000e+000
    endloop
  endfacet
  facet normal 0.000000e+000 0.000000e+000 -1.000000e+000
    outer loop
      vertex   -6.500000e+001 5.000000e+000 0.000000e+000
      vertex   -5.500000e+001 1.000000e+001 0.000000e+000
      vertex   -5.500000e+001 5.000000e+000 0.000000e+000
    endloop
  endfacet
  facet normal 0.000000e+000 0.000000e+000 -1.000000e+000
    outer loop
      vertex   -6.500000e+001 -5.000000e+000 0.000000e+000
      vertex   -5.500000e+001 5.000000e+000 0.000000e+000
      vertex   -4.500000e+001 5.000000e+000 0.000000e+000
    endloop
  endfacet
  facet normal 0.000000e+000 0.000000e+000 -1.000000e+000
    outer loop
      vertex   -3.500000e+001 -5.000000e+000 0.000000e+000
      vertex   -4.500000e+001 5.000000e+000 0.000000e+000
      vertex   -3.500000e+001 5.000000e+000 0.000000e+000
    endloop
  endfacet
  facet normal -0.000000e+000 0.000000e+000 -1.000000e+000
    outer loop
      vertex   -3.000000e+001 5.000000e+000 0.000000e+000
      vertex   -3.500000e+001 -5.000000e+000 0.000000e+000
      vertex   -3.500000e+001 5.000000e+000 0.000000e+000
    endloop
  endfacet
  facet normal -0.000000e+000 0.000000e+000 -1.000000e+000
    outer loop
      vertex   -3.000000e+001 5.000000e+000 0.000000e+000
      vertex   -3.000000e+001 -5.000000e+000 0.000000e+000
      vertex   -3.500000e+001 -5.000000e+000 0.000000e+000
    endloop
  endfacet
  facet normal 0.000000e+000 -0.000000e+000 -1.000000e+000
    outer loop
      vertex   -6.500000e+001 5.000000e+000 0.000000e+000
      vertex   -5.500000e+001 5.000000e+000 0.000000e+000
      vertex   -6.500000e+001 -5.000000e+000 0.000000e+000
    endloop
  endfacet
  facet normal -0.000000e+000 -0.000000e+000 -1.000000e+000
    outer loop
      vertex   -7.000000e+001 5.000000e+000 0.000000e+000
      vertex   -6.500000e+001 -5.000000e+000 0.000000e+000
      vertex   -7.000000e+001 -5.000000e+000 0.000000e+000
    endloop
  endfacet
  facet normal 0.000000e+000 0.000000e+000 -1.000000e+000
    outer loop
      vertex   -7.000000e+001 5.000000e+000 0.000000e+000
      vertex   -6.500000e+001 5.000000e+000 0.000000e+000
      vertex   -6.500000e+001 -5.000000e+000 0.000000e+000
    endloop
  endfacet
  facet normal 0.000000e+000 -0.000000e+000 -1.000000e+000
    outer loop
      vertex   -4.500000e+001 1.000000e+001 0.000000e+000
      vertex   -3.500000e+001 1.000000e+001 0.000000e+000
      vertex   -4.500000e+001 5.000000e+000 0.000000e+000
    endloop
  endfacet
  facet normal 0.000000e+000 0.000000e+000 -1.000000e+000
    outer loop
      vertex   -4.500000e+001 5.000000e+000 0.000000e+000
      vertex   -3.500000e+001 1.000000e+001 0.000000e+000
      vertex   -3.500000e+001 5.000000e+000 0.000000e+000
    endloop
  endfacet
  facet normal 0.000000e+000 0.000000e+000 -1.000000e+000
    outer loop
      vertex   -3.500000e+001 -1.500000e+001 0.000000e+000
      vertex   -6.500000e+001 -1.500000e+001 0.000000e+000
      vertex   -3.500000e+001 -5.000000e+000 0.000000e+000
    endloop
  endfacet
  facet normal -0.000000e+000 0.000000e+000 -1.000000e+000
    outer loop
      vertex   -3.500000e+001 -1.500000e+001 0.000000e+000
      vertex   -6.500000e+001 -2.500000e+001 0.000000e+000
      vertex   -6.500000e+001 -1.500000e+001 0.000000e+000
    endloop
  endfacet
  facet normal -0.000000e+000 -0.000000e+000 -1.000000e+000
    outer loop
      vertex   -3.500000e+001 -1.500000e+001 0.000000e+000
      vertex   -3.500000e+001 -2.500000e+001 0.000000e+000
      vertex   -6.500000e+001 -2.500000e+001 0.000000e+000
    endloop
  endfacet
  facet normal 0.000000e+000 -0.000000e+000 -1.000000e+000
    outer loop
      vertex   -3.500000e+001 -1.500000e+001 0.000000e+000
      vertex   -3.000000e+001 -1.500000e+001 0.000000e+000
      vertex   -3.500000e+001 -2.500000e+001 0.000000e+000
    endloop
  endfacet
  facet normal 0.000000e+000 0.000000e+000 -1.000000e+000
    outer loop
      vertex   -3.500000e+001 -2.500000e+001 0.000000e+000
      vertex   -3.000000e+001 -1.500000e+001 0.000000e+000
      vertex   -3.000000e+001 -2.500000e+001 0.000000e+000
    endloop
  endfacet
  facet normal -0.000000e+000 -0.000000e+000 -1.000000e+000
    outer loop
      vertex   -3.500000e+001 -2.500000e+001 0.000000e+000
      vertex   -3.500000e+001 -3.500000e+001 0.000000e+000
      vertex   -6.500000e+001 -2.500000e+001 0.000000e+000
    endloop
  endfacet
  facet normal -0.000000e+000 -0.000000e+000 -1.000000e+000
    outer loop
      vertex   -6.500000e+001 -2.500000e+001 0.000000e+000
      vertex   -3.500000e+001 -3.500000e+001 0.000000e+000
      vertex   -6.500000e+001 -3.500000e+001 0.000000e+000
    endloop
  endfacet
  facet normal 0.000000e+000 -0.000000e+000 -1.000000e+000
    outer loop
      vertex   -6.500000e+001 -3.500000e+001 0.000000e+000
      vertex   -3.500000e+001 -3.500000e+001 0.000000e+000
      vertex   -5.500000e+001 -4.500000e+001 0.000000e+000
    endloop
  endfacet
  facet normal 0.000000e+000 -0.000000e+000 -1.000000e+000
    outer loop
      vertex   -6.500000e+001 -4.500000e+001 0.000000e+000
      vertex   -5.500000e+001 -4.500000e+001 0.000000e+000
      vertex   -6.500000e+001 -5.500000e+001 0.000000e+000
    endloop
  endfacet
  facet normal 0.000000e+000 0.000000e+000 -1.000000e+000
    outer loop
      vertex   -6.500000e+001 -4.500000e+001 0.000000e+000
      vertex   -6.500000e+001 -3.500000e+001 0.000000e+000
      vertex   -5.500000e+001 -4.500000e+001 0.000000e+000
    endloop
  endfacet
  facet normal 0.000000e+000 0.000000e+000 -1.000000e+000
    outer loop
      vertex   -6.500000e+001 -4.500000e+001 0.000000e+000
      vertex   -7.000000e+001 -3.500000e+001 0.000000e+000
      vertex   -6.500000e+001 -3.500000e+001 0.000000e+000
    endloop
  endfacet
  facet normal 0.000000e+000 0.000000e+000 -1.000000e+000
    outer loop
      vertex   -6.500000e+001 -4.500000e+001 0.000000e+000
      vertex   -7.000000e+001 -4.500000e+001 0.000000e+000
      vertex   -7.000000e+001 -3.500000e+001 0.000000e+000
    endloop
  endfacet
  facet normal -0.000000e+000 0.000000e+000 -1.000000e+000
    outer loop
      vertex   -3.000000e+001 -3.500000e+001 0.000000e+000
      vertex   -3.500000e+001 -4.500000e+001 0.000000e+000
      vertex   -3.500000e+001 -3.500000e+001 0.000000e+000
    endloop
  endfacet
  facet normal -0.000000e+000 -0.000000e+000 -1.000000e+000
    outer loop
      vertex   -3.000000e+001 -3.500000e+001 0.000000e+000
      vertex   -3.000000e+001 -4.500000e+001 0.000000e+000
      vertex   -3.500000e+001 -4.500000e+001 0.000000e+000
    endloop
  endfacet
  facet normal 0.000000e+000 0.000000e+000 -1.000000e+000
    outer loop
      vertex   -3.500000e+001 -5.500000e+001 0.000000e+000
      vertex   -4.500000e+001 -5.500000e+001 0.000000e+000
      vertex   -3.500000e+001 -4.500000e+001 0.000000e+000
    endloop
  endfacet
  facet normal -0.000000e+000 0.000000e+000 -1.000000e+000
    outer loop
      vertex   -3.500000e+001 -5.500000e+001 0.000000e+000
      vertex   -3.500000e+001 -6.500000e+001 0.000000e+000
      vertex   -4.500000e+001 -5.500000e+001 0.000000e+000
    endloop
  endfacet
  facet normal 0.000000e+000 -0.000000e+000 -1.000000e+000
    outer loop
      vertex   -3.500000e+001 -5.500000e+001 0.000000e+000
      vertex   -3.000000e+001 -5.500000e+001 0.000000e+000
      vertex   -3.500000e+001 -6.500000e+001 0.000000e+000
    endloop
  endfacet
  facet normal 0.000000e+000 -0.000000e+000 -1.000000e+000
    outer loop
      vertex   -3.500000e+001 -6.500000e+001 0.000000e+000
      vertex   -3.000000e+001 -5.500000e+001 0.000000e+000
      vertex   -3.000000e+001 -6.500000e+001 0.000000e+000
    endloop
  endfacet
  facet normal 0.000000e+000 0.000000e+000 -1.000000e+000
    outer loop
      vertex   -3.500000e+001 -7.500000e+001 0.000000e+000
      vertex   -6.500000e+001 -6.500000e+001 0.000000e+000
      vertex   -3.500000e+001 -6.500000e+001 0.000000e+000
    endloop
  endfacet
  facet normal 0.000000e+000 0.000000e+000 -1.000000e+000
    outer loop
      vertex   -3.500000e+001 -7.500000e+001 0.000000e+000
      vertex   -6.500000e+001 -7.500000e+001 0.000000e+000
      vertex   -6.500000e+001 -6.500000e+001 0.000000e+000
    endloop
  endfacet
  facet normal -0.000000e+000 0.000000e+000 -1.000000e+000
    outer loop
      vertex   -3.500000e+001 -7.500000e+001 0.000000e+000
      vertex   -6.500000e+001 -8.500000e+001 0.000000e+000
      vertex   -6.500000e+001 -7.500000e+001 0.000000e+000
    endloop
  endfacet
  facet normal -0.000000e+000 -0.000000e+000 -1.000000e+000
    outer loop
      vertex   -3.500000e+001 -7.500000e+001 0.000000e+000
      vertex   -3.500000e+001 -8.500000e+001 0.000000e+000
      vertex   -6.500000e+001 -8.500000e+001 0.000000e+000
    endloop
  endfacet
  facet normal 0.000000e+000 -0.000000e+000 -1.000000e+000
    outer loop
      vertex   -3.500000e+001 -7.500000e+001 0.000000e+000
      vertex   -3.000000e+001 -7.500000e+001 0.000000e+000
      vertex   -3.500000e+001 -8.500000e+001 0.000000e+000
    endloop
  endfacet
  facet normal 0.000000e+000 0.000000e+000 -1.000000e+000
    outer loop
      vertex   -3.500000e+001 -8.500000e+001 0.000000e+000
      vertex   -3.000000e+001 -7.500000e+001 0.000000e+000
      vertex   -3.000000e+001 -8.500000e+001 0.000000e+000
    endloop
  endfacet
  facet normal 0.000000e+000 -0.000000e+000 -1.000000e+000
    outer loop
      vertex   -6.500000e+001 -8.500000e+001 0.000000e+000
      vertex   -3.500000e+001 -8.500000e+001 0.000000e+000
      vertex   -6.500000e+001 -9.500000e+001 0.000000e+000
    endloop
  endfacet
  facet normal 0.000000e+000 0.000000e+000 -1.000000e+000
    outer loop
      vertex   -6.500000e+001 -9.500000e+001 0.000000e+000
      vertex   -3.500000e+001 -8.500000e+001 0.000000e+000
      vertex   -3.500000e+001 -9.500000e+001 0.000000e+000
    endloop
  endfacet
  facet normal 0.000000e+000 -0.000000e+000 -1.000000e+000
    outer loop
      vertex   -5.500000e+001 -1.050000e+002 0.000000e+000
      vertex   -3.500000e+001 -9.500000e+001 0.000000e+000
      vertex   -4.500000e+001 -1.050000e+002 0.000000e+000
    endloop
  endfacet
  facet normal 0.000000e+000 0.000000e+000 -1.000000e+000
    outer loop
      vertex   -5.500000e+001 -1.050000e+002 0.000000e+000
      vertex   -6.500000e+001 -9.500000e+001 0.000000e+000
      vertex   -3.500000e+001 -9.500000e+001 0.000000e+000
    endloop
  endfacet
  facet normal 0.000000e+000 0.000000e+000 -1.000000e+000
    outer loop
      vertex   -5.500000e+001 -1.050000e+002 0.000000e+000
      vertex   -6.500000e+001 -1.050000e+002 0.000000e+000
      vertex   -6.500000e+001 -9.500000e+001 0.000000e+000
    endloop
  endfacet
  facet normal -0.000000e+000 0.000000e+000 -1.000000e+000
    outer loop
      vertex   -5.500000e+001 -1.050000e+002 0.000000e+000
      vertex   -6.500000e+001 -1.100000e+002 0.000000e+000
      vertex   -6.500000e+001 -1.050000e+002 0.000000e+000
    endloop
  endfacet
  facet normal -0.000000e+000 -0.000000e+000 -1.000000e+000
    outer loop
      vertex   -5.500000e+001 -1.050000e+002 0.000000e+000
      vertex   -5.500000e+001 -1.100000e+002 0.000000e+000
      vertex   -6.500000e+001 -1.100000e+002 0.000000e+000
    endloop
  endfacet
  facet normal 0.000000e+000 0.000000e+000 -1.000000e+000
    outer loop
      vertex   -4.500000e+001 -1.050000e+002 0.000000e+000
      vertex   -3.500000e+001 -9.500000e+001 0.000000e+000
      vertex   -3.500000e+001 -1.050000e+002 0.000000e+000
    endloop
  endfacet
  facet normal 0.000000e+000 0.000000e+000 -1.000000e+000
    outer loop
      vertex   -4.500000e+001 -1.100000e+002 0.000000e+000
      vertex   -3.500000e+001 -1.050000e+002 0.000000e+000
      vertex   -3.500000e+001 -1.100000e+002 0.000000e+000
    endloop
  endfacet
  facet normal 0.000000e+000 0.000000e+000 -1.000000e+000
    outer loop
      vertex   -4.500000e+001 -1.100000e+002 0.000000e+000
      vertex   -4.500000e+001 -1.050000e+002 0.000000e+000
      vertex   -3.500000e+001 -1.050000e+002 0.000000e+000
    endloop
  endfacet
  facet normal 0.000000e+000 0.000000e+000 -1.000000e+000
    outer loop
      vertex   -3.000000e+001 -1.050000e+002 0.000000e+000
      vertex   -3.500000e+001 -1.050000e+002 0.000000e+000
      vertex   -3.000000e+001 -9.500000e+001 0.000000e+000
    endloop
  endfacet
  facet normal -0.000000e+000 0.000000e+000 -1.000000e+000
    outer loop
      vertex   -3.000000e+001 -9.500000e+001 0.000000e+000
      vertex   -3.500000e+001 -1.050000e+002 0.000000e+000
      vertex   -3.500000e+001 -9.500000e+001 0.000000e+000
    endloop
  endfacet
  facet normal 0.000000e+000 0.000000e+000 -1.000000e+000
    outer loop
      vertex   -7.000000e+001 -1.050000e+002 0.000000e+000
      vertex   -7.000000e+001 -9.500000e+001 0.000000e+000
      vertex   -6.500000e+001 -1.050000e+002 0.000000e+000
    endloop
  endfacet
  facet normal 0.000000e+000 0.000000e+000 -1.000000e+000
    outer loop
      vertex   -6.500000e+001 -1.050000e+002 0.000000e+000
      vertex   -7.000000e+001 -9.500000e+001 0.000000e+000
      vertex   -6.500000e+001 -9.500000e+001 0.000000e+000
    endloop
  endfacet
  facet normal 0.000000e+000 0.000000e+000 -1.000000e+000
    outer loop
      vertex   -7.000000e+001 -8.500000e+001 0.000000e+000
      vertex   -7.000000e+001 -7.500000e+001 0.000000e+000
      vertex   -6.500000e+001 -8.500000e+001 0.000000e+000
    endloop
  endfacet
  facet normal 0.000000e+000 0.000000e+000 -1.000000e+000
    outer loop
      vertex   -6.500000e+001 -8.500000e+001 0.000000e+000
      vertex   -7.000000e+001 -7.500000e+001 0.000000e+000
      vertex   -6.500000e+001 -7.500000e+001 0.000000e+000
    endloop
  endfacet
  facet normal 0.000000e+000 0.000000e+000 -1.000000e+000
    outer loop
      vertex   -7.000000e+001 -6.500000e+001 0.000000e+000
      vertex   -7.000000e+001 -5.500000e+001 0.000000e+000
      vertex   -6.500000e+001 -6.500000e+001 0.000000e+000
    endloop
  endfacet
  facet normal 0.000000e+000 0.000000e+000 -1.000000e+000
    outer loop
      vertex   -6.500000e+001 -6.500000e+001 0.000000e+000
      vertex   -7.000000e+001 -5.500000e+001 0.000000e+000
      vertex   -6.500000e+001 -5.500000e+001 0.000000e+000
    endloop
  endfacet
  facet normal 0.000000e+000 0.000000e+000 -1.000000e+000
    outer loop
      vertex   -5.500000e+001 -5.500000e+001 0.000000e+000
      vertex   -6.500000e+001 -5.500000e+001 0.000000e+000
      vertex   -5.500000e+001 -4.500000e+001 0.000000e+000
    endloop
  endfacet
  facet normal -0.000000e+000 0.000000e+000 -1.000000e+000
    outer loop
      vertex   -5.500000e+001 -5.500000e+001 0.000000e+000
      vertex   -6.500000e+001 -6.500000e+001 0.000000e+000
      vertex   -6.500000e+001 -5.500000e+001 0.000000e+000
    endloop
  endfacet
  facet normal -0.000000e+000 -0.000000e+000 -1.000000e+000
    outer loop
      vertex   -5.500000e+001 -5.500000e+001 0.000000e+000
      vertex   -3.500000e+001 -6.500000e+001 0.000000e+000
      vertex   -6.500000e+001 -6.500000e+001 0.000000e+000
    endloop
  endfacet
  facet normal 0.000000e+000 0.000000e+000 -1.000000e+000
    outer loop
      vertex   -5.500000e+001 -5.500000e+001 0.000000e+000
      vertex   -4.500000e+001 -5.500000e+001 0.000000e+000
      vertex   -3.500000e+001 -6.500000e+001 0.000000e+000
    endloop
  endfacet
  facet normal 0.000000e+000 0.000000e+000 -1.000000e+000
    outer loop
      vertex   -7.000000e+001 -2.500000e+001 0.000000e+000
      vertex   -7.000000e+001 -1.500000e+001 0.000000e+000
      vertex   -6.500000e+001 -2.500000e+001 0.000000e+000
    endloop
  endfacet
  facet normal 0.000000e+000 0.000000e+000 -1.000000e+000
    outer loop
      vertex   -6.500000e+001 -2.500000e+001 0.000000e+000
      vertex   -7.000000e+001 -1.500000e+001 0.000000e+000
      vertex   -6.500000e+001 -1.500000e+001 0.000000e+000
    endloop
  endfacet
  facet normal 0.000000e+000 0.000000e+000 -1.000000e+000
    outer loop
      vertex   -6.500000e+001 -1.500000e+001 0.000000e+000
      vertex   -6.500000e+001 -5.000000e+000 0.000000e+000
      vertex   -3.500000e+001 -5.000000e+000 0.000000e+000
    endloop
  endfacet
  facet normal 0.000000e+000 0.000000e+000 -1.000000e+000
    outer loop
      vertex   -3.500000e+001 -5.000000e+000 0.000000e+000
      vertex   -6.500000e+001 -5.000000e+000 0.000000e+000
      vertex   -4.500000e+001 5.000000e+000 0.000000e+000
    endloop
  endfacet
  facet normal 0.000000e+000 0.000000e+000 -1.000000e+000
    outer loop
      vertex   -4.500000e+001 -5.500000e+001 0.000000e+000
      vertex   -4.500000e+001 -4.500000e+001 0.000000e+000
      vertex   -3.500000e+001 -4.500000e+001 0.000000e+000
    endloop
  endfacet
  facet normal 0.000000e+000 0.000000e+000 -1.000000e+000
    outer loop
      vertex   -3.500000e+001 -4.500000e+001 0.000000e+000
      vertex   -4.500000e+001 -4.500000e+001 0.000000e+000
      vertex   -3.500000e+001 -3.500000e+001 0.000000e+000
    endloop
  endfacet
  facet normal -0.000000e+000 0.000000e+000 -1.000000e+000
    outer loop
      vertex   -3.500000e+001 -3.500000e+001 0.000000e+000
      vertex   -4.500000e+001 -4.500000e+001 0.000000e+000
      vertex   -5.500000e+001 -4.500000e+001 0.000000e+000
    endloop
  endfacet
  facet normal -1.000000e+000 -0.000000e+000 -0.000000e+000
    outer loop
      vertex   -7.000000e+001 -9.500000e+001 2.000000e+000
      vertex   -7.000000e+001 -9.500000e+001 0.000000e+000
      vertex   -7.000000e+001 -1.050000e+002 2.000000e+000
    endloop
  endfacet
  facet normal -1.000000e+000 -0.000000e+000 -0.000000e+000
    outer loop
      vertex   -7.000000e+001 -1.050000e+002 2.000000e+000
      vertex   -7.000000e+001 -9.500000e+001 0.000000e+000
      vertex   -7.000000e+001 -1.050000e+002 0.000000e+000
    endloop
  endfacet
  facet normal -1.000000e+000 -0.000000e+000 -0.000000e+000
    outer loop
      vertex   -7.000000e+001 -7.500000e+001 2.000000e+000
      vertex   -7.000000e+001 -7.500000e+001 0.000000e+000
      vertex   -7.000000e+001 -8.500000e+001 2.000000e+000
    endloop
  endfacet
  facet normal -1.000000e+000 -0.000000e+000 -0.000000e+000
    outer loop
      vertex   -7.000000e+001 -8.500000e+001 2.000000e+000
      vertex   -7.000000e+001 -7.500000e+001 0.000000e+000
      vertex   -7.000000e+001 -8.500000e+001 0.000000e+000
    endloop
  endfacet
  facet normal -1.000000e+000 -0.000000e+000 -0.000000e+000
    outer loop
      vertex   -7.000000e+001 -5.500000e+001 2.000000e+000
      vertex   -7.000000e+001 -5.500000e+001 0.000000e+000
      vertex   -7.000000e+001 -6.500000e+001 2.000000e+000
    endloop
  endfacet
  facet normal -1.000000e+000 -0.000000e+000 -0.000000e+000
    outer loop
      vertex   -7.000000e+001 -6.500000e+001 2.000000e+000
      vertex   -7.000000e+001 -5.500000e+001 0.000000e+000
      vertex   -7.000000e+001 -6.500000e+001 0.000000e+000
    endloop
  endfacet
  facet normal -1.000000e+000 -0.000000e+000 -0.000000e+000
    outer loop
      vertex   -7.000000e+001 -3.500000e+001 2.000000e+000
      vertex   -7.000000e+001 -3.500000e+001 0.000000e+000
      vertex   -7.000000e+001 -4.500000e+001 2.000000e+000
    endloop
  endfacet
  facet normal -1.000000e+000 -0.000000e+000 -0.000000e+000
    outer loop
      vertex   -7.000000e+001 -4.500000e+001 2.000000e+000
      vertex   -7.000000e+001 -3.500000e+001 0.000000e+000
      vertex   -7.000000e+001 -4.500000e+001 0.000000e+000
    endloop
  endfacet
  facet normal -1.000000e+000 0.000000e+000 0.000000e+000
    outer loop
      vertex   -7.000000e+001 -5.000000e+000 0.000000e+000
      vertex   -7.000000e+001 -5.000000e+000 2.000000e+000
      vertex   -7.000000e+001 5.000000e+000 0.000000e+000
    endloop
  endfacet
  facet normal -1.000000e+000 0.000000e+000 0.000000e+000
    outer loop
      vertex   -7.000000e+001 5.000000e+000 0.000000e+000
      vertex   -7.000000e+001 -5.000000e+000 2.000000e+000
      vertex   -7.000000e+001 5.000000e+000 2.000000e+000
    endloop
  endfacet
  facet normal -1.000000e+000 0.000000e+000 0.000000e+000
    outer loop
      vertex   -7.000000e+001 -2.500000e+001 0.000000e+000
      vertex   -7.000000e+001 -2.500000e+001 2.000000e+000
      vertex   -7.000000e+001 -1.500000e+001 0.000000e+000
    endloop
  endfacet
  facet normal -1.000000e+000 0.000000e+000 0.000000e+000
    outer loop
      vertex   -7.000000e+001 -1.500000e+001 0.000000e+000
      vertex   -7.000000e+001 -2.500000e+001 2.000000e+000
      vertex   -7.000000e+001 -1.500000e+001 2.000000e+000
    endloop
  endfacet
  facet normal -2.131628e-015 -1.000000e+000 5.329071e-015
    outer loop
      vertex   -7.000000e+001 -2.500000e+001 2.000000e+000
      vertex   -7.000000e+001 -2.500000e+001 0.000000e+000
      vertex   -6.500000e+001 -2.500000e+001 2.000000e+000
    endloop
  endfacet
  facet normal 0.000000e+000 -1.000000e+000 -0.000000e+000
    outer loop
      vertex   -6.500000e+001 -2.500000e+001 2.000000e+000
      vertex   -7.000000e+001 -2.500000e+001 0.000000e+000
      vertex   -6.500000e+001 -2.500000e+001 0.000000e+000
    endloop
  endfacet
  facet normal 0.000000e+000 -1.000000e+000 0.000000e+000
    outer loop
      vertex   -7.000000e+001 -4.500000e+001 2.000000e+000
      vertex   -7.000000e+001 -4.500000e+001 0.000000e+000
      vertex   -6.500000e+001 -4.500000e+001 2.000000e+000
    endloop
  endfacet
  facet normal 0.000000e+000 -1.000000e+000 -0.000000e+000
    outer loop
      vertex   -6.500000e+001 -4.500000e+001 2.000000e+000
      vertex   -7.000000e+001 -4.500000e+001 0.000000e+000
      vertex   -6.500000e+001 -4.500000e+001 0.000000e+000
    endloop
  endfacet
  facet normal 0.000000e+000 -1.000000e+000 0.000000e+000
    outer loop
      vertex   -7.000000e+001 -5.000000e+000 2.000000e+000
      vertex   -7.000000e+001 -5.000000e+000 0.000000e+000
      vertex   -6.500000e+001 -5.000000e+000 2.000000e+000
    endloop
  endfacet
  facet normal 0.000000e+000 -1.000000e+000 -0.000000e+000
    outer loop
      vertex   -6.500000e+001 -5.000000e+000 2.000000e+000
      vertex   -7.000000e+001 -5.000000e+000 0.000000e+000
      vertex   -6.500000e+001 -5.000000e+000 0.000000e+000
    endloop
  endfacet
  facet normal 0.000000e+000 -1.000000e+000 0.000000e+000
    outer loop
      vertex   -7.000000e+001 -6.500000e+001 2.000000e+000
      vertex   -7.000000e+001 -6.500000e+001 0.000000e+000
      vertex   -6.500000e+001 -6.500000e+001 2.000000e+000
    endloop
  endfacet
  facet normal 0.000000e+000 -1.000000e+000 -0.000000e+000
    outer loop
      vertex   -6.500000e+001 -6.500000e+001 2.000000e+000
      vertex   -7.000000e+001 -6.500000e+001 0.000000e+000
      vertex   -6.500000e+001 -6.500000e+001 0.000000e+000
    endloop
  endfacet
  facet normal 0.000000e+000 -1.000000e+000 0.000000e+000
    outer loop
      vertex   -7.000000e+001 -8.500000e+001 2.000000e+000
      vertex   -7.000000e+001 -8.500000e+001 0.000000e+000
      vertex   -6.500000e+001 -8.500000e+001 2.000000e+000
    endloop
  endfacet
  facet normal 0.000000e+000 -1.000000e+000 -0.000000e+000
    outer loop
      vertex   -6.500000e+001 -8.500000e+001 2.000000e+000
      vertex   -7.000000e+001 -8.500000e+001 0.000000e+000
      vertex   -6.500000e+001 -8.500000e+001 0.000000e+000
    endloop
  endfacet
  facet normal 2.842171e-015 -1.000000e+000 -7.105427e-015
    outer loop
      vertex   -7.000000e+001 -1.050000e+002 2.000000e+000
      vertex   -7.000000e+001 -1.050000e+002 0.000000e+000
      vertex   -6.500000e+001 -1.050000e+002 2.000000e+000
    endloop
  endfacet
  facet normal 0.000000e+000 -1.000000e+000 -0.000000e+000
    outer loop
      vertex   -6.500000e+001 -1.050000e+002 2.000000e+000
      vertex   -7.000000e+001 -1.050000e+002 0.000000e+000
      vertex   -6.500000e+001 -1.050000e+002 0.000000e+000
    endloop
  endfacet
  facet normal -0.000000e+000 1.000000e+000 0.000000e+000
    outer loop
      vertex   -7.000000e+001 -3.500000e+001 0.000000e+000
      vertex   -7.000000e+001 -3.500000e+001 2.000000e+000
      vertex   -6.500000e+001 -3.500000e+001 0.000000e+000
    endloop
  endfacet
  facet normal 0.000000e+000 1.000000e+000 -0.000000e+000
    outer loop
      vertex   -6.500000e+001 -3.500000e+001 0.000000e+000
      vertex   -7.000000e+001 -3.500000e+001 2.000000e+000
      vertex   -6.500000e+001 -3.500000e+001 2.000000e+000
    endloop
  endfacet
  facet normal 0.000000e+000 1.000000e+000 0.000000e+000
    outer loop
      vertex   -3.000000e+001 -3.500000e+001 2.000000e+000
      vertex   -3.000000e+001 -3.500000e+001 0.000000e+000
      vertex   -3.500000e+001 -3.500000e+001 2.000000e+000
    endloop
  endfacet
  facet normal 0.000000e+000 1.000000e+000 0.000000e+000
    outer loop
      vertex   -3.500000e+001 -3.500000e+001 2.000000e+000
      vertex   -3.000000e+001 -3.500000e+001 0.000000e+000
      vertex   -3.500000e+001 -3.500000e+001 0.000000e+000
    endloop
  endfacet
  facet normal 1.000000e+000 0.000000e+000 -0.000000e+000
    outer loop
      vertex   -3.500000e+001 -2.500000e+001 0.000000e+000
      vertex   -3.500000e+001 -2.500000e+001 2.000000e+000
      vertex   -3.500000e+001 -3.500000e+001 0.000000e+000
    endloop
  endfacet
  facet normal 1.000000e+000 0.000000e+000 -0.000000e+000
    outer loop
      vertex   -3.500000e+001 -3.500000e+001 0.000000e+000
      vertex   -3.500000e+001 -2.500000e+001 2.000000e+000
      vertex   -3.500000e+001 -3.500000e+001 2.000000e+000
    endloop
  endfacet
  facet normal -1.000000e+000 -1.421085e-015 -0.000000e+000
    outer loop
      vertex   -6.500000e+001 -2.500000e+001 2.000000e+000
      vertex   -6.500000e+001 -2.500000e+001 0.000000e+000
      vertex   -6.500000e+001 -3.500000e+001 2.000000e+000
    endloop
  endfacet
  facet normal -1.000000e+000 -1.421085e-015 0.000000e+000
    outer loop
      vertex   -6.500000e+001 -3.500000e+001 2.000000e+000
      vertex   -6.500000e+001 -2.500000e+001 0.000000e+000
      vertex   -6.500000e+001 -3.500000e+001 0.000000e+000
    endloop
  endfacet
  facet normal -0.000000e+000 1.000000e+000 0.000000e+000
    outer loop
      vertex   -7.000000e+001 -1.500000e+001 0.000000e+000
      vertex   -7.000000e+001 -1.500000e+001 2.000000e+000
      vertex   -6.500000e+001 -1.500000e+001 0.000000e+000
    endloop
  endfacet
  facet normal 0.000000e+000 1.000000e+000 -0.000000e+000
    outer loop
      vertex   -6.500000e+001 -1.500000e+001 0.000000e+000
      vertex   -7.000000e+001 -1.500000e+001 2.000000e+000
      vertex   -6.500000e+001 -1.500000e+001 2.000000e+000
    endloop
  endfacet
  facet normal -1.000000e+000 -0.000000e+000 -0.000000e+000
    outer loop
      vertex   -6.500000e+001 -5.000000e+000 2.000000e+000
      vertex   -6.500000e+001 -5.000000e+000 0.000000e+000
      vertex   -6.500000e+001 -1.500000e+001 2.000000e+000
    endloop
  endfacet
  facet normal -1.000000e+000 -0.000000e+000 -0.000000e+000
    outer loop
      vertex   -6.500000e+001 -1.500000e+001 2.000000e+000
      vertex   -6.500000e+001 -5.000000e+000 0.000000e+000
      vertex   -6.500000e+001 -1.500000e+001 0.000000e+000
    endloop
  endfacet
  facet normal 8.881784e-016 1.000000e+000 -0.000000e+000
    outer loop
      vertex   -7.000000e+001 5.000000e+000 0.000000e+000
      vertex   -7.000000e+001 5.000000e+000 2.000000e+000
      vertex   -6.500000e+001 5.000000e+000 0.000000e+000
    endloop
  endfacet
  facet normal 8.881784e-016 1.000000e+000 0.000000e+000
    outer loop
      vertex   -6.500000e+001 5.000000e+000 0.000000e+000
      vertex   -7.000000e+001 5.000000e+000 2.000000e+000
      vertex   -6.500000e+001 5.000000e+000 2.000000e+000
    endloop
  endfacet
  facet normal 4.440892e-016 1.000000e+000 0.000000e+000
    outer loop
      vertex   -4.500000e+001 5.000000e+000 2.000000e+000
      vertex   -4.500000e+001 5.000000e+000 0.000000e+000
      vertex   -5.500000e+001 5.000000e+000 2.000000e+000
    endloop
  endfacet
  facet normal 4.440892e-016 1.000000e+000 0.000000e+000
    outer loop
      vertex   -5.500000e+001 5.000000e+000 2.000000e+000
      vertex   -4.500000e+001 5.000000e+000 0.000000e+000
      vertex   -5.500000e+001 5.000000e+000 0.000000e+000
    endloop
  endfacet
  facet normal 1.000000e+000 -1.776357e-015 0.000000e+000
    outer loop
      vertex   -3.000000e+001 -5.000000e+000 2.000000e+000
      vertex   -3.000000e+001 -5.000000e+000 0.000000e+000
      vertex   -3.000000e+001 5.000000e+000 2.000000e+000
    endloop
  endfacet
  facet normal 1.000000e+000 -1.776357e-015 0.000000e+000
    outer loop
      vertex   -3.000000e+001 5.000000e+000 2.000000e+000
      vertex   -3.000000e+001 -5.000000e+000 0.000000e+000
      vertex   -3.000000e+001 5.000000e+000 0.000000e+000
    endloop
  endfacet
  facet normal 1.000000e+000 -0.000000e+000 0.000000e+000
    outer loop
      vertex   -3.000000e+001 -2.500000e+001 2.000000e+000
      vertex   -3.000000e+001 -2.500000e+001 0.000000e+000
      vertex   -3.000000e+001 -1.500000e+001 2.000000e+000
    endloop
  endfacet
  facet normal 1.000000e+000 -0.000000e+000 0.000000e+000
    outer loop
      vertex   -3.000000e+001 -1.500000e+001 2.000000e+000
      vertex   -3.000000e+001 -2.500000e+001 0.000000e+000
      vertex   -3.000000e+001 -1.500000e+001 0.000000e+000
    endloop
  endfacet
  facet normal 0.000000e+000 -1.000000e+000 0.000000e+000
    outer loop
      vertex   -3.500000e+001 -2.500000e+001 2.000000e+000
      vertex   -3.500000e+001 -2.500000e+001 0.000000e+000
      vertex   -3.000000e+001 -2.500000e+001 2.000000e+000
    endloop
  endfacet
  facet normal 0.000000e+000 -1.000000e+000 -0.000000e+000
    outer loop
      vertex   -3.000000e+001 -2.500000e+001 2.000000e+000
      vertex   -3.500000e+001 -2.500000e+001 0.000000e+000
      vertex   -3.000000e+001 -2.500000e+001 0.000000e+000
    endloop
  endfacet
  facet normal 0.000000e+000 -1.000000e+000 0.000000e+000
    outer loop
      vertex   -3.500000e+001 -5.000000e+000 2.000000e+000
      vertex   -3.500000e+001 -5.000000e+000 0.000000e+000
      vertex   -3.000000e+001 -5.000000e+000 2.000000e+000
    endloop
  endfacet
  facet normal 0.000000e+000 -1.000000e+000 -0.000000e+000
    outer loop
      vertex   -3.000000e+001 -5.000000e+000 2.000000e+000
      vertex   -3.500000e+001 -5.000000e+000 0.000000e+000
      vertex   -3.000000e+001 -5.000000e+000 0.000000e+000
    endloop
  endfacet
  facet normal 0.000000e+000 1.000000e+000 0.000000e+000
    outer loop
      vertex   -3.000000e+001 -1.500000e+001 2.000000e+000
      vertex   -3.000000e+001 -1.500000e+001 0.000000e+000
      vertex   -3.500000e+001 -1.500000e+001 2.000000e+000
    endloop
  endfacet
  facet normal 0.000000e+000 1.000000e+000 0.000000e+000
    outer loop
      vertex   -3.500000e+001 -1.500000e+001 2.000000e+000
      vertex   -3.000000e+001 -1.500000e+001 0.000000e+000
      vertex   -3.500000e+001 -1.500000e+001 0.000000e+000
    endloop
  endfacet
  facet normal 1.000000e+000 -0.000000e+000 0.000000e+000
    outer loop
      vertex   -3.500000e+001 -1.500000e+001 2.000000e+000
      vertex   -3.500000e+001 -1.500000e+001 0.000000e+000
      vertex   -3.500000e+001 -5.000000e+000 2.000000e+000
    endloop
  endfacet
  facet normal 1.000000e+000 -0.000000e+000 0.000000e+000
    outer loop
      vertex   -3.500000e+001 -5.000000e+000 2.000000e+000
      vertex   -3.500000e+001 -1.500000e+001 0.000000e+000
      vertex   -3.500000e+001 -5.000000e+000 0.000000e+000
    endloop
  endfacet
  facet normal 0.000000e+000 1.000000e+000 0.000000e+000
    outer loop
      vertex   -3.000000e+001 5.000000e+000 2.000000e+000
      vertex   -3.000000e+001 5.000000e+000 0.000000e+000
      vertex   -3.500000e+001 5.000000e+000 2.000000e+000
    endloop
  endfacet
  facet normal 0.000000e+000 1.000000e+000 0.000000e+000
    outer loop
      vertex   -3.500000e+001 5.000000e+000 2.000000e+000
      vertex   -3.000000e+001 5.000000e+000 0.000000e+000
      vertex   -3.500000e+001 5.000000e+000 0.000000e+000
    endloop
  endfacet
  facet normal 1.000000e+000 0.000000e+000 3.552714e-015
    outer loop
      vertex   -3.500000e+001 1.000000e+001 0.000000e+000
      vertex   -3.500000e+001 1.000000e+001 2.000000e+000
      vertex   -3.500000e+001 5.000000e+000 0.000000e+000
    endloop
  endfacet
  facet normal 1.000000e+000 1.421085e-015 0.000000e+000
    outer loop
      vertex   -3.500000e+001 5.000000e+000 0.000000e+000
      vertex   -3.500000e+001 1.000000e+001 2.000000e+000
      vertex   -3.500000e+001 5.000000e+000 2.000000e+000
    endloop
  endfacet
  facet normal 1.000000e+000 0.000000e+000 -3.552714e-015
    outer loop
      vertex   -5.500000e+001 1.000000e+001 0.000000e+000
      vertex   -5.500000e+001 1.000000e+001 2.000000e+000
      vertex   -5.500000e+001 5.000000e+000 0.000000e+000
    endloop
  endfacet
  facet normal 1.000000e+000 -1.421085e-015 0.000000e+000
    outer loop
      vertex   -5.500000e+001 5.000000e+000 0.000000e+000
      vertex   -5.500000e+001 1.000000e+001 2.000000e+000
      vertex   -5.500000e+001 5.000000e+000 2.000000e+000
    endloop
  endfacet
  facet normal 0.000000e+000 -1.000000e+000 0.000000e+000
    outer loop
      vertex   -5.500000e+001 -1.050000e+002 2.000000e+000
      vertex   -5.500000e+001 -1.050000e+002 0.000000e+000
      vertex   -4.500000e+001 -1.050000e+002 2.000000e+000
    endloop
  endfacet
  facet normal 0.000000e+000 -1.000000e+000 -0.000000e+000
    outer loop
      vertex   -4.500000e+001 -1.050000e+002 2.000000e+000
      vertex   -5.500000e+001 -1.050000e+002 0.000000e+000
      vertex   -4.500000e+001 -1.050000e+002 0.000000e+000
    endloop
  endfacet
  facet normal 1.000000e+000 -0.000000e+000 0.000000e+000
    outer loop
      vertex   -3.500000e+001 -9.500000e+001 2.000000e+000
      vertex   -3.500000e+001 -9.500000e+001 0.000000e+000
      vertex   -3.500000e+001 -8.500000e+001 2.000000e+000
    endloop
  endfacet
  facet normal 1.000000e+000 -0.000000e+000 0.000000e+000
    outer loop
      vertex   -3.500000e+001 -8.500000e+001 2.000000e+000
      vertex   -3.500000e+001 -9.500000e+001 0.000000e+000
      vertex   -3.500000e+001 -8.500000e+001 0.000000e+000
    endloop
  endfacet
  facet normal 0.000000e+000 1.000000e+000 0.000000e+000
    outer loop
      vertex   -3.000000e+001 -9.500000e+001 2.000000e+000
      vertex   -3.000000e+001 -9.500000e+001 0.000000e+000
      vertex   -3.500000e+001 -9.500000e+001 2.000000e+000
    endloop
  endfacet
  facet normal 0.000000e+000 1.000000e+000 0.000000e+000
    outer loop
      vertex   -3.500000e+001 -9.500000e+001 2.000000e+000
      vertex   -3.000000e+001 -9.500000e+001 0.000000e+000
      vertex   -3.500000e+001 -9.500000e+001 0.000000e+000
    endloop
  endfacet
  facet normal 1.000000e+000 -0.000000e+000 0.000000e+000
    outer loop
      vertex   -3.500000e+001 -1.100000e+002 2.000000e+000
      vertex   -3.500000e+001 -1.100000e+002 0.000000e+000
      vertex   -3.500000e+001 -1.050000e+002 2.000000e+000
    endloop
  endfacet
  facet normal 1.000000e+000 -0.000000e+000 0.000000e+000
    outer loop
      vertex   -3.500000e+001 -1.050000e+002 2.000000e+000
      vertex   -3.500000e+001 -1.100000e+002 0.000000e+000
      vertex   -3.500000e+001 -1.050000e+002 0.000000e+000
    endloop
  endfacet
  facet normal 0.000000e+000 -1.000000e+000 0.000000e+000
    outer loop
      vertex   -3.500000e+001 -1.050000e+002 2.000000e+000
      vertex   -3.500000e+001 -1.050000e+002 0.000000e+000
      vertex   -3.000000e+001 -1.050000e+002 2.000000e+000
    endloop
  endfacet
  facet normal 0.000000e+000 -1.000000e+000 -0.000000e+000
    outer loop
      vertex   -3.000000e+001 -1.050000e+002 2.000000e+000
      vertex   -3.500000e+001 -1.050000e+002 0.000000e+000
      vertex   -3.000000e+001 -1.050000e+002 0.000000e+000
    endloop
  endfacet
  facet normal 1.000000e+000 -0.000000e+000 0.000000e+000
    outer loop
      vertex   -3.000000e+001 -1.050000e+002 2.000000e+000
      vertex   -3.000000e+001 -1.050000e+002 0.000000e+000
      vertex   -3.000000e+001 -9.500000e+001 2.000000e+000
    endloop
  endfacet
  facet normal 1.000000e+000 -0.000000e+000 0.000000e+000
    outer loop
      vertex   -3.000000e+001 -9.500000e+001 2.000000e+000
      vertex   -3.000000e+001 -1.050000e+002 0.000000e+000
      vertex   -3.000000e+001 -9.500000e+001 0.000000e+000
    endloop
  endfacet
  facet normal -0.000000e+000 1.000000e+000 0.000000e+000
    outer loop
      vertex   -7.000000e+001 -9.500000e+001 0.000000e+000
      vertex   -7.000000e+001 -9.500000e+001 2.000000e+000
      vertex   -6.500000e+001 -9.500000e+001 0.000000e+000
    endloop
  endfacet
  facet normal 0.000000e+000 1.000000e+000 -0.000000e+000
    outer loop
      vertex   -6.500000e+001 -9.500000e+001 0.000000e+000
      vertex   -7.000000e+001 -9.500000e+001 2.000000e+000
      vertex   -6.500000e+001 -9.500000e+001 2.000000e+000
    endloop
  endfacet
  facet normal -1.000000e+000 0.000000e+000 0.000000e+000
    outer loop
      vertex   -6.500000e+001 -1.100000e+002 0.000000e+000
      vertex   -6.500000e+001 -1.100000e+002 2.000000e+000
      vertex   -6.500000e+001 -1.050000e+002 0.000000e+000
    endloop
  endfacet
  facet normal -1.000000e+000 0.000000e+000 0.000000e+000
    outer loop
      vertex   -6.500000e+001 -1.050000e+002 0.000000e+000
      vertex   -6.500000e+001 -1.100000e+002 2.000000e+000
      vertex   -6.500000e+001 -1.050000e+002 2.000000e+000
    endloop
  endfacet
  facet normal -1.000000e+000 0.000000e+000 0.000000e+000
    outer loop
      vertex   -6.500000e+001 -9.500000e+001 0.000000e+000
      vertex   -6.500000e+001 -9.500000e+001 2.000000e+000
      vertex   -6.500000e+001 -8.500000e+001 0.000000e+000
    endloop
  endfacet
  facet normal -1.000000e+000 0.000000e+000 0.000000e+000
    outer loop
      vertex   -6.500000e+001 -8.500000e+001 0.000000e+000
      vertex   -6.500000e+001 -9.500000e+001 2.000000e+000
      vertex   -6.500000e+001 -8.500000e+001 2.000000e+000
    endloop
  endfacet
  facet normal -1.000000e+000 0.000000e+000 0.000000e+000
    outer loop
      vertex   -4.500000e+001 -1.100000e+002 0.000000e+000
      vertex   -4.500000e+001 -1.100000e+002 2.000000e+000
      vertex   -4.500000e+001 -1.050000e+002 0.000000e+000
    endloop
  endfacet
  facet normal -1.000000e+000 0.000000e+000 0.000000e+000
    outer loop
      vertex   -4.500000e+001 -1.050000e+002 0.000000e+000
      vertex   -4.500000e+001 -1.100000e+002 2.000000e+000
      vertex   -4.500000e+001 -1.050000e+002 2.000000e+000
    endloop
  endfacet
  facet normal 1.000000e+000 -0.000000e+000 0.000000e+000
    outer loop
      vertex   -5.500000e+001 -1.100000e+002 2.000000e+000
      vertex   -5.500000e+001 -1.100000e+002 0.000000e+000
      vertex   -5.500000e+001 -1.050000e+002 2.000000e+000
    endloop
  endfacet
  facet normal 1.000000e+000 -0.000000e+000 0.000000e+000
    outer loop
      vertex   -5.500000e+001 -1.050000e+002 2.000000e+000
      vertex   -5.500000e+001 -1.100000e+002 0.000000e+000
      vertex   -5.500000e+001 -1.050000e+002 0.000000e+000
    endloop
  endfacet
  facet normal -2.842171e-015 -1.000000e+000 0.000000e+000
    outer loop
      vertex   -3.500000e+001 -1.100000e+002 0.000000e+000
      vertex   -3.500000e+001 -1.100000e+002 2.000000e+000
      vertex   -4.500000e+001 -1.100000e+002 0.000000e+000
    endloop
  endfacet
  facet normal -2.842171e-015 -1.000000e+000 0.000000e+000
    outer loop
      vertex   -4.500000e+001 -1.100000e+002 0.000000e+000
      vertex   -3.500000e+001 -1.100000e+002 2.000000e+000
      vertex   -4.500000e+001 -1.100000e+002 2.000000e+000
    endloop
  endfacet
  facet normal 0.000000e+000 -1.000000e+000 0.000000e+000
    outer loop
      vertex   -6.500000e+001 -1.100000e+002 2.000000e+000
      vertex   -6.500000e+001 -1.100000e+002 0.000000e+000
      vertex   -5.500000e+001 -1.100000e+002 2.000000e+000
    endloop
  endfacet
  facet normal 0.000000e+000 -1.000000e+000 -0.000000e+000
    outer loop
      vertex   -5.500000e+001 -1.100000e+002 2.000000e+000
      vertex   -6.500000e+001 -1.100000e+002 0.000000e+000
      vertex   -5.500000e+001 -1.100000e+002 0.000000e+000
    endloop
  endfacet
  facet normal 1.000000e+000 -0.000000e+000 0.000000e+000
    outer loop
      vertex   -5.500000e+001 -5.500000e+001 2.000000e+000
      vertex   -5.500000e+001 -5.500000e+001 0.000000e+000
      vertex   -5.500000e+001 -4.500000e+001 2.000000e+000
    endloop
  endfacet
  facet normal 1.000000e+000 -0.000000e+000 0.000000e+000
    outer loop
      vertex   -5.500000e+001 -4.500000e+001 2.000000e+000
      vertex   -5.500000e+001 -5.500000e+001 0.000000e+000
      vertex   -5.500000e+001 -4.500000e+001 0.000000e+000
    endloop
  endfacet
  facet normal 1.000000e+000 -0.000000e+000 0.000000e+000
    outer loop
      vertex   -3.500000e+001 -5.500000e+001 2.000000e+000
      vertex   -3.500000e+001 -5.500000e+001 0.000000e+000
      vertex   -3.500000e+001 -4.500000e+001 2.000000e+000
    endloop
  endfacet
  facet normal 1.000000e+000 -0.000000e+000 0.000000e+000
    outer loop
      vertex   -3.500000e+001 -4.500000e+001 2.000000e+000
      vertex   -3.500000e+001 -5.500000e+001 0.000000e+000
      vertex   -3.500000e+001 -4.500000e+001 0.000000e+000
    endloop
  endfacet
  facet normal 0.000000e+000 1.000000e+000 0.000000e+000
    outer loop
      vertex   -3.000000e+001 -5.500000e+001 2.000000e+000
      vertex   -3.000000e+001 -5.500000e+001 0.000000e+000
      vertex   -3.500000e+001 -5.500000e+001 2.000000e+000
    endloop
  endfacet
  facet normal 0.000000e+000 1.000000e+000 0.000000e+000
    outer loop
      vertex   -3.500000e+001 -5.500000e+001 2.000000e+000
      vertex   -3.000000e+001 -5.500000e+001 0.000000e+000
      vertex   -3.500000e+001 -5.500000e+001 0.000000e+000
    endloop
  endfacet
  facet normal 1.000000e+000 -0.000000e+000 0.000000e+000
    outer loop
      vertex   -3.500000e+001 -7.500000e+001 2.000000e+000
      vertex   -3.500000e+001 -7.500000e+001 0.000000e+000
      vertex   -3.500000e+001 -6.500000e+001 2.000000e+000
    endloop
  endfacet
  facet normal 1.000000e+000 -0.000000e+000 0.000000e+000
    outer loop
      vertex   -3.500000e+001 -6.500000e+001 2.000000e+000
      vertex   -3.500000e+001 -7.500000e+001 0.000000e+000
      vertex   -3.500000e+001 -6.500000e+001 0.000000e+000
    endloop
  endfacet
  facet normal 0.000000e+000 1.000000e+000 0.000000e+000
    outer loop
      vertex   -3.000000e+001 -7.500000e+001 2.000000e+000
      vertex   -3.000000e+001 -7.500000e+001 0.000000e+000
      vertex   -3.500000e+001 -7.500000e+001 2.000000e+000
    endloop
  endfacet
  facet normal 0.000000e+000 1.000000e+000 0.000000e+000
    outer loop
      vertex   -3.500000e+001 -7.500000e+001 2.000000e+000
      vertex   -3.000000e+001 -7.500000e+001 0.000000e+000
      vertex   -3.500000e+001 -7.500000e+001 0.000000e+000
    endloop
  endfacet
  facet normal 0.000000e+000 -1.000000e+000 0.000000e+000
    outer loop
      vertex   -3.500000e+001 -6.500000e+001 2.000000e+000
      vertex   -3.500000e+001 -6.500000e+001 0.000000e+000
      vertex   -3.000000e+001 -6.500000e+001 2.000000e+000
    endloop
  endfacet
  facet normal 0.000000e+000 -1.000000e+000 -0.000000e+000
    outer loop
      vertex   -3.000000e+001 -6.500000e+001 2.000000e+000
      vertex   -3.500000e+001 -6.500000e+001 0.000000e+000
      vertex   -3.000000e+001 -6.500000e+001 0.000000e+000
    endloop
  endfacet
  facet normal 0.000000e+000 -1.000000e+000 0.000000e+000
    outer loop
      vertex   -3.500000e+001 -8.500000e+001 2.000000e+000
      vertex   -3.500000e+001 -8.500000e+001 0.000000e+000
      vertex   -3.000000e+001 -8.500000e+001 2.000000e+000
    endloop
  endfacet
  facet normal 0.000000e+000 -1.000000e+000 -0.000000e+000
    outer loop
      vertex   -3.000000e+001 -8.500000e+001 2.000000e+000
      vertex   -3.500000e+001 -8.500000e+001 0.000000e+000
      vertex   -3.000000e+001 -8.500000e+001 0.000000e+000
    endloop
  endfacet
  facet normal 1.000000e+000 -0.000000e+000 0.000000e+000
    outer loop
      vertex   -3.000000e+001 -8.500000e+001 2.000000e+000
      vertex   -3.000000e+001 -8.500000e+001 0.000000e+000
      vertex   -3.000000e+001 -7.500000e+001 2.000000e+000
    endloop
  endfacet
  facet normal 1.000000e+000 -0.000000e+000 0.000000e+000
    outer loop
      vertex   -3.000000e+001 -7.500000e+001 2.000000e+000
      vertex   -3.000000e+001 -8.500000e+001 0.000000e+000
      vertex   -3.000000e+001 -7.500000e+001 0.000000e+000
    endloop
  endfacet
  facet normal 1.000000e+000 -1.776357e-015 0.000000e+000
    outer loop
      vertex   -3.000000e+001 -6.500000e+001 2.000000e+000
      vertex   -3.000000e+001 -6.500000e+001 0.000000e+000
      vertex   -3.000000e+001 -5.500000e+001 2.000000e+000
    endloop
  endfacet
  facet normal 1.000000e+000 -1.776357e-015 0.000000e+000
    outer loop
      vertex   -3.000000e+001 -5.500000e+001 2.000000e+000
      vertex   -3.000000e+001 -6.500000e+001 0.000000e+000
      vertex   -3.000000e+001 -5.500000e+001 0.000000e+000
    endloop
  endfacet
  facet normal 0.000000e+000 1.000000e+000 0.000000e+000
    outer loop
      vertex   -4.500000e+001 -5.500000e+001 2.000000e+000
      vertex   -4.500000e+001 -5.500000e+001 0.000000e+000
      vertex   -5.500000e+001 -5.500000e+001 2.000000e+000
    endloop
  endfacet
  facet normal 0.000000e+000 1.000000e+000 0.000000e+000
    outer loop
      vertex   -5.500000e+001 -5.500000e+001 2.000000e+000
      vertex   -4.500000e+001 -5.500000e+001 0.000000e+000
      vertex   -5.500000e+001 -5.500000e+001 0.000000e+000
    endloop
  endfacet
  facet normal -0.000000e+000 1.000000e+000 0.000000e+000
    outer loop
      vertex   -7.000000e+001 -5.500000e+001 0.000000e+000
      vertex   -7.000000e+001 -5.500000e+001 2.000000e+000
      vertex   -6.500000e+001 -5.500000e+001 0.000000e+000
    endloop
  endfacet
  facet normal 0.000000e+000 1.000000e+000 -0.000000e+000
    outer loop
      vertex   -6.500000e+001 -5.500000e+001 0.000000e+000
      vertex   -7.000000e+001 -5.500000e+001 2.000000e+000
      vertex   -6.500000e+001 -5.500000e+001 2.000000e+000
    endloop
  endfacet
  facet normal -1.000000e+000 -0.000000e+000 -0.000000e+000
    outer loop
      vertex   -6.500000e+001 -6.500000e+001 2.000000e+000
      vertex   -6.500000e+001 -6.500000e+001 0.000000e+000
      vertex   -6.500000e+001 -7.500000e+001 2.000000e+000
    endloop
  endfacet
  facet normal -1.000000e+000 -0.000000e+000 -0.000000e+000
    outer loop
      vertex   -6.500000e+001 -7.500000e+001 2.000000e+000
      vertex   -6.500000e+001 -6.500000e+001 0.000000e+000
      vertex   -6.500000e+001 -7.500000e+001 0.000000e+000
    endloop
  endfacet
  facet normal -0.000000e+000 1.000000e+000 0.000000e+000
    outer loop
      vertex   -7.000000e+001 -7.500000e+001 0.000000e+000
      vertex   -7.000000e+001 -7.500000e+001 2.000000e+000
      vertex   -6.500000e+001 -7.500000e+001 0.000000e+000
    endloop
  endfacet
  facet normal 0.000000e+000 1.000000e+000 -0.000000e+000
    outer loop
      vertex   -6.500000e+001 -7.500000e+001 0.000000e+000
      vertex   -7.000000e+001 -7.500000e+001 2.000000e+000
      vertex   -6.500000e+001 -7.500000e+001 2.000000e+000
    endloop
  endfacet
  facet normal -1.000000e+000 -1.421085e-015 0.000000e+000
    outer loop
      vertex   -6.500000e+001 -5.500000e+001 0.000000e+000
      vertex   -6.500000e+001 -5.500000e+001 2.000000e+000
      vertex   -6.500000e+001 -4.500000e+001 0.000000e+000
    endloop
  endfacet
  facet normal -1.000000e+000 -1.421085e-015 0.000000e+000
    outer loop
      vertex   -6.500000e+001 -4.500000e+001 0.000000e+000
      vertex   -6.500000e+001 -5.500000e+001 2.000000e+000
      vertex   -6.500000e+001 -4.500000e+001 2.000000e+000
    endloop
  endfacet
  facet normal -1.000000e+000 0.000000e+000 0.000000e+000
    outer loop
      vertex   -4.500000e+001 -5.500000e+001 0.000000e+000
      vertex   -4.500000e+001 -5.500000e+001 2.000000e+000
      vertex   -4.500000e+001 -4.500000e+001 0.000000e+000
    endloop
  endfacet
  facet normal -1.000000e+000 0.000000e+000 0.000000e+000
    outer loop
      vertex   -4.500000e+001 -4.500000e+001 0.000000e+000
      vertex   -4.500000e+001 -5.500000e+001 2.000000e+000
      vertex   -4.500000e+001 -4.500000e+001 2.000000e+000
    endloop
  endfacet
  facet normal 0.000000e+000 -1.000000e+000 0.000000e+000
    outer loop
      vertex   -5.500000e+001 -4.500000e+001 2.000000e+000
      vertex   -5.500000e+001 -4.500000e+001 0.000000e+000
      vertex   -4.500000e+001 -4.500000e+001 2.000000e+000
    endloop
  endfacet
  facet normal 0.000000e+000 -1.000000e+000 -0.000000e+000
    outer loop
      vertex   -4.500000e+001 -4.500000e+001 2.000000e+000
      vertex   -5.500000e+001 -4.500000e+001 0.000000e+000
      vertex   -4.500000e+001 -4.500000e+001 0.000000e+000
    endloop
  endfacet
  facet normal 0.000000e+000 -1.000000e+000 0.000000e+000
    outer loop
      vertex   -3.500000e+001 -4.500000e+001 2.000000e+000
      vertex   -3.500000e+001 -4.500000e+001 0.000000e+000
      vertex   -3.000000e+001 -4.500000e+001 2.000000e+000
    endloop
  endfacet
  facet normal 0.000000e+000 -1.000000e+000 -0.000000e+000
    outer loop
      vertex   -3.000000e+001 -4.500000e+001 2.000000e+000
      vertex   -3.500000e+001 -4.500000e+001 0.000000e+000
      vertex   -3.000000e+001 -4.500000e+001 0.000000e+000
    endloop
  endfacet
  facet normal 1.000000e+000 -0.000000e+000 0.000000e+000
    outer loop
      vertex   -3.000000e+001 -4.500000e+001 2.000000e+000
      vertex   -3.000000e+001 -4.500000e+001 0.000000e+000
      vertex   -3.000000e+001 -3.500000e+001 2.000000e+000
    endloop
  endfacet
  facet normal 1.000000e+000 -0.000000e+000 0.000000e+000
    outer loop
      vertex   -3.000000e+001 -3.500000e+001 2.000000e+000
      vertex   -3.000000e+001 -4.500000e+001 0.000000e+000
      vertex   -3.000000e+001 -3.500000e+001 0.000000e+000
    endloop
  endfacet
  facet normal 0.000000e+000 -0.000000e+000 1.000000e+000
    outer loop
      vertex   -5.300000e+001 -9.500000e+001 2.000000e+000
      vertex   -4.700000e+001 -9.500000e+001 2.000000e+000
      vertex   -5.300000e+001 -7.000000e+001 2.000000e+000
    endloop
  endfacet
  facet normal -0.000000e+000 0.000000e+000 1.000000e+000
    outer loop
      vertex   -5.300000e+001 -7.000000e+001 2.000000e+000
      vertex   -4.700000e+001 -9.500000e+001 2.000000e+000
      vertex   -4.700000e+001 -7.000000e+001 2.000000e+000
    endloop
  endfacet
  facet normal 0.000000e+000 -2.960595e-016 1.000000e+000
    outer loop
      vertex   -5.500000e+001 -5.500000e+001 2.000000e+000
      vertex   -4.700000e+001 -7.000000e+001 2.000000e+000
      vertex   -4.500000e+001 -5.500000e+001 2.000000e+000
    endloop
  endfacet
  facet normal 0.000000e+000 -2.960595e-016 1.000000e+000
    outer loop
      vertex   -5.500000e+001 -5.500000e+001 2.000000e+000
      vertex   -5.300000e+001 -7.000000e+001 2.000000e+000
      vertex   -4.700000e+001 -7.000000e+001 2.000000e+000
    endloop
  endfacet
  facet normal 0.000000e+000 -2.960595e-016 1.000000e+000
    outer loop
      vertex   -5.500000e+001 -5.500000e+001 2.000000e+000
      vertex   -5.500000e+001 -7.000000e+001 2.000000e+000
      vertex   -5.300000e+001 -7.000000e+001 2.000000e+000
    endloop
  endfacet
  facet normal 2.960595e-016 -2.960595e-016 1.000000e+000
    outer loop
      vertex   -5.500000e+001 -5.500000e+001 2.000000e+000
      vertex   -6.500000e+001 -6.500000e+001 2.000000e+000
      vertex   -5.500000e+001 -7.000000e+001 2.000000e+000
    endloop
  endfacet
  facet normal 0.000000e+000 0.000000e+000 1.000000e+000
    outer loop
      vertex   -5.500000e+001 -5.500000e+001 2.000000e+000
      vertex   -6.500000e+001 -5.500000e+001 2.000000e+000
      vertex   -6.500000e+001 -6.500000e+001 2.000000e+000
    endloop
  endfacet
  facet normal 0.000000e+000 0.000000e+000 1.000000e+000
    outer loop
      vertex   -5.500000e+001 -5.500000e+001 2.000000e+000
      vertex   -6.500000e+001 -4.500000e+001 2.000000e+000
      vertex   -6.500000e+001 -5.500000e+001 2.000000e+000
    endloop
  endfacet
  facet normal 0.000000e+000 -0.000000e+000 1.000000e+000
    outer loop
      vertex   -5.500000e+001 -5.500000e+001 2.000000e+000
      vertex   -5.500000e+001 -4.500000e+001 2.000000e+000
      vertex   -6.500000e+001 -4.500000e+001 2.000000e+000
    endloop
  endfacet
  facet normal 0.000000e+000 -0.000000e+000 1.000000e+000
    outer loop
      vertex   -6.500000e+001 -4.500000e+001 2.000000e+000
      vertex   -5.500000e+001 -4.500000e+001 2.000000e+000
      vertex   -6.500000e+001 -3.500000e+001 2.000000e+000
    endloop
  endfacet
  facet normal -0.000000e+000 0.000000e+000 1.000000e+000
    outer loop
      vertex   -7.000000e+001 -3.500000e+001 2.000000e+000
      vertex   -6.500000e+001 -4.500000e+001 2.000000e+000
      vertex   -6.500000e+001 -3.500000e+001 2.000000e+000
    endloop
  endfacet
  facet normal -0.000000e+000 0.000000e+000 1.000000e+000
    outer loop
      vertex   -7.000000e+001 -3.500000e+001 2.000000e+000
      vertex   -7.000000e+001 -4.500000e+001 2.000000e+000
      vertex   -6.500000e+001 -4.500000e+001 2.000000e+000
    endloop
  endfacet
  facet normal 0.000000e+000 -2.960595e-016 1.000000e+000
    outer loop
      vertex   -4.700000e+001 -7.000000e+001 2.000000e+000
      vertex   -4.500000e+001 -7.000000e+001 2.000000e+000
      vertex   -4.500000e+001 -5.500000e+001 2.000000e+000
    endloop
  endfacet
  facet normal -2.960595e-016 -2.960595e-016 1.000000e+000
    outer loop
      vertex   -4.500000e+001 -5.500000e+001 2.000000e+000
      vertex   -4.500000e+001 -7.000000e+001 2.000000e+000
      vertex   -3.500000e+001 -6.500000e+001 2.000000e+000
    endloop
  endfacet
  facet normal -0.000000e+000 0.000000e+000 1.000000e+000
    outer loop
      vertex   -3.500000e+001 -5.500000e+001 2.000000e+000
      vertex   -3.500000e+001 -6.500000e+001 2.000000e+000
      vertex   -3.000000e+001 -6.500000e+001 2.000000e+000
    endloop
  endfacet
  facet normal 0.000000e+000 0.000000e+000 1.000000e+000
    outer loop
      vertex   -3.000000e+001 -5.500000e+001 2.000000e+000
      vertex   -3.500000e+001 -5.500000e+001 2.000000e+000
      vertex   -3.000000e+001 -6.500000e+001 2.000000e+000
    endloop
  endfacet
  facet normal -4.440892e-016 0.000000e+000 1.000000e+000
    outer loop
      vertex   -4.500000e+001 -9.700000e+001 2.000000e+000
      vertex   -3.500000e+001 -8.500000e+001 2.000000e+000
      vertex   -4.500000e+001 -7.000000e+001 2.000000e+000
    endloop
  endfacet
  facet normal -4.440892e-016 0.000000e+000 1.000000e+000
    outer loop
      vertex   -4.500000e+001 -9.700000e+001 2.000000e+000
      vertex   -3.500000e+001 -9.500000e+001 2.000000e+000
      vertex   -3.500000e+001 -8.500000e+001 2.000000e+000
    endloop
  endfacet
  facet normal -4.440892e-016 0.000000e+000 1.000000e+000
    outer loop
      vertex   -4.500000e+001 -9.700000e+001 2.000000e+000
      vertex   -3.500000e+001 -1.050000e+002 2.000000e+000
      vertex   -3.500000e+001 -9.500000e+001 2.000000e+000
    endloop
  endfacet
  facet normal 1.577722e-030 5.551115e-016 1.000000e+000
    outer loop
      vertex   -4.500000e+001 -9.700000e+001 2.000000e+000
      vertex   -4.500000e+001 -1.050000e+002 2.000000e+000
      vertex   -3.500000e+001 -1.050000e+002 2.000000e+000
    endloop
  endfacet
  facet normal 0.000000e+000 5.551115e-016 1.000000e+000
    outer loop
      vertex   -4.500000e+001 -9.700000e+001 2.000000e+000
      vertex   -5.500000e+001 -9.700000e+001 2.000000e+000
      vertex   -4.500000e+001 -1.050000e+002 2.000000e+000
    endloop
  endfacet
  facet normal 0.000000e+000 5.551115e-016 1.000000e+000
    outer loop
      vertex   -4.500000e+001 -1.050000e+002 2.000000e+000
      vertex   -5.500000e+001 -9.700000e+001 2.000000e+000
      vertex   -5.500000e+001 -1.050000e+002 2.000000e+000
    endloop
  endfacet
  facet normal 0.000000e+000 5.551115e-016 1.000000e+000
    outer loop
      vertex   -5.500000e+001 -1.050000e+002 2.000000e+000
      vertex   -5.500000e+001 -9.700000e+001 2.000000e+000
      vertex   -6.500000e+001 -1.050000e+002 2.000000e+000
    endloop
  endfacet
  facet normal 0.000000e+000 0.000000e+000 1.000000e+000
    outer loop
      vertex   -5.500000e+001 -1.100000e+002 2.000000e+000
      vertex   -6.500000e+001 -1.050000e+002 2.000000e+000
      vertex   -6.500000e+001 -1.100000e+002 2.000000e+000
    endloop
  endfacet
  facet normal 0.000000e+000 -0.000000e+000 1.000000e+000
    outer loop
      vertex   -5.500000e+001 -1.100000e+002 2.000000e+000
      vertex   -5.500000e+001 -1.050000e+002 2.000000e+000
      vertex   -6.500000e+001 -1.050000e+002 2.000000e+000
    endloop
  endfacet
  facet normal 4.440892e-016 0.000000e+000 1.000000e+000
    outer loop
      vertex   -5.500000e+001 -7.000000e+001 2.000000e+000
      vertex   -6.500000e+001 -8.500000e+001 2.000000e+000
      vertex   -5.500000e+001 -9.700000e+001 2.000000e+000
    endloop
  endfacet
  facet normal 4.440892e-016 0.000000e+000 1.000000e+000
    outer loop
      vertex   -5.500000e+001 -7.000000e+001 2.000000e+000
      vertex   -6.500000e+001 -7.500000e+001 2.000000e+000
      vertex   -6.500000e+001 -8.500000e+001 2.000000e+000
    endloop
  endfacet
  facet normal 4.440892e-016 0.000000e+000 1.000000e+000
    outer loop
      vertex   -5.500000e+001 -7.000000e+001 2.000000e+000
      vertex   -6.500000e+001 -6.500000e+001 2.000000e+000
      vertex   -6.500000e+001 -7.500000e+001 2.000000e+000
    endloop
  endfacet
  facet normal 0.000000e+000 2.960595e-016 1.000000e+000
    outer loop
      vertex   -5.500000e+001 -3.000000e+001 2.000000e+000
      vertex   -5.500000e+001 -4.500000e+001 2.000000e+000
      vertex   -5.300000e+001 -3.000000e+001 2.000000e+000
    endloop
  endfacet
  facet normal 2.960595e-016 2.960595e-016 1.000000e+000
    outer loop
      vertex   -5.500000e+001 -3.000000e+001 2.000000e+000
      vertex   -6.500000e+001 -3.500000e+001 2.000000e+000
      vertex   -5.500000e+001 -4.500000e+001 2.000000e+000
    endloop
  endfacet
  facet normal 4.440892e-016 6.310887e-031 1.000000e+000
    outer loop
      vertex   -5.500000e+001 -3.000000e+001 2.000000e+000
      vertex   -6.500000e+001 -2.500000e+001 2.000000e+000
      vertex   -6.500000e+001 -3.500000e+001 2.000000e+000
    endloop
  endfacet
  facet normal 4.440892e-016 -6.310887e-031 1.000000e+000
    outer loop
      vertex   -5.500000e+001 -3.000000e+001 2.000000e+000
      vertex   -6.500000e+001 -1.500000e+001 2.000000e+000
      vertex   -6.500000e+001 -2.500000e+001 2.000000e+000
    endloop
  endfacet
  facet normal 4.440892e-016 -0.000000e+000 1.000000e+000
    outer loop
      vertex   -5.500000e+001 -3.000000e+001 2.000000e+000
      vertex   -5.500000e+001 -3.000000e+000 2.000000e+000
      vertex   -6.500000e+001 -1.500000e+001 2.000000e+000
    endloop
  endfacet
  facet normal 4.440892e-016 0.000000e+000 1.000000e+000
    outer loop
      vertex   -6.500000e+001 -1.500000e+001 2.000000e+000
      vertex   -5.500000e+001 -3.000000e+000 2.000000e+000
      vertex   -6.500000e+001 -5.000000e+000 2.000000e+000
    endloop
  endfacet
  facet normal 4.440892e-016 0.000000e+000 1.000000e+000
    outer loop
      vertex   -6.500000e+001 -5.000000e+000 2.000000e+000
      vertex   -5.500000e+001 -3.000000e+000 2.000000e+000
      vertex   -6.500000e+001 5.000000e+000 2.000000e+000
    endloop
  endfacet
  facet normal -0.000000e+000 0.000000e+000 1.000000e+000
    outer loop
      vertex   -7.000000e+001 5.000000e+000 2.000000e+000
      vertex   -6.500000e+001 -5.000000e+000 2.000000e+000
      vertex   -6.500000e+001 5.000000e+000 2.000000e+000
    endloop
  endfacet
  facet normal -0.000000e+000 0.000000e+000 1.000000e+000
    outer loop
      vertex   -7.000000e+001 5.000000e+000 2.000000e+000
      vertex   -7.000000e+001 -5.000000e+000 2.000000e+000
      vertex   -6.500000e+001 -5.000000e+000 2.000000e+000
    endloop
  endfacet
  facet normal 0.000000e+000 -5.551115e-016 1.000000e+000
    outer loop
      vertex   -4.500000e+001 -3.000000e+000 2.000000e+000
      vertex   -4.500000e+001 5.000000e+000 2.000000e+000
      vertex   -5.500000e+001 -3.000000e+000 2.000000e+000
    endloop
  endfacet
  facet normal -4.930381e-031 -5.551115e-016 1.000000e+000
    outer loop
      vertex   -4.500000e+001 -3.000000e+000 2.000000e+000
      vertex   -3.500000e+001 5.000000e+000 2.000000e+000
      vertex   -4.500000e+001 5.000000e+000 2.000000e+000
    endloop
  endfacet
  facet normal -4.440892e-016 6.310887e-031 1.000000e+000
    outer loop
      vertex   -4.500000e+001 -3.000000e+000 2.000000e+000
      vertex   -3.500000e+001 -5.000000e+000 2.000000e+000
      vertex   -3.500000e+001 5.000000e+000 2.000000e+000
    endloop
  endfacet
  facet normal -4.440892e-016 0.000000e+000 1.000000e+000
    outer loop
      vertex   -4.500000e+001 -3.000000e+000 2.000000e+000
      vertex   -3.500000e+001 -1.500000e+001 2.000000e+000
      vertex   -3.500000e+001 -5.000000e+000 2.000000e+000
    endloop
  endfacet
  facet normal -4.440892e-016 0.000000e+000 1.000000e+000
    outer loop
      vertex   -4.500000e+001 -3.000000e+000 2.000000e+000
      vertex   -4.500000e+001 -3.000000e+001 2.000000e+000
      vertex   -3.500000e+001 -1.500000e+001 2.000000e+000
    endloop
  endfacet
  facet normal -4.440892e-016 0.000000e+000 1.000000e+000
    outer loop
      vertex   -3.500000e+001 -1.500000e+001 2.000000e+000
      vertex   -4.500000e+001 -3.000000e+001 2.000000e+000
      vertex   -3.500000e+001 -2.500000e+001 2.000000e+000
    endloop
  endfacet
  facet normal 0.000000e+000 0.000000e+000 1.000000e+000
    outer loop
      vertex   -3.000000e+001 -2.500000e+001 2.000000e+000
      vertex   -3.500000e+001 -1.500000e+001 2.000000e+000
      vertex   -3.500000e+001 -2.500000e+001 2.000000e+000
    endloop
  endfacet
  facet normal 0.000000e+000 -0.000000e+000 1.000000e+000
    outer loop
      vertex   -3.000000e+001 -2.500000e+001 2.000000e+000
      vertex   -3.000000e+001 -1.500000e+001 2.000000e+000
      vertex   -3.500000e+001 -1.500000e+001 2.000000e+000
    endloop
  endfacet
  facet normal 0.000000e+000 2.960595e-016 1.000000e+000
    outer loop
      vertex   -4.700000e+001 -3.000000e+001 2.000000e+000
      vertex   -4.500000e+001 -4.500000e+001 2.000000e+000
      vertex   -4.500000e+001 -3.000000e+001 2.000000e+000
    endloop
  endfacet
  facet normal 0.000000e+000 2.960595e-016 1.000000e+000
    outer loop
      vertex   -4.700000e+001 -3.000000e+001 2.000000e+000
      vertex   -5.300000e+001 -3.000000e+001 2.000000e+000
      vertex   -4.500000e+001 -4.500000e+001 2.000000e+000
    endloop
  endfacet
  facet normal 0.000000e+000 0.000000e+000 1.000000e+000
    outer loop
      vertex   -4.700000e+001 -3.000000e+001 2.000000e+000
      vertex   -5.300000e+001 -5.000000e+000 2.000000e+000
      vertex   -5.300000e+001 -3.000000e+001 2.000000e+000
    endloop
  endfacet
  facet normal 0.000000e+000 -0.000000e+000 1.000000e+000
    outer loop
      vertex   -4.700000e+001 -3.000000e+001 2.000000e+000
      vertex   -4.700000e+001 -5.000000e+000 2.000000e+000
      vertex   -5.300000e+001 -5.000000e+000 2.000000e+000
    endloop
  endfacet
  facet normal 0.000000e+000 0.000000e+000 1.000000e+000
    outer loop
      vertex   -5.500000e+001 1.000000e+001 2.000000e+000
      vertex   -6.500000e+001 1.000000e+001 2.000000e+000
      vertex   -5.500000e+001 5.000000e+000 2.000000e+000
    endloop
  endfacet
  facet normal 0.000000e+000 0.000000e+000 1.000000e+000
    outer loop
      vertex   -5.500000e+001 5.000000e+000 2.000000e+000
      vertex   -6.500000e+001 1.000000e+001 2.000000e+000
      vertex   -6.500000e+001 5.000000e+000 2.000000e+000
    endloop
  endfacet
  facet normal 0.000000e+000 -5.551115e-016 1.000000e+000
    outer loop
      vertex   -5.500000e+001 -3.000000e+000 2.000000e+000
      vertex   -5.500000e+001 5.000000e+000 2.000000e+000
      vertex   -6.500000e+001 5.000000e+000 2.000000e+000
    endloop
  endfacet
  facet normal -2.465190e-031 -5.551115e-016 1.000000e+000
    outer loop
      vertex   -5.500000e+001 -3.000000e+000 2.000000e+000
      vertex   -4.500000e+001 5.000000e+000 2.000000e+000
      vertex   -5.500000e+001 5.000000e+000 2.000000e+000
    endloop
  endfacet
  facet normal 0.000000e+000 0.000000e+000 1.000000e+000
    outer loop
      vertex   -6.500000e+001 -1.500000e+001 2.000000e+000
      vertex   -7.000000e+001 -1.500000e+001 2.000000e+000
      vertex   -6.500000e+001 -2.500000e+001 2.000000e+000
    endloop
  endfacet
  facet normal 0.000000e+000 0.000000e+000 1.000000e+000
    outer loop
      vertex   -6.500000e+001 -2.500000e+001 2.000000e+000
      vertex   -7.000000e+001 -1.500000e+001 2.000000e+000
      vertex   -7.000000e+001 -2.500000e+001 2.000000e+000
    endloop
  endfacet
  facet normal 0.000000e+000 0.000000e+000 1.000000e+000
    outer loop
      vertex   -6.500000e+001 -5.500000e+001 2.000000e+000
      vertex   -7.000000e+001 -5.500000e+001 2.000000e+000
      vertex   -6.500000e+001 -6.500000e+001 2.000000e+000
    endloop
  endfacet
  facet normal 0.000000e+000 0.000000e+000 1.000000e+000
    outer loop
      vertex   -6.500000e+001 -6.500000e+001 2.000000e+000
      vertex   -7.000000e+001 -5.500000e+001 2.000000e+000
      vertex   -7.000000e+001 -6.500000e+001 2.000000e+000
    endloop
  endfacet
  facet normal 0.000000e+000 0.000000e+000 1.000000e+000
    outer loop
      vertex   -6.500000e+001 -7.500000e+001 2.000000e+000
      vertex   -7.000000e+001 -7.500000e+001 2.000000e+000
      vertex   -6.500000e+001 -8.500000e+001 2.000000e+000
    endloop
  endfacet
  facet normal 0.000000e+000 0.000000e+000 1.000000e+000
    outer loop
      vertex   -6.500000e+001 -8.500000e+001 2.000000e+000
      vertex   -7.000000e+001 -7.500000e+001 2.000000e+000
      vertex   -7.000000e+001 -8.500000e+001 2.000000e+000
    endloop
  endfacet
  facet normal 4.440892e-016 0.000000e+000 1.000000e+000
    outer loop
      vertex   -6.500000e+001 -8.500000e+001 2.000000e+000
      vertex   -6.500000e+001 -9.500000e+001 2.000000e+000
      vertex   -5.500000e+001 -9.700000e+001 2.000000e+000
    endloop
  endfacet
  facet normal 4.440892e-016 0.000000e+000 1.000000e+000
    outer loop
      vertex   -5.500000e+001 -9.700000e+001 2.000000e+000
      vertex   -6.500000e+001 -9.500000e+001 2.000000e+000
      vertex   -6.500000e+001 -1.050000e+002 2.000000e+000
    endloop
  endfacet
  facet normal 0.000000e+000 -0.000000e+000 1.000000e+000
    outer loop
      vertex   -6.500000e+001 -1.050000e+002 2.000000e+000
      vertex   -6.500000e+001 -9.500000e+001 2.000000e+000
      vertex   -7.000000e+001 -1.050000e+002 2.000000e+000
    endloop
  endfacet
  facet normal 0.000000e+000 -0.000000e+000 1.000000e+000
    outer loop
      vertex   -7.000000e+001 -1.050000e+002 2.000000e+000
      vertex   -6.500000e+001 -9.500000e+001 2.000000e+000
      vertex   -7.000000e+001 -9.500000e+001 2.000000e+000
    endloop
  endfacet
  facet normal -0.000000e+000 -0.000000e+000 1.000000e+000
    outer loop
      vertex   -4.500000e+001 -1.100000e+002 2.000000e+000
      vertex   -3.500000e+001 -1.100000e+002 2.000000e+000
      vertex   -4.500000e+001 -1.050000e+002 2.000000e+000
    endloop
  endfacet
  facet normal -0.000000e+000 0.000000e+000 1.000000e+000
    outer loop
      vertex   -4.500000e+001 -1.050000e+002 2.000000e+000
      vertex   -3.500000e+001 -1.100000e+002 2.000000e+000
      vertex   -3.500000e+001 -1.050000e+002 2.000000e+000
    endloop
  endfacet
  facet normal 0.000000e+000 -0.000000e+000 1.000000e+000
    outer loop
      vertex   -3.000000e+001 -1.050000e+002 2.000000e+000
      vertex   -3.000000e+001 -9.500000e+001 2.000000e+000
      vertex   -3.500000e+001 -1.050000e+002 2.000000e+000
    endloop
  endfacet
  facet normal 0.000000e+000 -0.000000e+000 1.000000e+000
    outer loop
      vertex   -3.500000e+001 -1.050000e+002 2.000000e+000
      vertex   -3.000000e+001 -9.500000e+001 2.000000e+000
      vertex   -3.500000e+001 -9.500000e+001 2.000000e+000
    endloop
  endfacet
  facet normal -4.440892e-016 0.000000e+000 1.000000e+000
    outer loop
      vertex   -4.500000e+001 -7.000000e+001 2.000000e+000
      vertex   -3.500000e+001 -8.500000e+001 2.000000e+000
      vertex   -3.500000e+001 -7.500000e+001 2.000000e+000
    endloop
  endfacet
  facet normal -4.440892e-016 0.000000e+000 1.000000e+000
    outer loop
      vertex   -3.500000e+001 -6.500000e+001 2.000000e+000
      vertex   -4.500000e+001 -7.000000e+001 2.000000e+000
      vertex   -3.500000e+001 -7.500000e+001 2.000000e+000
    endloop
  endfacet
  facet normal 0.000000e+000 0.000000e+000 1.000000e+000
    outer loop
      vertex   -3.000000e+001 -7.500000e+001 2.000000e+000
      vertex   -3.500000e+001 -7.500000e+001 2.000000e+000
      vertex   -3.000000e+001 -8.500000e+001 2.000000e+000
    endloop
  endfacet
  facet normal 0.000000e+000 0.000000e+000 1.000000e+000
    outer loop
      vertex   -3.000000e+001 -8.500000e+001 2.000000e+000
      vertex   -3.500000e+001 -7.500000e+001 2.000000e+000
      vertex   -3.500000e+001 -8.500000e+001 2.000000e+000
    endloop
  endfacet
  facet normal -0.000000e+000 0.000000e+000 1.000000e+000
    outer loop
      vertex   -4.500000e+001 -5.500000e+001 2.000000e+000
      vertex   -3.500000e+001 -6.500000e+001 2.000000e+000
      vertex   -3.500000e+001 -5.500000e+001 2.000000e+000
    endloop
  endfacet
  facet normal -0.000000e+000 0.000000e+000 1.000000e+000
    outer loop
      vertex   -4.500000e+001 -4.500000e+001 2.000000e+000
      vertex   -3.500000e+001 -5.500000e+001 2.000000e+000
      vertex   -3.500000e+001 -4.500000e+001 2.000000e+000
    endloop
  endfacet
  facet normal -0.000000e+000 0.000000e+000 1.000000e+000
    outer loop
      vertex   -3.500000e+001 -3.500000e+001 2.000000e+000
      vertex   -3.500000e+001 -4.500000e+001 2.000000e+000
      vertex   -3.000000e+001 -4.500000e+001 2.000000e+000
    endloop
  endfacet
  facet normal 0.000000e+000 0.000000e+000 1.000000e+000
    outer loop
      vertex   -3.000000e+001 -3.500000e+001 2.000000e+000
      vertex   -3.500000e+001 -3.500000e+001 2.000000e+000
      vertex   -3.000000e+001 -4.500000e+001 2.000000e+000
    endloop
  endfacet
  facet normal -0.000000e+000 -0.000000e+000 1.000000e+000
    outer loop
      vertex   -4.500000e+001 -5.500000e+001 2.000000e+000
      vertex   -3.500000e+001 -5.500000e+001 2.000000e+000
      vertex   -4.500000e+001 -4.500000e+001 2.000000e+000
    endloop
  endfacet
  facet normal 0.000000e+000 0.000000e+000 1.000000e+000
    outer loop
      vertex   -4.500000e+001 -4.500000e+001 2.000000e+000
      vertex   -3.500000e+001 -4.500000e+001 2.000000e+000
      vertex   -3.500000e+001 -3.500000e+001 2.000000e+000
    endloop
  endfacet
  facet normal -4.440892e-016 0.000000e+000 1.000000e+000
    outer loop
      vertex   -4.500000e+001 -3.000000e+001 2.000000e+000
      vertex   -3.500000e+001 -3.500000e+001 2.000000e+000
      vertex   -3.500000e+001 -2.500000e+001 2.000000e+000
    endloop
  endfacet
  facet normal -2.960595e-016 2.960595e-016 1.000000e+000
    outer loop
      vertex   -4.500000e+001 -3.000000e+001 2.000000e+000
      vertex   -4.500000e+001 -4.500000e+001 2.000000e+000
      vertex   -3.500000e+001 -3.500000e+001 2.000000e+000
    endloop
  endfacet
  facet normal 0.000000e+000 -0.000000e+000 1.000000e+000
    outer loop
      vertex   -3.000000e+001 -5.000000e+000 2.000000e+000
      vertex   -3.000000e+001 5.000000e+000 2.000000e+000
      vertex   -3.500000e+001 -5.000000e+000 2.000000e+000
    endloop
  endfacet
  facet normal 0.000000e+000 -0.000000e+000 1.000000e+000
    outer loop
      vertex   -3.500000e+001 -5.000000e+000 2.000000e+000
      vertex   -3.000000e+001 5.000000e+000 2.000000e+000
      vertex   -3.500000e+001 5.000000e+000 2.000000e+000
    endloop
  endfacet
  facet normal 0.000000e+000 0.000000e+000 1.000000e+000
    outer loop
      vertex   -3.500000e+001 1.000000e+001 2.000000e+000
      vertex   -4.500000e+001 1.000000e+001 2.000000e+000
      vertex   -3.500000e+001 5.000000e+000 2.000000e+000
    endloop
  endfacet
  facet normal 0.000000e+000 0.000000e+000 1.000000e+000
    outer loop
      vertex   -3.500000e+001 5.000000e+000 2.000000e+000
      vertex   -4.500000e+001 1.000000e+001 2.000000e+000
      vertex   -4.500000e+001 5.000000e+000 2.000000e+000
    endloop
  endfacet
  facet normal -0.000000e+000 2.960595e-016 1.000000e+000
    outer loop
      vertex   -5.500000e+001 -4.500000e+001 2.000000e+000
      vertex   -4.500000e+001 -4.500000e+001 2.000000e+000
      vertex   -5.300000e+001 -3.000000e+001 2.000000e+000
    endloop
  endfacet
endsolid
