solid ascii
  facet normal 0.000000e+000 1.000000e+000 0.000000e+000
    outer loop
      vertex   -4.750000e+001 7.500000e+000 4.000000e+000
      vertex   -4.750000e+001 7.500000e+000 0.000000e+000
      vertex   -5.250000e+001 7.500000e+000 4.000000e+000
    endloop
  endfacet
  facet normal 0.000000e+000 1.000000e+000 0.000000e+000
    outer loop
      vertex   -5.250000e+001 7.500000e+000 4.000000e+000
      vertex   -4.750000e+001 7.500000e+000 0.000000e+000
      vertex   -5.250000e+001 7.500000e+000 0.000000e+000
    endloop
  endfacet
  facet normal 1.000000e+000 -0.000000e+000 0.000000e+000
    outer loop
      vertex   -5.250000e+001 7.500000e+000 4.000000e+000
      vertex   -5.250000e+001 7.500000e+000 0.000000e+000
      vertex   -5.250000e+001 1.250000e+001 4.000000e+000
    endloop
  endfacet
  facet normal 1.000000e+000 -0.000000e+000 0.000000e+000
    outer loop
      vertex   -5.250000e+001 1.250000e+001 4.000000e+000
      vertex   -5.250000e+001 7.500000e+000 0.000000e+000
      vertex   -5.250000e+001 1.250000e+001 0.000000e+000
    endloop
  endfacet
  facet normal 0.000000e+000 -1.000000e+000 0.000000e+000
    outer loop
      vertex   -5.250000e+001 1.250000e+001 4.000000e+000
      vertex   -5.250000e+001 1.250000e+001 0.000000e+000
      vertex   -4.750000e+001 1.250000e+001 4.000000e+000
    endloop
  endfacet
  facet normal 0.000000e+000 -1.000000e+000 -0.000000e+000
    outer loop
      vertex   -4.750000e+001 1.250000e+001 4.000000e+000
      vertex   -5.250000e+001 1.250000e+001 0.000000e+000
      vertex   -4.750000e+001 1.250000e+001 0.000000e+000
    endloop
  endfacet
  facet normal -1.000000e+000 -0.000000e+000 -0.000000e+000
    outer loop
      vertex   -4.750000e+001 1.250000e+001 4.000000e+000
      vertex   -4.750000e+001 1.250000e+001 0.000000e+000
      vertex   -4.750000e+001 7.500000e+000 4.000000e+000
    endloop
  endfacet
  facet normal -1.000000e+000 -0.000000e+000 -0.000000e+000
    outer loop
      vertex   -4.750000e+001 7.500000e+000 4.000000e+000
      vertex   -4.750000e+001 1.250000e+001 0.000000e+000
      vertex   -4.750000e+001 7.500000e+000 0.000000e+000
    endloop
  endfacet
  facet normal 0.000000e+000 0.000000e+000 1.000000e+000
    outer loop
      vertex   -4.750000e+001 1.250000e+001 4.000000e+000
      vertex   -5.500000e+001 1.500000e+001 4.000000e+000
      vertex   -5.250000e+001 1.250000e+001 4.000000e+000
    endloop
  endfacet
  facet normal 0.000000e+000 -0.000000e+000 1.000000e+000
    outer loop
      vertex   -4.750000e+001 1.250000e+001 4.000000e+000
      vertex   -4.500000e+001 1.500000e+001 4.000000e+000
      vertex   -5.500000e+001 1.500000e+001 4.000000e+000
    endloop
  endfacet
  facet normal -0.000000e+000 0.000000e+000 1.000000e+000
    outer loop
      vertex   -4.750000e+001 1.250000e+001 4.000000e+000
      vertex   -4.500000e+001 5.000000e+000 4.000000e+000
      vertex   -4.500000e+001 1.500000e+001 4.000000e+000
    endloop
  endfacet
  facet normal 0.000000e+000 0.000000e+000 1.000000e+000
    outer loop
      vertex   -4.750000e+001 1.250000e+001 4.000000e+000
      vertex   -4.750000e+001 7.500000e+000 4.000000e+000
      vertex   -4.500000e+001 5.000000e+000 4.000000e+000
    endloop
  endfacet
  facet normal 0.000000e+000 0.000000e+000 1.000000e+000
    outer loop
      vertex   -4.500000e+001 5.000000e+000 4.000000e+000
      vertex   -4.750000e+001 7.500000e+000 4.000000e+000
      vertex   -5.250000e+001 7.500000e+000 4.000000e+000
    endloop
  endfacet
  facet normal 0.000000e+000 0.000000e+000 1.000000e+000
    outer loop
      vertex   -5.500000e+001 5.000000e+000 4.000000e+000
      vertex   -5.250000e+001 7.500000e+000 4.000000e+000
      vertex   -5.250000e+001 1.250000e+001 4.000000e+000
    endloop
  endfacet
  facet normal -0.000000e+000 0.000000e+000 1.000000e+000
    outer loop
      vertex   -5.500000e+001 1.500000e+001 4.000000e+000
      vertex   -5.500000e+001 5.000000e+000 4.000000e+000
      vertex   -5.250000e+001 1.250000e+001 4.000000e+000
    endloop
  endfacet
  facet normal 0.000000e+000 0.000000e+000 1.000000e+000
    outer loop
      vertex   -4.500000e+001 5.000000e+000 4.000000e+000
      vertex   -5.250000e+001 7.500000e+000 4.000000e+000
      vertex   -5.500000e+001 5.000000e+000 4.000000e+000
    endloop
  endfacet
  facet normal 1.000000e+000 0.000000e+000 -1.421085e-015
    outer loop
      vertex   -5.500000e+001 1.500000e+001 4.000000e+000
      vertex   -5.500000e+001 1.500000e+001 1.400000e+001
      vertex   -5.500000e+001 5.000000e+000 4.000000e+000
    endloop
  endfacet
  facet normal 1.000000e+000 0.000000e+000 -1.421085e-015
    outer loop
      vertex   -5.500000e+001 5.000000e+000 4.000000e+000
      vertex   -5.500000e+001 1.500000e+001 1.400000e+001
      vertex   -5.500000e+001 5.000000e+000 1.400000e+001
    endloop
  endfacet
  facet normal 0.000000e+000 1.000000e+000 0.000000e+000
    outer loop
      vertex   -4.750000e+001 -7.250000e+001 4.000000e+000
      vertex   -4.750000e+001 -7.250000e+001 0.000000e+000
      vertex   -5.250000e+001 -7.250000e+001 4.000000e+000
    endloop
  endfacet
  facet normal 0.000000e+000 1.000000e+000 0.000000e+000
    outer loop
      vertex   -5.250000e+001 -7.250000e+001 4.000000e+000
      vertex   -4.750000e+001 -7.250000e+001 0.000000e+000
      vertex   -5.250000e+001 -7.250000e+001 0.000000e+000
    endloop
  endfacet
  facet normal 1.000000e+000 -0.000000e+000 0.000000e+000
    outer loop
      vertex   -5.250000e+001 -7.250000e+001 4.000000e+000
      vertex   -5.250000e+001 -7.250000e+001 0.000000e+000
      vertex   -5.250000e+001 -6.750000e+001 4.000000e+000
    endloop
  endfacet
  facet normal 1.000000e+000 -0.000000e+000 0.000000e+000
    outer loop
      vertex   -5.250000e+001 -6.750000e+001 4.000000e+000
      vertex   -5.250000e+001 -7.250000e+001 0.000000e+000
      vertex   -5.250000e+001 -6.750000e+001 0.000000e+000
    endloop
  endfacet
  facet normal 0.000000e+000 -1.000000e+000 0.000000e+000
    outer loop
      vertex   -5.250000e+001 -6.750000e+001 4.000000e+000
      vertex   -5.250000e+001 -6.750000e+001 0.000000e+000
      vertex   -4.750000e+001 -6.750000e+001 4.000000e+000
    endloop
  endfacet
  facet normal 0.000000e+000 -1.000000e+000 -0.000000e+000
    outer loop
      vertex   -4.750000e+001 -6.750000e+001 4.000000e+000
      vertex   -5.250000e+001 -6.750000e+001 0.000000e+000
      vertex   -4.750000e+001 -6.750000e+001 0.000000e+000
    endloop
  endfacet
  facet normal -1.000000e+000 -0.000000e+000 -0.000000e+000
    outer loop
      vertex   -4.750000e+001 -6.750000e+001 4.000000e+000
      vertex   -4.750000e+001 -6.750000e+001 0.000000e+000
      vertex   -4.750000e+001 -7.250000e+001 4.000000e+000
    endloop
  endfacet
  facet normal -1.000000e+000 -0.000000e+000 -0.000000e+000
    outer loop
      vertex   -4.750000e+001 -7.250000e+001 4.000000e+000
      vertex   -4.750000e+001 -6.750000e+001 0.000000e+000
      vertex   -4.750000e+001 -7.250000e+001 0.000000e+000
    endloop
  endfacet
  facet normal 0.000000e+000 0.000000e+000 1.000000e+000
    outer loop
      vertex   -4.750000e+001 -6.750000e+001 4.000000e+000
      vertex   -5.500000e+001 -6.500000e+001 4.000000e+000
      vertex   -5.250000e+001 -6.750000e+001 4.000000e+000
    endloop
  endfacet
  facet normal 0.000000e+000 -0.000000e+000 1.000000e+000
    outer loop
      vertex   -4.750000e+001 -6.750000e+001 4.000000e+000
      vertex   -4.500000e+001 -6.500000e+001 4.000000e+000
      vertex   -5.500000e+001 -6.500000e+001 4.000000e+000
    endloop
  endfacet
  facet normal -0.000000e+000 0.000000e+000 1.000000e+000
    outer loop
      vertex   -4.750000e+001 -6.750000e+001 4.000000e+000
      vertex   -4.500000e+001 -7.500000e+001 4.000000e+000
      vertex   -4.500000e+001 -6.500000e+001 4.000000e+000
    endloop
  endfacet
  facet normal 0.000000e+000 0.000000e+000 1.000000e+000
    outer loop
      vertex   -4.750000e+001 -6.750000e+001 4.000000e+000
      vertex   -4.750000e+001 -7.250000e+001 4.000000e+000
      vertex   -4.500000e+001 -7.500000e+001 4.000000e+000
    endloop
  endfacet
  facet normal 0.000000e+000 0.000000e+000 1.000000e+000
    outer loop
      vertex   -4.500000e+001 -7.500000e+001 4.000000e+000
      vertex   -4.750000e+001 -7.250000e+001 4.000000e+000
      vertex   -5.250000e+001 -7.250000e+001 4.000000e+000
    endloop
  endfacet
  facet normal 0.000000e+000 0.000000e+000 1.000000e+000
    outer loop
      vertex   -5.500000e+001 -7.500000e+001 4.000000e+000
      vertex   -5.250000e+001 -7.250000e+001 4.000000e+000
      vertex   -5.250000e+001 -6.750000e+001 4.000000e+000
    endloop
  endfacet
  facet normal -0.000000e+000 0.000000e+000 1.000000e+000
    outer loop
      vertex   -5.500000e+001 -6.500000e+001 4.000000e+000
      vertex   -5.500000e+001 -7.500000e+001 4.000000e+000
      vertex   -5.250000e+001 -6.750000e+001 4.000000e+000
    endloop
  endfacet
  facet normal 0.000000e+000 0.000000e+000 1.000000e+000
    outer loop
      vertex   -4.500000e+001 -7.500000e+001 4.000000e+000
      vertex   -5.250000e+001 -7.250000e+001 4.000000e+000
      vertex   -5.500000e+001 -7.500000e+001 4.000000e+000
    endloop
  endfacet
  facet normal 1.000000e+000 0.000000e+000 -1.421085e-015
    outer loop
      vertex   -5.500000e+001 -6.500000e+001 4.000000e+000
      vertex   -5.500000e+001 -6.500000e+001 1.400000e+001
      vertex   -5.500000e+001 -7.500000e+001 4.000000e+000
    endloop
  endfacet
  facet normal 1.000000e+000 0.000000e+000 -1.421085e-015
    outer loop
      vertex   -5.500000e+001 -7.500000e+001 4.000000e+000
      vertex   -5.500000e+001 -6.500000e+001 1.400000e+001
      vertex   -5.500000e+001 -7.500000e+001 1.400000e+001
    endloop
  endfacet
  facet normal -8.881784e-016 1.000000e+000 0.000000e+000
    outer loop
      vertex   -6.000000e+001 0.000000e+000 4.000000e+000
      vertex   -6.000000e+001 0.000000e+000 0.000000e+000
      vertex   -7.000000e+001 -8.881784e-015 4.000000e+000
    endloop
  endfacet
  facet normal -8.881784e-016 1.000000e+000 0.000000e+000
    outer loop
      vertex   -7.000000e+001 -8.881784e-015 4.000000e+000
      vertex   -6.000000e+001 0.000000e+000 0.000000e+000
      vertex   -7.000000e+001 -8.881784e-015 1.110223e-015
    endloop
  endfacet
  facet normal -7.105427e-016 -1.000000e+000 -0.000000e+000
    outer loop
      vertex   -4.000000e+001 -6.000000e+001 4.000000e+000
      vertex   -4.000000e+001 -6.000000e+001 0.000000e+000
      vertex   -3.000000e+001 -6.000000e+001 4.000000e+000
    endloop
  endfacet
  facet normal -7.105427e-016 -1.000000e+000 0.000000e+000
    outer loop
      vertex   -3.000000e+001 -6.000000e+001 4.000000e+000
      vertex   -4.000000e+001 -6.000000e+001 0.000000e+000
      vertex   -3.000000e+001 -6.000000e+001 1.110223e-015
    endloop
  endfacet
  facet normal 0.000000e+000 -1.000000e+000 0.000000e+000
    outer loop
      vertex   -6.200000e+001 -1.500000e+000 4.000000e+000
      vertex   -6.200000e+001 -1.500000e+000 0.000000e+000
      vertex   -3.800000e+001 -1.500000e+000 4.000000e+000
    endloop
  endfacet
  facet normal 0.000000e+000 -1.000000e+000 -0.000000e+000
    outer loop
      vertex   -3.800000e+001 -1.500000e+000 4.000000e+000
      vertex   -6.200000e+001 -1.500000e+000 0.000000e+000
      vertex   -3.800000e+001 -1.500000e+000 0.000000e+000
    endloop
  endfacet
  facet normal -1.000000e+000 -0.000000e+000 0.000000e+000
    outer loop
      vertex   -3.800000e+001 -1.550000e+001 4.000000e+000
      vertex   -3.800000e+001 -1.550000e+001 0.000000e+000
      vertex   -3.800000e+001 -1.850000e+001 4.000000e+000
    endloop
  endfacet
  facet normal -1.000000e+000 -0.000000e+000 -0.000000e+000
    outer loop
      vertex   -3.800000e+001 -1.850000e+001 4.000000e+000
      vertex   -3.800000e+001 -1.550000e+001 0.000000e+000
      vertex   -3.800000e+001 -1.850000e+001 0.000000e+000
    endloop
  endfacet
  facet normal -1.000000e+000 -0.000000e+000 -0.000000e+000
    outer loop
      vertex   -3.800000e+001 -1.500000e+000 4.000000e+000
      vertex   -3.800000e+001 -1.500000e+000 0.000000e+000
      vertex   -3.800000e+001 -4.500000e+000 4.000000e+000
    endloop
  endfacet
  facet normal -1.000000e+000 -0.000000e+000 -0.000000e+000
    outer loop
      vertex   -3.800000e+001 -4.500000e+000 4.000000e+000
      vertex   -3.800000e+001 -1.500000e+000 0.000000e+000
      vertex   -3.800000e+001 -4.500000e+000 0.000000e+000
    endloop
  endfacet
  facet normal 1.000000e+000 0.000000e+000 -0.000000e+000
    outer loop
      vertex   -6.200000e+001 -1.550000e+001 0.000000e+000
      vertex   -6.200000e+001 -1.550000e+001 4.000000e+000
      vertex   -6.200000e+001 -1.850000e+001 0.000000e+000
    endloop
  endfacet
  facet normal 1.000000e+000 0.000000e+000 -0.000000e+000
    outer loop
      vertex   -6.200000e+001 -1.850000e+001 0.000000e+000
      vertex   -6.200000e+001 -1.550000e+001 4.000000e+000
      vertex   -6.200000e+001 -1.850000e+001 4.000000e+000
    endloop
  endfacet
  facet normal 0.000000e+000 1.000000e+000 0.000000e+000
    outer loop
      vertex   -3.800000e+001 -1.850000e+001 4.000000e+000
      vertex   -3.800000e+001 -1.850000e+001 0.000000e+000
      vertex   -6.200000e+001 -1.850000e+001 4.000000e+000
    endloop
  endfacet
  facet normal 0.000000e+000 1.000000e+000 0.000000e+000
    outer loop
      vertex   -6.200000e+001 -1.850000e+001 4.000000e+000
      vertex   -3.800000e+001 -1.850000e+001 0.000000e+000
      vertex   -6.200000e+001 -1.850000e+001 0.000000e+000
    endloop
  endfacet
  facet normal 1.000000e+000 -0.000000e+000 0.000000e+000
    outer loop
      vertex   -6.200000e+001 -4.500000e+000 4.000000e+000
      vertex   -6.200000e+001 -4.500000e+000 0.000000e+000
      vertex   -6.200000e+001 -1.500000e+000 4.000000e+000
    endloop
  endfacet
  facet normal 1.000000e+000 -0.000000e+000 0.000000e+000
    outer loop
      vertex   -6.200000e+001 -1.500000e+000 4.000000e+000
      vertex   -6.200000e+001 -4.500000e+000 0.000000e+000
      vertex   -6.200000e+001 -1.500000e+000 0.000000e+000
    endloop
  endfacet
  facet normal 5.921189e-016 -1.000000e+000 -4.440892e-016
    outer loop
      vertex   -3.800000e+001 -4.500000e+000 4.000000e+000
      vertex   -3.800000e+001 -4.500000e+000 0.000000e+000
      vertex   -3.500000e+001 -4.500000e+000 4.000000e+000
    endloop
  endfacet
  facet normal 0.000000e+000 -1.000000e+000 -0.000000e+000
    outer loop
      vertex   -3.500000e+001 -4.500000e+000 4.000000e+000
      vertex   -3.800000e+001 -4.500000e+000 0.000000e+000
      vertex   -3.500000e+001 -4.500000e+000 0.000000e+000
    endloop
  endfacet
  facet normal -5.921189e-016 1.000000e+000 -4.440892e-016
    outer loop
      vertex   -3.800000e+001 -1.550000e+001 0.000000e+000
      vertex   -3.800000e+001 -1.550000e+001 4.000000e+000
      vertex   -3.500000e+001 -1.550000e+001 0.000000e+000
    endloop
  endfacet
  facet normal 0.000000e+000 1.000000e+000 -0.000000e+000
    outer loop
      vertex   -3.500000e+001 -1.550000e+001 0.000000e+000
      vertex   -3.800000e+001 -1.550000e+001 4.000000e+000
      vertex   -3.500000e+001 -1.550000e+001 4.000000e+000
    endloop
  endfacet
  facet normal 1.000000e+000 -0.000000e+000 0.000000e+000
    outer loop
      vertex   -6.500000e+001 -1.550000e+001 4.000000e+000
      vertex   -6.500000e+001 -1.550000e+001 0.000000e+000
      vertex   -6.500000e+001 -4.500000e+000 4.000000e+000
    endloop
  endfacet
  facet normal 1.000000e+000 -0.000000e+000 0.000000e+000
    outer loop
      vertex   -6.500000e+001 -4.500000e+000 4.000000e+000
      vertex   -6.500000e+001 -1.550000e+001 0.000000e+000
      vertex   -6.500000e+001 -4.500000e+000 0.000000e+000
    endloop
  endfacet
  facet normal -1.000000e+000 -0.000000e+000 -0.000000e+000
    outer loop
      vertex   -3.500000e+001 -4.500000e+000 4.000000e+000
      vertex   -3.500000e+001 -4.500000e+000 0.000000e+000
      vertex   -3.500000e+001 -1.550000e+001 4.000000e+000
    endloop
  endfacet
  facet normal -1.000000e+000 -0.000000e+000 -0.000000e+000
    outer loop
      vertex   -3.500000e+001 -1.550000e+001 4.000000e+000
      vertex   -3.500000e+001 -4.500000e+000 0.000000e+000
      vertex   -3.500000e+001 -1.550000e+001 0.000000e+000
    endloop
  endfacet
  facet normal 0.000000e+000 -1.000000e+000 -4.440892e-016
    outer loop
      vertex   -6.200000e+001 -4.500000e+000 0.000000e+000
      vertex   -6.200000e+001 -4.500000e+000 4.000000e+000
      vertex   -6.500000e+001 -4.500000e+000 0.000000e+000
    endloop
  endfacet
  facet normal -5.921189e-016 -1.000000e+000 0.000000e+000
    outer loop
      vertex   -6.500000e+001 -4.500000e+000 0.000000e+000
      vertex   -6.200000e+001 -4.500000e+000 4.000000e+000
      vertex   -6.500000e+001 -4.500000e+000 4.000000e+000
    endloop
  endfacet
  facet normal 0.000000e+000 1.000000e+000 -4.440892e-016
    outer loop
      vertex   -6.200000e+001 -1.550000e+001 4.000000e+000
      vertex   -6.200000e+001 -1.550000e+001 0.000000e+000
      vertex   -6.500000e+001 -1.550000e+001 4.000000e+000
    endloop
  endfacet
  facet normal 5.921189e-016 1.000000e+000 0.000000e+000
    outer loop
      vertex   -6.500000e+001 -1.550000e+001 4.000000e+000
      vertex   -6.200000e+001 -1.550000e+001 0.000000e+000
      vertex   -6.500000e+001 -1.550000e+001 0.000000e+000
    endloop
  endfacet
  facet normal 0.000000e+000 1.000000e+000 0.000000e+000
    outer loop
      vertex   -3.600000e+001 -3.550000e+001 4.000000e+000
      vertex   -3.600000e+001 -3.550000e+001 0.000000e+000
      vertex   -6.400000e+001 -3.550000e+001 4.000000e+000
    endloop
  endfacet
  facet normal 0.000000e+000 1.000000e+000 0.000000e+000
    outer loop
      vertex   -6.400000e+001 -3.550000e+001 4.000000e+000
      vertex   -3.600000e+001 -3.550000e+001 0.000000e+000
      vertex   -6.400000e+001 -3.550000e+001 0.000000e+000
    endloop
  endfacet
  facet normal 1.000000e+000 -0.000000e+000 0.000000e+000
    outer loop
      vertex   -6.400000e+001 -3.550000e+001 4.000000e+000
      vertex   -6.400000e+001 -3.550000e+001 0.000000e+000
      vertex   -6.400000e+001 -2.450000e+001 4.000000e+000
    endloop
  endfacet
  facet normal 1.000000e+000 -0.000000e+000 0.000000e+000
    outer loop
      vertex   -6.400000e+001 -2.450000e+001 4.000000e+000
      vertex   -6.400000e+001 -3.550000e+001 0.000000e+000
      vertex   -6.400000e+001 -2.450000e+001 0.000000e+000
    endloop
  endfacet
  facet normal 0.000000e+000 -1.000000e+000 0.000000e+000
    outer loop
      vertex   -6.400000e+001 -2.450000e+001 4.000000e+000
      vertex   -6.400000e+001 -2.450000e+001 0.000000e+000
      vertex   -3.600000e+001 -2.450000e+001 4.000000e+000
    endloop
  endfacet
  facet normal 0.000000e+000 -1.000000e+000 -0.000000e+000
    outer loop
      vertex   -3.600000e+001 -2.450000e+001 4.000000e+000
      vertex   -6.400000e+001 -2.450000e+001 0.000000e+000
      vertex   -3.600000e+001 -2.450000e+001 0.000000e+000
    endloop
  endfacet
  facet normal -1.000000e+000 -0.000000e+000 -0.000000e+000
    outer loop
      vertex   -3.600000e+001 -2.450000e+001 4.000000e+000
      vertex   -3.600000e+001 -2.450000e+001 0.000000e+000
      vertex   -3.600000e+001 -3.550000e+001 4.000000e+000
    endloop
  endfacet
  facet normal -1.000000e+000 -0.000000e+000 -0.000000e+000
    outer loop
      vertex   -3.600000e+001 -3.550000e+001 4.000000e+000
      vertex   -3.600000e+001 -2.450000e+001 0.000000e+000
      vertex   -3.600000e+001 -3.550000e+001 0.000000e+000
    endloop
  endfacet
  facet normal 0.000000e+000 1.000000e+000 0.000000e+000
    outer loop
      vertex   -3.600000e+001 -5.550000e+001 4.000000e+000
      vertex   -3.600000e+001 -5.550000e+001 0.000000e+000
      vertex   -6.400000e+001 -5.550000e+001 4.000000e+000
    endloop
  endfacet
  facet normal 0.000000e+000 1.000000e+000 0.000000e+000
    outer loop
      vertex   -6.400000e+001 -5.550000e+001 4.000000e+000
      vertex   -3.600000e+001 -5.550000e+001 0.000000e+000
      vertex   -6.400000e+001 -5.550000e+001 0.000000e+000
    endloop
  endfacet
  facet normal 1.000000e+000 -0.000000e+000 0.000000e+000
    outer loop
      vertex   -6.400000e+001 -5.550000e+001 4.000000e+000
      vertex   -6.400000e+001 -5.550000e+001 0.000000e+000
      vertex   -6.400000e+001 -4.450000e+001 4.000000e+000
    endloop
  endfacet
  facet normal 1.000000e+000 -0.000000e+000 0.000000e+000
    outer loop
      vertex   -6.400000e+001 -4.450000e+001 4.000000e+000
      vertex   -6.400000e+001 -5.550000e+001 0.000000e+000
      vertex   -6.400000e+001 -4.450000e+001 0.000000e+000
    endloop
  endfacet
  facet normal 0.000000e+000 -1.000000e+000 0.000000e+000
    outer loop
      vertex   -6.400000e+001 -4.450000e+001 4.000000e+000
      vertex   -6.400000e+001 -4.450000e+001 0.000000e+000
      vertex   -3.600000e+001 -4.450000e+001 4.000000e+000
    endloop
  endfacet
  facet normal 0.000000e+000 -1.000000e+000 -0.000000e+000
    outer loop
      vertex   -3.600000e+001 -4.450000e+001 4.000000e+000
      vertex   -6.400000e+001 -4.450000e+001 0.000000e+000
      vertex   -3.600000e+001 -4.450000e+001 0.000000e+000
    endloop
  endfacet
  facet normal -1.000000e+000 -0.000000e+000 -0.000000e+000
    outer loop
      vertex   -3.600000e+001 -4.450000e+001 4.000000e+000
      vertex   -3.600000e+001 -4.450000e+001 0.000000e+000
      vertex   -3.600000e+001 -5.550000e+001 4.000000e+000
    endloop
  endfacet
  facet normal -1.000000e+000 -0.000000e+000 -0.000000e+000
    outer loop
      vertex   -3.600000e+001 -5.550000e+001 4.000000e+000
      vertex   -3.600000e+001 -4.450000e+001 0.000000e+000
      vertex   -3.600000e+001 -5.550000e+001 0.000000e+000
    endloop
  endfacet
  facet normal 8.881784e-016 1.000000e+000 -0.000000e+000
    outer loop
      vertex   -4.000000e+001 0.000000e+000 0.000000e+000
      vertex   -4.000000e+001 0.000000e+000 4.000000e+000
      vertex   -3.000000e+001 -8.881784e-015 1.110223e-015
    endloop
  endfacet
  facet normal 8.881784e-016 1.000000e+000 0.000000e+000
    outer loop
      vertex   -3.000000e+001 -8.881784e-015 1.110223e-015
      vertex   -4.000000e+001 0.000000e+000 4.000000e+000
      vertex   -3.000000e+001 -8.881784e-015 4.000000e+000
    endloop
  endfacet
  facet normal -1.000000e+000 0.000000e+000 0.000000e+000
    outer loop
      vertex   -7.000000e+001 -6.000000e+001 1.110223e-015
      vertex   -7.000000e+001 -6.000000e+001 4.000000e+000
      vertex   -7.000000e+001 -3.000000e+001 1.110223e-015
    endloop
  endfacet
  facet normal -1.000000e+000 0.000000e+000 0.000000e+000
    outer loop
      vertex   -7.000000e+001 -3.000000e+001 1.110223e-015
      vertex   -7.000000e+001 -6.000000e+001 4.000000e+000
      vertex   -7.000000e+001 -3.000000e+001 4.000000e+000
    endloop
  endfacet
  facet normal -1.000000e+000 0.000000e+000 0.000000e+000
    outer loop
      vertex   -7.000000e+001 -8.881784e-015 1.110223e-015
      vertex   -7.000000e+001 -3.000000e+001 4.000000e+000
      vertex   -7.000000e+001 -8.881784e-015 4.000000e+000
    endloop
  endfacet
  facet normal -1.000000e+000 0.000000e+000 0.000000e+000
    outer loop
      vertex   -7.000000e+001 -8.881784e-015 1.110223e-015
      vertex   -7.000000e+001 -3.000000e+001 1.110223e-015
      vertex   -7.000000e+001 -3.000000e+001 4.000000e+000
    endloop
  endfacet
  facet normal 7.105427e-016 -1.000000e+000 0.000000e+000
    outer loop
      vertex   -6.000000e+001 -6.000000e+001 0.000000e+000
      vertex   -6.000000e+001 -6.000000e+001 4.000000e+000
      vertex   -7.000000e+001 -6.000000e+001 1.110223e-015
    endloop
  endfacet
  facet normal 7.105427e-016 -1.000000e+000 0.000000e+000
    outer loop
      vertex   -7.000000e+001 -6.000000e+001 1.110223e-015
      vertex   -6.000000e+001 -6.000000e+001 4.000000e+000
      vertex   -7.000000e+001 -6.000000e+001 4.000000e+000
    endloop
  endfacet
  facet normal 1.000000e+000 0.000000e+000 -0.000000e+000
    outer loop
      vertex   -3.000000e+001 -8.881784e-015 1.110223e-015
      vertex   -3.000000e+001 -8.881784e-015 4.000000e+000
      vertex   -3.000000e+001 -3.000000e+001 1.110223e-015
    endloop
  endfacet
  facet normal 1.000000e+000 0.000000e+000 -0.000000e+000
    outer loop
      vertex   -3.000000e+001 -3.000000e+001 1.110223e-015
      vertex   -3.000000e+001 -8.881784e-015 4.000000e+000
      vertex   -3.000000e+001 -3.000000e+001 4.000000e+000
    endloop
  endfacet
  facet normal 1.000000e+000 0.000000e+000 -0.000000e+000
    outer loop
      vertex   -3.000000e+001 -6.000000e+001 1.110223e-015
      vertex   -3.000000e+001 -3.000000e+001 4.000000e+000
      vertex   -3.000000e+001 -6.000000e+001 4.000000e+000
    endloop
  endfacet
  facet normal 1.000000e+000 0.000000e+000 0.000000e+000
    outer loop
      vertex   -3.000000e+001 -6.000000e+001 1.110223e-015
      vertex   -3.000000e+001 -3.000000e+001 1.110223e-015
      vertex   -3.000000e+001 -3.000000e+001 4.000000e+000
    endloop
  endfacet
  facet normal -1.000000e+000 0.000000e+000 0.000000e+000
    outer loop
      vertex   -6.000000e+001 -8.000000e+001 0.000000e+000
      vertex   -6.000000e+001 -8.000000e+001 4.000000e+000
      vertex   -6.000000e+001 -6.000000e+001 0.000000e+000
    endloop
  endfacet
  facet normal -1.000000e+000 0.000000e+000 0.000000e+000
    outer loop
      vertex   -6.000000e+001 -6.000000e+001 0.000000e+000
      vertex   -6.000000e+001 -8.000000e+001 4.000000e+000
      vertex   -6.000000e+001 -6.000000e+001 4.000000e+000
    endloop
  endfacet
  facet normal -0.000000e+000 -1.000000e+000 0.000000e+000
    outer loop
      vertex   -4.000000e+001 -8.000000e+001 0.000000e+000
      vertex   -4.000000e+001 -8.000000e+001 4.000000e+000
      vertex   -6.000000e+001 -8.000000e+001 0.000000e+000
    endloop
  endfacet
  facet normal 0.000000e+000 -1.000000e+000 0.000000e+000
    outer loop
      vertex   -6.000000e+001 -8.000000e+001 0.000000e+000
      vertex   -4.000000e+001 -8.000000e+001 4.000000e+000
      vertex   -6.000000e+001 -8.000000e+001 4.000000e+000
    endloop
  endfacet
  facet normal 1.000000e+000 0.000000e+000 -0.000000e+000
    outer loop
      vertex   -4.000000e+001 -6.000000e+001 0.000000e+000
      vertex   -4.000000e+001 -6.000000e+001 4.000000e+000
      vertex   -4.000000e+001 -8.000000e+001 0.000000e+000
    endloop
  endfacet
  facet normal 1.000000e+000 0.000000e+000 -0.000000e+000
    outer loop
      vertex   -4.000000e+001 -8.000000e+001 0.000000e+000
      vertex   -4.000000e+001 -6.000000e+001 4.000000e+000
      vertex   -4.000000e+001 -8.000000e+001 4.000000e+000
    endloop
  endfacet
  facet normal 0.000000e+000 -1.000000e+000 7.105427e-015
    outer loop
      vertex   -4.500000e+001 -6.500000e+001 4.000000e+000
      vertex   -4.500000e+001 -6.500000e+001 1.400000e+001
      vertex   -5.500000e+001 -6.500000e+001 4.000000e+000
    endloop
  endfacet
  facet normal 0.000000e+000 -1.000000e+000 7.105427e-015
    outer loop
      vertex   -5.500000e+001 -6.500000e+001 4.000000e+000
      vertex   -4.500000e+001 -6.500000e+001 1.400000e+001
      vertex   -5.500000e+001 -6.500000e+001 1.400000e+001
    endloop
  endfacet
  facet normal 0.000000e+000 1.000000e+000 -7.105427e-015
    outer loop
      vertex   -5.500000e+001 -7.500000e+001 4.000000e+000
      vertex   -5.500000e+001 -7.500000e+001 1.400000e+001
      vertex   -4.500000e+001 -7.500000e+001 4.000000e+000
    endloop
  endfacet
  facet normal 0.000000e+000 1.000000e+000 -7.105427e-015
    outer loop
      vertex   -4.500000e+001 -7.500000e+001 4.000000e+000
      vertex   -5.500000e+001 -7.500000e+001 1.400000e+001
      vertex   -4.500000e+001 -7.500000e+001 1.400000e+001
    endloop
  endfacet
  facet normal -1.000000e+000 0.000000e+000 0.000000e+000
    outer loop
      vertex   -4.500000e+001 -7.500000e+001 4.000000e+000
      vertex   -4.500000e+001 -7.500000e+001 1.400000e+001
      vertex   -4.500000e+001 -6.500000e+001 4.000000e+000
    endloop
  endfacet
  facet normal -1.000000e+000 0.000000e+000 0.000000e+000
    outer loop
      vertex   -4.500000e+001 -6.500000e+001 4.000000e+000
      vertex   -4.500000e+001 -7.500000e+001 1.400000e+001
      vertex   -4.500000e+001 -6.500000e+001 1.400000e+001
    endloop
  endfacet
  facet normal -0.000000e+000 -0.000000e+000 1.000000e+000
    outer loop
      vertex   -5.500000e+001 -7.500000e+001 1.400000e+001
      vertex   -4.300000e+001 -7.700000e+001 1.400000e+001
      vertex   -4.500000e+001 -7.500000e+001 1.400000e+001
    endloop
  endfacet
  facet normal -0.000000e+000 0.000000e+000 1.000000e+000
    outer loop
      vertex   -5.500000e+001 -7.500000e+001 1.400000e+001
      vertex   -5.700000e+001 -7.700000e+001 1.400000e+001
      vertex   -4.300000e+001 -7.700000e+001 1.400000e+001
    endloop
  endfacet
  facet normal 0.000000e+000 0.000000e+000 1.000000e+000
    outer loop
      vertex   -5.500000e+001 -7.500000e+001 1.400000e+001
      vertex   -5.700000e+001 -6.300000e+001 1.400000e+001
      vertex   -5.700000e+001 -7.700000e+001 1.400000e+001
    endloop
  endfacet
  facet normal 0.000000e+000 -0.000000e+000 1.000000e+000
    outer loop
      vertex   -5.500000e+001 -7.500000e+001 1.400000e+001
      vertex   -5.500000e+001 -6.500000e+001 1.400000e+001
      vertex   -5.700000e+001 -6.300000e+001 1.400000e+001
    endloop
  endfacet
  facet normal -0.000000e+000 0.000000e+000 1.000000e+000
    outer loop
      vertex   -5.700000e+001 -6.300000e+001 1.400000e+001
      vertex   -5.500000e+001 -6.500000e+001 1.400000e+001
      vertex   -4.500000e+001 -6.500000e+001 1.400000e+001
    endloop
  endfacet
  facet normal 0.000000e+000 0.000000e+000 1.000000e+000
    outer loop
      vertex   -4.300000e+001 -6.300000e+001 1.400000e+001
      vertex   -4.500000e+001 -6.500000e+001 1.400000e+001
      vertex   -4.500000e+001 -7.500000e+001 1.400000e+001
    endloop
  endfacet
  facet normal 0.000000e+000 -0.000000e+000 1.000000e+000
    outer loop
      vertex   -4.300000e+001 -7.700000e+001 1.400000e+001
      vertex   -4.300000e+001 -6.300000e+001 1.400000e+001
      vertex   -4.500000e+001 -7.500000e+001 1.400000e+001
    endloop
  endfacet
  facet normal -0.000000e+000 0.000000e+000 1.000000e+000
    outer loop
      vertex   -5.700000e+001 -6.300000e+001 1.400000e+001
      vertex   -4.500000e+001 -6.500000e+001 1.400000e+001
      vertex   -4.300000e+001 -6.300000e+001 1.400000e+001
    endloop
  endfacet
  facet normal -0.000000e+000 1.000000e+000 0.000000e+000
    outer loop
      vertex   -5.700000e+001 -6.300000e+001 4.000000e+000
      vertex   -5.700000e+001 -6.300000e+001 1.400000e+001
      vertex   -4.300000e+001 -6.300000e+001 4.000000e+000
    endloop
  endfacet
  facet normal 0.000000e+000 1.000000e+000 -0.000000e+000
    outer loop
      vertex   -4.300000e+001 -6.300000e+001 4.000000e+000
      vertex   -5.700000e+001 -6.300000e+001 1.400000e+001
      vertex   -4.300000e+001 -6.300000e+001 1.400000e+001
    endloop
  endfacet
  facet normal -1.000000e+000 0.000000e+000 0.000000e+000
    outer loop
      vertex   -5.700000e+001 -7.700000e+001 4.000000e+000
      vertex   -5.700000e+001 -7.700000e+001 1.400000e+001
      vertex   -5.700000e+001 -6.300000e+001 4.000000e+000
    endloop
  endfacet
  facet normal -1.000000e+000 0.000000e+000 0.000000e+000
    outer loop
      vertex   -5.700000e+001 -6.300000e+001 4.000000e+000
      vertex   -5.700000e+001 -7.700000e+001 1.400000e+001
      vertex   -5.700000e+001 -6.300000e+001 1.400000e+001
    endloop
  endfacet
  facet normal -0.000000e+000 -1.000000e+000 0.000000e+000
    outer loop
      vertex   -4.300000e+001 -7.700000e+001 4.000000e+000
      vertex   -4.300000e+001 -7.700000e+001 1.400000e+001
      vertex   -5.700000e+001 -7.700000e+001 4.000000e+000
    endloop
  endfacet
  facet normal 0.000000e+000 -1.000000e+000 0.000000e+000
    outer loop
      vertex   -5.700000e+001 -7.700000e+001 4.000000e+000
      vertex   -4.300000e+001 -7.700000e+001 1.400000e+001
      vertex   -5.700000e+001 -7.700000e+001 1.400000e+001
    endloop
  endfacet
  facet normal 1.000000e+000 0.000000e+000 -0.000000e+000
    outer loop
      vertex   -4.300000e+001 -6.300000e+001 4.000000e+000
      vertex   -4.300000e+001 -6.300000e+001 1.400000e+001
      vertex   -4.300000e+001 -7.700000e+001 4.000000e+000
    endloop
  endfacet
  facet normal 1.000000e+000 0.000000e+000 -0.000000e+000
    outer loop
      vertex   -4.300000e+001 -7.700000e+001 4.000000e+000
      vertex   -4.300000e+001 -6.300000e+001 1.400000e+001
      vertex   -4.300000e+001 -7.700000e+001 1.400000e+001
    endloop
  endfacet
  facet normal 0.000000e+000 -0.000000e+000 1.000000e+000
    outer loop
      vertex   -5.700000e+001 -7.700000e+001 4.000000e+000
      vertex   -5.700000e+001 -6.300000e+001 4.000000e+000
      vertex   -6.000000e+001 -6.000000e+001 4.000000e+000
    endloop
  endfacet
  facet normal 0.000000e+000 -0.000000e+000 1.000000e+000
    outer loop
      vertex   -6.000000e+001 -8.000000e+001 4.000000e+000
      vertex   -5.700000e+001 -7.700000e+001 4.000000e+000
      vertex   -6.000000e+001 -6.000000e+001 4.000000e+000
    endloop
  endfacet
  facet normal 0.000000e+000 -0.000000e+000 1.000000e+000
    outer loop
      vertex   -6.000000e+001 -8.000000e+001 4.000000e+000
      vertex   -4.000000e+001 -8.000000e+001 4.000000e+000
      vertex   -5.700000e+001 -7.700000e+001 4.000000e+000
    endloop
  endfacet
  facet normal -0.000000e+000 -0.000000e+000 1.000000e+000
    outer loop
      vertex   -5.700000e+001 -7.700000e+001 4.000000e+000
      vertex   -4.000000e+001 -8.000000e+001 4.000000e+000
      vertex   -4.300000e+001 -7.700000e+001 4.000000e+000
    endloop
  endfacet
  facet normal -0.000000e+000 0.000000e+000 1.000000e+000
    outer loop
      vertex   -4.300000e+001 -7.700000e+001 4.000000e+000
      vertex   -4.000000e+001 -8.000000e+001 4.000000e+000
      vertex   -4.000000e+001 -6.000000e+001 4.000000e+000
    endloop
  endfacet
  facet normal 0.000000e+000 -0.000000e+000 1.000000e+000
    outer loop
      vertex   -4.300000e+001 -6.300000e+001 4.000000e+000
      vertex   -4.000000e+001 -6.000000e+001 4.000000e+000
      vertex   -6.000000e+001 -6.000000e+001 4.000000e+000
    endloop
  endfacet
  facet normal 0.000000e+000 -0.000000e+000 1.000000e+000
    outer loop
      vertex   -5.700000e+001 -6.300000e+001 4.000000e+000
      vertex   -4.300000e+001 -6.300000e+001 4.000000e+000
      vertex   -6.000000e+001 -6.000000e+001 4.000000e+000
    endloop
  endfacet
  facet normal -0.000000e+000 0.000000e+000 1.000000e+000
    outer loop
      vertex   -4.300000e+001 -6.300000e+001 4.000000e+000
      vertex   -4.300000e+001 -7.700000e+001 4.000000e+000
      vertex   -4.000000e+001 -6.000000e+001 4.000000e+000
    endloop
  endfacet
  facet normal 0.000000e+000 0.000000e+000 1.000000e+000
    outer loop
      vertex   -3.600000e+001 -4.450000e+001 4.000000e+000
      vertex   -6.400000e+001 -3.550000e+001 4.000000e+000
      vertex   -6.400000e+001 -4.450000e+001 4.000000e+000
    endloop
  endfacet
  facet normal 0.000000e+000 -0.000000e+000 1.000000e+000
    outer loop
      vertex   -3.600000e+001 -4.450000e+001 4.000000e+000
      vertex   -3.600000e+001 -3.550000e+001 4.000000e+000
      vertex   -6.400000e+001 -3.550000e+001 4.000000e+000
    endloop
  endfacet
  facet normal 0.000000e+000 -0.000000e+000 1.000000e+000
    outer loop
      vertex   -3.600000e+001 -4.450000e+001 4.000000e+000
      vertex   -3.000000e+001 -3.000000e+001 4.000000e+000
      vertex   -3.600000e+001 -3.550000e+001 4.000000e+000
    endloop
  endfacet
  facet normal -0.000000e+000 0.000000e+000 1.000000e+000
    outer loop
      vertex   -3.600000e+001 -4.450000e+001 4.000000e+000
      vertex   -3.000000e+001 -6.000000e+001 4.000000e+000
      vertex   -3.000000e+001 -3.000000e+001 4.000000e+000
    endloop
  endfacet
  facet normal 0.000000e+000 0.000000e+000 1.000000e+000
    outer loop
      vertex   -3.600000e+001 -4.450000e+001 4.000000e+000
      vertex   -3.600000e+001 -5.550000e+001 4.000000e+000
      vertex   -3.000000e+001 -6.000000e+001 4.000000e+000
    endloop
  endfacet
  facet normal 0.000000e+000 0.000000e+000 1.000000e+000
    outer loop
      vertex   -3.000000e+001 -6.000000e+001 4.000000e+000
      vertex   -3.600000e+001 -5.550000e+001 4.000000e+000
      vertex   -4.000000e+001 -6.000000e+001 4.000000e+000
    endloop
  endfacet
  facet normal 0.000000e+000 -0.000000e+000 1.000000e+000
    outer loop
      vertex   -4.000000e+001 -6.000000e+001 4.000000e+000
      vertex   -3.600000e+001 -5.550000e+001 4.000000e+000
      vertex   -6.400000e+001 -5.550000e+001 4.000000e+000
    endloop
  endfacet
  facet normal 0.000000e+000 0.000000e+000 1.000000e+000
    outer loop
      vertex   -6.000000e+001 -6.000000e+001 4.000000e+000
      vertex   -6.400000e+001 -5.550000e+001 4.000000e+000
      vertex   -7.000000e+001 -6.000000e+001 4.000000e+000
    endloop
  endfacet
  facet normal 0.000000e+000 -0.000000e+000 1.000000e+000
    outer loop
      vertex   -6.000000e+001 -6.000000e+001 4.000000e+000
      vertex   -4.000000e+001 -6.000000e+001 4.000000e+000
      vertex   -6.400000e+001 -5.550000e+001 4.000000e+000
    endloop
  endfacet
  facet normal 0.000000e+000 -0.000000e+000 1.000000e+000
    outer loop
      vertex   -6.400000e+001 -5.550000e+001 4.000000e+000
      vertex   -6.400000e+001 -4.450000e+001 4.000000e+000
      vertex   -7.000000e+001 -6.000000e+001 4.000000e+000
    endloop
  endfacet
  facet normal 0.000000e+000 -0.000000e+000 1.000000e+000
    outer loop
      vertex   -7.000000e+001 -6.000000e+001 4.000000e+000
      vertex   -6.400000e+001 -4.450000e+001 4.000000e+000
      vertex   -7.000000e+001 -3.000000e+001 4.000000e+000
    endloop
  endfacet
  facet normal -0.000000e+000 0.000000e+000 1.000000e+000
    outer loop
      vertex   -7.000000e+001 -3.000000e+001 4.000000e+000
      vertex   -6.400000e+001 -4.450000e+001 4.000000e+000
      vertex   -6.400000e+001 -3.550000e+001 4.000000e+000
    endloop
  endfacet
  facet normal 0.000000e+000 0.000000e+000 1.000000e+000
    outer loop
      vertex   -6.400000e+001 -2.450000e+001 4.000000e+000
      vertex   -7.000000e+001 -3.000000e+001 4.000000e+000
      vertex   -6.400000e+001 -3.550000e+001 4.000000e+000
    endloop
  endfacet
  facet normal 0.000000e+000 0.000000e+000 1.000000e+000
    outer loop
      vertex   -6.400000e+001 -2.450000e+001 4.000000e+000
      vertex   -6.500000e+001 -1.550000e+001 4.000000e+000
      vertex   -7.000000e+001 -3.000000e+001 4.000000e+000
    endloop
  endfacet
  facet normal 0.000000e+000 -0.000000e+000 1.000000e+000
    outer loop
      vertex   -6.400000e+001 -2.450000e+001 4.000000e+000
      vertex   -6.200000e+001 -1.850000e+001 4.000000e+000
      vertex   -6.500000e+001 -1.550000e+001 4.000000e+000
    endloop
  endfacet
  facet normal 0.000000e+000 -0.000000e+000 1.000000e+000
    outer loop
      vertex   -6.400000e+001 -2.450000e+001 4.000000e+000
      vertex   -3.600000e+001 -2.450000e+001 4.000000e+000
      vertex   -6.200000e+001 -1.850000e+001 4.000000e+000
    endloop
  endfacet
  facet normal -0.000000e+000 -0.000000e+000 1.000000e+000
    outer loop
      vertex   -6.200000e+001 -1.850000e+001 4.000000e+000
      vertex   -3.600000e+001 -2.450000e+001 4.000000e+000
      vertex   -3.800000e+001 -1.850000e+001 4.000000e+000
    endloop
  endfacet
  facet normal -0.000000e+000 0.000000e+000 1.000000e+000
    outer loop
      vertex   -3.800000e+001 -1.850000e+001 4.000000e+000
      vertex   -3.600000e+001 -2.450000e+001 4.000000e+000
      vertex   -3.500000e+001 -1.550000e+001 4.000000e+000
    endloop
  endfacet
  facet normal -0.000000e+000 0.000000e+000 1.000000e+000
    outer loop
      vertex   -3.800000e+001 -1.550000e+001 4.000000e+000
      vertex   -3.800000e+001 -1.850000e+001 4.000000e+000
      vertex   -3.500000e+001 -1.550000e+001 4.000000e+000
    endloop
  endfacet
  facet normal 0.000000e+000 0.000000e+000 1.000000e+000
    outer loop
      vertex   -3.500000e+001 -1.550000e+001 4.000000e+000
      vertex   -3.600000e+001 -2.450000e+001 4.000000e+000
      vertex   -3.000000e+001 -3.000000e+001 4.000000e+000
    endloop
  endfacet
  facet normal 0.000000e+000 0.000000e+000 1.000000e+000
    outer loop
      vertex   -3.000000e+001 -8.881784e-015 4.000000e+000
      vertex   -3.500000e+001 -1.550000e+001 4.000000e+000
      vertex   -3.000000e+001 -3.000000e+001 4.000000e+000
    endloop
  endfacet
  facet normal 0.000000e+000 0.000000e+000 1.000000e+000
    outer loop
      vertex   -3.000000e+001 -8.881784e-015 4.000000e+000
      vertex   -3.500000e+001 -4.500000e+000 4.000000e+000
      vertex   -3.500000e+001 -1.550000e+001 4.000000e+000
    endloop
  endfacet
  facet normal 0.000000e+000 0.000000e+000 1.000000e+000
    outer loop
      vertex   -3.000000e+001 -8.881784e-015 4.000000e+000
      vertex   -3.800000e+001 -1.500000e+000 4.000000e+000
      vertex   -3.500000e+001 -4.500000e+000 4.000000e+000
    endloop
  endfacet
  facet normal 0.000000e+000 0.000000e+000 1.000000e+000
    outer loop
      vertex   -3.000000e+001 -8.881784e-015 4.000000e+000
      vertex   -4.000000e+001 0.000000e+000 4.000000e+000
      vertex   -3.800000e+001 -1.500000e+000 4.000000e+000
    endloop
  endfacet
  facet normal 0.000000e+000 0.000000e+000 1.000000e+000
    outer loop
      vertex   -3.800000e+001 -1.500000e+000 4.000000e+000
      vertex   -4.000000e+001 0.000000e+000 4.000000e+000
      vertex   -6.200000e+001 -1.500000e+000 4.000000e+000
    endloop
  endfacet
  facet normal 0.000000e+000 -0.000000e+000 1.000000e+000
    outer loop
      vertex   -6.200000e+001 -1.500000e+000 4.000000e+000
      vertex   -4.000000e+001 0.000000e+000 4.000000e+000
      vertex   -6.000000e+001 0.000000e+000 4.000000e+000
    endloop
  endfacet
  facet normal -0.000000e+000 0.000000e+000 1.000000e+000
    outer loop
      vertex   -7.000000e+001 -8.881784e-015 4.000000e+000
      vertex   -6.200000e+001 -1.500000e+000 4.000000e+000
      vertex   -6.000000e+001 0.000000e+000 4.000000e+000
    endloop
  endfacet
  facet normal -0.000000e+000 0.000000e+000 1.000000e+000
    outer loop
      vertex   -7.000000e+001 -8.881784e-015 4.000000e+000
      vertex   -6.500000e+001 -4.500000e+000 4.000000e+000
      vertex   -6.200000e+001 -1.500000e+000 4.000000e+000
    endloop
  endfacet
  facet normal -0.000000e+000 0.000000e+000 1.000000e+000
    outer loop
      vertex   -7.000000e+001 -8.881784e-015 4.000000e+000
      vertex   -6.500000e+001 -1.550000e+001 4.000000e+000
      vertex   -6.500000e+001 -4.500000e+000 4.000000e+000
    endloop
  endfacet
  facet normal -0.000000e+000 0.000000e+000 1.000000e+000
    outer loop
      vertex   -7.000000e+001 -8.881784e-015 4.000000e+000
      vertex   -7.000000e+001 -3.000000e+001 4.000000e+000
      vertex   -6.500000e+001 -1.550000e+001 4.000000e+000
    endloop
  endfacet
  facet normal 0.000000e+000 -0.000000e+000 1.000000e+000
    outer loop
      vertex   -6.200000e+001 -4.500000e+000 4.000000e+000
      vertex   -6.200000e+001 -1.500000e+000 4.000000e+000
      vertex   -6.500000e+001 -4.500000e+000 4.000000e+000
    endloop
  endfacet
  facet normal -0.000000e+000 0.000000e+000 1.000000e+000
    outer loop
      vertex   -3.800000e+001 -1.500000e+000 4.000000e+000
      vertex   -3.800000e+001 -4.500000e+000 4.000000e+000
      vertex   -3.500000e+001 -4.500000e+000 4.000000e+000
    endloop
  endfacet
  facet normal 0.000000e+000 -0.000000e+000 1.000000e+000
    outer loop
      vertex   -6.200000e+001 -1.850000e+001 4.000000e+000
      vertex   -6.200000e+001 -1.550000e+001 4.000000e+000
      vertex   -6.500000e+001 -1.550000e+001 4.000000e+000
    endloop
  endfacet
  facet normal 0.000000e+000 0.000000e+000 1.000000e+000
    outer loop
      vertex   -4.000000e+001 2.000000e+001 4.000000e+000
      vertex   -4.300000e+001 3.000000e+000 4.000000e+000
      vertex   -4.000000e+001 0.000000e+000 4.000000e+000
    endloop
  endfacet
  facet normal 0.000000e+000 0.000000e+000 1.000000e+000
    outer loop
      vertex   -4.000000e+001 2.000000e+001 4.000000e+000
      vertex   -4.300000e+001 1.700000e+001 4.000000e+000
      vertex   -4.300000e+001 3.000000e+000 4.000000e+000
    endloop
  endfacet
  facet normal 0.000000e+000 0.000000e+000 1.000000e+000
    outer loop
      vertex   -4.000000e+001 2.000000e+001 4.000000e+000
      vertex   -6.000000e+001 2.000000e+001 4.000000e+000
      vertex   -4.300000e+001 1.700000e+001 4.000000e+000
    endloop
  endfacet
  facet normal 0.000000e+000 0.000000e+000 1.000000e+000
    outer loop
      vertex   -4.300000e+001 1.700000e+001 4.000000e+000
      vertex   -6.000000e+001 2.000000e+001 4.000000e+000
      vertex   -5.700000e+001 1.700000e+001 4.000000e+000
    endloop
  endfacet
  facet normal 0.000000e+000 0.000000e+000 1.000000e+000
    outer loop
      vertex   -5.700000e+001 1.700000e+001 4.000000e+000
      vertex   -6.000000e+001 2.000000e+001 4.000000e+000
      vertex   -5.700000e+001 3.000000e+000 4.000000e+000
    endloop
  endfacet
  facet normal 0.000000e+000 0.000000e+000 1.000000e+000
    outer loop
      vertex   -5.700000e+001 3.000000e+000 4.000000e+000
      vertex   -6.000000e+001 2.000000e+001 4.000000e+000
      vertex   -6.000000e+001 0.000000e+000 4.000000e+000
    endloop
  endfacet
  facet normal 0.000000e+000 0.000000e+000 1.000000e+000
    outer loop
      vertex   -4.000000e+001 0.000000e+000 4.000000e+000
      vertex   -5.700000e+001 3.000000e+000 4.000000e+000
      vertex   -6.000000e+001 0.000000e+000 4.000000e+000
    endloop
  endfacet
  facet normal 0.000000e+000 0.000000e+000 1.000000e+000
    outer loop
      vertex   -4.000000e+001 0.000000e+000 4.000000e+000
      vertex   -4.300000e+001 3.000000e+000 4.000000e+000
      vertex   -5.700000e+001 3.000000e+000 4.000000e+000
    endloop
  endfacet
  facet normal -0.000000e+000 0.000000e+000 1.000000e+000
    outer loop
      vertex   -3.600000e+001 -2.450000e+001 4.000000e+000
      vertex   -3.600000e+001 -3.550000e+001 4.000000e+000
      vertex   -3.000000e+001 -3.000000e+001 4.000000e+000
    endloop
  endfacet
  facet normal 0.000000e+000 0.000000e+000 -1.000000e+000
    outer loop
      vertex   -4.750000e+001 7.500000e+000 0.000000e+000
      vertex   -4.750000e+001 1.250000e+001 0.000000e+000
      vertex   -4.000000e+001 2.000000e+001 0.000000e+000
    endloop
  endfacet
  facet normal 0.000000e+000 0.000000e+000 -1.000000e+000
    outer loop
      vertex   -4.000000e+001 0.000000e+000 0.000000e+000
      vertex   -4.750000e+001 7.500000e+000 0.000000e+000
      vertex   -4.000000e+001 2.000000e+001 0.000000e+000
    endloop
  endfacet
  facet normal 0.000000e+000 0.000000e+000 -1.000000e+000
    outer loop
      vertex   -4.000000e+001 0.000000e+000 0.000000e+000
      vertex   -6.000000e+001 0.000000e+000 0.000000e+000
      vertex   -4.750000e+001 7.500000e+000 0.000000e+000
    endloop
  endfacet
  facet normal -0.000000e+000 -0.000000e+000 -1.000000e+000
    outer loop
      vertex   -4.000000e+001 0.000000e+000 0.000000e+000
      vertex   -3.800000e+001 -1.500000e+000 0.000000e+000
      vertex   -6.000000e+001 0.000000e+000 0.000000e+000
    endloop
  endfacet
  facet normal 1.110223e-016 1.480297e-016 -1.000000e+000
    outer loop
      vertex   -4.000000e+001 0.000000e+000 0.000000e+000
      vertex   -3.000000e+001 -8.881784e-015 1.110223e-015
      vertex   -3.800000e+001 -1.500000e+000 0.000000e+000
    endloop
  endfacet
  facet normal 1.168656e-016 1.168656e-016 -1.000000e+000
    outer loop
      vertex   -3.800000e+001 -1.500000e+000 0.000000e+000
      vertex   -3.000000e+001 -8.881784e-015 1.110223e-015
      vertex   -3.500000e+001 -4.500000e+000 0.000000e+000
    endloop
  endfacet
  facet normal 0.000000e+000 0.000000e+000 -1.000000e+000
    outer loop
      vertex   -3.800000e+001 -4.500000e+000 0.000000e+000
      vertex   -3.800000e+001 -1.500000e+000 0.000000e+000
      vertex   -3.500000e+001 -4.500000e+000 0.000000e+000
    endloop
  endfacet
  facet normal 0.000000e+000 0.000000e+000 -1.000000e+000
    outer loop
      vertex   -5.250000e+001 7.500000e+000 0.000000e+000
      vertex   -6.000000e+001 2.000000e+001 0.000000e+000
      vertex   -5.250000e+001 1.250000e+001 0.000000e+000
    endloop
  endfacet
  facet normal -0.000000e+000 0.000000e+000 -1.000000e+000
    outer loop
      vertex   -5.250000e+001 7.500000e+000 0.000000e+000
      vertex   -6.000000e+001 0.000000e+000 0.000000e+000
      vertex   -6.000000e+001 2.000000e+001 0.000000e+000
    endloop
  endfacet
  facet normal 0.000000e+000 -0.000000e+000 -1.000000e+000
    outer loop
      vertex   -5.250000e+001 7.500000e+000 0.000000e+000
      vertex   -4.750000e+001 7.500000e+000 0.000000e+000
      vertex   -6.000000e+001 0.000000e+000 0.000000e+000
    endloop
  endfacet
  facet normal 0.000000e+000 0.000000e+000 -1.000000e+000
    outer loop
      vertex   -4.750000e+001 -7.250000e+001 0.000000e+000
      vertex   -4.750000e+001 -6.750000e+001 0.000000e+000
      vertex   -4.000000e+001 -6.000000e+001 0.000000e+000
    endloop
  endfacet
  facet normal 0.000000e+000 0.000000e+000 -1.000000e+000
    outer loop
      vertex   -4.000000e+001 -8.000000e+001 0.000000e+000
      vertex   -4.750000e+001 -7.250000e+001 0.000000e+000
      vertex   -4.000000e+001 -6.000000e+001 0.000000e+000
    endloop
  endfacet
  facet normal 0.000000e+000 0.000000e+000 -1.000000e+000
    outer loop
      vertex   -4.000000e+001 -8.000000e+001 0.000000e+000
      vertex   -6.000000e+001 -8.000000e+001 0.000000e+000
      vertex   -4.750000e+001 -7.250000e+001 0.000000e+000
    endloop
  endfacet
  facet normal -0.000000e+000 0.000000e+000 -1.000000e+000
    outer loop
      vertex   -4.750000e+001 -7.250000e+001 0.000000e+000
      vertex   -6.000000e+001 -8.000000e+001 0.000000e+000
      vertex   -5.250000e+001 -7.250000e+001 0.000000e+000
    endloop
  endfacet
  facet normal -0.000000e+000 0.000000e+000 -1.000000e+000
    outer loop
      vertex   -5.250000e+001 -7.250000e+001 0.000000e+000
      vertex   -6.000000e+001 -8.000000e+001 0.000000e+000
      vertex   -6.000000e+001 -6.000000e+001 0.000000e+000
    endloop
  endfacet
  facet normal 0.000000e+000 0.000000e+000 -1.000000e+000
    outer loop
      vertex   -5.250000e+001 -6.750000e+001 0.000000e+000
      vertex   -6.000000e+001 -6.000000e+001 0.000000e+000
      vertex   -4.000000e+001 -6.000000e+001 0.000000e+000
    endloop
  endfacet
  facet normal 0.000000e+000 0.000000e+000 -1.000000e+000
    outer loop
      vertex   -4.750000e+001 -6.750000e+001 0.000000e+000
      vertex   -5.250000e+001 -6.750000e+001 0.000000e+000
      vertex   -4.000000e+001 -6.000000e+001 0.000000e+000
    endloop
  endfacet
  facet normal -0.000000e+000 -0.000000e+000 -1.000000e+000
    outer loop
      vertex   -5.250000e+001 -6.750000e+001 0.000000e+000
      vertex   -5.250000e+001 -7.250000e+001 0.000000e+000
      vertex   -6.000000e+001 -6.000000e+001 0.000000e+000
    endloop
  endfacet
  facet normal 0.000000e+000 0.000000e+000 -1.000000e+000
    outer loop
      vertex   -6.200000e+001 -4.500000e+000 0.000000e+000
      vertex   -6.500000e+001 -4.500000e+000 0.000000e+000
      vertex   -6.200000e+001 -1.500000e+000 0.000000e+000
    endloop
  endfacet
  facet normal -1.168656e-016 1.168656e-016 -1.000000e+000
    outer loop
      vertex   -6.200000e+001 -1.500000e+000 0.000000e+000
      vertex   -6.500000e+001 -4.500000e+000 0.000000e+000
      vertex   -7.000000e+001 -8.881784e-015 1.110223e-015
    endloop
  endfacet
  facet normal -1.110223e-016 1.480297e-016 -1.000000e+000
    outer loop
      vertex   -6.000000e+001 0.000000e+000 0.000000e+000
      vertex   -6.200000e+001 -1.500000e+000 0.000000e+000
      vertex   -7.000000e+001 -8.881784e-015 1.110223e-015
    endloop
  endfacet
  facet normal -0.000000e+000 -0.000000e+000 -1.000000e+000
    outer loop
      vertex   -6.000000e+001 0.000000e+000 0.000000e+000
      vertex   -3.800000e+001 -1.500000e+000 0.000000e+000
      vertex   -6.200000e+001 -1.500000e+000 0.000000e+000
    endloop
  endfacet
  facet normal -2.220446e-016 -0.000000e+000 -1.000000e+000
    outer loop
      vertex   -6.500000e+001 -4.500000e+000 0.000000e+000
      vertex   -6.500000e+001 -1.550000e+001 0.000000e+000
      vertex   -7.000000e+001 -8.881784e-015 1.110223e-015
    endloop
  endfacet
  facet normal -2.220446e-016 0.000000e+000 -1.000000e+000
    outer loop
      vertex   -7.000000e+001 -8.881784e-015 1.110223e-015
      vertex   -6.500000e+001 -1.550000e+001 0.000000e+000
      vertex   -7.000000e+001 -3.000000e+001 1.110223e-015
    endloop
  endfacet
  facet normal -1.679329e-016 -1.865921e-017 -1.000000e+000
    outer loop
      vertex   -7.000000e+001 -3.000000e+001 1.110223e-015
      vertex   -6.500000e+001 -1.550000e+001 0.000000e+000
      vertex   -6.400000e+001 -2.450000e+001 0.000000e+000
    endloop
  endfacet
  facet normal -1.850372e-016 0.000000e+000 -1.000000e+000
    outer loop
      vertex   -6.400000e+001 -3.550000e+001 0.000000e+000
      vertex   -7.000000e+001 -3.000000e+001 1.110223e-015
      vertex   -6.400000e+001 -2.450000e+001 0.000000e+000
    endloop
  endfacet
  facet normal -1.850372e-016 -0.000000e+000 -1.000000e+000
    outer loop
      vertex   -6.400000e+001 -3.550000e+001 0.000000e+000
      vertex   -6.400000e+001 -4.450000e+001 0.000000e+000
      vertex   -7.000000e+001 -3.000000e+001 1.110223e-015
    endloop
  endfacet
  facet normal 0.000000e+000 -0.000000e+000 -1.000000e+000
    outer loop
      vertex   -6.400000e+001 -3.550000e+001 0.000000e+000
      vertex   -3.600000e+001 -3.550000e+001 0.000000e+000
      vertex   -6.400000e+001 -4.450000e+001 0.000000e+000
    endloop
  endfacet
  facet normal 0.000000e+000 0.000000e+000 -1.000000e+000
    outer loop
      vertex   -6.400000e+001 -4.450000e+001 0.000000e+000
      vertex   -3.600000e+001 -3.550000e+001 0.000000e+000
      vertex   -3.600000e+001 -4.450000e+001 0.000000e+000
    endloop
  endfacet
  facet normal 1.850372e-016 0.000000e+000 -1.000000e+000
    outer loop
      vertex   -3.600000e+001 -4.450000e+001 0.000000e+000
      vertex   -3.600000e+001 -3.550000e+001 0.000000e+000
      vertex   -3.000000e+001 -3.000000e+001 1.110223e-015
    endloop
  endfacet
  facet normal 1.850372e-016 0.000000e+000 -1.000000e+000
    outer loop
      vertex   -3.000000e+001 -6.000000e+001 1.110223e-015
      vertex   -3.600000e+001 -4.450000e+001 0.000000e+000
      vertex   -3.000000e+001 -3.000000e+001 1.110223e-015
    endloop
  endfacet
  facet normal 1.850372e-016 0.000000e+000 -1.000000e+000
    outer loop
      vertex   -3.000000e+001 -6.000000e+001 1.110223e-015
      vertex   -3.600000e+001 -5.550000e+001 0.000000e+000
      vertex   -3.600000e+001 -4.450000e+001 0.000000e+000
    endloop
  endfacet
  facet normal 1.110223e-016 -9.868649e-017 -1.000000e+000
    outer loop
      vertex   -3.000000e+001 -6.000000e+001 1.110223e-015
      vertex   -4.000000e+001 -6.000000e+001 0.000000e+000
      vertex   -3.600000e+001 -5.550000e+001 0.000000e+000
    endloop
  endfacet
  facet normal -0.000000e+000 0.000000e+000 -1.000000e+000
    outer loop
      vertex   -3.600000e+001 -5.550000e+001 0.000000e+000
      vertex   -4.000000e+001 -6.000000e+001 0.000000e+000
      vertex   -6.000000e+001 -6.000000e+001 0.000000e+000
    endloop
  endfacet
  facet normal -1.110223e-016 -9.868649e-017 -1.000000e+000
    outer loop
      vertex   -6.400000e+001 -5.550000e+001 0.000000e+000
      vertex   -6.000000e+001 -6.000000e+001 0.000000e+000
      vertex   -7.000000e+001 -6.000000e+001 1.110223e-015
    endloop
  endfacet
  facet normal -1.850372e-016 0.000000e+000 -1.000000e+000
    outer loop
      vertex   -6.400000e+001 -4.450000e+001 0.000000e+000
      vertex   -7.000000e+001 -6.000000e+001 1.110223e-015
      vertex   -7.000000e+001 -3.000000e+001 1.110223e-015
    endloop
  endfacet
  facet normal -1.850372e-016 -0.000000e+000 -1.000000e+000
    outer loop
      vertex   -6.400000e+001 -4.450000e+001 0.000000e+000
      vertex   -6.400000e+001 -5.550000e+001 0.000000e+000
      vertex   -7.000000e+001 -6.000000e+001 1.110223e-015
    endloop
  endfacet
  facet normal -0.000000e+000 -0.000000e+000 -1.000000e+000
    outer loop
      vertex   -6.200000e+001 -1.550000e+001 0.000000e+000
      vertex   -6.200000e+001 -1.850000e+001 0.000000e+000
      vertex   -6.500000e+001 -1.550000e+001 0.000000e+000
    endloop
  endfacet
  facet normal 0.000000e+000 -0.000000e+000 -1.000000e+000
    outer loop
      vertex   -6.500000e+001 -1.550000e+001 0.000000e+000
      vertex   -6.200000e+001 -1.850000e+001 0.000000e+000
      vertex   -6.400000e+001 -2.450000e+001 0.000000e+000
    endloop
  endfacet
  facet normal 0.000000e+000 0.000000e+000 -1.000000e+000
    outer loop
      vertex   -6.400000e+001 -2.450000e+001 0.000000e+000
      vertex   -6.200000e+001 -1.850000e+001 0.000000e+000
      vertex   -3.800000e+001 -1.850000e+001 0.000000e+000
    endloop
  endfacet
  facet normal 0.000000e+000 0.000000e+000 -1.000000e+000
    outer loop
      vertex   -3.600000e+001 -2.450000e+001 0.000000e+000
      vertex   -3.800000e+001 -1.850000e+001 0.000000e+000
      vertex   -3.500000e+001 -1.550000e+001 0.000000e+000
    endloop
  endfacet
  facet normal 2.220446e-016 0.000000e+000 -1.000000e+000
    outer loop
      vertex   -3.000000e+001 -3.000000e+001 1.110223e-015
      vertex   -3.500000e+001 -1.550000e+001 0.000000e+000
      vertex   -3.000000e+001 -8.881784e-015 1.110223e-015
    endloop
  endfacet
  facet normal 1.679329e-016 -1.865921e-017 -1.000000e+000
    outer loop
      vertex   -3.000000e+001 -3.000000e+001 1.110223e-015
      vertex   -3.600000e+001 -2.450000e+001 0.000000e+000
      vertex   -3.500000e+001 -1.550000e+001 0.000000e+000
    endloop
  endfacet
  facet normal 1.850372e-016 0.000000e+000 -1.000000e+000
    outer loop
      vertex   -3.000000e+001 -3.000000e+001 1.110223e-015
      vertex   -3.600000e+001 -3.550000e+001 0.000000e+000
      vertex   -3.600000e+001 -2.450000e+001 0.000000e+000
    endloop
  endfacet
  facet normal 0.000000e+000 0.000000e+000 -1.000000e+000
    outer loop
      vertex   -3.800000e+001 -1.850000e+001 0.000000e+000
      vertex   -3.800000e+001 -1.550000e+001 0.000000e+000
      vertex   -3.500000e+001 -1.550000e+001 0.000000e+000
    endloop
  endfacet
  facet normal 2.220446e-016 0.000000e+000 -1.000000e+000
    outer loop
      vertex   -3.500000e+001 -1.550000e+001 0.000000e+000
      vertex   -3.500000e+001 -4.500000e+000 0.000000e+000
      vertex   -3.000000e+001 -8.881784e-015 1.110223e-015
    endloop
  endfacet
  facet normal 0.000000e+000 0.000000e+000 -1.000000e+000
    outer loop
      vertex   -3.600000e+001 -2.450000e+001 0.000000e+000
      vertex   -6.400000e+001 -2.450000e+001 0.000000e+000
      vertex   -3.800000e+001 -1.850000e+001 0.000000e+000
    endloop
  endfacet
  facet normal 0.000000e+000 -0.000000e+000 -1.000000e+000
    outer loop
      vertex   -6.400000e+001 -5.550000e+001 0.000000e+000
      vertex   -3.600000e+001 -5.550000e+001 0.000000e+000
      vertex   -6.000000e+001 -6.000000e+001 0.000000e+000
    endloop
  endfacet
  facet normal 0.000000e+000 -0.000000e+000 -1.000000e+000
    outer loop
      vertex   -6.000000e+001 2.000000e+001 0.000000e+000
      vertex   -4.000000e+001 2.000000e+001 0.000000e+000
      vertex   -5.250000e+001 1.250000e+001 0.000000e+000
    endloop
  endfacet
  facet normal 0.000000e+000 -0.000000e+000 -1.000000e+000
    outer loop
      vertex   -5.250000e+001 1.250000e+001 0.000000e+000
      vertex   -4.000000e+001 2.000000e+001 0.000000e+000
      vertex   -4.750000e+001 1.250000e+001 0.000000e+000
    endloop
  endfacet
  facet normal -0.000000e+000 1.000000e+000 0.000000e+000
    outer loop
      vertex   -6.000000e+001 2.000000e+001 0.000000e+000
      vertex   -6.000000e+001 2.000000e+001 4.000000e+000
      vertex   -4.000000e+001 2.000000e+001 0.000000e+000
    endloop
  endfacet
  facet normal 0.000000e+000 1.000000e+000 -0.000000e+000
    outer loop
      vertex   -4.000000e+001 2.000000e+001 0.000000e+000
      vertex   -6.000000e+001 2.000000e+001 4.000000e+000
      vertex   -4.000000e+001 2.000000e+001 4.000000e+000
    endloop
  endfacet
  facet normal -1.000000e+000 0.000000e+000 0.000000e+000
    outer loop
      vertex   -6.000000e+001 0.000000e+000 0.000000e+000
      vertex   -6.000000e+001 0.000000e+000 4.000000e+000
      vertex   -6.000000e+001 2.000000e+001 0.000000e+000
    endloop
  endfacet
  facet normal -1.000000e+000 0.000000e+000 0.000000e+000
    outer loop
      vertex   -6.000000e+001 2.000000e+001 0.000000e+000
      vertex   -6.000000e+001 0.000000e+000 4.000000e+000
      vertex   -6.000000e+001 2.000000e+001 4.000000e+000
    endloop
  endfacet
  facet normal 1.000000e+000 0.000000e+000 -0.000000e+000
    outer loop
      vertex   -4.000000e+001 2.000000e+001 0.000000e+000
      vertex   -4.000000e+001 2.000000e+001 4.000000e+000
      vertex   -4.000000e+001 0.000000e+000 0.000000e+000
    endloop
  endfacet
  facet normal 1.000000e+000 0.000000e+000 -0.000000e+000
    outer loop
      vertex   -4.000000e+001 0.000000e+000 0.000000e+000
      vertex   -4.000000e+001 2.000000e+001 4.000000e+000
      vertex   -4.000000e+001 0.000000e+000 4.000000e+000
    endloop
  endfacet
  facet normal 0.000000e+000 -1.000000e+000 7.105427e-015
    outer loop
      vertex   -4.500000e+001 1.500000e+001 4.000000e+000
      vertex   -4.500000e+001 1.500000e+001 1.400000e+001
      vertex   -5.500000e+001 1.500000e+001 4.000000e+000
    endloop
  endfacet
  facet normal 0.000000e+000 -1.000000e+000 7.105427e-015
    outer loop
      vertex   -5.500000e+001 1.500000e+001 4.000000e+000
      vertex   -4.500000e+001 1.500000e+001 1.400000e+001
      vertex   -5.500000e+001 1.500000e+001 1.400000e+001
    endloop
  endfacet
  facet normal 0.000000e+000 1.000000e+000 -7.105427e-015
    outer loop
      vertex   -5.500000e+001 5.000000e+000 4.000000e+000
      vertex   -5.500000e+001 5.000000e+000 1.400000e+001
      vertex   -4.500000e+001 5.000000e+000 4.000000e+000
    endloop
  endfacet
  facet normal 0.000000e+000 1.000000e+000 -7.105427e-015
    outer loop
      vertex   -4.500000e+001 5.000000e+000 4.000000e+000
      vertex   -5.500000e+001 5.000000e+000 1.400000e+001
      vertex   -4.500000e+001 5.000000e+000 1.400000e+001
    endloop
  endfacet
  facet normal -1.000000e+000 0.000000e+000 0.000000e+000
    outer loop
      vertex   -4.500000e+001 5.000000e+000 4.000000e+000
      vertex   -4.500000e+001 5.000000e+000 1.400000e+001
      vertex   -4.500000e+001 1.500000e+001 4.000000e+000
    endloop
  endfacet
  facet normal -1.000000e+000 0.000000e+000 0.000000e+000
    outer loop
      vertex   -4.500000e+001 1.500000e+001 4.000000e+000
      vertex   -4.500000e+001 5.000000e+000 1.400000e+001
      vertex   -4.500000e+001 1.500000e+001 1.400000e+001
    endloop
  endfacet
  facet normal -0.000000e+000 -0.000000e+000 1.000000e+000
    outer loop
      vertex   -5.500000e+001 5.000000e+000 1.400000e+001
      vertex   -4.300000e+001 3.000000e+000 1.400000e+001
      vertex   -4.500000e+001 5.000000e+000 1.400000e+001
    endloop
  endfacet
  facet normal -0.000000e+000 0.000000e+000 1.000000e+000
    outer loop
      vertex   -5.500000e+001 5.000000e+000 1.400000e+001
      vertex   -5.700000e+001 3.000000e+000 1.400000e+001
      vertex   -4.300000e+001 3.000000e+000 1.400000e+001
    endloop
  endfacet
  facet normal 0.000000e+000 0.000000e+000 1.000000e+000
    outer loop
      vertex   -5.500000e+001 5.000000e+000 1.400000e+001
      vertex   -5.700000e+001 1.700000e+001 1.400000e+001
      vertex   -5.700000e+001 3.000000e+000 1.400000e+001
    endloop
  endfacet
  facet normal 0.000000e+000 -0.000000e+000 1.000000e+000
    outer loop
      vertex   -5.500000e+001 5.000000e+000 1.400000e+001
      vertex   -5.500000e+001 1.500000e+001 1.400000e+001
      vertex   -5.700000e+001 1.700000e+001 1.400000e+001
    endloop
  endfacet
  facet normal -0.000000e+000 0.000000e+000 1.000000e+000
    outer loop
      vertex   -5.700000e+001 1.700000e+001 1.400000e+001
      vertex   -5.500000e+001 1.500000e+001 1.400000e+001
      vertex   -4.500000e+001 1.500000e+001 1.400000e+001
    endloop
  endfacet
  facet normal 0.000000e+000 0.000000e+000 1.000000e+000
    outer loop
      vertex   -4.300000e+001 1.700000e+001 1.400000e+001
      vertex   -4.500000e+001 1.500000e+001 1.400000e+001
      vertex   -4.500000e+001 5.000000e+000 1.400000e+001
    endloop
  endfacet
  facet normal 0.000000e+000 -0.000000e+000 1.000000e+000
    outer loop
      vertex   -4.300000e+001 3.000000e+000 1.400000e+001
      vertex   -4.300000e+001 1.700000e+001 1.400000e+001
      vertex   -4.500000e+001 5.000000e+000 1.400000e+001
    endloop
  endfacet
  facet normal -0.000000e+000 0.000000e+000 1.000000e+000
    outer loop
      vertex   -5.700000e+001 1.700000e+001 1.400000e+001
      vertex   -4.500000e+001 1.500000e+001 1.400000e+001
      vertex   -4.300000e+001 1.700000e+001 1.400000e+001
    endloop
  endfacet
  facet normal -0.000000e+000 1.000000e+000 0.000000e+000
    outer loop
      vertex   -5.700000e+001 1.700000e+001 4.000000e+000
      vertex   -5.700000e+001 1.700000e+001 1.400000e+001
      vertex   -4.300000e+001 1.700000e+001 4.000000e+000
    endloop
  endfacet
  facet normal 0.000000e+000 1.000000e+000 -0.000000e+000
    outer loop
      vertex   -4.300000e+001 1.700000e+001 4.000000e+000
      vertex   -5.700000e+001 1.700000e+001 1.400000e+001
      vertex   -4.300000e+001 1.700000e+001 1.400000e+001
    endloop
  endfacet
  facet normal -1.000000e+000 0.000000e+000 0.000000e+000
    outer loop
      vertex   -5.700000e+001 3.000000e+000 4.000000e+000
      vertex   -5.700000e+001 3.000000e+000 1.400000e+001
      vertex   -5.700000e+001 1.700000e+001 4.000000e+000
    endloop
  endfacet
  facet normal -1.000000e+000 0.000000e+000 0.000000e+000
    outer loop
      vertex   -5.700000e+001 1.700000e+001 4.000000e+000
      vertex   -5.700000e+001 3.000000e+000 1.400000e+001
      vertex   -5.700000e+001 1.700000e+001 1.400000e+001
    endloop
  endfacet
  facet normal -0.000000e+000 -1.000000e+000 0.000000e+000
    outer loop
      vertex   -4.300000e+001 3.000000e+000 4.000000e+000
      vertex   -4.300000e+001 3.000000e+000 1.400000e+001
      vertex   -5.700000e+001 3.000000e+000 4.000000e+000
    endloop
  endfacet
  facet normal 0.000000e+000 -1.000000e+000 0.000000e+000
    outer loop
      vertex   -5.700000e+001 3.000000e+000 4.000000e+000
      vertex   -4.300000e+001 3.000000e+000 1.400000e+001
      vertex   -5.700000e+001 3.000000e+000 1.400000e+001
    endloop
  endfacet
  facet normal 1.000000e+000 0.000000e+000 -0.000000e+000
    outer loop
      vertex   -4.300000e+001 1.700000e+001 4.000000e+000
      vertex   -4.300000e+001 1.700000e+001 1.400000e+001
      vertex   -4.300000e+001 3.000000e+000 4.000000e+000
    endloop
  endfacet
  facet normal 1.000000e+000 0.000000e+000 -0.000000e+000
    outer loop
      vertex   -4.300000e+001 3.000000e+000 4.000000e+000
      vertex   -4.300000e+001 1.700000e+001 1.400000e+001
      vertex   -4.300000e+001 3.000000e+000 1.400000e+001
    endloop
  endfacet
endsolid
