solid ascii
  facet normal 0.000000e+000 1.000000e+000 0.000000e+000
    outer loop
      vertex   -2.525000e+001 1.540000e+002 9.500000e+000
      vertex   -2.525000e+001 1.540000e+002 0.000000e+000
      vertex   -3.475000e+001 1.540000e+002 9.500000e+000
    endloop
  endfacet
  facet normal 0.000000e+000 1.000000e+000 0.000000e+000
    outer loop
      vertex   -3.475000e+001 1.540000e+002 9.500000e+000
      vertex   -2.525000e+001 1.540000e+002 0.000000e+000
      vertex   -3.475000e+001 1.540000e+002 0.000000e+000
    endloop
  endfacet
  facet normal 0.000000e+000 -0.000000e+000 1.000000e+000
    outer loop
      vertex   -3.475000e+001 0.000000e+000 9.500000e+000
      vertex   -2.525000e+001 0.000000e+000 9.500000e+000
      vertex   -3.475000e+001 5.133333e+001 9.500000e+000
    endloop
  endfacet
  facet normal -0.000000e+000 0.000000e+000 1.000000e+000
    outer loop
      vertex   -3.475000e+001 5.133333e+001 9.500000e+000
      vertex   -2.525000e+001 0.000000e+000 9.500000e+000
      vertex   -2.525000e+001 5.133333e+001 9.500000e+000
    endloop
  endfacet
  facet normal -0.000000e+000 0.000000e+000 1.000000e+000
    outer loop
      vertex   -3.475000e+001 1.026667e+002 9.500000e+000
      vertex   -2.525000e+001 5.133333e+001 9.500000e+000
      vertex   -2.525000e+001 1.026667e+002 9.500000e+000
    endloop
  endfacet
  facet normal -0.000000e+000 0.000000e+000 1.000000e+000
    outer loop
      vertex   -3.475000e+001 1.540000e+002 9.500000e+000
      vertex   -2.525000e+001 1.026667e+002 9.500000e+000
      vertex   -2.525000e+001 1.540000e+002 9.500000e+000
    endloop
  endfacet
  facet normal -0.000000e+000 0.000000e+000 1.000000e+000
    outer loop
      vertex   -3.475000e+001 1.540000e+002 9.500000e+000
      vertex   -3.475000e+001 1.026667e+002 9.500000e+000
      vertex   -2.525000e+001 1.026667e+002 9.500000e+000
    endloop
  endfacet
  facet normal 0.000000e+000 -0.000000e+000 1.000000e+000
    outer loop
      vertex   -3.475000e+001 5.133333e+001 9.500000e+000
      vertex   -2.525000e+001 5.133333e+001 9.500000e+000
      vertex   -3.475000e+001 1.026667e+002 9.500000e+000
    endloop
  endfacet
  facet normal 0.000000e+000 -0.000000e+000 -1.000000e+000
    outer loop
      vertex   -3.475000e+001 1.540000e+002 0.000000e+000
      vertex   -2.525000e+001 1.540000e+002 0.000000e+000
      vertex   -3.475000e+001 1.026667e+002 0.000000e+000
    endloop
  endfacet
  facet normal 0.000000e+000 0.000000e+000 -1.000000e+000
    outer loop
      vertex   -3.475000e+001 1.026667e+002 0.000000e+000
      vertex   -2.525000e+001 1.540000e+002 0.000000e+000
      vertex   -2.525000e+001 1.026667e+002 0.000000e+000
    endloop
  endfacet
  facet normal 0.000000e+000 0.000000e+000 -1.000000e+000
    outer loop
      vertex   -3.475000e+001 5.133333e+001 0.000000e+000
      vertex   -2.525000e+001 1.026667e+002 0.000000e+000
      vertex   -2.525000e+001 5.133333e+001 0.000000e+000
    endloop
  endfacet
  facet normal 0.000000e+000 0.000000e+000 -1.000000e+000
    outer loop
      vertex   -3.475000e+001 0.000000e+000 0.000000e+000
      vertex   -2.525000e+001 5.133333e+001 0.000000e+000
      vertex   -2.525000e+001 0.000000e+000 0.000000e+000
    endloop
  endfacet
  facet normal 0.000000e+000 0.000000e+000 -1.000000e+000
    outer loop
      vertex   -3.475000e+001 0.000000e+000 0.000000e+000
      vertex   -3.475000e+001 5.133333e+001 0.000000e+000
      vertex   -2.525000e+001 5.133333e+001 0.000000e+000
    endloop
  endfacet
  facet normal 0.000000e+000 -0.000000e+000 -1.000000e+000
    outer loop
      vertex   -3.475000e+001 1.026667e+002 0.000000e+000
      vertex   -2.525000e+001 1.026667e+002 0.000000e+000
      vertex   -3.475000e+001 5.133333e+001 0.000000e+000
    endloop
  endfacet
  facet normal 0.000000e+000 -1.000000e+000 0.000000e+000
    outer loop
      vertex   -3.475000e+001 0.000000e+000 9.500000e+000
      vertex   -3.475000e+001 0.000000e+000 0.000000e+000
      vertex   -2.525000e+001 0.000000e+000 9.500000e+000
    endloop
  endfacet
  facet normal 0.000000e+000 -1.000000e+000 -0.000000e+000
    outer loop
      vertex   -2.525000e+001 0.000000e+000 9.500000e+000
      vertex   -3.475000e+001 0.000000e+000 0.000000e+000
      vertex   -2.525000e+001 0.000000e+000 0.000000e+000
    endloop
  endfacet
  facet normal -1.000000e+000 -0.000000e+000 -0.000000e+000
    outer loop
      vertex   -3.475000e+001 1.540000e+002 9.500000e+000
      vertex   -3.475000e+001 1.540000e+002 0.000000e+000
      vertex   -3.475000e+001 1.026667e+002 9.500000e+000
    endloop
  endfacet
  facet normal -1.000000e+000 -0.000000e+000 -0.000000e+000
    outer loop
      vertex   -3.475000e+001 1.026667e+002 9.500000e+000
      vertex   -3.475000e+001 1.540000e+002 0.000000e+000
      vertex   -3.475000e+001 1.026667e+002 0.000000e+000
    endloop
  endfacet
  facet normal -1.000000e+000 -0.000000e+000 -0.000000e+000
    outer loop
      vertex   -3.475000e+001 5.133333e+001 9.500000e+000
      vertex   -3.475000e+001 1.026667e+002 0.000000e+000
      vertex   -3.475000e+001 5.133333e+001 0.000000e+000
    endloop
  endfacet
  facet normal -1.000000e+000 -0.000000e+000 -0.000000e+000
    outer loop
      vertex   -3.475000e+001 0.000000e+000 9.500000e+000
      vertex   -3.475000e+001 5.133333e+001 0.000000e+000
      vertex   -3.475000e+001 0.000000e+000 0.000000e+000
    endloop
  endfacet
  facet normal -1.000000e+000 0.000000e+000 0.000000e+000
    outer loop
      vertex   -3.475000e+001 0.000000e+000 9.500000e+000
      vertex   -3.475000e+001 5.133333e+001 9.500000e+000
      vertex   -3.475000e+001 5.133333e+001 0.000000e+000
    endloop
  endfacet
  facet normal -1.000000e+000 -0.000000e+000 -0.000000e+000
    outer loop
      vertex   -3.475000e+001 1.026667e+002 9.500000e+000
      vertex   -3.475000e+001 1.026667e+002 0.000000e+000
      vertex   -3.475000e+001 5.133333e+001 9.500000e+000
    endloop
  endfacet
  facet normal 1.000000e+000 -0.000000e+000 0.000000e+000
    outer loop
      vertex   -2.525000e+001 0.000000e+000 9.500000e+000
      vertex   -2.525000e+001 0.000000e+000 0.000000e+000
      vertex   -2.525000e+001 5.133333e+001 9.500000e+000
    endloop
  endfacet
  facet normal 1.000000e+000 -0.000000e+000 0.000000e+000
    outer loop
      vertex   -2.525000e+001 5.133333e+001 9.500000e+000
      vertex   -2.525000e+001 0.000000e+000 0.000000e+000
      vertex   -2.525000e+001 5.133333e+001 0.000000e+000
    endloop
  endfacet
  facet normal 1.000000e+000 -0.000000e+000 0.000000e+000
    outer loop
      vertex   -2.525000e+001 1.026667e+002 9.500000e+000
      vertex   -2.525000e+001 5.133333e+001 0.000000e+000
      vertex   -2.525000e+001 1.026667e+002 0.000000e+000
    endloop
  endfacet
  facet normal 1.000000e+000 -0.000000e+000 0.000000e+000
    outer loop
      vertex   -2.525000e+001 1.540000e+002 9.500000e+000
      vertex   -2.525000e+001 1.026667e+002 0.000000e+000
      vertex   -2.525000e+001 1.540000e+002 0.000000e+000
    endloop
  endfacet
  facet normal 1.000000e+000 0.000000e+000 0.000000e+000
    outer loop
      vertex   -2.525000e+001 1.540000e+002 9.500000e+000
      vertex   -2.525000e+001 1.026667e+002 9.500000e+000
      vertex   -2.525000e+001 1.026667e+002 0.000000e+000
    endloop
  endfacet
  facet normal 1.000000e+000 -0.000000e+000 0.000000e+000
    outer loop
      vertex   -2.525000e+001 5.133333e+001 9.500000e+000
      vertex   -2.525000e+001 5.133333e+001 0.000000e+000
      vertex   -2.525000e+001 1.026667e+002 9.500000e+000
    endloop
  endfacet
endsolid
