solid ascii
  facet normal 0.000000e+000 -0.000000e+000 1.000000e+000
    outer loop
      vertex   -3.898417e+001 5.716158e+000 1.000000e+001
      vertex   -2.898417e+001 5.716158e+000 1.000000e+001
      vertex   -3.898417e+001 4.171616e+001 1.000000e+001
    endloop
  endfacet
  facet normal -0.000000e+000 0.000000e+000 1.000000e+000
    outer loop
      vertex   -3.898417e+001 4.171616e+001 1.000000e+001
      vertex   -2.898417e+001 5.716158e+000 1.000000e+001
      vertex   -2.898417e+001 4.171616e+001 1.000000e+001
    endloop
  endfacet
  facet normal -0.000000e+000 0.000000e+000 1.000000e+000
    outer loop
      vertex   -3.898417e+001 7.771616e+001 1.000000e+001
      vertex   -2.898417e+001 4.171616e+001 1.000000e+001
      vertex   -2.898417e+001 7.771616e+001 1.000000e+001
    endloop
  endfacet
  facet normal 0.000000e+000 0.000000e+000 1.000000e+000
    outer loop
      vertex   -3.898417e+001 7.771616e+001 1.000000e+001
      vertex   -3.898417e+001 4.171616e+001 1.000000e+001
      vertex   -2.898417e+001 4.171616e+001 1.000000e+001
    endloop
  endfacet
  facet normal 0.000000e+000 -0.000000e+000 -1.000000e+000
    outer loop
      vertex   -3.898417e+001 7.771616e+001 0.000000e+000
      vertex   -2.898417e+001 7.771616e+001 0.000000e+000
      vertex   -3.898417e+001 4.171616e+001 0.000000e+000
    endloop
  endfacet
  facet normal 0.000000e+000 0.000000e+000 -1.000000e+000
    outer loop
      vertex   -3.898417e+001 4.171616e+001 0.000000e+000
      vertex   -2.898417e+001 7.771616e+001 0.000000e+000
      vertex   -2.898417e+001 4.171616e+001 0.000000e+000
    endloop
  endfacet
  facet normal 0.000000e+000 0.000000e+000 -1.000000e+000
    outer loop
      vertex   -3.898417e+001 5.716158e+000 0.000000e+000
      vertex   -2.898417e+001 4.171616e+001 0.000000e+000
      vertex   -2.898417e+001 5.716158e+000 0.000000e+000
    endloop
  endfacet
  facet normal 0.000000e+000 0.000000e+000 -1.000000e+000
    outer loop
      vertex   -3.898417e+001 5.716158e+000 0.000000e+000
      vertex   -3.898417e+001 4.171616e+001 0.000000e+000
      vertex   -2.898417e+001 4.171616e+001 0.000000e+000
    endloop
  endfacet
  facet normal 0.000000e+000 -1.000000e+000 0.000000e+000
    outer loop
      vertex   -3.898417e+001 5.716158e+000 1.000000e+001
      vertex   -3.898417e+001 5.716158e+000 0.000000e+000
      vertex   -2.898417e+001 5.716158e+000 1.000000e+001
    endloop
  endfacet
  facet normal 0.000000e+000 -1.000000e+000 -0.000000e+000
    outer loop
      vertex   -2.898417e+001 5.716158e+000 1.000000e+001
      vertex   -3.898417e+001 5.716158e+000 0.000000e+000
      vertex   -2.898417e+001 5.716158e+000 0.000000e+000
    endloop
  endfacet
  facet normal -1.000000e+000 -0.000000e+000 -0.000000e+000
    outer loop
      vertex   -3.898417e+001 7.771616e+001 1.000000e+001
      vertex   -3.898417e+001 7.771616e+001 0.000000e+000
      vertex   -3.898417e+001 4.171616e+001 1.000000e+001
    endloop
  endfacet
  facet normal -1.000000e+000 -0.000000e+000 -0.000000e+000
    outer loop
      vertex   -3.898417e+001 4.171616e+001 1.000000e+001
      vertex   -3.898417e+001 7.771616e+001 0.000000e+000
      vertex   -3.898417e+001 4.171616e+001 0.000000e+000
    endloop
  endfacet
  facet normal -1.000000e+000 -0.000000e+000 -0.000000e+000
    outer loop
      vertex   -3.898417e+001 5.716158e+000 1.000000e+001
      vertex   -3.898417e+001 4.171616e+001 0.000000e+000
      vertex   -3.898417e+001 5.716158e+000 0.000000e+000
    endloop
  endfacet
  facet normal -1.000000e+000 0.000000e+000 -0.000000e+000
    outer loop
      vertex   -3.898417e+001 5.716158e+000 1.000000e+001
      vertex   -3.898417e+001 4.171616e+001 1.000000e+001
      vertex   -3.898417e+001 4.171616e+001 0.000000e+000
    endloop
  endfacet
  facet normal 0.000000e+000 1.000000e+000 0.000000e+000
    outer loop
      vertex   -2.898417e+001 7.771616e+001 1.000000e+001
      vertex   -2.898417e+001 7.771616e+001 0.000000e+000
      vertex   -3.898417e+001 7.771616e+001 1.000000e+001
    endloop
  endfacet
  facet normal 0.000000e+000 1.000000e+000 0.000000e+000
    outer loop
      vertex   -3.898417e+001 7.771616e+001 1.000000e+001
      vertex   -2.898417e+001 7.771616e+001 0.000000e+000
      vertex   -3.898417e+001 7.771616e+001 0.000000e+000
    endloop
  endfacet
  facet normal 1.000000e+000 -0.000000e+000 0.000000e+000
    outer loop
      vertex   -2.898417e+001 5.716158e+000 1.000000e+001
      vertex   -2.898417e+001 5.716158e+000 0.000000e+000
      vertex   -2.898417e+001 4.171616e+001 1.000000e+001
    endloop
  endfacet
  facet normal 1.000000e+000 -0.000000e+000 0.000000e+000
    outer loop
      vertex   -2.898417e+001 4.171616e+001 1.000000e+001
      vertex   -2.898417e+001 5.716158e+000 0.000000e+000
      vertex   -2.898417e+001 4.171616e+001 0.000000e+000
    endloop
  endfacet
  facet normal 1.000000e+000 -0.000000e+000 0.000000e+000
    outer loop
      vertex   -2.898417e+001 7.771616e+001 1.000000e+001
      vertex   -2.898417e+001 4.171616e+001 0.000000e+000
      vertex   -2.898417e+001 7.771616e+001 0.000000e+000
    endloop
  endfacet
  facet normal 1.000000e+000 0.000000e+000 0.000000e+000
    outer loop
      vertex   -2.898417e+001 7.771616e+001 1.000000e+001
      vertex   -2.898417e+001 4.171616e+001 1.000000e+001
      vertex   -2.898417e+001 4.171616e+001 0.000000e+000
    endloop
  endfacet
endsolid
