solid ascii
  facet normal -2.865092e-016 0.000000e+000 1.000000e+000
    outer loop
      vertex   -6.050000e+001 2.950000e+001 5.000000e+000
      vertex   -2.950000e+001 2.950000e+001 5.000000e+000
      vertex   -6.050000e+001 5.050000e+001 5.000000e+000
    endloop
  endfacet
  facet normal -2.865092e-016 0.000000e+000 1.000000e+000
    outer loop
      vertex   -6.050000e+001 5.050000e+001 5.000000e+000
      vertex   -2.950000e+001 2.950000e+001 5.000000e+000
      vertex   -2.950000e+001 5.050000e+001 5.000000e+000
    endloop
  endfacet
  facet normal -0.000000e+000 -1.000000e+000 0.000000e+000
    outer loop
      vertex   -2.950000e+001 5.050000e+001 5.000000e+000
      vertex   -2.950000e+001 5.050000e+001 5.000000e+001
      vertex   -6.050000e+001 5.050000e+001 5.000000e+000
    endloop
  endfacet
  facet normal -0.000000e+000 -1.000000e+000 0.000000e+000
    outer loop
      vertex   -6.050000e+001 5.050000e+001 5.000000e+000
      vertex   -2.950000e+001 5.050000e+001 5.000000e+001
      vertex   -6.050000e+001 5.050000e+001 5.000000e+001
    endloop
  endfacet
  facet normal -1.000000e+000 0.000000e+000 -1.578984e-016
    outer loop
      vertex   -2.950000e+001 2.950000e+001 5.000000e+000
      vertex   -2.950000e+001 2.950000e+001 5.000000e+001
      vertex   -2.950000e+001 5.050000e+001 5.000000e+000
    endloop
  endfacet
  facet normal -1.000000e+000 0.000000e+000 -1.578984e-016
    outer loop
      vertex   -2.950000e+001 5.050000e+001 5.000000e+000
      vertex   -2.950000e+001 2.950000e+001 5.000000e+001
      vertex   -2.950000e+001 5.050000e+001 5.000000e+001
    endloop
  endfacet
  facet normal -0.000000e+000 1.000000e+000 -0.000000e+000
    outer loop
      vertex   -6.050000e+001 2.950000e+001 5.000000e+000
      vertex   -6.050000e+001 2.950000e+001 5.000000e+001
      vertex   -2.950000e+001 2.950000e+001 5.000000e+000
    endloop
  endfacet
  facet normal 0.000000e+000 1.000000e+000 -0.000000e+000
    outer loop
      vertex   -2.950000e+001 2.950000e+001 5.000000e+000
      vertex   -6.050000e+001 2.950000e+001 5.000000e+001
      vertex   -2.950000e+001 2.950000e+001 5.000000e+001
    endloop
  endfacet
  facet normal 1.000000e+000 0.000000e+000 3.157968e-016
    outer loop
      vertex   -6.050000e+001 5.050000e+001 5.000000e+000
      vertex   -6.050000e+001 5.050000e+001 5.000000e+001
      vertex   -6.050000e+001 2.950000e+001 5.000000e+000
    endloop
  endfacet
  facet normal 1.000000e+000 0.000000e+000 3.157968e-016
    outer loop
      vertex   -6.050000e+001 2.950000e+001 5.000000e+000
      vertex   -6.050000e+001 5.050000e+001 5.000000e+001
      vertex   -6.050000e+001 2.950000e+001 5.000000e+001
    endloop
  endfacet
  facet normal 2.537653e-016 0.000000e+000 -1.000000e+000
    outer loop
      vertex   -6.250000e+001 5.250000e+001 0.000000e+000
      vertex   -2.750000e+001 5.250000e+001 8.881784e-015
      vertex   -6.250000e+001 2.750000e+001 0.000000e+000
    endloop
  endfacet
  facet normal 2.537653e-016 0.000000e+000 -1.000000e+000
    outer loop
      vertex   -6.250000e+001 2.750000e+001 0.000000e+000
      vertex   -2.750000e+001 5.250000e+001 8.881784e-015
      vertex   -2.750000e+001 2.750000e+001 8.881784e-015
    endloop
  endfacet
  facet normal -2.292073e-016 -2.292073e-016 1.000000e+000
    outer loop
      vertex   -2.950000e+001 5.050000e+001 5.000000e+001
      vertex   -6.250000e+001 5.250000e+001 5.000000e+001
      vertex   -6.050000e+001 5.050000e+001 5.000000e+001
    endloop
  endfacet
  facet normal -2.030122e-016 2.030122e-016 1.000000e+000
    outer loop
      vertex   -2.950000e+001 5.050000e+001 5.000000e+001
      vertex   -2.750000e+001 5.250000e+001 5.000000e+001
      vertex   -6.250000e+001 5.250000e+001 5.000000e+001
    endloop
  endfacet
  facet normal -0.000000e+000 0.000000e+000 1.000000e+000
    outer loop
      vertex   -2.950000e+001 5.050000e+001 5.000000e+001
      vertex   -2.750000e+001 2.750000e+001 5.000000e+001
      vertex   -2.750000e+001 5.250000e+001 5.000000e+001
    endloop
  endfacet
  facet normal 0.000000e+000 0.000000e+000 1.000000e+000
    outer loop
      vertex   -2.950000e+001 5.050000e+001 5.000000e+001
      vertex   -2.950000e+001 2.950000e+001 5.000000e+001
      vertex   -2.750000e+001 2.750000e+001 5.000000e+001
    endloop
  endfacet
  facet normal -2.292073e-016 -2.292073e-016 1.000000e+000
    outer loop
      vertex   -2.750000e+001 2.750000e+001 5.000000e+001
      vertex   -2.950000e+001 2.950000e+001 5.000000e+001
      vertex   -6.050000e+001 2.950000e+001 5.000000e+001
    endloop
  endfacet
  facet normal 0.000000e+000 0.000000e+000 1.000000e+000
    outer loop
      vertex   -6.250000e+001 2.750000e+001 5.000000e+001
      vertex   -6.050000e+001 2.950000e+001 5.000000e+001
      vertex   -6.050000e+001 5.050000e+001 5.000000e+001
    endloop
  endfacet
  facet normal -0.000000e+000 0.000000e+000 1.000000e+000
    outer loop
      vertex   -6.250000e+001 5.250000e+001 5.000000e+001
      vertex   -6.250000e+001 2.750000e+001 5.000000e+001
      vertex   -6.050000e+001 5.050000e+001 5.000000e+001
    endloop
  endfacet
  facet normal -2.030122e-016 2.030122e-016 1.000000e+000
    outer loop
      vertex   -2.750000e+001 2.750000e+001 5.000000e+001
      vertex   -6.050000e+001 2.950000e+001 5.000000e+001
      vertex   -6.250000e+001 2.750000e+001 5.000000e+001
    endloop
  endfacet
  facet normal -0.000000e+000 -1.000000e+000 0.000000e+000
    outer loop
      vertex   -2.750000e+001 2.750000e+001 8.881784e-015
      vertex   -2.750000e+001 2.750000e+001 5.000000e+001
      vertex   -6.250000e+001 2.750000e+001 0.000000e+000
    endloop
  endfacet
  facet normal -0.000000e+000 -1.000000e+000 0.000000e+000
    outer loop
      vertex   -6.250000e+001 2.750000e+001 0.000000e+000
      vertex   -2.750000e+001 2.750000e+001 5.000000e+001
      vertex   -6.250000e+001 2.750000e+001 5.000000e+001
    endloop
  endfacet
  facet normal 1.000000e+000 0.000000e+000 1.421085e-016
    outer loop
      vertex   -2.750000e+001 5.250000e+001 8.881784e-015
      vertex   -2.750000e+001 5.250000e+001 5.000000e+001
      vertex   -2.750000e+001 2.750000e+001 8.881784e-015
    endloop
  endfacet
  facet normal 1.000000e+000 0.000000e+000 1.421085e-016
    outer loop
      vertex   -2.750000e+001 2.750000e+001 8.881784e-015
      vertex   -2.750000e+001 5.250000e+001 5.000000e+001
      vertex   -2.750000e+001 2.750000e+001 5.000000e+001
    endloop
  endfacet
  facet normal -0.000000e+000 1.000000e+000 0.000000e+000
    outer loop
      vertex   -6.250000e+001 5.250000e+001 0.000000e+000
      vertex   -6.250000e+001 5.250000e+001 5.000000e+001
      vertex   -2.750000e+001 5.250000e+001 8.881784e-015
    endloop
  endfacet
  facet normal 0.000000e+000 1.000000e+000 -0.000000e+000
    outer loop
      vertex   -2.750000e+001 5.250000e+001 8.881784e-015
      vertex   -6.250000e+001 5.250000e+001 5.000000e+001
      vertex   -2.750000e+001 5.250000e+001 5.000000e+001
    endloop
  endfacet
  facet normal -1.000000e+000 0.000000e+000 0.000000e+000
    outer loop
      vertex   -6.250000e+001 2.750000e+001 0.000000e+000
      vertex   -6.250000e+001 2.750000e+001 5.000000e+001
      vertex   -6.250000e+001 5.250000e+001 0.000000e+000
    endloop
  endfacet
  facet normal -1.000000e+000 0.000000e+000 0.000000e+000
    outer loop
      vertex   -6.250000e+001 5.250000e+001 0.000000e+000
      vertex   -6.250000e+001 2.750000e+001 5.000000e+001
      vertex   -6.250000e+001 5.250000e+001 5.000000e+001
    endloop
  endfacet
endsolid
