solid ascii
  facet normal -1.000000e+000 0.000000e+000 0.000000e+000
    outer loop
      vertex   -1.200000e+002 1.807500e+002 -4.440892e-015
      vertex   -1.200000e+002 1.807500e+002 9.500000e+000
      vertex   -1.200000e+002 1.902500e+002 -4.440892e-015
    endloop
  endfacet
  facet normal -1.000000e+000 0.000000e+000 0.000000e+000
    outer loop
      vertex   -1.200000e+002 1.902500e+002 -4.440892e-015
      vertex   -1.200000e+002 1.807500e+002 9.500000e+000
      vertex   -1.200000e+002 1.902500e+002 9.500000e+000
    endloop
  endfacet
  facet normal 1.000000e+000 0.000000e+000 -0.000000e+000
    outer loop
      vertex   2.600000e+001 2.052500e+002 2.664535e-014
      vertex   2.600000e+001 2.052500e+002 9.500000e+000
      vertex   2.600000e+001 2.012500e+002 2.664535e-014
    endloop
  endfacet
  facet normal 1.000000e+000 0.000000e+000 -0.000000e+000
    outer loop
      vertex   2.600000e+001 2.012500e+002 2.664535e-014
      vertex   2.600000e+001 2.052500e+002 9.500000e+000
      vertex   2.600000e+001 2.012500e+002 9.500000e+000
    endloop
  endfacet
  facet normal 0.000000e+000 -1.000000e+000 0.000000e+000
    outer loop
      vertex   2.000000e+001 2.012500e+002 2.664535e-014
      vertex   2.600000e+001 2.012500e+002 2.664535e-014
      vertex   2.000000e+001 2.012500e+002 9.500000e+000
    endloop
  endfacet
  facet normal 0.000000e+000 -1.000000e+000 0.000000e+000
    outer loop
      vertex   2.000000e+001 2.012500e+002 9.500000e+000
      vertex   2.600000e+001 2.012500e+002 2.664535e-014
      vertex   2.600000e+001 2.012500e+002 9.500000e+000
    endloop
  endfacet
  facet normal 1.000000e+000 -1.614870e-015 0.000000e+000
    outer loop
      vertex   2.000000e+001 2.012500e+002 2.664535e-014
      vertex   2.000000e+001 2.012500e+002 9.500000e+000
      vertex   2.000000e+001 1.902500e+002 3.552714e-014
    endloop
  endfacet
  facet normal 1.000000e+000 -1.614870e-015 0.000000e+000
    outer loop
      vertex   2.000000e+001 1.902500e+002 3.552714e-014
      vertex   2.000000e+001 2.012500e+002 9.500000e+000
      vertex   2.000000e+001 1.902500e+002 9.500000e+000
    endloop
  endfacet
  facet normal -1.000000e+000 0.000000e+000 0.000000e+000
    outer loop
      vertex   1.600000e+001 1.902500e+002 3.552714e-014
      vertex   1.600000e+001 1.902500e+002 9.500000e+000
      vertex   1.600000e+001 2.052500e+002 3.552714e-014
    endloop
  endfacet
  facet normal -1.000000e+000 0.000000e+000 0.000000e+000
    outer loop
      vertex   1.600000e+001 2.052500e+002 3.552714e-014
      vertex   1.600000e+001 1.902500e+002 9.500000e+000
      vertex   1.600000e+001 2.052500e+002 9.500000e+000
    endloop
  endfacet
  facet normal -0.000000e+000 1.000000e+000 0.000000e+000
    outer loop
      vertex   1.600000e+001 2.052500e+002 9.500000e+000
      vertex   2.600000e+001 2.052500e+002 9.500000e+000
      vertex   1.600000e+001 2.052500e+002 3.552714e-014
    endloop
  endfacet
  facet normal -0.000000e+000 1.000000e+000 0.000000e+000
    outer loop
      vertex   1.600000e+001 2.052500e+002 3.552714e-014
      vertex   2.600000e+001 2.052500e+002 9.500000e+000
      vertex   2.600000e+001 2.052500e+002 2.664535e-014
    endloop
  endfacet
  facet normal -0.000000e+000 1.000000e+000 0.000000e+000
    outer loop
      vertex   2.000000e+001 1.902500e+002 9.500000e+000
      vertex   3.000000e+001 1.902500e+002 9.500000e+000
      vertex   2.000000e+001 1.902500e+002 3.552714e-014
    endloop
  endfacet
  facet normal -0.000000e+000 1.000000e+000 0.000000e+000
    outer loop
      vertex   2.000000e+001 1.902500e+002 3.552714e-014
      vertex   3.000000e+001 1.902500e+002 9.500000e+000
      vertex   3.000000e+001 1.902500e+002 3.552714e-014
    endloop
  endfacet
  facet normal 0.000000e+000 1.000000e+000 -0.000000e+000
    outer loop
      vertex   1.600000e+001 1.902500e+002 3.552714e-014
      vertex   -2.933333e+001 1.902500e+002 1.902182e-014
      vertex   1.600000e+001 1.902500e+002 9.500000e+000
    endloop
  endfacet
  facet normal 0.000000e+000 1.000000e+000 -0.000000e+000
    outer loop
      vertex   1.600000e+001 1.902500e+002 9.500000e+000
      vertex   -2.933333e+001 1.902500e+002 1.902182e-014
      vertex   -2.933333e+001 1.902500e+002 9.500000e+000
    endloop
  endfacet
  facet normal 0.000000e+000 1.000000e+000 0.000000e+000
    outer loop
      vertex   -2.933333e+001 1.902500e+002 9.500000e+000
      vertex   -2.933333e+001 1.902500e+002 1.902182e-014
      vertex   -7.466667e+001 1.902500e+002 8.955799e-015
    endloop
  endfacet
  facet normal 0.000000e+000 1.000000e+000 0.000000e+000
    outer loop
      vertex   -7.466667e+001 1.902500e+002 9.500000e+000
      vertex   -7.466667e+001 1.902500e+002 8.955799e-015
      vertex   -1.200000e+002 1.902500e+002 -4.440892e-015
    endloop
  endfacet
  facet normal -0.000000e+000 1.000000e+000 0.000000e+000
    outer loop
      vertex   -1.200000e+002 1.902500e+002 9.500000e+000
      vertex   -7.466667e+001 1.902500e+002 9.500000e+000
      vertex   -1.200000e+002 1.902500e+002 -4.440892e-015
    endloop
  endfacet
  facet normal 0.000000e+000 1.000000e+000 -0.000000e+000
    outer loop
      vertex   -2.933333e+001 1.902500e+002 9.500000e+000
      vertex   -7.466667e+001 1.902500e+002 8.955799e-015
      vertex   -7.466667e+001 1.902500e+002 9.500000e+000
    endloop
  endfacet
  facet normal 1.000000e+000 0.000000e+000 -0.000000e+000
    outer loop
      vertex   3.000000e+001 1.902500e+002 3.552714e-014
      vertex   3.000000e+001 1.902500e+002 9.500000e+000
      vertex   3.000000e+001 1.807500e+002 3.552714e-014
    endloop
  endfacet
  facet normal 1.000000e+000 0.000000e+000 -0.000000e+000
    outer loop
      vertex   3.000000e+001 1.807500e+002 3.552714e-014
      vertex   3.000000e+001 1.902500e+002 9.500000e+000
      vertex   3.000000e+001 1.807500e+002 9.500000e+000
    endloop
  endfacet
  facet normal -1.959217e-016 0.000000e+000 1.000000e+000
    outer loop
      vertex   -1.200000e+002 1.902500e+002 9.500000e+000
      vertex   -1.200000e+002 1.807500e+002 9.500000e+000
      vertex   -7.466667e+001 1.902500e+002 9.500000e+000
    endloop
  endfacet
  facet normal -2.131628e-016 8.227337e-017 1.000000e+000
    outer loop
      vertex   -7.466667e+001 1.902500e+002 9.500000e+000
      vertex   -1.200000e+002 1.807500e+002 9.500000e+000
      vertex   -7.000000e+001 1.807500e+002 9.500000e+000
    endloop
  endfacet
  facet normal -2.131628e-016 -2.243819e-017 1.000000e+000
    outer loop
      vertex   -2.933333e+001 1.902500e+002 9.500000e+000
      vertex   -7.000000e+001 1.807500e+002 9.500000e+000
      vertex   -2.000000e+001 1.807500e+002 9.500000e+000
    endloop
  endfacet
  facet normal -3.552714e-016 -5.235578e-016 1.000000e+000
    outer loop
      vertex   1.600000e+001 1.902500e+002 9.500000e+000
      vertex   -2.000000e+001 1.807500e+002 9.500000e+000
      vertex   3.000000e+001 1.807500e+002 9.500000e+000
    endloop
  endfacet
  facet normal -0.000000e+000 0.000000e+000 1.000000e+000
    outer loop
      vertex   2.000000e+001 1.902500e+002 9.500000e+000
      vertex   3.000000e+001 1.807500e+002 9.500000e+000
      vertex   3.000000e+001 1.902500e+002 9.500000e+000
    endloop
  endfacet
  facet normal 0.000000e+000 0.000000e+000 1.000000e+000
    outer loop
      vertex   2.000000e+001 1.902500e+002 9.500000e+000
      vertex   1.600000e+001 1.902500e+002 9.500000e+000
      vertex   3.000000e+001 1.807500e+002 9.500000e+000
    endloop
  endfacet
  facet normal 0.000000e+000 -0.000000e+000 1.000000e+000
    outer loop
      vertex   2.000000e+001 1.902500e+002 9.500000e+000
      vertex   2.000000e+001 2.012500e+002 9.500000e+000
      vertex   1.600000e+001 1.902500e+002 9.500000e+000
    endloop
  endfacet
  facet normal 0.000000e+000 -0.000000e+000 1.000000e+000
    outer loop
      vertex   1.600000e+001 1.902500e+002 9.500000e+000
      vertex   2.000000e+001 2.012500e+002 9.500000e+000
      vertex   1.600000e+001 2.052500e+002 9.500000e+000
    endloop
  endfacet
  facet normal -0.000000e+000 0.000000e+000 1.000000e+000
    outer loop
      vertex   1.600000e+001 2.052500e+002 9.500000e+000
      vertex   2.000000e+001 2.012500e+002 9.500000e+000
      vertex   2.600000e+001 2.052500e+002 9.500000e+000
    endloop
  endfacet
  facet normal -0.000000e+000 0.000000e+000 1.000000e+000
    outer loop
      vertex   2.600000e+001 2.052500e+002 9.500000e+000
      vertex   2.000000e+001 2.012500e+002 9.500000e+000
      vertex   2.600000e+001 2.012500e+002 9.500000e+000
    endloop
  endfacet
  facet normal -2.351061e-016 7.149424e-017 1.000000e+000
    outer loop
      vertex   -7.466667e+001 1.902500e+002 9.500000e+000
      vertex   -7.000000e+001 1.807500e+002 9.500000e+000
      vertex   -2.933333e+001 1.902500e+002 9.500000e+000
    endloop
  endfacet
  facet normal -4.310278e-016 -2.364809e-016 1.000000e+000
    outer loop
      vertex   -2.933333e+001 1.902500e+002 9.500000e+000
      vertex   -2.000000e+001 1.807500e+002 9.500000e+000
      vertex   1.600000e+001 1.902500e+002 9.500000e+000
    endloop
  endfacet
  facet normal 0.000000e+000 -1.000000e+000 0.000000e+000
    outer loop
      vertex   -1.200000e+002 1.807500e+002 -4.440892e-015
      vertex   -7.000000e+001 1.807500e+002 6.661338e-015
      vertex   -1.200000e+002 1.807500e+002 9.500000e+000
    endloop
  endfacet
  facet normal 0.000000e+000 -1.000000e+000 0.000000e+000
    outer loop
      vertex   -1.200000e+002 1.807500e+002 9.500000e+000
      vertex   -7.000000e+001 1.807500e+002 6.661338e-015
      vertex   -7.000000e+001 1.807500e+002 9.500000e+000
    endloop
  endfacet
  facet normal 0.000000e+000 -1.000000e+000 0.000000e+000
    outer loop
      vertex   -7.000000e+001 1.807500e+002 9.500000e+000
      vertex   -7.000000e+001 1.807500e+002 6.661338e-015
      vertex   -2.000000e+001 1.807500e+002 1.776357e-014
    endloop
  endfacet
  facet normal 0.000000e+000 -1.000000e+000 0.000000e+000
    outer loop
      vertex   -2.000000e+001 1.807500e+002 9.500000e+000
      vertex   -2.000000e+001 1.807500e+002 1.776357e-014
      vertex   3.000000e+001 1.807500e+002 3.552714e-014
    endloop
  endfacet
  facet normal 0.000000e+000 -1.000000e+000 -0.000000e+000
    outer loop
      vertex   3.000000e+001 1.807500e+002 9.500000e+000
      vertex   -2.000000e+001 1.807500e+002 9.500000e+000
      vertex   3.000000e+001 1.807500e+002 3.552714e-014
    endloop
  endfacet
  facet normal 0.000000e+000 -1.000000e+000 0.000000e+000
    outer loop
      vertex   -7.000000e+001 1.807500e+002 9.500000e+000
      vertex   -2.000000e+001 1.807500e+002 1.776357e-014
      vertex   -2.000000e+001 1.807500e+002 9.500000e+000
    endloop
  endfacet
  facet normal 2.955152e-016 0.000000e+000 -1.000000e+000
    outer loop
      vertex   -1.200000e+002 1.902500e+002 -4.440892e-015
      vertex   -7.466667e+001 1.902500e+002 8.955799e-015
      vertex   -1.200000e+002 1.807500e+002 -4.440892e-015
    endloop
  endfacet
  facet normal 2.220446e-016 3.505967e-016 -1.000000e+000
    outer loop
      vertex   -1.200000e+002 1.807500e+002 -4.440892e-015
      vertex   -7.466667e+001 1.902500e+002 8.955799e-015
      vertex   -7.000000e+001 1.807500e+002 6.661338e-015
    endloop
  endfacet
  facet normal 2.220446e-016 3.505967e-016 -1.000000e+000
    outer loop
      vertex   -7.000000e+001 1.807500e+002 6.661338e-015
      vertex   -7.466667e+001 1.902500e+002 8.955799e-015
      vertex   -2.933333e+001 1.902500e+002 1.902182e-014
    endloop
  endfacet
  facet normal 3.640878e-016 4.901480e-016 -1.000000e+000
    outer loop
      vertex   -2.000000e+001 1.807500e+002 1.776357e-014
      vertex   -2.933333e+001 1.902500e+002 1.902182e-014
      vertex   1.600000e+001 1.902500e+002 3.552714e-014
    endloop
  endfacet
  facet normal 0.000000e+000 0.000000e+000 -1.000000e+000
    outer loop
      vertex   3.000000e+001 1.807500e+002 3.552714e-014
      vertex   1.600000e+001 1.902500e+002 3.552714e-014
      vertex   2.000000e+001 1.902500e+002 3.552714e-014
    endloop
  endfacet
  facet normal -0.000000e+000 -0.000000e+000 -1.000000e+000
    outer loop
      vertex   3.000000e+001 1.902500e+002 3.552714e-014
      vertex   3.000000e+001 1.807500e+002 3.552714e-014
      vertex   2.000000e+001 1.902500e+002 3.552714e-014
    endloop
  endfacet
  facet normal 2.220446e-016 3.505967e-016 -1.000000e+000
    outer loop
      vertex   -7.000000e+001 1.807500e+002 6.661338e-015
      vertex   -2.933333e+001 1.902500e+002 1.902182e-014
      vertex   -2.000000e+001 1.807500e+002 1.776357e-014
    endloop
  endfacet
  facet normal -0.000000e+000 -8.074349e-016 -1.000000e+000
    outer loop
      vertex   2.000000e+001 1.902500e+002 3.552714e-014
      vertex   1.600000e+001 1.902500e+002 3.552714e-014
      vertex   2.000000e+001 2.012500e+002 2.664535e-014
    endloop
  endfacet
  facet normal -2.220446e-015 0.000000e+000 -1.000000e+000
    outer loop
      vertex   2.000000e+001 2.012500e+002 2.664535e-014
      vertex   1.600000e+001 1.902500e+002 3.552714e-014
      vertex   1.600000e+001 2.052500e+002 3.552714e-014
    endloop
  endfacet
  facet normal -8.881784e-016 1.332268e-015 -1.000000e+000
    outer loop
      vertex   2.600000e+001 2.052500e+002 2.664535e-014
      vertex   2.000000e+001 2.012500e+002 2.664535e-014
      vertex   1.600000e+001 2.052500e+002 3.552714e-014
    endloop
  endfacet
  facet normal -0.000000e+000 -0.000000e+000 -1.000000e+000
    outer loop
      vertex   2.600000e+001 2.052500e+002 2.664535e-014
      vertex   2.600000e+001 2.012500e+002 2.664535e-014
      vertex   2.000000e+001 2.012500e+002 2.664535e-014
    endloop
  endfacet
  facet normal 3.552714e-016 5.235578e-016 -1.000000e+000
    outer loop
      vertex   3.000000e+001 1.807500e+002 3.552714e-014
      vertex   -2.000000e+001 1.807500e+002 1.776357e-014
      vertex   1.600000e+001 1.902500e+002 3.552714e-014
    endloop
  endfacet
endsolid
