solid ascii
  facet normal 1.000000e+000 0.000000e+000 -0.000000e+000
    outer loop
      vertex   2.600000e+001 2.052500e+002 2.664535e-014
      vertex   2.600000e+001 2.052500e+002 9.500000e+000
      vertex   2.600000e+001 2.012500e+002 2.664535e-014
    endloop
  endfacet
  facet normal 1.000000e+000 0.000000e+000 -0.000000e+000
    outer loop
      vertex   2.600000e+001 2.012500e+002 2.664535e-014
      vertex   2.600000e+001 2.052500e+002 9.500000e+000
      vertex   2.600000e+001 2.012500e+002 9.500000e+000
    endloop
  endfacet
  facet normal 0.000000e+000 -1.000000e+000 0.000000e+000
    outer loop
      vertex   2.000000e+001 2.012500e+002 2.664535e-014
      vertex   2.600000e+001 2.012500e+002 2.664535e-014
      vertex   2.000000e+001 2.012500e+002 9.500000e+000
    endloop
  endfacet
  facet normal 0.000000e+000 -1.000000e+000 0.000000e+000
    outer loop
      vertex   2.000000e+001 2.012500e+002 9.500000e+000
      vertex   2.600000e+001 2.012500e+002 2.664535e-014
      vertex   2.600000e+001 2.012500e+002 9.500000e+000
    endloop
  endfacet
  facet normal 1.000000e+000 -1.614870e-015 0.000000e+000
    outer loop
      vertex   2.000000e+001 2.012500e+002 2.664535e-014
      vertex   2.000000e+001 2.012500e+002 9.500000e+000
      vertex   2.000000e+001 1.902500e+002 3.552714e-014
    endloop
  endfacet
  facet normal 1.000000e+000 -1.614870e-015 0.000000e+000
    outer loop
      vertex   2.000000e+001 1.902500e+002 3.552714e-014
      vertex   2.000000e+001 2.012500e+002 9.500000e+000
      vertex   2.000000e+001 1.902500e+002 9.500000e+000
    endloop
  endfacet
  facet normal -1.000000e+000 0.000000e+000 0.000000e+000
    outer loop
      vertex   1.600000e+001 1.902500e+002 3.552714e-014
      vertex   1.600000e+001 1.902500e+002 9.500000e+000
      vertex   1.600000e+001 2.052500e+002 3.552714e-014
    endloop
  endfacet
  facet normal -1.000000e+000 0.000000e+000 0.000000e+000
    outer loop
      vertex   1.600000e+001 2.052500e+002 3.552714e-014
      vertex   1.600000e+001 1.902500e+002 9.500000e+000
      vertex   1.600000e+001 2.052500e+002 9.500000e+000
    endloop
  endfacet
  facet normal -0.000000e+000 1.000000e+000 0.000000e+000
    outer loop
      vertex   1.600000e+001 2.052500e+002 9.500000e+000
      vertex   2.600000e+001 2.052500e+002 9.500000e+000
      vertex   1.600000e+001 2.052500e+002 3.552714e-014
    endloop
  endfacet
  facet normal -0.000000e+000 1.000000e+000 0.000000e+000
    outer loop
      vertex   1.600000e+001 2.052500e+002 3.552714e-014
      vertex   2.600000e+001 2.052500e+002 9.500000e+000
      vertex   2.600000e+001 2.052500e+002 2.664535e-014
    endloop
  endfacet
  facet normal -0.000000e+000 1.000000e+000 0.000000e+000
    outer loop
      vertex   2.000000e+001 1.902500e+002 9.500000e+000
      vertex   3.000000e+001 1.902500e+002 9.500000e+000
      vertex   2.000000e+001 1.902500e+002 3.552714e-014
    endloop
  endfacet
  facet normal -0.000000e+000 1.000000e+000 0.000000e+000
    outer loop
      vertex   2.000000e+001 1.902500e+002 3.552714e-014
      vertex   3.000000e+001 1.902500e+002 9.500000e+000
      vertex   3.000000e+001 1.902500e+002 3.552714e-014
    endloop
  endfacet
  facet normal 0.000000e+000 1.000000e+000 -0.000000e+000
    outer loop
      vertex   1.600000e+001 1.902500e+002 3.552714e-014
      vertex   -2.266667e+001 1.902500e+002 2.050212e-014
      vertex   1.600000e+001 1.902500e+002 9.500000e+000
    endloop
  endfacet
  facet normal 0.000000e+000 1.000000e+000 -0.000000e+000
    outer loop
      vertex   1.600000e+001 1.902500e+002 9.500000e+000
      vertex   -2.266667e+001 1.902500e+002 2.050212e-014
      vertex   -2.266667e+001 1.902500e+002 9.500000e+000
    endloop
  endfacet
  facet normal 0.000000e+000 1.000000e+000 0.000000e+000
    outer loop
      vertex   -2.266667e+001 1.902500e+002 9.500000e+000
      vertex   -2.266667e+001 1.902500e+002 2.050212e-014
      vertex   -6.133333e+001 1.902500e+002 1.191639e-014
    endloop
  endfacet
  facet normal 0.000000e+000 1.000000e+000 0.000000e+000
    outer loop
      vertex   -6.133333e+001 1.902500e+002 9.500000e+000
      vertex   -6.133333e+001 1.902500e+002 1.191639e-014
      vertex   -1.000000e+002 1.902500e+002 0.000000e+000
    endloop
  endfacet
  facet normal -0.000000e+000 1.000000e+000 0.000000e+000
    outer loop
      vertex   -1.000000e+002 1.902500e+002 9.500000e+000
      vertex   -6.133333e+001 1.902500e+002 9.500000e+000
      vertex   -1.000000e+002 1.902500e+002 0.000000e+000
    endloop
  endfacet
  facet normal 0.000000e+000 1.000000e+000 -0.000000e+000
    outer loop
      vertex   -2.266667e+001 1.902500e+002 9.500000e+000
      vertex   -6.133333e+001 1.902500e+002 1.191639e-014
      vertex   -6.133333e+001 1.902500e+002 9.500000e+000
    endloop
  endfacet
  facet normal -1.000000e+000 0.000000e+000 0.000000e+000
    outer loop
      vertex   -1.000000e+002 1.807500e+002 0.000000e+000
      vertex   -1.000000e+002 1.807500e+002 9.500000e+000
      vertex   -1.000000e+002 1.902500e+002 0.000000e+000
    endloop
  endfacet
  facet normal -1.000000e+000 0.000000e+000 0.000000e+000
    outer loop
      vertex   -1.000000e+002 1.902500e+002 0.000000e+000
      vertex   -1.000000e+002 1.807500e+002 9.500000e+000
      vertex   -1.000000e+002 1.902500e+002 9.500000e+000
    endloop
  endfacet
  facet normal 1.000000e+000 0.000000e+000 -0.000000e+000
    outer loop
      vertex   3.000000e+001 1.902500e+002 3.552714e-014
      vertex   3.000000e+001 1.902500e+002 9.500000e+000
      vertex   3.000000e+001 1.807500e+002 3.552714e-014
    endloop
  endfacet
  facet normal 1.000000e+000 0.000000e+000 -0.000000e+000
    outer loop
      vertex   3.000000e+001 1.807500e+002 3.552714e-014
      vertex   3.000000e+001 1.902500e+002 9.500000e+000
      vertex   3.000000e+001 1.807500e+002 9.500000e+000
    endloop
  endfacet
  facet normal -3.215818e-016 0.000000e+000 1.000000e+000
    outer loop
      vertex   -1.000000e+002 1.902500e+002 9.500000e+000
      vertex   -1.000000e+002 1.807500e+002 9.500000e+000
      vertex   -6.133333e+001 1.902500e+002 9.500000e+000
    endloop
  endfacet
  facet normal -2.869500e-016 -1.409579e-016 1.000000e+000
    outer loop
      vertex   -6.133333e+001 1.902500e+002 9.500000e+000
      vertex   -1.000000e+002 1.807500e+002 9.500000e+000
      vertex   -5.666667e+001 1.807500e+002 9.500000e+000
    endloop
  endfacet
  facet normal -2.459571e-016 -5.465713e-017 1.000000e+000
    outer loop
      vertex   -2.266667e+001 1.902500e+002 9.500000e+000
      vertex   -5.666667e+001 1.807500e+002 9.500000e+000
      vertex   -1.333333e+001 1.807500e+002 9.500000e+000
    endloop
  endfacet
  facet normal -2.869500e-016 -4.228736e-016 1.000000e+000
    outer loop
      vertex   1.600000e+001 1.902500e+002 9.500000e+000
      vertex   -1.333333e+001 1.807500e+002 9.500000e+000
      vertex   3.000000e+001 1.807500e+002 9.500000e+000
    endloop
  endfacet
  facet normal -0.000000e+000 0.000000e+000 1.000000e+000
    outer loop
      vertex   2.000000e+001 1.902500e+002 9.500000e+000
      vertex   3.000000e+001 1.807500e+002 9.500000e+000
      vertex   3.000000e+001 1.902500e+002 9.500000e+000
    endloop
  endfacet
  facet normal 0.000000e+000 0.000000e+000 1.000000e+000
    outer loop
      vertex   2.000000e+001 1.902500e+002 9.500000e+000
      vertex   1.600000e+001 1.902500e+002 9.500000e+000
      vertex   3.000000e+001 1.807500e+002 9.500000e+000
    endloop
  endfacet
  facet normal 0.000000e+000 -0.000000e+000 1.000000e+000
    outer loop
      vertex   2.000000e+001 1.902500e+002 9.500000e+000
      vertex   2.000000e+001 2.012500e+002 9.500000e+000
      vertex   1.600000e+001 1.902500e+002 9.500000e+000
    endloop
  endfacet
  facet normal 0.000000e+000 -0.000000e+000 1.000000e+000
    outer loop
      vertex   1.600000e+001 1.902500e+002 9.500000e+000
      vertex   2.000000e+001 2.012500e+002 9.500000e+000
      vertex   1.600000e+001 2.052500e+002 9.500000e+000
    endloop
  endfacet
  facet normal -0.000000e+000 0.000000e+000 1.000000e+000
    outer loop
      vertex   1.600000e+001 2.052500e+002 9.500000e+000
      vertex   2.000000e+001 2.012500e+002 9.500000e+000
      vertex   2.600000e+001 2.052500e+002 9.500000e+000
    endloop
  endfacet
  facet normal -0.000000e+000 0.000000e+000 1.000000e+000
    outer loop
      vertex   2.600000e+001 2.052500e+002 9.500000e+000
      vertex   2.000000e+001 2.012500e+002 9.500000e+000
      vertex   2.600000e+001 2.012500e+002 9.500000e+000
    endloop
  endfacet
  facet normal -2.297013e-016 -1.128357e-016 1.000000e+000
    outer loop
      vertex   -6.133333e+001 1.902500e+002 9.500000e+000
      vertex   -5.666667e+001 1.807500e+002 9.500000e+000
      vertex   -2.266667e+001 1.902500e+002 9.500000e+000
    endloop
  endfacet
  facet normal -3.675221e-016 -1.740894e-016 1.000000e+000
    outer loop
      vertex   -2.266667e+001 1.902500e+002 9.500000e+000
      vertex   -1.333333e+001 1.807500e+002 9.500000e+000
      vertex   1.600000e+001 1.902500e+002 9.500000e+000
    endloop
  endfacet
  facet normal 0.000000e+000 -1.000000e+000 0.000000e+000
    outer loop
      vertex   -1.000000e+002 1.807500e+002 0.000000e+000
      vertex   -5.666667e+001 1.807500e+002 1.295260e-014
      vertex   -1.000000e+002 1.807500e+002 9.500000e+000
    endloop
  endfacet
  facet normal 0.000000e+000 -1.000000e+000 0.000000e+000
    outer loop
      vertex   -1.000000e+002 1.807500e+002 9.500000e+000
      vertex   -5.666667e+001 1.807500e+002 1.295260e-014
      vertex   -5.666667e+001 1.807500e+002 9.500000e+000
    endloop
  endfacet
  facet normal 0.000000e+000 -1.000000e+000 0.000000e+000
    outer loop
      vertex   -5.666667e+001 1.807500e+002 9.500000e+000
      vertex   -5.666667e+001 1.807500e+002 1.295260e-014
      vertex   -1.333333e+001 1.807500e+002 2.257453e-014
    endloop
  endfacet
  facet normal 0.000000e+000 -1.000000e+000 0.000000e+000
    outer loop
      vertex   -1.333333e+001 1.807500e+002 9.500000e+000
      vertex   -1.333333e+001 1.807500e+002 2.257453e-014
      vertex   3.000000e+001 1.807500e+002 3.552714e-014
    endloop
  endfacet
  facet normal 0.000000e+000 -1.000000e+000 -0.000000e+000
    outer loop
      vertex   3.000000e+001 1.807500e+002 9.500000e+000
      vertex   -1.333333e+001 1.807500e+002 9.500000e+000
      vertex   3.000000e+001 1.807500e+002 3.552714e-014
    endloop
  endfacet
  facet normal 0.000000e+000 -1.000000e+000 0.000000e+000
    outer loop
      vertex   -5.666667e+001 1.807500e+002 9.500000e+000
      vertex   -1.333333e+001 1.807500e+002 2.257453e-014
      vertex   -1.333333e+001 1.807500e+002 9.500000e+000
    endloop
  endfacet
  facet normal 3.081826e-016 0.000000e+000 -1.000000e+000
    outer loop
      vertex   -1.000000e+002 1.902500e+002 0.000000e+000
      vertex   -6.133333e+001 1.902500e+002 1.191639e-014
      vertex   -1.000000e+002 1.807500e+002 0.000000e+000
    endloop
  endfacet
  facet normal 2.989062e-016 3.775657e-017 -1.000000e+000
    outer loop
      vertex   -1.000000e+002 1.807500e+002 0.000000e+000
      vertex   -6.133333e+001 1.902500e+002 1.191639e-014
      vertex   -5.666667e+001 1.807500e+002 1.295260e-014
    endloop
  endfacet
  facet normal 2.220446e-016 0.000000e+000 -1.000000e+000
    outer loop
      vertex   -5.666667e+001 1.807500e+002 1.295260e-014
      vertex   -6.133333e+001 1.902500e+002 1.191639e-014
      vertex   -2.266667e+001 1.902500e+002 2.050212e-014
    endloop
  endfacet
  facet normal 3.885781e-016 1.636118e-016 -1.000000e+000
    outer loop
      vertex   -1.333333e+001 1.807500e+002 2.257453e-014
      vertex   -2.266667e+001 1.902500e+002 2.050212e-014
      vertex   1.600000e+001 1.902500e+002 3.552714e-014
    endloop
  endfacet
  facet normal 0.000000e+000 0.000000e+000 -1.000000e+000
    outer loop
      vertex   3.000000e+001 1.807500e+002 3.552714e-014
      vertex   1.600000e+001 1.902500e+002 3.552714e-014
      vertex   2.000000e+001 1.902500e+002 3.552714e-014
    endloop
  endfacet
  facet normal -0.000000e+000 -0.000000e+000 -1.000000e+000
    outer loop
      vertex   3.000000e+001 1.902500e+002 3.552714e-014
      vertex   3.000000e+001 1.807500e+002 3.552714e-014
      vertex   2.000000e+001 1.902500e+002 3.552714e-014
    endloop
  endfacet
  facet normal 2.220446e-016 6.132036e-032 -1.000000e+000
    outer loop
      vertex   -5.666667e+001 1.807500e+002 1.295260e-014
      vertex   -2.266667e+001 1.902500e+002 2.050212e-014
      vertex   -1.333333e+001 1.807500e+002 2.257453e-014
    endloop
  endfacet
  facet normal -0.000000e+000 -8.074349e-016 -1.000000e+000
    outer loop
      vertex   2.000000e+001 1.902500e+002 3.552714e-014
      vertex   1.600000e+001 1.902500e+002 3.552714e-014
      vertex   2.000000e+001 2.012500e+002 2.664535e-014
    endloop
  endfacet
  facet normal -2.220446e-015 0.000000e+000 -1.000000e+000
    outer loop
      vertex   2.000000e+001 2.012500e+002 2.664535e-014
      vertex   1.600000e+001 1.902500e+002 3.552714e-014
      vertex   1.600000e+001 2.052500e+002 3.552714e-014
    endloop
  endfacet
  facet normal -8.881784e-016 1.332268e-015 -1.000000e+000
    outer loop
      vertex   2.600000e+001 2.052500e+002 2.664535e-014
      vertex   2.000000e+001 2.012500e+002 2.664535e-014
      vertex   1.600000e+001 2.052500e+002 3.552714e-014
    endloop
  endfacet
  facet normal -0.000000e+000 -0.000000e+000 -1.000000e+000
    outer loop
      vertex   2.600000e+001 2.052500e+002 2.664535e-014
      vertex   2.600000e+001 2.012500e+002 2.664535e-014
      vertex   2.000000e+001 2.012500e+002 2.664535e-014
    endloop
  endfacet
  facet normal 2.989062e-016 4.404933e-016 -1.000000e+000
    outer loop
      vertex   3.000000e+001 1.807500e+002 3.552714e-014
      vertex   -1.333333e+001 1.807500e+002 2.257453e-014
      vertex   1.600000e+001 1.902500e+002 3.552714e-014
    endloop
  endfacet
endsolid
