solid ascii
  facet normal -0.000000e+000 1.000000e+000 0.000000e+000
    outer loop
      vertex   -7.540000e+001 1.850000e+002 1.000000e+000
      vertex   -2.540000e+001 1.850000e+002 1.000000e+000
      vertex   -7.540000e+001 1.850000e+002 0.000000e+000
    endloop
  endfacet
  facet normal -0.000000e+000 1.000000e+000 0.000000e+000
    outer loop
      vertex   -7.540000e+001 1.850000e+002 0.000000e+000
      vertex   -2.540000e+001 1.850000e+002 1.000000e+000
      vertex   -2.540000e+001 1.850000e+002 8.881784e-015
    endloop
  endfacet
  facet normal 1.776357e-016 0.000000e+000 -1.000000e+000
    outer loop
      vertex   -7.540000e+001 2.500000e+001 0.000000e+000
      vertex   -7.540000e+001 7.833333e+001 0.000000e+000
      vertex   -2.540000e+001 2.500000e+001 8.881784e-015
    endloop
  endfacet
  facet normal 1.776357e-016 0.000000e+000 -1.000000e+000
    outer loop
      vertex   -2.540000e+001 2.500000e+001 8.881784e-015
      vertex   -7.540000e+001 7.833333e+001 0.000000e+000
      vertex   -2.540000e+001 7.833333e+001 8.881784e-015
    endloop
  endfacet
  facet normal 1.776357e-016 0.000000e+000 -1.000000e+000
    outer loop
      vertex   -2.540000e+001 7.833333e+001 8.881784e-015
      vertex   -7.540000e+001 7.833333e+001 0.000000e+000
      vertex   -7.540000e+001 1.316667e+002 0.000000e+000
    endloop
  endfacet
  facet normal 1.776357e-016 0.000000e+000 -1.000000e+000
    outer loop
      vertex   -2.540000e+001 1.316667e+002 8.881784e-015
      vertex   -7.540000e+001 1.316667e+002 0.000000e+000
      vertex   -7.540000e+001 1.850000e+002 0.000000e+000
    endloop
  endfacet
  facet normal 1.776357e-016 0.000000e+000 -1.000000e+000
    outer loop
      vertex   -2.540000e+001 1.850000e+002 8.881784e-015
      vertex   -2.540000e+001 1.316667e+002 8.881784e-015
      vertex   -7.540000e+001 1.850000e+002 0.000000e+000
    endloop
  endfacet
  facet normal 1.776357e-016 0.000000e+000 -1.000000e+000
    outer loop
      vertex   -2.540000e+001 7.833333e+001 8.881784e-015
      vertex   -7.540000e+001 1.316667e+002 0.000000e+000
      vertex   -2.540000e+001 1.316667e+002 8.881784e-015
    endloop
  endfacet
  facet normal 0.000000e+000 -1.000000e+000 0.000000e+000
    outer loop
      vertex   -7.540000e+001 2.500000e+001 0.000000e+000
      vertex   -2.540000e+001 2.500000e+001 8.881784e-015
      vertex   -7.540000e+001 2.500000e+001 1.000000e-001
    endloop
  endfacet
  facet normal 0.000000e+000 -1.000000e+000 0.000000e+000
    outer loop
      vertex   -7.540000e+001 2.500000e+001 1.000000e-001
      vertex   -2.540000e+001 2.500000e+001 8.881784e-015
      vertex   -2.540000e+001 2.500000e+001 1.000000e-001
    endloop
  endfacet
  facet normal -1.771888e-016 -5.624911e-003 9.999842e-001
    outer loop
      vertex   -7.540000e+001 1.850000e+002 1.000000e+000
      vertex   -7.540000e+001 1.316667e+002 7.000000e-001
      vertex   -2.540000e+001 1.850000e+002 1.000000e+000
    endloop
  endfacet
  facet normal -1.776329e-016 -5.624911e-003 9.999842e-001
    outer loop
      vertex   -2.540000e+001 1.850000e+002 1.000000e+000
      vertex   -7.540000e+001 1.316667e+002 7.000000e-001
      vertex   -2.540000e+001 1.316667e+002 7.000000e-001
    endloop
  endfacet
  facet normal -1.776329e-016 -5.624911e-003 9.999842e-001
    outer loop
      vertex   -2.540000e+001 1.316667e+002 7.000000e-001
      vertex   -7.540000e+001 1.316667e+002 7.000000e-001
      vertex   -7.540000e+001 7.833333e+001 4.000000e-001
    endloop
  endfacet
  facet normal -1.776329e-016 -5.624911e-003 9.999842e-001
    outer loop
      vertex   -2.540000e+001 7.833333e+001 4.000000e-001
      vertex   -7.540000e+001 7.833333e+001 4.000000e-001
      vertex   -7.540000e+001 2.500000e+001 1.000000e-001
    endloop
  endfacet
  facet normal -1.778549e-016 -5.624911e-003 9.999842e-001
    outer loop
      vertex   -2.540000e+001 2.500000e+001 1.000000e-001
      vertex   -2.540000e+001 7.833333e+001 4.000000e-001
      vertex   -7.540000e+001 2.500000e+001 1.000000e-001
    endloop
  endfacet
  facet normal -1.776329e-016 -5.624911e-003 9.999842e-001
    outer loop
      vertex   -2.540000e+001 1.316667e+002 7.000000e-001
      vertex   -7.540000e+001 7.833333e+001 4.000000e-001
      vertex   -2.540000e+001 7.833333e+001 4.000000e-001
    endloop
  endfacet
  facet normal 1.000000e+000 0.000000e+000 0.000000e+000
    outer loop
      vertex   -2.540000e+001 1.850000e+002 1.000000e+000
      vertex   -2.540000e+001 1.316667e+002 7.000000e-001
      vertex   -2.540000e+001 1.850000e+002 8.881784e-015
    endloop
  endfacet
  facet normal 1.000000e+000 0.000000e+000 0.000000e+000
    outer loop
      vertex   -2.540000e+001 1.850000e+002 8.881784e-015
      vertex   -2.540000e+001 1.316667e+002 7.000000e-001
      vertex   -2.540000e+001 1.316667e+002 8.881784e-015
    endloop
  endfacet
  facet normal 1.000000e+000 0.000000e+000 -0.000000e+000
    outer loop
      vertex   -2.540000e+001 1.316667e+002 8.881784e-015
      vertex   -2.540000e+001 1.316667e+002 7.000000e-001
      vertex   -2.540000e+001 7.833333e+001 4.000000e-001
    endloop
  endfacet
  facet normal 1.000000e+000 0.000000e+000 -0.000000e+000
    outer loop
      vertex   -2.540000e+001 7.833333e+001 8.881784e-015
      vertex   -2.540000e+001 7.833333e+001 4.000000e-001
      vertex   -2.540000e+001 2.500000e+001 1.000000e-001
    endloop
  endfacet
  facet normal 1.000000e+000 0.000000e+000 -0.000000e+000
    outer loop
      vertex   -2.540000e+001 2.500000e+001 8.881784e-015
      vertex   -2.540000e+001 7.833333e+001 8.881784e-015
      vertex   -2.540000e+001 2.500000e+001 1.000000e-001
    endloop
  endfacet
  facet normal 1.000000e+000 0.000000e+000 0.000000e+000
    outer loop
      vertex   -2.540000e+001 1.316667e+002 8.881784e-015
      vertex   -2.540000e+001 7.833333e+001 4.000000e-001
      vertex   -2.540000e+001 7.833333e+001 8.881784e-015
    endloop
  endfacet
  facet normal -1.000000e+000 0.000000e+000 0.000000e+000
    outer loop
      vertex   -7.540000e+001 2.500000e+001 0.000000e+000
      vertex   -7.540000e+001 2.500000e+001 1.000000e-001
      vertex   -7.540000e+001 7.833333e+001 0.000000e+000
    endloop
  endfacet
  facet normal -1.000000e+000 0.000000e+000 0.000000e+000
    outer loop
      vertex   -7.540000e+001 7.833333e+001 0.000000e+000
      vertex   -7.540000e+001 2.500000e+001 1.000000e-001
      vertex   -7.540000e+001 7.833333e+001 4.000000e-001
    endloop
  endfacet
  facet normal -1.000000e+000 0.000000e+000 0.000000e+000
    outer loop
      vertex   -7.540000e+001 1.316667e+002 0.000000e+000
      vertex   -7.540000e+001 7.833333e+001 4.000000e-001
      vertex   -7.540000e+001 1.316667e+002 7.000000e-001
    endloop
  endfacet
  facet normal -1.000000e+000 0.000000e+000 0.000000e+000
    outer loop
      vertex   -7.540000e+001 1.850000e+002 0.000000e+000
      vertex   -7.540000e+001 1.316667e+002 7.000000e-001
      vertex   -7.540000e+001 1.850000e+002 1.000000e+000
    endloop
  endfacet
  facet normal -1.000000e+000 0.000000e+000 0.000000e+000
    outer loop
      vertex   -7.540000e+001 1.850000e+002 0.000000e+000
      vertex   -7.540000e+001 1.316667e+002 0.000000e+000
      vertex   -7.540000e+001 1.316667e+002 7.000000e-001
    endloop
  endfacet
  facet normal -1.000000e+000 0.000000e+000 0.000000e+000
    outer loop
      vertex   -7.540000e+001 7.833333e+001 0.000000e+000
      vertex   -7.540000e+001 7.833333e+001 4.000000e-001
      vertex   -7.540000e+001 1.316667e+002 0.000000e+000
    endloop
  endfacet
endsolid
