solid ascii
  facet normal 0.000000e+000 1.000000e+000 0.000000e+000
    outer loop
      vertex   -2.700000e+001 2.700000e+001 7.000000e+000
      vertex   -2.700000e+001 2.700000e+001 2.000000e+000
      vertex   -4.400000e+001 2.700000e+001 7.000000e+000
    endloop
  endfacet
  facet normal 0.000000e+000 1.000000e+000 0.000000e+000
    outer loop
      vertex   -4.400000e+001 2.700000e+001 7.000000e+000
      vertex   -2.700000e+001 2.700000e+001 2.000000e+000
      vertex   -4.400000e+001 2.700000e+001 2.000000e+000
    endloop
  endfacet
  facet normal 1.000000e+000 0.000000e+000 -0.000000e+000
    outer loop
      vertex   -4.400000e+001 1.150000e+002 2.000000e+000
      vertex   -4.400000e+001 1.150000e+002 7.000000e+000
      vertex   -4.400000e+001 7.100000e+001 2.000000e+000
    endloop
  endfacet
  facet normal 1.000000e+000 0.000000e+000 -0.000000e+000
    outer loop
      vertex   -4.400000e+001 7.100000e+001 2.000000e+000
      vertex   -4.400000e+001 1.150000e+002 7.000000e+000
      vertex   -4.400000e+001 7.100000e+001 7.000000e+000
    endloop
  endfacet
  facet normal 1.000000e+000 0.000000e+000 -0.000000e+000
    outer loop
      vertex   -4.400000e+001 2.700000e+001 2.000000e+000
      vertex   -4.400000e+001 7.100000e+001 7.000000e+000
      vertex   -4.400000e+001 2.700000e+001 7.000000e+000
    endloop
  endfacet
  facet normal 1.000000e+000 0.000000e+000 0.000000e+000
    outer loop
      vertex   -4.400000e+001 2.700000e+001 2.000000e+000
      vertex   -4.400000e+001 7.100000e+001 2.000000e+000
      vertex   -4.400000e+001 7.100000e+001 7.000000e+000
    endloop
  endfacet
  facet normal 0.000000e+000 -0.000000e+000 1.000000e+000
    outer loop
      vertex   -4.400000e+001 2.700000e+001 2.000000e+000
      vertex   -2.700000e+001 2.700000e+001 2.000000e+000
      vertex   -4.400000e+001 7.100000e+001 2.000000e+000
    endloop
  endfacet
  facet normal -0.000000e+000 0.000000e+000 1.000000e+000
    outer loop
      vertex   -4.400000e+001 7.100000e+001 2.000000e+000
      vertex   -2.700000e+001 2.700000e+001 2.000000e+000
      vertex   -2.700000e+001 7.100000e+001 2.000000e+000
    endloop
  endfacet
  facet normal -0.000000e+000 0.000000e+000 1.000000e+000
    outer loop
      vertex   -4.400000e+001 1.150000e+002 2.000000e+000
      vertex   -2.700000e+001 7.100000e+001 2.000000e+000
      vertex   -2.700000e+001 1.150000e+002 2.000000e+000
    endloop
  endfacet
  facet normal -0.000000e+000 0.000000e+000 1.000000e+000
    outer loop
      vertex   -4.400000e+001 1.150000e+002 2.000000e+000
      vertex   -4.400000e+001 7.100000e+001 2.000000e+000
      vertex   -2.700000e+001 7.100000e+001 2.000000e+000
    endloop
  endfacet
  facet normal 0.000000e+000 -1.000000e+000 0.000000e+000
    outer loop
      vertex   -4.400000e+001 1.150000e+002 7.000000e+000
      vertex   -4.400000e+001 1.150000e+002 2.000000e+000
      vertex   -2.700000e+001 1.150000e+002 7.000000e+000
    endloop
  endfacet
  facet normal 0.000000e+000 -1.000000e+000 -0.000000e+000
    outer loop
      vertex   -2.700000e+001 1.150000e+002 7.000000e+000
      vertex   -4.400000e+001 1.150000e+002 2.000000e+000
      vertex   -2.700000e+001 1.150000e+002 2.000000e+000
    endloop
  endfacet
  facet normal -1.000000e+000 0.000000e+000 0.000000e+000
    outer loop
      vertex   -2.700000e+001 2.700000e+001 2.000000e+000
      vertex   -2.700000e+001 2.700000e+001 7.000000e+000
      vertex   -2.700000e+001 7.100000e+001 2.000000e+000
    endloop
  endfacet
  facet normal -1.000000e+000 0.000000e+000 0.000000e+000
    outer loop
      vertex   -2.700000e+001 7.100000e+001 2.000000e+000
      vertex   -2.700000e+001 2.700000e+001 7.000000e+000
      vertex   -2.700000e+001 7.100000e+001 7.000000e+000
    endloop
  endfacet
  facet normal -1.000000e+000 0.000000e+000 0.000000e+000
    outer loop
      vertex   -2.700000e+001 1.150000e+002 2.000000e+000
      vertex   -2.700000e+001 7.100000e+001 7.000000e+000
      vertex   -2.700000e+001 1.150000e+002 7.000000e+000
    endloop
  endfacet
  facet normal -1.000000e+000 0.000000e+000 0.000000e+000
    outer loop
      vertex   -2.700000e+001 1.150000e+002 2.000000e+000
      vertex   -2.700000e+001 7.100000e+001 2.000000e+000
      vertex   -2.700000e+001 7.100000e+001 7.000000e+000
    endloop
  endfacet
  facet normal 0.000000e+000 0.000000e+000 1.000000e+000
    outer loop
      vertex   -2.700000e+001 1.150000e+002 7.000000e+000
      vertex   -4.600000e+001 1.170000e+002 7.000000e+000
      vertex   -4.400000e+001 1.150000e+002 7.000000e+000
    endloop
  endfacet
  facet normal 0.000000e+000 -0.000000e+000 1.000000e+000
    outer loop
      vertex   -2.700000e+001 1.150000e+002 7.000000e+000
      vertex   -2.500000e+001 1.170000e+002 7.000000e+000
      vertex   -4.600000e+001 1.170000e+002 7.000000e+000
    endloop
  endfacet
  facet normal -0.000000e+000 0.000000e+000 1.000000e+000
    outer loop
      vertex   -2.700000e+001 1.150000e+002 7.000000e+000
      vertex   -2.500000e+001 7.100000e+001 7.000000e+000
      vertex   -2.500000e+001 1.170000e+002 7.000000e+000
    endloop
  endfacet
  facet normal -0.000000e+000 0.000000e+000 1.000000e+000
    outer loop
      vertex   -2.700000e+001 1.150000e+002 7.000000e+000
      vertex   -2.700000e+001 7.100000e+001 7.000000e+000
      vertex   -2.500000e+001 7.100000e+001 7.000000e+000
    endloop
  endfacet
  facet normal 0.000000e+000 0.000000e+000 1.000000e+000
    outer loop
      vertex   -2.500000e+001 7.100000e+001 7.000000e+000
      vertex   -2.700000e+001 7.100000e+001 7.000000e+000
      vertex   -2.700000e+001 2.700000e+001 7.000000e+000
    endloop
  endfacet
  facet normal 0.000000e+000 0.000000e+000 1.000000e+000
    outer loop
      vertex   -2.500000e+001 2.500000e+001 7.000000e+000
      vertex   -2.700000e+001 2.700000e+001 7.000000e+000
      vertex   -4.400000e+001 2.700000e+001 7.000000e+000
    endloop
  endfacet
  facet normal 0.000000e+000 -0.000000e+000 1.000000e+000
    outer loop
      vertex   -4.600000e+001 2.500000e+001 7.000000e+000
      vertex   -4.400000e+001 2.700000e+001 7.000000e+000
      vertex   -4.600000e+001 7.100000e+001 7.000000e+000
    endloop
  endfacet
  facet normal 0.000000e+000 -0.000000e+000 1.000000e+000
    outer loop
      vertex   -4.600000e+001 2.500000e+001 7.000000e+000
      vertex   -2.500000e+001 2.500000e+001 7.000000e+000
      vertex   -4.400000e+001 2.700000e+001 7.000000e+000
    endloop
  endfacet
  facet normal 0.000000e+000 0.000000e+000 1.000000e+000
    outer loop
      vertex   -2.500000e+001 7.100000e+001 7.000000e+000
      vertex   -2.700000e+001 2.700000e+001 7.000000e+000
      vertex   -2.500000e+001 2.500000e+001 7.000000e+000
    endloop
  endfacet
  facet normal 0.000000e+000 -0.000000e+000 1.000000e+000
    outer loop
      vertex   -4.400000e+001 2.700000e+001 7.000000e+000
      vertex   -4.400000e+001 7.100000e+001 7.000000e+000
      vertex   -4.600000e+001 7.100000e+001 7.000000e+000
    endloop
  endfacet
  facet normal 0.000000e+000 0.000000e+000 1.000000e+000
    outer loop
      vertex   -4.600000e+001 7.100000e+001 7.000000e+000
      vertex   -4.400000e+001 7.100000e+001 7.000000e+000
      vertex   -4.400000e+001 1.150000e+002 7.000000e+000
    endloop
  endfacet
  facet normal -0.000000e+000 0.000000e+000 1.000000e+000
    outer loop
      vertex   -4.600000e+001 1.170000e+002 7.000000e+000
      vertex   -4.600000e+001 7.100000e+001 7.000000e+000
      vertex   -4.400000e+001 1.150000e+002 7.000000e+000
    endloop
  endfacet
  facet normal 0.000000e+000 -0.000000e+000 -1.000000e+000
    outer loop
      vertex   -4.600000e+001 1.170000e+002 0.000000e+000
      vertex   -2.500000e+001 1.170000e+002 0.000000e+000
      vertex   -4.600000e+001 7.100000e+001 0.000000e+000
    endloop
  endfacet
  facet normal 0.000000e+000 0.000000e+000 -1.000000e+000
    outer loop
      vertex   -4.600000e+001 7.100000e+001 0.000000e+000
      vertex   -2.500000e+001 1.170000e+002 0.000000e+000
      vertex   -2.500000e+001 7.100000e+001 0.000000e+000
    endloop
  endfacet
  facet normal 0.000000e+000 0.000000e+000 -1.000000e+000
    outer loop
      vertex   -4.600000e+001 2.500000e+001 0.000000e+000
      vertex   -2.500000e+001 7.100000e+001 0.000000e+000
      vertex   -2.500000e+001 2.500000e+001 0.000000e+000
    endloop
  endfacet
  facet normal 0.000000e+000 0.000000e+000 -1.000000e+000
    outer loop
      vertex   -4.600000e+001 2.500000e+001 0.000000e+000
      vertex   -4.600000e+001 7.100000e+001 0.000000e+000
      vertex   -2.500000e+001 7.100000e+001 0.000000e+000
    endloop
  endfacet
  facet normal 0.000000e+000 -1.000000e+000 0.000000e+000
    outer loop
      vertex   -4.600000e+001 2.500000e+001 7.000000e+000
      vertex   -4.600000e+001 2.500000e+001 0.000000e+000
      vertex   -2.500000e+001 2.500000e+001 7.000000e+000
    endloop
  endfacet
  facet normal 0.000000e+000 -1.000000e+000 -0.000000e+000
    outer loop
      vertex   -2.500000e+001 2.500000e+001 7.000000e+000
      vertex   -4.600000e+001 2.500000e+001 0.000000e+000
      vertex   -2.500000e+001 2.500000e+001 0.000000e+000
    endloop
  endfacet
  facet normal -1.000000e+000 -0.000000e+000 -0.000000e+000
    outer loop
      vertex   -4.600000e+001 1.170000e+002 7.000000e+000
      vertex   -4.600000e+001 1.170000e+002 0.000000e+000
      vertex   -4.600000e+001 7.100000e+001 7.000000e+000
    endloop
  endfacet
  facet normal -1.000000e+000 -0.000000e+000 -0.000000e+000
    outer loop
      vertex   -4.600000e+001 7.100000e+001 7.000000e+000
      vertex   -4.600000e+001 1.170000e+002 0.000000e+000
      vertex   -4.600000e+001 7.100000e+001 0.000000e+000
    endloop
  endfacet
  facet normal -1.000000e+000 -0.000000e+000 -0.000000e+000
    outer loop
      vertex   -4.600000e+001 2.500000e+001 7.000000e+000
      vertex   -4.600000e+001 7.100000e+001 0.000000e+000
      vertex   -4.600000e+001 2.500000e+001 0.000000e+000
    endloop
  endfacet
  facet normal -1.000000e+000 0.000000e+000 0.000000e+000
    outer loop
      vertex   -4.600000e+001 2.500000e+001 7.000000e+000
      vertex   -4.600000e+001 7.100000e+001 7.000000e+000
      vertex   -4.600000e+001 7.100000e+001 0.000000e+000
    endloop
  endfacet
  facet normal 0.000000e+000 1.000000e+000 0.000000e+000
    outer loop
      vertex   -2.500000e+001 1.170000e+002 7.000000e+000
      vertex   -2.500000e+001 1.170000e+002 0.000000e+000
      vertex   -4.600000e+001 1.170000e+002 7.000000e+000
    endloop
  endfacet
  facet normal 0.000000e+000 1.000000e+000 0.000000e+000
    outer loop
      vertex   -4.600000e+001 1.170000e+002 7.000000e+000
      vertex   -2.500000e+001 1.170000e+002 0.000000e+000
      vertex   -4.600000e+001 1.170000e+002 0.000000e+000
    endloop
  endfacet
  facet normal 1.000000e+000 -0.000000e+000 0.000000e+000
    outer loop
      vertex   -2.500000e+001 2.500000e+001 7.000000e+000
      vertex   -2.500000e+001 2.500000e+001 0.000000e+000
      vertex   -2.500000e+001 7.100000e+001 7.000000e+000
    endloop
  endfacet
  facet normal 1.000000e+000 -0.000000e+000 0.000000e+000
    outer loop
      vertex   -2.500000e+001 7.100000e+001 7.000000e+000
      vertex   -2.500000e+001 2.500000e+001 0.000000e+000
      vertex   -2.500000e+001 7.100000e+001 0.000000e+000
    endloop
  endfacet
  facet normal 1.000000e+000 -0.000000e+000 0.000000e+000
    outer loop
      vertex   -2.500000e+001 1.170000e+002 7.000000e+000
      vertex   -2.500000e+001 7.100000e+001 0.000000e+000
      vertex   -2.500000e+001 1.170000e+002 0.000000e+000
    endloop
  endfacet
  facet normal 1.000000e+000 0.000000e+000 0.000000e+000
    outer loop
      vertex   -2.500000e+001 1.170000e+002 7.000000e+000
      vertex   -2.500000e+001 7.100000e+001 7.000000e+000
      vertex   -2.500000e+001 7.100000e+001 0.000000e+000
    endloop
  endfacet
endsolid
