solid ascii
  facet normal -1.000000e+000 0.000000e+000 0.000000e+000
    outer loop
      vertex   -6.200072e+001 3.000000e+000 0.000000e+000
      vertex   -6.200072e+001 3.000000e+000 2.000000e+001
      vertex   -6.200072e+001 5.500000e+001 0.000000e+000
    endloop
  endfacet
  facet normal -1.000000e+000 0.000000e+000 0.000000e+000
    outer loop
      vertex   -6.200072e+001 5.500000e+001 0.000000e+000
      vertex   -6.200072e+001 3.000000e+000 2.000000e+001
      vertex   -6.200072e+001 5.500000e+001 2.000000e+001
    endloop
  endfacet
  facet normal -1.000000e+000 0.000000e+000 0.000000e+000
    outer loop
      vertex   -6.200072e+001 1.070000e+002 0.000000e+000
      vertex   -6.200072e+001 5.500000e+001 2.000000e+001
      vertex   -6.200072e+001 1.070000e+002 2.000000e+001
    endloop
  endfacet
  facet normal -1.000000e+000 0.000000e+000 0.000000e+000
    outer loop
      vertex   -6.200072e+001 1.070000e+002 0.000000e+000
      vertex   -6.200072e+001 5.500000e+001 0.000000e+000
      vertex   -6.200072e+001 5.500000e+001 2.000000e+001
    endloop
  endfacet
  facet normal -0.000000e+000 -1.000000e+000 0.000000e+000
    outer loop
      vertex   -6.200072e+001 1.070000e+002 0.000000e+000
      vertex   -6.200072e+001 1.070000e+002 2.000000e+001
      vertex   -1.020007e+002 1.070000e+002 0.000000e+000
    endloop
  endfacet
  facet normal 0.000000e+000 -1.000000e+000 0.000000e+000
    outer loop
      vertex   -1.020007e+002 1.070000e+002 0.000000e+000
      vertex   -6.200072e+001 1.070000e+002 2.000000e+001
      vertex   -1.020007e+002 1.070000e+002 2.000000e+001
    endloop
  endfacet
  facet normal -0.000000e+000 1.000000e+000 0.000000e+000
    outer loop
      vertex   -1.040007e+002 1.090000e+002 -4.440892e-016
      vertex   -1.040007e+002 1.090000e+002 2.000000e+001
      vertex   -6.000072e+001 1.090000e+002 -2.220446e-016
    endloop
  endfacet
  facet normal 0.000000e+000 1.000000e+000 -0.000000e+000
    outer loop
      vertex   -6.000072e+001 1.090000e+002 -2.220446e-016
      vertex   -1.040007e+002 1.090000e+002 2.000000e+001
      vertex   -6.000072e+001 1.090000e+002 2.000000e+001
    endloop
  endfacet
  facet normal 1.000000e+000 1.315820e-016 -0.000000e+000
    outer loop
      vertex   -6.000072e+001 1.090000e+002 -2.220446e-016
      vertex   -6.000072e+001 1.090000e+002 2.000000e+001
      vertex   -6.000072e+001 5.500000e+001 0.000000e+000
    endloop
  endfacet
  facet normal 1.000000e+000 1.315820e-016 0.000000e+000
    outer loop
      vertex   -6.000072e+001 5.500000e+001 0.000000e+000
      vertex   -6.000072e+001 1.090000e+002 2.000000e+001
      vertex   -6.000072e+001 5.500000e+001 2.000000e+001
    endloop
  endfacet
  facet normal 1.000000e+000 -1.315820e-016 0.000000e+000
    outer loop
      vertex   -6.000072e+001 1.000000e+000 -4.440892e-016
      vertex   -6.000072e+001 5.500000e+001 2.000000e+001
      vertex   -6.000072e+001 1.000000e+000 2.000000e+001
    endloop
  endfacet
  facet normal 1.000000e+000 -1.315820e-016 0.000000e+000
    outer loop
      vertex   -6.000072e+001 1.000000e+000 -4.440892e-016
      vertex   -6.000072e+001 5.500000e+001 0.000000e+000
      vertex   -6.000072e+001 5.500000e+001 2.000000e+001
    endloop
  endfacet
  facet normal 0.000000e+000 1.000000e+000 0.000000e+000
    outer loop
      vertex   -6.200072e+001 3.000000e+000 2.000000e+001
      vertex   -6.200072e+001 3.000000e+000 0.000000e+000
      vertex   -1.020007e+002 3.000000e+000 2.000000e+001
    endloop
  endfacet
  facet normal 0.000000e+000 1.000000e+000 0.000000e+000
    outer loop
      vertex   -1.020007e+002 3.000000e+000 2.000000e+001
      vertex   -6.200072e+001 3.000000e+000 0.000000e+000
      vertex   -1.020007e+002 3.000000e+000 0.000000e+000
    endloop
  endfacet
  facet normal -0.000000e+000 -1.000000e+000 0.000000e+000
    outer loop
      vertex   -6.000072e+001 1.000000e+000 -4.440892e-016
      vertex   -6.000072e+001 1.000000e+000 2.000000e+001
      vertex   -1.040007e+002 1.000000e+000 -4.440892e-016
    endloop
  endfacet
  facet normal 0.000000e+000 -1.000000e+000 0.000000e+000
    outer loop
      vertex   -1.040007e+002 1.000000e+000 -4.440892e-016
      vertex   -6.000072e+001 1.000000e+000 2.000000e+001
      vertex   -1.040007e+002 1.000000e+000 2.000000e+001
    endloop
  endfacet
  facet normal 0.000000e+000 -1.110223e-016 -1.000000e+000
    outer loop
      vertex   -1.020007e+002 1.070000e+002 0.000000e+000
      vertex   -6.000072e+001 1.090000e+002 -2.220446e-016
      vertex   -6.200072e+001 1.070000e+002 0.000000e+000
    endloop
  endfacet
  facet normal 5.046468e-018 -2.169981e-016 -1.000000e+000
    outer loop
      vertex   -1.020007e+002 1.070000e+002 0.000000e+000
      vertex   -1.040007e+002 1.090000e+002 -4.440892e-016
      vertex   -6.000072e+001 1.090000e+002 -2.220446e-016
    endloop
  endfacet
  facet normal 2.138207e-016 -8.223874e-018 -1.000000e+000
    outer loop
      vertex   -1.020007e+002 1.070000e+002 0.000000e+000
      vertex   -1.040007e+002 5.500000e+001 0.000000e+000
      vertex   -1.040007e+002 1.090000e+002 -4.440892e-016
    endloop
  endfacet
  facet normal 0.000000e+000 -0.000000e+000 -1.000000e+000
    outer loop
      vertex   -1.020007e+002 1.070000e+002 0.000000e+000
      vertex   -1.020007e+002 5.500000e+001 0.000000e+000
      vertex   -1.040007e+002 5.500000e+001 0.000000e+000
    endloop
  endfacet
  facet normal 0.000000e+000 0.000000e+000 -1.000000e+000
    outer loop
      vertex   -1.040007e+002 5.500000e+001 0.000000e+000
      vertex   -1.020007e+002 5.500000e+001 0.000000e+000
      vertex   -1.020007e+002 3.000000e+000 0.000000e+000
    endloop
  endfacet
  facet normal 0.000000e+000 2.220446e-016 -1.000000e+000
    outer loop
      vertex   -1.040007e+002 1.000000e+000 -4.440892e-016
      vertex   -1.020007e+002 3.000000e+000 0.000000e+000
      vertex   -6.200072e+001 3.000000e+000 0.000000e+000
    endloop
  endfacet
  facet normal -2.138207e-016 8.223874e-018 -1.000000e+000
    outer loop
      vertex   -6.000072e+001 1.000000e+000 -4.440892e-016
      vertex   -6.200072e+001 3.000000e+000 0.000000e+000
      vertex   -6.000072e+001 5.500000e+001 0.000000e+000
    endloop
  endfacet
  facet normal 0.000000e+000 2.220446e-016 -1.000000e+000
    outer loop
      vertex   -6.000072e+001 1.000000e+000 -4.440892e-016
      vertex   -1.040007e+002 1.000000e+000 -4.440892e-016
      vertex   -6.200072e+001 3.000000e+000 0.000000e+000
    endloop
  endfacet
  facet normal 2.138207e-016 8.223874e-018 -1.000000e+000
    outer loop
      vertex   -1.040007e+002 5.500000e+001 0.000000e+000
      vertex   -1.020007e+002 3.000000e+000 0.000000e+000
      vertex   -1.040007e+002 1.000000e+000 -4.440892e-016
    endloop
  endfacet
  facet normal 0.000000e+000 0.000000e+000 -1.000000e+000
    outer loop
      vertex   -6.200072e+001 3.000000e+000 0.000000e+000
      vertex   -6.200072e+001 5.500000e+001 0.000000e+000
      vertex   -6.000072e+001 5.500000e+001 0.000000e+000
    endloop
  endfacet
  facet normal -0.000000e+000 0.000000e+000 -1.000000e+000
    outer loop
      vertex   -6.000072e+001 5.500000e+001 0.000000e+000
      vertex   -6.200072e+001 5.500000e+001 0.000000e+000
      vertex   -6.200072e+001 1.070000e+002 0.000000e+000
    endloop
  endfacet
  facet normal -1.069104e-016 -4.111937e-018 -1.000000e+000
    outer loop
      vertex   -6.000072e+001 1.090000e+002 -2.220446e-016
      vertex   -6.000072e+001 5.500000e+001 0.000000e+000
      vertex   -6.200072e+001 1.070000e+002 0.000000e+000
    endloop
  endfacet
  facet normal 0.000000e+000 0.000000e+000 1.000000e+000
    outer loop
      vertex   -6.000072e+001 5.500000e+001 2.000000e+001
      vertex   -6.200072e+001 3.000000e+000 2.000000e+001
      vertex   -6.000072e+001 1.000000e+000 2.000000e+001
    endloop
  endfacet
  facet normal 0.000000e+000 0.000000e+000 1.000000e+000
    outer loop
      vertex   -6.000072e+001 5.500000e+001 2.000000e+001
      vertex   -6.200072e+001 5.500000e+001 2.000000e+001
      vertex   -6.200072e+001 3.000000e+000 2.000000e+001
    endloop
  endfacet
  facet normal 0.000000e+000 0.000000e+000 1.000000e+000
    outer loop
      vertex   -6.000072e+001 5.500000e+001 2.000000e+001
      vertex   -6.200072e+001 1.070000e+002 2.000000e+001
      vertex   -6.200072e+001 5.500000e+001 2.000000e+001
    endloop
  endfacet
  facet normal 0.000000e+000 0.000000e+000 1.000000e+000
    outer loop
      vertex   -6.000072e+001 5.500000e+001 2.000000e+001
      vertex   -6.000072e+001 1.090000e+002 2.000000e+001
      vertex   -6.200072e+001 1.070000e+002 2.000000e+001
    endloop
  endfacet
  facet normal 0.000000e+000 -0.000000e+000 1.000000e+000
    outer loop
      vertex   -6.200072e+001 1.070000e+002 2.000000e+001
      vertex   -6.000072e+001 1.090000e+002 2.000000e+001
      vertex   -1.040007e+002 1.090000e+002 2.000000e+001
    endloop
  endfacet
  facet normal 0.000000e+000 0.000000e+000 1.000000e+000
    outer loop
      vertex   -1.020007e+002 1.070000e+002 2.000000e+001
      vertex   -1.040007e+002 1.090000e+002 2.000000e+001
      vertex   -1.040007e+002 5.500000e+001 2.000000e+001
    endloop
  endfacet
  facet normal 0.000000e+000 0.000000e+000 1.000000e+000
    outer loop
      vertex   -1.020007e+002 5.500000e+001 2.000000e+001
      vertex   -1.040007e+002 5.500000e+001 2.000000e+001
      vertex   -1.020007e+002 3.000000e+000 2.000000e+001
    endloop
  endfacet
  facet normal 0.000000e+000 -0.000000e+000 1.000000e+000
    outer loop
      vertex   -1.020007e+002 5.500000e+001 2.000000e+001
      vertex   -1.020007e+002 1.070000e+002 2.000000e+001
      vertex   -1.040007e+002 5.500000e+001 2.000000e+001
    endloop
  endfacet
  facet normal 0.000000e+000 0.000000e+000 1.000000e+000
    outer loop
      vertex   -6.200072e+001 1.070000e+002 2.000000e+001
      vertex   -1.040007e+002 1.090000e+002 2.000000e+001
      vertex   -1.020007e+002 1.070000e+002 2.000000e+001
    endloop
  endfacet
  facet normal -0.000000e+000 0.000000e+000 1.000000e+000
    outer loop
      vertex   -1.040007e+002 5.500000e+001 2.000000e+001
      vertex   -1.040007e+002 1.000000e+000 2.000000e+001
      vertex   -1.020007e+002 3.000000e+000 2.000000e+001
    endloop
  endfacet
  facet normal -0.000000e+000 0.000000e+000 1.000000e+000
    outer loop
      vertex   -1.020007e+002 3.000000e+000 2.000000e+001
      vertex   -1.040007e+002 1.000000e+000 2.000000e+001
      vertex   -6.000072e+001 1.000000e+000 2.000000e+001
    endloop
  endfacet
  facet normal 0.000000e+000 0.000000e+000 1.000000e+000
    outer loop
      vertex   -6.200072e+001 3.000000e+000 2.000000e+001
      vertex   -1.020007e+002 3.000000e+000 2.000000e+001
      vertex   -6.000072e+001 1.000000e+000 2.000000e+001
    endloop
  endfacet
  facet normal 1.000000e+000 0.000000e+000 -0.000000e+000
    outer loop
      vertex   -1.020007e+002 1.070000e+002 0.000000e+000
      vertex   -1.020007e+002 1.070000e+002 2.000000e+001
      vertex   -1.020007e+002 5.500000e+001 0.000000e+000
    endloop
  endfacet
  facet normal 1.000000e+000 0.000000e+000 -0.000000e+000
    outer loop
      vertex   -1.020007e+002 5.500000e+001 0.000000e+000
      vertex   -1.020007e+002 1.070000e+002 2.000000e+001
      vertex   -1.020007e+002 5.500000e+001 2.000000e+001
    endloop
  endfacet
  facet normal 1.000000e+000 0.000000e+000 -0.000000e+000
    outer loop
      vertex   -1.020007e+002 3.000000e+000 0.000000e+000
      vertex   -1.020007e+002 5.500000e+001 2.000000e+001
      vertex   -1.020007e+002 3.000000e+000 2.000000e+001
    endloop
  endfacet
  facet normal 1.000000e+000 0.000000e+000 -0.000000e+000
    outer loop
      vertex   -1.020007e+002 3.000000e+000 0.000000e+000
      vertex   -1.020007e+002 5.500000e+001 0.000000e+000
      vertex   -1.020007e+002 5.500000e+001 2.000000e+001
    endloop
  endfacet
  facet normal -1.000000e+000 0.000000e+000 0.000000e+000
    outer loop
      vertex   -1.040007e+002 1.000000e+000 -4.440892e-016
      vertex   -1.040007e+002 1.000000e+000 2.000000e+001
      vertex   -1.040007e+002 5.500000e+001 0.000000e+000
    endloop
  endfacet
  facet normal -1.000000e+000 0.000000e+000 0.000000e+000
    outer loop
      vertex   -1.040007e+002 5.500000e+001 0.000000e+000
      vertex   -1.040007e+002 1.000000e+000 2.000000e+001
      vertex   -1.040007e+002 5.500000e+001 2.000000e+001
    endloop
  endfacet
  facet normal -1.000000e+000 0.000000e+000 0.000000e+000
    outer loop
      vertex   -1.040007e+002 1.090000e+002 -4.440892e-016
      vertex   -1.040007e+002 5.500000e+001 2.000000e+001
      vertex   -1.040007e+002 1.090000e+002 2.000000e+001
    endloop
  endfacet
  facet normal -1.000000e+000 0.000000e+000 0.000000e+000
    outer loop
      vertex   -1.040007e+002 1.090000e+002 -4.440892e-016
      vertex   -1.040007e+002 5.500000e+001 0.000000e+000
      vertex   -1.040007e+002 5.500000e+001 2.000000e+001
    endloop
  endfacet
endsolid
