solid ascii
  facet normal 1.000000e+000 -0.000000e+000 0.000000e+000
    outer loop
      vertex   -1.200000e+002 6.900000e+001 7.000000e+001
      vertex   -1.200000e+002 6.900000e+001 3.500000e+001
      vertex   -1.200000e+002 7.500000e+001 7.000000e+001
    endloop
  endfacet
  facet normal 1.000000e+000 -0.000000e+000 0.000000e+000
    outer loop
      vertex   -1.200000e+002 7.500000e+001 7.000000e+001
      vertex   -1.200000e+002 6.900000e+001 3.500000e+001
      vertex   -1.200000e+002 7.500000e+001 3.500000e+001
    endloop
  endfacet
  facet normal 1.000000e+000 0.000000e+000 0.000000e+000
    outer loop
      vertex   -1.200000e+002 7.500000e+001 3.500000e+001
      vertex   -1.200000e+002 6.900000e+001 3.500000e+001
      vertex   -1.200000e+002 6.900000e+001 0.000000e+000
    endloop
  endfacet
  facet normal 1.000000e+000 0.000000e+000 -0.000000e+000
    outer loop
      vertex   -1.200000e+002 7.500000e+001 0.000000e+000
      vertex   -1.200000e+002 7.500000e+001 3.500000e+001
      vertex   -1.200000e+002 6.900000e+001 0.000000e+000
    endloop
  endfacet
  facet normal 0.000000e+000 1.000000e+000 0.000000e+000
    outer loop
      vertex   -1.115000e+002 6.900000e+001 7.000000e+001
      vertex   -1.115000e+002 6.900000e+001 6.000000e+001
      vertex   -1.200000e+002 6.900000e+001 7.000000e+001
    endloop
  endfacet
  facet normal 0.000000e+000 1.000000e+000 0.000000e+000
    outer loop
      vertex   -1.200000e+002 6.900000e+001 7.000000e+001
      vertex   -1.115000e+002 6.900000e+001 6.000000e+001
      vertex   -1.200000e+002 6.900000e+001 3.500000e+001
    endloop
  endfacet
  facet normal -0.000000e+000 1.000000e+000 0.000000e+000
    outer loop
      vertex   -1.200000e+002 6.900000e+001 3.500000e+001
      vertex   -1.115000e+002 6.900000e+001 6.000000e+001
      vertex   -1.100000e+002 6.900000e+001 3.000000e+001
    endloop
  endfacet
  facet normal -0.000000e+000 1.000000e+000 0.000000e+000
    outer loop
      vertex   -1.200000e+002 6.900000e+001 0.000000e+000
      vertex   -1.100000e+002 6.900000e+001 3.000000e+001
      vertex   -1.100000e+002 6.900000e+001 0.000000e+000
    endloop
  endfacet
  facet normal -0.000000e+000 1.000000e+000 0.000000e+000
    outer loop
      vertex   -1.200000e+002 6.900000e+001 0.000000e+000
      vertex   -1.200000e+002 6.900000e+001 3.500000e+001
      vertex   -1.100000e+002 6.900000e+001 3.000000e+001
    endloop
  endfacet
  facet normal -0.000000e+000 1.000000e+000 0.000000e+000
    outer loop
      vertex   -1.115000e+002 6.900000e+001 6.000000e+001
      vertex   -1.100000e+002 6.900000e+001 6.000000e+001
      vertex   -1.100000e+002 6.900000e+001 3.000000e+001
    endloop
  endfacet
  facet normal -0.000000e+000 -0.000000e+000 -1.000000e+000
    outer loop
      vertex   -1.200000e+002 7.500000e+001 0.000000e+000
      vertex   -1.200000e+002 6.900000e+001 0.000000e+000
      vertex   -1.250000e+002 7.500000e+001 0.000000e+000
    endloop
  endfacet
  facet normal 0.000000e+000 -0.000000e+000 -1.000000e+000
    outer loop
      vertex   -1.250000e+002 7.500000e+001 0.000000e+000
      vertex   -1.200000e+002 6.900000e+001 0.000000e+000
      vertex   -1.250000e+002 5.500000e+001 0.000000e+000
    endloop
  endfacet
  facet normal 0.000000e+000 0.000000e+000 -1.000000e+000
    outer loop
      vertex   -1.250000e+002 5.500000e+001 0.000000e+000
      vertex   -1.200000e+002 6.900000e+001 0.000000e+000
      vertex   -1.200000e+002 6.100000e+001 0.000000e+000
    endloop
  endfacet
  facet normal 0.000000e+000 0.000000e+000 -1.000000e+000
    outer loop
      vertex   -1.200000e+002 5.500000e+001 0.000000e+000
      vertex   -1.250000e+002 5.500000e+001 0.000000e+000
      vertex   -1.200000e+002 6.100000e+001 0.000000e+000
    endloop
  endfacet
  facet normal 0.000000e+000 -0.000000e+000 -1.000000e+000
    outer loop
      vertex   -1.200000e+002 6.900000e+001 0.000000e+000
      vertex   -1.100000e+002 6.900000e+001 0.000000e+000
      vertex   -1.200000e+002 6.100000e+001 0.000000e+000
    endloop
  endfacet
  facet normal 0.000000e+000 0.000000e+000 -1.000000e+000
    outer loop
      vertex   -1.200000e+002 6.100000e+001 0.000000e+000
      vertex   -1.100000e+002 6.900000e+001 0.000000e+000
      vertex   -1.100000e+002 6.100000e+001 0.000000e+000
    endloop
  endfacet
  facet normal 0.000000e+000 0.000000e+000 -1.000000e+000
    outer loop
      vertex   -1.100000e+002 6.100000e+001 0.000000e+000
      vertex   -1.100000e+002 6.900000e+001 0.000000e+000
      vertex   -1.050000e+002 5.500000e+001 0.000000e+000
    endloop
  endfacet
  facet normal 0.000000e+000 0.000000e+000 -1.000000e+000
    outer loop
      vertex   -1.100000e+002 5.500000e+001 0.000000e+000
      vertex   -1.100000e+002 6.100000e+001 0.000000e+000
      vertex   -1.050000e+002 5.500000e+001 0.000000e+000
    endloop
  endfacet
  facet normal 0.000000e+000 -0.000000e+000 -1.000000e+000
    outer loop
      vertex   -1.100000e+002 7.500000e+001 0.000000e+000
      vertex   -1.050000e+002 7.500000e+001 0.000000e+000
      vertex   -1.100000e+002 6.900000e+001 0.000000e+000
    endloop
  endfacet
  facet normal 0.000000e+000 0.000000e+000 -1.000000e+000
    outer loop
      vertex   -1.100000e+002 6.900000e+001 0.000000e+000
      vertex   -1.050000e+002 7.500000e+001 0.000000e+000
      vertex   -1.050000e+002 5.500000e+001 0.000000e+000
    endloop
  endfacet
  facet normal -0.000000e+000 1.000000e+000 0.000000e+000
    outer loop
      vertex   -1.100000e+002 7.500000e+001 0.000000e+000
      vertex   -1.100000e+002 7.500000e+001 3.500000e+001
      vertex   -1.050000e+002 7.500000e+001 0.000000e+000
    endloop
  endfacet
  facet normal 0.000000e+000 1.000000e+000 -0.000000e+000
    outer loop
      vertex   -1.050000e+002 7.500000e+001 0.000000e+000
      vertex   -1.100000e+002 7.500000e+001 3.500000e+001
      vertex   -1.050000e+002 7.500000e+001 3.500000e+001
    endloop
  endfacet
  facet normal 0.000000e+000 1.000000e+000 4.060244e-016
    outer loop
      vertex   -1.050000e+002 7.500000e+001 3.500000e+001
      vertex   -1.100000e+002 7.500000e+001 3.500000e+001
      vertex   -1.100000e+002 7.500000e+001 7.000000e+001
    endloop
  endfacet
  facet normal -2.842171e-015 1.000000e+000 0.000000e+000
    outer loop
      vertex   -1.050000e+002 7.500000e+001 7.000000e+001
      vertex   -1.050000e+002 7.500000e+001 3.500000e+001
      vertex   -1.100000e+002 7.500000e+001 7.000000e+001
    endloop
  endfacet
  facet normal 0.000000e+000 1.000000e+000 0.000000e+000
    outer loop
      vertex   -1.200000e+002 7.500000e+001 7.000000e+001
      vertex   -1.200000e+002 7.500000e+001 3.500000e+001
      vertex   -1.250000e+002 7.500000e+001 7.000000e+001
    endloop
  endfacet
  facet normal 0.000000e+000 1.000000e+000 0.000000e+000
    outer loop
      vertex   -1.250000e+002 7.500000e+001 7.000000e+001
      vertex   -1.200000e+002 7.500000e+001 3.500000e+001
      vertex   -1.250000e+002 7.500000e+001 3.500000e+001
    endloop
  endfacet
  facet normal -0.000000e+000 1.000000e+000 0.000000e+000
    outer loop
      vertex   -1.250000e+002 7.500000e+001 3.500000e+001
      vertex   -1.200000e+002 7.500000e+001 3.500000e+001
      vertex   -1.200000e+002 7.500000e+001 0.000000e+000
    endloop
  endfacet
  facet normal -0.000000e+000 1.000000e+000 0.000000e+000
    outer loop
      vertex   -1.250000e+002 7.500000e+001 0.000000e+000
      vertex   -1.250000e+002 7.500000e+001 3.500000e+001
      vertex   -1.200000e+002 7.500000e+001 0.000000e+000
    endloop
  endfacet
  facet normal 1.000000e+000 0.000000e+000 -0.000000e+000
    outer loop
      vertex   -1.115000e+002 6.900000e+001 6.000000e+001
      vertex   -1.115000e+002 6.900000e+001 7.000000e+001
      vertex   -1.115000e+002 6.500000e+001 6.000000e+001
    endloop
  endfacet
  facet normal 1.000000e+000 0.000000e+000 -0.000000e+000
    outer loop
      vertex   -1.115000e+002 6.500000e+001 6.000000e+001
      vertex   -1.115000e+002 6.900000e+001 7.000000e+001
      vertex   -1.115000e+002 6.500000e+001 7.000000e+001
    endloop
  endfacet
  facet normal -1.000000e+000 0.000000e+000 0.000000e+000
    outer loop
      vertex   -1.100000e+002 6.500000e+001 6.000000e+001
      vertex   -1.100000e+002 6.500000e+001 7.000000e+001
      vertex   -1.100000e+002 6.900000e+001 6.000000e+001
    endloop
  endfacet
  facet normal -1.000000e+000 0.000000e+000 0.000000e+000
    outer loop
      vertex   -1.100000e+002 6.900000e+001 6.000000e+001
      vertex   -1.100000e+002 6.500000e+001 7.000000e+001
      vertex   -1.100000e+002 7.500000e+001 7.000000e+001
    endloop
  endfacet
  facet normal -1.000000e+000 0.000000e+000 0.000000e+000
    outer loop
      vertex   -1.100000e+002 7.500000e+001 3.500000e+001
      vertex   -1.100000e+002 6.900000e+001 6.000000e+001
      vertex   -1.100000e+002 7.500000e+001 7.000000e+001
    endloop
  endfacet
  facet normal -1.000000e+000 -0.000000e+000 0.000000e+000
    outer loop
      vertex   -1.100000e+002 7.500000e+001 3.500000e+001
      vertex   -1.100000e+002 6.900000e+001 3.000000e+001
      vertex   -1.100000e+002 6.900000e+001 6.000000e+001
    endloop
  endfacet
  facet normal -1.000000e+000 -0.000000e+000 -0.000000e+000
    outer loop
      vertex   -1.100000e+002 7.500000e+001 3.500000e+001
      vertex   -1.100000e+002 7.500000e+001 0.000000e+000
      vertex   -1.100000e+002 6.900000e+001 3.000000e+001
    endloop
  endfacet
  facet normal -1.000000e+000 -0.000000e+000 -0.000000e+000
    outer loop
      vertex   -1.100000e+002 6.900000e+001 3.000000e+001
      vertex   -1.100000e+002 7.500000e+001 0.000000e+000
      vertex   -1.100000e+002 6.900000e+001 0.000000e+000
    endloop
  endfacet
  facet normal -1.052656e-015 -1.000000e+000 1.421085e-015
    outer loop
      vertex   -1.115000e+002 6.500000e+001 6.000000e+001
      vertex   -1.115000e+002 6.500000e+001 7.000000e+001
      vertex   -1.250000e+002 6.500000e+001 6.000000e+001
    endloop
  endfacet
  facet normal 0.000000e+000 -1.000000e+000 0.000000e+000
    outer loop
      vertex   -1.250000e+002 6.500000e+001 6.000000e+001
      vertex   -1.115000e+002 6.500000e+001 7.000000e+001
      vertex   -1.250000e+002 6.500000e+001 7.000000e+001
    endloop
  endfacet
  facet normal 0.000000e+000 0.000000e+000 1.000000e+000
    outer loop
      vertex   -1.200000e+002 7.500000e+001 7.000000e+001
      vertex   -1.250000e+002 7.500000e+001 7.000000e+001
      vertex   -1.200000e+002 6.900000e+001 7.000000e+001
    endloop
  endfacet
  facet normal 0.000000e+000 0.000000e+000 1.000000e+000
    outer loop
      vertex   -1.200000e+002 6.900000e+001 7.000000e+001
      vertex   -1.250000e+002 7.500000e+001 7.000000e+001
      vertex   -1.250000e+002 6.500000e+001 7.000000e+001
    endloop
  endfacet
  facet normal 0.000000e+000 0.000000e+000 1.000000e+000
    outer loop
      vertex   -1.115000e+002 6.500000e+001 7.000000e+001
      vertex   -1.200000e+002 6.900000e+001 7.000000e+001
      vertex   -1.250000e+002 6.500000e+001 7.000000e+001
    endloop
  endfacet
  facet normal 0.000000e+000 -0.000000e+000 1.000000e+000
    outer loop
      vertex   -1.115000e+002 6.500000e+001 7.000000e+001
      vertex   -1.115000e+002 6.900000e+001 7.000000e+001
      vertex   -1.200000e+002 6.900000e+001 7.000000e+001
    endloop
  endfacet
  facet normal 0.000000e+000 -1.000000e+000 0.000000e+000
    outer loop
      vertex   -1.200000e+002 6.100000e+001 6.000000e+001
      vertex   -1.200000e+002 6.100000e+001 3.000000e+001
      vertex   -1.100000e+002 6.100000e+001 6.000000e+001
    endloop
  endfacet
  facet normal 0.000000e+000 -1.000000e+000 -0.000000e+000
    outer loop
      vertex   -1.100000e+002 6.100000e+001 6.000000e+001
      vertex   -1.200000e+002 6.100000e+001 3.000000e+001
      vertex   -1.100000e+002 6.100000e+001 3.000000e+001
    endloop
  endfacet
  facet normal -0.000000e+000 -1.000000e+000 -0.000000e+000
    outer loop
      vertex   -1.100000e+002 6.100000e+001 3.000000e+001
      vertex   -1.200000e+002 6.100000e+001 3.000000e+001
      vertex   -1.200000e+002 6.100000e+001 0.000000e+000
    endloop
  endfacet
  facet normal -0.000000e+000 -1.000000e+000 0.000000e+000
    outer loop
      vertex   -1.100000e+002 6.100000e+001 0.000000e+000
      vertex   -1.100000e+002 6.100000e+001 3.000000e+001
      vertex   -1.200000e+002 6.100000e+001 0.000000e+000
    endloop
  endfacet
  facet normal -1.000000e+000 -0.000000e+000 -0.000000e+000
    outer loop
      vertex   -1.100000e+002 6.100000e+001 6.000000e+001
      vertex   -1.100000e+002 6.100000e+001 3.000000e+001
      vertex   -1.100000e+002 5.500000e+001 6.000000e+001
    endloop
  endfacet
  facet normal -1.000000e+000 -0.000000e+000 -0.000000e+000
    outer loop
      vertex   -1.100000e+002 5.500000e+001 6.000000e+001
      vertex   -1.100000e+002 6.100000e+001 3.000000e+001
      vertex   -1.100000e+002 5.500000e+001 3.000000e+001
    endloop
  endfacet
  facet normal -1.000000e+000 0.000000e+000 0.000000e+000
    outer loop
      vertex   -1.100000e+002 5.500000e+001 3.000000e+001
      vertex   -1.100000e+002 6.100000e+001 3.000000e+001
      vertex   -1.100000e+002 6.100000e+001 0.000000e+000
    endloop
  endfacet
  facet normal -1.000000e+000 0.000000e+000 0.000000e+000
    outer loop
      vertex   -1.100000e+002 5.500000e+001 0.000000e+000
      vertex   -1.100000e+002 5.500000e+001 3.000000e+001
      vertex   -1.100000e+002 6.100000e+001 0.000000e+000
    endloop
  endfacet
  facet normal 1.000000e+000 -0.000000e+000 0.000000e+000
    outer loop
      vertex   -1.200000e+002 5.500000e+001 6.000000e+001
      vertex   -1.200000e+002 5.500000e+001 3.000000e+001
      vertex   -1.200000e+002 6.100000e+001 6.000000e+001
    endloop
  endfacet
  facet normal 1.000000e+000 -0.000000e+000 0.000000e+000
    outer loop
      vertex   -1.200000e+002 6.100000e+001 6.000000e+001
      vertex   -1.200000e+002 5.500000e+001 3.000000e+001
      vertex   -1.200000e+002 6.100000e+001 3.000000e+001
    endloop
  endfacet
  facet normal 1.000000e+000 0.000000e+000 0.000000e+000
    outer loop
      vertex   -1.200000e+002 6.100000e+001 3.000000e+001
      vertex   -1.200000e+002 5.500000e+001 3.000000e+001
      vertex   -1.200000e+002 5.500000e+001 0.000000e+000
    endloop
  endfacet
  facet normal 1.000000e+000 0.000000e+000 -0.000000e+000
    outer loop
      vertex   -1.200000e+002 6.100000e+001 0.000000e+000
      vertex   -1.200000e+002 6.100000e+001 3.000000e+001
      vertex   -1.200000e+002 5.500000e+001 0.000000e+000
    endloop
  endfacet
  facet normal 0.000000e+000 0.000000e+000 1.000000e+000
    outer loop
      vertex   -1.100000e+002 6.900000e+001 6.000000e+001
      vertex   -1.115000e+002 6.900000e+001 6.000000e+001
      vertex   -1.100000e+002 6.500000e+001 6.000000e+001
    endloop
  endfacet
  facet normal 0.000000e+000 0.000000e+000 1.000000e+000
    outer loop
      vertex   -1.100000e+002 6.500000e+001 6.000000e+001
      vertex   -1.115000e+002 6.900000e+001 6.000000e+001
      vertex   -1.115000e+002 6.500000e+001 6.000000e+001
    endloop
  endfacet
  facet normal 0.000000e+000 0.000000e+000 1.000000e+000
    outer loop
      vertex   -1.100000e+002 6.100000e+001 6.000000e+001
      vertex   -1.115000e+002 6.500000e+001 6.000000e+001
      vertex   -1.200000e+002 6.100000e+001 6.000000e+001
    endloop
  endfacet
  facet normal 0.000000e+000 -0.000000e+000 1.000000e+000
    outer loop
      vertex   -1.100000e+002 6.100000e+001 6.000000e+001
      vertex   -1.100000e+002 6.500000e+001 6.000000e+001
      vertex   -1.115000e+002 6.500000e+001 6.000000e+001
    endloop
  endfacet
  facet normal 0.000000e+000 -0.000000e+000 1.000000e+000
    outer loop
      vertex   -1.100000e+002 6.100000e+001 6.000000e+001
      vertex   -1.050000e+002 6.500000e+001 6.000000e+001
      vertex   -1.100000e+002 6.500000e+001 6.000000e+001
    endloop
  endfacet
  facet normal -0.000000e+000 0.000000e+000 1.000000e+000
    outer loop
      vertex   -1.100000e+002 6.100000e+001 6.000000e+001
      vertex   -1.050000e+002 5.500000e+001 6.000000e+001
      vertex   -1.050000e+002 6.500000e+001 6.000000e+001
    endloop
  endfacet
  facet normal -0.000000e+000 0.000000e+000 1.000000e+000
    outer loop
      vertex   -1.100000e+002 6.100000e+001 6.000000e+001
      vertex   -1.100000e+002 5.500000e+001 6.000000e+001
      vertex   -1.050000e+002 5.500000e+001 6.000000e+001
    endloop
  endfacet
  facet normal 0.000000e+000 0.000000e+000 1.000000e+000
    outer loop
      vertex   -1.115000e+002 6.500000e+001 6.000000e+001
      vertex   -1.250000e+002 6.500000e+001 6.000000e+001
      vertex   -1.200000e+002 6.100000e+001 6.000000e+001
    endloop
  endfacet
  facet normal 0.000000e+000 0.000000e+000 1.000000e+000
    outer loop
      vertex   -1.200000e+002 6.100000e+001 6.000000e+001
      vertex   -1.250000e+002 6.500000e+001 6.000000e+001
      vertex   -1.250000e+002 5.500000e+001 6.000000e+001
    endloop
  endfacet
  facet normal 0.000000e+000 -0.000000e+000 1.000000e+000
    outer loop
      vertex   -1.200000e+002 5.500000e+001 6.000000e+001
      vertex   -1.200000e+002 6.100000e+001 6.000000e+001
      vertex   -1.250000e+002 5.500000e+001 6.000000e+001
    endloop
  endfacet
  facet normal 0.000000e+000 -1.000000e+000 0.000000e+000
    outer loop
      vertex   -1.100000e+002 5.500000e+001 6.000000e+001
      vertex   -1.100000e+002 5.500000e+001 3.000000e+001
      vertex   -1.050000e+002 5.500000e+001 6.000000e+001
    endloop
  endfacet
  facet normal 0.000000e+000 -1.000000e+000 -0.000000e+000
    outer loop
      vertex   -1.050000e+002 5.500000e+001 6.000000e+001
      vertex   -1.100000e+002 5.500000e+001 3.000000e+001
      vertex   -1.050000e+002 5.500000e+001 3.000000e+001
    endloop
  endfacet
  facet normal -0.000000e+000 -1.000000e+000 -0.000000e+000
    outer loop
      vertex   -1.050000e+002 5.500000e+001 3.000000e+001
      vertex   -1.100000e+002 5.500000e+001 3.000000e+001
      vertex   -1.100000e+002 5.500000e+001 0.000000e+000
    endloop
  endfacet
  facet normal -0.000000e+000 -1.000000e+000 0.000000e+000
    outer loop
      vertex   -1.050000e+002 5.500000e+001 0.000000e+000
      vertex   -1.050000e+002 5.500000e+001 3.000000e+001
      vertex   -1.100000e+002 5.500000e+001 0.000000e+000
    endloop
  endfacet
  facet normal 2.842171e-015 -1.000000e+000 0.000000e+000
    outer loop
      vertex   -1.100000e+002 6.500000e+001 7.000000e+001
      vertex   -1.100000e+002 6.500000e+001 6.000000e+001
      vertex   -1.050000e+002 6.500000e+001 7.000000e+001
    endloop
  endfacet
  facet normal 2.842171e-015 -1.000000e+000 0.000000e+000
    outer loop
      vertex   -1.050000e+002 6.500000e+001 7.000000e+001
      vertex   -1.100000e+002 6.500000e+001 6.000000e+001
      vertex   -1.050000e+002 6.500000e+001 6.000000e+001
    endloop
  endfacet
  facet normal -0.000000e+000 -1.000000e+000 0.000000e+000
    outer loop
      vertex   -1.200000e+002 5.500000e+001 0.000000e+000
      vertex   -1.200000e+002 5.500000e+001 3.000000e+001
      vertex   -1.250000e+002 5.500000e+001 0.000000e+000
    endloop
  endfacet
  facet normal 0.000000e+000 -1.000000e+000 0.000000e+000
    outer loop
      vertex   -1.250000e+002 5.500000e+001 0.000000e+000
      vertex   -1.200000e+002 5.500000e+001 3.000000e+001
      vertex   -1.250000e+002 5.500000e+001 3.000000e+001
    endloop
  endfacet
  facet normal 0.000000e+000 -1.000000e+000 0.000000e+000
    outer loop
      vertex   -1.250000e+002 5.500000e+001 3.000000e+001
      vertex   -1.200000e+002 5.500000e+001 3.000000e+001
      vertex   -1.200000e+002 5.500000e+001 6.000000e+001
    endloop
  endfacet
  facet normal 0.000000e+000 -1.000000e+000 0.000000e+000
    outer loop
      vertex   -1.250000e+002 5.500000e+001 6.000000e+001
      vertex   -1.250000e+002 5.500000e+001 3.000000e+001
      vertex   -1.200000e+002 5.500000e+001 6.000000e+001
    endloop
  endfacet
  facet normal 0.000000e+000 -0.000000e+000 1.000000e+000
    outer loop
      vertex   -1.100000e+002 6.500000e+001 7.000000e+001
      vertex   -1.050000e+002 6.500000e+001 7.000000e+001
      vertex   -1.100000e+002 7.500000e+001 7.000000e+001
    endloop
  endfacet
  facet normal -0.000000e+000 0.000000e+000 1.000000e+000
    outer loop
      vertex   -1.100000e+002 7.500000e+001 7.000000e+001
      vertex   -1.050000e+002 6.500000e+001 7.000000e+001
      vertex   -1.050000e+002 7.500000e+001 7.000000e+001
    endloop
  endfacet
  facet normal -1.000000e+000 0.000000e+000 -0.000000e+000
    outer loop
      vertex   -1.250000e+002 6.500000e+001 7.000000e+001
      vertex   -1.250000e+002 7.500000e+001 7.000000e+001
      vertex   -1.250000e+002 6.500000e+001 6.000000e+001
    endloop
  endfacet
  facet normal -1.000000e+000 0.000000e+000 0.000000e+000
    outer loop
      vertex   -1.250000e+002 6.500000e+001 6.000000e+001
      vertex   -1.250000e+002 7.500000e+001 7.000000e+001
      vertex   -1.250000e+002 7.500000e+001 3.500000e+001
    endloop
  endfacet
  facet normal -1.000000e+000 0.000000e+000 0.000000e+000
    outer loop
      vertex   -1.250000e+002 5.500000e+001 3.000000e+001
      vertex   -1.250000e+002 7.500000e+001 3.500000e+001
      vertex   -1.250000e+002 7.500000e+001 0.000000e+000
    endloop
  endfacet
  facet normal -1.000000e+000 0.000000e+000 0.000000e+000
    outer loop
      vertex   -1.250000e+002 5.500000e+001 0.000000e+000
      vertex   -1.250000e+002 5.500000e+001 3.000000e+001
      vertex   -1.250000e+002 7.500000e+001 0.000000e+000
    endloop
  endfacet
  facet normal -1.000000e+000 0.000000e+000 -0.000000e+000
    outer loop
      vertex   -1.250000e+002 6.500000e+001 6.000000e+001
      vertex   -1.250000e+002 7.500000e+001 3.500000e+001
      vertex   -1.250000e+002 5.500000e+001 3.000000e+001
    endloop
  endfacet
  facet normal -1.000000e+000 0.000000e+000 -0.000000e+000
    outer loop
      vertex   -1.250000e+002 5.500000e+001 6.000000e+001
      vertex   -1.250000e+002 6.500000e+001 6.000000e+001
      vertex   -1.250000e+002 5.500000e+001 3.000000e+001
    endloop
  endfacet
  facet normal 1.000000e+000 -0.000000e+000 0.000000e+000
    outer loop
      vertex   -1.050000e+002 5.500000e+001 6.000000e+001
      vertex   -1.050000e+002 5.500000e+001 3.000000e+001
      vertex   -1.050000e+002 6.500000e+001 6.000000e+001
    endloop
  endfacet
  facet normal 1.000000e+000 -0.000000e+000 0.000000e+000
    outer loop
      vertex   -1.050000e+002 6.500000e+001 6.000000e+001
      vertex   -1.050000e+002 5.500000e+001 3.000000e+001
      vertex   -1.050000e+002 7.500000e+001 3.500000e+001
    endloop
  endfacet
  facet normal 1.000000e+000 0.000000e+000 0.000000e+000
    outer loop
      vertex   -1.050000e+002 7.500000e+001 7.000000e+001
      vertex   -1.050000e+002 6.500000e+001 6.000000e+001
      vertex   -1.050000e+002 7.500000e+001 3.500000e+001
    endloop
  endfacet
  facet normal 1.000000e+000 0.000000e+000 0.000000e+000
    outer loop
      vertex   -1.050000e+002 7.500000e+001 7.000000e+001
      vertex   -1.050000e+002 6.500000e+001 7.000000e+001
      vertex   -1.050000e+002 6.500000e+001 6.000000e+001
    endloop
  endfacet
  facet normal 1.000000e+000 0.000000e+000 -0.000000e+000
    outer loop
      vertex   -1.050000e+002 5.500000e+001 0.000000e+000
      vertex   -1.050000e+002 7.500000e+001 0.000000e+000
      vertex   -1.050000e+002 5.500000e+001 3.000000e+001
    endloop
  endfacet
  facet normal 1.000000e+000 -0.000000e+000 0.000000e+000
    outer loop
      vertex   -1.050000e+002 5.500000e+001 3.000000e+001
      vertex   -1.050000e+002 7.500000e+001 0.000000e+000
      vertex   -1.050000e+002 7.500000e+001 3.500000e+001
    endloop
  endfacet
endsolid
