solid ascii
  facet normal -0.000000e+000 1.000000e+000 0.000000e+000
    outer loop
      vertex   -2.750000e+001 4.250000e+001 2.250000e+001
      vertex   -2.750000e+001 4.250000e+001 6.250000e+001
      vertex   -2.500000e+001 4.250000e+001 2.250000e+001
    endloop
  endfacet
  facet normal 0.000000e+000 1.000000e+000 -0.000000e+000
    outer loop
      vertex   -2.500000e+001 4.250000e+001 2.250000e+001
      vertex   -2.750000e+001 4.250000e+001 6.250000e+001
      vertex   -2.500000e+001 4.250000e+001 6.250000e+001
    endloop
  endfacet
  facet normal 0.000000e+000 1.000000e+000 0.000000e+000
    outer loop
      vertex   -3.250000e+001 4.250000e+001 6.250000e+001
      vertex   -3.250000e+001 4.250000e+001 2.250000e+001
      vertex   -3.500000e+001 4.250000e+001 6.250000e+001
    endloop
  endfacet
  facet normal 0.000000e+000 1.000000e+000 0.000000e+000
    outer loop
      vertex   -3.500000e+001 4.250000e+001 6.250000e+001
      vertex   -3.250000e+001 4.250000e+001 2.250000e+001
      vertex   -3.500000e+001 4.250000e+001 2.250000e+001
    endloop
  endfacet
  facet normal 0.000000e+000 -1.000000e+000 0.000000e+000
    outer loop
      vertex   -2.750000e+001 1.025000e+002 6.250000e+001
      vertex   -2.750000e+001 1.025000e+002 2.250000e+001
      vertex   -2.500000e+001 1.025000e+002 6.250000e+001
    endloop
  endfacet
  facet normal 0.000000e+000 -1.000000e+000 -0.000000e+000
    outer loop
      vertex   -2.500000e+001 1.025000e+002 6.250000e+001
      vertex   -2.750000e+001 1.025000e+002 2.250000e+001
      vertex   -2.500000e+001 1.025000e+002 2.250000e+001
    endloop
  endfacet
  facet normal 0.000000e+000 0.000000e+000 1.000000e+000
    outer loop
      vertex   -2.500000e+001 1.025000e+002 2.250000e+001
      vertex   -2.750000e+001 1.025000e+002 2.250000e+001
      vertex   -2.500000e+001 7.250000e+001 2.250000e+001
    endloop
  endfacet
  facet normal 0.000000e+000 0.000000e+000 1.000000e+000
    outer loop
      vertex   -2.500000e+001 7.250000e+001 2.250000e+001
      vertex   -2.750000e+001 1.025000e+002 2.250000e+001
      vertex   -2.750000e+001 7.250000e+001 2.250000e+001
    endloop
  endfacet
  facet normal 0.000000e+000 0.000000e+000 1.000000e+000
    outer loop
      vertex   -2.500000e+001 4.250000e+001 2.250000e+001
      vertex   -2.750000e+001 7.250000e+001 2.250000e+001
      vertex   -2.750000e+001 4.250000e+001 2.250000e+001
    endloop
  endfacet
  facet normal 0.000000e+000 -0.000000e+000 1.000000e+000
    outer loop
      vertex   -2.500000e+001 4.250000e+001 2.250000e+001
      vertex   -2.500000e+001 7.250000e+001 2.250000e+001
      vertex   -2.750000e+001 7.250000e+001 2.250000e+001
    endloop
  endfacet
  facet normal 0.000000e+000 -0.000000e+000 1.000000e+000
    outer loop
      vertex   -3.500000e+001 4.250000e+001 2.250000e+001
      vertex   -3.250000e+001 4.250000e+001 2.250000e+001
      vertex   -3.500000e+001 7.250000e+001 2.250000e+001
    endloop
  endfacet
  facet normal -0.000000e+000 0.000000e+000 1.000000e+000
    outer loop
      vertex   -3.500000e+001 7.250000e+001 2.250000e+001
      vertex   -3.250000e+001 4.250000e+001 2.250000e+001
      vertex   -3.250000e+001 7.250000e+001 2.250000e+001
    endloop
  endfacet
  facet normal -0.000000e+000 0.000000e+000 1.000000e+000
    outer loop
      vertex   -3.500000e+001 1.025000e+002 2.250000e+001
      vertex   -3.250000e+001 7.250000e+001 2.250000e+001
      vertex   -3.250000e+001 1.025000e+002 2.250000e+001
    endloop
  endfacet
  facet normal -0.000000e+000 0.000000e+000 1.000000e+000
    outer loop
      vertex   -3.500000e+001 1.025000e+002 2.250000e+001
      vertex   -3.500000e+001 7.250000e+001 2.250000e+001
      vertex   -3.250000e+001 7.250000e+001 2.250000e+001
    endloop
  endfacet
  facet normal -0.000000e+000 -1.000000e+000 0.000000e+000
    outer loop
      vertex   -3.250000e+001 1.025000e+002 2.250000e+001
      vertex   -3.250000e+001 1.025000e+002 6.250000e+001
      vertex   -3.500000e+001 1.025000e+002 2.250000e+001
    endloop
  endfacet
  facet normal 0.000000e+000 -1.000000e+000 0.000000e+000
    outer loop
      vertex   -3.500000e+001 1.025000e+002 2.250000e+001
      vertex   -3.250000e+001 1.025000e+002 6.250000e+001
      vertex   -3.500000e+001 1.025000e+002 6.250000e+001
    endloop
  endfacet
  facet normal 1.000000e+000 0.000000e+000 0.000000e+000
    outer loop
      vertex   -3.250000e+001 1.175000e+002 6.250000e+001
      vertex   -3.250000e+001 1.025000e+002 6.250000e+001
      vertex   -3.250000e+001 1.175000e+002 3.250000e+001
    endloop
  endfacet
  facet normal 1.000000e+000 0.000000e+000 0.000000e+000
    outer loop
      vertex   -3.250000e+001 1.175000e+002 3.250000e+001
      vertex   -3.250000e+001 1.025000e+002 6.250000e+001
      vertex   -3.250000e+001 1.025000e+002 2.250000e+001
    endloop
  endfacet
  facet normal 1.000000e+000 0.000000e+000 0.000000e+000
    outer loop
      vertex   -3.250000e+001 1.175000e+002 2.500000e+000
      vertex   -3.250000e+001 1.025000e+002 2.250000e+001
      vertex   -3.250000e+001 7.250000e+001 2.500000e+000
    endloop
  endfacet
  facet normal 1.000000e+000 0.000000e+000 -0.000000e+000
    outer loop
      vertex   -3.250000e+001 1.175000e+002 2.500000e+000
      vertex   -3.250000e+001 1.175000e+002 3.250000e+001
      vertex   -3.250000e+001 1.025000e+002 2.250000e+001
    endloop
  endfacet
  facet normal 1.000000e+000 0.000000e+000 0.000000e+000
    outer loop
      vertex   -3.250000e+001 1.025000e+002 2.250000e+001
      vertex   -3.250000e+001 7.250000e+001 2.250000e+001
      vertex   -3.250000e+001 7.250000e+001 2.500000e+000
    endloop
  endfacet
  facet normal 1.000000e+000 0.000000e+000 -0.000000e+000
    outer loop
      vertex   -3.250000e+001 7.250000e+001 2.500000e+000
      vertex   -3.250000e+001 7.250000e+001 2.250000e+001
      vertex   -3.250000e+001 4.250000e+001 2.250000e+001
    endloop
  endfacet
  facet normal 1.000000e+000 0.000000e+000 -0.000000e+000
    outer loop
      vertex   -3.250000e+001 2.750000e+001 2.500000e+000
      vertex   -3.250000e+001 4.250000e+001 2.250000e+001
      vertex   -3.250000e+001 2.750000e+001 3.250000e+001
    endloop
  endfacet
  facet normal 1.000000e+000 0.000000e+000 -0.000000e+000
    outer loop
      vertex   -3.250000e+001 2.750000e+001 2.500000e+000
      vertex   -3.250000e+001 7.250000e+001 2.500000e+000
      vertex   -3.250000e+001 4.250000e+001 2.250000e+001
    endloop
  endfacet
  facet normal 1.000000e+000 0.000000e+000 -0.000000e+000
    outer loop
      vertex   -3.250000e+001 4.250000e+001 2.250000e+001
      vertex   -3.250000e+001 4.250000e+001 6.250000e+001
      vertex   -3.250000e+001 2.750000e+001 3.250000e+001
    endloop
  endfacet
  facet normal 1.000000e+000 0.000000e+000 -0.000000e+000
    outer loop
      vertex   -3.250000e+001 2.750000e+001 3.250000e+001
      vertex   -3.250000e+001 4.250000e+001 6.250000e+001
      vertex   -3.250000e+001 2.750000e+001 6.250000e+001
    endloop
  endfacet
  facet normal 0.000000e+000 0.000000e+000 1.000000e+000
    outer loop
      vertex   -3.250000e+001 4.250000e+001 6.250000e+001
      vertex   -3.500000e+001 4.250000e+001 6.250000e+001
      vertex   -3.250000e+001 2.750000e+001 6.250000e+001
    endloop
  endfacet
  facet normal 0.000000e+000 0.000000e+000 1.000000e+000
    outer loop
      vertex   -3.250000e+001 2.750000e+001 6.250000e+001
      vertex   -3.500000e+001 4.250000e+001 6.250000e+001
      vertex   -3.500000e+001 2.500000e+001 6.250000e+001
    endloop
  endfacet
  facet normal 0.000000e+000 0.000000e+000 1.000000e+000
    outer loop
      vertex   -2.500000e+001 2.500000e+001 6.250000e+001
      vertex   -3.250000e+001 2.750000e+001 6.250000e+001
      vertex   -3.500000e+001 2.500000e+001 6.250000e+001
    endloop
  endfacet
  facet normal 0.000000e+000 0.000000e+000 1.000000e+000
    outer loop
      vertex   -2.500000e+001 2.500000e+001 6.250000e+001
      vertex   -2.750000e+001 2.750000e+001 6.250000e+001
      vertex   -3.250000e+001 2.750000e+001 6.250000e+001
    endloop
  endfacet
  facet normal 0.000000e+000 -0.000000e+000 1.000000e+000
    outer loop
      vertex   -2.500000e+001 2.500000e+001 6.250000e+001
      vertex   -2.500000e+001 4.250000e+001 6.250000e+001
      vertex   -2.750000e+001 2.750000e+001 6.250000e+001
    endloop
  endfacet
  facet normal 0.000000e+000 -0.000000e+000 1.000000e+000
    outer loop
      vertex   -2.750000e+001 2.750000e+001 6.250000e+001
      vertex   -2.500000e+001 4.250000e+001 6.250000e+001
      vertex   -2.750000e+001 4.250000e+001 6.250000e+001
    endloop
  endfacet
  facet normal -1.000000e+000 0.000000e+000 -0.000000e+000
    outer loop
      vertex   -2.750000e+001 2.750000e+001 6.250000e+001
      vertex   -2.750000e+001 4.250000e+001 6.250000e+001
      vertex   -2.750000e+001 2.750000e+001 3.250000e+001
    endloop
  endfacet
  facet normal -1.000000e+000 0.000000e+000 0.000000e+000
    outer loop
      vertex   -2.750000e+001 2.750000e+001 3.250000e+001
      vertex   -2.750000e+001 4.250000e+001 6.250000e+001
      vertex   -2.750000e+001 4.250000e+001 2.250000e+001
    endloop
  endfacet
  facet normal -1.000000e+000 0.000000e+000 0.000000e+000
    outer loop
      vertex   -2.750000e+001 2.750000e+001 2.500000e+000
      vertex   -2.750000e+001 4.250000e+001 2.250000e+001
      vertex   -2.750000e+001 7.250000e+001 2.500000e+000
    endloop
  endfacet
  facet normal -1.000000e+000 0.000000e+000 0.000000e+000
    outer loop
      vertex   -2.750000e+001 2.750000e+001 2.500000e+000
      vertex   -2.750000e+001 2.750000e+001 3.250000e+001
      vertex   -2.750000e+001 4.250000e+001 2.250000e+001
    endloop
  endfacet
  facet normal -1.000000e+000 0.000000e+000 0.000000e+000
    outer loop
      vertex   -2.750000e+001 4.250000e+001 2.250000e+001
      vertex   -2.750000e+001 7.250000e+001 2.250000e+001
      vertex   -2.750000e+001 7.250000e+001 2.500000e+000
    endloop
  endfacet
  facet normal -1.000000e+000 0.000000e+000 0.000000e+000
    outer loop
      vertex   -2.750000e+001 7.250000e+001 2.500000e+000
      vertex   -2.750000e+001 7.250000e+001 2.250000e+001
      vertex   -2.750000e+001 1.025000e+002 2.250000e+001
    endloop
  endfacet
  facet normal -1.000000e+000 0.000000e+000 0.000000e+000
    outer loop
      vertex   -2.750000e+001 1.175000e+002 2.500000e+000
      vertex   -2.750000e+001 1.025000e+002 2.250000e+001
      vertex   -2.750000e+001 1.175000e+002 3.250000e+001
    endloop
  endfacet
  facet normal -1.000000e+000 0.000000e+000 0.000000e+000
    outer loop
      vertex   -2.750000e+001 1.175000e+002 2.500000e+000
      vertex   -2.750000e+001 7.250000e+001 2.500000e+000
      vertex   -2.750000e+001 1.025000e+002 2.250000e+001
    endloop
  endfacet
  facet normal -1.000000e+000 0.000000e+000 0.000000e+000
    outer loop
      vertex   -2.750000e+001 1.025000e+002 2.250000e+001
      vertex   -2.750000e+001 1.025000e+002 6.250000e+001
      vertex   -2.750000e+001 1.175000e+002 3.250000e+001
    endloop
  endfacet
  facet normal -1.000000e+000 0.000000e+000 0.000000e+000
    outer loop
      vertex   -2.750000e+001 1.175000e+002 3.250000e+001
      vertex   -2.750000e+001 1.025000e+002 6.250000e+001
      vertex   -2.750000e+001 1.175000e+002 6.250000e+001
    endloop
  endfacet
  facet normal 0.000000e+000 1.000000e+000 0.000000e+000
    outer loop
      vertex   -2.750000e+001 2.750000e+001 6.250000e+001
      vertex   -2.750000e+001 2.750000e+001 3.250000e+001
      vertex   -3.250000e+001 2.750000e+001 6.250000e+001
    endloop
  endfacet
  facet normal 0.000000e+000 1.000000e+000 0.000000e+000
    outer loop
      vertex   -3.250000e+001 2.750000e+001 6.250000e+001
      vertex   -2.750000e+001 2.750000e+001 3.250000e+001
      vertex   -3.250000e+001 2.750000e+001 3.250000e+001
    endloop
  endfacet
  facet normal -0.000000e+000 1.000000e+000 0.000000e+000
    outer loop
      vertex   -3.250000e+001 2.750000e+001 3.250000e+001
      vertex   -2.750000e+001 2.750000e+001 3.250000e+001
      vertex   -2.750000e+001 2.750000e+001 2.500000e+000
    endloop
  endfacet
  facet normal -0.000000e+000 1.000000e+000 0.000000e+000
    outer loop
      vertex   -3.250000e+001 2.750000e+001 2.500000e+000
      vertex   -3.250000e+001 2.750000e+001 3.250000e+001
      vertex   -2.750000e+001 2.750000e+001 2.500000e+000
    endloop
  endfacet
  facet normal 0.000000e+000 -1.000000e+000 0.000000e+000
    outer loop
      vertex   -3.250000e+001 1.175000e+002 6.250000e+001
      vertex   -3.250000e+001 1.175000e+002 3.250000e+001
      vertex   -2.750000e+001 1.175000e+002 6.250000e+001
    endloop
  endfacet
  facet normal 0.000000e+000 -1.000000e+000 -0.000000e+000
    outer loop
      vertex   -2.750000e+001 1.175000e+002 6.250000e+001
      vertex   -3.250000e+001 1.175000e+002 3.250000e+001
      vertex   -2.750000e+001 1.175000e+002 3.250000e+001
    endloop
  endfacet
  facet normal -0.000000e+000 -1.000000e+000 -0.000000e+000
    outer loop
      vertex   -2.750000e+001 1.175000e+002 3.250000e+001
      vertex   -3.250000e+001 1.175000e+002 3.250000e+001
      vertex   -3.250000e+001 1.175000e+002 2.500000e+000
    endloop
  endfacet
  facet normal -0.000000e+000 -1.000000e+000 0.000000e+000
    outer loop
      vertex   -2.750000e+001 1.175000e+002 2.500000e+000
      vertex   -2.750000e+001 1.175000e+002 3.250000e+001
      vertex   -3.250000e+001 1.175000e+002 2.500000e+000
    endloop
  endfacet
  facet normal 0.000000e+000 -0.000000e+000 1.000000e+000
    outer loop
      vertex   -3.250000e+001 1.025000e+002 6.250000e+001
      vertex   -3.250000e+001 1.175000e+002 6.250000e+001
      vertex   -3.500000e+001 1.025000e+002 6.250000e+001
    endloop
  endfacet
  facet normal 0.000000e+000 -0.000000e+000 1.000000e+000
    outer loop
      vertex   -3.500000e+001 1.025000e+002 6.250000e+001
      vertex   -3.250000e+001 1.175000e+002 6.250000e+001
      vertex   -3.500000e+001 1.200000e+002 6.250000e+001
    endloop
  endfacet
  facet normal -0.000000e+000 0.000000e+000 1.000000e+000
    outer loop
      vertex   -3.500000e+001 1.200000e+002 6.250000e+001
      vertex   -3.250000e+001 1.175000e+002 6.250000e+001
      vertex   -2.750000e+001 1.175000e+002 6.250000e+001
    endloop
  endfacet
  facet normal 0.000000e+000 0.000000e+000 1.000000e+000
    outer loop
      vertex   -2.500000e+001 1.200000e+002 6.250000e+001
      vertex   -2.750000e+001 1.175000e+002 6.250000e+001
      vertex   -2.500000e+001 1.025000e+002 6.250000e+001
    endloop
  endfacet
  facet normal 0.000000e+000 0.000000e+000 1.000000e+000
    outer loop
      vertex   -2.500000e+001 1.200000e+002 6.250000e+001
      vertex   -3.500000e+001 1.200000e+002 6.250000e+001
      vertex   -2.750000e+001 1.175000e+002 6.250000e+001
    endloop
  endfacet
  facet normal -0.000000e+000 0.000000e+000 1.000000e+000
    outer loop
      vertex   -2.750000e+001 1.175000e+002 6.250000e+001
      vertex   -2.750000e+001 1.025000e+002 6.250000e+001
      vertex   -2.500000e+001 1.025000e+002 6.250000e+001
    endloop
  endfacet
  facet normal 0.000000e+000 1.000000e+000 0.000000e+000
    outer loop
      vertex   -2.950000e+001 4.250000e+001 2.500000e+000
      vertex   -2.950000e+001 4.250000e+001 0.000000e+000
      vertex   -3.050000e+001 4.250000e+001 2.500000e+000
    endloop
  endfacet
  facet normal 0.000000e+000 1.000000e+000 0.000000e+000
    outer loop
      vertex   -3.050000e+001 4.250000e+001 2.500000e+000
      vertex   -2.950000e+001 4.250000e+001 0.000000e+000
      vertex   -3.050000e+001 4.250000e+001 0.000000e+000
    endloop
  endfacet
  facet normal 1.000000e+000 0.000000e+000 -0.000000e+000
    outer loop
      vertex   -3.050000e+001 1.025000e+002 0.000000e+000
      vertex   -3.050000e+001 1.025000e+002 2.500000e+000
      vertex   -3.050000e+001 7.250000e+001 0.000000e+000
    endloop
  endfacet
  facet normal 1.000000e+000 0.000000e+000 -0.000000e+000
    outer loop
      vertex   -3.050000e+001 7.250000e+001 0.000000e+000
      vertex   -3.050000e+001 1.025000e+002 2.500000e+000
      vertex   -3.050000e+001 7.250000e+001 2.500000e+000
    endloop
  endfacet
  facet normal 1.000000e+000 0.000000e+000 -0.000000e+000
    outer loop
      vertex   -3.050000e+001 4.250000e+001 0.000000e+000
      vertex   -3.050000e+001 7.250000e+001 2.500000e+000
      vertex   -3.050000e+001 4.250000e+001 2.500000e+000
    endloop
  endfacet
  facet normal 1.000000e+000 0.000000e+000 0.000000e+000
    outer loop
      vertex   -3.050000e+001 4.250000e+001 0.000000e+000
      vertex   -3.050000e+001 7.250000e+001 0.000000e+000
      vertex   -3.050000e+001 7.250000e+001 2.500000e+000
    endloop
  endfacet
  facet normal 0.000000e+000 -1.000000e+000 0.000000e+000
    outer loop
      vertex   -3.050000e+001 1.025000e+002 2.500000e+000
      vertex   -3.050000e+001 1.025000e+002 0.000000e+000
      vertex   -2.950000e+001 1.025000e+002 2.500000e+000
    endloop
  endfacet
  facet normal 0.000000e+000 -1.000000e+000 -0.000000e+000
    outer loop
      vertex   -2.950000e+001 1.025000e+002 2.500000e+000
      vertex   -3.050000e+001 1.025000e+002 0.000000e+000
      vertex   -2.950000e+001 1.025000e+002 0.000000e+000
    endloop
  endfacet
  facet normal -1.000000e+000 0.000000e+000 0.000000e+000
    outer loop
      vertex   -2.950000e+001 4.250000e+001 0.000000e+000
      vertex   -2.950000e+001 4.250000e+001 2.500000e+000
      vertex   -2.950000e+001 7.250000e+001 0.000000e+000
    endloop
  endfacet
  facet normal -1.000000e+000 0.000000e+000 0.000000e+000
    outer loop
      vertex   -2.950000e+001 7.250000e+001 0.000000e+000
      vertex   -2.950000e+001 4.250000e+001 2.500000e+000
      vertex   -2.950000e+001 7.250000e+001 2.500000e+000
    endloop
  endfacet
  facet normal -1.000000e+000 0.000000e+000 0.000000e+000
    outer loop
      vertex   -2.950000e+001 1.025000e+002 0.000000e+000
      vertex   -2.950000e+001 7.250000e+001 2.500000e+000
      vertex   -2.950000e+001 1.025000e+002 2.500000e+000
    endloop
  endfacet
  facet normal -1.000000e+000 0.000000e+000 0.000000e+000
    outer loop
      vertex   -2.950000e+001 1.025000e+002 0.000000e+000
      vertex   -2.950000e+001 7.250000e+001 0.000000e+000
      vertex   -2.950000e+001 7.250000e+001 2.500000e+000
    endloop
  endfacet
  facet normal 0.000000e+000 0.000000e+000 1.000000e+000
    outer loop
      vertex   -2.750000e+001 7.250000e+001 2.500000e+000
      vertex   -2.950000e+001 4.250000e+001 2.500000e+000
      vertex   -2.750000e+001 2.750000e+001 2.500000e+000
    endloop
  endfacet
  facet normal 0.000000e+000 0.000000e+000 1.000000e+000
    outer loop
      vertex   -2.750000e+001 7.250000e+001 2.500000e+000
      vertex   -2.950000e+001 7.250000e+001 2.500000e+000
      vertex   -2.950000e+001 4.250000e+001 2.500000e+000
    endloop
  endfacet
  facet normal 0.000000e+000 0.000000e+000 1.000000e+000
    outer loop
      vertex   -2.750000e+001 7.250000e+001 2.500000e+000
      vertex   -2.950000e+001 1.025000e+002 2.500000e+000
      vertex   -2.950000e+001 7.250000e+001 2.500000e+000
    endloop
  endfacet
  facet normal 0.000000e+000 -0.000000e+000 1.000000e+000
    outer loop
      vertex   -2.750000e+001 7.250000e+001 2.500000e+000
      vertex   -2.750000e+001 1.175000e+002 2.500000e+000
      vertex   -2.950000e+001 1.025000e+002 2.500000e+000
    endloop
  endfacet
  facet normal 0.000000e+000 -0.000000e+000 1.000000e+000
    outer loop
      vertex   -2.950000e+001 1.025000e+002 2.500000e+000
      vertex   -2.750000e+001 1.175000e+002 2.500000e+000
      vertex   -3.250000e+001 1.175000e+002 2.500000e+000
    endloop
  endfacet
  facet normal 0.000000e+000 0.000000e+000 1.000000e+000
    outer loop
      vertex   -3.050000e+001 1.025000e+002 2.500000e+000
      vertex   -3.250000e+001 1.175000e+002 2.500000e+000
      vertex   -3.250000e+001 7.250000e+001 2.500000e+000
    endloop
  endfacet
  facet normal 0.000000e+000 0.000000e+000 1.000000e+000
    outer loop
      vertex   -3.050000e+001 7.250000e+001 2.500000e+000
      vertex   -3.250000e+001 7.250000e+001 2.500000e+000
      vertex   -3.050000e+001 4.250000e+001 2.500000e+000
    endloop
  endfacet
  facet normal 0.000000e+000 -0.000000e+000 1.000000e+000
    outer loop
      vertex   -3.050000e+001 7.250000e+001 2.500000e+000
      vertex   -3.050000e+001 1.025000e+002 2.500000e+000
      vertex   -3.250000e+001 7.250000e+001 2.500000e+000
    endloop
  endfacet
  facet normal 0.000000e+000 0.000000e+000 1.000000e+000
    outer loop
      vertex   -2.950000e+001 1.025000e+002 2.500000e+000
      vertex   -3.250000e+001 1.175000e+002 2.500000e+000
      vertex   -3.050000e+001 1.025000e+002 2.500000e+000
    endloop
  endfacet
  facet normal -0.000000e+000 0.000000e+000 1.000000e+000
    outer loop
      vertex   -3.250000e+001 7.250000e+001 2.500000e+000
      vertex   -3.250000e+001 2.750000e+001 2.500000e+000
      vertex   -3.050000e+001 4.250000e+001 2.500000e+000
    endloop
  endfacet
  facet normal -0.000000e+000 0.000000e+000 1.000000e+000
    outer loop
      vertex   -3.050000e+001 4.250000e+001 2.500000e+000
      vertex   -3.250000e+001 2.750000e+001 2.500000e+000
      vertex   -2.750000e+001 2.750000e+001 2.500000e+000
    endloop
  endfacet
  facet normal 0.000000e+000 0.000000e+000 1.000000e+000
    outer loop
      vertex   -2.950000e+001 4.250000e+001 2.500000e+000
      vertex   -3.050000e+001 4.250000e+001 2.500000e+000
      vertex   -2.750000e+001 2.750000e+001 2.500000e+000
    endloop
  endfacet
  facet normal 0.000000e+000 -0.000000e+000 -1.000000e+000
    outer loop
      vertex   -3.050000e+001 1.025000e+002 0.000000e+000
      vertex   -2.500000e+001 1.200000e+002 0.000000e+000
      vertex   -2.950000e+001 1.025000e+002 0.000000e+000
    endloop
  endfacet
  facet normal 0.000000e+000 0.000000e+000 -1.000000e+000
    outer loop
      vertex   -3.050000e+001 1.025000e+002 0.000000e+000
      vertex   -3.500000e+001 1.200000e+002 0.000000e+000
      vertex   -2.500000e+001 1.200000e+002 0.000000e+000
    endloop
  endfacet
  facet normal -0.000000e+000 0.000000e+000 -1.000000e+000
    outer loop
      vertex   -3.050000e+001 1.025000e+002 0.000000e+000
      vertex   -3.500000e+001 7.250000e+001 0.000000e+000
      vertex   -3.500000e+001 1.200000e+002 0.000000e+000
    endloop
  endfacet
  facet normal -0.000000e+000 -0.000000e+000 -1.000000e+000
    outer loop
      vertex   -3.050000e+001 1.025000e+002 0.000000e+000
      vertex   -3.050000e+001 7.250000e+001 0.000000e+000
      vertex   -3.500000e+001 7.250000e+001 0.000000e+000
    endloop
  endfacet
  facet normal 0.000000e+000 0.000000e+000 -1.000000e+000
    outer loop
      vertex   -3.500000e+001 7.250000e+001 0.000000e+000
      vertex   -3.050000e+001 7.250000e+001 0.000000e+000
      vertex   -3.050000e+001 4.250000e+001 0.000000e+000
    endloop
  endfacet
  facet normal 0.000000e+000 0.000000e+000 -1.000000e+000
    outer loop
      vertex   -3.500000e+001 2.500000e+001 0.000000e+000
      vertex   -3.050000e+001 4.250000e+001 0.000000e+000
      vertex   -2.950000e+001 4.250000e+001 0.000000e+000
    endloop
  endfacet
  facet normal 0.000000e+000 0.000000e+000 -1.000000e+000
    outer loop
      vertex   -2.500000e+001 2.500000e+001 0.000000e+000
      vertex   -2.950000e+001 4.250000e+001 0.000000e+000
      vertex   -2.500000e+001 7.250000e+001 0.000000e+000
    endloop
  endfacet
  facet normal 0.000000e+000 0.000000e+000 -1.000000e+000
    outer loop
      vertex   -2.500000e+001 2.500000e+001 0.000000e+000
      vertex   -3.500000e+001 2.500000e+001 0.000000e+000
      vertex   -2.950000e+001 4.250000e+001 0.000000e+000
    endloop
  endfacet
  facet normal 0.000000e+000 -0.000000e+000 -1.000000e+000
    outer loop
      vertex   -3.500000e+001 7.250000e+001 0.000000e+000
      vertex   -3.050000e+001 4.250000e+001 0.000000e+000
      vertex   -3.500000e+001 2.500000e+001 0.000000e+000
    endloop
  endfacet
  facet normal 0.000000e+000 0.000000e+000 -1.000000e+000
    outer loop
      vertex   -2.950000e+001 4.250000e+001 0.000000e+000
      vertex   -2.950000e+001 7.250000e+001 0.000000e+000
      vertex   -2.500000e+001 7.250000e+001 0.000000e+000
    endloop
  endfacet
  facet normal 0.000000e+000 0.000000e+000 -1.000000e+000
    outer loop
      vertex   -2.500000e+001 7.250000e+001 0.000000e+000
      vertex   -2.950000e+001 7.250000e+001 0.000000e+000
      vertex   -2.950000e+001 1.025000e+002 0.000000e+000
    endloop
  endfacet
  facet normal -0.000000e+000 -0.000000e+000 -1.000000e+000
    outer loop
      vertex   -2.500000e+001 1.200000e+002 0.000000e+000
      vertex   -2.500000e+001 7.250000e+001 0.000000e+000
      vertex   -2.950000e+001 1.025000e+002 0.000000e+000
    endloop
  endfacet
  facet normal 0.000000e+000 -1.000000e+000 0.000000e+000
    outer loop
      vertex   -3.500000e+001 2.500000e+001 6.250000e+001
      vertex   -3.500000e+001 2.500000e+001 3.125000e+001
      vertex   -2.500000e+001 2.500000e+001 6.250000e+001
    endloop
  endfacet
  facet normal 0.000000e+000 -1.000000e+000 -0.000000e+000
    outer loop
      vertex   -2.500000e+001 2.500000e+001 6.250000e+001
      vertex   -3.500000e+001 2.500000e+001 3.125000e+001
      vertex   -2.500000e+001 2.500000e+001 3.125000e+001
    endloop
  endfacet
  facet normal -0.000000e+000 -1.000000e+000 -0.000000e+000
    outer loop
      vertex   -2.500000e+001 2.500000e+001 3.125000e+001
      vertex   -3.500000e+001 2.500000e+001 3.125000e+001
      vertex   -3.500000e+001 2.500000e+001 0.000000e+000
    endloop
  endfacet
  facet normal -0.000000e+000 -1.000000e+000 0.000000e+000
    outer loop
      vertex   -2.500000e+001 2.500000e+001 0.000000e+000
      vertex   -2.500000e+001 2.500000e+001 3.125000e+001
      vertex   -3.500000e+001 2.500000e+001 0.000000e+000
    endloop
  endfacet
  facet normal -1.000000e+000 -0.000000e+000 -0.000000e+000
    outer loop
      vertex   -3.500000e+001 1.200000e+002 6.250000e+001
      vertex   -3.500000e+001 1.200000e+002 3.125000e+001
      vertex   -3.500000e+001 1.025000e+002 6.250000e+001
    endloop
  endfacet
  facet normal -1.000000e+000 0.000000e+000 -0.000000e+000
    outer loop
      vertex   -3.500000e+001 1.025000e+002 6.250000e+001
      vertex   -3.500000e+001 1.200000e+002 3.125000e+001
      vertex   -3.500000e+001 1.025000e+002 2.250000e+001
    endloop
  endfacet
  facet normal -1.000000e+000 0.000000e+000 0.000000e+000
    outer loop
      vertex   -3.500000e+001 1.025000e+002 2.250000e+001
      vertex   -3.500000e+001 1.200000e+002 3.125000e+001
      vertex   -3.500000e+001 1.200000e+002 0.000000e+000
    endloop
  endfacet
  facet normal -1.000000e+000 0.000000e+000 0.000000e+000
    outer loop
      vertex   -3.500000e+001 7.250000e+001 0.000000e+000
      vertex   -3.500000e+001 1.025000e+002 2.250000e+001
      vertex   -3.500000e+001 1.200000e+002 0.000000e+000
    endloop
  endfacet
  facet normal -1.000000e+000 0.000000e+000 0.000000e+000
    outer loop
      vertex   -3.500000e+001 7.250000e+001 0.000000e+000
      vertex   -3.500000e+001 7.250000e+001 2.250000e+001
      vertex   -3.500000e+001 1.025000e+002 2.250000e+001
    endloop
  endfacet
  facet normal -1.000000e+000 0.000000e+000 0.000000e+000
    outer loop
      vertex   -3.500000e+001 7.250000e+001 0.000000e+000
      vertex   -3.500000e+001 4.250000e+001 2.250000e+001
      vertex   -3.500000e+001 7.250000e+001 2.250000e+001
    endloop
  endfacet
  facet normal -1.000000e+000 0.000000e+000 0.000000e+000
    outer loop
      vertex   -3.500000e+001 7.250000e+001 0.000000e+000
      vertex   -3.500000e+001 2.500000e+001 0.000000e+000
      vertex   -3.500000e+001 4.250000e+001 2.250000e+001
    endloop
  endfacet
  facet normal -1.000000e+000 -0.000000e+000 0.000000e+000
    outer loop
      vertex   -3.500000e+001 4.250000e+001 2.250000e+001
      vertex   -3.500000e+001 2.500000e+001 0.000000e+000
      vertex   -3.500000e+001 2.500000e+001 3.125000e+001
    endloop
  endfacet
  facet normal -1.000000e+000 -0.000000e+000 0.000000e+000
    outer loop
      vertex   -3.500000e+001 4.250000e+001 6.250000e+001
      vertex   -3.500000e+001 2.500000e+001 3.125000e+001
      vertex   -3.500000e+001 2.500000e+001 6.250000e+001
    endloop
  endfacet
  facet normal -1.000000e+000 -0.000000e+000 -0.000000e+000
    outer loop
      vertex   -3.500000e+001 4.250000e+001 6.250000e+001
      vertex   -3.500000e+001 4.250000e+001 2.250000e+001
      vertex   -3.500000e+001 2.500000e+001 3.125000e+001
    endloop
  endfacet
  facet normal 0.000000e+000 1.000000e+000 0.000000e+000
    outer loop
      vertex   -2.500000e+001 1.200000e+002 6.250000e+001
      vertex   -2.500000e+001 1.200000e+002 3.125000e+001
      vertex   -3.500000e+001 1.200000e+002 6.250000e+001
    endloop
  endfacet
  facet normal 0.000000e+000 1.000000e+000 0.000000e+000
    outer loop
      vertex   -3.500000e+001 1.200000e+002 6.250000e+001
      vertex   -2.500000e+001 1.200000e+002 3.125000e+001
      vertex   -3.500000e+001 1.200000e+002 3.125000e+001
    endloop
  endfacet
  facet normal -0.000000e+000 1.000000e+000 0.000000e+000
    outer loop
      vertex   -3.500000e+001 1.200000e+002 3.125000e+001
      vertex   -2.500000e+001 1.200000e+002 3.125000e+001
      vertex   -2.500000e+001 1.200000e+002 0.000000e+000
    endloop
  endfacet
  facet normal -0.000000e+000 1.000000e+000 0.000000e+000
    outer loop
      vertex   -3.500000e+001 1.200000e+002 0.000000e+000
      vertex   -3.500000e+001 1.200000e+002 3.125000e+001
      vertex   -2.500000e+001 1.200000e+002 0.000000e+000
    endloop
  endfacet
  facet normal 1.000000e+000 -0.000000e+000 0.000000e+000
    outer loop
      vertex   -2.500000e+001 2.500000e+001 6.250000e+001
      vertex   -2.500000e+001 2.500000e+001 3.125000e+001
      vertex   -2.500000e+001 4.250000e+001 6.250000e+001
    endloop
  endfacet
  facet normal 1.000000e+000 0.000000e+000 0.000000e+000
    outer loop
      vertex   -2.500000e+001 4.250000e+001 6.250000e+001
      vertex   -2.500000e+001 2.500000e+001 3.125000e+001
      vertex   -2.500000e+001 4.250000e+001 2.250000e+001
    endloop
  endfacet
  facet normal 1.000000e+000 0.000000e+000 0.000000e+000
    outer loop
      vertex   -2.500000e+001 4.250000e+001 2.250000e+001
      vertex   -2.500000e+001 2.500000e+001 3.125000e+001
      vertex   -2.500000e+001 2.500000e+001 0.000000e+000
    endloop
  endfacet
  facet normal 1.000000e+000 0.000000e+000 0.000000e+000
    outer loop
      vertex   -2.500000e+001 7.250000e+001 0.000000e+000
      vertex   -2.500000e+001 4.250000e+001 2.250000e+001
      vertex   -2.500000e+001 2.500000e+001 0.000000e+000
    endloop
  endfacet
  facet normal 1.000000e+000 0.000000e+000 -0.000000e+000
    outer loop
      vertex   -2.500000e+001 7.250000e+001 0.000000e+000
      vertex   -2.500000e+001 7.250000e+001 2.250000e+001
      vertex   -2.500000e+001 4.250000e+001 2.250000e+001
    endloop
  endfacet
  facet normal 1.000000e+000 0.000000e+000 -0.000000e+000
    outer loop
      vertex   -2.500000e+001 7.250000e+001 0.000000e+000
      vertex   -2.500000e+001 1.025000e+002 2.250000e+001
      vertex   -2.500000e+001 7.250000e+001 2.250000e+001
    endloop
  endfacet
  facet normal 1.000000e+000 0.000000e+000 -0.000000e+000
    outer loop
      vertex   -2.500000e+001 7.250000e+001 0.000000e+000
      vertex   -2.500000e+001 1.200000e+002 0.000000e+000
      vertex   -2.500000e+001 1.025000e+002 2.250000e+001
    endloop
  endfacet
  facet normal 1.000000e+000 -0.000000e+000 0.000000e+000
    outer loop
      vertex   -2.500000e+001 1.025000e+002 2.250000e+001
      vertex   -2.500000e+001 1.200000e+002 0.000000e+000
      vertex   -2.500000e+001 1.200000e+002 3.125000e+001
    endloop
  endfacet
  facet normal 1.000000e+000 -0.000000e+000 0.000000e+000
    outer loop
      vertex   -2.500000e+001 1.025000e+002 6.250000e+001
      vertex   -2.500000e+001 1.200000e+002 3.125000e+001
      vertex   -2.500000e+001 1.200000e+002 6.250000e+001
    endloop
  endfacet
  facet normal 1.000000e+000 -0.000000e+000 0.000000e+000
    outer loop
      vertex   -2.500000e+001 1.025000e+002 6.250000e+001
      vertex   -2.500000e+001 1.025000e+002 2.250000e+001
      vertex   -2.500000e+001 1.200000e+002 3.125000e+001
    endloop
  endfacet
endsolid
