solid ascii
  facet normal -0.000000e+000 1.000000e+000 0.000000e+000
    outer loop
      vertex   -3.750000e+001 2.750000e+001 2.500000e+000
      vertex   -3.750000e+001 2.750000e+001 3.250000e+001
      vertex   -2.750000e+001 2.750000e+001 2.500000e+000
    endloop
  endfacet
  facet normal 0.000000e+000 1.000000e+000 -0.000000e+000
    outer loop
      vertex   -2.750000e+001 2.750000e+001 2.500000e+000
      vertex   -3.750000e+001 2.750000e+001 3.250000e+001
      vertex   -2.750000e+001 2.750000e+001 3.250000e+001
    endloop
  endfacet
  facet normal 0.000000e+000 1.000000e+000 -0.000000e+000
    outer loop
      vertex   -2.750000e+001 2.750000e+001 3.250000e+001
      vertex   -3.750000e+001 2.750000e+001 3.250000e+001
      vertex   -3.750000e+001 2.750000e+001 6.250000e+001
    endloop
  endfacet
  facet normal 0.000000e+000 1.000000e+000 0.000000e+000
    outer loop
      vertex   -2.750000e+001 2.750000e+001 6.250000e+001
      vertex   -2.750000e+001 2.750000e+001 3.250000e+001
      vertex   -3.750000e+001 2.750000e+001 6.250000e+001
    endloop
  endfacet
  facet normal -1.000000e+000 0.000000e+000 0.000000e+000
    outer loop
      vertex   -2.750000e+001 2.750000e+001 2.500000e+000
      vertex   -2.750000e+001 2.750000e+001 3.250000e+001
      vertex   -2.750000e+001 3.750000e+001 2.500000e+000
    endloop
  endfacet
  facet normal -1.000000e+000 0.000000e+000 0.000000e+000
    outer loop
      vertex   -2.750000e+001 3.750000e+001 2.500000e+000
      vertex   -2.750000e+001 2.750000e+001 3.250000e+001
      vertex   -2.750000e+001 3.750000e+001 3.250000e+001
    endloop
  endfacet
  facet normal -1.000000e+000 0.000000e+000 0.000000e+000
    outer loop
      vertex   -2.750000e+001 3.750000e+001 3.250000e+001
      vertex   -2.750000e+001 2.750000e+001 3.250000e+001
      vertex   -2.750000e+001 2.750000e+001 6.250000e+001
    endloop
  endfacet
  facet normal -1.000000e+000 -0.000000e+000 -0.000000e+000
    outer loop
      vertex   -2.750000e+001 3.750000e+001 6.250000e+001
      vertex   -2.750000e+001 3.750000e+001 3.250000e+001
      vertex   -2.750000e+001 2.750000e+001 6.250000e+001
    endloop
  endfacet
  facet normal -0.000000e+000 -1.000000e+000 0.000000e+000
    outer loop
      vertex   -2.750000e+001 3.750000e+001 2.500000e+000
      vertex   -2.750000e+001 3.750000e+001 3.250000e+001
      vertex   -3.750000e+001 3.750000e+001 2.500000e+000
    endloop
  endfacet
  facet normal 0.000000e+000 -1.000000e+000 0.000000e+000
    outer loop
      vertex   -3.750000e+001 3.750000e+001 2.500000e+000
      vertex   -2.750000e+001 3.750000e+001 3.250000e+001
      vertex   -3.750000e+001 3.750000e+001 3.250000e+001
    endloop
  endfacet
  facet normal 0.000000e+000 -1.000000e+000 0.000000e+000
    outer loop
      vertex   -3.750000e+001 3.750000e+001 3.250000e+001
      vertex   -2.750000e+001 3.750000e+001 3.250000e+001
      vertex   -2.750000e+001 3.750000e+001 6.250000e+001
    endloop
  endfacet
  facet normal 0.000000e+000 -1.000000e+000 0.000000e+000
    outer loop
      vertex   -3.750000e+001 3.750000e+001 6.250000e+001
      vertex   -3.750000e+001 3.750000e+001 3.250000e+001
      vertex   -2.750000e+001 3.750000e+001 6.250000e+001
    endloop
  endfacet
  facet normal 1.000000e+000 0.000000e+000 -0.000000e+000
    outer loop
      vertex   -3.750000e+001 3.750000e+001 2.500000e+000
      vertex   -3.750000e+001 3.750000e+001 3.250000e+001
      vertex   -3.750000e+001 2.750000e+001 2.500000e+000
    endloop
  endfacet
  facet normal 1.000000e+000 0.000000e+000 -0.000000e+000
    outer loop
      vertex   -3.750000e+001 2.750000e+001 2.500000e+000
      vertex   -3.750000e+001 3.750000e+001 3.250000e+001
      vertex   -3.750000e+001 2.750000e+001 3.250000e+001
    endloop
  endfacet
  facet normal 1.000000e+000 0.000000e+000 0.000000e+000
    outer loop
      vertex   -3.750000e+001 2.750000e+001 3.250000e+001
      vertex   -3.750000e+001 3.750000e+001 3.250000e+001
      vertex   -3.750000e+001 3.750000e+001 6.250000e+001
    endloop
  endfacet
  facet normal 1.000000e+000 -0.000000e+000 0.000000e+000
    outer loop
      vertex   -3.750000e+001 2.750000e+001 6.250000e+001
      vertex   -3.750000e+001 2.750000e+001 3.250000e+001
      vertex   -3.750000e+001 3.750000e+001 6.250000e+001
    endloop
  endfacet
  facet normal 0.000000e+000 -0.000000e+000 1.000000e+000
    outer loop
      vertex   -3.750000e+001 2.750000e+001 6.250000e+001
      vertex   -3.750000e+001 3.750000e+001 6.250000e+001
      vertex   -4.000000e+001 4.000000e+001 6.250000e+001
    endloop
  endfacet
  facet normal 0.000000e+000 -0.000000e+000 1.000000e+000
    outer loop
      vertex   -4.000000e+001 2.500000e+001 6.250000e+001
      vertex   -3.750000e+001 2.750000e+001 6.250000e+001
      vertex   -4.000000e+001 4.000000e+001 6.250000e+001
    endloop
  endfacet
  facet normal 0.000000e+000 -0.000000e+000 1.000000e+000
    outer loop
      vertex   -4.000000e+001 2.500000e+001 6.250000e+001
      vertex   -2.500000e+001 2.500000e+001 6.250000e+001
      vertex   -3.750000e+001 2.750000e+001 6.250000e+001
    endloop
  endfacet
  facet normal -0.000000e+000 -0.000000e+000 1.000000e+000
    outer loop
      vertex   -3.750000e+001 2.750000e+001 6.250000e+001
      vertex   -2.500000e+001 2.500000e+001 6.250000e+001
      vertex   -2.750000e+001 2.750000e+001 6.250000e+001
    endloop
  endfacet
  facet normal -0.000000e+000 0.000000e+000 1.000000e+000
    outer loop
      vertex   -2.750000e+001 2.750000e+001 6.250000e+001
      vertex   -2.500000e+001 2.500000e+001 6.250000e+001
      vertex   -2.500000e+001 4.000000e+001 6.250000e+001
    endloop
  endfacet
  facet normal 0.000000e+000 -0.000000e+000 1.000000e+000
    outer loop
      vertex   -2.750000e+001 3.750000e+001 6.250000e+001
      vertex   -2.500000e+001 4.000000e+001 6.250000e+001
      vertex   -4.000000e+001 4.000000e+001 6.250000e+001
    endloop
  endfacet
  facet normal 0.000000e+000 -0.000000e+000 1.000000e+000
    outer loop
      vertex   -3.750000e+001 3.750000e+001 6.250000e+001
      vertex   -2.750000e+001 3.750000e+001 6.250000e+001
      vertex   -4.000000e+001 4.000000e+001 6.250000e+001
    endloop
  endfacet
  facet normal -0.000000e+000 0.000000e+000 1.000000e+000
    outer loop
      vertex   -2.750000e+001 3.750000e+001 6.250000e+001
      vertex   -2.750000e+001 2.750000e+001 6.250000e+001
      vertex   -2.500000e+001 4.000000e+001 6.250000e+001
    endloop
  endfacet
  facet normal 0.000000e+000 1.000000e+000 0.000000e+000
    outer loop
      vertex   -3.000000e+001 3.000000e+001 2.500000e+000
      vertex   -3.000000e+001 3.000000e+001 0.000000e+000
      vertex   -3.500000e+001 3.000000e+001 2.500000e+000
    endloop
  endfacet
  facet normal 0.000000e+000 1.000000e+000 0.000000e+000
    outer loop
      vertex   -3.500000e+001 3.000000e+001 2.500000e+000
      vertex   -3.000000e+001 3.000000e+001 0.000000e+000
      vertex   -3.500000e+001 3.000000e+001 0.000000e+000
    endloop
  endfacet
  facet normal 1.000000e+000 -0.000000e+000 0.000000e+000
    outer loop
      vertex   -3.500000e+001 3.000000e+001 2.500000e+000
      vertex   -3.500000e+001 3.000000e+001 0.000000e+000
      vertex   -3.500000e+001 3.500000e+001 2.500000e+000
    endloop
  endfacet
  facet normal 1.000000e+000 -0.000000e+000 0.000000e+000
    outer loop
      vertex   -3.500000e+001 3.500000e+001 2.500000e+000
      vertex   -3.500000e+001 3.000000e+001 0.000000e+000
      vertex   -3.500000e+001 3.500000e+001 0.000000e+000
    endloop
  endfacet
  facet normal 0.000000e+000 -1.000000e+000 0.000000e+000
    outer loop
      vertex   -3.500000e+001 3.500000e+001 2.500000e+000
      vertex   -3.500000e+001 3.500000e+001 0.000000e+000
      vertex   -3.000000e+001 3.500000e+001 2.500000e+000
    endloop
  endfacet
  facet normal 0.000000e+000 -1.000000e+000 -0.000000e+000
    outer loop
      vertex   -3.000000e+001 3.500000e+001 2.500000e+000
      vertex   -3.500000e+001 3.500000e+001 0.000000e+000
      vertex   -3.000000e+001 3.500000e+001 0.000000e+000
    endloop
  endfacet
  facet normal -1.000000e+000 -0.000000e+000 -0.000000e+000
    outer loop
      vertex   -3.000000e+001 3.500000e+001 2.500000e+000
      vertex   -3.000000e+001 3.500000e+001 0.000000e+000
      vertex   -3.000000e+001 3.000000e+001 2.500000e+000
    endloop
  endfacet
  facet normal -1.000000e+000 -0.000000e+000 -0.000000e+000
    outer loop
      vertex   -3.000000e+001 3.000000e+001 2.500000e+000
      vertex   -3.000000e+001 3.500000e+001 0.000000e+000
      vertex   -3.000000e+001 3.000000e+001 0.000000e+000
    endloop
  endfacet
  facet normal 0.000000e+000 0.000000e+000 1.000000e+000
    outer loop
      vertex   -2.750000e+001 2.750000e+001 2.500000e+000
      vertex   -3.500000e+001 3.000000e+001 2.500000e+000
      vertex   -3.750000e+001 2.750000e+001 2.500000e+000
    endloop
  endfacet
  facet normal 0.000000e+000 0.000000e+000 1.000000e+000
    outer loop
      vertex   -2.750000e+001 2.750000e+001 2.500000e+000
      vertex   -3.000000e+001 3.000000e+001 2.500000e+000
      vertex   -3.500000e+001 3.000000e+001 2.500000e+000
    endloop
  endfacet
  facet normal 0.000000e+000 0.000000e+000 1.000000e+000
    outer loop
      vertex   -2.750000e+001 2.750000e+001 2.500000e+000
      vertex   -3.000000e+001 3.500000e+001 2.500000e+000
      vertex   -3.000000e+001 3.000000e+001 2.500000e+000
    endloop
  endfacet
  facet normal 0.000000e+000 -0.000000e+000 1.000000e+000
    outer loop
      vertex   -2.750000e+001 2.750000e+001 2.500000e+000
      vertex   -2.750000e+001 3.750000e+001 2.500000e+000
      vertex   -3.000000e+001 3.500000e+001 2.500000e+000
    endloop
  endfacet
  facet normal 0.000000e+000 -0.000000e+000 1.000000e+000
    outer loop
      vertex   -3.000000e+001 3.500000e+001 2.500000e+000
      vertex   -2.750000e+001 3.750000e+001 2.500000e+000
      vertex   -3.750000e+001 3.750000e+001 2.500000e+000
    endloop
  endfacet
  facet normal 0.000000e+000 0.000000e+000 1.000000e+000
    outer loop
      vertex   -3.500000e+001 3.500000e+001 2.500000e+000
      vertex   -3.750000e+001 3.750000e+001 2.500000e+000
      vertex   -3.750000e+001 2.750000e+001 2.500000e+000
    endloop
  endfacet
  facet normal 0.000000e+000 -0.000000e+000 1.000000e+000
    outer loop
      vertex   -3.500000e+001 3.000000e+001 2.500000e+000
      vertex   -3.500000e+001 3.500000e+001 2.500000e+000
      vertex   -3.750000e+001 2.750000e+001 2.500000e+000
    endloop
  endfacet
  facet normal 0.000000e+000 0.000000e+000 1.000000e+000
    outer loop
      vertex   -3.000000e+001 3.500000e+001 2.500000e+000
      vertex   -3.750000e+001 3.750000e+001 2.500000e+000
      vertex   -3.500000e+001 3.500000e+001 2.500000e+000
    endloop
  endfacet
  facet normal 0.000000e+000 -0.000000e+000 -1.000000e+000
    outer loop
      vertex   -3.500000e+001 3.500000e+001 0.000000e+000
      vertex   -2.500000e+001 4.000000e+001 0.000000e+000
      vertex   -3.000000e+001 3.500000e+001 0.000000e+000
    endloop
  endfacet
  facet normal 0.000000e+000 0.000000e+000 -1.000000e+000
    outer loop
      vertex   -3.500000e+001 3.500000e+001 0.000000e+000
      vertex   -4.000000e+001 4.000000e+001 0.000000e+000
      vertex   -2.500000e+001 4.000000e+001 0.000000e+000
    endloop
  endfacet
  facet normal -0.000000e+000 0.000000e+000 -1.000000e+000
    outer loop
      vertex   -3.500000e+001 3.500000e+001 0.000000e+000
      vertex   -4.000000e+001 2.500000e+001 0.000000e+000
      vertex   -4.000000e+001 4.000000e+001 0.000000e+000
    endloop
  endfacet
  facet normal 0.000000e+000 -0.000000e+000 -1.000000e+000
    outer loop
      vertex   -3.500000e+001 3.500000e+001 0.000000e+000
      vertex   -3.500000e+001 3.000000e+001 0.000000e+000
      vertex   -4.000000e+001 2.500000e+001 0.000000e+000
    endloop
  endfacet
  facet normal 0.000000e+000 0.000000e+000 -1.000000e+000
    outer loop
      vertex   -4.000000e+001 2.500000e+001 0.000000e+000
      vertex   -3.500000e+001 3.000000e+001 0.000000e+000
      vertex   -3.000000e+001 3.000000e+001 0.000000e+000
    endloop
  endfacet
  facet normal 0.000000e+000 0.000000e+000 -1.000000e+000
    outer loop
      vertex   -2.500000e+001 2.500000e+001 0.000000e+000
      vertex   -3.000000e+001 3.000000e+001 0.000000e+000
      vertex   -3.000000e+001 3.500000e+001 0.000000e+000
    endloop
  endfacet
  facet normal -0.000000e+000 -0.000000e+000 -1.000000e+000
    outer loop
      vertex   -2.500000e+001 4.000000e+001 0.000000e+000
      vertex   -2.500000e+001 2.500000e+001 0.000000e+000
      vertex   -3.000000e+001 3.500000e+001 0.000000e+000
    endloop
  endfacet
  facet normal 0.000000e+000 0.000000e+000 -1.000000e+000
    outer loop
      vertex   -4.000000e+001 2.500000e+001 0.000000e+000
      vertex   -3.000000e+001 3.000000e+001 0.000000e+000
      vertex   -2.500000e+001 2.500000e+001 0.000000e+000
    endloop
  endfacet
  facet normal 0.000000e+000 -1.000000e+000 0.000000e+000
    outer loop
      vertex   -4.000000e+001 2.500000e+001 6.250000e+001
      vertex   -4.000000e+001 2.500000e+001 3.125000e+001
      vertex   -2.500000e+001 2.500000e+001 6.250000e+001
    endloop
  endfacet
  facet normal 0.000000e+000 -1.000000e+000 -0.000000e+000
    outer loop
      vertex   -2.500000e+001 2.500000e+001 6.250000e+001
      vertex   -4.000000e+001 2.500000e+001 3.125000e+001
      vertex   -2.500000e+001 2.500000e+001 3.125000e+001
    endloop
  endfacet
  facet normal -0.000000e+000 -1.000000e+000 -0.000000e+000
    outer loop
      vertex   -2.500000e+001 2.500000e+001 3.125000e+001
      vertex   -4.000000e+001 2.500000e+001 3.125000e+001
      vertex   -4.000000e+001 2.500000e+001 0.000000e+000
    endloop
  endfacet
  facet normal -0.000000e+000 -1.000000e+000 0.000000e+000
    outer loop
      vertex   -2.500000e+001 2.500000e+001 0.000000e+000
      vertex   -2.500000e+001 2.500000e+001 3.125000e+001
      vertex   -4.000000e+001 2.500000e+001 0.000000e+000
    endloop
  endfacet
  facet normal -1.000000e+000 -0.000000e+000 -0.000000e+000
    outer loop
      vertex   -4.000000e+001 4.000000e+001 6.250000e+001
      vertex   -4.000000e+001 4.000000e+001 3.125000e+001
      vertex   -4.000000e+001 2.500000e+001 6.250000e+001
    endloop
  endfacet
  facet normal -1.000000e+000 -0.000000e+000 -0.000000e+000
    outer loop
      vertex   -4.000000e+001 2.500000e+001 6.250000e+001
      vertex   -4.000000e+001 4.000000e+001 3.125000e+001
      vertex   -4.000000e+001 2.500000e+001 3.125000e+001
    endloop
  endfacet
  facet normal -1.000000e+000 0.000000e+000 0.000000e+000
    outer loop
      vertex   -4.000000e+001 2.500000e+001 3.125000e+001
      vertex   -4.000000e+001 4.000000e+001 3.125000e+001
      vertex   -4.000000e+001 4.000000e+001 0.000000e+000
    endloop
  endfacet
  facet normal -1.000000e+000 0.000000e+000 0.000000e+000
    outer loop
      vertex   -4.000000e+001 2.500000e+001 0.000000e+000
      vertex   -4.000000e+001 2.500000e+001 3.125000e+001
      vertex   -4.000000e+001 4.000000e+001 0.000000e+000
    endloop
  endfacet
  facet normal 0.000000e+000 1.000000e+000 0.000000e+000
    outer loop
      vertex   -2.500000e+001 4.000000e+001 6.250000e+001
      vertex   -2.500000e+001 4.000000e+001 3.125000e+001
      vertex   -4.000000e+001 4.000000e+001 6.250000e+001
    endloop
  endfacet
  facet normal 0.000000e+000 1.000000e+000 0.000000e+000
    outer loop
      vertex   -4.000000e+001 4.000000e+001 6.250000e+001
      vertex   -2.500000e+001 4.000000e+001 3.125000e+001
      vertex   -4.000000e+001 4.000000e+001 3.125000e+001
    endloop
  endfacet
  facet normal -0.000000e+000 1.000000e+000 0.000000e+000
    outer loop
      vertex   -4.000000e+001 4.000000e+001 3.125000e+001
      vertex   -2.500000e+001 4.000000e+001 3.125000e+001
      vertex   -2.500000e+001 4.000000e+001 0.000000e+000
    endloop
  endfacet
  facet normal -0.000000e+000 1.000000e+000 0.000000e+000
    outer loop
      vertex   -4.000000e+001 4.000000e+001 0.000000e+000
      vertex   -4.000000e+001 4.000000e+001 3.125000e+001
      vertex   -2.500000e+001 4.000000e+001 0.000000e+000
    endloop
  endfacet
  facet normal 1.000000e+000 -0.000000e+000 0.000000e+000
    outer loop
      vertex   -2.500000e+001 2.500000e+001 6.250000e+001
      vertex   -2.500000e+001 2.500000e+001 3.125000e+001
      vertex   -2.500000e+001 4.000000e+001 6.250000e+001
    endloop
  endfacet
  facet normal 1.000000e+000 -0.000000e+000 0.000000e+000
    outer loop
      vertex   -2.500000e+001 4.000000e+001 6.250000e+001
      vertex   -2.500000e+001 2.500000e+001 3.125000e+001
      vertex   -2.500000e+001 4.000000e+001 3.125000e+001
    endloop
  endfacet
  facet normal 1.000000e+000 0.000000e+000 0.000000e+000
    outer loop
      vertex   -2.500000e+001 4.000000e+001 3.125000e+001
      vertex   -2.500000e+001 2.500000e+001 3.125000e+001
      vertex   -2.500000e+001 2.500000e+001 0.000000e+000
    endloop
  endfacet
  facet normal 1.000000e+000 0.000000e+000 -0.000000e+000
    outer loop
      vertex   -2.500000e+001 4.000000e+001 0.000000e+000
      vertex   -2.500000e+001 4.000000e+001 3.125000e+001
      vertex   -2.500000e+001 2.500000e+001 0.000000e+000
    endloop
  endfacet
endsolid
