solid ascii
  facet normal 0.000000e+000 -0.000000e+000 1.000000e+000
    outer loop
      vertex   -6.000000e+001 5.250000e+001 2.250000e+001
      vertex   -4.000000e+001 5.250000e+001 2.250000e+001
      vertex   -6.000000e+001 5.500000e+001 2.250000e+001
    endloop
  endfacet
  facet normal -0.000000e+000 0.000000e+000 1.000000e+000
    outer loop
      vertex   -6.000000e+001 5.500000e+001 2.250000e+001
      vertex   -4.000000e+001 5.250000e+001 2.250000e+001
      vertex   -4.000000e+001 5.500000e+001 2.250000e+001
    endloop
  endfacet
  facet normal 0.000000e+000 0.000000e+000 1.000000e+000
    outer loop
      vertex   -4.000000e+001 2.750000e+001 2.250000e+001
      vertex   -6.000000e+001 2.750000e+001 2.250000e+001
      vertex   -4.000000e+001 2.500000e+001 2.250000e+001
    endloop
  endfacet
  facet normal 0.000000e+000 0.000000e+000 1.000000e+000
    outer loop
      vertex   -4.000000e+001 2.500000e+001 2.250000e+001
      vertex   -6.000000e+001 2.750000e+001 2.250000e+001
      vertex   -6.000000e+001 2.500000e+001 2.250000e+001
    endloop
  endfacet
  facet normal -1.000000e+000 0.000000e+000 0.000000e+000
    outer loop
      vertex   -4.000000e+001 5.250000e+001 2.250000e+001
      vertex   -4.000000e+001 5.250000e+001 5.250000e+001
      vertex   -4.000000e+001 5.500000e+001 2.250000e+001
    endloop
  endfacet
  facet normal -1.000000e+000 0.000000e+000 0.000000e+000
    outer loop
      vertex   -4.000000e+001 5.500000e+001 2.250000e+001
      vertex   -4.000000e+001 5.250000e+001 5.250000e+001
      vertex   -4.000000e+001 5.500000e+001 5.250000e+001
    endloop
  endfacet
  facet normal -1.000000e+000 0.000000e+000 0.000000e+000
    outer loop
      vertex   -4.000000e+001 5.500000e+001 5.250000e+001
      vertex   -4.000000e+001 5.250000e+001 5.250000e+001
      vertex   -4.000000e+001 5.250000e+001 8.250000e+001
    endloop
  endfacet
  facet normal -1.000000e+000 -0.000000e+000 -0.000000e+000
    outer loop
      vertex   -4.000000e+001 5.500000e+001 8.250000e+001
      vertex   -4.000000e+001 5.500000e+001 5.250000e+001
      vertex   -4.000000e+001 5.250000e+001 8.250000e+001
    endloop
  endfacet
  facet normal -1.000000e+000 -0.000000e+000 -0.000000e+000
    outer loop
      vertex   -4.000000e+001 2.750000e+001 8.250000e+001
      vertex   -4.000000e+001 2.750000e+001 5.250000e+001
      vertex   -4.000000e+001 2.500000e+001 8.250000e+001
    endloop
  endfacet
  facet normal -1.000000e+000 -0.000000e+000 -0.000000e+000
    outer loop
      vertex   -4.000000e+001 2.500000e+001 8.250000e+001
      vertex   -4.000000e+001 2.750000e+001 5.250000e+001
      vertex   -4.000000e+001 2.500000e+001 5.250000e+001
    endloop
  endfacet
  facet normal -1.000000e+000 0.000000e+000 0.000000e+000
    outer loop
      vertex   -4.000000e+001 2.500000e+001 5.250000e+001
      vertex   -4.000000e+001 2.750000e+001 5.250000e+001
      vertex   -4.000000e+001 2.750000e+001 2.250000e+001
    endloop
  endfacet
  facet normal -1.000000e+000 0.000000e+000 0.000000e+000
    outer loop
      vertex   -4.000000e+001 2.500000e+001 2.250000e+001
      vertex   -4.000000e+001 2.500000e+001 5.250000e+001
      vertex   -4.000000e+001 2.750000e+001 2.250000e+001
    endloop
  endfacet
  facet normal 1.000000e+000 -0.000000e+000 0.000000e+000
    outer loop
      vertex   -6.000000e+001 5.250000e+001 8.250000e+001
      vertex   -6.000000e+001 5.250000e+001 5.250000e+001
      vertex   -6.000000e+001 5.500000e+001 8.250000e+001
    endloop
  endfacet
  facet normal 1.000000e+000 -0.000000e+000 0.000000e+000
    outer loop
      vertex   -6.000000e+001 5.500000e+001 8.250000e+001
      vertex   -6.000000e+001 5.250000e+001 5.250000e+001
      vertex   -6.000000e+001 5.500000e+001 5.250000e+001
    endloop
  endfacet
  facet normal 1.000000e+000 0.000000e+000 0.000000e+000
    outer loop
      vertex   -6.000000e+001 5.500000e+001 5.250000e+001
      vertex   -6.000000e+001 5.250000e+001 5.250000e+001
      vertex   -6.000000e+001 5.250000e+001 2.250000e+001
    endloop
  endfacet
  facet normal 1.000000e+000 0.000000e+000 -0.000000e+000
    outer loop
      vertex   -6.000000e+001 5.500000e+001 2.250000e+001
      vertex   -6.000000e+001 5.500000e+001 5.250000e+001
      vertex   -6.000000e+001 5.250000e+001 2.250000e+001
    endloop
  endfacet
  facet normal 1.000000e+000 0.000000e+000 -0.000000e+000
    outer loop
      vertex   -6.000000e+001 2.750000e+001 2.250000e+001
      vertex   -6.000000e+001 2.750000e+001 5.250000e+001
      vertex   -6.000000e+001 2.500000e+001 2.250000e+001
    endloop
  endfacet
  facet normal 1.000000e+000 0.000000e+000 -0.000000e+000
    outer loop
      vertex   -6.000000e+001 2.500000e+001 2.250000e+001
      vertex   -6.000000e+001 2.750000e+001 5.250000e+001
      vertex   -6.000000e+001 2.500000e+001 5.250000e+001
    endloop
  endfacet
  facet normal 1.000000e+000 0.000000e+000 0.000000e+000
    outer loop
      vertex   -6.000000e+001 2.500000e+001 5.250000e+001
      vertex   -6.000000e+001 2.750000e+001 5.250000e+001
      vertex   -6.000000e+001 2.750000e+001 8.250000e+001
    endloop
  endfacet
  facet normal 1.000000e+000 -0.000000e+000 0.000000e+000
    outer loop
      vertex   -6.000000e+001 2.500000e+001 8.250000e+001
      vertex   -6.000000e+001 2.500000e+001 5.250000e+001
      vertex   -6.000000e+001 2.750000e+001 8.250000e+001
    endloop
  endfacet
  facet normal 0.000000e+000 1.000000e+000 0.000000e+000
    outer loop
      vertex   -6.000000e+001 2.750000e+001 8.250000e+001
      vertex   -6.000000e+001 2.750000e+001 5.250000e+001
      vertex   -7.500000e+001 2.750000e+001 8.250000e+001
    endloop
  endfacet
  facet normal 0.000000e+000 1.000000e+000 0.000000e+000
    outer loop
      vertex   -7.500000e+001 2.750000e+001 8.250000e+001
      vertex   -6.000000e+001 2.750000e+001 5.250000e+001
      vertex   -7.500000e+001 2.750000e+001 4.250000e+001
    endloop
  endfacet
  facet normal -0.000000e+000 1.000000e+000 0.000000e+000
    outer loop
      vertex   -7.500000e+001 2.750000e+001 4.250000e+001
      vertex   -6.000000e+001 2.750000e+001 5.250000e+001
      vertex   -6.000000e+001 2.750000e+001 2.250000e+001
    endloop
  endfacet
  facet normal 0.000000e+000 1.000000e+000 0.000000e+000
    outer loop
      vertex   -7.500000e+001 2.750000e+001 2.500000e+000
      vertex   -6.000000e+001 2.750000e+001 2.250000e+001
      vertex   -4.000000e+001 2.750000e+001 2.250000e+001
    endloop
  endfacet
  facet normal 0.000000e+000 1.000000e+000 -0.000000e+000
    outer loop
      vertex   -2.500000e+001 2.750000e+001 2.500000e+000
      vertex   -4.000000e+001 2.750000e+001 2.250000e+001
      vertex   -2.500000e+001 2.750000e+001 4.250000e+001
    endloop
  endfacet
  facet normal 0.000000e+000 1.000000e+000 -0.000000e+000
    outer loop
      vertex   -2.500000e+001 2.750000e+001 2.500000e+000
      vertex   -7.500000e+001 2.750000e+001 2.500000e+000
      vertex   -4.000000e+001 2.750000e+001 2.250000e+001
    endloop
  endfacet
  facet normal 0.000000e+000 1.000000e+000 0.000000e+000
    outer loop
      vertex   -7.500000e+001 2.750000e+001 4.250000e+001
      vertex   -6.000000e+001 2.750000e+001 2.250000e+001
      vertex   -7.500000e+001 2.750000e+001 2.500000e+000
    endloop
  endfacet
  facet normal -0.000000e+000 1.000000e+000 0.000000e+000
    outer loop
      vertex   -4.000000e+001 2.750000e+001 2.250000e+001
      vertex   -4.000000e+001 2.750000e+001 5.250000e+001
      vertex   -2.500000e+001 2.750000e+001 4.250000e+001
    endloop
  endfacet
  facet normal 0.000000e+000 1.000000e+000 -0.000000e+000
    outer loop
      vertex   -2.500000e+001 2.750000e+001 4.250000e+001
      vertex   -4.000000e+001 2.750000e+001 5.250000e+001
      vertex   -2.500000e+001 2.750000e+001 8.250000e+001
    endloop
  endfacet
  facet normal 0.000000e+000 1.000000e+000 -0.000000e+000
    outer loop
      vertex   -2.500000e+001 2.750000e+001 8.250000e+001
      vertex   -4.000000e+001 2.750000e+001 5.250000e+001
      vertex   -4.000000e+001 2.750000e+001 8.250000e+001
    endloop
  endfacet
  facet normal -0.000000e+000 0.000000e+000 1.000000e+000
    outer loop
      vertex   -4.000000e+001 2.750000e+001 8.250000e+001
      vertex   -4.000000e+001 2.500000e+001 8.250000e+001
      vertex   -2.500000e+001 2.750000e+001 8.250000e+001
    endloop
  endfacet
  facet normal -0.000000e+000 0.000000e+000 1.000000e+000
    outer loop
      vertex   -2.500000e+001 2.750000e+001 8.250000e+001
      vertex   -4.000000e+001 2.500000e+001 8.250000e+001
      vertex   -2.250000e+001 2.500000e+001 8.250000e+001
    endloop
  endfacet
  facet normal 0.000000e+000 0.000000e+000 1.000000e+000
    outer loop
      vertex   -2.250000e+001 5.500000e+001 8.250000e+001
      vertex   -2.500000e+001 2.750000e+001 8.250000e+001
      vertex   -2.250000e+001 2.500000e+001 8.250000e+001
    endloop
  endfacet
  facet normal 0.000000e+000 0.000000e+000 1.000000e+000
    outer loop
      vertex   -2.250000e+001 5.500000e+001 8.250000e+001
      vertex   -2.500000e+001 5.250000e+001 8.250000e+001
      vertex   -2.500000e+001 2.750000e+001 8.250000e+001
    endloop
  endfacet
  facet normal 0.000000e+000 0.000000e+000 1.000000e+000
    outer loop
      vertex   -2.250000e+001 5.500000e+001 8.250000e+001
      vertex   -4.000000e+001 5.500000e+001 8.250000e+001
      vertex   -2.500000e+001 5.250000e+001 8.250000e+001
    endloop
  endfacet
  facet normal 0.000000e+000 0.000000e+000 1.000000e+000
    outer loop
      vertex   -2.500000e+001 5.250000e+001 8.250000e+001
      vertex   -4.000000e+001 5.500000e+001 8.250000e+001
      vertex   -4.000000e+001 5.250000e+001 8.250000e+001
    endloop
  endfacet
  facet normal 0.000000e+000 -1.000000e+000 0.000000e+000
    outer loop
      vertex   -4.000000e+001 5.250000e+001 8.250000e+001
      vertex   -4.000000e+001 5.250000e+001 5.250000e+001
      vertex   -2.500000e+001 5.250000e+001 8.250000e+001
    endloop
  endfacet
  facet normal 0.000000e+000 -1.000000e+000 -0.000000e+000
    outer loop
      vertex   -2.500000e+001 5.250000e+001 8.250000e+001
      vertex   -4.000000e+001 5.250000e+001 5.250000e+001
      vertex   -2.500000e+001 5.250000e+001 4.250000e+001
    endloop
  endfacet
  facet normal -0.000000e+000 -1.000000e+000 -0.000000e+000
    outer loop
      vertex   -2.500000e+001 5.250000e+001 4.250000e+001
      vertex   -4.000000e+001 5.250000e+001 5.250000e+001
      vertex   -4.000000e+001 5.250000e+001 2.250000e+001
    endloop
  endfacet
  facet normal -0.000000e+000 -1.000000e+000 0.000000e+000
    outer loop
      vertex   -2.500000e+001 5.250000e+001 2.500000e+000
      vertex   -4.000000e+001 5.250000e+001 2.250000e+001
      vertex   -7.500000e+001 5.250000e+001 2.500000e+000
    endloop
  endfacet
  facet normal -0.000000e+000 -1.000000e+000 0.000000e+000
    outer loop
      vertex   -2.500000e+001 5.250000e+001 2.500000e+000
      vertex   -2.500000e+001 5.250000e+001 4.250000e+001
      vertex   -4.000000e+001 5.250000e+001 2.250000e+001
    endloop
  endfacet
  facet normal -0.000000e+000 -1.000000e+000 0.000000e+000
    outer loop
      vertex   -4.000000e+001 5.250000e+001 2.250000e+001
      vertex   -6.000000e+001 5.250000e+001 2.250000e+001
      vertex   -7.500000e+001 5.250000e+001 2.500000e+000
    endloop
  endfacet
  facet normal 0.000000e+000 -1.000000e+000 0.000000e+000
    outer loop
      vertex   -7.500000e+001 5.250000e+001 2.500000e+000
      vertex   -6.000000e+001 5.250000e+001 2.250000e+001
      vertex   -7.500000e+001 5.250000e+001 4.250000e+001
    endloop
  endfacet
  facet normal 0.000000e+000 -1.000000e+000 0.000000e+000
    outer loop
      vertex   -7.500000e+001 5.250000e+001 4.250000e+001
      vertex   -6.000000e+001 5.250000e+001 2.250000e+001
      vertex   -6.000000e+001 5.250000e+001 5.250000e+001
    endloop
  endfacet
  facet normal 0.000000e+000 -1.000000e+000 0.000000e+000
    outer loop
      vertex   -7.500000e+001 5.250000e+001 8.250000e+001
      vertex   -6.000000e+001 5.250000e+001 5.250000e+001
      vertex   -6.000000e+001 5.250000e+001 8.250000e+001
    endloop
  endfacet
  facet normal 0.000000e+000 -1.000000e+000 0.000000e+000
    outer loop
      vertex   -7.500000e+001 5.250000e+001 8.250000e+001
      vertex   -7.500000e+001 5.250000e+001 4.250000e+001
      vertex   -6.000000e+001 5.250000e+001 5.250000e+001
    endloop
  endfacet
  facet normal -1.000000e+000 0.000000e+000 0.000000e+000
    outer loop
      vertex   -2.500000e+001 2.750000e+001 2.500000e+000
      vertex   -2.500000e+001 2.750000e+001 4.250000e+001
      vertex   -2.500000e+001 5.250000e+001 2.500000e+000
    endloop
  endfacet
  facet normal -1.000000e+000 0.000000e+000 0.000000e+000
    outer loop
      vertex   -2.500000e+001 5.250000e+001 2.500000e+000
      vertex   -2.500000e+001 2.750000e+001 4.250000e+001
      vertex   -2.500000e+001 5.250000e+001 4.250000e+001
    endloop
  endfacet
  facet normal -1.000000e+000 0.000000e+000 0.000000e+000
    outer loop
      vertex   -2.500000e+001 5.250000e+001 4.250000e+001
      vertex   -2.500000e+001 2.750000e+001 4.250000e+001
      vertex   -2.500000e+001 2.750000e+001 8.250000e+001
    endloop
  endfacet
  facet normal -1.000000e+000 -0.000000e+000 -0.000000e+000
    outer loop
      vertex   -2.500000e+001 5.250000e+001 8.250000e+001
      vertex   -2.500000e+001 5.250000e+001 4.250000e+001
      vertex   -2.500000e+001 2.750000e+001 8.250000e+001
    endloop
  endfacet
  facet normal 1.000000e+000 0.000000e+000 -0.000000e+000
    outer loop
      vertex   -7.500000e+001 5.250000e+001 2.500000e+000
      vertex   -7.500000e+001 5.250000e+001 4.250000e+001
      vertex   -7.500000e+001 2.750000e+001 2.500000e+000
    endloop
  endfacet
  facet normal 1.000000e+000 0.000000e+000 -0.000000e+000
    outer loop
      vertex   -7.500000e+001 2.750000e+001 2.500000e+000
      vertex   -7.500000e+001 5.250000e+001 4.250000e+001
      vertex   -7.500000e+001 2.750000e+001 4.250000e+001
    endloop
  endfacet
  facet normal 1.000000e+000 0.000000e+000 0.000000e+000
    outer loop
      vertex   -7.500000e+001 2.750000e+001 4.250000e+001
      vertex   -7.500000e+001 5.250000e+001 4.250000e+001
      vertex   -7.500000e+001 5.250000e+001 8.250000e+001
    endloop
  endfacet
  facet normal 1.000000e+000 -0.000000e+000 0.000000e+000
    outer loop
      vertex   -7.500000e+001 2.750000e+001 8.250000e+001
      vertex   -7.500000e+001 2.750000e+001 4.250000e+001
      vertex   -7.500000e+001 5.250000e+001 8.250000e+001
    endloop
  endfacet
  facet normal 0.000000e+000 0.000000e+000 1.000000e+000
    outer loop
      vertex   -6.000000e+001 2.750000e+001 8.250000e+001
      vertex   -7.500000e+001 2.750000e+001 8.250000e+001
      vertex   -6.000000e+001 2.500000e+001 8.250000e+001
    endloop
  endfacet
  facet normal 0.000000e+000 0.000000e+000 1.000000e+000
    outer loop
      vertex   -6.000000e+001 2.500000e+001 8.250000e+001
      vertex   -7.500000e+001 2.750000e+001 8.250000e+001
      vertex   -7.750000e+001 2.500000e+001 8.250000e+001
    endloop
  endfacet
  facet normal 0.000000e+000 -0.000000e+000 1.000000e+000
    outer loop
      vertex   -7.750000e+001 2.500000e+001 8.250000e+001
      vertex   -7.500000e+001 2.750000e+001 8.250000e+001
      vertex   -7.750000e+001 5.500000e+001 8.250000e+001
    endloop
  endfacet
  facet normal -0.000000e+000 0.000000e+000 1.000000e+000
    outer loop
      vertex   -7.750000e+001 5.500000e+001 8.250000e+001
      vertex   -7.500000e+001 2.750000e+001 8.250000e+001
      vertex   -7.500000e+001 5.250000e+001 8.250000e+001
    endloop
  endfacet
  facet normal -0.000000e+000 0.000000e+000 1.000000e+000
    outer loop
      vertex   -6.000000e+001 5.500000e+001 8.250000e+001
      vertex   -7.500000e+001 5.250000e+001 8.250000e+001
      vertex   -6.000000e+001 5.250000e+001 8.250000e+001
    endloop
  endfacet
  facet normal 0.000000e+000 0.000000e+000 1.000000e+000
    outer loop
      vertex   -6.000000e+001 5.500000e+001 8.250000e+001
      vertex   -7.750000e+001 5.500000e+001 8.250000e+001
      vertex   -7.500000e+001 5.250000e+001 8.250000e+001
    endloop
  endfacet
  facet normal 0.000000e+000 1.000000e+000 0.000000e+000
    outer loop
      vertex   -4.000000e+001 3.750000e+001 2.500000e+000
      vertex   -4.000000e+001 3.750000e+001 0.000000e+000
      vertex   -6.000000e+001 3.750000e+001 2.500000e+000
    endloop
  endfacet
  facet normal 0.000000e+000 1.000000e+000 0.000000e+000
    outer loop
      vertex   -6.000000e+001 3.750000e+001 2.500000e+000
      vertex   -4.000000e+001 3.750000e+001 0.000000e+000
      vertex   -6.000000e+001 3.750000e+001 0.000000e+000
    endloop
  endfacet
  facet normal 1.000000e+000 -0.000000e+000 0.000000e+000
    outer loop
      vertex   -6.000000e+001 3.750000e+001 2.500000e+000
      vertex   -6.000000e+001 3.750000e+001 0.000000e+000
      vertex   -6.000000e+001 4.250000e+001 2.500000e+000
    endloop
  endfacet
  facet normal 1.000000e+000 -0.000000e+000 0.000000e+000
    outer loop
      vertex   -6.000000e+001 4.250000e+001 2.500000e+000
      vertex   -6.000000e+001 3.750000e+001 0.000000e+000
      vertex   -6.000000e+001 4.250000e+001 0.000000e+000
    endloop
  endfacet
  facet normal 0.000000e+000 -1.000000e+000 0.000000e+000
    outer loop
      vertex   -6.000000e+001 4.250000e+001 2.500000e+000
      vertex   -6.000000e+001 4.250000e+001 0.000000e+000
      vertex   -4.000000e+001 4.250000e+001 2.500000e+000
    endloop
  endfacet
  facet normal 0.000000e+000 -1.000000e+000 -0.000000e+000
    outer loop
      vertex   -4.000000e+001 4.250000e+001 2.500000e+000
      vertex   -6.000000e+001 4.250000e+001 0.000000e+000
      vertex   -4.000000e+001 4.250000e+001 0.000000e+000
    endloop
  endfacet
  facet normal -1.000000e+000 -0.000000e+000 -0.000000e+000
    outer loop
      vertex   -4.000000e+001 4.250000e+001 2.500000e+000
      vertex   -4.000000e+001 4.250000e+001 0.000000e+000
      vertex   -4.000000e+001 3.750000e+001 2.500000e+000
    endloop
  endfacet
  facet normal -1.000000e+000 -0.000000e+000 -0.000000e+000
    outer loop
      vertex   -4.000000e+001 3.750000e+001 2.500000e+000
      vertex   -4.000000e+001 4.250000e+001 0.000000e+000
      vertex   -4.000000e+001 3.750000e+001 0.000000e+000
    endloop
  endfacet
  facet normal 0.000000e+000 -0.000000e+000 1.000000e+000
    outer loop
      vertex   -2.500000e+001 2.750000e+001 2.500000e+000
      vertex   -2.500000e+001 5.250000e+001 2.500000e+000
      vertex   -4.000000e+001 4.250000e+001 2.500000e+000
    endloop
  endfacet
  facet normal -0.000000e+000 -0.000000e+000 1.000000e+000
    outer loop
      vertex   -4.000000e+001 3.750000e+001 2.500000e+000
      vertex   -2.500000e+001 2.750000e+001 2.500000e+000
      vertex   -4.000000e+001 4.250000e+001 2.500000e+000
    endloop
  endfacet
  facet normal 0.000000e+000 0.000000e+000 1.000000e+000
    outer loop
      vertex   -4.000000e+001 3.750000e+001 2.500000e+000
      vertex   -6.000000e+001 3.750000e+001 2.500000e+000
      vertex   -2.500000e+001 2.750000e+001 2.500000e+000
    endloop
  endfacet
  facet normal 0.000000e+000 0.000000e+000 1.000000e+000
    outer loop
      vertex   -2.500000e+001 2.750000e+001 2.500000e+000
      vertex   -6.000000e+001 3.750000e+001 2.500000e+000
      vertex   -7.500000e+001 2.750000e+001 2.500000e+000
    endloop
  endfacet
  facet normal 0.000000e+000 0.000000e+000 1.000000e+000
    outer loop
      vertex   -7.500000e+001 2.750000e+001 2.500000e+000
      vertex   -6.000000e+001 3.750000e+001 2.500000e+000
      vertex   -6.000000e+001 4.250000e+001 2.500000e+000
    endloop
  endfacet
  facet normal -0.000000e+000 0.000000e+000 1.000000e+000
    outer loop
      vertex   -7.500000e+001 5.250000e+001 2.500000e+000
      vertex   -6.000000e+001 4.250000e+001 2.500000e+000
      vertex   -4.000000e+001 4.250000e+001 2.500000e+000
    endloop
  endfacet
  facet normal 0.000000e+000 0.000000e+000 1.000000e+000
    outer loop
      vertex   -2.500000e+001 5.250000e+001 2.500000e+000
      vertex   -7.500000e+001 5.250000e+001 2.500000e+000
      vertex   -4.000000e+001 4.250000e+001 2.500000e+000
    endloop
  endfacet
  facet normal -0.000000e+000 0.000000e+000 1.000000e+000
    outer loop
      vertex   -7.500000e+001 5.250000e+001 2.500000e+000
      vertex   -7.500000e+001 2.750000e+001 2.500000e+000
      vertex   -6.000000e+001 4.250000e+001 2.500000e+000
    endloop
  endfacet
  facet normal 0.000000e+000 -0.000000e+000 -1.000000e+000
    outer loop
      vertex   -6.000000e+001 4.250000e+001 0.000000e+000
      vertex   -2.250000e+001 5.500000e+001 0.000000e+000
      vertex   -4.000000e+001 4.250000e+001 0.000000e+000
    endloop
  endfacet
  facet normal 0.000000e+000 0.000000e+000 -1.000000e+000
    outer loop
      vertex   -6.000000e+001 4.250000e+001 0.000000e+000
      vertex   -7.750000e+001 5.500000e+001 0.000000e+000
      vertex   -2.250000e+001 5.500000e+001 0.000000e+000
    endloop
  endfacet
  facet normal -0.000000e+000 0.000000e+000 -1.000000e+000
    outer loop
      vertex   -6.000000e+001 4.250000e+001 0.000000e+000
      vertex   -7.750000e+001 2.500000e+001 0.000000e+000
      vertex   -7.750000e+001 5.500000e+001 0.000000e+000
    endloop
  endfacet
  facet normal 0.000000e+000 -0.000000e+000 -1.000000e+000
    outer loop
      vertex   -6.000000e+001 4.250000e+001 0.000000e+000
      vertex   -6.000000e+001 3.750000e+001 0.000000e+000
      vertex   -7.750000e+001 2.500000e+001 0.000000e+000
    endloop
  endfacet
  facet normal 0.000000e+000 0.000000e+000 -1.000000e+000
    outer loop
      vertex   -7.750000e+001 2.500000e+001 0.000000e+000
      vertex   -6.000000e+001 3.750000e+001 0.000000e+000
      vertex   -4.000000e+001 3.750000e+001 0.000000e+000
    endloop
  endfacet
  facet normal 0.000000e+000 0.000000e+000 -1.000000e+000
    outer loop
      vertex   -2.250000e+001 2.500000e+001 0.000000e+000
      vertex   -4.000000e+001 3.750000e+001 0.000000e+000
      vertex   -4.000000e+001 4.250000e+001 0.000000e+000
    endloop
  endfacet
  facet normal -0.000000e+000 -0.000000e+000 -1.000000e+000
    outer loop
      vertex   -2.250000e+001 5.500000e+001 0.000000e+000
      vertex   -2.250000e+001 2.500000e+001 0.000000e+000
      vertex   -4.000000e+001 4.250000e+001 0.000000e+000
    endloop
  endfacet
  facet normal 0.000000e+000 0.000000e+000 -1.000000e+000
    outer loop
      vertex   -7.750000e+001 2.500000e+001 0.000000e+000
      vertex   -4.000000e+001 3.750000e+001 0.000000e+000
      vertex   -2.250000e+001 2.500000e+001 0.000000e+000
    endloop
  endfacet
  facet normal -0.000000e+000 -1.000000e+000 -0.000000e+000
    outer loop
      vertex   -6.000000e+001 2.500000e+001 8.250000e+001
      vertex   -7.750000e+001 2.500000e+001 8.250000e+001
      vertex   -6.000000e+001 2.500000e+001 5.250000e+001
    endloop
  endfacet
  facet normal -0.000000e+000 -1.000000e+000 -0.000000e+000
    outer loop
      vertex   -6.000000e+001 2.500000e+001 5.250000e+001
      vertex   -7.750000e+001 2.500000e+001 8.250000e+001
      vertex   -7.750000e+001 2.500000e+001 4.125000e+001
    endloop
  endfacet
  facet normal -0.000000e+000 -1.000000e+000 -0.000000e+000
    outer loop
      vertex   -6.000000e+001 2.500000e+001 2.250000e+001
      vertex   -7.750000e+001 2.500000e+001 4.125000e+001
      vertex   -7.750000e+001 2.500000e+001 0.000000e+000
    endloop
  endfacet
  facet normal 0.000000e+000 -1.000000e+000 -0.000000e+000
    outer loop
      vertex   -4.000000e+001 2.500000e+001 2.250000e+001
      vertex   -7.750000e+001 2.500000e+001 0.000000e+000
      vertex   -2.250000e+001 2.500000e+001 0.000000e+000
    endloop
  endfacet
  facet normal 0.000000e+000 -1.000000e+000 -0.000000e+000
    outer loop
      vertex   -2.250000e+001 2.500000e+001 4.125000e+001
      vertex   -4.000000e+001 2.500000e+001 2.250000e+001
      vertex   -2.250000e+001 2.500000e+001 0.000000e+000
    endloop
  endfacet
  facet normal -0.000000e+000 -1.000000e+000 -0.000000e+000
    outer loop
      vertex   -2.250000e+001 2.500000e+001 4.125000e+001
      vertex   -4.000000e+001 2.500000e+001 5.250000e+001
      vertex   -4.000000e+001 2.500000e+001 2.250000e+001
    endloop
  endfacet
  facet normal -0.000000e+000 -1.000000e+000 0.000000e+000
    outer loop
      vertex   -2.250000e+001 2.500000e+001 4.125000e+001
      vertex   -2.250000e+001 2.500000e+001 8.250000e+001
      vertex   -4.000000e+001 2.500000e+001 5.250000e+001
    endloop
  endfacet
  facet normal 0.000000e+000 -1.000000e+000 0.000000e+000
    outer loop
      vertex   -4.000000e+001 2.500000e+001 5.250000e+001
      vertex   -2.250000e+001 2.500000e+001 8.250000e+001
      vertex   -4.000000e+001 2.500000e+001 8.250000e+001
    endloop
  endfacet
  facet normal 0.000000e+000 -1.000000e+000 -0.000000e+000
    outer loop
      vertex   -6.000000e+001 2.500000e+001 5.250000e+001
      vertex   -7.750000e+001 2.500000e+001 4.125000e+001
      vertex   -6.000000e+001 2.500000e+001 2.250000e+001
    endloop
  endfacet
  facet normal 0.000000e+000 -1.000000e+000 -0.000000e+000
    outer loop
      vertex   -6.000000e+001 2.500000e+001 2.250000e+001
      vertex   -7.750000e+001 2.500000e+001 0.000000e+000
      vertex   -4.000000e+001 2.500000e+001 2.250000e+001
    endloop
  endfacet
  facet normal -1.000000e+000 -0.000000e+000 -0.000000e+000
    outer loop
      vertex   -7.750000e+001 5.500000e+001 8.250000e+001
      vertex   -7.750000e+001 5.500000e+001 4.125000e+001
      vertex   -7.750000e+001 2.500000e+001 8.250000e+001
    endloop
  endfacet
  facet normal -1.000000e+000 -0.000000e+000 -0.000000e+000
    outer loop
      vertex   -7.750000e+001 2.500000e+001 8.250000e+001
      vertex   -7.750000e+001 5.500000e+001 4.125000e+001
      vertex   -7.750000e+001 2.500000e+001 4.125000e+001
    endloop
  endfacet
  facet normal -1.000000e+000 0.000000e+000 0.000000e+000
    outer loop
      vertex   -7.750000e+001 2.500000e+001 4.125000e+001
      vertex   -7.750000e+001 5.500000e+001 4.125000e+001
      vertex   -7.750000e+001 5.500000e+001 0.000000e+000
    endloop
  endfacet
  facet normal -1.000000e+000 0.000000e+000 0.000000e+000
    outer loop
      vertex   -7.750000e+001 2.500000e+001 0.000000e+000
      vertex   -7.750000e+001 2.500000e+001 4.125000e+001
      vertex   -7.750000e+001 5.500000e+001 0.000000e+000
    endloop
  endfacet
  facet normal -0.000000e+000 1.000000e+000 0.000000e+000
    outer loop
      vertex   -4.000000e+001 5.500000e+001 8.250000e+001
      vertex   -2.250000e+001 5.500000e+001 8.250000e+001
      vertex   -4.000000e+001 5.500000e+001 5.250000e+001
    endloop
  endfacet
  facet normal -0.000000e+000 1.000000e+000 0.000000e+000
    outer loop
      vertex   -4.000000e+001 5.500000e+001 5.250000e+001
      vertex   -2.250000e+001 5.500000e+001 8.250000e+001
      vertex   -2.250000e+001 5.500000e+001 4.125000e+001
    endloop
  endfacet
  facet normal -0.000000e+000 1.000000e+000 0.000000e+000
    outer loop
      vertex   -4.000000e+001 5.500000e+001 2.250000e+001
      vertex   -2.250000e+001 5.500000e+001 4.125000e+001
      vertex   -2.250000e+001 5.500000e+001 0.000000e+000
    endloop
  endfacet
  facet normal -0.000000e+000 1.000000e+000 0.000000e+000
    outer loop
      vertex   -7.750000e+001 5.500000e+001 0.000000e+000
      vertex   -4.000000e+001 5.500000e+001 2.250000e+001
      vertex   -2.250000e+001 5.500000e+001 0.000000e+000
    endloop
  endfacet
  facet normal 0.000000e+000 1.000000e+000 0.000000e+000
    outer loop
      vertex   -7.750000e+001 5.500000e+001 0.000000e+000
      vertex   -6.000000e+001 5.500000e+001 2.250000e+001
      vertex   -4.000000e+001 5.500000e+001 2.250000e+001
    endloop
  endfacet
  facet normal -0.000000e+000 1.000000e+000 0.000000e+000
    outer loop
      vertex   -7.750000e+001 5.500000e+001 0.000000e+000
      vertex   -7.750000e+001 5.500000e+001 4.125000e+001
      vertex   -6.000000e+001 5.500000e+001 2.250000e+001
    endloop
  endfacet
  facet normal 0.000000e+000 1.000000e+000 -0.000000e+000
    outer loop
      vertex   -6.000000e+001 5.500000e+001 2.250000e+001
      vertex   -7.750000e+001 5.500000e+001 4.125000e+001
      vertex   -6.000000e+001 5.500000e+001 5.250000e+001
    endloop
  endfacet
  facet normal 0.000000e+000 1.000000e+000 -0.000000e+000
    outer loop
      vertex   -6.000000e+001 5.500000e+001 5.250000e+001
      vertex   -7.750000e+001 5.500000e+001 4.125000e+001
      vertex   -7.750000e+001 5.500000e+001 8.250000e+001
    endloop
  endfacet
  facet normal 0.000000e+000 1.000000e+000 0.000000e+000
    outer loop
      vertex   -6.000000e+001 5.500000e+001 8.250000e+001
      vertex   -6.000000e+001 5.500000e+001 5.250000e+001
      vertex   -7.750000e+001 5.500000e+001 8.250000e+001
    endloop
  endfacet
  facet normal 0.000000e+000 1.000000e+000 0.000000e+000
    outer loop
      vertex   -4.000000e+001 5.500000e+001 5.250000e+001
      vertex   -2.250000e+001 5.500000e+001 4.125000e+001
      vertex   -4.000000e+001 5.500000e+001 2.250000e+001
    endloop
  endfacet
  facet normal 1.000000e+000 -0.000000e+000 0.000000e+000
    outer loop
      vertex   -2.250000e+001 2.500000e+001 8.250000e+001
      vertex   -2.250000e+001 2.500000e+001 4.125000e+001
      vertex   -2.250000e+001 5.500000e+001 8.250000e+001
    endloop
  endfacet
  facet normal 1.000000e+000 -0.000000e+000 0.000000e+000
    outer loop
      vertex   -2.250000e+001 5.500000e+001 8.250000e+001
      vertex   -2.250000e+001 2.500000e+001 4.125000e+001
      vertex   -2.250000e+001 5.500000e+001 4.125000e+001
    endloop
  endfacet
  facet normal 1.000000e+000 0.000000e+000 0.000000e+000
    outer loop
      vertex   -2.250000e+001 5.500000e+001 4.125000e+001
      vertex   -2.250000e+001 2.500000e+001 4.125000e+001
      vertex   -2.250000e+001 2.500000e+001 0.000000e+000
    endloop
  endfacet
  facet normal 1.000000e+000 0.000000e+000 -0.000000e+000
    outer loop
      vertex   -2.250000e+001 5.500000e+001 0.000000e+000
      vertex   -2.250000e+001 5.500000e+001 4.125000e+001
      vertex   -2.250000e+001 2.500000e+001 0.000000e+000
    endloop
  endfacet
endsolid
